<svg width="28" height="28" viewBox="0 0 28 28" fill="none" xmlns="http://www.w3.org/2000/svg">
<path d="M13.9405 16.9629C17.9436 16.9629 21.3616 17.5975 21.3616 20.137C21.3616 22.6755 17.9655 23.3333 13.9405 23.3333C9.93748 23.3333 6.51943 22.6987 6.51943 20.1602C6.51943 17.6206 9.91555 16.9629 13.9405 16.9629ZM20.3409 15.4337C21.8713 15.4053 23.5166 15.6154 24.1246 15.7646C25.4126 16.0178 26.2598 16.5348 26.6108 17.286C26.9075 17.9028 26.9075 18.6183 26.6108 19.2341C26.0739 20.3993 24.3429 20.7733 23.6702 20.87C23.5312 20.891 23.4195 20.7702 23.4341 20.6305C23.7778 17.4016 21.044 15.8707 20.3367 15.5188C20.3064 15.503 20.3002 15.4788 20.3033 15.4641C20.3054 15.4536 20.3179 15.4368 20.3409 15.4337ZM7.37168 15.4315L7.65986 15.4341C7.68285 15.4372 7.69434 15.454 7.69643 15.4635C7.69956 15.4793 7.69329 15.5024 7.66404 15.5192C6.95578 15.8712 4.22197 17.402 4.56565 20.6298C4.58028 20.7706 4.46954 20.8904 4.33061 20.8704C3.65786 20.7738 1.9269 20.3997 1.38996 19.2345C1.09223 18.6177 1.09223 17.9032 1.38996 17.2865C1.74095 16.5352 2.58711 16.0183 3.87515 15.764C4.48417 15.6158 6.12843 15.4057 7.65986 15.4341L7.37168 15.4315ZM13.9405 4.66663C16.666 4.66663 18.8514 6.86261 18.8514 9.60495C18.8514 12.3463 16.666 14.5443 13.9405 14.5443C11.2151 14.5443 9.0297 12.3463 9.0297 9.60495C9.0297 6.86261 11.2151 4.66663 13.9405 4.66663ZM20.6073 5.49017C23.2398 5.49017 25.3071 7.9814 24.603 10.7563C24.1277 12.6245 22.4072 13.8654 20.4903 13.8149C20.2981 13.8097 20.109 13.7918 19.9262 13.7603C19.7935 13.7372 19.7267 13.5869 19.8019 13.4756C20.5331 12.3933 20.9499 11.0915 20.9499 9.69405C20.9499 8.23567 20.4945 6.87605 19.7037 5.76125C19.6786 5.72658 19.6598 5.67299 19.6849 5.63307C19.7058 5.6005 19.7444 5.58368 19.781 5.57528C20.0474 5.52064 20.3211 5.49017 20.6073 5.49017ZM7.39191 5.49007C7.67814 5.49007 7.95184 5.52054 8.21927 5.57517C8.25478 5.58358 8.29448 5.60144 8.31537 5.63296C8.3394 5.67289 8.32164 5.72648 8.29657 5.76115C7.50578 6.87595 7.05032 8.23557 7.05032 9.69395C7.05032 11.0914 7.46713 12.3932 8.19837 13.4754C8.27359 13.5868 8.20673 13.7371 8.07406 13.7602C7.89021 13.7928 7.70217 13.8096 7.50996 13.8148C5.59305 13.8653 3.87253 12.6244 3.39722 10.7562C2.69209 7.98129 4.75943 5.49007 7.39191 5.49007Z" fill="#000000"/>
</svg>
