<svg width="86" height="86" viewBox="0 0 86 86" fill="none" xmlns="http://www.w3.org/2000/svg">
<path d="M61.2405 0.971008C75.4883 0.971008 85.0289 10.9739 85.0289 25.8522V60.194C85.0289 75.0261 75.4883 85.029 61.2405 85.029H24.8014C10.5536 85.029 0.970947 75.0261 0.970947 60.194V25.8522C0.970947 10.9739 10.5536 0.971008 24.8014 0.971008H61.2405ZM60.5681 30.3913C59.1391 28.9623 56.7854 28.9623 55.3565 30.3913L37.9985 47.7493L30.6434 40.3942C29.2144 38.9652 26.8608 38.9652 25.4318 40.3942C24.0028 41.8232 24.0028 44.1348 25.4318 45.6058L35.4347 55.5667C36.1492 56.2812 37.0738 56.6174 37.9985 56.6174C38.9652 56.6174 39.8898 56.2812 40.6043 55.5667L60.5681 35.6029C61.997 34.1739 61.997 31.8623 60.5681 30.3913Z" fill="#F78310"/>
</svg>
