<svg width="80" height="80" viewBox="0 0 80 80" fill="none" xmlns="http://www.w3.org/2000/svg">
<path d="M54.466 6.66406C65.766 6.66406 73.3327 14.5974 73.3327 26.3974V53.6341C73.3327 65.4007 65.766 73.3307 54.466 73.3307H25.566C14.266 73.3307 6.66602 65.4007 6.66602 53.6341V26.3974C6.66602 14.5974 14.266 6.66406 25.566 6.66406H54.466ZM50.0327 29.9007C48.8993 28.7641 47.066 28.7641 45.8993 29.9007L39.9993 35.8307L34.066 29.9007C32.8993 28.7641 31.066 28.7641 29.9327 29.9007C28.7993 31.0341 28.7993 32.9007 29.9327 34.0307L35.866 39.9674L29.9327 45.8674C28.7993 47.0341 28.7993 48.8674 29.9327 49.9974C30.4993 50.5641 31.266 50.8674 31.9993 50.8674C32.766 50.8674 33.4993 50.5641 34.066 49.9974L39.9993 44.1007L45.9327 49.9974C46.4993 50.6007 47.2327 50.8674 47.966 50.8674C48.7327 50.8674 49.466 50.5641 50.0327 49.9974C51.166 48.8674 51.166 47.0341 50.0327 45.9007L44.0993 39.9674L50.0327 34.0307C51.166 32.9007 51.166 31.0341 50.0327 29.9007Z" fill="#BF2525"/>
</svg>
