<?xml version="1.0" standalone="no"?>
<!DOCTYPE svg PUBLIC "-//W3C//DTD SVG 20010904//EN"
 "http://www.w3.org/TR/2001/REC-SVG-20010904/DTD/svg10.dtd">
<svg version="1.0" xmlns="http://www.w3.org/2000/svg"
 width="500.000000pt" height="500.000000pt" viewBox="0 0 500.000000 500.000000"
 preserveAspectRatio="xMidYMid meet">

<g transform="translate(0.000000,500.000000) scale(0.100000,-0.100000)"
fill="#000000" stroke="none">
<path d="M2225 4564 c-306 -41 -615 -145 -875 -294 -595 -342 -986 -920 -1061
-1570 -15 -132 -7 -412 16 -540 128 -714 628 -1307 1345 -1595 327 -131 663
-184 1045 -164 830 43 1579 528 1919 1241 74 155 114 271 150 429 129 585 -18
1193 -407 1674 -89 109 -284 297 -390 375 -324 239 -698 388 -1115 445 -140
19 -486 19 -627 -1z m-885 -1016 c116 -27 248 -129 330 -254 25 -38 165 -328
310 -642 145 -314 264 -571 266 -569 1 1 129 288 284 637 155 349 286 639 291
644 5 5 11 7 15 4 3 -4 24 -120 46 -260 22 -139 42 -255 43 -257 2 -2 25 5 52
15 54 21 156 24 311 10 l92 -9 0 -128 c0 -79 -4 -129 -10 -129 -5 0 -10 10
-10 23 -1 33 -34 99 -66 129 -66 61 -196 80 -284 41 -77 -34 -76 -28 -42 -244
18 -109 36 -197 44 -204 7 -7 102 -83 211 -169 214 -170 276 -238 318 -350 35
-91 40 -219 14 -318 -7 -27 -6 -28 29 -28 42 0 50 -20 9 -21 -45 -1 -58 -11
-107 -76 -93 -124 -232 -187 -411 -187 -161 1 -274 43 -364 139 -59 62 -86
113 -106 197 -19 80 -19 119 0 193 20 76 46 131 92 190 47 63 66 46 23 -21
-51 -81 -73 -170 -68 -277 5 -114 32 -171 112 -245 125 -113 320 -134 479 -49
56 29 137 107 137 131 0 6 -24 17 -52 24 -80 19 -155 61 -218 123 -137 135
-200 280 -235 543 -17 124 -19 132 -56 179 -72 90 -89 232 -41 340 20 44 20
45 -2 203 -20 147 -22 156 -35 128 -143 -312 -477 -1084 -489 -1131 -9 -35
-22 -63 -28 -63 -6 0 -134 268 -284 595 -150 327 -275 593 -278 590 -6 -6 -92
-969 -92 -1037 0 -49 3 -59 26 -77 15 -12 40 -21 55 -21 16 0 29 -4 29 -10 0
-6 -77 -10 -210 -10 -133 0 -210 4 -210 10 0 6 15 10 33 10 47 0 118 39 140
78 16 26 33 151 88 630 l69 596 -47 80 c-104 173 -239 273 -384 284 -45 3 -68
9 -66 16 8 26 144 28 247 4z"/>
<path d="M3042 2092 c14 -96 57 -232 96 -306 45 -86 131 -179 207 -225 65 -39
70 -37 80 41 14 102 -26 225 -101 308 -29 32 -153 135 -280 232 -8 6 -9 -8 -2
-50z"/>
</g>
</svg>
