<?xml version="1.0" standalone="no"?>
<!DOCTYPE svg PUBLIC "-//W3C//DTD SVG 20010904//EN"
 "http://www.w3.org/TR/2001/REC-SVG-20010904/DTD/svg10.dtd">
<svg version="1.0" xmlns="http://www.w3.org/2000/svg"
 width="500.000000pt" height="500.000000pt" viewBox="0 0 500.000000 500.000000"
 preserveAspectRatio="xMidYMid meet">

<g transform="translate(0.000000,500.000000) scale(0.100000,-0.100000)"
fill="#000000" stroke="none">
<path d="M1717 3448 c-14 -18 -39 -56 -56 -84 l-31 -51 -138 68 c-75 37 -147
71 -158 74 -28 7 -57 -21 -50 -48 3 -14 -3 -11 -22 12 -25 30 -31 32 -77 29
l-50 -3 -27 -130 c-42 -200 -70 -316 -75 -312 -5 6 -60 289 -69 357 -16 120
-114 139 -133 25 l-9 -50 -2 45 c-1 35 -3 41 -10 25 -23 -54 -2 -540 26 -582
15 -24 67 -32 79 -13 4 6 7 79 6 163 l0 152 39 -140 c22 -77 40 -143 40 -147
0 -10 30 -38 40 -38 22 0 40 37 58 122 11 51 20 107 21 123 1 17 13 74 28 127
l27 97 13 -37 c22 -65 63 -277 63 -331 0 -64 10 -85 49 -100 39 -17 66 -2 81
44 10 30 6 66 -30 252 -22 120 -43 223 -45 229 -2 8 217 -115 253 -141 1 -1
-13 -30 -33 -64 -56 -99 -87 -182 -90 -236 -3 -59 14 -85 56 -85 36 0 58 30
140 188 43 85 70 127 85 133 31 11 57 53 49 78 -4 14 4 35 25 66 17 25 34 45
39 45 4 0 66 -60 138 -133 175 -178 203 -226 146 -248 -44 -17 -111 -5 -143
26 -37 35 -56 81 -80 194 -21 100 -32 121 -61 121 -30 0 -49 -28 -49 -73 0
-64 49 -316 71 -365 21 -47 43 -53 63 -17 6 11 12 22 13 24 1 2 20 -4 43 -13
54 -21 146 -21 190 2 19 9 44 31 56 49 l21 31 28 -29 c83 -89 224 -101 324
-28 48 34 69 65 92 132 l17 50 7 -89 c10 -116 38 -159 86 -133 31 16 41 55 43
174 l2 110 66 3 65 3 6 -77 c4 -42 7 -104 7 -138 0 -79 8 -104 32 -112 14 -4
28 1 45 18 21 21 25 37 30 119 7 93 7 94 19 53 31 -105 80 -156 156 -161 68
-5 112 18 153 80 16 25 32 46 35 46 3 0 13 -17 23 -39 28 -61 69 -85 146 -85
l63 0 47 51 c32 35 53 69 64 105 l16 54 -4 -90 c-2 -50 1 -98 6 -108 11 -19
48 -22 99 -6 19 6 98 13 174 17 117 6 141 10 150 24 8 13 8 23 -2 38 -6 11
-12 26 -12 35 0 8 -11 22 -25 31 -21 14 -41 16 -103 11 -42 -4 -91 -9 -108
-13 -37 -7 -44 8 -44 99 0 75 -19 291 -30 337 l-8 35 -2 -45 -3 -45 -9 57 c-9
53 -13 58 -44 68 -52 18 -74 1 -74 -58 l-1 -47 -15 28 c-22 41 -75 86 -102 87
-35 0 -89 -26 -102 -49 -6 -12 -15 -19 -20 -16 -6 4 -7 -1 -3 -11 4 -11 3 -15
-5 -10 -7 4 -21 -16 -38 -53 l-27 -59 -22 63 c-22 67 -81 135 -117 135 -36 0
-95 -31 -112 -60 -9 -17 -21 -28 -25 -25 -5 2 -20 -21 -33 -53 -14 -31 -30
-68 -36 -82 -9 -20 -11 -8 -11 70 -1 113 -14 140 -65 140 -59 0 -70 -24 -62
-138 l7 -99 -67 -6 c-37 -4 -70 -4 -74 -2 -4 2 -9 49 -12 102 -4 88 -7 101
-30 126 -29 31 -63 35 -76 10 -5 -10 -5 -65 0 -128 9 -121 6 -175 -6 -80 -20
169 -25 183 -21 58 2 -68 0 -123 -5 -123 -4 0 -13 7 -20 15 -17 20 -64 19 -85
-1 -13 -13 -15 -25 -8 -58 25 -130 -26 -222 -128 -233 -62 -6 -103 22 -136 93
-31 68 -28 135 10 218 23 50 98 136 118 136 5 0 8 -24 8 -52 l-2 -53 -7 40
c-9 43 -3 -157 6 -213 5 -35 44 -68 69 -58 13 5 15 34 11 215 -2 115 -7 215
-11 220 -22 36 -128 -10 -212 -92 l-43 -41 0 40 c0 22 -7 50 -16 62 -30 44
-84 17 -84 -43 l0 -33 -67 44 c-90 59 -233 104 -287 90 -15 -4 -45 -37 -85
-96 -34 -49 -64 -90 -67 -90 -8 0 16 41 62 108 24 35 44 67 44 72 0 20 -20 9
-43 -22z m2090 -124 c0 -69 0 -124 -2 -122 -2 2 -8 52 -14 113 -7 77 -7 113 1
122 6 7 11 13 12 13 0 0 2 -57 3 -126z m-2853 -45 c9 -56 15 -103 13 -105 -3
-4 -47 181 -47 199 0 4 4 7 8 7 5 0 17 -46 26 -101z m2370 33 c26 -78 38 -227
26 -303 -21 -123 -69 -161 -128 -101 l-27 27 23 3 c22 3 23 6 15 50 -15 87 -8
232 15 294 20 57 41 89 54 82 3 -2 13 -26 22 -52z m339 -4 c22 -70 34 -208 25
-286 -14 -123 -60 -170 -121 -122 -32 25 -35 40 -7 40 17 0 19 4 12 33 -15 66
-8 249 11 305 11 30 23 49 29 46 6 -4 9 -1 6 7 -5 14 13 40 23 33 3 -2 13 -27
22 -56z m-1617 -22 c75 -35 121 -85 130 -141 3 -25 5 -47 3 -48 -2 -2 -51 46
-108 105 -57 59 -98 108 -90 108 8 0 37 -11 65 -24z m891 -163 c-20 -2 -52 -2
-70 0 -17 2 0 4 38 4 39 0 53 -2 32 -4z m-433 -82 c-2 -3 -12 3 -22 13 -16 17
-16 18 5 5 12 -7 20 -15 17 -18z m-1035 -100 c-12 -28 -24 -49 -27 -46 -3 3 5
28 18 55 30 65 37 58 9 -9z"/>
<path d="M3256 3278 c-3 -13 -5 -32 -5 -43 1 -11 5 -2 10 19 10 42 6 62 -5 24z"/>
<path d="M3244 3120 c0 -52 1 -74 3 -47 2 26 2 68 0 95 -2 26 -3 4 -3 -48z"/>
<path d="M3252 2995 c0 -16 2 -22 5 -12 2 9 2 23 0 30 -3 6 -5 -1 -5 -18z"/>
<path d="M3591 3260 c-6 -28 -10 -97 -9 -153 l1 -102 7 125 c4 69 10 137 14
153 5 15 6 27 3 27 -3 0 -10 -23 -16 -50z"/>
<path d="M3591 2984 c0 -11 3 -14 6 -6 3 7 2 16 -1 19 -3 4 -6 -2 -5 -13z"/>
<path d="M3966 2799 c-43 -5 -84 -11 -90 -14 -6 -3 14 -3 44 0 30 3 103 5 163
5 64 0 107 4 107 10 0 12 -108 11 -224 -1z"/>
</g>
</svg>
