<svg width="24" height="24" viewBox="0 0 24 24" fill="none" xmlns="http://www.w3.org/2000/svg">
<path d="M8.82518 16.9614L8.82497 16.9614C8.76115 16.9612 8.68406 17.0188 8.68406 17.1209V22.7386C8.68406 22.8904 8.75942 23.0263 8.87424 23.1023L8.87437 23.1023C8.93982 23.1456 9.01315 23.1666 9.08496 23.1666C9.14012 23.1666 9.19531 23.155 9.24857 23.1305C9.24887 23.1303 9.24916 23.1302 9.24946 23.1301L14.3872 20.7176C14.3873 20.7175 14.3874 20.7174 14.3875 20.7174C14.5307 20.6495 14.6294 20.4989 14.6294 20.3245V17.1383C14.6294 17.0377 14.5531 16.9791 14.4888 16.9787C14.4888 16.9787 14.4887 16.9787 14.4886 16.9787M8.82518 16.9614L14.4904 16.4787L14.4886 16.9787M8.82518 16.9614L14.4886 16.9787M8.82518 16.9614L14.4886 16.9787M22.5679 6.14959L22.5675 6.14999L14.9783 13.8266L14.9767 13.8282C14.9394 13.8662 14.8912 13.8851 14.8447 13.8848L14.8429 13.8848L8.48857 13.865H8.48701C8.43843 13.865 8.38748 13.8444 8.34727 13.8005C8.34718 13.8004 8.34709 13.8003 8.347 13.8002L1.37347 6.1305L1.37334 6.13035C1.02759 5.75039 0.833252 5.24496 0.833252 4.71723V2.89212C0.833252 1.74079 1.73469 0.833252 2.81613 0.833252H21.1837C22.2655 0.833252 23.1666 1.73987 23.1666 2.89088V4.67764C23.1666 5.23383 22.949 5.76489 22.5679 6.14959Z" stroke="black"/>
</svg>
