<svg width="24" height="24" viewBox="0 0 24 24" fill="none" xmlns="http://www.w3.org/2000/svg">
<path d="M12.8491 4.7282L12.8426 4.72427C12.3596 4.43211 11.7598 4.4258 11.2796 4.7286C10.8085 5.02305 10.5485 5.55675 10.5892 6.09463V17.9621V17.9916L10.5927 18.021C10.6814 18.7685 11.3085 19.3371 12.0576 19.3371C12.813 19.3371 13.4527 18.7727 13.5238 18.0084L13.5259 17.9853V17.9621V6.10238C13.5826 5.55491 13.3158 5.0204 12.849 4.72825L12.8491 4.7282ZM7.40252 8.55607L7.40181 8.55562C6.92454 8.25512 6.31951 8.25444 5.84233 8.55563C5.37309 8.85035 5.11147 9.38101 5.15374 9.92195V17.9621V17.9847L5.15578 18.0072C5.22525 18.7731 5.86731 19.3371 6.62091 19.3371C7.37628 19.3371 8.01599 18.7727 8.08709 18.0084L8.08924 17.9853V17.9621V9.92264C8.13306 9.37884 7.86673 8.84944 7.40252 8.55607ZM16.6409 12.7863L16.6409 12.7863L16.6347 12.7902C16.1693 13.0821 15.9001 13.6019 15.9571 14.1633V17.9621V17.9853L15.9592 18.0084C16.0303 18.7727 16.67 19.3371 17.4254 19.3371C18.1745 19.3371 18.8016 18.7685 18.8903 18.021L18.8937 17.9916V17.9621V14.1557C18.9347 13.6035 18.6724 13.0852 18.2047 12.7911C17.7245 12.4876 17.1237 12.4932 16.6409 12.7863ZM17.4476 0.83374C19.3383 0.83374 20.7481 1.36827 21.6871 2.30833C22.6264 3.24858 23.1614 4.66146 23.1671 6.5529C23.1671 6.55312 23.1671 6.55333 23.1671 6.55354L23.1671 17.4487C23.1671 19.3389 22.6322 20.7515 21.6917 21.6918C20.7512 22.6322 19.3383 23.1671 17.4476 23.1671H6.55207C4.66132 23.1671 3.24875 22.6322 2.30855 21.6919C1.36834 20.7515 0.83374 19.3389 0.83374 17.4487V6.55207C0.83374 4.66125 1.36835 3.24869 2.30852 2.30852C3.24869 1.36835 4.66125 0.83374 6.55207 0.83374H17.4476Z" stroke="black"/>
</svg>
