<svg width="24" height="20" viewBox="0 0 24 20" fill="none" xmlns="http://www.w3.org/2000/svg">
<path d="M7.4297 15.0712C5.83754 15.0418 4.45534 14.1442 3.74038 12.8313C3.77656 12.832 3.81285 12.8324 3.84925 12.8324C4.33071 12.8324 4.79778 12.7679 5.24192 12.647L5.20896 11.6743C3.48633 11.3284 2.13679 9.94875 1.83417 8.21079C2.33383 8.38731 2.86806 8.49127 3.42334 8.50884L5.16949 8.56411L3.71698 7.59338C2.56571 6.82399 1.80946 5.5118 1.80946 4.02462C1.80946 3.4964 1.90482 2.99107 2.07915 2.52448C4.51027 5.19292 7.95113 6.9259 11.7996 7.119L12.462 7.15224L12.3116 6.50622C12.2387 6.19345 12.2006 5.86614 12.2006 5.52871C12.2006 3.16121 14.1202 1.2417 16.4879 1.2417C17.7212 1.2417 18.835 1.76199 19.6175 2.59566L19.807 2.79755L20.0787 2.74405C20.7043 2.62086 21.3092 2.44021 21.8877 2.20786C21.5543 2.6497 21.1371 3.02539 20.66 3.31138L20.9764 4.2367C21.3901 4.18726 21.796 4.11322 22.1928 4.01584C21.8214 4.39778 21.4171 4.74741 20.9853 5.05908L20.7662 5.21713L20.7784 5.48696C20.7872 5.68467 20.7917 5.88365 20.7917 6.08381C20.7917 12.1947 16.1431 19.2042 7.67149 19.2042C5.7817 19.2042 3.98723 18.8024 2.36494 18.0818C4.37858 17.9068 6.22468 17.1434 7.72889 15.9647L8.8359 15.0972L7.4297 15.0712Z" stroke="black"/>
</svg>
