<svg width="22" height="24" viewBox="0 0 22 24" fill="none" xmlns="http://www.w3.org/2000/svg">
<path d="M19.917 9.06996C19.917 9.14929 19.2953 17.0135 18.9401 20.3232C18.7177 22.3543 17.4083 23.5863 15.4443 23.6213C13.9352 23.6551 12.4579 23.6668 11.0044 23.6668C9.4613 23.6668 7.95222 23.6551 6.4874 23.6213C4.58914 23.5758 3.27862 22.3193 3.06758 20.3232C2.70222 17.0019 2.09179 9.14929 2.08044 9.06996C2.06909 8.83081 2.14625 8.60331 2.30283 8.41899C2.45714 8.24866 2.67953 8.146 2.91327 8.146H19.0956C19.3282 8.146 19.5392 8.24866 19.706 8.41899C19.8615 8.60331 19.9397 8.83081 19.917 9.06996Z" fill=""/>
<path d="M21.5 4.97292C21.5 4.49344 21.1222 4.11779 20.6683 4.11779H17.2666C16.5745 4.11779 15.9731 3.62547 15.8188 2.93133L15.6282 2.08086C15.3616 1.05306 14.4414 0.333252 13.4088 0.333252H8.59228C7.54841 0.333252 6.63729 1.05306 6.36044 2.13686L6.1823 2.93249C6.02685 3.62547 5.42549 4.11779 4.73449 4.11779H1.33283C0.877837 4.11779 0.5 4.49344 0.5 4.97292V5.41624C0.5 5.88406 0.877837 6.27138 1.33283 6.27138H20.6683C21.1222 6.27138 21.5 5.88406 21.5 5.41624V4.97292Z" fill=""/>
</svg>
