<svg width="24" height="24" viewBox="0 0 24 24" fill="none" xmlns="http://www.w3.org/2000/svg">
<path d="M17.4476 0.33374C21.4154 0.33374 23.6554 2.58424 23.6671 6.55207V17.4487C23.6671 21.4154 21.4154 23.6671 17.4476 23.6671H6.55207C2.58424 23.6671 0.33374 21.4154 0.33374 17.4487V6.55207C0.33374 2.58424 2.58424 0.33374 6.55207 0.33374H17.4476ZM12.5837 5.15207C12.2559 4.95374 11.8592 4.95374 11.5454 5.15207C11.2292 5.34924 11.0554 5.71207 11.0892 6.07374V17.9621C11.1487 18.4637 11.5676 18.8371 12.0576 18.8371C12.5604 18.8371 12.9792 18.4637 13.0259 17.9621V6.07374C13.0726 5.71207 12.8987 5.34924 12.5837 5.15207ZM7.13541 8.97874C6.82041 8.78041 6.42257 8.78041 6.10874 8.97874C5.79257 9.17707 5.61874 9.53757 5.65374 9.90041V17.9621C5.69924 18.4637 6.11924 18.8371 6.62091 18.8371C7.12374 18.8371 7.54257 18.4637 7.58924 17.9621V9.90041C7.62541 9.53757 7.44924 9.17707 7.13541 8.97874ZM17.9376 13.2137C17.6237 13.0154 17.2271 13.0154 16.9004 13.2137C16.5842 13.4121 16.4104 13.7609 16.4571 14.1354V17.9621C16.5037 18.4637 16.9226 18.8371 17.4254 18.8371C17.9154 18.8371 18.3342 18.4637 18.3937 17.9621V14.1354C18.4276 13.7609 18.2537 13.4121 17.9376 13.2137Z" fill=""/>
</svg>
