<svg width="24" height="22" viewBox="0 0 24 22" fill="none" xmlns="http://www.w3.org/2000/svg">
<path d="M17.7626 0.5C19.3271 0.5 20.8321 1.11833 21.9392 2.22783C23.0476 3.335 23.6671 4.82833 23.6671 6.39167V15.6083C23.6671 18.8633 21.0187 21.5 17.7626 21.5H6.23707C2.98091 21.5 0.33374 18.8633 0.33374 15.6083V6.39167C0.33374 3.13667 2.96924 0.5 6.23707 0.5H17.7626ZM19.0821 6.56667C18.8371 6.55383 18.6037 6.63667 18.4276 6.8L13.1671 11C12.4904 11.5612 11.5209 11.5612 10.8337 11L5.58374 6.8C5.22091 6.53167 4.71924 6.56667 4.41707 6.88167C4.10207 7.19667 4.06707 7.69833 4.33424 8.04833L4.48707 8.2L9.79541 12.3417C10.4487 12.855 11.2409 13.135 12.0704 13.135C12.8976 13.135 13.7037 12.855 14.3559 12.3417L19.6187 8.13L19.7121 8.03667C19.9909 7.69833 19.9909 7.20833 19.6992 6.87C19.5371 6.69617 19.3142 6.59 19.0821 6.56667Z" fill=""/>
</svg>
