<svg width="22" height="24" viewBox="0 0 22 24" fill="none" xmlns="http://www.w3.org/2000/svg">
<path d="M21.47 5.0796C21.4314 4.47522 21.3121 3.87872 21.1153 3.30599C20.9977 2.95954 20.8411 2.62758 20.6485 2.31651C20.4593 2.02116 20.2403 1.74591 19.9951 1.49505C19.8793 1.35859 19.7477 1.23638 19.603 1.13099C19.4556 1.01927 19.2995 0.919392 19.1363 0.832277C18.4983 0.433006 17.7821 0.175172 17.036 0.0761598C16.8513 0.0395114 16.664 0.0176609 16.4759 0.0108163C16.2272 -0.00360545 15.9778 -0.00360545 15.7291 0.0108163H5.73156C5.5013 0.0108163 5.27726 0.0108163 5.05945 0.0108163C4.63154 0.0405605 4.20688 0.106134 3.78992 0.206847L3.2205 0.384208L2.80043 0.580238C1.78726 1.07535 0.980856 1.91151 0.522748 2.94194C0.476074 3.05396 0.4294 3.18464 0.382726 3.30599C0.177302 3.87768 0.0486044 4.47408 0 5.0796C0 5.2943 0 5.51834 0 5.74237V18.0643C0 18.3008 0 18.5248 0 18.7364C0.0313094 19.2561 0.12534 19.7701 0.280043 20.2673C0.308511 20.3505 0.342824 20.4316 0.382726 20.51C0.429001 20.6568 0.485137 20.8002 0.550752 20.9394C0.550752 20.9861 0.597426 21.0234 0.616096 21.0701C0.634765 21.1168 0.774787 21.3688 0.8588 21.5182C0.942813 21.6675 1.05483 21.8075 1.15751 21.9476C1.2602 22.0876 1.38155 22.2089 1.5029 22.3303C1.75128 22.5783 2.02684 22.7975 2.32436 22.9837C2.46955 23.0721 2.61909 23.1531 2.77243 23.2264C2.90342 23.2959 3.04101 23.3522 3.18316 23.3944C3.58137 23.5578 3.99845 23.6707 4.42469 23.7305C4.60952 23.7661 4.79672 23.7879 4.98477 23.7958C5.23349 23.8103 5.48284 23.8103 5.73156 23.7958H15.7291C15.9656 23.7958 16.1896 23.7958 16.4012 23.7958C16.7593 23.7686 17.1149 23.7156 17.4654 23.6371C17.7019 23.5811 17.9259 23.5158 18.1375 23.4411C18.3242 23.3758 18.5109 23.2918 18.6789 23.2171C19.434 22.8375 20.0773 22.2682 20.5459 21.5648L20.7326 21.2474C20.7979 21.1168 20.8632 20.9861 20.9192 20.8554C20.9753 20.7247 21.0593 20.4913 21.1246 20.2953C21.19 20.0993 21.218 19.9686 21.2553 19.8006C21.3521 19.4514 21.4239 19.0958 21.47 18.7364C21.47 18.5248 21.47 18.3008 21.47 18.0643V5.74237C21.47 5.51834 21.47 5.2943 21.47 5.0796ZM10.5483 6.45182C10.5483 6.69939 10.45 6.93682 10.2749 7.11189C10.0998 7.28695 9.8624 7.38529 9.61483 7.38529H6.05827C5.89915 7.39516 5.74051 7.35955 5.60087 7.28261C5.47935 7.19387 5.38109 7.07708 5.31445 6.94217C5.24781 6.80727 5.21477 6.65825 5.21814 6.50782C5.21698 6.27561 5.30241 6.05129 5.45776 5.87868C5.61311 5.70607 5.82722 5.59757 6.05827 5.57435H9.9042C10.0898 5.63487 10.2518 5.75208 10.3674 5.90948C10.4829 6.06689 10.5462 6.25657 10.5483 6.45182ZM15.4024 18.2416H11.5751C11.4525 18.2239 11.3347 18.1821 11.2282 18.1188C11.1218 18.0555 11.0288 17.9718 10.9547 17.8725C10.8806 17.7733 10.8268 17.6604 10.7963 17.5403C10.7658 17.4203 10.7592 17.2954 10.777 17.1728C10.7948 17.0502 10.8365 16.9323 10.8999 16.8259C10.9632 16.7194 11.0469 16.6265 11.1461 16.5524C11.3466 16.4027 11.5983 16.3388 11.8458 16.3747H15.4024C15.5275 16.3749 15.6513 16.4003 15.7664 16.4494L15.8785 16.5147C15.994 16.6036 16.087 16.7183 16.1503 16.8496C16.2135 16.9809 16.2451 17.1251 16.2425 17.2708C16.2532 17.5094 16.1721 17.743 16.0159 17.9236C15.8596 18.1042 15.64 18.218 15.4024 18.2416ZM15.4024 12.7901H6.06761C5.94414 12.8029 5.81938 12.7895 5.70139 12.751C5.58341 12.7124 5.47483 12.6496 5.38267 12.5664C5.29052 12.4833 5.21685 12.3817 5.16642 12.2683C5.116 12.1549 5.08994 12.0321 5.08994 11.908C5.08994 11.7839 5.116 11.6611 5.16642 11.5477C5.21685 11.4343 5.29052 11.3327 5.38267 11.2496C5.47483 11.1664 5.58341 11.1036 5.70139 11.065C5.81938 11.0265 5.94414 11.0131 6.06761 11.0259H15.4024C15.6406 11.0254 15.8699 11.1161 16.0434 11.2792C16.217 11.4423 16.3216 11.6656 16.3359 11.9033C16.3239 12.1427 16.2203 12.3683 16.0465 12.5334C15.8727 12.6985 15.6421 12.7904 15.4024 12.7901Z" fill=""/>
</svg>
