<?xml version="1.0" standalone="no"?>
<!DOCTYPE svg PUBLIC "-//W3C//DTD SVG 1.1//EN" "http://www.w3.org/Graphics/SVG/1.1/DTD/svg11.dtd" >
<svg xmlns="http://www.w3.org/2000/svg" xmlns:xlink="http://www.w3.org/1999/xlink" version="1.1">
<metadata>
Created by FontForge 20170731 at Sun Apr 23 04:35:12 2017
 By Aleksey,,,
Copyright (c) 2016 by Deni Anggara. All rights reserved.
</metadata>
<defs>
<font id="Biotif-ExtraBoldItalic" horiz-adv-x="565" >
  <font-face 
    font-family="Biotif Extra Bold Italic"
    font-weight="800"
    font-style="italic"
    font-stretch="normal"
    units-per-em="1000"
    panose-1="0 0 9 0 0 0 0 0 0 0"
    ascent="749"
    descent="-251"
    x-height="498"
    cap-height="737"
    bbox="-548 -274 1488 1101"
    underline-thickness="80"
    underline-position="-275"
    slope="-8"
    unicode-range="U+0020-FB02"
  />
<missing-glyph horiz-adv-x="572" 
d="M469 -274h-363v1143h363v-1143zM192 792v-37h74v-43h-75v-37h190v37h-76v43h76v37h-189zM191 645v-119h190v39h-76v80h-114zM266 565h-37v41h37v-41zM191 495v-37h75v-43h-75v-37h114v80h76v37h-190zM343 427v-76h-152v-39h190v115h-38zM266 287v-64h39v26h38v-53h-114
v91h-38v-129h190v129h-115zM191 89v-129h190v129h-190zM343 -2h-114v54h114v-54zM191 -66v-38h80l-80 -53v-38h190v38h-117l80 53h37v38h-190z" />
    <glyph glyph-name="fi" unicode="fi" horiz-adv-x="664" 
d="M643 497l-70 -497h-143l52 375h-223l-53 -375h-143l52 376h-69l17 122h69l10 74q26 179 202 179q32 0 54 -4t28 -5l-20 -124q-14 2 -25 3.5t-20 1.5q-33 0 -52.5 -17t-25.5 -60l-7 -49h367zM680 675q0 -37 -29 -66q-28 -27 -66 -27q-31 0 -51.5 21t-20.5 53q0 19 7.5 36
t21 29.5t31 19.5t36.5 7q31 0 51 -20.5t20 -52.5z" />
    <glyph glyph-name="fl" unicode="fl" horiz-adv-x="646" 
d="M673 750l-105 -750h-142l53 376h-220l-53 -376h-143l52 376h-69l17 122h69l10 74q26 179 202 179q32 0 54 -4t28 -5l-20 -124q-14 2 -25 3.5t-20 1.5q-33 0 -52.5 -17t-25.5 -60l-7 -48h220l35 252h142z" />
    <glyph glyph-name="f_f" unicode="ff" horiz-adv-x="752" 
d="M738 623q-33 0 -52.5 -17t-25.5 -60l-7 -48h98l-17 -122h-98l-53 -376h-143l52 376h-69h-164l-53 -376h-143l52 376h-69l17 122h69l10 74q26 179 202 179q32 0 54 -4t28 -5l-20 -124q-14 2 -25 3.5t-20 1.5q-33 0 -52.5 -17t-25.5 -60l-7 -48h193h40l11 74
q26 179 201 179q33 0 55 -4t27 -5l-20 -124q-14 2 -25 3.5t-20 1.5z" />
    <glyph glyph-name="f_f_i" unicode="ffi" horiz-adv-x="1041" 
d="M651 497h368l-16 -122h-1l-52 -375h-144l53 375l-225 1l-53 -376h-143l52 376h-231l-53 -376h-143l52 376h-69l17 122h69l10 74q26 179 202 179q32 0 54 -4t28 -5l-20 -124q-14 2 -25 3.5t-20 1.5q-33 0 -52.5 -17t-25.5 -60l-7 -48h231l11 74q26 179 201 179q33 0 55 -4
t27 -5l-20 -124q-14 2 -25 3.5t-20 1.5q-33 0 -52.5 -17t-25.5 -60zM1056 675q0 -19 -7.5 -36t-20.5 -29.5t-30.5 -20t-36.5 -7.5q-31 0 -51.5 21t-20.5 53q0 19 7.5 36t21 29.5t31 19.5t36.5 7q31 0 51 -20.5t20 -52.5z" />
    <glyph glyph-name="f_f_l" unicode="ffl" horiz-adv-x="1023" 
d="M1050 750l-106 -750h-142l53 376h-221l-53 -376h-143l52 376h-231l-53 -376h-143l52 376h-69l17 122h69l10 74q26 179 202 179q32 0 54 -4t28 -5l-20 -124q-14 2 -25 3.5t-20 1.5q-33 0 -52.5 -17t-25.5 -60l-7 -48h231l11 74q26 179 201 179q33 0 55 -4t27 -5l-20 -124
q-14 2 -25 3.5t-20 1.5q-33 0 -52.5 -17t-25.5 -60l-7 -48h221l36 252h142z" />
    <glyph glyph-name="f_t" unicode="ft" horiz-adv-x="753" 
d="M757 376h-113l-53 -376h-141l53 376h-244l-53 -376h-143l52 376h-69l17 122h69l10 74q26 179 202 179q32 0 54 -4t28 -5l-20 -124q-14 2 -25 3.5t-20 1.5q-33 0 -52.5 -17t-25.5 -60l-7 -48h244l22 154h141l-22 -154h112z" />
    <glyph glyph-name="f_y" unicode="fy" horiz-adv-x="869" 
d="M907 498l-325 -614q-37 -70 -88.5 -100t-109.5 -30q-59 0 -119 29l54 120q42 -20 71 -20q47 0 69 45l16 31l-111 417h-105l-53 -376h-143l52 376h-69l17 122h69l10 74q26 179 202 179q32 0 54 -4t28 -5l-20 -124q-14 2 -25 3.5t-20 1.5q-33 0 -52.5 -17t-25.5 -60l-7 -48
h207v-1l84 -354l178 355h162z" />
    <glyph glyph-name="t_i" unicode="ti" horiz-adv-x="632" 
d="M649 675q0 -19 -7.5 -36t-20.5 -29.5t-30.5 -20t-36.5 -7.5q-31 0 -51.5 21t-20.5 53q0 19 7.5 36t21 29.5t31 19.5t36.5 7q31 0 51 -20.5t20 -52.5zM543 0h-144l53 376h-170l-53 -376h-142l53 376h-94l17 122h94l22 154h142l-22 -154h313z" />
    <glyph glyph-name="t_t" unicode="tt" horiz-adv-x="728" 
d="M730 376h-94l-53 -376h-142l53 376h-94h-118l-53 -376h-142l53 376h-94l17 122h94l22 154h142l-22 -154h163h49l22 154h142l-22 -154h93z" />
    <glyph glyph-name="t_y" unicode="ty" horiz-adv-x="876" 
d="M914 498l-324 -612q-37 -72 -89 -102t-110 -30t-118 29l54 120q37 -19 70 -19q46 0 69 44l16 32l-110 416h-90l-53 -376h-142l53 376h-94l17 122h94l22 154h142l-22 -154h191h1l83 -355l178 355h162z" />
    <glyph glyph-name=".notdef" horiz-adv-x="572" 
d="M469 -274h-363v1143h363v-1143zM192 792v-37h74v-43h-75v-37h190v37h-76v43h76v37h-189zM191 645v-119h190v39h-76v80h-114zM266 565h-37v41h37v-41zM191 495v-37h75v-43h-75v-37h114v80h76v37h-190zM343 427v-76h-152v-39h190v115h-38zM266 287v-64h39v26h38v-53h-114
v91h-38v-129h190v129h-115zM191 89v-129h190v129h-190zM343 -2h-114v54h114v-54zM191 -66v-38h80l-80 -53v-38h190v38h-117l80 53h37v38h-190z" />
    <glyph glyph-name=".null" horiz-adv-x="0" 
 />
    <glyph glyph-name="nonmarkingreturn" horiz-adv-x="333" 
 />
    <glyph glyph-name="space" unicode=" " horiz-adv-x="261" 
 />
    <glyph glyph-name="exclam" unicode="!" horiz-adv-x="282" 
d="M77 180q-1 22 -1.5 37.5t-0.5 24.5q0 46 4.5 100.5t14.5 118.5l38 274h172l-39 -274q-7 -44 -13 -81t-13 -69q-7 -31 -16 -63.5t-21 -67.5h-125zM41 52q0 40 27.5 65t67.5 25q31 0 50.5 -18.5t19.5 -50.5q0 -39 -27 -63.5t-65 -24.5q-32 0 -52.5 18t-20.5 49z" />
    <glyph glyph-name="quotedbl" unicode="&#x22;" horiz-adv-x="366" 
d="M194 419h-78l3 198q1 38 23 58t52 20q22 0 37.5 -13t15.5 -40q0 -11 -3 -25zM369 419h-78l4 198q1 38 22.5 58t51.5 20q22 0 37.5 -13t15.5 -40q0 -11 -3 -25z" />
    <glyph glyph-name="numbersign" unicode="#" horiz-adv-x="691" 
d="M568 413l-18 -90h114l-27 -142h-114l-36 -181h-142l36 181h-109l-35 -181h-142l36 181h-93l28 142h93l17 90h-103l28 142h103l36 180h141l-35 -180h108l36 180h141l-35 -180h101l-27 -142h-102zM426 413h-108l-18 -90h109z" />
    <glyph glyph-name="dollar" unicode="$" horiz-adv-x="680" 
d="M603 229q0 -99 -66 -164q-67 -64 -176 -74l-12 -82h-104l11 84q-93 13 -143.5 65.5t-50.5 134.5l148 20q-2 -66 66 -83l26 183l-22 6q-75 20 -114 67t-39 119q0 48 17.5 89.5t49 73.5t75 53t94.5 27l10 71h105l-11 -74q76 -14 122.5 -62t54.5 -118l-147 -36q-6 55 -50 76
l-24 -174l18 -5q75 -21 118.5 -69.5t43.5 -127.5zM343 605q-29 -12 -45.5 -34.5t-16.5 -50.5q0 -42 41 -60zM456 218q0 27 -14 42t-40 24l-22 -154q42 10 59 34.5t17 53.5z" />
    <glyph glyph-name="percent" unicode="%" horiz-adv-x="946" 
d="M269 751q69 0 112 -44.5t43 -129.5q0 -48 -13.5 -89t-38 -70t-58 -45.5t-74.5 -16.5q-69 0 -112.5 46t-43.5 128q0 48 13.5 89t37.5 70t58 45.5t76 16.5zM137 0l560 735h140l-559 -735h-141zM245 449q38 0 60.5 33.5t22.5 87.5q0 45 -17.5 65t-46.5 20q-39 0 -62 -32
t-23 -86q0 -45 18.5 -66.5t47.5 -21.5zM741 382q69 0 112.5 -45t43.5 -130q0 -48 -13.5 -88.5t-38 -70t-58 -45.5t-74.5 -16q-69 0 -113 46t-44 128q0 48 13.5 88.5t38.5 70t59 46t74 16.5zM717 80q39 0 61.5 33.5t22.5 87.5q0 45 -18 65t-46 20q-39 0 -62 -32t-23 -86
q0 -45 18 -66.5t47 -21.5z" />
    <glyph glyph-name="ampersand" unicode="&#x26;" horiz-adv-x="759" 
d="M240 430q-27 42 -39 75t-12 67q0 84 55 130q56 48 141 48q83 0 135 -43q53 -44 53 -118q0 -120 -150 -191l99 -141q19 43 25 104h148q-18 -132 -88 -224l96 -137h-167l-31 46q-94 -59 -212 -59q-115 0 -180 53t-65 147q0 77 47 133.5t145 109.5zM361 487q72 42 72 90
q0 22 -13.5 36t-38.5 14q-29 0 -42.5 -18.5t-13.5 -39.5q0 -17 8 -35.5t28 -46.5zM322 112q65 0 114 33l-133 194q-101 -62 -101 -133q0 -40 31.5 -67t88.5 -27z" />
    <glyph glyph-name="quotesingle" unicode="'" horiz-adv-x="271" 
d="M241 423h-91l3 209q1 45 26 67.5t59 22.5q25 0 43.5 -15.5t18.5 -46.5q0 -16 -4 -28z" />
    <glyph glyph-name="parenleft" unicode="(" horiz-adv-x="321" 
d="M167 -107q-54 66 -86 171q-31 102 -31 219q0 159 65 312q63 149 187 265h111q-101 -113 -161 -267q-60 -153 -60 -328q0 -103 21 -204q23 -100 64 -168h-110z" />
    <glyph glyph-name="parenright" unicode=")" horiz-adv-x="330" 
d="M171 488q0 109 -22.5 207.5t-62.5 164.5h110q58 -72 87.5 -175.5t29.5 -215.5q0 -172 -69 -321q-67 -147 -184 -255h-110q108 123 164 277q57 156 57 318z" />
    <glyph glyph-name="asterisk" unicode="*" horiz-adv-x="426" 
d="M310 499l40 -62l-59 -40l-41 58q-15 19 -23 34.5t-16 36.5q-8 -30 -36 -71l-44 -58l-59 40l42 62q13 16 26.5 30.5t29.5 28.5q-47 5 -80 16l-68 25l26 67l66 -22q19 -8 36.5 -17t34.5 -20q-1 5 -5 28.5t-4 52.5v72h72v-72q0 -46 -9 -81q29 20 73 37l67 22l25 -67l-70 -25
q-31 -11 -79 -16q12 -10 25.5 -24.5t29.5 -34.5z" />
    <glyph glyph-name="plus" unicode="+" horiz-adv-x="623" 
d="M566 277h-190l-27 -191h-119l27 191h-192l17 120h191l27 190h119l-27 -190h191z" />
    <glyph glyph-name="comma" unicode="," horiz-adv-x="293" 
d="M231 39q0 -33 -10 -60t-27.5 -47t-42 -31t-54.5 -11v43q31 0 49 18t16 42q-15 -5 -28 -5q-31 0 -50.5 20t-19.5 55q0 36 22 58.5t58 22.5q37 0 62 -25.5t25 -79.5z" />
    <glyph glyph-name="hyphen" unicode="-" horiz-adv-x="525" 
d="M497 341l-19 -127h-432l18 127h433z" />
    <glyph glyph-name="period" unicode="." horiz-adv-x="302" 
d="M72 59q0 40 30 68q32 29 71 29q32 0 54 -23t22 -55q0 -39 -31 -67t-70 -28q-33 0 -54.5 22t-21.5 54z" />
    <glyph glyph-name="slash" unicode="/" horiz-adv-x="475" 
d="M377 750h142l-381 -750h-141z" />
    <glyph glyph-name="zero" unicode="0" horiz-adv-x="769" 
d="M433 750q67 -1 122.5 -25t95.5 -69t62.5 -109.5t22.5 -147.5q1 -85 -26 -161t-75 -132t-114 -88.5t-144 -30.5q-67 0 -124 24t-99 68t-65.5 108t-23.5 143q-1 87 27 164t78 134.5t117.5 90.5t145.5 31zM379 135q49 0 86 22t62 59t37.5 84.5t12.5 98.5q0 94 -40.5 146.5
t-115.5 53.5q-49 0 -86.5 -22.5t-62.5 -60t-37.5 -86t-12.5 -99.5q0 -94 41 -145t116 -51z" />
    <glyph glyph-name="one" unicode="1" horiz-adv-x="424" 
d="M103 653l154 84h144l-103 -737h-144l82 586l-153 -76z" />
    <glyph glyph-name="two" unicode="2" horiz-adv-x="596" 
d="M41 144l345 250q38 28 56.5 56t18.5 62q0 45 -28.5 71.5t-79.5 26.5q-48 0 -84.5 -26.5t-48.5 -83.5h-142q8 60 33.5 106.5t63 78.5t85 48.5t100.5 16.5q54 0 99 -16t77.5 -45t50.5 -69.5t18 -90.5q0 -140 -147 -244l-205 -143l283 1l-21 -141l-494 -2z" />
    <glyph glyph-name="three" unicode="3" horiz-adv-x="587" 
d="M578 614l-168 -149q63 -23 99.5 -76.5t36.5 -135.5q0 -63 -22.5 -112.5t-61 -83.5t-89 -52t-107.5 -18q-55 0 -100.5 17t-78.5 46.5t-51 69.5t-18 86q0 11 0.5 19.5t1.5 13.5h142q-1 -3 -1 -14q0 -45 31 -71.5t83 -26.5q58 0 92.5 34t34.5 88q0 48 -30 74.5t-87 28.5
q-5 1 -17 1h-31h-53l9 96l160 143l-254 2l21 141h475z" />
    <glyph glyph-name="four" unicode="4" horiz-adv-x="658" 
d="M616 133h-95l-19 -133h-140l19 133l-342 1l20 141l350 462h168l-353 -462l177 -1l22 159h140l-22 -159h95z" />
    <glyph glyph-name="five" unicode="5" horiz-adv-x="614" 
d="M583 275q1 -61 -22.5 -114t-64 -92t-94 -60.5t-112.5 -20.5q-51 -1 -97.5 16t-82 48t-55.5 73.5t-19 92.5q0 5 0.5 13t1.5 19h142q-1 -7 -1.5 -12t-0.5 -8q0 -45 29.5 -72t80.5 -27q30 0 56.5 11t46 30.5t31 46t11.5 57.5q0 54 -32.5 85.5t-83.5 31.5q-37 0 -68.5 -16.5
t-48.5 -44.5l-124 33l145 372h376l-20 -143h-266l-41 -97q39 16 88 16q51 0 93 -18t71 -50t45 -75.5t16 -94.5z" />
    <glyph glyph-name="six" unicode="6" horiz-adv-x="678" 
d="M644 279q0 -60 -21 -113t-59.5 -93.5t-93.5 -64t-124 -23.5q-134 0 -208 87q-73 88 -73 239q-1 91 23.5 171.5t72 140.5t116 94t155.5 33q88 0 152.5 -33.5t95.5 -90.5l-126 -70q-44 53 -130 53q-75 0 -125.5 -40t-69.5 -110q28 30 71.5 45t91.5 15q49 0 94.5 -15.5
t80.5 -45.5t56 -75t21 -104zM377 391q-33 0 -61 -12t-48 -32t-31 -46t-11 -55q0 -25 8.5 -47.5t24 -39t38.5 -26.5t52 -10q33 0 61 12t48 32t31.5 46t11.5 54q0 25 -8.5 47.5t-24 39.5t-38.5 27t-53 10z" />
    <glyph glyph-name="seven" unicode="7" horiz-adv-x="552" 
d="M605 735l-20 -145q-133 -90 -207 -211t-98 -210q-24 -87 -36 -169h-146q14 119 75 282q61 161 230 308h-339l21 145h520z" />
    <glyph glyph-name="eight" unicode="8" horiz-adv-x="635" 
d="M479 385q51 -22 76.5 -64.5t25.5 -99.5q0 -53 -22 -96t-61 -73.5t-91.5 -47t-112.5 -16.5q-55 0 -101.5 14t-80 40t-52.5 62.5t-19 80.5q0 73 46 129q45 57 120 80q-37 19 -60 55t-23 87q0 47 19.5 86t53.5 67.5t80 44t98 15.5q48 0 88.5 -13.5t70 -38.5t46 -59t16.5 -76
q0 -25 -4 -42q-19 -100 -113 -135zM350 446q57 0 88 26.5t31 65.5q0 37 -29 61t-78 24q-52 0 -85.5 -26.5t-33.5 -68.5q0 -33 26.5 -57.5t80.5 -24.5zM321 323q-58 0 -96.5 -29.5t-38.5 -80.5q0 -42 30 -67.5t84 -27.5q58 -1 100 28q42 30 42 82q0 45 -33 70t-88 25z" />
    <glyph glyph-name="nine" unicode="9" horiz-adv-x="690" 
d="M658 433q0 -111 -25 -195t-72 -140t-113 -84.5t-149 -28.5q-84 0 -155 33q-70 33 -101 94l130 71q42 -55 128 -55q72 0 121.5 37.5t68.5 106.5q-29 -30 -73.5 -44.5t-89.5 -14.5q-51 0 -96.5 17t-80 49.5t-54.5 80t-20 108.5q-1 57 21.5 108.5t63 90.5t96 61.5
t120.5 21.5q68 0 120 -24t87.5 -67t54 -100.5t18.5 -125.5zM501 493q0 50 -32 86t-90 36q-34 0 -62 -12t-48.5 -32t-31.5 -46t-11 -55q0 -49 32 -87q33 -37 91 -37q34 0 62 12t48 32.5t31 47t11 55.5z" />
    <glyph glyph-name="colon" unicode=":" horiz-adv-x="297" 
d="M85 422q0 39 30 67q32 29 71 29q32 0 54.5 -22.5t22.5 -54.5q0 -19 -8.5 -36.5t-23 -30.5t-32.5 -21t-37 -8q-33 0 -55 22.5t-22 54.5zM34 59q0 40 31 68q32 29 70 29q32 0 54.5 -23t22.5 -55q0 -38 -32 -67q-31 -28 -70 -28q-33 0 -54.5 22t-21.5 54z" />
    <glyph glyph-name="semicolon" unicode=";" horiz-adv-x="301" 
d="M301 441q0 -39 -31 -67q-32 -29 -70 -29q-33 0 -55 22.5t-22 54.5q0 39 30 67q32 29 72 29q32 0 54 -22.5t22 -54.5zM238 59q0 -35 -12.5 -66t-33.5 -54t-49.5 -36t-60.5 -13l6 43q31 0 51 18t22 42q-10 -5 -25 -5q-30 0 -47.5 17t-17.5 47q0 40 26.5 66t66.5 26
q32 0 53 -21t21 -64z" />
    <glyph glyph-name="less" unicode="&#x3c;" horiz-adv-x="436" 
d="M47 326l383 177l-22 -156l-216 -96l189 -96l-22 -156l-334 177z" />
    <glyph glyph-name="equal" unicode="=" horiz-adv-x="509" 
d="M482 481l-16 -120h-391l17 120h390zM58 238h390l-17 -120h-390z" />
    <glyph glyph-name="greater" unicode="&#x3e;" horiz-adv-x="451" 
d="M37 155l216 96l-189 96l22 156l334 -177l-22 -151l-383 -176z" />
    <glyph glyph-name="question" unicode="?" horiz-adv-x="619" 
d="M188 181l3 22q6 44 27 79q22 34 49 57.5t70 52.5q52 35 77 62t25 65q0 39 -24.5 63.5t-73.5 24.5q-54 0 -84 -30.5t-37 -78.5h-145q16 112 88 182q73 70 192 70q51 0 93 -15t73 -43t48 -67.5t17 -89.5q0 -53 -21 -94q-10 -20 -22.5 -36t-28.5 -30t-35 -28.5t-43 -31.5
q-48 -33 -72 -57t-29 -55l-3 -22h-144zM163 57q0 18 7.5 34t21 28.5t31 19.5t37.5 7q34 0 55 -20.5t21 -50.5q0 -36 -27.5 -62t-69.5 -26q-35 0 -55.5 20t-20.5 50z" />
    <glyph glyph-name="at" unicode="@" horiz-adv-x="969" 
d="M931 367q0 -65 -17.5 -121.5t-47 -98.5t-69.5 -66t-85 -24q-42 0 -72.5 22.5t-33.5 67.5q-24 -39 -67.5 -61t-100.5 -22q-46 0 -84 15.5t-65 44t-41.5 68.5t-14.5 89q0 21 3 43q7 57 30.5 105t58 82.5t78.5 53.5t91 19q54 0 96 -25t64 -67l14 76h76l-62 -361
q-1 -4 -2.5 -15.5t-1.5 -20.5q0 -34 26 -39q3 -1 11 -1q26 0 49.5 19t41.5 52.5t29 78t11 95.5q1 69 -23.5 125t-67.5 95.5t-100.5 61t-122.5 20.5q-79 2 -150.5 -29t-125 -85t-84 -126t-29.5 -151q-1 -66 21 -127.5t63 -108t100.5 -74t134.5 -26.5q67 0 137.5 21.5
t127.5 60.5l35 -69q-63 -40 -145 -62q-82 -24 -159 -24q-79 -1 -151.5 27t-128 81t-87.5 128t-31 167q-2 102 37 189t105 150t153 98t180 33q84 1 156.5 -27t126.5 -79.5t84.5 -122.5t28.5 -155zM617 327q3 23 3 42q0 72 -36 107.5t-90 35.5q-32 0 -62 -14.5t-53.5 -40.5
t-40 -62t-21.5 -80q-1 -10 -1.5 -17t-0.5 -12q0 -70 36 -109.5t94 -39.5q32 0 60.5 13t51 38t38.5 60t22 79z" />
    <glyph glyph-name="A" unicode="A" horiz-adv-x="673" 
d="M629 0h-157l-32 161h-237l-77 -161h-151l356 737h137zM416 290l-44 222l-107 -222h151z" />
    <glyph glyph-name="B" unicode="B" horiz-adv-x="664" 
d="M620 218q0 -52 -20 -92.5t-55.5 -68.5t-85 -42.5t-109.5 -14.5h-200h-106l103 735h148h160q97 0 151 -48t54 -127q0 -72 -35.5 -121t-90.5 -73q38 -20 62 -57t24 -91zM507 526q0 35 -20.5 58.5t-65.5 23.5h-144l-26 -186h143q54 0 83.5 31t29.5 73zM475 229
q0 37 -24 59.5t-64 22.5h-152l-26 -184h151q51 0 83 28t32 74z" />
    <glyph glyph-name="C" unicode="C" horiz-adv-x="760" 
d="M621 473q-19 66 -70 99.5t-114 33.5q-49 0 -91 -20.5t-72 -56.5t-47 -84.5t-17 -104.5q0 -97 50.5 -151t137.5 -54q60 0 110 31t81 97l138 -59q-16 -45 -49 -84t-77 -68.5t-98.5 -46.5t-114.5 -17q-63 0 -124 20t-108.5 63t-76.5 109.5t-28 157.5q-1 83 26.5 158t78 132
t121.5 90.5t157 31.5q63 0 117 -16.5t96 -46t70.5 -68.5t39.5 -84z" />
    <glyph glyph-name="D" unicode="D" horiz-adv-x="757" 
d="M737 402q1 -85 -27.5 -158.5t-80 -128t-122 -85.5t-152.5 -30h-211h-100l103 737h150h113q70 1 130.5 -23.5t104.5 -69t68.5 -106.5t23.5 -136zM579 402q0 44 -13 80t-37 61.5t-58.5 39.5t-77.5 14h-116l-65 -459h114q56 0 102.5 20t80 55t52 83.5t18.5 105.5z" />
    <glyph glyph-name="E" unicode="E" horiz-adv-x="599" 
d="M277 596l-22 -157l280 -1l-20 -132h-279l-23 -165l314 -1l-20 -140h-463l103 737h464l-21 -142z" />
    <glyph glyph-name="F" unicode="F" horiz-adv-x="577" 
d="M277 596l-24 -168l265 -1l-20 -136l-264 1l-41 -292h-150l104 737h149h316l-21 -141h-314z" />
    <glyph glyph-name="G" unicode="G" horiz-adv-x="791" 
d="M414 431h345l-61 -431h-128l1 58q-38 -36 -90.5 -52.5t-106.5 -16.5q-69 0 -128.5 23t-102.5 66.5t-67.5 105.5t-24.5 140q-1 90 27.5 168t80.5 136t123.5 90.5t155.5 31.5q63 0 116.5 -15t95 -42t71 -65t44.5 -85l-135 -52q-21 57 -71 88t-116 31q-55 0 -99 -20.5
t-75.5 -57t-48.5 -87t-17 -110.5q0 -53 17 -92t44.5 -64.5t62 -38t69.5 -12.5q70 0 128 37q59 37 76 128l1 7h-205z" />
    <glyph glyph-name="H" unicode="H" horiz-adv-x="747" 
d="M147 737h149l-41 -298l291 -1l42 299h150l-104 -737h-150l43 305l-291 2l-43 -307h-149z" />
    <glyph glyph-name="I" unicode="I" horiz-adv-x="288" 
d="M44 0l103 737h149l-103 -737h-149z" />
    <glyph glyph-name="J" unicode="J" horiz-adv-x="549" 
d="M563 737l-65 -465l-10 -68q-15 -96 -81 -158q-64 -60 -170 -60t-165 51.5t-59 136.5q0 11 0.5 20t1.5 15l3 26h144l-3 -26q-1 -3 -1 -14q0 -31 21 -50.5t58 -19.5q43 0 69.5 23.5t33.5 66.5l9 57l64 465h150z" />
    <glyph glyph-name="K" unicode="K" horiz-adv-x="679" 
d="M141 737h149l-49 -341l317 341h197l-340 -370l227 -367h-188l-148 249l-99 -107l-20 -142h-150z" />
    <glyph glyph-name="L" unicode="L" horiz-adv-x="545" 
d="M504 134l-18 -134h-418h-24l103 737h151l-84 -603h290z" />
    <glyph glyph-name="M" unicode="M" horiz-adv-x="891" 
d="M891 737l-103 -737h-147l53 376l-211 -376h-141l-103 376l-53 -376h-142l103 737h142l148 -563l307 563h147z" />
    <glyph glyph-name="N" unicode="N" horiz-adv-x="767" 
d="M147 737h148l253 -498l70 498h148l-104 -737h-147l-254 497l-70 -497h-147z" />
    <glyph glyph-name="O" unicode="O" horiz-adv-x="789" 
d="M445 750q75 0 135.5 -24t103.5 -68t66.5 -105t23.5 -136q2 -97 -31 -176.5t-88 -136.5t-127 -88t-150 -30q-74 0 -134.5 24.5t-104 68.5t-67 105.5t-23.5 135.5q-2 97 30.5 176.5t87.5 136.5t127.5 88t150.5 29zM384 133q44 -1 85.5 19t74 57t52.5 88.5t19 114.5
q0 88 -47 140.5t-131 52.5q-43 1 -84.5 -18.5t-74 -56t-52 -88t-18.5 -114.5q0 -90 47 -142.5t129 -52.5z" />
    <glyph glyph-name="P" unicode="P" horiz-adv-x="654" 
d="M660 503q-1 -53 -20 -99.5t-54 -81.5t-86 -55t-115 -20h-158l-34 -247h-149l103 737h278q54 0 98 -15.5t74.5 -45.5t47 -73.5t15.5 -99.5zM278 604l-32 -227h118q35 0 60.5 11t42.5 29.5t25.5 43t8.5 51.5q0 39 -25.5 65.5t-79.5 26.5h-118z" />
    <glyph glyph-name="Q" unicode="Q" horiz-adv-x="790" 
d="M727 0h-152l-21 26q-81 -40 -173 -40q-74 0 -134.5 24.5t-104 68.5t-67 105.5t-23.5 135.5q-1 97 31.5 176.5t87.5 136.5t127 88t150 29q75 0 135.5 -24t103.5 -68t66.5 -105t23.5 -136q0 -100 -33 -182t-93 -139zM369 257h154l32 -40q63 80 63 195q0 88 -46.5 140.5
t-130.5 52.5q-45 0 -86.5 -19.5t-73.5 -55.5t-51 -87t-19 -115q0 -90 47.5 -142.5t129.5 -52.5q38 0 70 13z" />
    <glyph glyph-name="R" unicode="R" horiz-adv-x="681" 
d="M609 0h-166l-75 266h-138l-37 -266h-149l103 737h149h150q51 0 93.5 -14.5t73 -42t47.5 -69t17 -95.5q0 -79 -41 -139.5t-116 -88.5zM249 396h133q70 0 102.5 34.5t32.5 83.5q0 42 -25 66t-79 24h-135z" />
    <glyph glyph-name="S" unicode="S" horiz-adv-x="605" 
d="M362 750q108 0 172 -51t69 -134l-147 -37q-2 42 -32 63.5t-78 21.5q-54 0 -83.5 -24.5t-29.5 -62.5q0 -54 67 -73l108 -32q84 -24 125.5 -74.5t41.5 -125.5q0 -51 -21 -94t-59 -74t-92.5 -48.5t-120.5 -17.5q-115 0 -184 52t-77 143l146 36q0 -45 35 -69t95 -24
q57 0 91.5 23.5t34.5 61.5q0 53 -67 72l-110 34q-81 25 -123 74.5t-42 118.5q0 53 20.5 97t57 76t88.5 50t115 18z" />
    <glyph glyph-name="T" unicode="T" horiz-adv-x="592" 
d="M624 595h-203l-84 -595h-149l83 595h-204l20 142h557z" />
    <glyph glyph-name="U" unicode="U" horiz-adv-x="737" 
d="M142 737h150l-62 -437q-3 -19 -3 -36q0 -67 37.5 -100.5t100.5 -33.5q72 0 117.5 42t56.5 124l63 441h149l-66 -470q-9 -67 -36.5 -119t-69.5 -87.5t-97 -54t-120 -18.5q-62 0 -114.5 17t-90.5 50.5t-59.5 82.5t-21.5 112q0 13 1.5 28t3.5 32z" />
    <glyph glyph-name="V" unicode="V" horiz-adv-x="737" 
d="M804 737l-385 -737h-157l-183 737h171l120 -524l267 524h167z" />
    <glyph glyph-name="W" unicode="W" horiz-adv-x="1048" 
d="M1106 737l-327 -737h-146l-77 467l-212 -467h-147l-117 737h165l64 -475l203 475h166l66 -477l202 477h160z" />
    <glyph glyph-name="X" unicode="X" horiz-adv-x="708" 
d="M277 737l108 -239l183 239h174l-284 -368l197 -369h-178l-120 247l-200 -247h-174l301 376l-186 361h179z" />
    <glyph glyph-name="Y" unicode="Y" horiz-adv-x="671" 
d="M247 737l111 -302l211 302h162l-314 -448l-40 -289h-150l40 289l-188 448h168z" />
    <glyph glyph-name="Z" unicode="Z" horiz-adv-x="563" 
d="M22 143l389 450l-325 -1l20 145h499l-20 -143l-390 -451h322l-20 -143h-494z" />
    <glyph glyph-name="bracketleft" unicode="[" horiz-adv-x="344" 
d="M297 -106h-238l135 963h238l-15 -110h-119l-104 -743h118z" />
    <glyph glyph-name="backslash" unicode="\" horiz-adv-x="592" 
d="M383 0l-287 735h142l286 -735h-141z" />
    <glyph glyph-name="bracketright" unicode="]" horiz-adv-x="297" 
d="M125 4l104 743h-119l15 110h238l-135 -963h-238l16 110h119z" />
    <glyph glyph-name="asciicircum" unicode="^" horiz-adv-x="442" 
d="M314 480l-61 115l-60 -115h-121l121 230h121l120 -230h-120z" />
    <glyph glyph-name="underscore" unicode="_" horiz-adv-x="555" 
d="M493 -16l-15 -102h-435l15 102h435z" />
    <glyph glyph-name="grave" unicode="`" horiz-adv-x="253" 
d="M17 921h130l76 -151h-104z" />
    <glyph glyph-name="a" unicode="a" horiz-adv-x="625" 
d="M617 498l-70 -498h-133l2 53q-25 -32 -67.5 -48t-88.5 -16q-52 0 -93 17t-69.5 48t-44 74t-15.5 94q0 66 20 119.5t55.5 91.5t84 59t104.5 21q55 0 100 -19.5t69 -53.5l15 58h131zM435 261q0 57 -34.5 89t-83.5 32q-27 0 -51.5 -11t-43 -30.5t-29.5 -46.5t-11 -58
q0 -57 33 -89.5t84 -32.5q29 0 53.5 11.5t43 32t29 47t10.5 56.5z" />
    <glyph glyph-name="b" unicode="b" horiz-adv-x="643" 
d="M622 276q1 -60 -19.5 -113t-56.5 -92.5t-85.5 -62t-106.5 -21.5q-63 0 -106 20.5t-61 53.5l-16 -61h-133l106 750h142l-41 -295q20 27 59 43t88 16q48 0 89.5 -16t73 -46t49.5 -74.5t18 -101.5zM477 262q0 58 -34 91t-85 33q-30 0 -55.5 -12t-44 -32t-29 -47.5
t-10.5 -57.5q0 -57 35 -89t86 -32q59 0 98 41q39 42 39 105z" />
    <glyph glyph-name="c" unicode="c" 
d="M309 513q97 0 158.5 -44.5t80.5 -113.5l-128 -48q-10 36 -37 56.5t-69 20.5q-30 0 -54.5 -11.5t-41.5 -31.5t-26.5 -47.5t-9.5 -59.5q0 -57 29.5 -88t80.5 -31q42 0 70 20.5t44 54.5l122 -51q-28 -70 -92 -111t-146 -41q-59 0 -105.5 17.5t-79 50t-49.5 78t-17 100.5
q0 60 20 111.5t56 89t85.5 58.5t108.5 21z" />
    <glyph glyph-name="d" unicode="d" horiz-adv-x="628" 
d="M655 750l-106 -750h-132l3 54q-22 -32 -63.5 -49.5t-92.5 -17.5q-45 0 -86 15.5t-72 45.5t-49.5 74.5t-18.5 102.5q-1 60 19 113t57 92.5t88 61.5t112 21q51 0 91.5 -16t64.5 -46l42 299h143zM319 386q-30 0 -55 -11.5t-43 -32t-28 -47.5t-10 -57q0 -58 34.5 -90
t86.5 -32q58 0 97 41t39 104q0 60 -34.5 92.5t-86.5 32.5z" />
    <glyph glyph-name="e" unicode="e" 
d="M310 513q51 0 94 -15.5t74.5 -44.5t49.5 -70.5t18 -93.5q0 -19 -3 -40l-6 -49h-364q-1 -43 27.5 -67t74.5 -24q40 0 70.5 18t45.5 48l123 -51q-35 -66 -97 -101.5t-143 -35.5q-51 0 -94 15t-74.5 44.5t-49.5 72.5t-18 100q0 61 18.5 114.5t53.5 93.5t85.5 63t114.5 23z
M405 296q3 45 -24.5 72.5t-75.5 27.5q-46 0 -78.5 -26t-42.5 -74h221z" />
    <glyph glyph-name="f" unicode="f" horiz-adv-x="378" 
d="M361 623q-33 0 -52.5 -17t-25.5 -60l-7 -48h117l-14 -115h-119l-54 -383h-143l53 383h-68l15 115h69l10 74q26 179 202 179q32 0 54 -4t28 -5l-20 -124q-14 2 -25 3.5t-20 1.5z" />
    <glyph glyph-name="g" unicode="g" horiz-adv-x="576" 
d="M587 568q16 0 21 -1l-15 -114q-4 1 -19 1q-42 0 -67 -22q28 -41 28 -97q0 -49 -18 -90t-51.5 -70t-80 -45t-103.5 -16q-51 0 -95 16q-17 -4 -24.5 -13t-7.5 -19q0 -11 12.5 -19t36.5 -8h135q90 0 138.5 -40t48.5 -109q0 -173 -278 -173q-125 0 -189.5 32.5t-64.5 92.5
q0 74 68 110q-32 27 -32 70q0 17 4.5 34t15 33t27.5 29t42 21q-49 49 -49 121q0 50 18.5 90.5t52.5 69.5t81.5 45t104.5 16q66 0 116 -26q22 37 60 59t84 22zM395 322q0 34 -22.5 56.5t-61.5 22.5q-43 0 -72.5 -26t-29.5 -71q0 -34 23.5 -56t60.5 -22q45 0 73.5 27t28.5 69z
M160 -47h-10q-25 -16 -25 -42q0 -27 30.5 -36.5t99.5 -9.5q58 0 94 10t36 42q0 20 -16.5 28t-45.5 8h-163z" />
    <glyph glyph-name="h" unicode="h" horiz-adv-x="603" 
d="M566 322q0 -14 -1 -27t-3 -26l-37 -269h-142l37 264q1 11 1.5 18t0.5 11q0 53 -27 72q-26 19 -59 19q-37 0 -74 -26q-35 -26 -45 -95l-37 -263h-142l106 750h143l-41 -284q24 22 60.5 34.5t78.5 12.5q81 0 131 -47t50 -144z" />
    <glyph glyph-name="i" unicode="i" horiz-adv-x="270" 
d="M118 657q1 38 29 64.5t67 26.5q31 0 51 -20.5t20 -51.5q0 -19 -7.5 -36.5t-20.5 -30t-30 -20t-36 -7.5q-32 0 -52.5 21.5t-20.5 53.5zM250 498l-70 -498h-143l70 498h143z" />
    <glyph glyph-name="j" unicode="j" horiz-adv-x="301" 
d="M149 657q1 38 29 64.5t67 26.5q31 0 51 -20.5t20 -51.5q0 -19 -7.5 -36.5t-20.5 -30t-30 -20t-36 -7.5q-32 0 -52.5 21.5t-20.5 53.5zM-58 -113q26 -10 48 -10q63 0 73 78l76 543h142l-81 -576q-13 -88 -67.5 -131t-129.5 -43q-51 0 -104 19z" />
    <glyph glyph-name="k" unicode="k" horiz-adv-x="563" 
d="M38 0l106 750h142l-61 -434l198 182h178l-249 -230l164 -268h-173l-100 169l-44 -41l-18 -128h-143z" />
    <glyph glyph-name="l" unicode="l" horiz-adv-x="259" 
d="M144 750h142l-105 -750h-143z" />
    <glyph glyph-name="m" unicode="m" horiz-adv-x="901" 
d="M868 344q0 -19 -3 -42l-43 -302h-138l39 280q1 10 1.5 16.5t0.5 10.5q0 42 -21 62.5t-57 20.5q-39 0 -68 -24.5t-37 -81.5l-40 -284h-140l40 277q1 10 1.5 17t0.5 12q0 83 -79 83q-42 0 -69.5 -24t-33.5 -73l-41 -292h-143l70 498h132l-1 -47q44 63 138 63q60 0 99 -24.5
t55 -72.5q21 45 64 71t103 26q78 0 124 -44t46 -126z" />
    <glyph glyph-name="n" unicode="n" horiz-adv-x="604" 
d="M569 325q0 -20 -3 -43l-41 -282h-142l38 269q1 10 1.5 16.5t0.5 10.5q0 46 -25.5 67t-63.5 21q-99 0 -115 -115l-39 -269h-142l70 498h133l-1 -46q19 27 56 44t83 17q88 0 139 -50t51 -138z" />
    <glyph glyph-name="o" unicode="o" horiz-adv-x="592" 
d="M319 512q52 0 97.5 -16.5t79.5 -48t53.5 -77.5t19.5 -104q1 -56 -20 -107t-58 -89t-88 -60.5t-111 -21.5q-54 0 -100 16.5t-80 47.5t-53.5 77t-19.5 104q-1 56 20 106.5t58.5 89.5t89 61.5t112.5 21.5zM292 115q58 0 95 43q38 44 38 107q0 57 -29.5 88.5t-80.5 31.5
q-58 0 -95 -43t-37 -106q0 -57 29 -89t80 -32z" />
    <glyph glyph-name="p" unicode="p" horiz-adv-x="644" 
d="M621 270q0 -64 -21.5 -116.5t-57.5 -89.5t-84.5 -57t-102.5 -20q-57 0 -101 20t-65 52l-42 -295h-142l103 734h132l-1 -48q22 30 62 46.5t88 16.5q47 0 89 -15.5t73.5 -46t50.5 -76t19 -105.5zM356 385q-30 0 -55 -11.5t-43 -31.5t-28.5 -47t-10.5 -57q0 -57 33.5 -89
t84.5 -33q28 0 53.5 11t44.5 30.5t30 46t11 58.5q0 57 -33 90t-87 33z" />
    <glyph glyph-name="q" unicode="q" horiz-adv-x="629" 
d="M620 498l-103 -734h-143l39 273q-24 -25 -61.5 -37.5t-82.5 -12.5q-46 0 -87.5 16.5t-73 48t-50.5 76.5t-19 103q-1 57 18.5 108.5t55 90.5t84.5 61.5t107 21.5q63 0 107.5 -21t61.5 -51l15 57h132zM440 263q0 57 -34 89.5t-86 32.5q-30 0 -55.5 -11.5t-44 -32
t-28.5 -47.5t-10 -57q0 -57 34 -89t85 -32q29 0 54.5 11t44 30.5t29.5 46.5t11 59z" />
    <glyph glyph-name="r" unicode="r" horiz-adv-x="401" 
d="M366 506q31 0 63 -8l-18 -131q-22 5 -45 5q-63 0 -104 -39.5t-50 -105.5l-32 -227h-142l70 498h133l-1 -58q17 34 50.5 50t75.5 16z" />
    <glyph glyph-name="s" unicode="s" horiz-adv-x="474" 
d="M224 101q31 0 49.5 12t18.5 34q0 26 -40 39l-59 20q-64 23 -95.5 55.5t-31.5 83.5q0 34 13.5 64.5t39 53.5t63 36.5t86.5 13.5q79 0 130 -35.5t60 -96.5l-133 -30q1 22 -16 34.5t-44 12.5t-44 -12.5t-17 -33.5q0 -14 11.5 -24t37.5 -19l60 -20q63 -22 93 -53.5t30 -83.5
q0 -79 -57.5 -122t-154.5 -43q-93 0 -145.5 39t-57.5 105l134 22q-2 -23 16.5 -37.5t52.5 -14.5z" />
    <glyph glyph-name="t" unicode="t" horiz-adv-x="374" 
d="M376 376h-95l-52 -376h-142l53 376h-94l17 122h94l22 154h141l-22 -154h95z" />
    <glyph glyph-name="u" unicode="u" horiz-adv-x="605" 
d="M597 498l-70 -498h-133l1 43q-25 -27 -64.5 -41.5t-84.5 -14.5q-75 0 -129 39q-53 39 -53 132q0 14 1 26.5t3 25.5l42 288h143l-39 -274q-1 -9 -1.5 -15t-0.5 -10q0 -25 7.5 -41.5t20 -26t28.5 -13.5t32 -4q37 0 72 23q35 24 44 87l39 274h142z" />
    <glyph glyph-name="v" unicode="v" horiz-adv-x="576" 
d="M614 498l-287 -498h-140l-135 498h155l70 -328l173 328h164z" />
    <glyph glyph-name="w" unicode="w" horiz-adv-x="822" 
d="M859 498l-246 -498h-132l-55 287l-138 -287h-138l-98 498h149l43 -291l133 291h146l45 -296l131 296h160z" />
    <glyph glyph-name="x" unicode="x" horiz-adv-x="552" 
d="M-11 0l214 242l-151 256h163q16 -28 36.5 -64.5t46.5 -84.5l119 149h172l-221 -254l147 -244h-163q2 -4 -10.5 18.5t-40.5 72.5q-8 17 -15 29.5t-12 21.5l-116 -142h-169z" />
    <glyph glyph-name="y" unicode="y" horiz-adv-x="594" 
d="M631 498l-330 -620q-36 -69 -86.5 -98.5t-107.5 -29.5q-58 0 -119 29l54 124q29 -18 60 -18q51 0 75 47l22 43l-147 523h150l88 -347l178 347h163z" />
    <glyph glyph-name="z" unicode="z" horiz-adv-x="493" 
d="M33 127l260 244h-225l17 127h412l-18 -127l-265 -244h231l-18 -127h-411z" />
    <glyph glyph-name="braceleft" unicode="{" horiz-adv-x="338" 
d="M366 857h61l-14 -101q-33 0 -50 -10t-20 -40l-27 -187q-12 -93 -77 -146q39 -42 39 -108q0 -17 -3 -37l-22 -162q-1 -9 -1.5 -15t-0.5 -8q0 -29 13.5 -38.5t41.5 -9.5l-14 -101h-70q-46 0 -71 29.5t-25 78.5q0 4 0.5 10.5t1.5 15.5l25 173q3 21 3 36q0 32 -8.5 49
t-19.5 25t-21.5 9t-15.5 0v1l14 101h20q20 0 44.5 32t32.5 92l24 178q9 63 44 98t96 35z" />
    <glyph glyph-name="bar" unicode="|" horiz-adv-x="261" 
d="M267 788l-124 -878h-121l124 878h121z" />
    <glyph glyph-name="braceright" unicode="}" horiz-adv-x="303" 
d="M261 506q0 -41 13 -60q13 -18 79 -33q32 -7 25.5 -4.5t-53.5 13.5l-14 -102q-6 2 -19.5 0t-28.5 -13.5t-28.5 -36t-19.5 -69.5l-24 -174q-8 -60 -44 -96.5t-87 -36.5h-70l14 101q32 0 49.5 14t23.5 56l23 163q12 92 77 145q-39 42 -39 108q0 19 3 38l26 186q1 3 1 13
q0 23 -14 30.5t-43 7.5l14 101h61q52 0 78 -26.5t26 -75.5q0 -10 -0.5 -18t-1.5 -13l-24 -178q-3 -22 -3 -40z" />
    <glyph glyph-name="asciitilde" unicode="~" horiz-adv-x="476" 
d="M444 308q-4 -57 -31.5 -90.5t-78.5 -33.5q-31 0 -56.5 11t-59.5 33q-23 15 -38 22.5t-30 7.5q-18 0 -31 -11t-14 -30h-69q4 55 31.5 88.5t75.5 33.5q29 0 53 -10.5t57 -31.5q26 -16 42.5 -24t33.5 -8q18 0 30.5 10t15.5 33h69z" />
    <glyph glyph-name="exclamdown" unicode="&#xa1;" horiz-adv-x="280" 
d="M290 683q0 -40 -27.5 -65t-65.5 -25q-32 0 -52 18.5t-20 50.5q0 39 27.5 63.5t66.5 24.5q31 0 51 -18t20 -49zM255 479q0 -82 -18 -205l-39 -274h-171l39 274q6 42 12 77.5t13 69t16 66t21 68.5h124q3 -40 3 -76z" />
    <glyph glyph-name="cent" unicode="&#xa2;" horiz-adv-x="625" 
d="M308 627l16 108h120l-15 -106q63 -11 105 -52t53 -102l-124 -43q-7 31 -32.5 54t-70.5 23q-33 0 -59 -14t-43 -37.5t-26 -54t-9 -63.5q0 -51 26 -83.5t78 -32.5q39 0 67 19.5t44 48.5l118 -50q-27 -54 -81 -90t-120 -46l-15 -107h-120l16 115q-75 21 -114 80.5t-39 140.5
q0 51 15.5 99t44.5 87t70.5 67t94.5 39z" />
    <glyph glyph-name="sterling" unicode="&#xa3;" horiz-adv-x="743" 
d="M534 238h138q-6 -54 -26 -98t-52.5 -75t-77.5 -48t-101 -17h-378l19 140q22 2 44.5 14t40.5 32t29 46.5t11 56.5q0 15 -3 30h-95l16 118h54q-1 11 -1.5 19.5t-0.5 15.5q-1 58 20.5 109t60 89t91.5 59.5t114 20.5q97 0 160 -46t79 -124l-140 -43q-10 38 -38.5 58.5
t-70.5 20.5q-61 0 -99 -38t-38 -98q0 -18 5 -43h252l-16 -118h-215v-16q-1 -48 -17 -93.5t-53 -69.5h177q101 0 111 98z" />
    <glyph glyph-name="currency" unicode="&#xa4;" horiz-adv-x="764" 
d="M145 229q-22 43 -22 107q0 88 60 172l-68 78l105 93l68 -78q71 41 150 41q77 0 136 -41l90 78l79 -93l-90 -77q22 -48 22 -110q0 -89 -61 -171l68 -77l-106 -93l-68 78q-70 -41 -147 -41t-138 41l-91 -78l-77 93zM378 225q32 0 61.5 13t52.5 35t37 51t14 60q0 27 -9 50.5
t-25.5 40.5t-39.5 27t-50 10q-32 0 -62 -13t-52.5 -35t-36 -51t-13.5 -62q0 -27 9 -50t25.5 -40t39 -26.5t49.5 -9.5z" />
    <glyph glyph-name="yen" unicode="&#xa5;" horiz-adv-x="796" 
d="M307 735l113 -300l203 300h173l-251 -343h86l-15 -112h-144l-6 -41h144l-15 -113h-144l-19 -126h-141l18 126h-144l16 113h144l5 41h-144l16 112h89l-153 343h169z" />
    <glyph glyph-name="brokenbar" unicode="&#xa6;" horiz-adv-x="266" 
d="M270 791l-47 -333h-121l47 333h121zM196 273l-48 -343h-121l49 343h120z" />
    <glyph glyph-name="section" unicode="&#xa7;" horiz-adv-x="507" 
d="M395 267q57 -37 57 -108q0 -34 -13.5 -63t-37.5 -50.5t-57 -33.5t-72 -12q-68 0 -121 35q-51 34 -65 94l111 25q7 -25 27.5 -38t50.5 -13t47 13t17 35q0 30 -42 42l-62 16q-55 13 -101 50q-45 36 -45 109q0 74 58 114q-57 38 -57 108q0 34 13.5 63t37.5 50.5t57 34
t72 12.5q34 0 65 -9t55.5 -26t42 -41t24.5 -54l-111 -25q-7 25 -27.5 38t-51.5 13q-30 0 -47 -13t-17 -35q0 -30 42 -42l62 -16q55 -13 101 -50q45 -34 45 -109q0 -74 -58 -114zM354 375q0 25 -20.5 39.5t-62.5 14.5q-43 0 -63 -15t-20 -40q0 -24 20.5 -38.5t63.5 -14.5
t62.5 14.5t19.5 39.5z" />
    <glyph glyph-name="dieresis" unicode="&#xa8;" horiz-adv-x="418" 
d="M139 847q0 18 7.5 34t20.5 27.5t29.5 18.5t34.5 7q29 0 49 -20.5t20 -49.5q0 -34 -28 -61q-29 -26 -63 -26q-31 0 -50.5 20t-19.5 50zM358 847q0 18 7.5 34t20.5 27.5t29.5 18.5t34.5 7q29 0 49 -20.5t20 -49.5q0 -34 -28 -61q-29 -26 -63 -26q-31 0 -50.5 20t-19.5 50z
" />
    <glyph glyph-name="copyright" unicode="&#xa9;" horiz-adv-x="829" 
d="M59 358q-1 75 28.5 143t80.5 119t119.5 81t143.5 28q74 2 142 -28t119 -81t81 -119t28 -142q2 -75 -28 -143.5t-81 -119.5t-119 -81t-142 -28q-75 -2 -143.5 28t-119.5 81t-80.5 119t-28.5 143zM701 359q1 55 -20.5 104.5t-58.5 86.5t-86.5 58.5t-104.5 20.5
q-55 1 -105 -20.5t-87.5 -59t-59 -87t-20.5 -104.5q-1 -55 20.5 -104.5t59 -87t87.5 -59t105 -20.5q55 -1 104.5 20.5t86.5 59t58.5 87.5t20.5 105zM511 404q-9 25 -28.5 41t-52.5 16q-42 0 -66.5 -30t-24.5 -75t24 -74.5t67 -29.5q33 0 50.5 14t27.5 37l76 -30
q-17 -43 -59 -69t-96 -26q-36 0 -67.5 14t-55 38t-37.5 56.5t-14 69.5q0 38 14 70.5t37.5 57t55.5 38.5t68 14q55 0 97.5 -29t59.5 -77z" />
    <glyph glyph-name="guillemotleft" unicode="&#xab;" horiz-adv-x="721" 
d="M236 249l183 -249h-184l-183 249l253 249h184zM482 249l183 -249h-184l-183 249l253 249h184z" />
    <glyph glyph-name="logicalnot" unicode="&#xac;" horiz-adv-x="621" 
d="M426 82v162h-382v152h534v-314h-152z" />
    <glyph glyph-name="registered" unicode="&#xae;" horiz-adv-x="458" 
d="M292 749q41 0 74.5 -14t58 -38t38 -57t13.5 -71q0 -45 -17 -85t-47 -71t-71.5 -49t-89.5 -18q-40 0 -74 13.5t-58.5 38t-38 57.5t-13.5 72q-1 45 17 85.5t49 71t72 48.5t87 17zM253 391q36 0 68 14t56 38t38 56t14 68q0 30 -10.5 55.5t-29 44t-44 29t-55.5 10.5
q-35 0 -67 -14t-56.5 -37.5t-39 -55.5t-14.5 -68q0 -63 35.5 -101.5t104.5 -38.5zM224 639h68q59 0 59 -46q0 -22 -11.5 -37.5t-30.5 -22.5l23 -76h-45l-21 69h-19l-9 -69h-40zM279 563q11 0 18.5 5.5t7.5 15.5q0 17 -20 17h-27l-6 -38h27z" />
    <glyph glyph-name="macron" unicode="&#xaf;" horiz-adv-x="364" 
d="M466 877l-12 -89h-322l12 89h322z" />
    <glyph glyph-name="degree" unicode="&#xb0;" horiz-adv-x="300" 
d="M78 593q0 27 10.5 51t28.5 41.5t42 28t51 10.5q48 0 79.5 -31t31.5 -80q0 -27 -10.5 -50.5t-28 -41t-41.5 -27.5t-51 -10q-48 0 -80 30.5t-32 78.5zM246 609q0 19 -12 30t-29 11q-20 0 -36 -14.5t-16 -35.5q0 -18 12 -30t30 -12q20 0 35.5 14.5t15.5 36.5z" />
    <glyph glyph-name="plusminus" unicode="&#xb1;" horiz-adv-x="543" 
d="M502 386l-16 -112h-154l-14 -95h-112l14 95h-155l16 112h155l13 94h112l-13 -94h154zM42 112h421l-16 -112h-421z" />
    <glyph glyph-name="uni00B2" unicode="&#xb2;" horiz-adv-x="425" 
d="M49 394l207 169q20 16 28 31.5t8 32.5q0 35 -21.5 55.5t-57.5 20.5q-33 0 -55.5 -18.5t-25.5 -55.5h-92q4 78 51 121.5t120 43.5q39 0 71.5 -13t55 -35.5t35 -52.5t12.5 -65q0 -81 -72 -138l-126 -98l187 1v-92l-325 -1v94z" />
    <glyph glyph-name="uni00B3" unicode="&#xb3;" horiz-adv-x="424" 
d="M384 458q0 -36 -13.5 -67.5t-37 -54t-54.5 -35.5t-67 -13q-37 0 -68.5 13.5t-54.5 36t-36 52.5t-13 64h92q2 -32 22.5 -53t57.5 -21q33 0 56 22t23 56q0 37 -22.5 59.5t-59.5 23.5q-20 0 -40 -10l-34 73l1 2l88 81l-165 1v92h313v-79l-95 -89q49 -18 78 -59t29 -95z" />
    <glyph glyph-name="acute" unicode="&#xb4;" horiz-adv-x="296" 
d="M40 770l72 151h129l-97 -151h-104z" />
    <glyph glyph-name="uni00B5" unicode="&#xb5;" horiz-adv-x="725" 
d="M674 128v-128l-125 1q-66 0 -95 57q-43 -65 -130 -70h-6h-7q-73 4 -113 49v-288h-142v746h142v-223q0 -84 36 -122q36 -37 83 -37q24 0 46 9t38.5 28.5t26 49.5t9.5 72v225h142l1 -333q0 -24 11 -29.5t37 -5.5z" />
    <glyph glyph-name="paragraph" unicode="&#xb6;" horiz-adv-x="646" 
d="M439 712v-806h-121v401h-47q-43 0 -77 14.5t-57.5 41.5t-36 64.5t-12.5 82.5q0 90 48 145q50 57 135 57h168zM549 710v-806h-46v806h46z" />
    <glyph glyph-name="periodcentered" unicode="&#xb7;" horiz-adv-x="355" 
d="M67 275q0 54 37 90q38 36 89 36q48 0 77 -30.5t29 -76.5q0 -52 -38 -87q-37 -34 -90 -34q-45 0 -74.5 28t-29.5 74z" />
    <glyph glyph-name="cedilla" unicode="&#xb8;" horiz-adv-x="600" 
d="M219 -141h91q13 0 21.5 6.5t8.5 19.5q0 19 -23 19h-91l9 62l56 66l60 -1l-4 -32l-32 -34h33q32 0 50 -20t18 -51q0 -45 -25 -71t-67 -26h-113z" />
    <glyph glyph-name="uni00B9" unicode="&#xb9;" horiz-adv-x="314" 
d="M232 785v-485h-93v391l-99 -42v92l99 44h93z" />
    <glyph glyph-name="guillemotright" unicode="&#xbb;" horiz-adv-x="721" 
d="M450 249l-253 -249h-184l253 249l-183 249h184zM696 249l-253 -249h-184l252 249l-183 249h184z" />
    <glyph glyph-name="onequarter" unicode="&#xbc;" horiz-adv-x="821" 
d="M34 676l80 34v-84l-80 -30v80zM195 710v-367h-81v367h81zM64 0l541 710h122l-541 -710h-122zM773 57h-46v-66h-82v66l-173 1v82l173 228h82v-229h46v-82zM645 140v97l-72 -97h72z" />
    <glyph glyph-name="onehalf" unicode="&#xbd;" horiz-adv-x="866" 
d="M34 676l80 34v-84l-80 -30v80zM195 710v-367h-81v367h81zM64 0l541 710h122l-541 -710h-122zM554 80l127 107q24 21 32.5 31.5t8.5 26.5q1 21 -12 34.5t-36 13.5q-22 -1 -35.5 -13.5t-13.5 -34.5l1 -10h-81q-1 29 7.5 53.5t26.5 43t43.5 29t56.5 10.5q60 0 93.5 -34
t33.5 -88q0 -38 -18 -64t-48 -51l-67 -55l130 1v-80l-249 -1v81z" />
    <glyph glyph-name="threequarters" unicode="&#xbe;" horiz-adv-x="873" 
d="M308 467q0 -55 -38 -93q-37 -37 -92 -37q-28 0 -53 10.5t-42.5 29t-26.5 43.5t-7 54h79l-1 -9q0 -22 14.5 -35.5t36.5 -13.5q21 0 35.5 14.5t14.5 36.5q0 27 -17 41q-13 12 -33 12q-17 0 -34 -9l-29 62l3 3l51 53h-106v81h230v-68l-57 -58q29 -14 47 -38q25 -34 25 -79z
M115 0l541 710h122l-541 -710h-122zM825 57h-46v-66h-82v66l-173 1v82l173 228h82v-229h46v-82zM697 140v97l-72 -97h72z" />
    <glyph glyph-name="questiondown" unicode="&#xbf;" horiz-adv-x="568" 
d="M515 680q0 -36 -27.5 -62t-69.5 -26q-34 0 -54.5 20t-20.5 51q0 35 27.5 61t69.5 26q34 0 54.5 -20t20.5 -50zM491 557l-4 -23q-6 -45 -28 -79q-21 -34 -48 -57t-70 -53q-52 -36 -77 -62.5t-25 -64.5t24.5 -62.5t73.5 -24.5q54 0 84.5 30.5t36.5 78.5h145
q-15 -113 -88 -183q-71 -70 -191 -70q-51 0 -93.5 15t-73 43t-48 68t-17.5 90q0 53 21 93q22 40 52 67t77 59q48 33 72.5 56.5t29.5 55.5l3 23h144z" />
    <glyph glyph-name="Agrave" unicode="&#xc0;" horiz-adv-x="673" 
d="M629 0h-157l-32 161h-237l-77 -161h-151l356 737h137zM416 290l-44 222l-107 -222h151zM250 939h130l76 -151h-104z" />
    <glyph glyph-name="Aacute" unicode="&#xc1;" horiz-adv-x="673" 
d="M629 0h-157l-32 161h-237l-77 -161h-151l356 737h137zM416 290l-44 222l-107 -222h151zM352 788l72 151h129l-97 -151h-104z" />
    <glyph glyph-name="Acircumflex" unicode="&#xc2;" horiz-adv-x="673" 
d="M629 0h-157l-32 161h-237l-77 -161h-151l356 737h137zM416 290l-44 222l-107 -222h151zM469 788l-46 100l-75 -100h-105l121 170h111h28l71 -170h-105z" />
    <glyph glyph-name="Atilde" unicode="&#xc3;" horiz-adv-x="673" 
d="M629 0h-157l-32 161h-237l-77 -161h-151l356 737h137zM416 290l-44 222l-107 -222h151zM351 963q23 0 41.5 -8t40.5 -22q4 -2 11 -6t15.5 -7.5t16.5 -6t14 -2.5q18 0 28.5 12.5t9.5 32.5h88q1 -37 -9.5 -64.5t-28 -46t-40.5 -27.5t-47 -9t-43.5 8t-44.5 22q-18 10 -29 15
t-22 5q-18 0 -27 -13.5t-10 -35.5l-87 -1q-1 36 9 65t27 48.5t40 30t47 10.5z" />
    <glyph glyph-name="Adieresis" unicode="&#xc4;" horiz-adv-x="673" 
d="M629 0h-157l-32 161h-237l-77 -161h-151l356 737h137zM416 290l-44 222l-107 -222h151zM231 865q0 18 7.5 34t20.5 27.5t29.5 18.5t34.5 7q29 0 49 -20.5t20 -49.5q0 -34 -28 -61q-29 -26 -63 -26q-31 0 -50.5 20t-19.5 50zM450 865q0 18 7.5 34t20.5 27.5t29.5 18.5
t34.5 7q29 0 49 -20.5t20 -49.5q0 -34 -28 -61q-29 -26 -63 -26q-31 0 -50.5 20t-19.5 50z" />
    <glyph glyph-name="Aring" unicode="&#xc5;" horiz-adv-x="673" 
d="M629 0h-157l-32 161h-237l-77 -161h-151l356 737h137zM416 290l-44 222l-107 -222h151zM291 891q0 30 13 57.5t34.5 48.5t49.5 33.5t57 12.5q49 0 82 -36q34 -34 34 -85q0 -29 -13 -56t-34.5 -48t-49.5 -33.5t-57 -12.5q-51 0 -83.5 34t-32.5 85zM482 915q0 21 -13.5 35
t-35.5 14q-27 0 -45.5 -18t-18.5 -45q0 -22 13 -36t35 -14q27 0 46 18.5t19 45.5z" />
    <glyph glyph-name="AE" unicode="&#xc6;" horiz-adv-x="972" 
d="M630 594l-22 -153l291 -1l-21 -136h-289l-23 -162l326 -1l-22 -141l-324 1v-1h-141l24 170h-196l-88 -170h-170l399 735h153h123h325l-22 -141h-323zM489 594h-35l-154 -296h147z" />
    <glyph glyph-name="Ccedilla" unicode="&#xc7;" horiz-adv-x="760" 
d="M589 263l138 -59q-16 -44 -48.5 -83t-76.5 -68.5t-97.5 -47t-112.5 -17.5l-25 -26h33q32 0 50 -20t18 -51q0 -45 -25 -71t-67 -26h-113l8 62h91q13 0 21.5 6.5t8.5 19.5q0 19 -23 19h-91l9 62l27 32q-115 23 -189 106q-74 86 -74 237q-1 83 26.5 158t78 132t121.5 90.5
t157 31.5q63 0 117 -16.5t96 -46t70.5 -68.5t39.5 -84l-136 -62q-19 66 -70 99.5t-114 33.5q-49 0 -91 -20.5t-72 -56.5t-47 -84.5t-17 -104.5q0 -97 50.5 -151t137.5 -54q60 0 110 31t81 97z" />
    <glyph glyph-name="Egrave" unicode="&#xc8;" horiz-adv-x="599" 
d="M277 596l-22 -157l280 -1l-20 -132h-279l-23 -165l314 -1l-20 -140h-463l103 737h464l-21 -142zM228 939h130l76 -151h-104z" />
    <glyph glyph-name="Eacute" unicode="&#xc9;" horiz-adv-x="599" 
d="M277 596l-22 -157l280 -1l-20 -132h-279l-23 -165l314 -1l-20 -140h-463l103 737h464l-21 -142zM329 788l72 151h129l-97 -151h-104z" />
    <glyph glyph-name="Ecircumflex" unicode="&#xca;" horiz-adv-x="599" 
d="M277 596l-22 -157l280 -1l-20 -132h-279l-23 -165l314 -1l-20 -140h-463l103 737h464l-21 -142zM447 788l-46 100l-75 -100h-105l121 170h111h28l71 -170h-105z" />
    <glyph glyph-name="Edieresis" unicode="&#xcb;" horiz-adv-x="599" 
d="M277 596l-22 -157l280 -1l-20 -132h-279l-23 -165l314 -1l-20 -140h-463l103 737h464l-21 -142zM209 865q0 18 7.5 34t20.5 27.5t29.5 18.5t34.5 7q29 0 49 -20.5t20 -49.5q0 -34 -28 -61q-29 -26 -63 -26q-31 0 -50.5 20t-19.5 50zM428 865q0 18 7.5 34t20.5 27.5
t29.5 18.5t34.5 7q29 0 49 -20.5t20 -49.5q0 -34 -28 -61q-29 -26 -63 -26q-31 0 -50.5 20t-19.5 50z" />
    <glyph glyph-name="Igrave" unicode="&#xcc;" horiz-adv-x="288" 
d="M44 0l103 737h149l-103 -737h-149zM70 939h130l76 -151h-104z" />
    <glyph glyph-name="Iacute" unicode="&#xcd;" horiz-adv-x="288" 
d="M44 0l103 737h149l-103 -737h-149zM172 788l72 151h129l-97 -151h-104z" />
    <glyph glyph-name="Icircumflex" unicode="&#xce;" horiz-adv-x="288" 
d="M44 0l103 737h149l-103 -737h-149zM289 788l-46 100l-75 -100h-105l121 170h111h28l71 -170h-105z" />
    <glyph glyph-name="Idieresis" unicode="&#xcf;" horiz-adv-x="288" 
d="M44 0l103 737h149l-103 -737h-149zM51 865q0 18 7.5 34t20.5 27.5t29.5 18.5t34.5 7q29 0 49 -20.5t20 -49.5q0 -34 -28 -61q-29 -26 -63 -26q-31 0 -50.5 20t-19.5 50zM270 865q0 18 7.5 34t20.5 27.5t29.5 18.5t34.5 7q29 0 49 -20.5t20 -49.5q0 -34 -28 -61
q-29 -26 -63 -26q-31 0 -50.5 20t-19.5 50z" />
    <glyph glyph-name="Eth" unicode="&#xd0;" horiz-adv-x="756" 
d="M736 402q1 -85 -28 -158.5t-80.5 -128t-122 -85.5t-152.5 -30h-211h-100l43 308h-74l17 122h75l43 307h149h113q70 1 130.5 -23.5t105 -69t69 -106.5t23.5 -136zM577 402q0 88 -49 141.5t-136 53.5h-117l-23 -167h81l-17 -122h-82l-24 -170h114q56 0 102.5 20t80 55
t52 83.5t18.5 105.5z" />
    <glyph glyph-name="Ntilde" unicode="&#xd1;" horiz-adv-x="767" 
d="M147 737h148l253 -498l70 498h148l-104 -737h-147l-254 497l-70 -497h-147zM411 963q23 0 41.5 -8t40.5 -22q4 -2 11 -6t15.5 -7.5t16.5 -6t14 -2.5q18 0 28.5 12.5t9.5 32.5h88q1 -37 -9.5 -64.5t-28 -46t-40.5 -27.5t-47 -9t-43.5 8t-44.5 22q-18 10 -29 15t-22 5
q-18 0 -27 -13.5t-10 -35.5l-87 -1q-1 36 9 65t27 48.5t40 30t47 10.5z" />
    <glyph glyph-name="Ograve" unicode="&#xd2;" horiz-adv-x="789" 
d="M445 750q75 0 135.5 -24t103.5 -68t66.5 -105t23.5 -136q2 -97 -31 -176.5t-88 -136.5t-127 -88t-150 -30q-74 0 -134.5 24.5t-104 68.5t-67 105.5t-23.5 135.5q-2 97 30.5 176.5t87.5 136.5t127.5 88t150.5 29zM384 133q44 -1 85.5 19t74 57t52.5 88.5t19 114.5
q0 88 -47 140.5t-131 52.5q-43 1 -84.5 -18.5t-74 -56t-52 -88t-18.5 -114.5q0 -90 47 -142.5t129 -52.5zM311 939h130l76 -151h-104z" />
    <glyph glyph-name="Oacute" unicode="&#xd3;" horiz-adv-x="789" 
d="M445 750q75 0 135.5 -24t103.5 -68t66.5 -105t23.5 -136q2 -97 -31 -176.5t-88 -136.5t-127 -88t-150 -30q-74 0 -134.5 24.5t-104 68.5t-67 105.5t-23.5 135.5q-2 97 30.5 176.5t87.5 136.5t127.5 88t150.5 29zM384 133q44 -1 85.5 19t74 57t52.5 88.5t19 114.5
q0 88 -47 140.5t-131 52.5q-43 1 -84.5 -18.5t-74 -56t-52 -88t-18.5 -114.5q0 -90 47 -142.5t129 -52.5zM413 788l72 151h129l-97 -151h-104z" />
    <glyph glyph-name="Ocircumflex" unicode="&#xd4;" horiz-adv-x="789" 
d="M445 750q75 0 135.5 -24t103.5 -68t66.5 -105t23.5 -136q2 -97 -31 -176.5t-88 -136.5t-127 -88t-150 -30q-74 0 -134.5 24.5t-104 68.5t-67 105.5t-23.5 135.5q-2 97 30.5 176.5t87.5 136.5t127.5 88t150.5 29zM384 133q44 -1 85.5 19t74 57t52.5 88.5t19 114.5
q0 88 -47 140.5t-131 52.5q-43 1 -84.5 -18.5t-74 -56t-52 -88t-18.5 -114.5q0 -90 47 -142.5t129 -52.5zM530 788l-46 100l-75 -100h-105l121 170h111h28l71 -170h-105z" />
    <glyph glyph-name="Otilde" unicode="&#xd5;" horiz-adv-x="789" 
d="M445 750q75 0 135.5 -24t103.5 -68t66.5 -105t23.5 -136q2 -97 -31 -176.5t-88 -136.5t-127 -88t-150 -30q-74 0 -134.5 24.5t-104 68.5t-67 105.5t-23.5 135.5q-2 97 30.5 176.5t87.5 136.5t127.5 88t150.5 29zM384 133q44 -1 85.5 19t74 57t52.5 88.5t19 114.5
q0 88 -47 140.5t-131 52.5q-43 1 -84.5 -18.5t-74 -56t-52 -88t-18.5 -114.5q0 -90 47 -142.5t129 -52.5zM412 963q23 0 41.5 -8t40.5 -22q4 -2 11 -6t15.5 -7.5t16.5 -6t14 -2.5q18 0 28.5 12.5t9.5 32.5h88q1 -37 -9.5 -64.5t-28 -46t-40.5 -27.5t-47 -9t-43.5 8t-44.5 22
q-18 10 -29 15t-22 5q-18 0 -27 -13.5t-10 -35.5l-87 -1q-1 36 9 65t27 48.5t40 30t47 10.5z" />
    <glyph glyph-name="Odieresis" unicode="&#xd6;" horiz-adv-x="789" 
d="M445 750q75 0 135.5 -24t103.5 -68t66.5 -105t23.5 -136q2 -97 -31 -176.5t-88 -136.5t-127 -88t-150 -30q-74 0 -134.5 24.5t-104 68.5t-67 105.5t-23.5 135.5q-2 97 30.5 176.5t87.5 136.5t127.5 88t150.5 29zM384 133q44 -1 85.5 19t74 57t52.5 88.5t19 114.5
q0 88 -47 140.5t-131 52.5q-43 1 -84.5 -18.5t-74 -56t-52 -88t-18.5 -114.5q0 -90 47 -142.5t129 -52.5zM292 865q0 18 7.5 34t20.5 27.5t29.5 18.5t34.5 7q29 0 49 -20.5t20 -49.5q0 -34 -28 -61q-29 -26 -63 -26q-31 0 -50.5 20t-19.5 50zM511 865q0 18 7.5 34t20.5 27.5
t29.5 18.5t34.5 7q29 0 49 -20.5t20 -49.5q0 -34 -28 -61q-29 -26 -63 -26q-31 0 -50.5 20t-19.5 50z" />
    <glyph glyph-name="multiply" unicode="&#xd7;" horiz-adv-x="631" 
d="M407 321l127 -145l-104 -90l-125 144l-166 -148l-78 91l165 147l-127 145l104 90l126 -144l165 148l78 -91z" />
    <glyph glyph-name="Oslash" unicode="&#xd8;" horiz-adv-x="799" 
d="M767 418q2 -97 -31 -176.5t-88 -136.5t-127 -88t-150 -30q-69 0 -126 21l-18 -28h-140l56 89q-49 45 -75 109.5t-26 142.5q-2 97 30.5 176.5t87.5 136.5t127.5 88t150.5 29q65 0 119 -18l16 26h140l-52 -84q51 -45 78.5 -110.5t27.5 -146.5zM475 601q-25 5 -45 5
q-43 1 -84.5 -18.5t-74 -56t-52 -88t-18.5 -114.5q0 -71 30 -119zM608 413q0 73 -34 123l-247 -396q24 -6 51 -6q43 -1 84.5 19t74.5 57t52.5 88.5t18.5 114.5z" />
    <glyph glyph-name="Ugrave" unicode="&#xd9;" horiz-adv-x="737" 
d="M142 737h150l-62 -437q-3 -19 -3 -36q0 -67 37.5 -100.5t100.5 -33.5q72 0 117.5 42t56.5 124l63 441h149l-66 -470q-9 -67 -36.5 -119t-69.5 -87.5t-97 -54t-120 -18.5q-62 0 -114.5 17t-90.5 50.5t-59.5 82.5t-21.5 112q0 13 1.5 28t3.5 32zM295 939h130l76 -151h-104z
" />
    <glyph glyph-name="Uacute" unicode="&#xda;" horiz-adv-x="737" 
d="M142 737h150l-62 -437q-3 -19 -3 -36q0 -67 37.5 -100.5t100.5 -33.5q72 0 117.5 42t56.5 124l63 441h149l-66 -470q-9 -67 -36.5 -119t-69.5 -87.5t-97 -54t-120 -18.5q-62 0 -114.5 17t-90.5 50.5t-59.5 82.5t-21.5 112q0 13 1.5 28t3.5 32zM397 788l72 151h129
l-97 -151h-104z" />
    <glyph glyph-name="Ucircumflex" unicode="&#xdb;" horiz-adv-x="737" 
d="M142 737h150l-62 -437q-3 -19 -3 -36q0 -67 37.5 -100.5t100.5 -33.5q72 0 117.5 42t56.5 124l63 441h149l-66 -470q-9 -67 -36.5 -119t-69.5 -87.5t-97 -54t-120 -18.5q-62 0 -114.5 17t-90.5 50.5t-59.5 82.5t-21.5 112q0 13 1.5 28t3.5 32zM514 788l-46 100l-75 -100
h-105l121 170h111h28l71 -170h-105z" />
    <glyph glyph-name="Udieresis" unicode="&#xdc;" horiz-adv-x="737" 
d="M142 737h150l-62 -437q-3 -19 -3 -36q0 -67 37.5 -100.5t100.5 -33.5q72 0 117.5 42t56.5 124l63 441h149l-66 -470q-9 -67 -36.5 -119t-69.5 -87.5t-97 -54t-120 -18.5q-62 0 -114.5 17t-90.5 50.5t-59.5 82.5t-21.5 112q0 13 1.5 28t3.5 32zM276 865q0 18 7.5 34
t20.5 27.5t29.5 18.5t34.5 7q29 0 49 -20.5t20 -49.5q0 -34 -28 -61q-29 -26 -63 -26q-31 0 -50.5 20t-19.5 50zM495 865q0 18 7.5 34t20.5 27.5t29.5 18.5t34.5 7q29 0 49 -20.5t20 -49.5q0 -34 -28 -61q-29 -26 -63 -26q-31 0 -50.5 20t-19.5 50z" />
    <glyph glyph-name="Yacute" unicode="&#xdd;" horiz-adv-x="671" 
d="M247 737l111 -302l211 302h162l-314 -448l-40 -289h-150l40 289l-188 448h168zM358 788l72 151h129l-97 -151h-104z" />
    <glyph glyph-name="Thorn" unicode="&#xde;" horiz-adv-x="629" 
d="M147 737h142l-20 -143l135 -1q53 0 93.5 -16.5t67.5 -44t41 -64.5t14 -78q0 -46 -17.5 -91t-51.5 -79.5t-82.5 -56t-110.5 -21.5h-152l-20 -142h-142zM358 277q24 0 43 8.5t33 23t21.5 33.5t7.5 40q0 32 -20.5 54.5t-58.5 22.5h-134l-26 -182h134z" />
    <glyph glyph-name="germandbls" unicode="&#xdf;" horiz-adv-x="604" 
d="M580 252q0 -58 -20.5 -104.5t-58 -79.5t-90 -50.5t-115.5 -17.5q-38 0 -67 8l20 135q26 -14 62 -14q58 0 94.5 31t36.5 88q0 49 -28.5 76t-82.5 26h-9h-4l17 113q27 0 46 7.5t31.5 20.5t18 29t5.5 32q0 34 -23 53t-58 19q-38 0 -65 -22.5t-33 -70.5l-76 -531h-143l72 515
q16 112 80.5 173.5t167.5 61.5q45 0 83 -11.5t65 -34t42.5 -56.5t15.5 -79q0 -92 -61 -150q77 -56 77 -167z" />
    <glyph glyph-name="agrave" unicode="&#xe0;" horiz-adv-x="625" 
d="M617 498l-70 -498h-133l2 53q-25 -32 -67.5 -48t-88.5 -16q-52 0 -93 17t-69.5 48t-44 74t-15.5 94q0 66 20 119.5t55.5 91.5t84 59t104.5 21q55 0 100 -19.5t69 -53.5l15 58h131zM435 261q0 57 -34.5 89t-83.5 32q-27 0 -51.5 -11t-43 -30.5t-29.5 -46.5t-11 -58
q0 -57 33 -89.5t84 -32.5q29 0 53.5 11.5t43 32t29 47t10.5 56.5zM197 709h130l76 -151h-104z" />
    <glyph glyph-name="aacute" unicode="&#xe1;" horiz-adv-x="625" 
d="M617 498l-70 -498h-133l2 53q-25 -32 -67.5 -48t-88.5 -16q-52 0 -93 17t-69.5 48t-44 74t-15.5 94q0 66 20 119.5t55.5 91.5t84 59t104.5 21q55 0 100 -19.5t69 -53.5l15 58h131zM435 261q0 57 -34.5 89t-83.5 32q-27 0 -51.5 -11t-43 -30.5t-29.5 -46.5t-11 -58
q0 -57 33 -89.5t84 -32.5q29 0 53.5 11.5t43 32t29 47t10.5 56.5zM299 558l72 151h129l-97 -151h-104z" />
    <glyph glyph-name="acircumflex" unicode="&#xe2;" horiz-adv-x="625" 
d="M617 498l-70 -498h-133l2 53q-25 -32 -67.5 -48t-88.5 -16q-52 0 -93 17t-69.5 48t-44 74t-15.5 94q0 66 20 119.5t55.5 91.5t84 59t104.5 21q55 0 100 -19.5t69 -53.5l15 58h131zM435 261q0 57 -34.5 89t-83.5 32q-27 0 -51.5 -11t-43 -30.5t-29.5 -46.5t-11 -58
q0 -57 33 -89.5t84 -32.5q29 0 53.5 11.5t43 32t29 47t10.5 56.5zM416 558l-46 100l-75 -100h-105l121 170h111h28l71 -170h-105z" />
    <glyph glyph-name="atilde" unicode="&#xe3;" horiz-adv-x="625" 
d="M617 498l-70 -498h-133l2 53q-25 -32 -67.5 -48t-88.5 -16q-52 0 -93 17t-69.5 48t-44 74t-15.5 94q0 66 20 119.5t55.5 91.5t84 59t104.5 21q55 0 100 -19.5t69 -53.5l15 58h131zM435 261q0 57 -34.5 89t-83.5 32q-27 0 -51.5 -11t-43 -30.5t-29.5 -46.5t-11 -58
q0 -57 33 -89.5t84 -32.5q29 0 53.5 11.5t43 32t29 47t10.5 56.5zM299 733q23 0 41.5 -8t40.5 -22q4 -2 11 -6t15.5 -7.5t16.5 -6t14 -2.5q18 0 28.5 12.5t9.5 32.5h88q1 -37 -9.5 -64.5t-28 -46t-40.5 -27.5t-47 -9t-43.5 8t-44.5 22q-18 10 -29 15t-22 5q-18 0 -27 -13.5
t-10 -35.5l-87 -1q-1 36 9 65t27 48.5t40 30t47 10.5z" />
    <glyph glyph-name="adieresis" unicode="&#xe4;" horiz-adv-x="625" 
d="M617 498l-70 -498h-133l2 53q-25 -32 -67.5 -48t-88.5 -16q-52 0 -93 17t-69.5 48t-44 74t-15.5 94q0 66 20 119.5t55.5 91.5t84 59t104.5 21q55 0 100 -19.5t69 -53.5l15 58h131zM435 261q0 57 -34.5 89t-83.5 32q-27 0 -51.5 -11t-43 -30.5t-29.5 -46.5t-11 -58
q0 -57 33 -89.5t84 -32.5q29 0 53.5 11.5t43 32t29 47t10.5 56.5zM178 635q0 18 7.5 34t20.5 27.5t29.5 18.5t34.5 7q29 0 49 -20.5t20 -49.5q0 -34 -28 -61q-29 -26 -63 -26q-31 0 -50.5 20t-19.5 50zM397 635q0 18 7.5 34t20.5 27.5t29.5 18.5t34.5 7q29 0 49 -20.5
t20 -49.5q0 -34 -28 -61q-29 -26 -63 -26q-31 0 -50.5 20t-19.5 50z" />
    <glyph glyph-name="aring" unicode="&#xe5;" horiz-adv-x="625" 
d="M617 498l-70 -498h-133l2 53q-25 -32 -67.5 -48t-88.5 -16q-52 0 -93 17t-69.5 48t-44 74t-15.5 94q0 66 20 119.5t55.5 91.5t84 59t104.5 21q55 0 100 -19.5t69 -53.5l15 58h131zM435 261q0 57 -34.5 89t-83.5 32q-27 0 -51.5 -11t-43 -30.5t-29.5 -46.5t-11 -58
q0 -57 33 -89.5t84 -32.5q29 0 53.5 11.5t43 32t29 47t10.5 56.5zM238 661q0 30 13 57.5t34.5 48.5t49.5 33.5t57 12.5q49 0 82 -36q34 -34 34 -85q0 -29 -13 -56t-34.5 -48t-49.5 -33.5t-57 -12.5q-51 0 -83.5 34t-32.5 85zM429 685q0 21 -13.5 35t-35.5 14
q-27 0 -45.5 -18t-18.5 -45q0 -22 13 -36t35 -14q27 0 46 18.5t19 45.5z" />
    <glyph glyph-name="ae" unicode="&#xe6;" horiz-adv-x="861" 
d="M843 300q0 -7 -0.5 -16.5t-1.5 -22.5l-4 -27q-2 -13 -3 -22t-2 -15h-358q3 -42 30.5 -65t72.5 -23q39 0 71.5 17t55.5 46l98 -57q-37 -61 -102 -94t-140 -33q-61 0 -105.5 22t-65.5 60q-28 -38 -74.5 -60t-106.5 -22q-78 0 -131 39q-53 41 -53 114q0 36 13.5 66t37 51.5
t56.5 34t72 12.5h100q46 0 46 36q0 30 -25 43t-57 13q-75 0 -120 -70l-95 59q38 63 95 95.5t127 32.5q60 0 103.5 -22t66.5 -56q35 37 84.5 57.5t106.5 20.5q100 0 154 -57t54 -157zM610 398q-43 0 -76 -27.5t-47 -72.5h216q2 43 -23 71.5t-70 28.5zM230 208
q-37 0 -55.5 -16.5t-18.5 -42.5q0 -25 18 -40t56 -15q46 0 75.5 24t38.5 70q4 21 3 20h-117z" />
    <glyph glyph-name="ccedilla" unicode="&#xe7;" 
d="M406 190l122 -51q-28 -70 -90.5 -110.5t-143.5 -41.5l-21 -22h33q32 0 50 -20t18 -51q0 -45 -25 -71t-67 -26h-113l8 62h91q13 0 21.5 6.5t8.5 19.5q0 19 -23 19h-91l9 62l25 29q-85 19 -132 81.5t-47 156.5q0 60 20 111.5t56 89t85.5 58.5t108.5 21q97 0 158.5 -44.5
t80.5 -113.5l-128 -48q-10 36 -37 56.5t-69 20.5q-30 0 -54.5 -11.5t-41.5 -31.5t-26.5 -47.5t-9.5 -59.5q0 -57 29.5 -88t80.5 -31q42 0 70 20.5t44 54.5z" />
    <glyph glyph-name="egrave" unicode="&#xe8;" 
d="M310 513q51 0 94 -15.5t74.5 -44.5t49.5 -70.5t18 -93.5q0 -19 -3 -40l-6 -49h-364q-1 -43 27.5 -67t74.5 -24q40 0 70.5 18t45.5 48l123 -51q-35 -66 -97 -101.5t-143 -35.5q-51 0 -94 15t-74.5 44.5t-49.5 72.5t-18 100q0 61 18.5 114.5t53.5 93.5t85.5 63t114.5 23z
M405 296q3 45 -24.5 72.5t-75.5 27.5q-46 0 -78.5 -26t-42.5 -74h221zM177 709h130l76 -151h-104z" />
    <glyph glyph-name="eacute" unicode="&#xe9;" 
d="M310 513q51 0 94 -15.5t74.5 -44.5t49.5 -70.5t18 -93.5q0 -19 -3 -40l-6 -49h-364q-1 -43 27.5 -67t74.5 -24q40 0 70.5 18t45.5 48l123 -51q-35 -66 -97 -101.5t-143 -35.5q-51 0 -94 15t-74.5 44.5t-49.5 72.5t-18 100q0 61 18.5 114.5t53.5 93.5t85.5 63t114.5 23z
M405 296q3 45 -24.5 72.5t-75.5 27.5q-46 0 -78.5 -26t-42.5 -74h221zM278 558l72 151h129l-97 -151h-104z" />
    <glyph glyph-name="ecircumflex" unicode="&#xea;" 
d="M310 513q51 0 94 -15.5t74.5 -44.5t49.5 -70.5t18 -93.5q0 -19 -3 -40l-6 -49h-364q-1 -43 27.5 -67t74.5 -24q40 0 70.5 18t45.5 48l123 -51q-35 -66 -97 -101.5t-143 -35.5q-51 0 -94 15t-74.5 44.5t-49.5 72.5t-18 100q0 61 18.5 114.5t53.5 93.5t85.5 63t114.5 23z
M405 296q3 45 -24.5 72.5t-75.5 27.5q-46 0 -78.5 -26t-42.5 -74h221zM396 558l-46 100l-75 -100h-105l121 170h111h28l71 -170h-105z" />
    <glyph glyph-name="edieresis" unicode="&#xeb;" 
d="M310 513q51 0 94 -15.5t74.5 -44.5t49.5 -70.5t18 -93.5q0 -19 -3 -40l-6 -49h-364q-1 -43 27.5 -67t74.5 -24q40 0 70.5 18t45.5 48l123 -51q-35 -66 -97 -101.5t-143 -35.5q-51 0 -94 15t-74.5 44.5t-49.5 72.5t-18 100q0 61 18.5 114.5t53.5 93.5t85.5 63t114.5 23z
M405 296q3 45 -24.5 72.5t-75.5 27.5q-46 0 -78.5 -26t-42.5 -74h221zM206 617q0 18 7.5 34t20.5 27.5t29.5 18.5t34.5 7q29 0 49 -20.5t20 -49.5q0 -34 -28 -61q-29 -26 -63 -26q-31 0 -50.5 20t-19.5 50zM425 617q0 18 7.5 34t20.5 27.5t29.5 18.5t34.5 7q29 0 49 -20.5
t20 -49.5q0 -34 -28 -61q-29 -26 -63 -26q-31 0 -50.5 20t-19.5 50z" />
    <glyph glyph-name="igrave" unicode="&#xec;" horiz-adv-x="248" 
d="M239 498l-70 -498h-144l70 498h144zM17 709h130l76 -151h-104z" />
    <glyph glyph-name="iacute" unicode="&#xed;" horiz-adv-x="248" 
d="M239 498l-70 -498h-144l70 498h144zM118 558l72 151h129l-97 -151h-104z" />
    <glyph glyph-name="icircumflex" unicode="&#xee;" horiz-adv-x="248" 
d="M239 498l-70 -498h-144l70 498h144zM235 558l-46 100l-75 -100h-105l121 170h111h28l71 -170h-105z" />
    <glyph glyph-name="idieresis" unicode="&#xef;" horiz-adv-x="248" 
d="M239 498l-70 -498h-144l70 498h144zM-3 635q0 18 7.5 34t20.5 27.5t29.5 18.5t34.5 7q29 0 49 -20.5t20 -49.5q0 -34 -28 -61q-29 -26 -63 -26q-31 0 -50.5 20t-19.5 50zM216 635q0 18 7.5 34t20.5 27.5t29.5 18.5t34.5 7q29 0 49 -20.5t20 -49.5q0 -34 -28 -61
q-29 -26 -63 -26q-31 0 -50.5 20t-19.5 50z" />
    <glyph glyph-name="eth" unicode="&#xf0;" horiz-adv-x="684" 
d="M650 362q0 -91 -24.5 -161t-68 -117t-102.5 -71.5t-129 -24.5q-63 0 -115 19t-89.5 54t-58.5 84t-21 109q-1 65 24 121t67.5 97t98.5 64t117 22q40 0 77 -10t63 -32q-21 68 -62 114l-76 -54l-51 79l61 43q-30 28 -66 50l85 94q54 -30 92 -65l74 53l54 -74l-64 -47
q57 -64 85.5 -155.5t28.5 -191.5zM493 285q0 61 -38 101t-105 40q-39 0 -69.5 -14t-51.5 -37t-32 -53t-11 -62q0 -61 38.5 -101t105.5 -40q39 0 69 14t51 37t32 53t11 62z" />
    <glyph glyph-name="ntilde" unicode="&#xf1;" horiz-adv-x="604" 
d="M569 325q0 -20 -3 -43l-41 -282h-142l38 269q1 10 1.5 16.5t0.5 10.5q0 46 -25.5 67t-63.5 21q-99 0 -115 -115l-39 -269h-142l70 498h133l-1 -46q19 27 56 44t83 17q88 0 139 -50t51 -138zM309 733q23 0 41.5 -8t40.5 -22q4 -2 11 -6t15.5 -7.5t16.5 -6t14 -2.5
q18 0 28.5 12.5t9.5 32.5h88q1 -37 -9.5 -64.5t-28 -46t-40.5 -27.5t-47 -9t-43.5 8t-44.5 22q-18 10 -29 15t-22 5q-18 0 -27 -13.5t-10 -35.5l-87 -1q-1 36 9 65t27 48.5t40 30t47 10.5z" />
    <glyph glyph-name="ograve" unicode="&#xf2;" horiz-adv-x="592" 
d="M319 512q52 0 97.5 -16.5t79.5 -48t53.5 -77.5t19.5 -104q1 -56 -20 -107t-58 -89t-88 -60.5t-111 -21.5q-54 0 -100 16.5t-80 47.5t-53.5 77t-19.5 104q-1 56 20 106.5t58.5 89.5t89 61.5t112.5 21.5zM292 115q58 0 95 43q38 44 38 107q0 57 -29.5 88.5t-80.5 31.5
q-58 0 -95 -43t-37 -106q0 -57 29 -89t80 -32zM188 709h130l76 -151h-104z" />
    <glyph glyph-name="oacute" unicode="&#xf3;" horiz-adv-x="592" 
d="M319 512q52 0 97.5 -16.5t79.5 -48t53.5 -77.5t19.5 -104q1 -56 -20 -107t-58 -89t-88 -60.5t-111 -21.5q-54 0 -100 16.5t-80 47.5t-53.5 77t-19.5 104q-1 56 20 106.5t58.5 89.5t89 61.5t112.5 21.5zM292 115q58 0 95 43q38 44 38 107q0 57 -29.5 88.5t-80.5 31.5
q-58 0 -95 -43t-37 -106q0 -57 29 -89t80 -32zM290 558l72 151h129l-97 -151h-104z" />
    <glyph glyph-name="ocircumflex" unicode="&#xf4;" horiz-adv-x="592" 
d="M319 512q52 0 97.5 -16.5t79.5 -48t53.5 -77.5t19.5 -104q1 -56 -20 -107t-58 -89t-88 -60.5t-111 -21.5q-54 0 -100 16.5t-80 47.5t-53.5 77t-19.5 104q-1 56 20 106.5t58.5 89.5t89 61.5t112.5 21.5zM292 115q58 0 95 43q38 44 38 107q0 57 -29.5 88.5t-80.5 31.5
q-58 0 -95 -43t-37 -106q0 -57 29 -89t80 -32zM407 558l-46 100l-75 -100h-105l121 170h111h28l71 -170h-105z" />
    <glyph glyph-name="otilde" unicode="&#xf5;" horiz-adv-x="592" 
d="M319 512q52 0 97.5 -16.5t79.5 -48t53.5 -77.5t19.5 -104q1 -56 -20 -107t-58 -89t-88 -60.5t-111 -21.5q-54 0 -100 16.5t-80 47.5t-53.5 77t-19.5 104q-1 56 20 106.5t58.5 89.5t89 61.5t112.5 21.5zM292 115q58 0 95 43q38 44 38 107q0 57 -29.5 88.5t-80.5 31.5
q-58 0 -95 -43t-37 -106q0 -57 29 -89t80 -32zM282 733q23 0 41.5 -8t40.5 -22q4 -2 11 -6t15.5 -7.5t16.5 -6t14 -2.5q18 0 28.5 12.5t9.5 32.5h88q1 -37 -9.5 -64.5t-28 -46t-40.5 -27.5t-47 -9t-43.5 8t-44.5 22q-18 10 -29 15t-22 5q-18 0 -27 -13.5t-10 -35.5l-87 -1
q-1 36 9 65t27 48.5t40 30t47 10.5z" />
    <glyph glyph-name="odieresis" unicode="&#xf6;" horiz-adv-x="592" 
d="M319 512q52 0 97.5 -16.5t79.5 -48t53.5 -77.5t19.5 -104q1 -56 -20 -107t-58 -89t-88 -60.5t-111 -21.5q-54 0 -100 16.5t-80 47.5t-53.5 77t-19.5 104q-1 56 20 106.5t58.5 89.5t89 61.5t112.5 21.5zM292 115q58 0 95 43q38 44 38 107q0 57 -29.5 88.5t-80.5 31.5
q-58 0 -95 -43t-37 -106q0 -57 29 -89t80 -32zM169 635q0 18 7.5 34t20.5 27.5t29.5 18.5t34.5 7q29 0 49 -20.5t20 -49.5q0 -34 -28 -61q-29 -26 -63 -26q-31 0 -50.5 20t-19.5 50zM388 635q0 18 7.5 34t20.5 27.5t29.5 18.5t34.5 7q29 0 49 -20.5t20 -49.5q0 -34 -28 -61
q-29 -26 -63 -26q-31 0 -50.5 20t-19.5 50z" />
    <glyph glyph-name="divide" unicode="&#xf7;" horiz-adv-x="515" 
d="M212 485q0 36 28 61q29 26 64 26q28 0 48 -20.5t20 -49.5q0 -34 -28 -61q-29 -26 -62 -26q-30 0 -50 20.5t-20 49.5zM469 368l-15 -109h-390l15 109h390zM159 116q0 18 8 34t21 28t30 19t35 7q28 0 48 -20.5t20 -49.5q0 -35 -29 -62q-29 -26 -62 -26q-30 0 -50.5 20.5
t-20.5 49.5z" />
    <glyph glyph-name="oslash" unicode="&#xf8;" horiz-adv-x="592" 
d="M510 434q59 -65 59 -167q1 -56 -20 -107t-58 -89.5t-88 -61t-111 -21.5q-58 0 -106 18l-42 -56h-128l85 112q-29 31 -45.5 74t-16.5 97q-1 56 20 106.5t58.5 89.5t89 61.5t112.5 21.5q63 0 111 -21l40 52h122zM346 381q-11 4 -31 4q-55 0 -93 -42q-37 -42 -39 -104
q0 -33 9 -59zM270 117l20 -2q57 -2 95 41q39 43 40 106q0 31 -7 51z" />
    <glyph glyph-name="ugrave" unicode="&#xf9;" horiz-adv-x="605" 
d="M597 498l-70 -498h-133l1 43q-25 -27 -64.5 -41.5t-84.5 -14.5q-75 0 -129 39q-53 39 -53 132q0 14 1 26.5t3 25.5l42 288h143l-39 -274q-1 -9 -1.5 -15t-0.5 -10q0 -25 7.5 -41.5t20 -26t28.5 -13.5t32 -4q37 0 72 23q35 24 44 87l39 274h142zM203 709h130l76 -151h-104
z" />
    <glyph glyph-name="uacute" unicode="&#xfa;" horiz-adv-x="605" 
d="M597 498l-70 -498h-133l1 43q-25 -27 -64.5 -41.5t-84.5 -14.5q-75 0 -129 39q-53 39 -53 132q0 14 1 26.5t3 25.5l42 288h143l-39 -274q-1 -9 -1.5 -15t-0.5 -10q0 -25 7.5 -41.5t20 -26t28.5 -13.5t32 -4q37 0 72 23q35 24 44 87l39 274h142zM304 558l72 151h129
l-97 -151h-104z" />
    <glyph glyph-name="ucircumflex" unicode="&#xfb;" horiz-adv-x="605" 
d="M597 498l-70 -498h-133l1 43q-25 -27 -64.5 -41.5t-84.5 -14.5q-75 0 -129 39q-53 39 -53 132q0 14 1 26.5t3 25.5l42 288h143l-39 -274q-1 -9 -1.5 -15t-0.5 -10q0 -25 7.5 -41.5t20 -26t28.5 -13.5t32 -4q37 0 72 23q35 24 44 87l39 274h142zM422 558l-46 100l-75 -100
h-105l121 170h111h28l71 -170h-105z" />
    <glyph glyph-name="udieresis" unicode="&#xfc;" horiz-adv-x="605" 
d="M597 498l-70 -498h-133l1 43q-25 -27 -64.5 -41.5t-84.5 -14.5q-75 0 -129 39q-53 39 -53 132q0 14 1 26.5t3 25.5l42 288h143l-39 -274q-1 -9 -1.5 -15t-0.5 -10q0 -25 7.5 -41.5t20 -26t28.5 -13.5t32 -4q37 0 72 23q35 24 44 87l39 274h142zM183 635q0 18 7.5 34
t20.5 27.5t29.5 18.5t34.5 7q29 0 49 -20.5t20 -49.5q0 -34 -28 -61q-29 -26 -63 -26q-31 0 -50.5 20t-19.5 50zM402 635q0 18 7.5 34t20.5 27.5t29.5 18.5t34.5 7q29 0 49 -20.5t20 -49.5q0 -34 -28 -61q-29 -26 -63 -26q-31 0 -50.5 20t-19.5 50z" />
    <glyph glyph-name="yacute" unicode="&#xfd;" horiz-adv-x="594" 
d="M631 498l-330 -620q-36 -69 -86.5 -98.5t-107.5 -29.5q-58 0 -119 29l54 124q29 -18 60 -18q51 0 75 47l22 43l-147 523h150l88 -347l178 347h163zM297 558l72 151h129l-97 -151h-104z" />
    <glyph glyph-name="thorn" unicode="&#xfe;" horiz-adv-x="644" 
d="M621 269q0 -64 -21.5 -116t-58 -89t-85 -57t-103.5 -20q-54 0 -97.5 19t-66.5 50l-42 -292h-142l137 973h145l-41 -274q27 25 64.5 37.5t80.5 12.5q47 0 88.5 -15.5t73 -46.5t50 -76.5t18.5 -105.5zM358 385q-30 0 -55.5 -11.5t-44 -32t-29 -47.5t-10.5 -58
q0 -57 33 -88.5t84 -31.5q29 0 54.5 11t45 30.5t30.5 46t11 58.5q0 57 -33.5 90t-85.5 33z" />
    <glyph glyph-name="ydieresis" unicode="&#xff;" horiz-adv-x="594" 
d="M631 498l-330 -620q-36 -69 -86.5 -98.5t-107.5 -29.5q-58 0 -119 29l54 124q29 -18 60 -18q51 0 75 47l22 43l-147 523h150l88 -347l178 347h163zM176 635q0 18 7.5 34t20.5 27.5t29.5 18.5t34.5 7q29 0 49 -20.5t20 -49.5q0 -34 -28 -61q-29 -26 -63 -26
q-31 0 -50.5 20t-19.5 50zM395 635q0 18 7.5 34t20.5 27.5t29.5 18.5t34.5 7q29 0 49 -20.5t20 -49.5q0 -34 -28 -61q-29 -26 -63 -26q-31 0 -50.5 20t-19.5 50z" />
    <glyph glyph-name="Amacron" unicode="&#x100;" horiz-adv-x="673" 
d="M629 0h-157l-32 161h-237l-77 -161h-151l356 737h137zM416 290l-44 222l-107 -222h151zM585 895l-12 -89h-322l12 89h322z" />
    <glyph glyph-name="amacron" unicode="&#x101;" horiz-adv-x="625" 
d="M617 498l-70 -498h-133l2 53q-25 -32 -67.5 -48t-88.5 -16q-52 0 -93 17t-69.5 48t-44 74t-15.5 94q0 66 20 119.5t55.5 91.5t84 59t104.5 21q55 0 100 -19.5t69 -53.5l15 58h131zM435 261q0 57 -34.5 89t-83.5 32q-27 0 -51.5 -11t-43 -30.5t-29.5 -46.5t-11 -58
q0 -57 33 -89.5t84 -32.5q29 0 53.5 11.5t43 32t29 47t10.5 56.5zM532 665l-12 -89h-322l12 89h322z" />
    <glyph glyph-name="Abreve" unicode="&#x102;" horiz-adv-x="673" 
d="M629 0h-157l-32 161h-237l-77 -161h-151l356 737h137zM416 290l-44 222l-107 -222h151zM410 788q-36 0 -66 12t-51.5 33t-33.5 49t-12 60q0 16 1 21h105q-4 -35 16.5 -54t55.5 -19q34 0 59 19t31 54h104q-5 -36 -24 -68t-47.5 -55.5t-64 -37.5t-73.5 -14z" />
    <glyph glyph-name="abreve" unicode="&#x103;" horiz-adv-x="625" 
d="M617 498l-70 -498h-133l2 53q-25 -32 -67.5 -48t-88.5 -16q-52 0 -93 17t-69.5 48t-44 74t-15.5 94q0 66 20 119.5t55.5 91.5t84 59t104.5 21q55 0 100 -19.5t69 -53.5l15 58h131zM435 261q0 57 -34.5 89t-83.5 32q-27 0 -51.5 -11t-43 -30.5t-29.5 -46.5t-11 -58
q0 -57 33 -89.5t84 -32.5q29 0 53.5 11.5t43 32t29 47t10.5 56.5zM357 558q-36 0 -66 12t-51.5 33t-33.5 49t-12 60q0 16 1 21h105q-4 -35 16.5 -54t55.5 -19q34 0 59 19t31 54h104q-5 -36 -24 -68t-47.5 -55.5t-64 -37.5t-73.5 -14z" />
    <glyph glyph-name="Aogonek" unicode="&#x104;" horiz-adv-x="673" 
d="M629 0h-157l-32 161h-237l-77 -161h-151l356 737h137zM416 290l-44 222l-107 -222h151zM640 0q-43 -14 -65 -37.5t-22 -46.5q0 -15 9.5 -24t26.5 -9q13 0 29 6l-13 -92q-30 -10 -59 -10q-45 0 -69.5 25.5t-24.5 62.5q0 38 26 73t77 52h85z" />
    <glyph glyph-name="aogonek" unicode="&#x105;" horiz-adv-x="625" 
d="M617 498l-70 -498h-133l2 53q-25 -32 -67.5 -48t-88.5 -16q-52 0 -93 17t-69.5 48t-44 74t-15.5 94q0 66 20 119.5t55.5 91.5t84 59t104.5 21q55 0 100 -19.5t69 -53.5l15 58h131zM435 261q0 57 -34.5 89t-83.5 32q-27 0 -51.5 -11t-43 -30.5t-29.5 -46.5t-11 -58
q0 -57 33 -89.5t84 -32.5q29 0 53.5 11.5t43 32t29 47t10.5 56.5zM547 0q-43 -14 -65 -37.5t-22 -46.5q0 -15 9.5 -24t26.5 -9q13 0 29 6l-13 -92q-30 -10 -59 -10q-45 0 -69.5 25.5t-24.5 62.5q0 38 26 73t77 52h85z" />
    <glyph glyph-name="Cacute" unicode="&#x106;" horiz-adv-x="760" 
d="M621 473q-19 66 -70 99.5t-114 33.5q-49 0 -91 -20.5t-72 -56.5t-47 -84.5t-17 -104.5q0 -97 50.5 -151t137.5 -54q60 0 110 31t81 97l138 -59q-16 -45 -49 -84t-77 -68.5t-98.5 -46.5t-114.5 -17q-63 0 -124 20t-108.5 63t-76.5 109.5t-28 157.5q-1 83 26.5 158t78 132
t121.5 90.5t157 31.5q63 0 117 -16.5t96 -46t70.5 -68.5t39.5 -84zM397 788l72 151h129l-97 -151h-104z" />
    <glyph glyph-name="cacute" unicode="&#x107;" 
d="M309 513q97 0 158.5 -44.5t80.5 -113.5l-128 -48q-10 36 -37 56.5t-69 20.5q-30 0 -54.5 -11.5t-41.5 -31.5t-26.5 -47.5t-9.5 -59.5q0 -57 29.5 -88t80.5 -31q42 0 70 20.5t44 54.5l122 -51q-28 -70 -92 -111t-146 -41q-59 0 -105.5 17.5t-79 50t-49.5 78t-17 100.5
q0 60 20 111.5t56 89t85.5 58.5t108.5 21zM272 558l72 151h129l-97 -151h-104z" />
    <glyph glyph-name="Ccircumflex" unicode="&#x108;" horiz-adv-x="760" 
d="M621 473q-19 66 -70 99.5t-114 33.5q-49 0 -91 -20.5t-72 -56.5t-47 -84.5t-17 -104.5q0 -97 50.5 -151t137.5 -54q60 0 110 31t81 97l138 -59q-16 -45 -49 -84t-77 -68.5t-98.5 -46.5t-114.5 -17q-63 0 -124 20t-108.5 63t-76.5 109.5t-28 157.5q-1 83 26.5 158t78 132
t121.5 90.5t157 31.5q63 0 117 -16.5t96 -46t70.5 -68.5t39.5 -84zM515 788l-46 100l-75 -100h-105l121 170h111h28l71 -170h-105z" />
    <glyph glyph-name="ccircumflex" unicode="&#x109;" 
d="M309 513q97 0 158.5 -44.5t80.5 -113.5l-128 -48q-10 36 -37 56.5t-69 20.5q-30 0 -54.5 -11.5t-41.5 -31.5t-26.5 -47.5t-9.5 -59.5q0 -57 29.5 -88t80.5 -31q42 0 70 20.5t44 54.5l122 -51q-28 -70 -92 -111t-146 -41q-59 0 -105.5 17.5t-79 50t-49.5 78t-17 100.5
q0 60 20 111.5t56 89t85.5 58.5t108.5 21zM390 558l-46 100l-75 -100h-105l121 170h111h28l71 -170h-105z" />
    <glyph glyph-name="Cdotaccent" unicode="&#x10a;" horiz-adv-x="760" 
d="M621 473q-19 66 -70 99.5t-114 33.5q-49 0 -91 -20.5t-72 -56.5t-47 -84.5t-17 -104.5q0 -97 50.5 -151t137.5 -54q60 0 110 31t81 97l138 -59q-16 -45 -49 -84t-77 -68.5t-98.5 -46.5t-114.5 -17q-63 0 -124 20t-108.5 63t-76.5 109.5t-28 157.5q-1 83 26.5 158t78 132
t121.5 90.5t157 31.5q63 0 117 -16.5t96 -46t70.5 -68.5t39.5 -84zM387 864q0 36 28 61q29 27 62 27q30 0 49.5 -20.5t19.5 -49.5q0 -18 -7.5 -33.5t-20 -27.5t-29 -19t-34.5 -7q-30 0 -49 19.5t-19 49.5z" />
    <glyph glyph-name="cdotaccent" unicode="&#x10b;" 
d="M309 513q97 0 158.5 -44.5t80.5 -113.5l-128 -48q-10 36 -37 56.5t-69 20.5q-30 0 -54.5 -11.5t-41.5 -31.5t-26.5 -47.5t-9.5 -59.5q0 -57 29.5 -88t80.5 -31q42 0 70 20.5t44 54.5l122 -51q-28 -70 -92 -111t-146 -41q-59 0 -105.5 17.5t-79 50t-49.5 78t-17 100.5
q0 60 20 111.5t56 89t85.5 58.5t108.5 21zM262 634q0 36 28 61q29 27 62 27q30 0 49.5 -20.5t19.5 -49.5q0 -18 -7.5 -33.5t-20 -27.5t-29 -19t-34.5 -7q-30 0 -49 19.5t-19 49.5z" />
    <glyph glyph-name="Ccaron" unicode="&#x10c;" horiz-adv-x="760" 
d="M621 473q-19 66 -70 99.5t-114 33.5q-49 0 -91 -20.5t-72 -56.5t-47 -84.5t-17 -104.5q0 -97 50.5 -151t137.5 -54q60 0 110 31t81 97l138 -59q-16 -45 -49 -84t-77 -68.5t-98.5 -46.5t-114.5 -17q-63 0 -124 20t-108.5 63t-76.5 109.5t-28 157.5q-1 83 26.5 158t78 132
t121.5 90.5t157 31.5q63 0 117 -16.5t96 -46t70.5 -68.5t39.5 -84zM644 958l-120 -170h-112h-28l-71 170h106l45 -100l75 100h105z" />
    <glyph glyph-name="ccaron" unicode="&#x10d;" 
d="M309 513q97 0 158.5 -44.5t80.5 -113.5l-128 -48q-10 36 -37 56.5t-69 20.5q-30 0 -54.5 -11.5t-41.5 -31.5t-26.5 -47.5t-9.5 -59.5q0 -57 29.5 -88t80.5 -31q42 0 70 20.5t44 54.5l122 -51q-28 -70 -92 -111t-146 -41q-59 0 -105.5 17.5t-79 50t-49.5 78t-17 100.5
q0 60 20 111.5t56 89t85.5 58.5t108.5 21zM519 728l-120 -170h-112h-28l-71 170h106l45 -100l75 100h105z" />
    <glyph glyph-name="Dcaron" unicode="&#x10e;" horiz-adv-x="757" 
d="M737 402q1 -85 -27.5 -158.5t-80 -128t-122 -85.5t-152.5 -30h-211h-100l103 737h150h113q70 1 130.5 -23.5t104.5 -69t68.5 -106.5t23.5 -136zM579 402q0 44 -13 80t-37 61.5t-58.5 39.5t-77.5 14h-116l-65 -459h114q56 0 102.5 20t80 55t52 83.5t18.5 105.5zM565 958
l-120 -170h-112h-28l-71 170h106l45 -100l75 100h105z" />
    <glyph glyph-name="dcaron" unicode="&#x10f;" horiz-adv-x="765" 
d="M512 750h143l-106 -750h-132l3 54q-22 -32 -63.5 -49.5t-92.5 -17.5q-45 0 -86 15.5t-72 45.5t-49.5 74.5t-18.5 102.5q-1 60 19 113t57 92.5t88 61.5t112 21q51 0 91.5 -16t64.5 -46zM827 749l-45 -322h-106l45 322h106zM319 386q-30 0 -55 -11.5t-43 -32t-28 -47.5
t-10 -57q0 -58 34.5 -90t86.5 -32q58 0 97 41t39 104q0 60 -34.5 92.5t-86.5 32.5z" />
    <glyph glyph-name="Dcroat" unicode="&#x110;" horiz-adv-x="756" 
d="M736 402q1 -85 -28 -158.5t-80.5 -128t-122 -85.5t-152.5 -30h-211h-100l43 308h-74l17 122h75l43 307h149h113q70 1 130.5 -23.5t105 -69t69 -106.5t23.5 -136zM577 402q0 88 -49 141.5t-136 53.5h-117l-23 -167h81l-17 -122h-82l-24 -170h114q56 0 102.5 20t80 55
t52 83.5t18.5 105.5z" />
    <glyph glyph-name="dcroat" unicode="&#x111;" horiz-adv-x="628" 
d="M662 562h-34l-79 -562h-132l3 54q-22 -32 -63.5 -49.5t-92.5 -17.5q-45 0 -86 15.5t-72 45.5t-49.5 74.5t-18.5 102.5q-1 60 19 113t57 92.5t88 61.5t112 21q51 0 91.5 -16t64.5 -46l16 111h-200l16 108h199l11 80h143l-11 -80h34zM319 386q-30 0 -55 -11.5t-43 -32
t-28 -47.5t-10 -57q0 -58 34.5 -90t86.5 -32q58 0 97 41t39 104q0 60 -34.5 92.5t-86.5 32.5z" />
    <glyph glyph-name="Emacron" unicode="&#x112;" horiz-adv-x="599" 
d="M277 596l-22 -157l280 -1l-20 -132h-279l-23 -165l314 -1l-20 -140h-463l103 737h464l-21 -142zM562 895l-12 -89h-322l12 89h322z" />
    <glyph glyph-name="emacron" unicode="&#x113;" 
d="M310 513q51 0 94 -15.5t74.5 -44.5t49.5 -70.5t18 -93.5q0 -19 -3 -40l-6 -49h-364q-1 -43 27.5 -67t74.5 -24q40 0 70.5 18t45.5 48l123 -51q-35 -66 -97 -101.5t-143 -35.5q-51 0 -94 15t-74.5 44.5t-49.5 72.5t-18 100q0 61 18.5 114.5t53.5 93.5t85.5 63t114.5 23z
M405 296q3 45 -24.5 72.5t-75.5 27.5q-46 0 -78.5 -26t-42.5 -74h221zM511 665l-12 -89h-322l12 89h322z" />
    <glyph glyph-name="Ebreve" unicode="&#x114;" horiz-adv-x="599" 
d="M277 596l-22 -157l280 -1l-20 -132h-279l-23 -165l314 -1l-20 -140h-463l103 737h464l-21 -142zM331 967q-1 -3 -1 -15q0 -30 20 -46t52 -16q35 0 60.5 20t30.5 57h104q-5 -36 -24 -68.5t-47.5 -57t-64.5 -39t-74 -14.5q-37 0 -67 11.5t-51.5 32t-33 48.5t-11.5 61
q0 4 0.5 10.5t1.5 15.5h105z" />
    <glyph glyph-name="ebreve" unicode="&#x115;" 
d="M310 513q51 0 94 -15.5t74.5 -44.5t49.5 -70.5t18 -93.5q0 -19 -3 -40l-6 -49h-364q-1 -43 27.5 -67t74.5 -24q40 0 70.5 18t45.5 48l123 -51q-35 -66 -97 -101.5t-143 -35.5q-51 0 -94 15t-74.5 44.5t-49.5 72.5t-18 100q0 61 18.5 114.5t53.5 93.5t85.5 63t114.5 23z
M405 296q3 45 -24.5 72.5t-75.5 27.5q-46 0 -78.5 -26t-42.5 -74h221zM280 737q-1 -3 -1 -15q0 -30 20 -46t52 -16q35 0 60.5 20t30.5 57h104q-5 -36 -24 -68.5t-47.5 -57t-64.5 -39t-74 -14.5q-37 0 -67 11.5t-51.5 32t-33 48.5t-11.5 61q0 4 0.5 10.5t1.5 15.5h105z" />
    <glyph glyph-name="Edotaccent" unicode="&#x116;" horiz-adv-x="599" 
d="M277 596l-22 -157l280 -1l-20 -132h-279l-23 -165l314 -1l-20 -140h-463l103 737h464l-21 -142zM319 864q0 36 28 61q29 27 62 27q30 0 49.5 -20.5t19.5 -49.5q0 -18 -7.5 -33.5t-20 -27.5t-29 -19t-34.5 -7q-30 0 -49 19.5t-19 49.5z" />
    <glyph glyph-name="edotaccent" unicode="&#x117;" 
d="M310 513q51 0 94 -15.5t74.5 -44.5t49.5 -70.5t18 -93.5q0 -19 -3 -40l-6 -49h-364q-1 -43 27.5 -67t74.5 -24q40 0 70.5 18t45.5 48l123 -51q-35 -66 -97 -101.5t-143 -35.5q-51 0 -94 15t-74.5 44.5t-49.5 72.5t-18 100q0 61 18.5 114.5t53.5 93.5t85.5 63t114.5 23z
M405 296q3 45 -24.5 72.5t-75.5 27.5q-46 0 -78.5 -26t-42.5 -74h221zM267 634q0 36 28 61q29 27 62 27q30 0 49.5 -20.5t19.5 -49.5q0 -18 -7.5 -33.5t-20 -27.5t-29 -19t-34.5 -7q-30 0 -49 19.5t-19 49.5z" />
    <glyph glyph-name="Eogonek" unicode="&#x118;" horiz-adv-x="599" 
d="M277 596l-22 -157l280 -1l-20 -132h-279l-23 -165l314 -1l-20 -140h-463l103 737h464l-21 -142zM507 0q-43 -14 -65 -37.5t-22 -46.5q0 -15 9.5 -24t26.5 -9q13 0 29 6l-13 -92q-30 -10 -59 -10q-45 0 -69.5 25.5t-24.5 62.5q0 38 26 73t77 52h85z" />
    <glyph glyph-name="eogonek" unicode="&#x119;" 
d="M546 289q0 -19 -3 -40l-6 -49h-364q-1 -43 27.5 -67t74.5 -24q40 0 70.5 18t45.5 48l123 -51q-32 -60 -85 -94t-122 -41q-33 -15 -50.5 -36t-17.5 -41q0 -15 9.5 -24t26.5 -9q13 0 29 6l-13 -92q-30 -10 -59 -10q-45 0 -69.5 25.5t-24.5 62.5q0 35 23 68t66 52
q-87 12 -138 71t-51 159q0 60 18.5 113t53.5 93t85.5 63t114.5 23q51 0 94 -15.5t74.5 -44.5t49.5 -70.5t18 -93.5zM305 396q-46 0 -78.5 -26t-42.5 -74h221q3 45 -24.5 72.5t-75.5 27.5z" />
    <glyph glyph-name="Ecaron" unicode="&#x11a;" horiz-adv-x="599" 
d="M277 596l-22 -157l280 -1l-20 -132h-279l-23 -165l314 -1l-20 -140h-463l103 737h464l-21 -142zM576 958l-120 -170h-112h-28l-71 170h106l45 -100l75 100h105z" />
    <glyph glyph-name="ecaron" unicode="&#x11b;" 
d="M310 513q51 0 94 -15.5t74.5 -44.5t49.5 -70.5t18 -93.5q0 -19 -3 -40l-6 -49h-364q-1 -43 27.5 -67t74.5 -24q40 0 70.5 18t45.5 48l123 -51q-35 -66 -97 -101.5t-143 -35.5q-51 0 -94 15t-74.5 44.5t-49.5 72.5t-18 100q0 61 18.5 114.5t53.5 93.5t85.5 63t114.5 23z
M405 296q3 45 -24.5 72.5t-75.5 27.5q-46 0 -78.5 -26t-42.5 -74h221zM525 728l-120 -170h-112h-28l-71 170h106l45 -100l75 100h105z" />
    <glyph glyph-name="Gcircumflex" unicode="&#x11c;" horiz-adv-x="791" 
d="M414 431h345l-61 -431h-128l1 58q-38 -36 -90.5 -52.5t-106.5 -16.5q-69 0 -128.5 23t-102.5 66.5t-67.5 105.5t-24.5 140q-1 90 27.5 168t80.5 136t123.5 90.5t155.5 31.5q63 0 116.5 -15t95 -42t71 -65t44.5 -85l-135 -52q-21 57 -71 88t-116 31q-55 0 -99 -20.5
t-75.5 -57t-48.5 -87t-17 -110.5q0 -53 17 -92t44.5 -64.5t62 -38t69.5 -12.5q70 0 128 37q59 37 76 128l1 7h-205zM533 788l-46 100l-75 -100h-105l121 170h111h28l71 -170h-105z" />
    <glyph glyph-name="gcircumflex" unicode="&#x11d;" horiz-adv-x="576" 
d="M288 587h-105l121 143h111h28l71 -143h-105l-46 85zM587 568q16 0 21 -1l-15 -114q-4 1 -19 1q-42 0 -67 -22q28 -41 28 -97q0 -49 -18 -90t-51.5 -70t-80 -45t-103.5 -16q-51 0 -95 16q-17 -4 -24.5 -13t-7.5 -19q0 -11 12.5 -19t36.5 -8h135q90 0 138.5 -40t48.5 -109
q0 -173 -278 -173q-125 0 -189.5 32.5t-64.5 92.5q0 74 68 110q-32 27 -32 70q0 17 4.5 34t15 33t27.5 29t42 21q-49 49 -49 121q0 50 18.5 90.5t52.5 69.5t81.5 45t104.5 16q66 0 116 -26q22 37 60 59t84 22zM395 322q0 34 -22.5 56.5t-61.5 22.5q-43 0 -72.5 -26
t-29.5 -71q0 -34 23.5 -56t60.5 -22q45 0 73.5 27t28.5 69zM160 -47h-10q-25 -16 -25 -42q0 -27 30.5 -36.5t99.5 -9.5q58 0 94 10t36 42q0 20 -16.5 28t-45.5 8h-163z" />
    <glyph glyph-name="Gbreve" unicode="&#x11e;" horiz-adv-x="791" 
d="M414 431h345l-61 -431h-128l1 58q-38 -36 -90.5 -52.5t-106.5 -16.5q-69 0 -128.5 23t-102.5 66.5t-67.5 105.5t-24.5 140q-1 90 27.5 168t80.5 136t123.5 90.5t155.5 31.5q63 0 116.5 -15t95 -42t71 -65t44.5 -85l-135 -52q-21 57 -71 88t-116 31q-55 0 -99 -20.5
t-75.5 -57t-48.5 -87t-17 -110.5q0 -53 17 -92t44.5 -64.5t62 -38t69.5 -12.5q70 0 128 37q59 37 76 128l1 7h-205zM418 967q-1 -3 -1 -15q0 -30 20 -46t52 -16q35 0 60.5 20t30.5 57h104q-5 -36 -24 -68.5t-47.5 -57t-64.5 -39t-74 -14.5q-37 0 -67 11.5t-51.5 32t-33 48.5
t-11.5 61q0 4 0.5 10.5t1.5 15.5h105z" />
    <glyph glyph-name="gbreve" unicode="&#x11f;" horiz-adv-x="576" 
d="M587 568q16 0 21 -1l-15 -114q-4 1 -19 1q-42 0 -67 -22q28 -41 28 -97q0 -49 -18 -90t-51.5 -70t-80 -45t-103.5 -16q-51 0 -95 16q-17 -4 -24.5 -13t-7.5 -19q0 -11 12.5 -19t36.5 -8h135q90 0 138.5 -40t48.5 -109q0 -173 -278 -173q-125 0 -189.5 32.5t-64.5 92.5
q0 74 68 110q-32 27 -32 70q0 17 4.5 34t15 33t27.5 29t42 21q-49 49 -49 121q0 50 18.5 90.5t52.5 69.5t81.5 45t104.5 16q66 0 116 -26q22 37 60 59t84 22zM395 322q0 34 -22.5 56.5t-61.5 22.5q-43 0 -72.5 -26t-29.5 -71q0 -34 23.5 -56t60.5 -22q45 0 73.5 27t28.5 69z
M160 -47h-10q-25 -16 -25 -42q0 -27 30.5 -36.5t99.5 -9.5q58 0 94 10t36 42q0 20 -16.5 28t-45.5 8h-163zM282 737q-1 -3 -1 -15q0 -30 20 -46t52 -16q35 0 60.5 20t30.5 57h104q-5 -36 -24 -68.5t-47.5 -57t-64.5 -39t-74 -14.5q-37 0 -67 11.5t-51.5 32t-33 48.5
t-11.5 61q0 4 0.5 10.5t1.5 15.5h105z" />
    <glyph glyph-name="Gdotaccent" unicode="&#x120;" horiz-adv-x="791" 
d="M414 431h345l-61 -431h-128l1 58q-38 -36 -90.5 -52.5t-106.5 -16.5q-69 0 -128.5 23t-102.5 66.5t-67.5 105.5t-24.5 140q-1 90 27.5 168t80.5 136t123.5 90.5t155.5 31.5q63 0 116.5 -15t95 -42t71 -65t44.5 -85l-135 -52q-21 57 -71 88t-116 31q-55 0 -99 -20.5
t-75.5 -57t-48.5 -87t-17 -110.5q0 -53 17 -92t44.5 -64.5t62 -38t69.5 -12.5q70 0 128 37q59 37 76 128l1 7h-205zM405 864q0 36 28 61q29 27 62 27q30 0 49.5 -20.5t19.5 -49.5q0 -18 -7.5 -33.5t-20 -27.5t-29 -19t-34.5 -7q-30 0 -49 19.5t-19 49.5z" />
    <glyph glyph-name="gdotaccent" unicode="&#x121;" horiz-adv-x="576" 
d="M587 568q16 0 21 -1l-15 -114q-4 1 -19 1q-42 0 -67 -22q28 -41 28 -97q0 -49 -18 -90t-51.5 -70t-80 -45t-103.5 -16q-51 0 -95 16q-17 -4 -24.5 -13t-7.5 -19q0 -11 12.5 -19t36.5 -8h135q90 0 138.5 -40t48.5 -109q0 -173 -278 -173q-125 0 -189.5 32.5t-64.5 92.5
q0 74 68 110q-32 27 -32 70q0 17 4.5 34t15 33t27.5 29t42 21q-49 49 -49 121q0 50 18.5 90.5t52.5 69.5t81.5 45t104.5 16q66 0 116 -26q22 37 60 59t84 22zM395 322q0 34 -22.5 56.5t-61.5 22.5q-43 0 -72.5 -26t-29.5 -71q0 -34 23.5 -56t60.5 -22q45 0 73.5 27t28.5 69z
M160 -47h-10q-25 -16 -25 -42q0 -27 30.5 -36.5t99.5 -9.5q58 0 94 10t36 42q0 20 -16.5 28t-45.5 8h-163zM269 634q0 36 28 61q29 27 62 27q30 0 49.5 -20.5t19.5 -49.5q0 -18 -7.5 -33.5t-20 -27.5t-29 -19t-34.5 -7q-30 0 -49 19.5t-19 49.5z" />
    <glyph glyph-name="Gcommaaccent" unicode="&#x122;" horiz-adv-x="791" 
d="M414 431h345l-61 -431h-128l1 58q-38 -36 -90.5 -52.5t-106.5 -16.5q-69 0 -128.5 23t-102.5 66.5t-67.5 105.5t-24.5 140q-1 90 27.5 168t80.5 136t123.5 90.5t155.5 31.5q63 0 116.5 -15t95 -42t71 -65t44.5 -85l-135 -52q-21 57 -71 88t-116 31q-55 0 -99 -20.5
t-75.5 -57t-48.5 -87t-17 -110.5q0 -53 17 -92t44.5 -64.5t62 -38t69.5 -12.5q70 0 128 37q59 37 76 128l1 7h-205zM435 -115q0 -49 -35 -86q-34 -36 -82 -36l5 32q23 0 37.5 13.5t16.5 31.5q-7 -4 -18 -4q-23 0 -37.5 14.5t-14.5 40.5q1 27 18 44.5t47 17.5
q26 0 44.5 -16.5t18.5 -51.5z" />
    <glyph glyph-name="gcommaaccent" unicode="&#x123;" horiz-adv-x="576" 
d="M587 568q16 0 21 -1l-15 -114q-4 1 -19 1q-42 0 -67 -22q28 -41 28 -97q0 -49 -18 -90t-51.5 -70t-80 -45t-103.5 -16q-51 0 -95 16q-17 -4 -24.5 -13t-7.5 -19q0 -11 12.5 -19t36.5 -8h135q90 0 138.5 -40t48.5 -109q0 -173 -278 -173q-125 0 -189.5 32.5t-64.5 92.5
q0 74 68 110q-32 27 -32 70q0 17 4.5 34t15 33t27.5 29t42 21q-49 49 -49 121q0 50 18.5 90.5t52.5 69.5t81.5 45t104.5 16q66 0 116 -26q22 37 60 59t84 22zM395 322q0 34 -22.5 56.5t-61.5 22.5q-43 0 -72.5 -26t-29.5 -71q0 -34 23.5 -56t60.5 -22q45 0 73.5 27t28.5 69z
M160 -47h-10q-25 -16 -25 -42q0 -27 30.5 -36.5t99.5 -9.5q58 0 94 10t36 42q0 20 -16.5 28t-45.5 8h-163zM280 558l72 151h129l-97 -151h-104z" />
    <glyph glyph-name="Hbar" unicode="&#x126;" horiz-adv-x="747" 
d="M781 507h-75l-72 -507h-150l43 305l-291 2l-43 -307h-149l71 507h-73l17 126h74l14 104h149l-14 -104h291l15 104h150l-15 -104h75zM556 507h-292l-9 -68l291 -1z" />
    <glyph glyph-name="hbar" unicode="&#x127;" horiz-adv-x="632" 
d="M566 322q0 -14 -1 -27t-3 -26l-37 -269h-142l37 264q1 11 1.5 18t0.5 11q0 53 -27 72q-26 19 -59 19q-37 0 -74 -26q-35 -26 -45 -95l-37 -263h-142l79 563h-50l17 110h49l11 77h143l-11 -77h150l-18 -110h-148l-14 -97q24 22 60.5 34.5t78.5 12.5q81 0 131 -47t50 -144z
" />
    <glyph glyph-name="Itilde" unicode="&#x128;" horiz-adv-x="288" 
d="M44 0l103 737h149l-103 -737h-149zM172 963q23 0 41.5 -8t40.5 -22q4 -2 11 -6t15.5 -7.5t16.5 -6t14 -2.5q18 0 28.5 12.5t9.5 32.5h88q1 -37 -9.5 -64.5t-28 -46t-40.5 -27.5t-47 -9t-43.5 8t-44.5 22q-18 10 -29 15t-22 5q-18 0 -27 -13.5t-10 -35.5l-87 -1
q-1 36 9 65t27 48.5t40 30t47 10.5z" />
    <glyph glyph-name="itilde" unicode="&#x129;" horiz-adv-x="248" 
d="M239 498l-70 -498h-144l70 498h144zM118 733q23 0 41.5 -8t40.5 -22q4 -2 11 -6t15.5 -7.5t16.5 -6t14 -2.5q18 0 28.5 12.5t9.5 32.5h88q1 -37 -9.5 -64.5t-28 -46t-40.5 -27.5t-47 -9t-43.5 8t-44.5 22q-18 10 -29 15t-22 5q-18 0 -27 -13.5t-10 -35.5l-87 -1
q-2 36 8.5 65t27.5 48.5t40 30t47 10.5z" />
    <glyph glyph-name="Imacron" unicode="&#x12a;" horiz-adv-x="288" 
d="M44 0l103 737h149l-103 -737h-149zM405 895l-12 -89h-322l12 89h322z" />
    <glyph glyph-name="imacron" unicode="&#x12b;" horiz-adv-x="248" 
d="M239 498l-70 -498h-144l70 498h144zM351 665l-12 -89h-322l12 89h322z" />
    <glyph glyph-name="Iogonek" unicode="&#x12e;" horiz-adv-x="288" 
d="M44 0l103 737h149l-103 -737h-149zM193 0q-43 -14 -65 -37.5t-22 -46.5q0 -15 9.5 -24t26.5 -9q13 0 29 6l-13 -92q-30 -10 -59 -10q-45 0 -69.5 25.5t-24.5 62.5q0 38 26 73t77 52h85z" />
    <glyph glyph-name="iogonek" unicode="&#x12f;" horiz-adv-x="248" 
d="M239 498l-70 -498h-144l70 498h144zM169 0q-43 -14 -65 -37.5t-22 -46.5q0 -15 9.5 -24t26.5 -9q13 0 29 6l-13 -92q-30 -10 -59 -10q-45 0 -69.5 25.5t-24.5 62.5q0 38 26 73t77 52h85zM107 634q0 36 28 61q29 27 62 27q30 0 49.5 -20.5t19.5 -49.5q0 -18 -7.5 -33.5
t-20 -27.5t-29 -19t-34.5 -7q-30 0 -49 19.5t-19 49.5z" />
    <glyph glyph-name="Idotaccent" unicode="&#x130;" horiz-adv-x="288" 
d="M44 0l103 737h149l-103 -737h-149zM161 864q0 36 28 61q29 27 62 27q30 0 49.5 -20.5t19.5 -49.5q0 -18 -7.5 -33.5t-20 -27.5t-29 -19t-34.5 -7q-30 0 -49 19.5t-19 49.5z" />
    <glyph glyph-name="dotlessi" unicode="&#x131;" horiz-adv-x="248" 
d="M239 498l-70 -498h-144l70 498h144z" />
    <glyph glyph-name="Jcircumflex" unicode="&#x134;" horiz-adv-x="549" 
d="M563 737l-65 -465l-10 -68q-15 -96 -81 -158q-64 -60 -170 -60t-165 51.5t-59 136.5q0 11 0.5 20t1.5 15l3 26h144l-3 -26q-1 -3 -1 -14q0 -31 21 -50.5t58 -19.5q43 0 69.5 23.5t33.5 66.5l9 57l64 465h150zM556 788l-46 100l-75 -100h-105l121 170h111h28l71 -170h-105
z" />
    <glyph glyph-name="jcircumflex" unicode="&#x135;" horiz-adv-x="283" 
d="M-82 -102q22 -13 47 -13q26 0 45 17t23 48l78 547h146l-80 -568q-12 -90 -62.5 -134.5t-125.5 -44.5q-56 0 -116 25zM253 558l-46 100l-75 -100h-105l121 170h111h28l71 -170h-105z" />
    <glyph glyph-name="Kcommaaccent" unicode="&#x136;" horiz-adv-x="679" 
d="M141 737h149l-49 -341l317 341h197l-340 -370l227 -367h-188l-148 249l-99 -107l-20 -142h-150zM373 -103q0 -49 -35 -86q-34 -36 -82 -36l5 32q23 0 37.5 13.5t16.5 31.5q-7 -4 -18 -4q-23 0 -37.5 14.5t-14.5 40.5q1 27 18 44.5t47 17.5q26 0 44.5 -16.5t18.5 -51.5z
" />
    <glyph glyph-name="kcommaaccent" unicode="&#x137;" horiz-adv-x="563" 
d="M38 0l106 750h142l-61 -434l198 182h178l-249 -230l164 -268h-173l-100 169l-44 -41l-18 -128h-143zM314 -103q0 -49 -35 -86q-34 -36 -82 -36l5 32q23 0 37.5 13.5t16.5 31.5q-7 -4 -18 -4q-23 0 -37.5 14.5t-14.5 40.5q1 27 18 44.5t47 17.5q26 0 44.5 -16.5
t18.5 -51.5z" />
    <glyph glyph-name="Lacute" unicode="&#x139;" horiz-adv-x="545" 
d="M504 134l-18 -134h-418h-24l103 737h151l-84 -603h290zM170 770l72 151h129l-97 -151h-104z" />
    <glyph glyph-name="lacute" unicode="&#x13a;" horiz-adv-x="259" 
d="M144 750h142l-105 -750h-143zM162 783l72 151h129l-97 -151h-104z" />
    <glyph glyph-name="Lcommaaccent" unicode="&#x13b;" horiz-adv-x="545" 
d="M504 134l-18 -134h-418h-24l103 737h151l-84 -603h290zM333 -103q0 -49 -35 -86q-34 -36 -82 -36l5 32q23 0 37.5 13.5t16.5 31.5q-7 -4 -18 -4q-23 0 -37.5 14.5t-14.5 40.5q1 27 18 44.5t47 17.5q26 0 44.5 -16.5t18.5 -51.5z" />
    <glyph glyph-name="lcommaaccent" unicode="&#x13c;" horiz-adv-x="259" 
d="M144 750h142l-105 -750h-143zM162 -116q0 -49 -35 -86q-34 -36 -82 -36l5 32q23 0 37.5 13.5t16.5 31.5q-7 -4 -18 -4q-23 0 -37.5 14.5t-14.5 40.5q1 27 18 44.5t47 17.5q26 0 44.5 -16.5t18.5 -51.5z" />
    <glyph glyph-name="Lcaron" unicode="&#x13d;" horiz-adv-x="545" 
d="M504 134l-18 -134h-418h-24l103 737h151l-84 -603h290zM521 682q0 -49 -35 -86q-34 -36 -82 -36l5 32q23 0 37.5 13.5t16.5 31.5q-7 -4 -18 -4q-23 0 -37.5 14.5t-14.5 40.5q1 27 18 44.5t47 17.5q26 0 44.5 -16.5t18.5 -51.5z" />
    <glyph glyph-name="lcaron" unicode="&#x13e;" horiz-adv-x="259" 
d="M144 750h142l-105 -750h-143z" />
    <glyph glyph-name="Ldot" unicode="&#x13f;" horiz-adv-x="545" 
d="M504 134l-18 -134h-418h-24l103 737h151l-84 -603h290zM308 385q0 46 30 76t75 30q40 0 64.5 -26t24.5 -64q0 -45 -31 -73.5t-76 -28.5q-38 0 -62.5 23.5t-24.5 62.5z" />
    <glyph glyph-name="ldot" unicode="&#x140;" horiz-adv-x="489" 
d="M144 750h142l-105 -750h-143zM273 377q0 24 8.5 44t23.5 34.5t35 23t42 8.5q42 0 67 -26.5t25 -66.5q0 -23 -9 -42.5t-24 -33.5t-35 -22t-43 -8q-39 0 -64.5 24.5t-25.5 64.5z" />
    <glyph glyph-name="Lslash" unicode="&#x141;" horiz-adv-x="545" 
d="M504 134l-18 -134h-418h-24l43 310l-55 -26l15 113l56 27l44 313h151l-33 -236l129 62l-15 -113l-130 -62l-35 -254h290z" />
    <glyph glyph-name="lslash" unicode="&#x142;" horiz-adv-x="294" 
d="M249 454l38 15l-13 -90l-38 -15l-51 -364h-143l43 306l-40 -15l12 90l40 15l50 354h143z" />
    <glyph glyph-name="Nacute" unicode="&#x143;" horiz-adv-x="767" 
d="M147 737h148l253 -498l70 498h148l-104 -737h-147l-254 497l-70 -497h-147zM411 788l72 151h129l-97 -151h-104z" />
    <glyph glyph-name="nacute" unicode="&#x144;" horiz-adv-x="604" 
d="M569 325q0 -20 -3 -43l-41 -282h-142l38 269q1 10 1.5 16.5t0.5 10.5q0 46 -25.5 67t-63.5 21q-99 0 -115 -115l-39 -269h-142l70 498h133l-1 -46q19 27 56 44t83 17q88 0 139 -50t51 -138zM309 558l72 151h129l-97 -151h-104z" />
    <glyph glyph-name="Ncommaaccent" unicode="&#x145;" horiz-adv-x="767" 
d="M147 737h148l253 -498l70 498h148l-104 -737h-147l-254 497l-70 -497h-147zM413 -103q0 -49 -35 -86q-34 -36 -82 -36l5 32q23 0 37.5 13.5t16.5 31.5q-7 -4 -18 -4q-23 0 -37.5 14.5t-14.5 40.5q1 27 18 44.5t47 17.5q26 0 44.5 -16.5t18.5 -51.5z" />
    <glyph glyph-name="ncommaaccent" unicode="&#x146;" horiz-adv-x="604" 
d="M569 325q0 -20 -3 -43l-41 -282h-142l38 269q1 10 1.5 16.5t0.5 10.5q0 46 -25.5 67t-63.5 21q-99 0 -115 -115l-39 -269h-142l70 498h133l-1 -46q19 27 56 44t83 17q88 0 139 -50t51 -138zM335 -103q0 -49 -35 -86q-34 -36 -82 -36l5 32q23 0 37.5 13.5t16.5 31.5
q-7 -4 -18 -4q-23 0 -37.5 14.5t-14.5 40.5q1 27 18 44.5t47 17.5q26 0 44.5 -16.5t18.5 -51.5z" />
    <glyph glyph-name="Ncaron" unicode="&#x147;" horiz-adv-x="767" 
d="M147 737h148l253 -498l70 498h148l-104 -737h-147l-254 497l-70 -497h-147zM658 958l-120 -170h-112h-28l-71 170h106l45 -100l75 100h105z" />
    <glyph glyph-name="ncaron" unicode="&#x148;" horiz-adv-x="604" 
d="M569 325q0 -20 -3 -43l-41 -282h-142l38 269q1 10 1.5 16.5t0.5 10.5q0 46 -25.5 67t-63.5 21q-99 0 -115 -115l-39 -269h-142l70 498h133l-1 -46q19 27 56 44t83 17q88 0 139 -50t51 -138zM556 728l-120 -170h-112h-28l-71 170h106l45 -100l75 100h105z" />
    <glyph glyph-name="Eng" unicode="&#x14a;" horiz-adv-x="774" 
d="M764 737l-103 -737l-11 -76q-12 -90 -66 -126q-53 -37 -123 -37q-45 0 -77 12l15 122q17 -7 42 -7q31 0 54 13.5t28 45.5l7 53h-17l-252 497l-70 -497h-147l103 737h147l253 -498l70 498h147z" />
    <glyph glyph-name="eng" unicode="&#x14b;" horiz-adv-x="613" 
d="M559 329q0 -14 -1 -27t-3 -26l-39 -276l-5 -36q-12 -87 -63 -124q-51 -39 -112 -39q-34 0 -59 11l16 115q17 -5 29 -5q47 0 51 45l5 33l37 264q1 5 1.5 13t0.5 18q0 89 -84 89q-40 0 -78 -26q-37 -25 -47 -95l-37 -263h-138l69 498h132l-2 -44q24 29 64 44t85 15
q30 0 61.5 -9t57.5 -30t42.5 -56.5t16.5 -88.5z" />
    <glyph glyph-name="Omacron" unicode="&#x14c;" horiz-adv-x="789" 
d="M445 750q75 0 135.5 -24t103.5 -68t66.5 -105t23.5 -136q2 -97 -31 -176.5t-88 -136.5t-127 -88t-150 -30q-74 0 -134.5 24.5t-104 68.5t-67 105.5t-23.5 135.5q-2 97 30.5 176.5t87.5 136.5t127.5 88t150.5 29zM384 133q44 -1 85.5 19t74 57t52.5 88.5t19 114.5
q0 88 -47 140.5t-131 52.5q-43 1 -84.5 -18.5t-74 -56t-52 -88t-18.5 -114.5q0 -90 47 -142.5t129 -52.5zM646 895l-12 -89h-322l12 89h322z" />
    <glyph glyph-name="omacron" unicode="&#x14d;" horiz-adv-x="592" 
d="M319 512q52 0 97.5 -16.5t79.5 -48t53.5 -77.5t19.5 -104q1 -56 -20 -107t-58 -89t-88 -60.5t-111 -21.5q-54 0 -100 16.5t-80 47.5t-53.5 77t-19.5 104q-1 56 20 106.5t58.5 89.5t89 61.5t112.5 21.5zM292 115q58 0 95 43q38 44 38 107q0 57 -29.5 88.5t-80.5 31.5
q-58 0 -95 -43t-37 -106q0 -57 29 -89t80 -32zM523 665l-12 -89h-322l12 89h322z" />
    <glyph glyph-name="Ohungarumlaut" unicode="&#x150;" horiz-adv-x="789" 
d="M445 750q75 0 135.5 -24t103.5 -68t66.5 -105t23.5 -136q2 -97 -31 -176.5t-88 -136.5t-127 -88t-150 -30q-74 0 -134.5 24.5t-104 68.5t-67 105.5t-23.5 135.5q-2 97 30.5 176.5t87.5 136.5t127.5 88t150.5 29zM384 133q44 -1 85.5 19t74 57t52.5 88.5t19 114.5
q0 88 -47 140.5t-131 52.5q-43 1 -84.5 -18.5t-74 -56t-52 -88t-18.5 -114.5q0 -90 47 -142.5t129 -52.5zM327 784l60 151h129l-85 -151h-104zM481 784l87 151h129l-112 -151h-104z" />
    <glyph glyph-name="ohungarumlaut" unicode="&#x151;" horiz-adv-x="592" 
d="M319 512q52 0 97.5 -16.5t79.5 -48t53.5 -77.5t19.5 -104q1 -56 -20 -107t-58 -89t-88 -60.5t-111 -21.5q-54 0 -100 16.5t-80 47.5t-53.5 77t-19.5 104q-1 56 20 106.5t58.5 89.5t89 61.5t112.5 21.5zM292 115q58 0 95 43q38 44 38 107q0 57 -29.5 88.5t-80.5 31.5
q-58 0 -95 -43t-37 -106q0 -57 29 -89t80 -32zM205 555l60 151h129l-85 -151h-104zM359 555l87 151h129l-112 -151h-104z" />
    <glyph glyph-name="OE" unicode="&#x152;" horiz-adv-x="1119" 
d="M798 589l-24 -171l290 -1l-17 -117l-290 1l-25 -180h323l-17 -121l-323 1v-1h-121l9 62q-52 -39 -113.5 -59.5t-128.5 -20.5q-65 -1 -121 24t-97 69t-63.5 103.5t-21.5 127.5q-2 85 30.5 161.5t89 134t130.5 91t155 31.5q67 0 123.5 -24t96.5 -67l11 77h121l324 -1
l-19 -121zM633 392q0 93 -50 148t-138 55q-53 1 -99 -20.5t-80.5 -59t-54 -89t-18.5 -110.5q0 -90 50 -149q51 -57 136 -57q56 0 103 21t80.5 58.5t52 89t18.5 113.5z" />
    <glyph glyph-name="oe" unicode="&#x153;" horiz-adv-x="937" 
d="M919 299q0 -8 -1 -20t-3 -29l-7 -54h-354q3 -45 32 -66t71 -21q76 0 125 63l96 -57q-35 -58 -96 -92.5t-139 -34.5q-63 0 -111 24t-70 66q-34 -43 -85.5 -66.5t-112.5 -23.5q-50 0 -92 16t-72 45.5t-47 71t-17 91.5q0 65 21.5 120t59.5 95t90.5 62.5t113.5 22.5
q64 0 112 -22.5t73 -62.5q34 42 84 64.5t110 22.5q50 0 90.5 -15t69 -42.5t44 -67.5t15.5 -90zM689 398q-43 0 -76 -28t-46 -73h212q3 45 -21 73t-69 28zM422 272q0 51 -26.5 82t-74.5 31q-30 0 -55.5 -11.5t-44.5 -32.5t-29.5 -49.5t-10.5 -63.5q0 -52 27 -82.5t75 -30.5
q30 0 55 12t44 33t29.5 49.5t10.5 62.5z" />
    <glyph glyph-name="Racute" unicode="&#x154;" horiz-adv-x="681" 
d="M609 0h-166l-75 266h-138l-37 -266h-149l103 737h149h150q51 0 93.5 -14.5t73 -42t47.5 -69t17 -95.5q0 -79 -41 -139.5t-116 -88.5zM249 396h133q70 0 102.5 34.5t32.5 83.5q0 42 -25 66t-79 24h-135zM307 788l72 151h129l-97 -151h-104z" />
    <glyph glyph-name="racute" unicode="&#x155;" horiz-adv-x="401" 
d="M366 506q31 0 63 -8l-18 -131q-22 5 -45 5q-63 0 -104 -39.5t-50 -105.5l-32 -227h-142l70 498h133l-1 -58q17 34 50.5 50t75.5 16zM123 559l72 151h129l-97 -151h-104z" />
    <glyph glyph-name="Rcommaaccent" unicode="&#x156;" horiz-adv-x="681" 
d="M609 0h-166l-75 266h-138l-37 -266h-149l103 737h149h150q51 0 93.5 -14.5t73 -42t47.5 -69t17 -95.5q0 -79 -41 -139.5t-116 -88.5zM249 396h133q70 0 102.5 34.5t32.5 83.5q0 42 -25 66t-79 24h-135zM365 -103q0 -49 -35 -86q-34 -36 -82 -36l5 32q23 0 37.5 13.5
t16.5 31.5q-7 -4 -18 -4q-23 0 -37.5 14.5t-14.5 40.5q1 27 18 44.5t47 17.5q26 0 44.5 -16.5t18.5 -51.5z" />
    <glyph glyph-name="rcommaaccent" unicode="&#x157;" horiz-adv-x="401" 
d="M366 506q31 0 63 -8l-18 -131q-22 5 -45 5q-63 0 -104 -39.5t-50 -105.5l-32 -227h-142l70 498h133l-1 -58q17 34 50.5 50t75.5 16zM164 -103q0 -49 -35 -86q-34 -36 -82 -36l5 32q23 0 37.5 13.5t16.5 31.5q-7 -4 -18 -4q-23 0 -37.5 14.5t-14.5 40.5q1 27 18 44.5
t47 17.5q26 0 44.5 -16.5t18.5 -51.5z" />
    <glyph glyph-name="Rcaron" unicode="&#x158;" horiz-adv-x="681" 
d="M609 0h-166l-75 266h-138l-37 -266h-149l103 737h149h150q51 0 93.5 -14.5t73 -42t47.5 -69t17 -95.5q0 -79 -41 -139.5t-116 -88.5zM249 396h133q70 0 102.5 34.5t32.5 83.5q0 42 -25 66t-79 24h-135zM554 958l-120 -170h-112h-28l-71 170h106l45 -100l75 100h105z" />
    <glyph glyph-name="rcaron" unicode="&#x159;" horiz-adv-x="401" 
d="M366 506q31 0 63 -8l-18 -131q-22 5 -45 5q-63 0 -104 -39.5t-50 -105.5l-32 -227h-142l70 498h133l-1 -58q17 34 50.5 50t75.5 16zM370 729l-120 -170h-112h-28l-71 170h106l45 -100l75 100h105z" />
    <glyph glyph-name="Sacute" unicode="&#x15a;" horiz-adv-x="605" 
d="M362 750q108 0 172 -51t69 -134l-147 -37q-2 42 -32 63.5t-78 21.5q-54 0 -83.5 -24.5t-29.5 -62.5q0 -54 67 -73l108 -32q84 -24 125.5 -74.5t41.5 -125.5q0 -51 -21 -94t-59 -74t-92.5 -48.5t-120.5 -17.5q-115 0 -184 52t-77 143l146 36q0 -45 35 -69t95 -24
q57 0 91.5 23.5t34.5 61.5q0 53 -67 72l-110 34q-81 25 -123 74.5t-42 118.5q0 53 20.5 97t57 76t88.5 50t115 18zM322 788l72 151h129l-97 -151h-104z" />
    <glyph glyph-name="sacute" unicode="&#x15b;" horiz-adv-x="474" 
d="M224 101q31 0 49.5 12t18.5 34q0 26 -40 39l-59 20q-64 23 -95.5 55.5t-31.5 83.5q0 34 13.5 64.5t39 53.5t63 36.5t86.5 13.5q79 0 130 -35.5t60 -96.5l-133 -30q1 22 -16 34.5t-44 12.5t-44 -12.5t-17 -33.5q0 -14 11.5 -24t37.5 -19l60 -20q63 -22 93 -53.5t30 -83.5
q0 -79 -57.5 -122t-154.5 -43q-93 0 -145.5 39t-57.5 105l134 22q-2 -23 16.5 -37.5t52.5 -14.5zM233 561l72 151h129l-97 -151h-104z" />
    <glyph glyph-name="Scircumflex" unicode="&#x15c;" horiz-adv-x="605" 
d="M362 750q108 0 172 -51t69 -134l-147 -37q-2 42 -32 63.5t-78 21.5q-54 0 -83.5 -24.5t-29.5 -62.5q0 -54 67 -73l108 -32q84 -24 125.5 -74.5t41.5 -125.5q0 -51 -21 -94t-59 -74t-92.5 -48.5t-120.5 -17.5q-115 0 -184 52t-77 143l146 36q0 -45 35 -69t95 -24
q57 0 91.5 23.5t34.5 61.5q0 53 -67 72l-110 34q-81 25 -123 74.5t-42 118.5q0 53 20.5 97t57 76t88.5 50t115 18zM439 788l-46 100l-75 -100h-105l121 170h111h28l71 -170h-105z" />
    <glyph glyph-name="scircumflex" unicode="&#x15d;" horiz-adv-x="474" 
d="M224 101q31 0 49.5 12t18.5 34q0 26 -40 39l-59 20q-64 23 -95.5 55.5t-31.5 83.5q0 34 13.5 64.5t39 53.5t63 36.5t86.5 13.5q79 0 130 -35.5t60 -96.5l-133 -30q1 22 -16 34.5t-44 12.5t-44 -12.5t-17 -33.5q0 -14 11.5 -24t37.5 -19l60 -20q63 -22 93 -53.5t30 -83.5
q0 -79 -57.5 -122t-154.5 -43q-93 0 -145.5 39t-57.5 105l134 22q-2 -23 16.5 -37.5t52.5 -14.5zM350 561l-46 100l-75 -100h-105l121 170h111h28l71 -170h-105z" />
    <glyph glyph-name="Scedilla" unicode="&#x15e;" horiz-adv-x="605" 
d="M575 221q0 -47 -18 -87.5t-51.5 -71t-80.5 -50t-105 -23.5l-30 -25h33q32 0 50 -20t18 -51q0 -43 -24.5 -69.5t-66.5 -26.5h-113l8 61h91q12 0 21 6.5t9 19.5q0 20 -24 20h-91l10 62l26 23q-96 10 -152 61t-64 132l146 36q0 -45 35 -69t95 -24q57 0 91.5 23.5t34.5 61.5
q0 53 -67 72l-110 34q-81 25 -123 74.5t-42 118.5q0 53 20.5 97t57 76t88.5 50t115 18q108 0 172 -51t69 -134l-147 -37q-2 42 -32 63.5t-78 21.5q-54 0 -83.5 -24.5t-29.5 -62.5q0 -54 67 -73l108 -32q84 -24 125.5 -74.5t41.5 -125.5z" />
    <glyph glyph-name="scedilla" unicode="&#x15f;" horiz-adv-x="474" 
d="M436 152q0 -73 -50 -116t-138 -48l-35 -29h33q32 0 50 -20t18 -51q0 -43 -24.5 -69.5t-66.5 -26.5h-113l8 61h91q12 0 21 6.5t9 19.5q0 20 -24 20h-91l10 62l34 31q-67 11 -105 47.5t-42 91.5l134 22q-2 -23 16.5 -37.5t52.5 -14.5q31 0 49.5 12t18.5 34q0 26 -40 39
l-59 20q-64 23 -95.5 55.5t-31.5 83.5q0 34 13.5 64.5t39 53.5t63 36.5t86.5 13.5q79 0 130 -35.5t60 -96.5l-133 -30q1 22 -16 34.5t-44 12.5t-44 -12.5t-17 -33.5q0 -14 11.5 -24t37.5 -19l60 -20q63 -22 93 -53.5t30 -83.5z" />
    <glyph glyph-name="Scaron" unicode="&#x160;" horiz-adv-x="605" 
d="M362 750q108 0 172 -51t69 -134l-147 -37q-2 42 -32 63.5t-78 21.5q-54 0 -83.5 -24.5t-29.5 -62.5q0 -54 67 -73l108 -32q84 -24 125.5 -74.5t41.5 -125.5q0 -51 -21 -94t-59 -74t-92.5 -48.5t-120.5 -17.5q-115 0 -184 52t-77 143l146 36q0 -45 35 -69t95 -24
q57 0 91.5 23.5t34.5 61.5q0 53 -67 72l-110 34q-81 25 -123 74.5t-42 118.5q0 53 20.5 97t57 76t88.5 50t115 18zM569 958l-120 -170h-112h-28l-71 170h106l45 -100l75 100h105z" />
    <glyph glyph-name="scaron" unicode="&#x161;" horiz-adv-x="474" 
d="M224 101q31 0 49.5 12t18.5 34q0 26 -40 39l-59 20q-64 23 -95.5 55.5t-31.5 83.5q0 34 13.5 64.5t39 53.5t63 36.5t86.5 13.5q79 0 130 -35.5t60 -96.5l-133 -30q1 22 -16 34.5t-44 12.5t-44 -12.5t-17 -33.5q0 -14 11.5 -24t37.5 -19l60 -20q63 -22 93 -53.5t30 -83.5
q0 -79 -57.5 -122t-154.5 -43q-93 0 -145.5 39t-57.5 105l134 22q-2 -23 16.5 -37.5t52.5 -14.5zM480 731l-120 -170h-112h-28l-71 170h106l45 -100l75 100h105z" />
    <glyph glyph-name="uni0162" unicode="&#x162;" horiz-adv-x="592" 
d="M624 595h-203l-84 -595h-149l83 595h-204l20 142h557zM165 -146h91q12 0 21 6.5t9 19.5q0 20 -24 20h-91l10 62l68 62l53 -1l-4 -32l-38 -31h33q32 0 50 -20t18 -51q0 -43 -24.5 -69.5t-66.5 -26.5h-113z" />
    <glyph glyph-name="uni0163" unicode="&#x163;" horiz-adv-x="374" 
d="M376 376h-95l-52 -376h-142l53 376h-94l17 122h94l22 154h141l-22 -154h95zM62 -138h91q12 0 21 6.5t9 19.5q0 20 -24 20h-91l10 62l68 62l53 -1l-4 -32l-38 -31h33q32 0 50 -20t18 -51q0 -43 -24.5 -69.5t-66.5 -26.5h-113z" />
    <glyph glyph-name="Tcaron" unicode="&#x164;" horiz-adv-x="592" 
d="M624 595h-203l-84 -595h-149l83 595h-204l20 142h557zM563 958l-120 -170h-112h-28l-71 170h106l45 -100l75 100h105z" />
    <glyph glyph-name="tcaron" unicode="&#x165;" horiz-adv-x="417" 
d="M474 721q0 -8 -3 -19l-44 -158h-67l2 158q0 29 20 46t45 17q19 0 33 -11.5t14 -32.5zM298 498h95l-17 -122h-95l-52 -376h-142l53 376h-94l17 122h94l22 154h141z" />
    <glyph glyph-name="Tbar" unicode="&#x166;" horiz-adv-x="592" 
d="M421 595l-23 -163h142l-19 -127h-141l-43 -305h-149l43 305h-142l18 127h141l23 163h-204l20 142h557l-20 -142h-203z" />
    <glyph glyph-name="tbar" unicode="&#x167;" horiz-adv-x="375" 
d="M281 376l-11 -78h96l-17 -122h-96l-24 -176h-142l25 176h-93l17 122h93l11 78h-94l17 122h94l22 154h141l-22 -154h95l-17 -122h-95z" />
    <glyph glyph-name="Utilde" unicode="&#x168;" horiz-adv-x="737" 
d="M142 737h150l-62 -437q-3 -19 -3 -36q0 -67 37.5 -100.5t100.5 -33.5q72 0 117.5 42t56.5 124l63 441h149l-66 -470q-9 -67 -36.5 -119t-69.5 -87.5t-97 -54t-120 -18.5q-62 0 -114.5 17t-90.5 50.5t-59.5 82.5t-21.5 112q0 13 1.5 28t3.5 32zM397 963q23 0 41.5 -8
t40.5 -22q4 -2 11 -6t15.5 -7.5t16.5 -6t14 -2.5q18 0 28.5 12.5t9.5 32.5h88q1 -37 -9.5 -64.5t-28 -46t-40.5 -27.5t-47 -9t-43.5 8t-44.5 22q-18 10 -29 15t-22 5q-18 0 -27 -13.5t-10 -35.5l-87 -1q-1 36 9 65t27 48.5t40 30t47 10.5z" />
    <glyph glyph-name="utilde" unicode="&#x169;" horiz-adv-x="605" 
d="M597 498l-70 -498h-133l1 43q-25 -27 -64.5 -41.5t-84.5 -14.5q-75 0 -129 39q-53 39 -53 132q0 14 1 26.5t3 25.5l42 288h143l-39 -274q-1 -9 -1.5 -15t-0.5 -10q0 -25 7.5 -41.5t20 -26t28.5 -13.5t32 -4q37 0 72 23q35 24 44 87l39 274h142zM304 733q23 0 41.5 -8
t40.5 -22q4 -2 11 -6t15.5 -7.5t16.5 -6t14 -2.5q18 0 28.5 12.5t9.5 32.5h88q1 -37 -9.5 -64.5t-28 -46t-40.5 -27.5t-47 -9t-43.5 8t-44.5 22q-18 10 -29 15t-22 5q-18 0 -27 -13.5t-10 -35.5l-87 -1q-1 36 9 65t27 48.5t40 30t47 10.5z" />
    <glyph glyph-name="Umacron" unicode="&#x16a;" horiz-adv-x="737" 
d="M142 737h150l-62 -437q-3 -19 -3 -36q0 -67 37.5 -100.5t100.5 -33.5q72 0 117.5 42t56.5 124l63 441h149l-66 -470q-9 -67 -36.5 -119t-69.5 -87.5t-97 -54t-120 -18.5q-62 0 -114.5 17t-90.5 50.5t-59.5 82.5t-21.5 112q0 13 1.5 28t3.5 32zM630 895l-12 -89h-322
l12 89h322z" />
    <glyph glyph-name="umacron" unicode="&#x16b;" horiz-adv-x="605" 
d="M597 498l-70 -498h-133l1 43q-25 -27 -64.5 -41.5t-84.5 -14.5q-75 0 -129 39q-53 39 -53 132q0 14 1 26.5t3 25.5l42 288h143l-39 -274q-1 -9 -1.5 -15t-0.5 -10q0 -25 7.5 -41.5t20 -26t28.5 -13.5t32 -4q37 0 72 23q35 24 44 87l39 274h142zM537 665l-12 -89h-322
l12 89h322z" />
    <glyph glyph-name="Uring" unicode="&#x16e;" horiz-adv-x="737" 
d="M142 737h150l-62 -437q-3 -19 -3 -36q0 -67 37.5 -100.5t100.5 -33.5q72 0 117.5 42t56.5 124l63 441h149l-66 -470q-9 -67 -36.5 -119t-69.5 -87.5t-97 -54t-120 -18.5q-62 0 -114.5 17t-90.5 50.5t-59.5 82.5t-21.5 112q0 13 1.5 28t3.5 32zM336 891q0 30 13 57.5
t34.5 48.5t49.5 33.5t57 12.5q25 0 46.5 -9.5t37 -26t24 -38.5t8.5 -47q0 -29 -13 -56t-34 -48t-49 -33.5t-58 -12.5q-51 0 -83.5 34t-32.5 85zM528 915q0 21 -13.5 35t-35.5 14q-27 0 -45.5 -18t-18.5 -45q0 -22 13 -36t35 -14q27 0 46 18.5t19 45.5z" />
    <glyph glyph-name="uring" unicode="&#x16f;" horiz-adv-x="605" 
d="M597 498l-70 -498h-133l1 43q-25 -27 -64.5 -41.5t-84.5 -14.5q-75 0 -129 39q-53 39 -53 132q0 14 1 26.5t3 25.5l42 288h143l-39 -274q-1 -9 -1.5 -15t-0.5 -10q0 -25 7.5 -41.5t20 -26t28.5 -13.5t32 -4q37 0 72 23q35 24 44 87l39 274h142zM243 661q0 30 13 57.5
t34.5 48.5t49.5 33.5t57 12.5q25 0 46.5 -9.5t37 -26t24 -38.5t8.5 -47q0 -29 -13 -56t-34 -48t-49 -33.5t-58 -12.5q-51 0 -83.5 34t-32.5 85zM435 685q0 21 -13.5 35t-35.5 14q-27 0 -45.5 -18t-18.5 -45q0 -22 13 -36t35 -14q27 0 46 18.5t19 45.5z" />
    <glyph glyph-name="Uhungarumlaut" unicode="&#x170;" horiz-adv-x="737" 
d="M142 737h150l-62 -437q-3 -19 -3 -36q0 -67 37.5 -100.5t100.5 -33.5q72 0 117.5 42t56.5 124l63 441h149l-66 -470q-9 -67 -36.5 -119t-69.5 -87.5t-97 -54t-120 -18.5q-62 0 -114.5 17t-90.5 50.5t-59.5 82.5t-21.5 112q0 13 1.5 28t3.5 32zM320 788l60 151h129
l-85 -151h-104zM474 788l87 151h129l-112 -151h-104z" />
    <glyph glyph-name="uhungarumlaut" unicode="&#x171;" horiz-adv-x="605" 
d="M597 498l-70 -498h-133l1 43q-25 -27 -64.5 -41.5t-84.5 -14.5q-75 0 -129 39q-53 39 -53 132q0 14 1 26.5t3 25.5l42 288h143l-39 -274q-1 -9 -1.5 -15t-0.5 -10q0 -25 7.5 -41.5t20 -26t28.5 -13.5t32 -4q37 0 72 23q35 24 44 87l39 274h142zM227 558l60 151h129
l-85 -151h-104zM381 558l87 151h129l-112 -151h-104z" />
    <glyph glyph-name="Uogonek" unicode="&#x172;" horiz-adv-x="737" 
d="M751 737l-66 -470q-18 -128 -97.5 -199.5t-199.5 -78.5q-35 -15 -52.5 -36.5t-17.5 -41.5q0 -15 9.5 -24t26.5 -9q13 0 29 6l-13 -92q-36 -11 -59 -11q-45 0 -69.5 25.5t-24.5 62.5q0 36 24 69.5t69 52.5q-53 7 -96 27.5t-74 53.5t-47.5 77.5t-16.5 100.5q0 13 1.5 28
t3.5 32l61 427h150l-62 -437q-3 -19 -3 -36q0 -67 37.5 -100.5t100.5 -33.5q72 0 117.5 42t56.5 124l63 441h149z" />
    <glyph glyph-name="uogonek" unicode="&#x173;" horiz-adv-x="605" 
d="M449 -84q0 -15 9.5 -24t26.5 -9q13 0 29 6l-13 -92q-30 -10 -59 -10q-45 0 -69.5 25.5t-24.5 62.5q0 38 26 73t77 52h-57l1 43q-25 -27 -64.5 -41.5t-84.5 -14.5q-75 0 -129 39q-53 39 -53 132q0 14 1 26.5t3 25.5l42 288h143l-39 -274q-1 -9 -1.5 -15t-0.5 -10
q0 -25 7.5 -41.5t20 -26t28.5 -13.5t32 -4q37 0 72 23q35 24 44 87l39 274h142l-70 -498h9q-43 -14 -65 -37.5t-22 -46.5z" />
    <glyph glyph-name="Wcircumflex" unicode="&#x174;" horiz-adv-x="1048" 
d="M1106 737l-327 -737h-146l-77 467l-212 -467h-147l-117 737h165l64 -475l203 475h166l66 -477l202 477h160zM662 788l-46 100l-75 -100h-105l121 170h111h28l71 -170h-105z" />
    <glyph glyph-name="wcircumflex" unicode="&#x175;" horiz-adv-x="822" 
d="M859 498l-246 -498h-132l-55 287l-138 -287h-138l-98 498h149l43 -291l133 291h146l45 -296l131 296h160zM527 557l-46 100l-75 -100h-105l121 170h111h28l71 -170h-105z" />
    <glyph glyph-name="Ycircumflex" unicode="&#x176;" horiz-adv-x="671" 
d="M247 737l111 -302l211 302h162l-314 -448l-40 -289h-150l40 289l-188 448h168zM475 788l-46 100l-75 -100h-105l121 170h111h28l71 -170h-105z" />
    <glyph glyph-name="ycircumflex" unicode="&#x177;" horiz-adv-x="594" 
d="M631 498l-330 -620q-36 -69 -86.5 -98.5t-107.5 -29.5q-58 0 -119 29l54 124q29 -18 60 -18q51 0 75 47l22 43l-147 523h150l88 -347l178 347h163zM414 558l-46 100l-75 -100h-105l121 170h111h28l71 -170h-105z" />
    <glyph glyph-name="Ydieresis" unicode="&#x178;" horiz-adv-x="671" 
d="M247 737l111 -302l211 302h162l-314 -448l-40 -289h-150l40 289l-188 448h168zM237 865q0 18 7.5 34t20.5 27.5t29.5 18.5t34.5 7q29 0 49 -20.5t20 -49.5q0 -34 -28 -61q-29 -26 -63 -26q-31 0 -50.5 20t-19.5 50zM456 865q0 18 7.5 34t20.5 27.5t29.5 18.5t34.5 7
q29 0 49 -20.5t20 -49.5q0 -34 -28 -61q-29 -26 -63 -26q-31 0 -50.5 20t-19.5 50z" />
    <glyph glyph-name="Zacute" unicode="&#x179;" horiz-adv-x="563" 
d="M22 143l389 450l-325 -1l20 145h499l-20 -143l-390 -451h322l-20 -143h-494zM306 788l72 151h129l-97 -151h-104z" />
    <glyph glyph-name="zacute" unicode="&#x17a;" horiz-adv-x="493" 
d="M33 127l260 244h-225l17 127h412l-18 -127l-265 -244h231l-18 -127h-411zM242 558l72 151h129l-97 -151h-104z" />
    <glyph glyph-name="Zdotaccent" unicode="&#x17b;" horiz-adv-x="563" 
d="M22 143l389 450l-325 -1l20 145h499l-20 -143l-390 -451h322l-20 -143h-494zM295 864q0 36 28 61q29 27 62 27q30 0 49.5 -20.5t19.5 -49.5q0 -18 -7.5 -33.5t-20 -27.5t-29 -19t-34.5 -7q-30 0 -49 19.5t-19 49.5z" />
    <glyph glyph-name="zdotaccent" unicode="&#x17c;" horiz-adv-x="493" 
d="M33 127l260 244h-225l17 127h412l-18 -127l-265 -244h231l-18 -127h-411zM232 634q0 36 28 61q29 27 62 27q30 0 49.5 -20.5t19.5 -49.5q0 -18 -7.5 -33.5t-20 -27.5t-29 -19t-34.5 -7q-30 0 -49 19.5t-19 49.5z" />
    <glyph glyph-name="Zcaron" unicode="&#x17d;" horiz-adv-x="563" 
d="M22 143l389 450l-325 -1l20 145h499l-20 -143l-390 -451h322l-20 -143h-494zM553 958l-120 -170h-112h-28l-71 170h106l45 -100l75 100h105z" />
    <glyph glyph-name="zcaron" unicode="&#x17e;" horiz-adv-x="493" 
d="M33 127l260 244h-225l17 127h412l-18 -127l-265 -244h231l-18 -127h-411zM489 728l-120 -170h-112h-28l-71 170h106l45 -100l75 100h105z" />
    <glyph glyph-name="florin" unicode="&#x192;" horiz-adv-x="658" 
d="M485 565l-19 -68h150l-16 -115h-166l-6 -19l-118 -422q-21 -75 -67.5 -109t-107.5 -34h-130l17 129h79q61 0 79 60l106 376h-1l6 19h-143l16 115h159l26 93q22 79 67 118.5t136 39.5h108l-17 -129h-85q-30 0 -47.5 -12.5t-25.5 -41.5z" />
    <glyph glyph-name="Aringacute" unicode="&#x1fa;" horiz-adv-x="673" 
d="M508 951h-104l71 150h130zM629 0h-157l-32 161h-237l-77 -161h-151l343 710q-20 29 -20 68q0 30 13 57.5t34.5 48.5t49.5 33.5t57 12.5q25 0 46.5 -9.5t37 -25.5t24 -38t8.5 -47q0 -42 -24.5 -78t-62.5 -55zM377 789q0 -22 13 -36t35 -14q27 0 46 18.5t19 45.5
q0 21 -13.5 35t-35.5 14q-26 0 -45 -18.5t-19 -44.5zM416 290l-44 222l-107 -222h151z" />
    <glyph glyph-name="aringacute" unicode="&#x1fb;" horiz-adv-x="625" 
d="M402 725h-99l68 131h123zM617 498l-70 -498h-133l2 53q-25 -32 -67.5 -48t-88.5 -16q-52 0 -93 17t-69.5 48t-44 74t-15.5 94q0 103 48 176t127 101q-12 24 -12 55q0 30 13 57.5t34.5 48.5t49.5 33.5t57 12.5q25 0 46.5 -9.5t37 -25.5t24 -38t8.5 -47q0 -29 -12 -56
t-34 -48q28 -16 46 -42l15 58h131zM280 565q0 -22 13 -36t35 -14q27 0 46 18.5t19 45.5q0 21 -13.5 35t-35.5 14q-26 0 -45 -18.5t-19 -44.5zM435 261q0 57 -34.5 89t-83.5 32q-27 0 -51.5 -11t-43 -30.5t-29.5 -46.5t-11 -58q0 -57 33 -89.5t84 -32.5q29 0 53.5 11.5t43 32
t29 47t10.5 56.5z" />
    <glyph glyph-name="AEacute" unicode="&#x1fc;" horiz-adv-x="972" 
d="M630 594l-22 -153l291 -1l-21 -136h-289l-23 -162l326 -1l-22 -141l-324 1v-1h-141l24 170h-196l-88 -170h-170l399 735h153h123h325l-22 -141h-323zM489 594h-35l-154 -296h147zM590 788l72 151h129l-97 -151h-104z" />
    <glyph glyph-name="aeacute" unicode="&#x1fd;" horiz-adv-x="861" 
d="M843 300q0 -7 -0.5 -16.5t-1.5 -22.5l-4 -27q-2 -13 -3 -22t-2 -15h-358q3 -42 30.5 -65t72.5 -23q39 0 71.5 17t55.5 46l98 -57q-37 -61 -102 -94t-140 -33q-61 0 -105.5 22t-65.5 60q-28 -38 -74.5 -60t-106.5 -22q-78 0 -131 39q-53 41 -53 114q0 36 13.5 66t37 51.5
t56.5 34t72 12.5h100q46 0 46 36q0 30 -25 43t-57 13q-75 0 -120 -70l-95 59q38 63 95 95.5t127 32.5q60 0 103.5 -22t66.5 -56q35 37 84.5 57.5t106.5 20.5q100 0 154 -57t54 -157zM610 398q-43 0 -76 -27.5t-47 -72.5h216q2 43 -23 71.5t-70 28.5zM230 208
q-37 0 -55.5 -16.5t-18.5 -42.5q0 -25 18 -40t56 -15q46 0 75.5 24t38.5 70q4 21 3 20h-117zM419 558l72 151h129l-97 -151h-104z" />
    <glyph glyph-name="Oslashacute" unicode="&#x1fe;" horiz-adv-x="799" 
d="M767 418q2 -97 -31 -176.5t-88 -136.5t-127 -88t-150 -30q-69 0 -126 21l-18 -28h-140l56 89q-49 45 -75 109.5t-26 142.5q-2 97 30.5 176.5t87.5 136.5t127.5 88t150.5 29q65 0 119 -18l16 26h140l-52 -84q51 -45 78.5 -110.5t27.5 -146.5zM475 601q-25 5 -45 5
q-43 1 -84.5 -18.5t-74 -56t-52 -88t-18.5 -114.5q0 -71 30 -119zM608 413q0 73 -34 123l-247 -396q24 -6 51 -6q43 -1 84.5 19t74.5 57t52.5 88.5t18.5 114.5zM333 774l72 151h129l-97 -151h-104z" />
    <glyph glyph-name="oslashacute" unicode="&#x1ff;" horiz-adv-x="592" 
d="M510 434q59 -65 59 -167q1 -56 -20 -107t-58 -89.5t-88 -61t-111 -21.5q-58 0 -106 18l-42 -56h-128l85 112q-29 31 -45.5 74t-16.5 97q-1 56 20 106.5t58.5 89.5t89 61.5t112.5 21.5q63 0 111 -21l40 52h122zM346 381q-11 4 -31 4q-55 0 -93 -42q-37 -42 -39 -104
q0 -33 9 -59zM270 117l20 -2q57 -2 95 41q39 43 40 106q0 31 -7 51zM290 558l72 151h129l-97 -151h-104z" />
    <glyph glyph-name="Scommaaccent" unicode="&#x218;" horiz-adv-x="605" 
d="M362 750q108 0 172 -51t69 -134l-147 -37q-2 42 -32 63.5t-78 21.5q-54 0 -83.5 -24.5t-29.5 -62.5q0 -54 67 -73l108 -32q84 -24 125.5 -74.5t41.5 -125.5q0 -51 -21 -94t-59 -74t-92.5 -48.5t-120.5 -17.5q-115 0 -184 52t-77 143l146 36q0 -45 35 -69t95 -24
q57 0 91.5 23.5t34.5 61.5q0 53 -67 72l-110 34q-81 25 -123 74.5t-42 118.5q0 53 20.5 97t57 76t88.5 50t115 18zM346 -99q0 -49 -35 -86q-34 -36 -82 -36l5 32q23 0 37.5 13.5t16.5 31.5q-7 -4 -18 -4q-23 0 -37.5 14.5t-14.5 40.5q1 27 18 44.5t47 17.5q26 0 44.5 -16.5
t18.5 -51.5z" />
    <glyph glyph-name="scommaaccent" unicode="&#x219;" horiz-adv-x="474" 
d="M224 101q31 0 49.5 12t18.5 34q0 26 -40 39l-59 20q-64 23 -95.5 55.5t-31.5 83.5q0 34 13.5 64.5t39 53.5t63 36.5t86.5 13.5q79 0 130 -35.5t60 -96.5l-133 -30q1 22 -16 34.5t-44 12.5t-44 -12.5t-17 -33.5q0 -14 11.5 -24t37.5 -19l60 -20q63 -22 93 -53.5t30 -83.5
q0 -79 -57.5 -122t-154.5 -43q-93 0 -145.5 39t-57.5 105l134 22q-2 -23 16.5 -37.5t52.5 -14.5zM270 -104q0 -49 -35 -86q-34 -36 -82 -36l5 32q23 0 37.5 13.5t16.5 31.5q-7 -4 -18 -4q-23 0 -37.5 14.5t-14.5 40.5q1 27 18 44.5t47 17.5q26 0 44.5 -16.5t18.5 -51.5z" />
    <glyph glyph-name="uni021A" unicode="&#x21a;" horiz-adv-x="592" 
d="M624 595h-203l-84 -595h-149l83 595h-204l20 142h557zM317 -103q0 -49 -35 -86q-34 -36 -82 -36l5 32q23 0 37.5 13.5t16.5 31.5q-7 -4 -18 -4q-23 0 -37.5 14.5t-14.5 40.5q1 27 18 44.5t47 17.5q26 0 44.5 -16.5t18.5 -51.5z" />
    <glyph glyph-name="uni021B" unicode="&#x21b;" horiz-adv-x="374" 
d="M376 376h-95l-52 -376h-142l53 376h-94l17 122h94l22 154h141l-22 -154h95zM214 -95q0 -49 -35 -86q-34 -36 -82 -36l5 32q23 0 37.5 13.5t16.5 31.5q-7 -4 -18 -4q-23 0 -37.5 14.5t-14.5 40.5q1 27 18 44.5t47 17.5q26 0 44.5 -16.5t18.5 -51.5z" />
    <glyph glyph-name="uni0237" unicode="&#x237;" horiz-adv-x="283" 
d="M-82 -102q22 -13 47 -13q26 0 45 17t23 48l78 547h146l-80 -568q-12 -90 -62.5 -134.5t-125.5 -44.5q-56 0 -116 25z" />
    <glyph glyph-name="circumflex" unicode="&#x2c6;" horiz-adv-x="409" 
d="M374 770l-46 100l-75 -100h-105l121 170h111h28l71 -170h-105z" />
    <glyph glyph-name="caron" unicode="&#x2c7;" horiz-adv-x="404" 
d="M496 940l-120 -170h-112h-28l-71 170h106l45 -100l75 100h105z" />
    <glyph glyph-name="breve" unicode="&#x2d8;" horiz-adv-x="413" 
d="M314 770q-36 0 -66 12t-51.5 33t-33.5 49t-12 60q0 16 1 21h105q-4 -35 16.5 -54t55.5 -19q34 0 59 19t31 54h104q-5 -36 -24 -68t-47.5 -55.5t-64 -37.5t-73.5 -14z" />
    <glyph glyph-name="dotaccent" unicode="&#x2d9;" horiz-adv-x="198" 
d="M139 847q0 18 7.5 34t20.5 27.5t29.5 18.5t34.5 7q29 0 49 -20.5t20 -49.5q0 -34 -28 -61q-29 -26 -63 -26q-31 0 -50.5 20t-19.5 50z" />
    <glyph glyph-name="ring" unicode="&#x2da;" horiz-adv-x="298" 
d="M135 873q0 30 13 57.5t34.5 48.5t49.5 33.5t57 12.5q49 0 82 -36q34 -34 34 -85q0 -29 -13 -56t-34.5 -48t-49.5 -33.5t-57 -12.5q-51 0 -83.5 34t-32.5 85zM326 897q0 21 -13.5 35t-35.5 14q-27 0 -45.5 -18t-18.5 -45q0 -22 13 -36t35 -14q27 0 46 18.5t19 45.5z" />
    <glyph glyph-name="ogonek" unicode="&#x2db;" horiz-adv-x="553" 
d="M347 0q-43 -14 -65 -37.5t-22 -46.5q0 -15 9.5 -24t26.5 -9q13 0 29 6l-13 -92q-30 -10 -59 -10q-45 0 -69.5 25.5t-24.5 62.5q0 38 26 73t77 52h85z" />
    <glyph glyph-name="tilde" unicode="&#x2dc;" horiz-adv-x="433" 
d="M263 945q23 0 41.5 -8t40.5 -22q4 -2 11 -6t15.5 -7.5t16.5 -6t14 -2.5q18 0 28.5 12.5t9.5 32.5h88q1 -37 -9.5 -64.5t-28 -46t-40.5 -27.5t-47 -9t-43.5 8t-44.5 22q-18 10 -29 15t-22 5q-18 0 -27 -13.5t-10 -35.5l-87 -1q-1 36 9 65t27 48.5t40 30t47 10.5z" />
    <glyph glyph-name="hungarumlaut" unicode="&#x2dd;" horiz-adv-x="460" 
d="M38 770l60 151h129l-85 -151h-104zM192 770l87 151h129l-112 -151h-104z" />
    <glyph glyph-name="gravecomb" unicode="&#x300;" horiz-adv-x="0" 
d="M-254 948h130l89 -178h-104z" />
    <glyph glyph-name="acutecomb" unicode="&#x301;" horiz-adv-x="0" 
d="M-225 770l72 151h129l-97 -151h-104z" />
    <glyph glyph-name="uni0302" unicode="&#x302;" horiz-adv-x="0" 
d="M-37 770l-46 100l-75 -100h-105l121 170h111h28l71 -170h-105z" />
    <glyph glyph-name="tildecomb" unicode="&#x303;" horiz-adv-x="0" 
d="M-165 945q23 0 41.5 -8t40.5 -22q4 -2 11 -6t15.5 -7.5t16.5 -6t14 -2.5q18 0 28.5 12.5t9.5 32.5h88q1 -37 -9.5 -64.5t-28 -46t-40.5 -27.5t-47 -9t-43.5 8t-44.5 22q-18 10 -29 15t-22 5q-18 0 -27 -13.5t-10 -35.5l-87 -1q-2 36 8.5 65t27.5 48.5t40 30t47 10.5z" />
    <glyph glyph-name="uni0304" unicode="&#x304;" horiz-adv-x="0" 
d="M106 907l-12 -89h-322l13 89h321z" />
    <glyph glyph-name="uni0306" unicode="&#x306;" horiz-adv-x="0" 
d="M-153 949q-1 -3 -1 -15q0 -30 20 -46t52 -16q35 0 60.5 20t30.5 57h104q-5 -36 -24 -68.5t-47.5 -57t-64.5 -39t-74 -14.5q-37 0 -67 11.5t-51.5 32t-33 48.5t-11.5 61q0 4 0.5 10.5t1.5 15.5h105z" />
    <glyph glyph-name="uni0307" unicode="&#x307;" horiz-adv-x="0" 
d="M-235 846q0 36 28 61q28 27 62 27q30 0 49.5 -20.5t19.5 -49.5q0 -18 -7.5 -33.5t-20 -27.5t-29 -19t-34.5 -7q-30 0 -49 19.5t-19 49.5z" />
    <glyph glyph-name="uni0308" unicode="&#x308;" horiz-adv-x="0" 
d="M-358 855q0 33 24 56t57 23q32 0 55 -23t23 -55t-23.5 -55.5t-56.5 -23.5t-56 23t-23 55zM-151 855q0 32 23.5 55.5t55.5 23.5t55 -23t23 -55t-23.5 -55.5t-56.5 -23.5q-32 0 -54.5 22.5t-22.5 55.5z" />
    <glyph glyph-name="uni030A" unicode="&#x30a;" horiz-adv-x="0" 
d="M-155 873q0 30 13 57.5t34.5 48.5t49.5 33.5t57 12.5q25 0 46.5 -9.5t37 -26t24 -38.5t8.5 -47q0 -29 -13 -56t-34 -48t-49 -33.5t-58 -12.5q-51 0 -83.5 34t-32.5 85zM37 897q0 21 -13.5 35t-35.5 14q-27 0 -45.5 -18t-18.5 -45q0 -22 13 -36t35 -14q27 0 46 18.5
t19 45.5z" />
    <glyph glyph-name="uni030B" unicode="&#x30b;" horiz-adv-x="0" 
d="M-436 770l89 177h130l-115 -177h-104zM-285 770l117 177h130l-143 -177h-104z" />
    <glyph glyph-name="uni030C" unicode="&#x30c;" horiz-adv-x="0" 
d="M-22 948l-97 -178h-112h-28l-94 178h105l60 -105l61 105h105z" />
    <glyph glyph-name="uni0312" unicode="&#x312;" horiz-adv-x="0" 
d="M70 851q0 -28 -17 -46t-47 -18q-26 0 -44.5 16.5t-18.5 51.5q0 51 34 86q35 36 83 36l-5 -32q-23 0 -38 -13.5t-16 -31.5q7 4 17 4q23 0 37.5 -14t14.5 -39z" />
    <glyph glyph-name="uni0326" unicode="&#x326;" horiz-adv-x="0" 
d="M-59 -102q0 -51 -34 -86q-35 -36 -83 -36l5 32q23 0 37.5 13.5t16.5 31.5q-7 -4 -18 -4q-23 0 -37.5 14.5t-14.5 40.5q1 27 18 44.5t47 17.5q26 0 44.5 -16.5t18.5 -51.5z" />
    <glyph glyph-name="uni0327" unicode="&#x327;" horiz-adv-x="0" 
d="M-271 -138h91q12 0 21 6.5t9 19.5q0 20 -24 20h-91l10 62l68 62l53 -1l-4 -32l-38 -31h33q32 0 50 -20t18 -51q0 -43 -24.5 -69.5t-66.5 -26.5h-113z" />
    <glyph glyph-name="uni0338" unicode="&#x338;" horiz-adv-x="0" 
d="M-548 -44l454 593h122l-448 -593h-128z" />
    <glyph glyph-name="uni03A9" unicode="&#x3a9;" horiz-adv-x="664" 
d="M611 105v-105h-240v105q51 21 77.5 63t26.5 94q0 60 -38.5 96.5t-98.5 36.5t-98.5 -37t-38.5 -97q0 -55 28 -96.5t76 -59.5v-105h-241v105h86q-72 72 -72 171q0 48 19 91.5t53 75.5t82.5 51t106.5 19q59 0 107 -19t82 -51.5t52 -75.5t18 -90q0 -98 -72 -172h85z" />
    <glyph glyph-name="pi" unicode="&#x3c0;" horiz-adv-x="670" 
d="M631 382h-96q1 -38 1 -92.5v-125.5q0 -24 11 -29.5t37 -5.5l47 -1v-128l-127 1q-55 0 -83 39t-28 102v240h-151v-382h-140v382h-88v115h228h293h96v-115z" />
    <glyph glyph-name="Wgrave" unicode="&#x1e80;" horiz-adv-x="1048" 
d="M1106 737l-327 -737h-146l-77 467l-212 -467h-147l-117 737h165l64 -475l203 475h166l66 -477l202 477h160zM443 939h130l76 -151h-104z" />
    <glyph glyph-name="wgrave" unicode="&#x1e81;" horiz-adv-x="822" 
d="M859 498l-246 -498h-132l-55 287l-138 -287h-138l-98 498h149l43 -291l133 291h146l45 -296l131 296h160zM308 708h130l76 -151h-104z" />
    <glyph glyph-name="Wacute" unicode="&#x1e82;" horiz-adv-x="1048" 
d="M1106 737l-327 -737h-146l-77 467l-212 -467h-147l-117 737h165l64 -475l203 475h166l66 -477l202 477h160zM545 788l72 151h129l-97 -151h-104z" />
    <glyph glyph-name="wacute" unicode="&#x1e83;" horiz-adv-x="822" 
d="M859 498l-246 -498h-132l-55 287l-138 -287h-138l-98 498h149l43 -291l133 291h146l45 -296l131 296h160zM410 557l72 151h129l-97 -151h-104z" />
    <glyph glyph-name="Wdieresis" unicode="&#x1e84;" horiz-adv-x="1048" 
d="M1106 737l-327 -737h-146l-77 467l-212 -467h-147l-117 737h165l64 -475l203 475h166l66 -477l202 477h160zM424 865q0 18 7.5 34t20.5 27.5t29.5 18.5t34.5 7q29 0 49 -20.5t20 -49.5q0 -34 -28 -61q-29 -26 -63 -26q-31 0 -50.5 20t-19.5 50zM643 865q0 18 7.5 34
t20.5 27.5t29.5 18.5t34.5 7q29 0 49 -20.5t20 -49.5q0 -34 -28 -61q-29 -26 -63 -26q-31 0 -50.5 20t-19.5 50z" />
    <glyph glyph-name="wdieresis" unicode="&#x1e85;" horiz-adv-x="822" 
d="M859 498l-246 -498h-132l-55 287l-138 -287h-138l-98 498h149l43 -291l133 291h146l45 -296l131 296h160zM289 634q0 18 7.5 34t20.5 27.5t29.5 18.5t34.5 7q29 0 49 -20.5t20 -49.5q0 -34 -28 -61q-29 -26 -63 -26q-31 0 -50.5 20t-19.5 50zM508 634q0 18 7.5 34
t20.5 27.5t29.5 18.5t34.5 7q29 0 49 -20.5t20 -49.5q0 -34 -28 -61q-29 -26 -63 -26q-31 0 -50.5 20t-19.5 50z" />
    <glyph glyph-name="Ygrave" unicode="&#x1ef2;" horiz-adv-x="671" 
d="M247 737l111 -302l211 302h162l-314 -448l-40 -289h-150l40 289l-188 448h168zM256 939h130l76 -151h-104z" />
    <glyph glyph-name="ygrave" unicode="&#x1ef3;" horiz-adv-x="594" 
d="M631 498l-330 -620q-36 -69 -86.5 -98.5t-107.5 -29.5q-58 0 -119 29l54 124q29 -18 60 -18q51 0 75 47l22 43l-147 523h150l88 -347l178 347h163zM195 709h130l76 -151h-104z" />
    <glyph glyph-name="endash" unicode="&#x2013;" horiz-adv-x="897" 
d="M867 332l-17 -126h-805l18 126h804z" />
    <glyph glyph-name="emdash" unicode="&#x2014;" horiz-adv-x="1105" 
d="M1074 332l-17 -126h-1012l18 126h1011z" />
    <glyph glyph-name="quoteleft" unicode="&#x2018;" horiz-adv-x="300" 
d="M305 568q0 -40 -26.5 -66t-65.5 -26q-33 0 -54 20.5t-21 65.5q0 36 12.5 66.5t33.5 53t49.5 35.5t60.5 13l-5 -43q-31 0 -51 -17.5t-23 -41.5q7 4 24 4q30 0 48 -17t18 -47z" />
    <glyph glyph-name="quoteright" unicode="&#x2019;" horiz-adv-x="300" 
d="M318 640q0 -36 -12 -66.5t-33 -53t-49.5 -35.5t-61.5 -13l6 43q30 0 50 17.5t23 41.5q-13 -5 -24 -5q-30 0 -48 17.5t-18 47.5q0 40 26.5 66t65.5 26q33 0 54 -21.5t21 -64.5z" />
    <glyph glyph-name="quotesinglbase" unicode="&#x201a;" horiz-adv-x="275" 
d="M230 39q0 -33 -10 -60t-27.5 -47t-42 -31t-54.5 -11v43q31 0 49 18t16 42q-15 -5 -28 -5q-31 0 -50.5 20t-19.5 55q0 36 22 58.5t58 22.5q37 0 62 -25.5t25 -79.5z" />
    <glyph glyph-name="quotedblleft" unicode="&#x201c;" horiz-adv-x="492" 
d="M305 568q0 -40 -26.5 -66t-65.5 -26q-33 0 -54 20.5t-21 65.5q0 36 12.5 66.5t33.5 53t49.5 35.5t60.5 13l-5 -43q-31 0 -51 -17.5t-23 -41.5q9 4 25 4q30 0 47.5 -17t17.5 -47zM497 568q0 -40 -26 -66t-66 -26q-32 0 -53.5 20.5t-21.5 65.5q0 35 12.5 65.5t33.5 53
t49.5 35.5t61.5 13l-6 -43q-31 0 -51 -17t-23 -41q7 4 24 4q30 0 48 -17t18 -47z" />
    <glyph glyph-name="quotedblright" unicode="&#x201d;" horiz-adv-x="492" 
d="M314 640q0 -36 -12.5 -66.5t-33.5 -53t-49.5 -35.5t-60.5 -13l5 43q31 0 51 17.5t23 40.5q-11 -4 -24 -4q-30 0 -48 17.5t-18 47.5q0 40 26 66t66 26q32 0 53.5 -21.5t21.5 -64.5zM506 640q0 -36 -12 -66.5t-33 -53t-49.5 -35.5t-61.5 -13l6 43q30 0 50 17.5t23 41.5
q-13 -5 -24 -5q-30 0 -48 17.5t-18 47.5q0 40 26.5 66t65.5 26q33 0 54 -21.5t21 -64.5z" />
    <glyph glyph-name="quotedblbase" unicode="&#x201e;" horiz-adv-x="492" 
d="M241 58q0 -36 -12.5 -66.5t-33.5 -53t-49.5 -35.5t-60.5 -13l5 43q31 0 51.5 18t22.5 42q-10 -5 -26 -5q-29 0 -46.5 17t-17.5 47q0 40 26.5 66t65.5 26q33 0 54 -20.5t21 -65.5zM433 58q0 -36 -12.5 -66.5t-33.5 -53t-49.5 -35.5t-60.5 -13l6 43q31 0 51 18t22 42
q-12 -5 -28 -5q-28 0 -45 17t-17 47q0 40 26.5 66t65.5 26q33 0 54 -20.5t21 -65.5z" />
    <glyph glyph-name="dagger" unicode="&#x2020;" horiz-adv-x="365" 
d="M381 525h-111v-261h-85v261h-111v85h111v100h85v-100h111v-85z" />
    <glyph glyph-name="daggerdbl" unicode="&#x2021;" horiz-adv-x="389" 
d="M383 367h-108v-103h-85v103h-114v85h114v70h-117v85h117v103h85v-103h106v-85h-106v-70h108v-85z" />
    <glyph glyph-name="bullet" unicode="&#x2022;" horiz-adv-x="456" 
d="M64 255q0 42 15 75.5t40.5 57.5t59 37t70.5 13q32 0 59 -12t47.5 -32t32 -47.5t11.5 -57.5q0 -42 -14.5 -75.5t-39.5 -57t-58.5 -36t-70.5 -12.5q-31 0 -58.5 11.5t-48.5 31.5t-33 47t-12 57z" />
    <glyph glyph-name="ellipsis" unicode="&#x2026;" horiz-adv-x="840" 
d="M69 59q0 40 31 68q32 29 71 29q32 0 54 -23t22 -55q0 -39 -31 -67t-70 -28q-33 0 -55 22t-22 54zM341 59q0 40 31 68q32 29 71 29q31 0 53.5 -23t22.5 -55q0 -19 -8.5 -36.5t-23 -30.5t-32.5 -20.5t-37 -7.5q-33 0 -55 22t-22 54zM613 59q0 40 30 68q32 29 71 29
q32 0 54 -23t22 -55q0 -39 -31 -67t-70 -28q-33 0 -54.5 22t-21.5 54z" />
    <glyph glyph-name="perthousand" unicode="&#x2030;" horiz-adv-x="1377" 
d="M269 751q69 0 112 -44.5t43 -129.5q0 -48 -13.5 -89t-38 -70t-58 -45.5t-74.5 -16.5q-69 0 -112.5 46t-43.5 128q0 48 13.5 89t37.5 70t58 45.5t76 16.5zM167 0l559 735h141l-560 -735h-140zM245 449q38 0 60.5 33.5t22.5 87.5q0 45 -17.5 65t-46.5 20q-39 0 -62 -32
t-23 -86q0 -45 18.5 -66.5t47.5 -21.5zM803 380q69 0 111.5 -44.5t42.5 -129.5q0 -48 -13.5 -89t-38 -70.5t-58 -46t-74.5 -16.5q-69 0 -112 45.5t-43 129.5q0 48 13.5 88.5t37.5 70t58 46t76 16.5zM1173 380q69 0 111.5 -44.5t42.5 -129.5q0 -48 -13.5 -89t-37.5 -70.5
t-57.5 -46t-74.5 -16.5q-69 0 -112.5 45.5t-43.5 129.5q0 48 13.5 88.5t37.5 70t58 46t76 16.5zM778 78q37 0 60.5 33t23.5 87q0 45 -18 65t-47 20q-39 0 -62 -31.5t-23 -85.5q0 -45 18.5 -66.5t47.5 -21.5zM1148 78q38 0 61 33t23 87q0 45 -18 65t-47 20q-38 0 -61 -31.5
t-23 -85.5q0 -45 18 -66.5t47 -21.5z" />
    <glyph glyph-name="minute" unicode="&#x2032;" horiz-adv-x="166" 
d="M176 483h-68l-23 189q-3 33 13.5 51t40.5 18q23 0 40.5 -14t17.5 -42q0 -10 -1 -13z" />
    <glyph glyph-name="guilsinglleft" unicode="&#x2039;" horiz-adv-x="433" 
d="M215 249l183 -249h-184l-183 249l253 249h184z" />
    <glyph glyph-name="guilsinglright" unicode="&#x203a;" horiz-adv-x="433" 
d="M402 249l-253 -249h-184l253 249l-183 249h184z" />
    <glyph glyph-name="uni2042" unicode="&#x2042;" horiz-adv-x="955" 
d="M555 397l-41 58q-18 25 -27.5 46t-11.5 25q-9 -29 -35 -71l-44 -58l-59 40l42 62q14 17 27.5 32t27.5 27q-48 5 -79 16l-69 25l26 67l66 -22q39 -16 72 -37q-1 5 -5 28.5t-4 52.5v72h72v-72q0 -40 -9 -81q24 18 72 37l67 22l25 -67l-69 -25q-31 -11 -79 -16
q14 -13 27.5 -27.5t26.5 -31.5l40 -62zM334 178q-16 -7 -36 -11t-43 -6q14 -12 27.5 -26.5t27.5 -32.5l40 -61l-59 -41l-41 59q-15 18 -23 34t-16 37q-9 -32 -36 -71l-44 -59l-59 41l42 61q14 18 28 33t28 26q-23 2 -43 6t-37 11l-68 24l26 68l66 -22q19 -8 36.5 -17
t34.5 -20q-1 5 -5 28.5t-4 51.5v73h72v-73q0 -47 -9 -80q29 20 73 37l67 22l25 -68zM879 41l-59 -41l-41 59q-15 18 -23 34t-16 37q-8 -29 -36 -71l-44 -59l-59 41l42 61q14 17 27.5 32t27.5 27q-23 2 -42.5 6t-36.5 11l-68 24l26 68l66 -22q19 -8 36.5 -17t34.5 -20
q-1 5 -5 28.5t-4 51.5v73h72v-73q0 -39 -9 -80q29 20 73 37l66 22l26 -68l-70 -24q-16 -7 -36 -11t-43 -6q14 -12 27.5 -26.5t27.5 -32.5z" />
    <glyph glyph-name="fraction" unicode="&#x2044;" horiz-adv-x="181" 
d="M-241 0l541 710h122l-541 -710h-122z" />
    <glyph glyph-name="uni2070" unicode="&#x2070;" horiz-adv-x="513" 
d="M257 292h-1q-51 0 -91 19t-68 52.5t-42.5 79.5t-14.5 100q0 55 15 101t43 79.5t68 52t90 18.5h1h1q51 0 90.5 -19t67.5 -52.5t42.5 -79.5t14.5 -100q0 -112 -57 -181q-57 -68 -158 -70h-1zM371 543q0 70 -29.5 111.5t-84.5 41.5q-57 0 -86 -42t-29 -111t29 -111.5
t86 -42.5t85.5 42.5t28.5 111.5z" />
    <glyph glyph-name="uni2074" unicode="&#x2074;" horiz-adv-x="466" 
d="M426 388h-62v-88h-92v88h-232v92l232 304h92v-304h62v-92zM272 480v159l-120 -159h120z" />
    <glyph glyph-name="uni2075" unicode="&#x2075;" horiz-adv-x="432" 
d="M392 463q0 -35 -14 -66t-38.5 -54.5t-57 -37t-68.5 -13.5t-68 13.5t-55.5 37t-37 54.5t-13.5 66h92q0 -33 23.5 -55.5t58.5 -22.5q34 0 59 23t26 55q1 45 -23 70.5t-67 25.5q-24 0 -44.5 -12.5t-25.5 -28.5l-84 22l61 244h260v-93h-188l-19 -67q26 14 56 14q76 0 121 -49
q46 -49 46 -126z" />
    <glyph glyph-name="uni2076" unicode="&#x2076;" horiz-adv-x="465" 
d="M425 472q0 -39 -14 -72.5t-39.5 -58t-60 -38t-76.5 -13.5q-100 0 -148 70q-47 71 -47 176q0 113 52 186q53 74 157 74q54 0 97.5 -21t69.5 -63l-78 -47q-36 38 -89 38q-49 -1 -79.5 -28.5t-35.5 -75.5q41 47 112 47q34 0 66 -11.5t57 -34t40.5 -54.5t15.5 -74zM333 470
q0 42 -27.5 65.5t-65.5 23.5q-40 0 -66.5 -23.5t-26.5 -65.5t27 -65.5t66 -23.5t66 23.5t27 65.5z" />
    <glyph glyph-name="uni2077" unicode="&#x2077;" horiz-adv-x="422" 
d="M382 784v-94q-170 -128 -170 -390h-96q0 247 149 390h-225v94h342z" />
    <glyph glyph-name="uni2078" unicode="&#x2078;" horiz-adv-x="432" 
d="M220 292q-40 0 -73 10t-57 29t-37 45t-13 57q0 42 24 77t64 48q-31 14 -48.5 42.5t-17.5 64.5q0 30 11.5 53.5t32.5 40.5t49.5 26t61.5 9t61.5 -9.5t49 -26.5t32 -40.5t11.5 -52.5q-1 -37 -19.5 -65.5t-49.5 -41.5q42 -12 66 -48t24 -79q2 -62 -48 -101q-50 -38 -124 -38
zM217 594q32 0 52 16.5t20 42.5q0 27 -21.5 42.5t-52.5 15.5t-52.5 -16t-21.5 -44q0 -24 22 -40.5t54 -16.5zM300 449q0 30 -25 47.5t-60 17.5q-36 0 -60 -19t-24 -49q1 -30 25.5 -49.5t59.5 -19.5q36 0 60 21t24 51z" />
    <glyph glyph-name="uni2079" unicode="&#x2079;" horiz-adv-x="465" 
d="M216 290q-54 0 -97.5 21t-69.5 63l78 46q18 -18 38.5 -27t49.5 -10q51 0 80.5 27t35.5 78q-41 -47 -108 -47q-34 0 -67 11.5t-59 33t-41.5 54t-15.5 74.5q0 40 14 73.5t39 57.5t60 37.5t77 13.5q100 0 147 -71q48 -70 48 -178q0 -111 -53 -185q-52 -72 -156 -72zM319 616
q0 42 -27.5 66t-66.5 24q-40 0 -66.5 -24t-26.5 -66t28 -65.5t66 -23.5q39 0 66 23.5t27 65.5z" />
    <glyph glyph-name="uni2080" unicode="&#x2080;" horiz-adv-x="513" 
d="M257 -108h-1q-51 0 -91 19t-68 52.5t-42.5 79.5t-14.5 100q0 55 15 101t43 79.5t68 52t90 18.5h1h1q51 0 90.5 -19t67.5 -52.5t42.5 -79.5t14.5 -100q0 -112 -57 -181q-57 -68 -158 -70h-1zM371 143q0 70 -29.5 111.5t-84.5 41.5q-57 0 -86 -42t-29 -111t29 -111.5
t86 -42.5t85.5 42.5t28.5 111.5z" />
    <glyph glyph-name="uni2081" unicode="&#x2081;" horiz-adv-x="314" 
d="M232 385v-485h-93v391l-99 -42v92l99 44h93z" />
    <glyph glyph-name="uni2082" unicode="&#x2082;" horiz-adv-x="425" 
d="M49 -6l207 169q20 16 28 31.5t8 32.5q0 35 -21.5 55.5t-57.5 20.5q-33 0 -55.5 -18.5t-25.5 -55.5h-92q4 78 51 121.5t120 43.5q39 0 71.5 -13t55 -35.5t35 -52.5t12.5 -65q0 -81 -72 -138l-126 -98l187 1v-92l-325 -1v94z" />
    <glyph glyph-name="uni2083" unicode="&#x2083;" horiz-adv-x="424" 
d="M384 61q0 -36 -13.5 -67t-37 -53.5t-54.5 -35.5t-67 -13q-37 0 -68.5 13t-54.5 35.5t-36 52.5t-13 64h92q2 -31 23 -52.5t57 -21.5q33 0 56 22t23 56q0 37 -22.5 60t-59.5 23q-18 1 -40 -9l-34 73l1 1l88 82l-165 1v92h313v-79l-95 -90q49 -18 78 -58.5t29 -95.5z" />
    <glyph glyph-name="uni2084" unicode="&#x2084;" horiz-adv-x="466" 
d="M426 -12h-62v-88h-92v88h-232v92l232 304h92v-304h62v-92zM272 80v159l-120 -159h120z" />
    <glyph glyph-name="uni2085" unicode="&#x2085;" horiz-adv-x="432" 
d="M392 63q0 -35 -14 -66t-38.5 -54.5t-57 -37t-68.5 -13.5t-68 13.5t-55.5 36.5t-37 54.5t-13.5 66.5h92q0 -33 23.5 -55.5t58.5 -22.5q34 0 59 23t26 55q1 45 -23 70.5t-67 25.5q-24 0 -44.5 -12.5t-25.5 -28.5l-84 22l61 244h260v-93h-188l-19 -67q26 14 56 14
q76 0 121 -49q46 -49 46 -126z" />
    <glyph glyph-name="uni2086" unicode="&#x2086;" horiz-adv-x="465" 
d="M425 72q0 -39 -14 -72.5t-39.5 -58t-60 -38t-76.5 -13.5q-100 0 -148 71q-47 71 -47 175q0 113 52 186q53 74 157 74q54 0 97.5 -21t69.5 -63l-78 -47q-36 38 -89 38q-49 -1 -79.5 -28.5t-35.5 -75.5q41 47 112 47q34 0 66 -11.5t57 -34t40.5 -54.5t15.5 -74zM333 70
q0 42 -27.5 65.5t-65.5 23.5q-40 0 -66.5 -23.5t-26.5 -65.5t27 -65.5t66 -23.5t66 23.5t27 65.5z" />
    <glyph glyph-name="uni2087" unicode="&#x2087;" horiz-adv-x="422" 
d="M382 384v-94q-170 -128 -170 -390h-96q0 247 149 390h-225v94h342z" />
    <glyph glyph-name="uni2088" unicode="&#x2088;" horiz-adv-x="432" 
d="M392 30q2 -60 -48 -99q-48 -39 -126 -39q-81 0 -129.5 38t-48.5 102q0 43 23 77.5t65 48.5q-31 14 -48.5 42.5t-17.5 64.5q0 60 43 94.5t112 34.5q33 0 61.5 -9t49 -25.5t32 -40t11.5 -52.5q0 -38 -18 -67t-51 -42q43 -13 67 -49.5t23 -78.5zM141 254q0 -27 21 -43.5
t55 -16.5q31 0 51.5 16.5t20.5 41.5q0 27 -20 43t-53 16t-54 -15.5t-21 -41.5zM300 45q0 32 -23 50.5t-60 18.5t-61.5 -19t-24.5 -50q1 -31 25 -49.5t61 -18.5t60 18.5t23 49.5z" />
    <glyph glyph-name="uni2089" unicode="&#x2089;" horiz-adv-x="465" 
d="M216 -110q-54 0 -97.5 21t-69.5 63l78 46q18 -18 38.5 -27t49.5 -10q51 0 80.5 27t35.5 78q-41 -47 -108 -47q-34 0 -67 11.5t-59 33t-41.5 54t-15.5 74.5q0 40 14 73.5t39 57.5t60 37.5t77 13.5q100 0 147 -71q48 -70 48 -178q0 -111 -53 -184q-52 -73 -156 -73z
M319 216q0 42 -27.5 66t-66.5 24q-40 0 -66.5 -24t-26.5 -66t28 -65.5t66 -23.5q39 0 66 23.5t27 65.5z" />
    <glyph glyph-name="Euro" unicode="&#x20ac;" horiz-adv-x="786" 
d="M622 166l69 -102q-109 -76 -234 -76q-114 0 -196 56t-113 161h-90l19 132h56q2 30 6 58h-54l19 131h77q26 51 63 92t82.5 70.5t99 45t111.5 15.5q57 0 114 -14t97 -38l-80 -116q-61 36 -131 36q-60 0 -111 -24t-89 -67h255l-54 -131h-265q-6 -28 -6 -58h246l-50 -132
h-162q27 -42 70.5 -64t100.5 -22q40 0 79.5 12.5t70.5 34.5z" />
    <glyph glyph-name="uni2116" unicode="&#x2116;" horiz-adv-x="1274" 
d="M1248 511q1 -55 -21.5 -102.5t-60 -82t-86.5 -54t-102 -18.5q-48 0 -88.5 15.5t-70.5 43.5t-47 67t-17 86q-1 53 20.5 100t59 82.5t87 56t103.5 19.5q46 0 86.5 -15t71 -42.5t48 -67t17.5 -88.5zM592 710h121l-100 -710h-121l-260 504l-71 -504h-121l100 710h121
l260 -504zM1013 609q-30 0 -55 -11t-43 -30t-28 -43t-10 -50q0 -45 29 -77t83 -32q31 0 56.5 11.5t43.5 30.5t28 44t10 51q0 46 -31.5 76t-82.5 30zM773 214h381l-13 -96h-382z" />
    <glyph glyph-name="uni2117" unicode="&#x2117;" horiz-adv-x="509" 
d="M516 499q1 -46 -17 -88t-48.5 -73t-72 -49t-86.5 -17q-47 0 -88.5 18t-72.5 48.5t-49 72t-18 88.5q0 46 18 87t49 71.5t72.5 48.5t88.5 18q46 0 87 -18t71.5 -48.5t48 -71.5t17.5 -87zM467 499q0 37 -14 69t-38 55.5t-56 37t-68 13.5q-37 0 -69.5 -13.5t-56.5 -37
t-37.5 -55.5t-13.5 -69t13.5 -69.5t37 -56t56 -37t70.5 -13.5q36 0 68 13.5t56 37.5t38 56t14 69zM375 539q0 -6 -1 -8q-2 -30 -22.5 -45.5t-56.5 -13.5h-21v-77h-47v204h47h21q36 2 56.5 -12t22.5 -42q1 -1 1 -6zM324 534v4q-1 16 -29 16h-21v-39h35v-1q13 3 15 17v3z" />
    <glyph glyph-name="trademark" unicode="&#x2122;" horiz-adv-x="617" 
d="M99 737h222l-7 -58h-84l-33 -227h-54l33 227h-84zM355 737h54l64 -219l126 219h54l-40 -285h-54l22 156l-89 -156h-58l-43 153l-22 -153h-54z" />
    <glyph glyph-name="estimated" unicode="&#x212e;" horiz-adv-x="746" 
d="M389 710q73 0 133 -22.5t103.5 -65.5t67.5 -103.5t24 -137.5q1 -5 1 -27v-15.5t-1 -10.5h-558v-180q39 -57 101 -87t141 -30q78 0 142 36.5t96 96.5l38 -14q-37 -75 -110.5 -117t-167.5 -42q-75 0 -137.5 26t-107.5 73t-70 112t-25 144q0 80 24.5 147t68 115t104.5 75
t133 27zM159 364h459v200q-37 51 -96 78.5t-129 27.5q-75 0 -135 -33t-99 -91v-182z" />
    <glyph glyph-name="oneeighth" unicode="&#x215b;" horiz-adv-x="844" 
d="M34 676l80 34v-84l-80 -30v80zM195 710v-367h-81v367h81zM64 0l541 710h122l-541 -710h-122zM532 101q0 27 13.5 51.5t36.5 38.5q-39 29 -39 74q0 20 9 39t25 34t38.5 24t49.5 9q26 0 47.5 -8t37 -22t24.5 -32t10 -38q2 -23 -7 -44t-30 -36q21 -14 35 -38t14 -50
q0 -22 -9.5 -42t-27 -36t-41.5 -25.5t-54 -9.5q-29 0 -53 9.5t-41 25t-27 35.5t-11 41zM712 261q1 14 -12 24t-36 10t-35 -9.5t-12 -23.5q-1 -15 11.5 -26t35.5 -11q22 0 35 10.5t13 25.5zM719 110q0 17 -14.5 29.5t-40.5 12.5q-27 0 -41.5 -13t-13.5 -31q0 -18 14.5 -30.5
t40.5 -12.5t40.5 13t14.5 32z" />
    <glyph glyph-name="threeeighths" unicode="&#x215c;" horiz-adv-x="896" 
d="M308 467q0 -55 -38 -93q-37 -37 -92 -37q-28 0 -53 10.5t-42.5 29t-26.5 43.5t-7 54h79l-1 -9q0 -22 14.5 -35.5t36.5 -13.5q21 0 35.5 14.5t14.5 36.5q0 27 -17 41q-13 12 -33 12q-17 0 -34 -9l-29 62l3 3l51 53h-106v81h230v-68l-57 -58q29 -14 47 -38q25 -34 25 -79z
M115 0l541 710h122l-541 -710h-122zM584 101q0 27 13.5 51.5t36.5 38.5q-39 29 -39 74q0 20 9 39t25 34t38.5 24t49.5 9q26 0 47.5 -8t37 -22t24.5 -32t10 -38q2 -23 -7 -44t-30 -36q21 -14 35 -38t14 -50q0 -22 -9.5 -42t-27 -36t-41.5 -25.5t-54 -9.5q-29 0 -53 9.5
t-41 25t-27 35.5t-11 41zM764 261q1 14 -12 24t-36 10t-35 -9.5t-12 -23.5q-1 -15 11.5 -26t35.5 -11q22 0 35 10.5t13 25.5zM771 110q0 17 -14.5 29.5t-40.5 12.5q-27 0 -41.5 -13t-13.5 -31q0 -18 14.5 -30.5t40.5 -12.5t40.5 13t14.5 32z" />
    <glyph glyph-name="fiveeighths" unicode="&#x215d;" horiz-adv-x="903" 
d="M129 480q-1 -3 -1 -10q0 -22 15 -36.5t38 -14.5q24 0 39.5 16t15.5 39q0 27 -16 42.5t-43 15.5q-14 0 -27.5 -7t-17.5 -16l-73 19l46 182h198v-80h-136l-8 -30q9 4 28 4q57 0 92.5 -37t35.5 -97q0 -27 -10.5 -50.5t-28.5 -41t-42.5 -28t-52.5 -10.5q-29 0 -54 11t-43 30
t-27.5 44.5t-8.5 54.5h81zM123 0l541 710h122l-541 -710h-122zM591 101q0 27 13.5 51.5t36.5 38.5q-39 29 -39 74q0 20 9 39t25 34t38.5 24t49.5 9q26 0 47.5 -8t37 -22t24.5 -32t10 -38q2 -23 -7 -44t-30 -36q21 -14 35 -38t14 -50q0 -22 -9.5 -42t-27 -36t-41.5 -25.5
t-54 -9.5q-29 0 -53 9.5t-41 25t-27 35.5t-11 41zM771 261q1 14 -12 24t-36 10t-35 -9.5t-12 -23.5q-1 -15 11.5 -26t35.5 -11q22 0 35 10.5t13 25.5zM778 110q0 17 -14.5 29.5t-40.5 12.5q-27 0 -41.5 -13t-13.5 -31q0 -18 14.5 -30.5t40.5 -12.5t40.5 13t14.5 32z" />
    <glyph glyph-name="seveneighths" unicode="&#x215e;" horiz-adv-x="855" 
d="M318 710v-84q-63 -45 -92 -104t-33 -98q-2 -20 -3 -40t-1 -42h-85q0 38 3 75q5 38 27 98q24 60 75 111h-161v84h270zM74 0l541 710h122l-541 -710h-122zM543 101q0 27 13.5 51.5t36.5 38.5q-39 29 -39 74q0 20 9 39t25 34t38.5 24t49.5 9q26 0 47.5 -8t37 -22t24.5 -32
t10 -38q2 -23 -7 -44t-30 -36q21 -14 35 -38t14 -50q0 -22 -9.5 -42t-27 -36t-41.5 -25.5t-54 -9.5q-29 0 -53 9.5t-41 25t-27 35.5t-11 41zM723 261q1 14 -12 24t-36 10t-35 -9.5t-12 -23.5q-1 -15 11.5 -26t35.5 -11q22 0 35 10.5t13 25.5zM730 110q0 17 -14.5 29.5
t-40.5 12.5q-27 0 -41.5 -13t-13.5 -31q0 -18 14.5 -30.5t40.5 -12.5t40.5 13t14.5 32z" />
    <glyph glyph-name="arrowleft" unicode="&#x2190;" horiz-adv-x="1005" 
d="M66 294l370 370l75 -75l-240 -241h673v-106h-673l240 -239l-75 -76z" />
    <glyph glyph-name="arrowup" unicode="&#x2191;" horiz-adv-x="858" 
d="M462 852l369 -368l-76 -75l-240 239v-648h-106v648l-240 -239l-76 75z" />
    <glyph glyph-name="arrowright" unicode="&#x2192;" horiz-adv-x="1005" 
d="M952 307l-368 -367l-75 75l239 240h-673v105l673 1l-239 240l75 74z" />
    <glyph glyph-name="arrowdown" unicode="&#x2193;" horiz-adv-x="856" 
d="M428 -121l-368 368l76 77l239 -240v677h107v-678l240 241l74 -77z" />
    <glyph glyph-name="arrowboth" unicode="&#x2194;" horiz-adv-x="1157" 
d="M805 134l98 92h-405h-235l99 -93v-150l-297 297l296 295v-152l-97 -91l234 1v1l93 -1l88 1v-1l223 -1l-97 91v152l297 -295l-297 -297v151z" />
    <glyph glyph-name="arrowupdn" unicode="&#x2195;" horiz-adv-x="774" 
d="M543 107h151l-297 -297l-295 297h152l91 -97l-1 234h-1l1 90l-1 90h1l1 224l-91 -97h-152l295 296l297 -296h-151l-92 98v-405v-235z" />
    <glyph glyph-name="uni2196" unicode="&#x2196;" horiz-adv-x="928" 
d="M603 634h-255l462 -489l-108 -71l-393 413l-4 -306l-171 72v438l469 -1v-56z" />
    <glyph glyph-name="uni2197" unicode="&#x2197;" horiz-adv-x="837" 
d="M773 737v-521h-107v339l-555 -555l-76 75l555 555h-338v107h521z" />
    <glyph glyph-name="uni2198" unicode="&#x2198;" horiz-adv-x="949" 
d="M854 0l-520 1v107h338l-554 554l75 75l555 -554v339h106v-522z" />
    <glyph glyph-name="uni2199" unicode="&#x2199;" horiz-adv-x="837" 
d="M97 0l1 520h107v-338l556 556l75 -74l-556 -558h340l-1 -106h-522z" />
    <glyph glyph-name="partialdiff" unicode="&#x2202;" horiz-adv-x="671" 
d="M633 367q1 -94 -25 -165.5t-70.5 -119t-102 -71.5t-118.5 -24q-51 0 -99 16.5t-85 48.5t-59.5 79.5t-22.5 109.5t22.5 115t61.5 91.5t92 60.5t115 22q37 0 75.5 -8.5t61.5 -27.5q-17 60 -55.5 123t-99.5 120h182q64 -76 95.5 -173t31.5 -197zM493 281q0 30 -11 55.5
t-30 44t-45.5 29t-58.5 10.5q-36 0 -66.5 -14t-53 -37.5t-35 -53.5t-12.5 -63q0 -61 40 -101q41 -39 103 -39q36 0 67 14t53.5 37t35.5 54t13 64z" />
    <glyph glyph-name="emptyset" unicode="&#x2205;" horiz-adv-x="876" 
d="M771 555q37 -75 37 -167q2 -87 -30 -161.5t-86 -129.5t-124.5 -86t-147.5 -29q-70 0 -131 25.5t-106 73.5l-96 -77l-54 69l100 81q-37 75 -37 166q-2 84 30 158.5t86.5 129.5t126 86.5t148.5 29.5q70 0 130.5 -24.5t103.5 -72.5l98 79l53 -70zM616 542q-53 53 -140 53
q-53 1 -98.5 -20t-78 -58.5t-51 -87t-17.5 -105.5q0 -40 12 -81zM288 165q55 -55 141 -55q55 0 99.5 21.5t76.5 58.5t49.5 86.5t17.5 106.5q0 46 -12 82z" />
    <glyph glyph-name="uni2206" unicode="&#x2206;" horiz-adv-x="731" 
d="M640 120v-120h-595v120l232 590h131zM175 120h334l-167 420z" />
    <glyph glyph-name="product" unicode="&#x220f;" horiz-adv-x="698" 
d="M552 208q-1 -7 -1.5 -11.5t-0.5 -6.5q0 -28 15.5 -42t41.5 -14q13 0 30 4l-19 -134q-30 -6 -59 -6q-69 0 -113 35.5t-44 108.5q0 17 3 36l45 320h-137l-70 -498h-143l70 498h-91l21 143h233h279h95l-20 -143h-95z" />
    <glyph glyph-name="summation" unicode="&#x2211;" horiz-adv-x="600" 
d="M45 150l249 223l-188 215l22 149h482l-21 -150h-296l176 -214l-240 -223h299l-21 -150h-483z" />
    <glyph glyph-name="minus" unicode="&#x2212;" horiz-adv-x="541" 
d="M472 380l-16 -120h-385l17 120h384z" />
    <glyph glyph-name="radical" unicode="&#x221a;" horiz-adv-x="751" 
d="M778 736v-129h-167l-242 -607h-130l-185 497h130l122 -328l222 567h250z" />
    <glyph glyph-name="infinity" unicode="&#x221e;" horiz-adv-x="953" 
d="M280 503q64 0 114 -26.5t89 -89.5q39 63 88.5 89.5t113.5 26.5q44 0 82.5 -16.5t67.5 -45.5t45.5 -67.5t16.5 -83.5q0 -44 -16.5 -83t-45.5 -68t-67.5 -45.5t-82.5 -16.5q-64 0 -113.5 27t-88.5 88q-39 -61 -89 -88t-114 -27q-44 0 -82.5 16.5t-67.5 45.5t-45.5 68
t-16.5 83q0 45 16.5 83.5t45.5 67.5t67.5 45.5t82.5 16.5zM280 206q34 0 66 19.5t50 64.5q-18 45 -50 64t-66 19t-58 -23.5t-24 -59.5t24 -60t58 -24zM685 206q34 0 58.5 24t24.5 60t-24.5 59.5t-58.5 23.5t-66 -19t-50 -64q18 -45 50 -64.5t66 -19.5z" />
    <glyph glyph-name="integral" unicode="&#x222b;" horiz-adv-x="465" 
d="M22 117h62q29 0 46 16.5t23 55.5l50 360q13 96 60 148.5t129 52.5h104l-19 -130h-62q-29 0 -46 -16.5t-22 -54.5l-50 -360q-14 -96 -62 -148.5t-130 -52.5h-102z" />
    <glyph glyph-name="approxequal" unicode="&#x2248;" horiz-adv-x="476" 
d="M456 395q-3 -55 -31 -90t-79 -35q-31 0 -56.5 11t-59.5 33q-23 15 -38 22.5t-30 7.5q-18 0 -30.5 -10.5t-14.5 -29.5h-68q3 55 30.5 88t75.5 33q28 0 52 -10.5t59 -31.5q24 -16 41.5 -24t34.5 -8t29.5 10.5t16.5 33.5h68zM431 220q-4 -60 -33.5 -92t-80.5 -32
q-32 0 -56.5 11t-54.5 32q-21 15 -36.5 23t-31.5 8q-36 0 -45 -41h-68q0 54 32.5 88t83.5 34q30 0 53.5 -11t53.5 -32q25 -17 39 -24t31 -7q18 0 30.5 10t13.5 33h69z" />
    <glyph glyph-name="notequal" unicode="&#x2260;" horiz-adv-x="603" 
d="M410 401l-67 -123h212l-16 -120h-261l-53 -96h-133l53 96h-106l17 120h154l67 123h-204l16 120h253l61 110h133l-60 -110h113l-17 -120h-162z" />
    <glyph glyph-name="lessequal" unicode="&#x2264;" horiz-adv-x="588" 
d="M79 493l493 158l-22 -157l-250 -77l228 -77l-21 -156l-449 158zM32 156h471l-22 -156h-471z" />
    <glyph glyph-name="greaterequal" unicode="&#x2265;" horiz-adv-x="560" 
d="M67 305l269 85l-245 85l18 132l434 -153l-18 -129l-476 -154zM43 133h455l-19 -133h-455z" />
    <glyph glyph-name="filledbox" unicode="&#x25a0;" horiz-adv-x="894" 
d="M817 710v-710h-710v710h710z" />
    <glyph glyph-name="uni25A1" unicode="&#x25a1;" horiz-adv-x="894" 
d="M817 710v-710h-710v710h710zM212 105h501v500h-501v-500z" />
    <glyph glyph-name="triagup" unicode="&#x25b2;" horiz-adv-x="895" 
d="M836 0h-846l423 710z" />
    <glyph glyph-name="uni25B3" unicode="&#x25b3;" horiz-adv-x="966" 
d="M56 4l424 710l422 -710h-846zM479 529l-260 -436h521z" />
    <glyph glyph-name="lozenge" unicode="&#x25ca;" horiz-adv-x="656" 
d="M597 355l-200 -355h-135l-200 355l200 355h135zM454 355l-124 230l-125 -230l125 -230z" />
    <glyph glyph-name="circle" unicode="&#x25cb;" horiz-adv-x="896" 
d="M62 333q-2 78 29 149t84.5 124t124.5 84.5t149 29.5q78 2 149 -29.5t124.5 -84.5t85 -124t29.5 -149q2 -78 -29 -149t-84.5 -124.5t-125 -84.5t-149.5 -29q-78 -2 -149 29t-124.5 84.5t-84.5 124.5t-29 149zM742 333q1 59 -22.5 112.5t-64 94t-94 64t-112.5 22.5
q-59 2 -112.5 -22t-93.5 -64.5t-63.5 -94t-22.5 -112.5q-1 -59 22.5 -112.5t63.5 -94t93.5 -64t112.5 -22.5q59 -1 112.5 22.5t94 64t64.5 94t22 112.5z" />
    <glyph glyph-name="uni25CF" unicode="&#x25cf;" horiz-adv-x="896" 
d="M62 333q-2 78 29 149t84.5 124t124.5 84.5t149 29.5q78 2 149 -29.5t124.5 -84.5t85 -124t29.5 -149q2 -78 -29 -149t-84.5 -124.5t-125 -84.5t-149.5 -29q-78 -2 -149 29t-124.5 84.5t-84.5 124.5t-29 149z" />
    <glyph glyph-name="uni262E" unicode="&#x262e;" horiz-adv-x="871" 
d="M837 333q2 -78 -29 -149t-84.5 -124.5t-125 -84.5t-149.5 -29q-78 -2 -149 29t-124.5 84.5t-84.5 124.5t-29 149q-2 78 29 149t84.5 124t124.5 84.5t149 29.5q78 2 149 -29.5t124.5 -84.5t85 -124t29.5 -149zM157 333q0 -59 22 -113l228 158v244q-52 -7 -98 -33
t-79.5 -64.5t-53 -88t-19.5 -103.5zM492 378l227 -158q23 55 23 113q1 53 -18.5 102.5t-54 88.5t-80.5 65t-97 33v-244zM407 274l-183 -127q34 -42 81.5 -69t101.5 -34v230zM492 274v-230q54 7 101.5 34t81.5 69z" />
    <glyph glyph-name="smileface" unicode="&#x263a;" horiz-adv-x="867" 
d="M58 334q-1 77 30 147.5t84.5 124t125.5 84.5t151 29q78 2 148 -29t123.5 -84.5t84 -124t28.5 -147.5q2 -79 -29 -150.5t-83.5 -125t-123 -84.5t-148.5 -29q-79 -2 -151 28.5t-125.5 84t-84.5 125t-30 151.5zM750 334q1 62 -23 117t-65.5 96.5t-96.5 65t-116 22.5
q-63 1 -118.5 -22.5t-97.5 -64.5t-65.5 -96t-22.5 -118q-1 -63 22.5 -118.5t64.5 -96.5t97 -64t120 -22q61 -1 116 22.5t96.5 65t65.5 96.5t23 117zM268 423q0 24 18.5 42.5t43.5 18.5q24 0 41.5 -18.5t17.5 -42.5t-17.5 -43t-41.5 -19q-25 0 -43.5 19t-18.5 43zM512 419
q0 25 17.5 43.5t43.5 18.5q25 0 42.5 -18.5t17.5 -43.5q0 -24 -17.5 -42.5t-42.5 -18.5q-26 0 -43.5 18t-17.5 43zM356 301q-3 -21 3.5 -40t19 -33t31 -22.5t39.5 -8.5t39.5 8t31 22.5t19.5 33.5t5 40h76q2 -37 -11 -69.5t-36.5 -57t-55.5 -38.5t-68 -14t-68 14.5t-55 39
t-35.5 57t-10.5 68.5h76z" />
    <glyph glyph-name="uni2713" unicode="&#x2713;" horiz-adv-x="652" 
d="M120 326l133 -142l301 364l89 -77l-387 -464l-216 234z" />
    <glyph glyph-name="uni2776" unicode="&#x2776;" horiz-adv-x="812" 
d="M50 348q-1 72 27 137t77.5 114t114.5 78t137 27q72 2 137 -27t114 -78t78 -114t27 -137q2 -72 -27 -137.5t-78 -115t-114 -78t-137 -26.5q-72 -2 -137.5 26.5t-114.5 78t-77 115t-27 137.5zM454 553h-72l-77 -40v-76l71 34v-315h78v397z" />
    <glyph glyph-name="uni2777" unicode="&#x2777;" horiz-adv-x="812" 
d="M50 348q-1 72 27.5 137t77.5 114t114 78t136 27q72 2 137.5 -27t114.5 -78t78 -114t27 -137q2 -72 -27 -137.5t-78 -115t-114 -78t-137 -26.5q-72 -2 -137.5 26.5t-114.5 78t-77 115t-27 137.5zM339 423q7 27 26 43t43 16q26 0 44 -14.5t20 -38.5q1 -21 -7.5 -37
t-27.5 -32q-13 -10 -35 -23.5t-54 -30.5q-35 -20 -55.5 -49.5t-21.5 -64.5l-1 -36h275v76h-173q3 6 10 10.5t9 5.5l43 26q41 22 58 36q30 23 44 50.5t14 63.5q0 30 -10.5 54.5t-29 42.5t-44.5 28t-56 10q-57 0 -96 -32t-49 -86z" />
    <glyph glyph-name="uni2778" unicode="&#x2778;" horiz-adv-x="812" 
d="M50 348q-1 72 27 137t77.5 114t114.5 78t137 27q72 2 137 -27t114 -78t78 -114t27 -137q2 -72 -27 -137.5t-78 -115t-114 -78t-137 -26.5q-72 -2 -137.5 26.5t-114.5 78t-77 115t-27 137.5zM540 440q0 54 -36 86t-96 32q-57 0 -93.5 -31.5t-44.5 -86.5l72 -19
q2 26 19.5 43t46.5 17q23 0 37 -11.5t14 -32.5q0 -17 -13 -29t-36 -14q-5 -1 -27 -1v-72q3 1 13 1q11 0 14 -1q27 -2 44 -14t17 -34q0 -23 -16.5 -37t-42.5 -14q-30 0 -50 16.5t-27 47.5l-71 -18q5 -54 44.5 -88.5t103.5 -34.5q60 0 100 33q41 35 41 87q0 29 -13 55.5
t-37 39.5q37 25 37 80z" />
    <glyph glyph-name="uni2779" unicode="&#x2779;" horiz-adv-x="812" 
d="M50 348q-1 72 27 137t77.5 114t114.5 78t137 27q72 2 137 -27t114 -78t78 -114t27 -137q2 -72 -27 -137.5t-78 -115t-114 -78t-137 -26.5q-72 -2 -137.5 26.5t-114.5 78t-77 115t-27 137.5zM485 156v71h60v76h-60v250h-75l-180 -250v-76h176v-71h79zM406 422v-119h-90z
" />
    <glyph glyph-name="uni277A" unicode="&#x277a;" horiz-adv-x="812" 
d="M50 348q-1 72 27 137t77.5 114t114.5 78t137 27q72 2 137 -27t114 -78t78 -114t27 -137q2 -72 -27 -137.5t-78 -115t-114 -78t-137 -26.5q-72 -2 -137.5 26.5t-114.5 78t-77 115t-27 137.5zM364 470h156v78h-218l-38 -224l68 -10q9 17 27 27.5t39 10.5q30 0 48.5 -18.5
t18.5 -48.5t-18 -48.5t-47 -18.5q-60 0 -69 63l-75 -19q7 -57 45.5 -89.5t96.5 -32.5q63 0 106 41q42 42 42 104q0 30 -10.5 56.5t-29 46t-43.5 31t-54 11.5q-31 0 -54 -14z" />
    <glyph glyph-name="uni277B" unicode="&#x277b;" horiz-adv-x="812" 
d="M50 348q-1 72 27.5 137t77.5 114t114 78t136 27q72 2 137.5 -27t114.5 -78t78 -114t27 -137q2 -72 -27 -137.5t-78 -115t-114 -78t-137 -26.5q-72 -2 -137.5 26.5t-114.5 78t-77 115t-27 137.5zM402 481q55 0 75 -41l73 25q-18 45 -56 69t-87 24q-79 0 -122.5 -54
t-43.5 -153q0 -97 41 -152.5t111 -55.5q32 0 59.5 11.5t47.5 31.5t32 48t12 61q0 59 -41 98q-40 40 -102 40q-53 0 -80 -30q2 37 25 57.5t56 20.5zM328 289q0 29 19.5 48t48.5 19t48 -19t19 -48q0 -31 -18.5 -50t-48.5 -19t-49 19t-19 50z" />
    <glyph glyph-name="uni277C" unicode="&#x277c;" horiz-adv-x="812" 
d="M50 348q-1 72 27 137t77.5 114t114.5 78t137 27q72 2 137 -27t114 -78t78 -114t27 -137q2 -72 -27 -137.5t-78 -115t-114 -78t-137 -26.5q-72 -2 -137.5 26.5t-114.5 78t-77 115t-27 137.5zM406 156q16 187 137 312v64h-256v-72h159q-54 -72 -83 -145.5t-37 -158.5h80z
" />
    <glyph glyph-name="uni277D" unicode="&#x277d;" horiz-adv-x="812" 
d="M50 348q-1 72 27 137t77.5 114t114.5 78t137 27q72 2 137 -27t114 -78t78 -114t27 -137q2 -72 -27 -137.5t-78 -115t-114 -78t-137 -26.5q-72 -2 -137.5 26.5t-114.5 78t-77 115t-27 137.5zM553 277q0 31 -13.5 58t-35.5 40q13 13 21 32t8 39q0 51 -35.5 81.5t-93.5 30.5
q-60 0 -95.5 -31t-35.5 -82q0 -18 8 -37t20 -33q-22 -13 -35 -41t-13 -59q0 -60 41 -95t110 -35t109 36t40 96zM354 442q0 17 14 28t36 11t35.5 -11t13.5 -28t-13.5 -27.5t-35.5 -10.5t-36 10.5t-14 27.5zM334 279q0 26 19 42t51 16q31 0 50.5 -16t19.5 -42q0 -25 -19.5 -41
t-50.5 -16t-50.5 15.5t-19.5 41.5z" />
    <glyph glyph-name="uni277E" unicode="&#x277e;" horiz-adv-x="812" 
d="M50 348q-1 72 27 137t77.5 114t114.5 78t137 27q72 2 137 -27t114 -78t78 -114t27 -137q2 -72 -27 -137.5t-78 -115t-114 -78t-137 -26.5q-72 -2 -137.5 26.5t-114.5 78t-77 115t-27 137.5zM403 221q-56 0 -76 41l-75 -26q18 -42 57 -66.5t90 -24.5q75 0 117 50.5
t42 147.5v17.5t-1 12.5q-5 87 -44.5 136t-109.5 49q-32 0 -59 -11t-46.5 -31t-30.5 -47t-11 -59q0 -60 40 -100t100 -40q50 0 84 31q-2 -35 -22 -57t-55 -23zM469 413q0 -30 -19.5 -48.5t-49.5 -18.5q-28 0 -46.5 18.5t-18.5 47.5q0 31 19 50t50 19q28 0 46.5 -19t18.5 -49z
" />
    <glyph glyph-name="uni2780" unicode="&#x2780;" horiz-adv-x="875" 
d="M825 333q2 -78 -29 -149t-84.5 -124.5t-125 -84.5t-149.5 -29q-78 -2 -149 29t-124.5 84.5t-84.5 124.5t-29 149q-2 78 29 149t84.5 124t124.5 84.5t149 29.5q78 2 149 -29.5t124.5 -84.5t85 -124t29.5 -149zM730 333q2 59 -22 112.5t-64.5 94t-94 64t-112.5 22.5
q-59 2 -112.5 -22t-93.5 -64.5t-63.5 -94t-22.5 -112.5q-1 -59 22.5 -112.5t63.5 -94t93.5 -64t112.5 -22.5q59 -1 112.5 22.5t94 64t64 94t22.5 112.5zM494 510l1 -367h-82v250h-6h-65v81h48q8 0 15 4t8 15v17h81z" />
    <glyph glyph-name="uni2781" unicode="&#x2781;" horiz-adv-x="875" 
d="M825 333q2 -78 -29 -149t-84.5 -124.5t-125 -84.5t-149.5 -29q-78 -2 -149 29t-124.5 84.5t-84.5 124.5t-29 149q-2 78 29 149t84.5 124t124.5 84.5t149 29.5q78 2 149 -29.5t124.5 -84.5t85 -124t29.5 -149zM730 333q2 59 -22 112.5t-64.5 94t-94 64t-112.5 22.5
q-59 2 -112.5 -22t-93.5 -64.5t-63.5 -94t-22.5 -112.5q-1 -59 22.5 -112.5t63.5 -94t93.5 -64t112.5 -22.5q59 -1 112.5 22.5t94 64t64 94t22.5 112.5zM485 265q-19 -14 -29.5 -22t-14.5 -10l128 1v-80l-260 -1q-1 45 11.5 72t45.5 51l108 77q18 15 22 31q1 3 1 14
q0 23 -16.5 35.5t-43.5 9.5q-37 -6 -37 -45l1 -11h-81q-5 56 29 94q35 38 88 42v1h11h12v-1q51 -4 84.5 -40t33.5 -90q-1 -24 -6.5 -39.5t-16.5 -29t-28 -27t-42 -32.5z" />
    <glyph glyph-name="uni2782" unicode="&#x2782;" horiz-adv-x="875" 
d="M825 333q2 -78 -29 -149t-84.5 -124.5t-125 -84.5t-149.5 -29q-78 -2 -149 29t-124.5 84.5t-84.5 124.5t-29 149q-2 78 29 149t84.5 124t124.5 84.5t149 29.5q78 2 149 -29.5t124.5 -84.5t85 -124t29.5 -149zM730 333q2 59 -22 112.5t-64.5 94t-94 64t-112.5 22.5
q-59 2 -112.5 -22t-93.5 -64.5t-63.5 -94t-22.5 -112.5q-1 -59 22.5 -112.5t63.5 -94t93.5 -64t112.5 -22.5q59 -1 112.5 22.5t94 64t64 94t22.5 112.5zM544 341q25 -34 25 -79q0 -55 -38 -93q-37 -37 -92 -37q-28 0 -53 10.5t-42.5 29t-26.5 43.5t-7 54h79l-1 -9
q0 -22 14 -35t37 -13q21 0 35.5 14t14.5 36q0 27 -17 42q-14 11 -34 11q-16 0 -34 -9l-28 62q2 2 2 3l52 54h-106v81h229v-68l-57 -59q31 -13 48 -38z" />
    <glyph glyph-name="uni2783" unicode="&#x2783;" horiz-adv-x="875" 
d="M825 333q2 -78 -29 -149t-84.5 -124.5t-125 -84.5t-149.5 -29q-78 -2 -149 29t-124.5 84.5t-84.5 124.5t-29 149q-2 78 29 149t84.5 124t124.5 84.5t149 29.5q78 2 149 -29.5t124.5 -84.5t85 -124t29.5 -149zM730 333q2 59 -22 112.5t-64.5 94t-94 64t-112.5 22.5
q-59 2 -112.5 -22t-93.5 -64.5t-63.5 -94t-22.5 -112.5q-1 -59 22.5 -112.5t63.5 -94t93.5 -64t112.5 -22.5q59 -1 112.5 22.5t94 64t64 94t22.5 112.5zM522 298h44v-79h-44v-65h-81v65l-168 1v79l168 223h81v-224zM441 298v95l-70 -94z" />
    <glyph glyph-name="uni2784" unicode="&#x2784;" horiz-adv-x="875" 
d="M50 333q-2 78 29 149t84.5 124t124.5 84.5t149 29.5q78 2 149 -29.5t124.5 -84.5t85 -124t29.5 -149q2 -78 -29 -149t-84.5 -124.5t-125 -84.5t-149.5 -29q-78 -2 -149 29t-124.5 84.5t-84.5 124.5t-29 149zM730 333q2 59 -22 112.5t-64.5 94t-94 64t-112.5 22.5
q-59 2 -112.5 -22t-93.5 -64.5t-63.5 -94t-22.5 -112.5q-1 -59 22.5 -112.5t63.5 -94t93.5 -64t112.5 -22.5q59 -1 112.5 22.5t94 64t64 94t22.5 112.5zM379 280l-1 -9q0 -22 15 -37t38 -15q24 0 39.5 16t15.5 40q0 26 -15.5 41.5t-42.5 15.5q-15 0 -28 -7t-17 -16l-73 19
l45 182h199v-80h-137l-8 -30q11 4 29 4q57 0 92.5 -37t35.5 -97q0 -27 -10.5 -50.5t-29 -41t-43 -28t-52.5 -10.5q-29 0 -54 11t-43 30t-27 44.5t-8 54.5h80z" />
    <glyph glyph-name="uni2785" unicode="&#x2785;" horiz-adv-x="875" 
d="M50 333q-2 78 29 149t84.5 124t124.5 84.5t149 29.5q78 2 149 -29.5t124.5 -84.5t85 -124t29.5 -149q2 -78 -29 -149t-84.5 -124.5t-125 -84.5t-149.5 -29q-78 -2 -149 29t-124.5 84.5t-84.5 124.5t-29 149zM730 333q2 59 -22 112.5t-64.5 94t-94 64t-112.5 22.5
q-59 2 -112.5 -22t-93.5 -64.5t-63.5 -94t-22.5 -112.5q-1 -59 22.5 -112.5t63.5 -94t93.5 -64t112.5 -22.5q59 -1 112.5 22.5t94 64t64 94t22.5 112.5zM433 516q85 0 129 -68l-59 -38q-21 32 -64 32q-24 0 -46.5 -17t-28.5 -48q25 34 78 34q55 0 86 -39q33 -39 33 -92
q0 -27 -9.5 -52t-27 -44t-42.5 -30.5t-57 -11.5q-68 2 -105 52q-36 53 -36 126q0 52 20 104q17 39 50.5 65t78.5 27zM423 215q27 0 44 19.5t15 51.5q-4 22 -19.5 36t-36.5 14q-21 1 -37.5 -14.5t-18.5 -39.5q-1 -30 13.5 -48.5t39.5 -18.5z" />
    <glyph glyph-name="uni2786" unicode="&#x2786;" horiz-adv-x="875" 
d="M825 333q2 -78 -29 -149t-84.5 -124.5t-125 -84.5t-149.5 -29q-78 -2 -149 29t-124.5 84.5t-84.5 124.5t-29 149q-2 78 29 149t84.5 124t124.5 84.5t149 29.5q78 2 149 -29.5t124.5 -84.5t85 -124t29.5 -149zM730 333q2 59 -22 112.5t-64.5 94t-94 64t-112.5 22.5
q-59 2 -112.5 -22t-93.5 -64.5t-63.5 -94t-22.5 -112.5q-1 -59 22.5 -112.5t63.5 -94t93.5 -64t112.5 -22.5q59 -1 112.5 22.5t94 64t64 94t22.5 112.5zM303 510h269v-84q-63 -45 -92 -104t-33 -98q-2 -20 -3 -40t-1 -42h-85q0 38 3 75q5 38 27 98q24 60 75 111h-160v84z
" />
    <glyph glyph-name="uni2787" unicode="&#x2787;" horiz-adv-x="875" 
d="M50 333q-2 78 29 149t84.5 124t124.5 84.5t149 29.5q78 2 149 -29.5t124.5 -84.5t85 -124t29.5 -149q2 -78 -29 -149t-84.5 -124.5t-125 -84.5t-149.5 -29q-78 -2 -149 29t-124.5 84.5t-84.5 124.5t-29 149zM730 333q2 59 -22 112.5t-64.5 94t-94 64t-112.5 22.5
q-59 2 -112.5 -22t-93.5 -64.5t-63.5 -94t-22.5 -112.5q-1 -59 22.5 -112.5t63.5 -94t93.5 -64t112.5 -22.5q59 -1 112.5 22.5t94 64t64 94t22.5 112.5zM302 255q0 26 13.5 50t35.5 38q-38 30 -38 73q0 21 9 40t24.5 33.5t38 23.5t49.5 9t49 -9t38 -24t24.5 -33.5t8.5 -38.5
q0 -45 -39 -74q22 -14 35.5 -37.5t13.5 -48.5q0 -22 -9.5 -43t-26.5 -36.5t-41 -25t-54 -9.5t-53.5 9.5t-40.5 25t-26.5 35.5t-10.5 42zM480 414q0 14 -13 24t-34 10q-22 0 -34 -10.5t-13 -24.5q0 -14 12.5 -24.5t34.5 -10.5q23 0 35.5 11t11.5 25zM487 261q0 18 -14 30.5
t-40 12.5t-40 -13t-14 -31q1 -17 15 -30t39 -13q26 0 40 13t14 31z" />
    <glyph glyph-name="uni2788" unicode="&#x2788;" horiz-adv-x="875" 
d="M50 333q-2 78 29 149t84.5 124t124.5 84.5t149 29.5q78 2 149 -29.5t124.5 -84.5t85 -124t29.5 -149q2 -78 -29 -149t-84.5 -124.5t-125 -84.5t-149.5 -29q-78 -2 -149 29t-124.5 84.5t-84.5 124.5t-29 149zM730 333q2 59 -22 112.5t-64.5 94t-94 64t-112.5 22.5
q-59 2 -112.5 -22t-93.5 -64.5t-63.5 -94t-22.5 -112.5q-1 -59 22.5 -112.5t63.5 -94t93.5 -64t112.5 -22.5q59 -1 112.5 22.5t94 64t64 94t22.5 112.5zM425 248q-22 0 -44 8.5t-39.5 24.5t-28 39.5t-10.5 53.5t10.5 55.5t28.5 44t42.5 29t52.5 10.5q51 0 87 -30.5t46 -84.5
q7 -32 7 -72q0 -41 -9.5 -75.5t-28 -59.5t-46 -39t-63.5 -14q-38 0 -71 18t-54 52l63 37q20 -30 58 -30q26 0 47.5 16.5t28.5 50.5q-11 -17 -33 -25.5t-44 -8.5zM439 441q-24 0 -42 -16.5t-18 -45.5q0 -30 17 -46t40 -16q24 0 40.5 16.5t17.5 44.5q-2 26 -16 43.5t-39 19.5z
" />
    <glyph glyph-name="DegarismLogo" horiz-adv-x="1528" 
d="M731 275h229v-267h-82l-10 80h-9q0 -3 -7 -18t-23.5 -30.5t-44.5 -28t-71 -11.5q-95 0 -155 64q-60 65 -60 189q0 65 19.5 113.5t52 80.5t75 48t88.5 16q37 0 73.5 -10.5t67 -32.5t52.5 -55t29 -78h-113q-10 36 -37.5 57.5t-69.5 21.5q-63 0 -94.5 -44.5t-31.5 -112.5
q0 -34 7.5 -63.5t23 -51t39 -33.5t54.5 -12q43 0 73 23t38 60h-113v95zM997 457q0 22 16 38t39 16t38.5 -15.5t15.5 -38.5t-16 -39t-38 -16t-38.5 16.5t-16.5 38.5zM1135 457q0 22 16 38t39 16t38.5 -15.5t15.5 -38.5t-16 -39t-38 -16t-38.5 16.5t-16.5 38.5zM1276 511h84
v-21h-30v-85h-25v85h-29v21zM1488 511v-106h-25v91l-15 -91h-35l-14 91v-91h-25v106h44l12 -88l14 88h44zM464 257q0 -124 -61 -186.5t-169 -62.5h-194v498h194q108 0 169 -62.5t61 -186.5zM354 257q0 96 -42 127q-40 31 -78 31h-66q-25 2 -42.5 12t-19.5 12l-8 -8
q3 -3 11.5 -11t18.5 -19q15 -13 18.5 -29t3.5 -27v-177q0 -25 -10 -39.5t-12 -16.5l-30 -30l8 -7q3 3 22.5 13.5t47.5 10.5h58q39 0 79 30q41 32 41 128zM1210 345q18 0 34 -3v-89q-4 1 -18 1q-49 0 -76.5 -25.5t-27.5 -80.5v-140h-108v257q0 49 -7 77h109q2 -10 2.5 -20
t1.5 -20q22 43 90 43z" />
    <glyph glyph-name="G.ss01" horiz-adv-x="773" 
d="M761 404l-14 -101q-9 -67 -38 -125t-75.5 -100t-110.5 -66t-143 -24q-68 0 -128 21t-105 63t-71.5 105t-26.5 147q-1 92 29 170t84 135t128.5 89t163.5 31q118 0 197.5 -54.5t106.5 -150.5l-142 -52q-17 57 -61 87t-107 30q-54 0 -99.5 -19.5t-79 -55.5t-52 -87
t-18.5 -114q0 -103 48 -154.5t136 -51.5q35 0 67 9.5t58.5 27.5t46 45t28.5 63h-193l18 132h353z" />
    <glyph glyph-name="ampersand.ss02" horiz-adv-x="714" 
d="M679 0q-35 0 -61 2t-45.5 7.5t-34.5 15.5t-27 25q-88 -61 -209 -61q-59 0 -106.5 14.5t-80.5 41t-51 64t-18 82.5q0 43 13.5 79t38 66.5t60 57t79.5 50.5q-22 34 -32.5 63.5t-10.5 62.5q0 39 15 72t41 57t62.5 37.5t78.5 13.5q73 0 114.5 -38t41.5 -104q0 -47 -28.5 -91
t-103.5 -96l110 -160q16 42 19 93h125q-12 -121 -65 -207q14 -15 32 -18t60 -3zM325 584q0 -14 6.5 -31t24.5 -46q40 24 55.5 44.5t15.5 40.5q0 21 -13.5 32.5t-32.5 11.5q-24 0 -40 -15t-16 -37zM309 112q73 0 131 40l-139 198q-60 -36 -89.5 -67t-29.5 -74
q0 -48 36.5 -72.5t90.5 -24.5z" />
    <glyph glyph-name="bracketleftsuperior" horiz-adv-x="198" 
d="M193 -163h-152v669h152v-71h-76v-527h76v-71z" />
    <glyph glyph-name="bracketrightsuperior" horiz-adv-x="193" 
d="M76 -92v527h-76v71h152v-669h-152v71h76z" />
    <glyph glyph-name="eight.dnom" horiz-adv-x="359" 
d="M47 101q0 27 13.5 51.5t36.5 38.5q-39 29 -39 74q0 20 9 39t25 34t38.5 24t49.5 9q26 0 47.5 -8t37 -22t24.5 -32t10 -38q2 -23 -7 -44t-30 -36q21 -14 35 -38t14 -50q0 -22 -9.5 -42t-27 -36t-41.5 -25.5t-54 -9.5q-29 0 -53 9.5t-41 25t-27 35.5t-11 41zM227 261
q1 14 -12 24t-36 10t-35 -9.5t-12 -23.5q-1 -15 11.5 -26t35.5 -11q22 0 35 10.5t13 25.5zM234 110q0 17 -14.5 29.5t-40.5 12.5q-27 0 -41.5 -13t-13.5 -31q0 -18 14.5 -30.5t40.5 -12.5t40.5 13t14.5 32z" />
    <glyph glyph-name="eight.numr" horiz-adv-x="358" 
d="M48 449q0 25 14 48.5t36 38.5q-19 14 -29 34t-10 40t8.5 39t24.5 33.5t38.5 23.5t49.5 9t49 -9t38 -23.5t24.5 -33t8.5 -38.5q0 -46 -39 -75q22 -14 35.5 -37.5t13.5 -48.5q0 -22 -9 -42t-26 -36t-41 -25.5t-54 -9.5q-29 0 -53 9t-41.5 24t-27.5 35.5t-10 43.5zM226 608
q0 14 -12.5 24t-33.5 10q-22 0 -34.5 -10.5t-13.5 -24.5q0 -15 12.5 -25.5t35.5 -10.5q22 0 34.5 11t11.5 26zM234 455q-1 17 -15 30t-39 13q-27 0 -41 -13.5t-13 -30.5q0 -18 14 -30.5t40 -12.5q25 0 39 13t15 31z" />
    <glyph glyph-name="eight.tf" horiz-adv-x="635" 
d="M479 385q51 -22 76.5 -64.5t25.5 -99.5q0 -53 -22 -96t-61 -73.5t-91.5 -47t-112.5 -16.5q-55 0 -101.5 14t-80 40t-52.5 62.5t-19 80.5q0 73 46 129q45 57 120 80q-37 19 -60 55t-23 87q0 47 19.5 86t53.5 67.5t80 44t98 15.5q48 0 88.5 -13.5t70 -38.5t46 -59t16.5 -76
q0 -25 -4 -42q-19 -100 -113 -135zM350 446q57 0 88 26.5t31 65.5q0 37 -29 61t-78 24q-52 0 -85.5 -26.5t-33.5 -68.5q0 -33 26.5 -57.5t80.5 -24.5zM321 323q-58 0 -96.5 -29.5t-38.5 -80.5q0 -42 30 -67.5t84 -27.5q58 -1 100 28q42 30 42 82q0 45 -33 70t-88 25z" />
    <glyph glyph-name="five.dnom" horiz-adv-x="369" 
d="M130 132q-1 -3 -1 -10q0 -22 15.5 -36.5t38.5 -14.5q24 0 40 16t16 40q0 28 -16 43.5t-44 15.5q-14 0 -28 -7.5t-18 -16.5l-75 20l47 186h203v-82h-139l-8 -30q16 4 28 4q58 0 95 -38.5t37 -98.5q0 -27 -11 -51.5t-29.5 -43t-43.5 -29t-54 -10.5q-30 0 -55.5 11
t-43.5 30.5t-27.5 45.5t-8.5 56h82z" />
    <glyph glyph-name="five.numr" horiz-adv-x="364" 
d="M129 480q-1 -3 -1 -10q0 -22 15 -36.5t38 -14.5q24 0 39.5 16t15.5 39q0 27 -16 42.5t-43 15.5q-14 0 -27.5 -7t-17.5 -16l-73 19l46 182h198v-80h-136l-8 -30q9 4 28 4q57 0 92.5 -37t35.5 -97q0 -27 -10.5 -50.5t-28.5 -41t-42.5 -28t-52.5 -10.5q-29 0 -54 11t-43 30
t-27.5 44.5t-8.5 54.5h81z" />
    <glyph glyph-name="five.tf" horiz-adv-x="641" 
d="M311 594l-41 -97q39 16 88 16q51 0 92 -17.5t69 -49t43 -74t15 -93.5q0 -60 -20.5 -113t-58.5 -92.5t-92 -62.5t-120 -23q-55 0 -101 16.5t-79 46.5t-51.5 71.5t-18.5 92.5q0 5 0.5 14t1.5 21h142q-1 -4 -1 -18q0 -43 31 -72t80 -29q32 0 58 12t45 32.5t29.5 47
t10.5 56.5q0 51 -30.5 82.5t-84.5 31.5q-38 0 -69 -16.5t-49 -44.5l-124 33l145 372h376l-20 -143h-266z" />
    <glyph glyph-name="four.dnom" horiz-adv-x="397" 
d="M349 57h-46v-66h-82v66l-173 1v82l173 228h82v-229h46v-82zM221 140v97l-72 -97h72z" />
    <glyph glyph-name="four.numr" horiz-adv-x="390" 
d="M342 407h-45v-65h-80v65l-169 1v79l169 223h80v-223h45v-80zM217 487v94l-71 -94h71z" />
    <glyph glyph-name="four.ss03" horiz-adv-x="696" 
d="M658 133h-94l-19 -133h-140l18 133l-382 1l20 141l382 -1l43 306l-259 -305h-166l391 462h168h29l-65 -463h94z" />
    <glyph glyph-name="four.tf" horiz-adv-x="666" 
d="M616 133h-95l-19 -133h-140l19 133l-342 1l20 141l350 462h168l-353 -462l177 -1l22 159h140l-22 -159h95z" />
    <glyph glyph-name="g.ss02" horiz-adv-x="609" 
d="M617 497l-67 -476q-19 -132 -92 -201.5t-194 -69.5q-103 0 -172 48q-69 47 -86 127l133 46q5 -45 39 -68.5t88 -23.5q63 0 98.5 34t44.5 97l6 45q-28 -23 -67.5 -35.5t-74.5 -12.5q-54 0 -97 16.5t-73.5 46t-47 70.5t-16.5 90q0 62 20.5 114t56.5 89.5t86.5 59
t110.5 21.5q55 0 99 -16.5t64 -46.5l12 46h129zM442 280q0 49 -32.5 79.5t-84.5 30.5q-63 0 -102 -41t-39 -105q0 -51 31.5 -82t82.5 -31q63 0 103 42q41 44 41 107z" />
    <glyph glyph-name="i.loclTRK" horiz-adv-x="248" 
d="M239 498l-70 -498h-144l70 498h144zM107 634q0 36 28 61q29 27 62 27q30 0 49.5 -20.5t19.5 -49.5q0 -18 -7.5 -33.5t-20 -27.5t-29 -19t-34.5 -7q-30 0 -49 19.5t-19 49.5z" />
    <glyph glyph-name="i.ss04" horiz-adv-x="301" 
d="M304 654l-110 -96l-81 96l108 95zM258 498l-70 -498h-143l70 498h143z" />
    <glyph glyph-name="nine.dnom" horiz-adv-x="377" 
d="M176 100q-23 0 -46 8.5t-41 25t-29.5 40.5t-11.5 56q0 60 39 100q39 41 97 41q52 0 89 -32t47 -86q4 -21 6 -40.5t2 -36.5q0 -40 -9.5 -74.5t-28 -59.5t-46 -39.5t-63.5 -14.5q-39 0 -73 18t-57 53l64 39q10 -16 27.5 -25t35.5 -9q26 0 47 18t26 53q-11 -17 -32.5 -26
t-42.5 -9zM184 297q-23 0 -40.5 -17t-18.5 -45q0 -30 16 -46.5t39 -18.5q27 -1 44.5 16.5t17.5 47.5q-1 27 -16.5 45t-41.5 18z" />
    <glyph glyph-name="nine.numr" horiz-adv-x="371" 
d="M172 448q-23 0 -45 8.5t-39.5 24.5t-28.5 40t-11 55q0 58 38 98q39 39 96 39q51 0 87 -30.5t46 -84.5q4 -17 5.5 -35.5t1.5 -37.5q0 -41 -9.5 -75.5t-27.5 -59t-45.5 -38.5t-63.5 -14q-37 0 -70.5 18t-53.5 52l63 37q9 -15 24.5 -22.5t32.5 -7.5q27 0 48 16.5t28 50.5
q-11 -17 -33 -25.5t-43 -8.5zM184 641q-23 0 -41 -17t-19 -45q1 -30 18 -46t40 -16q24 0 40.5 16.5t16.5 44.5q-1 26 -15.5 43.5t-39.5 19.5z" />
    <glyph glyph-name="nine.tf" horiz-adv-x="690" 
d="M658 433q0 -111 -25 -195t-72 -140t-113 -84.5t-149 -28.5q-84 0 -155 33q-70 33 -101 94l130 71q42 -55 128 -55q72 0 121.5 37.5t68.5 106.5q-29 -30 -73.5 -44.5t-89.5 -14.5q-51 0 -96.5 17t-80 49.5t-54.5 80t-20 108.5q-1 57 21.5 108.5t63 90.5t96 61.5
t120.5 21.5q68 0 120 -24t87.5 -67t54 -100.5t18.5 -125.5zM501 493q0 50 -32 86t-90 36q-34 0 -62 -12t-48.5 -32t-31.5 -46t-11 -55q0 -49 32 -87q33 -37 91 -37q34 0 62 12t48 32.5t31 47t11 55.5z" />
    <glyph glyph-name="one.dnom" horiz-adv-x="264" 
d="M34 334l79 33v-84l-79 -30v81zM195 367v-367h-82v367h82z" />
    <glyph glyph-name="one.numr" horiz-adv-x="265" 
d="M34 676l80 34v-84l-80 -30v80zM195 710v-367h-81v367h81z" />
    <glyph glyph-name="one.tf" horiz-adv-x="593" 
d="M521 123l-17 -123h-292h-158l17 123h158l86 614h144l-86 -614h148zM162 654l153 83l-21 -151l-152 -75z" />
    <glyph glyph-name="registered.ss01" horiz-adv-x="571" 
d="M348 749q50 0 92 -17t72 -47t47 -71.5t17 -89.5q1 -55 -20 -106t-59 -90t-89.5 -61.5t-111.5 -21.5q-51 0 -93 17t-73 47.5t-48 72t-17 90.5q-1 55 21.5 105.5t61.5 89t91 61t109 21.5zM297 302q44 0 84 17.5t70.5 47.5t48.5 69.5t18 84.5q0 38 -13 69.5t-36 55t-55 36.5
t-70 13q-44 0 -84 -17.5t-70.5 -47.5t-48.5 -69.5t-18 -84.5q0 -79 44.5 -126.5t129.5 -47.5zM262 611h85q74 0 74 -58q0 -28 -14.5 -46.5t-38.5 -28.5l29 -94h-57l-26 86h-23l-13 -86h-49zM331 516q14 0 23 7.5t9 19.5q0 20 -25 20h-33l-8 -47h34z" />
    <glyph glyph-name="seven.dnom" horiz-adv-x="367" 
d="M318 368v-84q-63 -45 -92 -104t-33 -98q-2 -20 -3 -40t-1 -42h-85q0 38 3 75q5 39 27 97q24 59 75 112h-161v84h270z" />
    <glyph glyph-name="seven.numr" horiz-adv-x="366" 
d="M318 710v-84q-63 -45 -92 -104t-33 -98q-2 -20 -3 -40t-1 -42h-85q0 38 3 75q5 38 27 98q24 60 75 111h-161v84h270z" />
    <glyph glyph-name="seven.tf" horiz-adv-x="552" 
d="M605 735l-20 -145q-134 -90 -207 -211q-74 -121 -98 -209t-36 -170h-146q14 119 75 282q61 161 230 308h-339l21 145h520z" />
    <glyph glyph-name="six.dnom" horiz-adv-x="386" 
d="M332 131q0 -27 -9.5 -52.5t-27.5 -45t-43.5 -31.5t-58.5 -12q-71 0 -109 53q-36 54 -36 134q0 83 42 138q42 56 119 56q83 0 128 -59l-62 -44q-19 27 -64 27q-31 0 -51 -16t-28 -41q14 13 34 19.5t41 6.5q29 0 52 -10.5t39 -29t25 -42.5t9 -51zM246 122q0 28 -16 45
t-40 17q-26 0 -41 -17t-15 -45t15 -44t40 -16t41 16t16 44z" />
    <glyph glyph-name="six.numr" horiz-adv-x="386" 
d="M333 475q0 -27 -9.5 -52.5t-27.5 -45t-43.5 -31.5t-58.5 -12q-71 0 -109 53q-36 54 -36 134q0 82 41 138q42 55 118 55q45 0 77.5 -16t51.5 -43l-61 -43q-11 14 -28 20.5t-36 6.5q-31 0 -51 -16.5t-28 -41.5q26 26 75 26q29 0 52 -10.5t39 -28.5t25 -42t9 -51zM247 466
q0 28 -16 45t-41 17t-40 -17t-15 -45t15 -44t40 -16t41 16t16 44z" />
    <glyph glyph-name="six.tf" horiz-adv-x="685" 
d="M644 279q1 -59 -20 -112.5t-60.5 -94.5t-95 -64.5t-123.5 -22.5q-133 0 -207 87q-73 88 -73 239q-1 91 23.5 171.5t72 140.5t116 94t155.5 33q88 0 152.5 -33.5t95.5 -90.5l-126 -70q-44 53 -130 53q-75 0 -125.5 -40t-69.5 -110q28 30 71.5 45t91.5 15q49 0 94.5 -15.5
t80.5 -45.5t56 -75t21 -104zM377 391q-33 0 -61 -12t-48 -32t-31 -46t-11 -55q0 -25 8.5 -47.5t24 -39t38.5 -26.5t51 -10q33 0 61.5 12t48.5 32t31.5 46t11.5 54q0 25 -8.5 47.5t-24 39.5t-38.5 27t-53 10z" />
    <glyph glyph-name="t.ss03" horiz-adv-x="385" 
d="M238 195q-1 -9 -1.5 -15t-0.5 -9q0 -57 55 -57q23 0 59 10l-19 -124q-52 -12 -91 -12q-69 0 -109.5 33.5t-40.5 106.5q0 19 3 40l29 208h-76l17 122h76l22 154h142l-22 -154h112l-17 -122h-113z" />
    <glyph glyph-name="three.dnom" horiz-adv-x="360" 
d="M313 125q0 -56 -39 -94q-40 -38 -97 -38q-29 0 -53.5 11t-42.5 29.5t-27 44t-7 54.5h80q-1 -2 -1 -10q0 -21 14 -35t37 -14t38.5 14.5t15.5 38.5q0 23 -15.5 37t-37.5 14q-17 0 -35 -9l-28 62v1l54 57h-108v80h233v-69l-58 -58q33 -15 55 -46t22 -70z" />
    <glyph glyph-name="three.numr" horiz-adv-x="356" 
d="M308 467q0 -55 -38 -93q-37 -37 -92 -37q-28 0 -53 10.5t-42.5 29t-26.5 43.5t-7 54h79l-1 -9q0 -22 14.5 -35.5t36.5 -13.5q21 0 35.5 14.5t14.5 36.5q0 27 -17 41q-13 12 -33 12q-17 0 -34 -9l-29 62l3 3l51 53h-106v81h230v-68l-57 -58q29 -14 47 -38q25 -34 25 -79z
" />
    <glyph glyph-name="three.tf" horiz-adv-x="587" 
d="M578 614l-168 -149q63 -23 99.5 -76.5t36.5 -135.5q0 -63 -22.5 -112.5t-61 -83.5t-89 -52t-107.5 -18q-55 0 -100.5 17t-78.5 46.5t-51 69.5t-18 86q0 11 0.5 19.5t1.5 13.5h142q-1 -3 -1 -14q0 -45 31 -71.5t83 -26.5q58 0 92.5 34t34.5 88q0 48 -30 74.5t-87 28.5
q-5 1 -17 1h-31h-53l9 96l160 143l-254 2l21 141h475z" />
    <glyph glyph-name="two.dnom" horiz-adv-x="381" 
d="M69 80l127 107q24 21 32.5 31.5t8.5 26.5q1 21 -12 34.5t-36 13.5q-22 -1 -35.5 -13.5t-13.5 -34.5l1 -10h-81q-1 29 7.5 53.5t26.5 43t43.5 29t56.5 10.5q60 0 93.5 -34t33.5 -88q0 -38 -18 -64t-48 -51l-67 -55l130 1v-80l-249 -1v81z" />
    <glyph glyph-name="two.numr" horiz-adv-x="358" 
d="M57 422l127 107q25 22 33.5 32.5t8.5 26.5q0 21 -12.5 34t-35.5 13q-25 0 -38.5 -15t-10.5 -42h-80q-2 28 6.5 52.5t26.5 43t43.5 29.5t57.5 11q58 -1 92.5 -35.5t34.5 -86.5q0 -38 -18 -64.5t-49 -51.5l-67 -55l130 1v-80h-249v80z" />
    <glyph glyph-name="two.tf" horiz-adv-x="596" 
d="M41 144l345 250q38 28 56.5 56t18.5 62q0 45 -28.5 71.5t-79.5 26.5q-48 0 -84.5 -26.5t-48.5 -83.5h-142q8 60 33.5 106.5t63 78.5t85 48.5t100.5 16.5q54 0 99 -16t77.5 -45t50.5 -69.5t18 -90.5q0 -140 -147 -244l-205 -143l283 1l-21 -141l-494 -2z" />
    <glyph glyph-name="zero.dnom" horiz-adv-x="415" 
d="M367 177q0 -87 -44 -138t-117 -51q-36 0 -65 13.5t-50 38.5t-32 60t-11 77q0 85 43 137q44 53 116 52q73 1 116.5 -50t43.5 -139zM283 177q0 45 -17 72t-47 32l-11 1l-12 -1q-30 -5 -47.5 -32t-17.5 -72q0 -49 20.5 -77t56.5 -29q35 1 55 29t20 77z" />
    <glyph glyph-name="zero.numr" horiz-adv-x="426" 
d="M374 534q0 -43 -11.5 -78.5t-32.5 -60.5t-50.5 -38.5t-65.5 -13.5q-75 -1 -118.5 51t-43.5 140q0 43 11.5 78.5t32.5 60.5t50.5 38.5t65.5 13.5t66 -13.5t51.5 -38.5t33 -60t11.5 -79zM289 534q0 46 -17 73t-48 32q-3 1 -11 1q-9 0 -12 -1q-30 -5 -47.5 -32.5
t-17.5 -72.5q0 -49 20.5 -77.5t56.5 -29.5q35 1 55.5 28.5t20.5 78.5z" />
    <glyph glyph-name="zero.tf" horiz-adv-x="769" 
d="M433 750q67 -1 122.5 -25t95.5 -69t62.5 -109.5t22.5 -147.5q1 -85 -26 -161t-75 -132t-114 -88.5t-144 -30.5q-67 0 -124 24t-99 68t-65.5 108t-23.5 143q-1 87 27 164t78 134.5t117.5 90.5t145.5 31zM379 135q49 0 86 22t62 59t37.5 84.5t12.5 98.5q0 94 -40.5 146.5
t-115.5 53.5q-49 0 -86.5 -22.5t-62.5 -60t-37.5 -86t-12.5 -99.5q0 -94 41 -145t116 -51z" />
    </font>
</defs>
</svg>
