<svg width="20" height="21" viewBox="0 0 20 21" fill="none" xmlns="http://www.w3.org/2000/svg">
<path d="M18 6.4139C17.9731 6.00771 17.8897 5.60681 17.7522 5.2219C17.67 4.98905 17.5606 4.76595 17.4261 4.55688C17.2938 4.35838 17.1409 4.17339 16.9696 4.00479C16.8887 3.91308 16.7967 3.83095 16.6957 3.76012C16.5926 3.68503 16.4836 3.61791 16.3696 3.55936C15.9238 3.29102 15.4234 3.11773 14.9022 3.05119C14.7732 3.02655 14.6423 3.01187 14.5109 3.00727C14.3371 2.99758 14.1629 2.99758 13.9891 3.00727H7.00435C6.84348 3.00727 6.68696 3.00727 6.53478 3.00727C6.23582 3.02726 5.93913 3.07133 5.64783 3.13902L5.25 3.25822L4.95652 3.38997C4.24867 3.72272 3.68527 4.28469 3.36522 4.97722C3.33261 5.05251 3.3 5.14034 3.26739 5.2219C3.12387 5.60611 3.03396 6.00694 3 6.4139C3 6.5582 3 6.70877 3 6.85934V15.1407C3 15.2996 3 15.4502 3 15.5924C3.02187 15.9417 3.08757 16.2871 3.19565 16.6213C3.21554 16.6772 3.23951 16.7317 3.26739 16.7844C3.29972 16.883 3.33894 16.9794 3.38478 17.073C3.38478 17.1043 3.41739 17.1294 3.43043 17.1608C3.44348 17.1922 3.5413 17.3616 3.6 17.4619C3.6587 17.5623 3.73696 17.6564 3.8087 17.7505C3.88043 17.8446 3.96522 17.9262 4.05 18.0078C4.22353 18.1744 4.41605 18.3218 4.62391 18.4469C4.72535 18.5063 4.82983 18.5608 4.93696 18.61C5.02847 18.6568 5.1246 18.6946 5.22391 18.723C5.50213 18.8327 5.79352 18.9086 6.0913 18.9488C6.22044 18.9727 6.35123 18.9874 6.48261 18.9927C6.65638 19.0024 6.83058 19.0024 7.00435 18.9927H13.9891C14.1543 18.9927 14.3109 18.9927 14.4587 18.9927C14.7089 18.9744 14.9573 18.9388 15.2022 18.8861C15.3674 18.8484 15.5239 18.8045 15.6717 18.7543C15.8022 18.7104 15.9326 18.6539 16.05 18.6038C16.5775 18.3487 17.027 17.966 17.3543 17.4933L17.4848 17.28C17.5304 17.1922 17.5761 17.1043 17.6152 17.0165C17.6543 16.9287 17.713 16.7718 17.7587 16.6401C17.8043 16.5083 17.8239 16.4205 17.85 16.3076C17.9176 16.0729 17.9678 15.8339 18 15.5924C18 15.4502 18 15.2996 18 15.1407V6.85934C18 6.70877 18 6.5582 18 6.4139ZM10.3696 7.33614C10.3696 7.50253 10.3009 7.66211 10.1785 7.77976C10.0562 7.89742 9.89036 7.96352 9.71739 7.96352H7.23261C7.12144 7.97015 7.0106 7.94621 6.91304 7.8945C6.82815 7.83487 6.7595 7.75637 6.71294 7.6657C6.66638 7.57504 6.6433 7.47489 6.64565 7.37379C6.64484 7.21772 6.70453 7.06696 6.81306 6.95095C6.92159 6.83494 7.07118 6.76202 7.23261 6.74641H9.91957C10.0493 6.78709 10.1624 6.86586 10.2432 6.97165C10.3239 7.07744 10.3681 7.20492 10.3696 7.33614ZM13.7609 15.2599H11.087C11.0013 15.2479 10.919 15.2199 10.8446 15.1773C10.7702 15.1347 10.7053 15.0785 10.6535 15.0118C10.6017 14.9451 10.5641 14.8692 10.5428 14.7885C10.5215 14.7078 10.5169 14.6239 10.5293 14.5415C10.5418 14.4591 10.5709 14.3799 10.6152 14.3084C10.6594 14.2368 10.7179 14.1744 10.7872 14.1245C10.9273 14.0239 11.1031 13.981 11.2761 14.0051H13.7609C13.8483 14.0053 13.9348 14.0223 14.0152 14.0553L14.0935 14.0992C14.1742 14.1589 14.2392 14.236 14.2834 14.3243C14.3275 14.4125 14.3496 14.5095 14.3478 14.6074C14.3553 14.7677 14.2986 14.9247 14.1895 15.0461C14.0803 15.1675 13.9269 15.244 13.7609 15.2599ZM13.7609 11.596H7.23913C7.15287 11.6046 7.06571 11.5956 6.98327 11.5697C6.90084 11.5438 6.82498 11.5015 6.7606 11.4456C6.69622 11.3898 6.64475 11.3215 6.60952 11.2453C6.57429 11.169 6.55608 11.0866 6.55608 11.0031C6.55608 10.9197 6.57429 10.8372 6.60952 10.761C6.64475 10.6848 6.69622 10.6165 6.7606 10.5606C6.82498 10.5048 6.90084 10.4625 6.98327 10.4366C7.06571 10.4107 7.15287 10.4017 7.23913 10.4103H13.7609C13.9273 10.41 14.0875 10.4709 14.2087 10.5805C14.33 10.6902 14.4031 10.8402 14.413 11C14.4047 11.1609 14.3323 11.3125 14.2109 11.4235C14.0895 11.5344 13.9283 11.5962 13.7609 11.596Z" fill="#A5A8AA"/>
</svg>
