<svg width="22" height="24" viewBox="0 0 22 24" fill="none" xmlns="http://www.w3.org/2000/svg">
<path d="M19.4193 9.02273L19.417 9.04629V9.06426C19.417 9.06186 19.417 9.0605 19.4169 9.0605C19.4166 9.06048 19.4155 9.07993 19.4113 9.13619C19.4068 9.19815 19.4 9.28769 19.3911 9.40202C19.3735 9.63057 19.3478 9.95675 19.3159 10.3566C19.2521 11.1561 19.1634 12.2494 19.0635 13.4435C18.8636 15.8335 18.6199 18.621 18.443 20.2692C18.3422 21.1892 18.0011 21.8868 17.5023 22.357C17.005 22.8258 16.3117 23.1058 15.4354 23.1214L15.4331 23.1214C13.9287 23.1551 12.4553 23.1668 11.0044 23.1668C9.46365 23.1668 7.95867 23.1551 6.49894 23.1214C5.6614 23.1013 4.98315 22.8169 4.49158 22.3436C3.9982 21.8685 3.66002 21.1712 3.56481 20.2707L3.56458 20.2686C3.38273 18.6154 3.1393 15.8284 2.93952 13.4392C2.83973 12.2457 2.75098 11.1535 2.68647 10.3544C2.67242 10.1804 2.65939 10.0185 2.64756 9.87159C2.61359 9.44948 2.58954 9.15059 2.57969 9.04189C2.57556 8.93395 2.60855 8.83444 2.6785 8.74916C2.74087 8.6834 2.8277 8.646 2.91327 8.646H19.0956C19.1683 8.646 19.251 8.6748 19.3353 8.7555C19.4027 8.84158 19.4278 8.93295 19.4193 9.02273Z" stroke="black"/>
<path d="M6.67018 3.04193L6.67022 3.04174L6.84664 2.25376C7.07236 1.38197 7.79247 0.833252 8.59228 0.833252H13.4088C14.2047 0.833252 14.9287 1.38939 15.1422 2.19882L15.3307 3.03983C15.3308 3.03998 15.3308 3.04014 15.3309 3.04029C15.5342 3.95426 16.3315 4.61779 17.2666 4.61779H20.6683C20.8378 4.61779 21 4.76133 21 4.97292V5.41624C21 5.62066 20.8334 5.77138 20.6683 5.77138H1.33283C1.16612 5.77138 1 5.62021 1 5.41624V4.97292C1 4.76178 1.16172 4.61779 1.33283 4.61779H4.73449C5.66876 4.61779 6.46558 3.95402 6.67018 3.04193Z" stroke="black"/>
</svg>
