<svg width="26" height="26" viewBox="0 0 26 26" fill="none" xmlns="http://www.w3.org/2000/svg">
<path d="M23 12.1542V22.3077C23 22.7566 22.8084 23.187 22.4675 23.5043C22.1265 23.8217 21.664 24 21.1818 24H4.81818C4.33597 24 3.87351 23.8217 3.53253 23.5043C3.19156 23.187 3 22.7566 3 22.3077V12.1542C3 11.7054 3.19156 11.275 3.53253 10.9576C3.87351 10.6402 4.33597 10.4619 4.81818 10.4619H7.54545C7.78656 10.4619 8.01779 10.5511 8.18828 10.7098C8.35877 10.8685 8.45455 11.0837 8.45455 11.3081C8.45455 11.5325 8.35877 11.7477 8.18828 11.9064C8.01779 12.0651 7.78656 12.1542 7.54545 12.1542H4.81818V22.3077H21.1818V12.1542H18.4545C18.2134 12.1542 17.9822 12.0651 17.8117 11.9064C17.6412 11.7477 17.5455 11.5325 17.5455 11.3081C17.5455 11.0837 17.6412 10.8685 17.8117 10.7098C17.9822 10.5511 18.2134 10.4619 18.4545 10.4619H21.1818C21.664 10.4619 22.1265 10.6402 22.4675 10.9576C22.8084 11.275 23 11.7054 23 12.1542ZM9.09773 7.67607L12.0909 4.88914V14.6926C12.0909 14.917 12.1867 15.1322 12.3572 15.2909C12.5277 15.4496 12.7589 15.5387 13 15.5387C13.2411 15.5387 13.4723 15.4496 13.6428 15.2909C13.8133 15.1322 13.9091 14.917 13.9091 14.6926V4.88914L16.9023 7.67607C17.0729 7.83484 17.3042 7.92403 17.5455 7.92403C17.7867 7.92403 18.0181 7.83484 18.1886 7.67607C18.3592 7.5173 18.4551 7.30197 18.4551 7.07744C18.4551 6.8529 18.3592 6.63757 18.1886 6.4788L13.6432 2.24816C13.5588 2.16949 13.4585 2.10708 13.3481 2.0645C13.2378 2.02192 13.1195 2 13 2C12.8805 2 12.7622 2.02192 12.6519 2.0645C12.5415 2.10708 12.4412 2.16949 12.3568 2.24816L7.81136 6.4788C7.64078 6.63757 7.54495 6.8529 7.54495 7.07744C7.54495 7.30197 7.64078 7.5173 7.81136 7.67607C7.98195 7.83484 8.21331 7.92403 8.45455 7.92403C8.69579 7.92403 8.92715 7.83484 9.09773 7.67607Z" fill="#343330"/>
</svg>
