<svg width="20" height="20" viewBox="0 0 20 20" fill="none" xmlns="http://www.w3.org/2000/svg">
<path fill-rule="evenodd" clip-rule="evenodd" d="M18 6.264C17.992 3.5432 16.456 2 13.7352 2H6.264C3.5432 2 2 3.5432 2 6.264V13.736C2 16.456 3.5432 18 6.264 18H13.7352C16.456 18 18 16.456 18 13.736V6.264ZM6.76522 4.8H5.63478C5.39466 4.8 5.2 4.99466 5.2 5.23478V14.3652C5.2 14.6053 5.39466 14.8 5.63478 14.8H6.76522C7.00534 14.8 7.2 14.6053 7.2 14.3652V5.23478C7.2 4.99466 7.00534 4.8 6.76522 4.8ZM9.45666 4.8H10.5871C10.8272 4.8 11.0219 4.99466 11.0219 5.23478V9.56522C11.0219 9.80534 10.8272 10 10.5871 10H9.45666C9.21653 10 9.02187 9.80534 9.02187 9.56522V5.23478C9.02187 4.99466 9.21653 4.8 9.45666 4.8ZM14.4121 4.8H13.2817C13.0415 4.8 12.8469 4.99466 12.8469 5.23478V12.7652C12.8469 13.0053 13.0415 13.2 13.2817 13.2H14.4121C14.6522 13.2 14.8469 13.0053 14.8469 12.7652V5.23478C14.8469 4.99466 14.6522 4.8 14.4121 4.8Z" stroke="black"/>
</svg>
