<svg width="20" height="20" viewBox="0 0 20 20" fill="none" xmlns="http://www.w3.org/2000/svg">
<path d="M15.1198 10.6653L15.1199 10.6653L15.1238 10.6588C15.3536 10.2789 15.3599 9.80373 15.1195 9.42215C14.8872 9.05068 14.4678 8.84537 14.044 8.8752L5.912 8.8752L5.88245 8.8752L5.85311 8.87868C5.2632 8.94865 4.812 9.44415 4.812 10.0392C4.812 10.6365 5.259 11.1446 5.86569 11.2011L5.88879 11.2032L5.912 11.2032L14.0365 11.2032C14.4698 11.2449 14.8898 11.0328 15.1198 10.6653ZM15.1187 6.93112L15.1191 6.93041C15.3573 6.55213 15.358 6.07214 15.1191 5.69359C14.8869 5.32396 14.4699 5.11701 14.0433 5.148L5.912 5.148L5.88937 5.148L5.86684 5.15004C5.25862 5.20521 4.812 5.71527 4.812 6.3112C4.812 6.90854 5.259 7.41661 5.86569 7.47305L5.88879 7.4752L5.912 7.4752L14.0427 7.4752C14.472 7.50735 14.8878 7.29646 15.1187 6.93112ZM15.1234 13.1005L15.1234 13.1005L15.1196 13.0943C14.8901 12.7285 14.4804 12.5141 14.0372 12.556L5.912 12.556L5.88879 12.556L5.86569 12.5581C5.259 12.6146 4.812 13.1227 4.812 13.72C4.812 14.315 5.2632 14.8106 5.85311 14.8805L5.88245 14.884L5.912 14.884L14.0444 14.884C14.4788 14.914 14.8871 14.7064 15.1187 14.3383C15.3598 13.9568 15.3542 13.4807 15.1234 13.1005ZM17.5 13.7352C17.5 15.0024 17.1423 15.9245 16.5349 16.5312C15.9274 17.138 15.0032 17.4961 13.7355 17.5L6.264 17.5C4.99719 17.5 4.07319 17.1421 3.46558 16.5344C2.85795 15.9267 2.5 15.0024 2.5 13.7352L2.5 6.264C2.5 4.99676 2.85795 4.07277 3.46553 3.46528C4.07312 2.85777 4.99713 2.5 6.264 2.5L13.736 2.5C15.0033 2.5 15.9273 2.85779 16.5347 3.46525C17.1422 4.07272 17.5 4.99669 17.5 6.264L17.5 13.7352Z" fill="" stroke="black"/>
</svg>
