<svg width="28" height="28" viewBox="0 0 28 28" fill="none" xmlns="http://www.w3.org/2000/svg">
<path fill-rule="evenodd" clip-rule="evenodd" d="M25.6709 9.23959C25.6709 5.10978 23.0226 2.33325 19.0678 2.33325L8.95331 2.33325C4.9985 2.33325 2.33862 5.10978 2.33862 9.23959L2.33862 18.772C2.33862 22.8901 4.9985 25.6655 8.95331 25.6655L19.0678 25.6655C23.0226 25.6655 25.6709 22.8901 25.6709 18.772L25.6709 9.23959ZM15.5551 9.21028C16.0845 9.19144 16.6014 9.3738 17.0017 9.72066C17.2224 9.912 17.4006 10.1474 17.5249 10.4116C17.6493 10.6759 17.717 10.9632 17.7238 11.2552C17.7305 11.5472 17.6762 11.8374 17.5642 12.1071C17.4522 12.3769 17.2851 12.6202 17.0735 12.8216L11.2259 18.3893C11.1252 18.4787 10.9939 18.5258 10.8593 18.521C10.7248 18.5161 10.5972 18.4596 10.5032 18.3632C10.4092 18.2668 10.3559 18.1379 10.3544 18.0033C10.353 17.8686 10.4034 17.7386 10.4952 17.6401L15.746 12.3844C15.8347 12.2988 15.9055 12.1963 15.9543 12.083C16.003 11.9697 16.0287 11.8479 16.0298 11.7246C16.0309 11.6012 16.0075 11.4789 15.9608 11.3648C15.9142 11.2506 15.8453 11.1469 15.7581 11.0596C15.671 10.9724 15.5673 10.9034 15.4532 10.8566C15.339 10.8098 15.2167 10.7863 15.0934 10.7873C14.9701 10.7883 14.8482 10.8139 14.7349 10.8625C14.6215 10.9111 14.519 10.9818 14.4333 11.0705L9.17884 16.3262C8.72675 16.7673 8.46839 17.3699 8.46061 18.0015C8.45283 18.6331 8.69626 19.2419 9.13735 19.694C9.57845 20.1461 10.1811 20.4044 10.8127 20.4122C11.4442 20.42 12.053 20.1766 12.5051 19.7355L18.354 14.1677C18.7371 13.808 19.0446 13.3756 19.2586 12.8957C19.4726 12.4158 19.5887 11.898 19.6003 11.3727C19.6118 10.8474 19.5185 10.325 19.3258 9.83617C19.133 9.34733 18.8448 8.90182 18.4779 8.52569C18.111 8.14956 17.6728 7.85035 17.1888 7.64557C16.7049 7.44078 16.1851 7.33453 15.6596 7.33303C15.1342 7.33152 14.6137 7.43479 14.1286 7.6368C13.6435 7.83881 13.2036 8.1355 12.8345 8.50952L8.63395 12.7101C8.5427 12.7951 8.46951 12.8977 8.41875 13.0116C8.36798 13.1255 8.34068 13.2485 8.33848 13.3732C8.33628 13.498 8.35923 13.6218 8.40594 13.7375C8.45265 13.8531 8.52218 13.9582 8.61038 14.0464C8.69857 14.1346 8.80363 14.2041 8.91928 14.2508C9.03493 14.2975 9.1588 14.3205 9.28351 14.3183C9.40822 14.3161 9.53121 14.2888 9.64514 14.238C9.75907 14.1872 9.86161 14.1141 9.94664 14.0228L14.1485 9.82221C14.5231 9.44776 15.0257 9.22912 15.5551 9.21028Z" fill="black"/>
</svg>
