<svg width="20" height="21" viewBox="0 0 20 21" fill="none" xmlns="http://www.w3.org/2000/svg">
<path d="M18.3909 1.58787C20.5364 3.7051 20.5364 7.14826 18.3909 9.26547L7.64727 19.8678C6.11758 21.3774 3.6199 21.3774 2.0902 19.8678C0.56051 18.3582 0.560508 15.8934 2.0902 14.3838L12.8339 3.78149C13.7478 2.87953 15.2541 2.87952 16.1681 3.78146C17.0821 4.68345 17.0821 6.16993 16.1681 7.07187L5.79491 17.3086C5.72233 17.3823 5.63561 17.4411 5.53981 17.4815C5.44401 17.5219 5.34102 17.543 5.23686 17.5438C5.13269 17.5445 5.02941 17.5248 4.93302 17.4858C4.83663 17.4468 4.74907 17.3893 4.6754 17.3166C4.60174 17.2439 4.54346 17.1575 4.50394 17.0624C4.46443 16.9673 4.44446 16.8654 4.44522 16.7626C4.44597 16.6598 4.46742 16.5581 4.50833 16.4636C4.54924 16.3691 4.60878 16.2835 4.6835 16.2118L15.0567 5.97509C15.3742 5.66176 15.3742 5.1916 15.0567 4.87828C14.7392 4.56498 14.2628 4.56498 13.9453 4.87828L3.20162 15.4806C2.26842 16.4016 2.26842 17.8501 3.20162 18.771C4.13481 19.692 5.60266 19.692 6.53586 18.771L17.2795 8.16866C18.8284 6.64013 18.8284 4.21325 17.2795 2.68469C15.7306 1.15615 13.2714 1.15615 11.7225 2.68469L1.34926 12.9215C1.27665 12.9951 1.18994 13.0538 1.09416 13.0941C0.998378 13.1343 0.895441 13.1554 0.791326 13.1561C0.687211 13.1568 0.583992 13.1371 0.487665 13.0981C0.391338 13.0591 0.303822 13.0017 0.2302 12.929C0.156579 12.8563 0.0983182 12.77 0.0588034 12.6749C0.0192886 12.5799 -0.000693143 12.478 1.83535e-05 12.3752C0.00072985 12.2725 0.0221204 12.1709 0.062948 12.0764C0.103776 11.9819 0.163226 11.8963 0.237847 11.8247L10.611 1.5879C12.7565 -0.529305 16.2455 -0.529284 18.3909 1.58787Z" fill="#777777"/>
</svg>
