<svg width="28" height="28" viewBox="0 0 28 28" fill="none" xmlns="http://www.w3.org/2000/svg">
<path d="M13.8115 19.1305V20.2002C13.8115 20.6495 14.0468 21.0345 14.4105 21.2699C14.4319 21.3769 14.4747 21.4624 14.5175 21.548H3.5V19.1305C3.5 18.6171 3.71399 18.1464 4.12033 17.8256C6.30248 16.0286 8.6557 14.8306 9.14774 14.5952C9.21191 14.5739 9.23325 14.5097 9.23325 14.4454V13.1832C8.91241 12.627 8.74124 12.0281 8.65559 11.4717C8.46309 11.4504 8.20626 11.1936 7.94962 10.2309C7.58595 8.92592 7.97096 8.73342 8.31328 8.75474C8.31328 8.75474 7.39345 5.65276 9.61827 4.28355C9.61827 4.28355 9.23327 3.96271 9.2546 3.51339C9.2546 3.51339 11.4153 3.74873 12.4636 3.53473C13.5119 3.32074 14.6243 4.13374 14.8169 4.92522C14.8169 4.92522 17.0417 4.75405 16.1006 8.73322C16.1006 8.73322 16.0793 8.81872 16.0578 8.96855H16.1219C16.3786 9.05406 16.5498 9.39638 16.2503 10.4232C15.8866 11.6854 15.5656 11.7496 15.3731 11.6212C15.2876 12.049 15.1591 12.541 14.9453 12.9904V14.445C14.9453 14.5092 14.9881 14.552 15.0308 14.5949C15.3945 14.766 16.8706 15.5147 18.5179 16.6487L16.1647 16.6488C15.3091 16.6488 14.5816 17.2478 14.4104 18.0608C14.0468 18.2962 13.8114 18.6812 13.8114 19.1305L13.8115 19.1305ZM24.0803 19.6225C24.0803 19.0877 23.7379 18.6171 23.2459 18.4459V16.2639C23.2459 16.0714 23.1176 15.9002 22.9251 15.8789C22.7111 15.8575 22.5186 16.0072 22.4973 16.2212C21.2993 17.355 19.5878 17.8043 18.5395 17.9755V17.6119L16.1649 17.6116C15.6942 17.6116 15.3092 17.9966 15.3092 18.4672V18.8522H15.0525C14.9027 18.8522 14.7744 18.9805 14.7744 19.1304V20.2C14.7744 20.3499 14.9027 20.4782 15.0525 20.4782H15.3092V20.799C15.3092 21.2697 15.6942 21.6547 16.1649 21.6547H16.3789L17.042 24.3717C17.0634 24.4572 17.1275 24.5 17.2132 24.5H18.7533C18.8603 24.5 18.9245 24.4145 18.9032 24.3075L18.7533 23.7298C18.732 23.6228 18.6463 23.5587 18.5393 23.5587C18.2827 23.5587 18.0687 23.3875 18.0045 23.1522L17.6195 21.6547H18.4967V21.291C19.545 21.4622 21.2563 21.89 22.4544 23.0453C22.4758 23.2593 22.6469 23.4303 22.8823 23.3877C23.0748 23.3663 23.2031 23.1952 23.2031 23.0027V20.8205C23.7379 20.628 24.0803 20.1788 24.0803 19.6225Z" fill="black"/>
</svg>
