<svg width="28" height="28" viewBox="0 0 28 28" fill="none" xmlns="http://www.w3.org/2000/svg">
<path fill-rule="evenodd" clip-rule="evenodd" d="M4.02932 4.66667H15.8856C16.8195 4.66667 17.5843 5.48605 17.5843 6.48681V7.622L13.0775 7.62179C11.7116 7.62179 10.5966 8.8165 10.5966 10.2799V15.9903H8.38703L5.4945 18.3733V15.9903H4.03229C3.0983 15.9903 2.3335 15.171 2.3335 14.1702L2.33369 6.48681C2.33369 5.48611 3.09557 4.66689 4.02956 4.66689L4.02932 4.66667ZM13.0771 8.46005C12.1431 8.46005 11.3783 9.27942 11.3783 10.2802V17.9636C11.3783 18.9643 12.1431 19.7837 13.0771 19.7837H14.5393V22.1667L17.4318 19.7837H24.9333C25.8673 19.7837 26.6321 18.9643 26.6321 17.9636V10.2796C26.6321 9.27894 25.8673 8.45951 24.9333 8.45951L13.0771 8.46005ZM13.8476 16.666H24.1625C24.3785 16.666 24.5536 16.4785 24.5536 16.247C24.5536 16.0155 24.3785 15.828 24.1625 15.828H13.8476C13.6316 15.828 13.4566 16.0155 13.4566 16.247C13.4566 16.4754 13.6318 16.666 13.8476 16.666ZM24.1625 13.7013C24.3785 13.7013 24.5536 13.8889 24.5536 14.1204C24.5536 14.3518 24.3785 14.5394 24.1625 14.5394L20.2077 14.5396C19.9917 14.5396 19.8166 14.352 19.8166 14.1206C19.8166 13.8891 19.9917 13.7016 20.2077 13.7016L24.1625 13.7013ZM13.8476 14.5396H17.8026C18.0187 14.5396 18.1937 14.3521 18.1937 14.1206C18.1937 13.8891 18.0186 13.7016 17.8026 13.7016L13.8476 13.7014C13.6316 13.7014 13.4566 13.8889 13.4566 14.1204C13.4566 14.3519 13.6318 14.5396 13.8476 14.5396V14.5396ZM13.8476 12.4161H24.1625C24.3785 12.4161 24.5536 12.2286 24.5536 11.9971C24.5536 11.7656 24.3785 11.5781 24.1625 11.5781H13.8476C13.6316 11.5781 13.4566 11.7656 13.4566 11.9971C13.4566 12.2286 13.6318 12.4161 13.8476 12.4161Z" fill="black"/>
</svg>
