<svg width="28" height="28" viewBox="0 0 28 28" fill="none" xmlns="http://www.w3.org/2000/svg">
<path d="M12.9241 2.56534C10.8897 2.80801 9.20106 3.76537 8.03428 5.33438C7.1434 6.53108 6.67802 7.94385 6.67137 9.46631V9.90843L6.53175 10.0082C6.45197 10.068 6.34892 10.1877 6.29241 10.2907L6.19269 10.4735L6.18272 11.5938C6.17607 12.2885 6.18604 12.7639 6.20598 12.8403C6.33563 13.3223 6.85087 13.6315 7.52568 13.6315C7.80158 13.6315 7.83815 13.6248 7.99106 13.5318C8.1207 13.4487 8.17722 13.3855 8.27029 13.2027L8.38664 12.9733L8.39661 11.7666C8.40658 10.7428 8.39993 10.5234 8.3534 10.3472C8.25367 9.95164 8.02098 9.7256 7.68524 9.69901L7.50573 9.68571V9.38986C7.50573 8.76159 7.67527 7.89066 7.92458 7.26239C9.17114 4.09114 12.7513 2.55205 15.8959 3.8385C17.2223 4.38034 18.3492 5.41748 19.0007 6.69396C19.4229 7.51835 19.6689 8.50563 19.6722 9.36327V9.68571L19.4894 9.69901C19.2234 9.72228 19.0572 9.84859 18.9076 10.1378L18.7913 10.3672V11.6337C18.7913 12.5445 18.8013 12.9367 18.8312 13.0365C18.9508 13.4221 19.2434 13.6481 19.6223 13.6481C19.8849 13.6481 20.3005 13.5417 20.5165 13.4187C20.706 13.3157 20.9088 13.073 20.9653 12.8836C20.9886 12.8038 21.0019 12.3816 21.0019 11.6636C21.0019 10.4735 20.9919 10.4004 20.8157 10.1677C20.7692 10.1046 20.6794 10.0215 20.6162 9.98156L20.5032 9.90843V9.41978C20.4999 6.59756 18.7813 4.07452 16.1486 3.03073C15.3208 2.70496 14.6593 2.57532 13.7219 2.56202C13.3463 2.55537 12.9873 2.5587 12.9241 2.56534Z" fill="#151515"/>
<path d="M12.7246 4.58979C11.0725 4.81583 9.96218 5.72 9.50345 7.20923C9.37048 7.6447 9.33724 7.97379 9.31397 9.15054L9.2907 10.2907H9.21757C9.11452 10.2907 8.9749 10.4403 8.92836 10.6032C8.90177 10.6896 8.88515 10.9389 8.88847 11.288C8.88847 11.7434 8.90177 11.8797 8.96161 12.0958C9.13114 12.7074 9.45691 13.3357 9.76606 13.6515C10.3611 14.2531 11.4049 14.6786 12.2957 14.6786H12.5816L12.6415 14.5423C12.7611 14.2797 13.1301 14.047 13.4226 14.047C13.5888 14.047 13.8415 14.1468 13.9811 14.2664C14.493 14.7019 14.3634 15.4997 13.7418 15.759C13.5756 15.8288 13.2365 15.8221 13.067 15.7457C12.9406 15.6859 12.6581 15.4332 12.6581 15.3767C12.6581 15.3634 12.4819 15.3435 12.2692 15.3335C11.6509 15.3003 11.0857 15.1706 10.5805 14.9446C10.4608 14.8914 10.3644 14.8648 10.3644 14.8814C10.3644 15.0044 10.8697 15.8454 11.0292 15.9917C11.0658 16.0249 11.0957 16.0715 11.0957 16.0947C11.0957 16.2044 9.59985 16.9623 7.9012 17.7136C6.54826 18.3119 6.0862 18.5347 5.81362 18.7175C5.54104 18.897 5.12884 19.3225 4.89283 19.6682C4.11497 20.7951 3.53989 22.5636 3.50665 23.9165L3.5 24.2622L3.76593 24.3752C5.18868 24.9869 7.47238 25.3991 10.6968 25.6218C11.5378 25.6816 15.6399 25.6816 16.4809 25.6218C19.7086 25.3991 21.9857 24.9869 23.4217 24.3719L23.6777 24.2622L23.6677 23.9165C23.6511 23.2317 23.4683 22.3009 23.1924 21.4998C23.0195 20.9979 22.594 20.1336 22.3281 19.7347C22.0621 19.3391 21.6599 18.9103 21.3641 18.7175C21.0915 18.5347 20.6294 18.3119 19.2765 17.7136C18.718 17.4676 17.9734 17.1252 17.6211 16.9557C16.9596 16.6366 16.082 16.1546 16.082 16.1147C16.082 16.1014 16.1651 15.9817 16.2648 15.8487C16.4842 15.5562 16.6704 15.2404 16.8066 14.9279C16.9163 14.6753 17.0792 14.2 17.0792 14.1268C17.0792 14.1036 17.1623 13.9905 17.2621 13.8775C17.754 13.3257 18.1596 12.5046 18.2792 11.8099C18.3225 11.5473 18.3025 10.7694 18.246 10.5866C18.1995 10.4337 18.0964 10.3273 17.9734 10.3007L17.877 10.2808L17.8737 9.69571C17.8704 8.54222 17.8238 7.77766 17.7341 7.42863C17.3086 5.78316 16.185 4.82248 14.4199 4.58646C13.9911 4.52995 13.1501 4.53328 12.7246 4.58979Z" fill="#151515"/>
</svg>
