<svg width="24" height="24" viewBox="0 0 24 24" fill="none" xmlns="http://www.w3.org/2000/svg">
<path d="M11.6898 -0.000244141C18.3164 -0.000244141 23.3331 5.43291 23.3331 11.6489C23.3331 18.858 17.4531 23.3331 11.6664 23.3331C9.75309 23.3331 7.62976 22.819 5.92642 21.8141C5.33142 21.4519 4.82976 21.1832 4.18809 21.3935L1.83142 22.0946C1.23642 22.2815 0.699756 21.8141 0.874756 21.1832L1.65642 18.5659C1.78476 18.2037 1.76142 17.8182 1.57476 17.5144C0.571423 15.6683 -0.000244141 13.6469 -0.000244141 11.6839C-0.000244141 5.53806 4.91142 -0.000244141 11.6898 -0.000244141ZM17.0214 10.2001C16.1931 10.2001 15.5281 10.8661 15.5281 11.6956C15.5281 12.5135 16.1931 13.1912 17.0214 13.1912C17.8498 13.1912 18.5148 12.5135 18.5148 11.6956C18.5148 10.8661 17.8498 10.2001 17.0214 10.2001ZM11.6431 10.2001C10.8264 10.1884 10.1498 10.8661 10.1498 11.6839C10.1498 12.5135 10.8148 13.1795 11.6431 13.1912C12.4714 13.1912 13.1364 12.5135 13.1364 11.6956C13.1364 10.8661 12.4714 10.2001 11.6431 10.2001ZM6.26476 10.2001C5.43642 10.2001 4.77142 10.8661 4.77142 11.6956C4.77142 12.5135 5.44809 13.1912 6.26476 13.1912C7.09309 13.1795 7.75809 12.5135 7.75809 11.6956C7.75809 10.8661 7.09309 10.2001 6.26476 10.2001Z" fill="#1776BA"/>
</svg>
