<svg width="28" height="28" viewBox="0 0 28 28" fill="none" xmlns="http://www.w3.org/2000/svg">
<path d="M18.2649 9.01784V10.5071C17.1219 10.0222 15.9789 10.0222 14.8359 10.334V9.01783C14.8359 8.84466 14.9745 8.67149 15.1823 8.67149H17.9185C18.1263 8.67149 18.2649 8.81007 18.2649 9.01784Z" fill="black"/>
<path d="M21.0359 13.2783C20.7241 12.551 20.2738 11.9275 19.7197 11.4081V11.1309C19.7197 10.9232 19.8583 10.7846 20.0661 10.7846H22.8023C22.9755 10.7846 23.1486 10.9231 23.1486 11.1309V18.4737C22.0749 17.6079 21.1744 16.9498 21.1398 16.9498C21.5554 15.8068 21.5554 14.4907 21.0359 13.2784L21.0359 13.2783Z" fill="black"/>
<path d="M24.4997 24.1537C24.4997 24.3614 24.3265 24.5 24.1533 24.5H2.67934C2.47158 24.5 2.33301 24.3614 2.33301 24.1537V2.67967C2.33301 2.5065 2.47157 2.33333 2.67934 2.33333C2.85251 2.33333 3.02568 2.5065 3.02568 2.67967V23.8071H5.13847V5.27707C5.13847 5.0693 5.27703 4.93074 5.4848 4.93074H8.22104C8.4288 4.93074 8.56737 5.0693 8.56737 5.27707V23.8071H10.0221V10.507C10.0221 10.3338 10.1607 10.1606 10.3684 10.1606H13.0701C13.2433 10.1606 13.4164 10.3338 13.4164 10.507V11.0265C10.4724 13.0353 10.4378 17.4341 13.4164 19.4776V23.807H14.8711V20.1701C15.9101 20.4819 17.0879 20.4473 18.1615 20.0316L18.2654 20.1701V23.807H19.7202V21.9367C20.5168 22.8719 21.5558 23.9803 23.1491 23.5992V23.807H24.1535C24.3266 23.807 24.4998 23.9802 24.4998 24.1533L24.4997 24.1537Z" fill="black"/>
<path d="M23.7722 22.491C23.1833 23.1145 21.9365 23.2183 20.9667 22.2487C20.5164 21.7984 19.5813 20.69 18.8193 19.7203C19.7199 19.2354 20.4126 18.4388 20.8629 17.6422C21.6249 18.1963 22.4561 18.8543 23.0449 19.3392C24.0839 20.1703 24.6727 21.5558 23.7721 22.491L23.7722 22.491Z" fill="black"/>
<path d="M12.7928 17.9539C10.8878 15.4602 12.1001 11.8235 15.1133 10.992C19.4428 9.7798 22.6292 15.1136 19.4775 18.3347C17.6072 20.2397 14.4553 20.1012 12.7927 17.9538L12.7928 17.9539ZM15.3212 11.65C12.7929 12.3427 11.7537 15.4252 13.347 17.5032C14.8018 19.3735 17.4687 19.4082 18.9925 17.815C21.6246 15.1133 18.9577 10.611 15.3211 11.6499L15.3212 11.65Z" fill="black"/>
<path d="M18.5419 14.9752L17.6413 15.8758L17.8491 17.1227C17.8491 17.2267 17.8145 17.3305 17.7451 17.3998C17.6759 17.469 17.5373 17.469 17.4334 17.4344L16.2904 16.8456L15.1474 17.4344C15.0434 17.469 14.9396 17.469 14.8357 17.3998C14.7665 17.3306 14.6971 17.2267 14.7317 17.1227L14.9395 15.8758L14.0389 14.9752C13.9697 14.906 13.9349 14.7674 13.9697 14.6635C14.0043 14.5595 14.1083 14.4903 14.2121 14.4557L15.459 14.2825L16.0131 13.1395C16.1171 12.9318 16.4288 12.9318 16.5326 13.1395L17.0867 14.2825L18.3337 14.4557C18.4376 14.4557 18.5414 14.5597 18.576 14.6635C18.6459 14.8019 18.6113 14.9058 18.5419 14.9752H18.5419Z" fill="black"/>
</svg>
