<svg width="24" height="24" viewBox="0 0 24 24" fill="none" xmlns="http://www.w3.org/2000/svg">
<path d="M4.5737 12.0003C4.5737 10.4328 5.84786 9.15866 7.41536 9.15866H11.082V7.41699H7.41536C4.88536 7.41699 2.83203 9.47033 2.83203 12.0003C2.83203 14.5303 4.88536 16.5837 7.41536 16.5837H11.082V14.842H7.41536C5.84786 14.842 4.5737 13.5678 4.5737 12.0003ZM8.33203 12.917H15.6654V11.0837H8.33203V12.917ZM16.582 7.41699H12.9154V9.15866H16.582C18.1495 9.15866 19.4237 10.4328 19.4237 12.0003C19.4237 13.5678 18.1495 14.842 16.582 14.842H12.9154V16.5837H16.582C19.112 16.5837 21.1654 14.5303 21.1654 12.0003C21.1654 9.47033 19.112 7.41699 16.582 7.41699Z" fill="black" fill-opacity="0.54"/>
</svg>
