<svg width="24" height="24" viewBox="0 0 24 24" fill="none" xmlns="http://www.w3.org/2000/svg">
<path d="M11.9895 2.83301C6.92953 2.83301 2.83203 6.93967 2.83203 11.9997C2.83203 17.0597 6.92953 21.1663 11.9895 21.1663C17.0587 21.1663 21.1654 17.0597 21.1654 11.9997C21.1654 6.93967 17.0587 2.83301 11.9895 2.83301ZM11.9987 19.333C7.94703 19.333 4.66536 16.0513 4.66536 11.9997C4.66536 7.94801 7.94703 4.66634 11.9987 4.66634C16.0504 4.66634 19.332 7.94801 19.332 11.9997C19.332 16.0513 16.0504 19.333 11.9987 19.333ZM15.207 11.083C15.9679 11.083 16.582 10.4688 16.582 9.70801C16.582 8.94717 15.9679 8.33301 15.207 8.33301C14.4462 8.33301 13.832 8.94717 13.832 9.70801C13.832 10.4688 14.4462 11.083 15.207 11.083ZM8.79036 11.083C9.5512 11.083 10.1654 10.4688 10.1654 9.70801C10.1654 8.94717 9.5512 8.33301 8.79036 8.33301C8.02953 8.33301 7.41536 8.94717 7.41536 9.70801C7.41536 10.4688 8.02953 11.083 8.79036 11.083ZM11.9987 17.0413C14.1345 17.0413 15.9495 15.703 16.6829 13.833H7.31453C8.04786 15.703 9.86286 17.0413 11.9987 17.0413Z" fill="black" fill-opacity="0.54"/>
</svg>
