<svg width="24" height="24" viewBox="0 0 24 24" fill="none" xmlns="http://www.w3.org/2000/svg">
<path d="M16.1263 6.50033V17.042C16.1263 19.0678 14.4855 20.7087 12.4596 20.7087C10.4338 20.7087 8.79297 19.0678 8.79297 17.042V5.58366C8.79297 4.31866 9.81964 3.29199 11.0846 3.29199C12.3496 3.29199 13.3763 4.31866 13.3763 5.58366V15.2087C13.3763 15.7128 12.9638 16.1253 12.4596 16.1253C11.9555 16.1253 11.543 15.7128 11.543 15.2087V6.50033H10.168V15.2087C10.168 16.4737 11.1946 17.5003 12.4596 17.5003C13.7246 17.5003 14.7513 16.4737 14.7513 15.2087V5.58366C14.7513 3.55783 13.1105 1.91699 11.0846 1.91699C9.0588 1.91699 7.41797 3.55783 7.41797 5.58366V17.042C7.41797 19.8287 9.67297 22.0837 12.4596 22.0837C15.2463 22.0837 17.5013 19.8287 17.5013 17.042V6.50033H16.1263Z" fill="black" fill-opacity="0.54"/>
</svg>
