<svg width="24" height="24" viewBox="0 0 24 24" fill="none" xmlns="http://www.w3.org/2000/svg">
<path fill-rule="evenodd" clip-rule="evenodd" d="M6.18744 20.7077C5.52744 20.7077 4.92244 20.3593 4.60161 19.791L2.43828 16.0327C2.10828 15.4643 2.11744 14.7677 2.44744 14.1993L8.25911 4.19852C8.58911 3.63935 9.19411 3.29102 9.84494 3.29102H11.499H11.9899H14.1443C14.7951 3.29102 15.4001 3.63935 15.7301 4.19852L21.5418 14.1993C21.8718 14.7677 21.881 15.4643 21.551 16.0327L19.3876 19.791C19.0668 20.3593 18.4618 20.7077 17.8018 20.7077H11.9993L11.9899 20.6733V20.7077H6.18744ZM11.499 18.8743H11.9899H17.8018L19.956 15.1252L14.1443 5.12435H11.9993L11.9899 5.09001V5.12435H9.84494L4.03328 15.1252L6.18744 18.8743H11.499ZM7.64494 16.5827L6.97578 15.4185L11.1741 8.10352H11.499H11.9899H12.8151L17.0135 15.4185L16.3443 16.5827H11.9899H11.499H7.64494ZM11.499 14.7493H11.9899H14.511L11.9993 10.3402L11.9899 10.2983V10.3402L9.47828 14.7493H11.499Z" fill="black" fill-opacity="0.54"/>
</svg>
