<svg width="24" height="24" viewBox="0 0 24 24" fill="none" xmlns="http://www.w3.org/2000/svg">
<path d="M14.2904 14.0163L16.9487 15.5747L16.2154 16.7663L12.9154 14.7497V10.1663H14.2904V14.0163ZM21.1654 13.833C21.1654 17.8755 17.8745 21.1663 13.832 21.1663C11.9804 21.1663 10.2937 20.4697 9.0012 19.333H4.66536C3.6112 19.333 2.83203 18.5538 2.83203 17.4997V9.24967C2.83203 8.22301 3.64786 7.45301 4.66536 7.41634V6.95801C4.66536 4.67551 6.50786 2.83301 8.79036 2.83301C10.9354 2.83301 12.677 4.47384 12.8787 6.57301C13.1904 6.52717 13.5112 6.49967 13.832 6.49967C17.8745 6.49967 21.1654 9.79051 21.1654 13.833ZM6.4987 7.41634H11.082V6.73801C10.972 5.57384 9.98203 4.66634 8.79036 4.66634C7.52536 4.66634 6.4987 5.69301 6.4987 6.95801V7.41634ZM19.332 13.833C19.332 10.7988 16.8662 8.33301 13.832 8.33301C10.7979 8.33301 8.33203 10.7988 8.33203 13.833C8.33203 16.8672 10.7979 19.333 13.832 19.333C16.8662 19.333 19.332 16.8672 19.332 13.833Z" fill="black" fill-opacity="0.54"/>
</svg>
