<svg width="17" height="21" viewBox="0 0 17 21" fill="none" xmlns="http://www.w3.org/2000/svg">
<path d="M12.75 6.79864C15.0549 6.79864 17 7.16248 17 8.56621C17 9.97045 15.0421 10.3214 12.75 10.3214C10.4456 10.3214 8.5 9.95755 8.5 8.55382C8.5 7.14958 10.4579 6.79864 12.75 6.79864ZM12.75 -4.57764e-05C14.3114 -4.57764e-05 15.5624 1.2148 15.5624 2.73052C15.5624 4.24623 14.3114 5.46159 12.75 5.46159C11.1891 5.46159 9.93757 4.24623 9.93757 2.73052C9.93757 1.2148 11.1891 -4.57764e-05 12.75 -4.57764e-05Z" fill="black"/>
<path fill-rule="evenodd" clip-rule="evenodd" d="M6.7167 13.4876C9.68329 16.4534 10.3563 13.0223 12.2451 14.9098C14.0661 16.7303 15.1127 17.0951 12.8056 19.4016C12.5166 19.6338 10.6804 22.428 4.22751 15.9769C-2.22618 9.52502 0.566373 7.68698 0.798687 7.39806C3.11144 5.08515 3.46989 6.13785 5.29088 7.95833C7.17973 9.84665 3.75011 10.5219 6.7167 13.4876Z" fill="black"/>
</svg>
