<svg width="32" height="32" viewBox="0 0 32 32" fill="none" xmlns="http://www.w3.org/2000/svg">
<path d="M2.82173 16.9623C2.84631 16.9718 2.8716 16.9781 2.89689 16.9859C2.94326 16.9999 2.98962 17.0119 3.03845 17.0196C3.05109 17.0217 3.06303 17.027 3.07568 17.0284C3.11818 17.0333 3.15998 17.0358 3.20178 17.0358C3.27203 17.0358 3.34158 17.0284 3.40972 17.0147C3.45117 17.0062 3.4898 16.9915 3.52949 16.9785C3.55514 16.9701 3.58148 16.9648 3.60642 16.9546C3.65138 16.936 3.69283 16.9111 3.73427 16.8865C3.75148 16.8763 3.77045 16.8689 3.78731 16.8577C3.84492 16.819 3.89866 16.7751 3.94783 16.7259L6.64262 14.0312C7.05429 13.6198 7.05429 12.9525 6.64262 12.5412C6.23131 12.1295 5.56393 12.1295 5.15262 12.5412L4.62118 13.0726C5.9187 8.00406 10.5246 4.24568 15.9918 4.24568C20.5556 4.24568 24.7408 6.92396 26.6537 11.0694C26.8971 11.5977 27.5237 11.8281 28.0517 11.5847C28.5803 11.3409 28.8107 10.7147 28.5669 10.1864C26.3109 5.29733 21.3748 2.13818 15.9918 2.13818C9.44419 2.13818 3.94748 6.709 2.51544 12.826L2.13011 12.1927C1.82734 11.6953 1.17928 11.5373 0.681911 11.8404C0.184892 12.1428 0.0268299 12.7912 0.329607 13.2886L2.30152 16.5296C2.30539 16.5359 2.31101 16.5405 2.31487 16.5468C2.34754 16.5977 2.38512 16.6448 2.42587 16.6894C2.43535 16.7 2.44308 16.7119 2.45291 16.7221C2.5049 16.7744 2.56215 16.8211 2.62432 16.8619C2.64048 16.8724 2.65839 16.8798 2.67525 16.8896C2.72197 16.917 2.77044 16.9423 2.82173 16.9623Z" fill="black"/>
<path d="M31.634 18.6754L29.662 15.4344C29.6585 15.4284 29.6533 15.4238 29.6494 15.4179C29.616 15.3655 29.5774 15.3171 29.5356 15.2714C29.5272 15.2619 29.5201 15.251 29.5114 15.2419C29.4594 15.1892 29.4018 15.1425 29.3396 15.1017C29.3238 15.0912 29.3062 15.0842 29.2897 15.0747C29.2423 15.0469 29.1935 15.0217 29.1418 15.0016C29.1173 14.9922 29.092 14.9862 29.0667 14.9785C29.0203 14.9644 28.9739 14.9525 28.9251 14.9447C28.9125 14.9426 28.9005 14.9374 28.8875 14.9359C28.8693 14.9338 28.8514 14.937 28.8331 14.9356C28.8092 14.9338 28.7864 14.9282 28.7621 14.9282C28.7407 14.9282 28.721 14.9331 28.7 14.9345C28.6673 14.9363 28.6353 14.9395 28.603 14.9444C28.5581 14.9511 28.5152 14.9616 28.4724 14.9739C28.4443 14.982 28.4165 14.9893 28.3895 14.9995C28.342 15.0174 28.2974 15.0403 28.2535 15.0645C28.2328 15.0761 28.2114 15.0852 28.1914 15.0982C28.1281 15.139 28.0688 15.185 28.0157 15.238L25.3209 17.9328C24.9093 18.3441 24.9093 19.0115 25.3209 19.4228C25.7326 19.8345 26.3993 19.8345 26.8109 19.4228L27.3424 18.8914C26.0449 23.9599 21.4389 27.7183 15.9717 27.7183C11.2443 27.7183 6.99939 24.9044 5.15744 20.55C4.93053 20.014 4.31268 19.7621 3.77632 19.9901C3.24032 20.217 2.98952 20.8348 3.21643 21.3712C5.38891 26.5072 10.3956 29.8258 15.9717 29.8258C22.5194 29.8258 28.0161 25.255 29.4481 19.1376L29.8335 19.7709C30.0316 20.0969 30.3789 20.2767 30.7344 20.2767C30.9209 20.2767 31.1099 20.2272 31.2813 20.1232C31.7787 19.8208 31.9367 19.1727 31.634 18.6754Z" fill="black"/>
</svg>
