<svg width="28" height="28" viewBox="0 0 28 28" fill="none" xmlns="http://www.w3.org/2000/svg">
<path d="M21.5 14.8334C21.5 10.6975 18.1358 7.33334 14 7.33334C9.8642 7.33334 6.5 10.6975 6.5 14.8334C6.5 18.9692 9.8642 22.3334 14 22.3334C18.1358 22.3334 21.5 18.9692 21.5 14.8334ZM14 20.6667C10.7839 20.6667 8.16667 18.0495 8.16667 14.8334C8.16667 11.6172 10.7839 9.00001 14 9.00001C17.2162 9.00001 19.8334 11.6172 19.8334 14.8334C19.8334 18.0495 17.2162 20.6667 14 20.6667Z" fill="black"/>
<path d="M22.0895 20.0777C21.8252 19.8133 21.4327 19.775 21.1185 19.94L20.8057 19.6271C20.2545 20.4071 19.5739 21.0877 18.7939 21.6389L19.1068 21.9517C18.9418 22.2661 18.9801 22.6584 19.2445 22.9227L21.3994 25.0777C21.7794 25.4577 22.2839 25.6668 22.8219 25.6668C23.359 25.6668 23.8635 25.4577 24.2452 25.0767C25.0281 24.2921 25.0281 23.0161 24.2445 22.2324L22.0895 20.0777Z" fill="black"/>
<path d="M14 9.83337C11.2387 9.83337 9 12.072 9 14.8334C9 17.3153 10.8103 19.3693 13.1814 19.7605C13.2201 19.3361 13.5655 18.9999 14 18.9999C14.4345 18.9999 14.78 19.336 14.8186 19.7605C17.1897 19.3692 19 17.3152 19 14.8334C19 12.072 16.7613 9.83337 14 9.83337ZM15.0503 15.8529C14.6661 16.0304 14.418 16.4576 14.418 16.9402V17.7499C14.418 17.9801 14.2316 18.1665 14.0013 18.1665C13.7711 18.1665 13.5847 17.9801 13.5847 17.7499V16.9402C13.5847 16.1345 14.0225 15.4102 14.7004 15.096C15.4459 14.7517 15.8194 13.9437 15.6094 13.1323C15.4655 12.574 15.0105 12.1191 14.4523 11.9751C13.9273 11.8376 13.3927 11.945 12.9816 12.2649C12.5707 12.583 12.3347 13.064 12.3347 13.5832C12.3347 13.8135 12.1483 13.9999 11.918 13.9999C11.6877 13.9999 11.5013 13.8135 11.5013 13.5832C11.5013 12.8044 11.8546 12.0834 12.4714 11.6057C13.0892 11.128 13.8858 10.9694 14.6606 11.1678C15.5077 11.3875 16.1971 12.0769 16.4167 12.924C16.7235 14.113 16.1489 15.3444 15.0503 15.8529L15.0503 15.8529Z" fill="black"/>
<path d="M24 4.83335C24 6.21411 22.8808 7.33335 21.5 7.33335C20.1192 7.33335 19 6.21411 19 4.83335C19 3.45258 20.1192 2.33334 21.5 2.33334C22.8808 2.33334 24 3.45258 24 4.83335Z" fill="black"/>
<path d="M23.1669 7.33336H19.8336C19.3066 7.33336 18.8187 7.49929 18.415 7.77868C19.8272 8.66577 20.9573 9.9593 21.6329 11.5H25.6669V9.83335C25.6669 8.45482 24.5454 7.33336 23.1669 7.33336Z" fill="black"/>
<path d="M9.00001 4.83335C9.00001 6.21411 7.88077 7.33335 6.50001 7.33335C5.11924 7.33335 4 6.21411 4 4.83335C4 3.45258 5.11924 2.33334 6.50001 2.33334C7.88077 2.33334 9.00001 3.45258 9.00001 4.83335Z" fill="black"/>
<path d="M9.58537 7.7786C9.18172 7.49921 8.6938 7.33328 8.16684 7.33328H4.8335C3.45498 7.33328 2.3335 8.45476 2.3335 9.83329V11.5H6.36755C7.04317 9.95924 8.17317 8.66565 9.58537 7.7786Z" fill="black"/>
</svg>
