<svg width="28" height="28" viewBox="0 0 28 28" fill="none" xmlns="http://www.w3.org/2000/svg">
<path d="M16.0643 12.743C16.2864 12.743 16.4681 12.5612 16.4681 12.3391C16.4681 12.117 16.2864 11.9352 16.0643 11.9352H14.782C14.676 11.9352 14.57 11.9756 14.4942 12.0513L14.1611 12.3845C13.9339 12.6117 13.6259 12.7379 13.3028 12.7379H9.875C10.0315 13.2983 10.2536 13.8435 10.5363 14.3534H13.429C13.636 14.3534 13.8379 14.4039 14.0197 14.5048L16.6297 15.9537C17.0184 16.1708 17.4929 16.1556 17.8665 15.9184L21.1429 13.8334C21.3145 13.7274 21.365 13.5002 21.2539 13.3285C21.158 13.1771 20.9611 13.1165 20.7945 13.1922L18.2098 14.3685C17.604 14.6411 16.9023 14.6058 16.3369 14.2625L15.1455 13.5507H14.8527V12.7429L16.0643 12.743Z" fill="black"/>
<path d="M20.9368 6.93745L18.3268 5.48856C17.9381 5.27149 17.4636 5.28663 17.09 5.5239L13.8136 7.60886C13.642 7.71488 13.5915 7.94206 13.7026 8.11372C13.7985 8.26517 13.9954 8.32575 14.162 8.25002L16.7467 7.07378C17.3525 6.80117 18.0542 6.83651 18.6196 7.1798L19.8161 7.89665H20.1089V8.70438H18.8973C18.6752 8.70438 18.4934 8.88612 18.4934 9.10824C18.4934 9.33037 18.6752 9.51211 18.8973 9.51211H20.1796C20.2856 9.51211 20.3916 9.47172 20.4673 9.396L20.8005 9.06281C21.0277 8.83563 21.3356 8.70943 21.6587 8.70943H24.6928C24.5413 8.14905 24.3293 7.60385 24.0516 7.09397H21.5325C21.3205 7.08892 21.1185 7.03842 20.9368 6.93745Z" fill="black"/>
<path d="M18.4073 7.99766L18.2003 7.87145C17.857 7.66447 17.438 7.64427 17.0745 7.80582L15.1006 8.70443H17.7459C17.862 8.38639 18.0993 8.13399 18.4072 7.99769L18.4073 7.99766Z" fill="black"/>
<path d="M4.75684 11.1275H7.18003V15.9739H4.75684V11.1275Z" fill="black"/>
<path d="M9.60288 10.8298C9.60793 11.2034 9.63822 11.5719 9.6988 11.9354H13.3033C13.4093 11.9354 13.5153 11.895 13.5911 11.8193L13.9243 11.4861C14.0707 11.3397 14.2473 11.2336 14.4443 11.1781V9.00227C13.8435 9.24459 13.162 8.96189 12.9146 8.36112C12.7026 7.8361 12.8944 7.23533 13.3689 6.92742L16.6453 4.84246C17.2713 4.44364 18.0638 4.4184 18.71 4.78188L21.3301 6.23076C21.3907 6.2661 21.4563 6.28125 21.527 6.28125H23.5463C22.1278 4.27706 19.8308 3.07557 17.3771 3.05032H17.2711C13.0355 3.05032 9.59766 6.48821 9.59766 10.7238C9.6027 10.7591 9.6027 10.7944 9.6027 10.8298L9.60288 10.8298Z" fill="black"/>
<path d="M17.7517 9.51206H16.8733V10.3198H16.0655V9.51206H15.2578V11.1275H16.0655C16.737 11.1275 17.2771 11.6677 17.2771 12.3391C17.2771 12.8238 16.9894 13.2579 16.5502 13.4497L16.7572 13.5759C17.1005 13.7829 17.5195 13.8031 17.883 13.6416L19.2965 13.0004V10.3248H18.8926C18.3777 10.3197 17.9233 9.99668 17.7517 9.51206Z" fill="black"/>
<path d="M13.924 22.4103C13.51 21.8601 13.6211 21.0776 14.1713 20.6687C14.3884 20.5071 14.651 20.4213 14.9185 20.4213H16.0645V19.1188C14.3127 18.8614 12.6821 18.0486 11.3695 16.7613C9.80955 15.2367 8.91094 13.2476 8.80497 11.1275H7.98713V16.7816H3.94847V11.1275H2.73687C2.51475 11.1275 2.33301 11.3092 2.33301 11.5313V25.2628C2.33301 25.4849 2.51475 25.6666 2.73687 25.6666H15.6606C15.8827 25.6666 16.0644 25.4849 16.0644 25.2628V23.1122L14.7165 22.885C14.3985 22.8396 14.1158 22.6629 13.924 22.4105L13.924 22.4103ZM5.9676 22.0317H5.15986V22.8394H4.35213V22.0317H3.5444V21.224H4.35213V20.4162H5.15986V21.224H5.9676V22.0317ZM11.5663 22.9505C11.2836 24.258 9.99125 25.0859 8.68374 24.8032C7.37623 24.5205 6.54829 23.2282 6.83099 21.9207C6.98244 21.2291 7.42165 20.6434 8.04259 20.3052C8.32529 18.9977 9.61766 18.1647 10.9252 18.4524C12.2327 18.7402 13.0657 20.0275 12.7779 21.335C12.6265 22.0216 12.1873 22.6123 11.5663 22.9505Z" fill="black"/>
<path d="M23.0768 20.4164H20.1033C19.8812 20.4164 19.6995 20.5982 19.6995 20.8203C19.6995 21.0424 19.8812 21.2241 20.1033 21.2241H21.3856C21.7087 21.2241 22.0166 21.3504 22.2438 21.5775L22.8143 22.148L22.2438 22.7184L21.6683 22.148C21.5926 22.0722 21.4916 22.0319 21.3805 22.0319H20.1033C19.5884 22.0319 19.134 21.7088 18.9624 21.2241H14.9187C14.6764 21.2241 14.4795 21.421 14.4795 21.6633C14.4795 21.7592 14.5098 21.8501 14.5653 21.9258C14.6309 22.0167 14.7319 22.0773 14.843 22.0924L22.0719 23.299L22.4102 25.6667H24.7273L23.4653 20.7192C23.4249 20.5425 23.2633 20.4163 23.0765 20.4163L23.0768 20.4164Z" fill="black"/>
<path d="M24.0673 15.4288C23.9259 14.9946 23.9613 14.5201 24.1632 14.1112C24.6832 13.0561 24.9558 11.8949 24.9507 10.7187C24.9507 10.3148 24.9204 9.90595 24.8548 9.50711H21.6491C21.5431 9.50711 21.4371 9.5475 21.3614 9.62322L21.0282 9.95641C20.801 10.1836 20.493 10.3098 20.17 10.3098H20.1043V12.6219L20.4678 12.4553C21.0585 12.1878 21.7501 12.4503 22.0227 13.0359C22.265 13.5659 22.0782 14.197 21.5835 14.51L18.3072 16.595C17.6812 16.9938 16.8886 17.019 16.2424 16.6556L13.6274 15.2168C13.5668 15.1815 13.5012 15.1663 13.4305 15.1663H11.0527C11.3152 15.5298 11.608 15.868 11.9311 16.181C13.4053 17.6248 15.3286 18.4124 17.3379 18.3972C18.4586 18.3922 19.5591 18.1398 20.5688 17.6551C20.9575 17.4683 21.4068 17.433 21.8208 17.5592L24.5721 18.3821C24.7134 18.4225 24.8649 18.3417 24.9053 18.2003C24.9204 18.1499 24.9204 18.0943 24.9053 18.0388L24.0673 15.4288Z" fill="black"/>
<path d="M10.8139 22.4357C10.8139 23.3278 10.0906 24.0512 9.19847 24.0512C8.30637 24.0512 7.58301 23.3278 7.58301 22.4357C7.58301 21.5436 8.30637 20.8203 9.19847 20.8203C10.0906 20.8203 10.8139 21.5436 10.8139 22.4357Z" fill="black"/>
<path d="M10.4103 19.2048C9.82971 19.2048 9.29457 19.5178 9.00684 20.0227C9.07247 20.0176 9.13305 20.0126 9.19867 20.0126C10.3446 20.0126 11.3341 20.8203 11.5714 21.941C12.1923 21.2998 12.1772 20.2801 11.536 19.6591C11.2331 19.3663 10.8293 19.2048 10.4103 19.2048Z" fill="black"/>
<path d="M10.8255 2.9593L10.3106 2.33333C8.95259 3.46415 7.89243 4.89785 7.21094 6.5285L7.95811 6.84149C8.58408 5.33205 9.56854 3.9993 10.8256 2.95935L10.8255 2.9593Z" fill="black"/>
<path d="M7.56817 7.94178L6.79072 7.71965C6.62917 8.29009 6.51306 8.87572 6.44238 9.46638L7.24508 9.55725C7.31071 9.01206 7.41672 8.47183 7.56817 7.94178Z" fill="black"/>
</svg>
