<svg width="24" height="24" viewBox="0 0 24 24" fill="none" xmlns="http://www.w3.org/2000/svg">
<path fill-rule="evenodd" clip-rule="evenodd" d="M24 7.1004C24 2.8536 21.2676 0 17.202 0H6.7992C2.7324 0 0 2.8536 0 7.1004V16.9008C0 21.1476 2.7324 24 6.7992 24H17.2008C21.2676 24 24 21.1476 24 16.9008V7.1004ZM11.568 18.04V18.728C11.568 19.055 11.833 19.32 12.16 19.32C12.487 19.32 12.752 19.055 12.752 18.728V18.04C13.264 17.9867 13.728 17.8747 14.144 17.704C14.5707 17.5333 14.928 17.3093 15.216 17.032C15.5147 16.7547 15.744 16.4347 15.904 16.072C16.064 15.7093 16.144 15.3093 16.144 14.872C16.144 13.176 15.152 12.0667 13.168 11.544L12.752 11.416V7.56C13.232 7.64533 13.6373 7.83733 13.968 8.136C14.108 8.25852 14.2283 8.3945 14.3288 8.54393C14.572 8.90538 14.9885 9.17932 15.4094 9.06736C15.8169 8.959 16.0711 8.53739 15.8873 8.15795C15.6691 7.7074 15.36 7.32142 14.96 7C14.3627 6.50933 13.6267 6.216 12.752 6.12V5.592C12.752 5.26505 12.487 5 12.16 5C11.833 5 11.568 5.26505 11.568 5.592V6.12C11.0987 6.17333 10.6667 6.296 10.272 6.488C9.888 6.68 9.55733 6.92 9.28 7.208C9.00267 7.496 8.784 7.82667 8.624 8.2C8.47467 8.56267 8.4 8.952 8.4 9.368C8.4 10.2107 8.63467 10.888 9.104 11.4C9.57333 11.912 10.2613 12.2907 11.168 12.536L11.568 12.648V16.6C10.9813 16.5147 10.512 16.3173 10.16 16.008C10.0012 15.8637 9.87179 15.6998 9.77162 15.5165C9.56251 15.1337 9.17949 14.8157 8.74855 14.883C8.33273 14.948 8.03503 15.339 8.17521 15.7358C8.36492 16.2728 8.67985 16.7315 9.12 17.112C9.74933 17.6453 10.5653 17.9547 11.568 18.04ZM11.568 7.576C11.0773 7.68267 10.688 7.90133 10.4 8.232C10.1227 8.56267 9.984 8.93067 9.984 9.336C9.984 9.79467 10.112 10.168 10.368 10.456C10.624 10.7333 11.024 10.9467 11.568 11.096V7.576ZM14.592 14.824C14.592 14.312 14.4373 13.9173 14.128 13.64C13.8187 13.3627 13.392 13.1493 12.848 13L12.752 12.968V16.616C13.3707 16.5307 13.8293 16.3227 14.128 15.992C14.4373 15.6613 14.592 15.272 14.592 14.824Z" fill="black"/>
</svg>
