<svg width="28" height="28" viewBox="0 0 28 28" fill="none" xmlns="http://www.w3.org/2000/svg">
<path fill-rule="evenodd" clip-rule="evenodd" d="M26 9.1004C26 4.8536 23.2676 2 19.202 2H8.7992C4.7324 2 2 4.8536 2 9.1004V18.9008C2 23.1476 4.7324 26 8.7992 26H19.2008C23.2676 26 26 23.1476 26 18.9008V9.1004ZM13.568 20.04V20.728C13.568 21.055 13.833 21.32 14.16 21.32C14.487 21.32 14.752 21.055 14.752 20.728V20.04C15.264 19.9867 15.728 19.8747 16.144 19.704C16.5707 19.5333 16.928 19.3093 17.216 19.032C17.5147 18.7547 17.744 18.4347 17.904 18.072C18.064 17.7093 18.144 17.3093 18.144 16.872C18.144 15.176 17.152 14.0667 15.168 13.544L14.752 13.416V9.56C15.232 9.64533 15.6373 9.83733 15.968 10.136C16.108 10.2585 16.2283 10.3945 16.3288 10.5439C16.572 10.9054 16.9885 11.1793 17.4094 11.0674C17.8169 10.959 18.0711 10.5374 17.8873 10.1579C17.6691 9.7074 17.36 9.32142 16.96 9C16.3627 8.50933 15.6267 8.216 14.752 8.12V7.592C14.752 7.26505 14.487 7 14.16 7C13.833 7 13.568 7.26505 13.568 7.592V8.12C13.0987 8.17333 12.6667 8.296 12.272 8.488C11.888 8.68 11.5573 8.92 11.28 9.208C11.0027 9.496 10.784 9.82667 10.624 10.2C10.4747 10.5627 10.4 10.952 10.4 11.368C10.4 12.2107 10.6347 12.888 11.104 13.4C11.5733 13.912 12.2613 14.2907 13.168 14.536L13.568 14.648V18.6C12.9813 18.5147 12.512 18.3173 12.16 18.008C12.0012 17.8637 11.8718 17.6998 11.7716 17.5165C11.5625 17.1337 11.1795 16.8157 10.7485 16.883C10.3327 16.948 10.035 17.339 10.1752 17.7358C10.3649 18.2728 10.6798 18.7315 11.12 19.112C11.7493 19.6453 12.5653 19.9547 13.568 20.04ZM13.568 9.576C13.0773 9.68267 12.688 9.90133 12.4 10.232C12.1227 10.5627 11.984 10.9307 11.984 11.336C11.984 11.7947 12.112 12.168 12.368 12.456C12.624 12.7333 13.024 12.9467 13.568 13.096V9.576ZM16.592 16.824C16.592 16.312 16.4373 15.9173 16.128 15.64C15.8187 15.3627 15.392 15.1493 14.848 15L14.752 14.968V18.616C15.3707 18.5307 15.8293 18.3227 16.128 17.992C16.4373 17.6613 16.592 17.272 16.592 16.824Z" fill="black"/>
</svg>
