<svg width="28" height="28" viewBox="0 0 28 28" fill="none" xmlns="http://www.w3.org/2000/svg">
<path d="M9.91987 15.4696C11.3299 15.4696 12.4599 16.6106 12.4599 18.0306V21.4396C12.4599 22.8496 11.3299 23.9996 9.91987 23.9996H6.53989C5.1399 23.9996 3.9999 22.8496 3.9999 21.4396V18.0306C3.9999 16.6106 5.1399 15.4696 6.53989 15.4696H9.91987ZM21.4599 15.4696C22.8599 15.4696 23.9999 16.6106 23.9999 18.0306V21.4396C23.9999 22.8496 22.8599 23.9996 21.4599 23.9996H18.0799C16.6699 23.9996 15.5399 22.8496 15.5399 21.4396V18.0306C15.5399 16.6106 16.6699 15.4696 18.0799 15.4696H21.4599ZM9.91987 4C11.3299 4 12.4599 5.14999 12.4599 6.56099V9.96997C12.4599 11.39 11.3299 12.53 9.91987 12.53H6.53989C5.1399 12.53 3.9999 11.39 3.9999 9.96997V6.56099C3.9999 5.14999 5.1399 4 6.53989 4H9.91987ZM21.4599 4C22.8599 4 23.9999 5.14999 23.9999 6.56099V9.96997C23.9999 11.39 22.8599 12.53 21.4599 12.53H18.0799C16.6699 12.53 15.5399 11.39 15.5399 9.96997V6.56099C15.5399 5.14999 16.6699 4 18.0799 4H21.4599Z" fill="#1776BA"/>
</svg>
