<svg width="18" height="16" viewBox="0 0 18 16" fill="none" xmlns="http://www.w3.org/2000/svg">
<path d="M3.58533 6.49219H0.62248C0.345841 6.49219 0.128662 6.70936 0.128662 6.98601V14.8871C0.128662 15.1637 0.345832 15.3809 0.62248 15.3809H3.58533C3.86196 15.3809 4.07888 15.1637 4.07888 14.8871L4.07901 6.98633C4.07926 6.70957 3.86209 6.49238 3.58532 6.49238L3.58533 6.49219Z" fill="white"/>
<path d="M17.8716 7.42847C17.8716 6.62385 17.3191 5.80941 16.2639 5.80941H11.4799C12.1633 4.58683 12.3644 2.86728 11.8892 1.60935C11.5402 0.684009 10.8733 0.143932 10.0103 0.0890526L9.99631 0.087909C9.43464 0.0534718 8.94859 0.474213 8.90181 1.03485C8.77881 2.2827 8.232 4.48995 7.44846 5.27362C6.78871 5.93338 6.22397 6.20976 5.2877 6.6675C5.15224 6.73383 5.0042 6.80614 4.84766 6.88416C4.85045 6.91809 4.85223 6.95189 4.85223 6.98658V14.807C4.9652 14.8458 5.07677 14.8841 5.18642 14.9217C6.73151 15.4543 8.0668 15.9141 10.1077 15.9141H13.9753C15.0307 15.9141 15.583 15.0994 15.583 14.295C15.583 14.0562 15.5346 13.8168 15.4387 13.5976C15.7902 13.5345 16.0979 13.3653 16.3259 13.1066C16.5846 12.8125 16.7272 12.4218 16.7272 12.0061C16.7272 11.7681 16.6788 11.5288 16.5832 11.3101C17.4305 11.1639 17.8717 10.4365 17.8717 9.71752C17.8717 9.30048 17.7232 8.8806 17.4333 8.57322C17.7226 8.26557 17.8715 7.84573 17.8715 7.42865L17.8716 7.42847Z" fill="white"/>
</svg>
