<svg width="28" height="28" viewBox="0 0 28 28" fill="none" xmlns="http://www.w3.org/2000/svg">
<path d="M11.5095 3.36705C12.875 1.99155 15.1041 1.99155 16.4813 3.35655L17.3332 4.20705C17.66 4.53371 18.1035 4.72155 18.5704 4.72155H19.7725C21.7098 4.72155 23.2854 6.29538 23.2854 8.23205V9.43488C23.2854 9.90038 23.4721 10.3437 23.7989 10.6704L24.6392 11.5104C25.3045 12.1637 25.6663 13.0504 25.6663 13.9837C25.6779 14.917 25.3161 15.8049 24.6626 16.4687L23.7989 17.332C23.4721 17.6587 23.2854 18.102 23.2854 18.5699V19.7704C23.2854 21.707 21.7098 23.2832 19.7725 23.2832H18.5704C18.1035 23.2832 17.66 23.4687 17.3332 23.7954L16.4929 24.6354C15.8043 25.3249 14.9057 25.662 14.007 25.662C13.1084 25.662 12.2097 25.3249 11.5211 24.6482L10.6692 23.7954C10.3424 23.4687 9.89888 23.2832 9.43204 23.2832H8.22994C6.29257 23.2832 4.717 21.707 4.717 19.7704V18.5699C4.717 18.102 4.53026 17.6587 4.20348 17.3204L3.36317 16.492C1.99768 15.1282 1.98601 12.8987 3.3515 11.5232L4.20348 10.6704C4.53026 10.3437 4.717 9.90038 4.717 9.42205V8.23205C4.717 6.29538 6.29257 4.72155 8.22994 4.72155H9.43204C9.89888 4.72155 10.3424 4.53371 10.6692 4.20705L11.5095 3.36705ZM17.0065 15.9787C16.4346 15.9787 15.9794 16.4349 15.9794 16.9937C15.9794 17.5654 16.4346 18.0204 17.0065 18.0204C17.5667 18.0204 18.0218 17.5654 18.0218 16.9937C18.0218 16.4349 17.5667 15.9787 17.0065 15.9787ZM17.7184 10.2737C17.3216 9.87821 16.6797 9.87821 16.2829 10.2737L10.284 16.2704C9.88721 16.667 9.88721 17.3204 10.284 17.717C10.4707 17.9154 10.7275 18.0204 10.9959 18.0204C11.276 18.0204 11.5328 17.9154 11.7195 17.717L17.7184 11.7215C18.1152 11.3249 18.1152 10.6704 17.7184 10.2737ZM11.0076 9.98205C10.4474 9.98205 9.98057 10.437 9.98057 10.997C9.98057 11.5699 10.4474 12.0237 11.0076 12.0237C11.5678 12.0237 12.023 11.5699 12.023 10.997C12.023 10.437 11.5678 9.98205 11.0076 9.98205Z" fill="#1776BA"/>
</svg>
