<svg width="18" height="16" viewBox="0 0 18 16" fill="none" xmlns="http://www.w3.org/2000/svg">
<path d="M14.4149 9.50781H17.3778C17.6544 9.50781 17.8716 9.29064 17.8716 9.01399V1.1129C17.8716 0.836263 17.6544 0.619084 17.3778 0.619084H14.4149C14.1383 0.619084 13.9214 0.836253 13.9214 1.1129L13.9212 9.01367C13.921 9.29043 14.1381 9.50762 14.4149 9.50762L14.4149 9.50781Z" fill="white"/>
<path d="M0.128613 8.57153C0.128613 9.37615 0.681117 10.1906 1.73635 10.1906H6.52034C5.83693 11.4132 5.63589 13.1327 6.11104 14.3907C6.45999 15.316 7.12697 15.8561 7.98995 15.9109L8.00393 15.9121C8.56561 15.9465 9.05165 15.5258 9.09843 14.9652C9.22144 13.7173 9.76824 11.51 10.5518 10.7264C11.2115 10.0666 11.7763 9.79024 12.7125 9.3325C12.848 9.26617 12.996 9.19386 13.1526 9.11584C13.1498 9.08191 13.148 9.04811 13.148 9.01342V1.193C13.035 1.15425 12.9235 1.11587 12.8138 1.07826C11.2687 0.545694 9.93345 0.0859375 7.89256 0.0859375H4.02497C2.9695 0.0859375 2.41723 0.900607 2.41723 1.705C2.41723 1.94377 2.46564 2.18317 2.56158 2.40239C2.21009 2.46555 1.90231 2.63468 1.67437 2.89341C1.41565 3.18746 1.27307 3.57822 1.27307 3.99387C1.27307 4.23188 1.32148 4.47116 1.41704 4.68986C0.569712 4.83613 0.128528 5.56348 0.128528 6.28248C0.128528 6.69952 0.277076 7.1194 0.566945 7.42678C0.2776 7.73443 0.128788 8.15427 0.128788 8.57135L0.128613 8.57153Z" fill="white"/>
</svg>
