<svg width="19" height="19" viewBox="0 0 19 19" fill="none" xmlns="http://www.w3.org/2000/svg">
<path fill-rule="evenodd" clip-rule="evenodd" d="M14.6956 15.0648H4.36557V16.0486H14.6956V15.0648ZM10.3299 5.288H12.7279V1.41407H10.3299V5.288ZM4.79592 6.39479V0.491929H14.2652V6.39479C14.2652 6.51776 14.1422 6.57932 14.0807 6.57932H4.91889C4.85733 6.57932 4.79592 6.51776 4.79592 6.39479H4.79592ZM2.76678 8.055H16.2943V17.6471H2.76678V8.055ZM17.9546 19C18.5695 19 19 18.5695 19 17.9546V4.30429L14.6957 0H1.04536C0.491893 0 0 0.491892 0 1.04536V17.9546C0 18.5695 0.491893 19 1.04536 19H17.9546ZM14.6958 9.71536H4.36575V10.6378H14.6958V9.71536ZM14.6958 12.4208H4.36575V13.3432H14.6958V12.4208Z" fill="black"/>
</svg>
