<svg width="22" height="22" viewBox="0 0 22 22" fill="none" xmlns="http://www.w3.org/2000/svg">
<path d="M15.9894 0.316717C17.5278 0.220567 19.0449 0.754736 20.188 1.80171C21.235 2.94483 21.7691 4.46187 21.6837 6.01096V15.9893C21.7798 17.5383 21.235 19.0554 20.1987 20.1985C19.0555 21.2455 17.5278 21.7796 15.9894 21.6835H6.01101C4.46191 21.7796 2.94485 21.2455 1.80172 20.1985C0.75474 19.0554 0.220566 17.5383 0.316717 15.9893V6.01096C0.220566 4.46187 0.75474 2.94483 1.80172 1.80171C2.94485 0.754736 4.46191 0.220567 6.01101 0.316717H15.9894ZM15.7116 5.19903C15.0492 4.53666 13.9809 4.53666 13.3185 5.19903L12.6027 5.9255C12.4959 6.03233 12.4959 6.21395 12.6027 6.32078C12.6027 6.32078 12.6237 6.34162 12.661 6.37873L12.9238 6.64008C13.0758 6.79131 13.2655 6.98019 13.4561 7.17011L14.1021 7.81584C14.2369 7.95125 14.3263 8.042 14.3334 8.05149C14.451 8.17969 14.5257 8.35063 14.5257 8.54293C14.5257 8.92753 14.2159 9.24803 13.8206 9.24803C13.639 9.24803 13.4681 9.17325 13.3506 9.05573L11.5664 7.28229C11.481 7.19682 11.3314 7.19682 11.2459 7.28229L6.1499 12.3783C5.79734 12.7308 5.59436 13.2009 5.58367 13.703L5.51957 16.235C5.51957 16.3739 5.5623 16.5021 5.65846 16.5982C5.75461 16.6944 5.88281 16.7478 6.02169 16.7478H8.53231C9.04512 16.7478 9.53656 16.5448 9.91048 16.1816L17.1005 8.97026C17.7522 8.30789 17.7522 7.23955 17.1005 6.58787L15.7116 5.19903Z" fill="#2E3234"/>
</svg>
