<svg width="100%" height="100%" viewBox="0 0 20 20" fill="none" xmlns="http://www.w3.org/2000/svg" >
    <path d="M7.46008 12.3681L11.101 12.3792C11.328 12.38 11.5118 12.5702 11.5118 12.8032V14.8515C11.5118 15.0854 11.379 15.2969 11.172 15.3948L7.86703 16.9467C7.78981 16.9825 7.70795 17 7.6261 17C7.51722 17 7.40834 16.9682 7.31336 16.9053C7.14734 16.7956 7.04695 16.6063 7.04695 16.4034V12.7921C7.04695 12.5574 7.23228 12.3673 7.46008 12.3681ZM15.4039 2C16.2857 2 17 2.73579 17 3.64419V4.79282C17 5.2335 16.8278 5.65667 16.522 5.96531L11.6432 10.9003C11.5591 10.9862 11.4448 11.0339 11.3266 11.0331L7.2417 11.0204C7.11737 11.0204 6.99923 10.9671 6.91429 10.874L2.43089 5.94304C2.15367 5.63838 2 5.23588 2 4.81827V3.64499C2 2.73658 2.71429 2 3.59614 2H15.4039Z" fill="#737373" />
</svg>