<svg
                    width="100%"
                    height="100%"
                    viewBox="0 0 20 20"
                    fill="none"
                    xmlns="http://www.w3.org/2000/svg"
                  >
                    <path
                      d="M9.57035 10.3106H10.429C12.6943 10.3106 14.548 12.1348 14.548 14.3654V14.7362C14.548 15.3673 14.0248 15.8824 13.383 15.8824H6.61572C5.97394 15.8824 5.45074 15.3673 5.45074 14.7362V14.3654C5.45074 12.1354 7.30444 10.3106 9.57035 10.3106ZM3.90082 4.11768C2.66164 4.11768 1.65774 5.10592 1.65774 6.32578C1.65774 7.54564 2.66164 8.53389 3.90082 8.53389C5.13936 8.53389 6.1439 7.54564 6.1439 6.32578C6.1439 5.10655 5.13999 4.11768 3.90082 4.11768ZM16.0992 4.11768C17.3384 4.11768 18.3423 5.10592 18.3423 6.32578C18.3423 7.54564 17.3384 8.53389 16.0992 8.53389C14.8606 8.53389 13.8561 7.54564 13.8561 6.32578C13.8561 5.10655 14.86 4.11768 16.0992 4.11768ZM15.7307 9.36232H16.4676C18.4101 9.36232 20 10.9274 20 12.8396V13.1574C20 13.6992 19.5516 14.1406 19.0012 14.1406H15.5107C15.4384 12.5462 14.6013 11.1403 13.3538 10.2725C13.9823 9.70755 14.8175 9.36232 15.7307 9.36232ZM4.26927 9.36232H3.53236C1.58988 9.36232 0 10.9274 0 12.8396V13.1574C0 13.6992 0.448362 14.1406 0.998827 14.1406H4.48933C4.56163 12.5462 5.39874 11.1403 6.64616 10.2725C6.01769 9.70755 5.18248 9.36232 4.26927 9.36232ZM10.0003 4.26688C11.445 4.26688 12.6157 5.41932 12.6157 6.84144C12.6157 8.26357 11.445 9.41601 10.0003 9.41601C8.55567 9.41601 7.38498 8.26357 7.38498 6.84144C7.38498 5.41932 8.55567 4.26688 10.0003 4.26688Z"
                      fill="#737373"
                    />
                  </svg>