<svg width="24" height="24" viewBox="0 0 24 24" fill="none" xmlns="http://www.w3.org/2000/svg">
<path d="M7.80002 20.4C7.30002 20.4 6.87522 20.2248 6.52562 19.8744C6.17522 19.5248 6.00002 19.1 6.00002 18.6V6.60001H4.80002V4.80001H9.60002V3.60001H14.4V4.80001H19.2V6.60001H18V18.6C18 19.1 17.8248 19.5248 17.4744 19.8744C17.1248 20.2248 16.7 20.4 16.2 20.4H7.80002ZM16.2 6.60001H7.80002V18.6H16.2V6.60001ZM9.60002 16.8H11.4V8.40001H9.60002V16.8ZM12.6 16.8H14.4V8.40001H12.6V16.8ZM7.80002 6.60001V18.6V6.60001Z" fill="#333333"/>
</svg>
