<svg width="24" height="24" viewBox="0 0 24 24" fill="none" xmlns="http://www.w3.org/2000/svg">
<path d="M12 19.2C11.5 19.2 11.0752 19.0248 10.7256 18.6744C10.3752 18.3248 10.2 17.9 10.2 17.4C10.2 16.9 10.3752 16.4752 10.7256 16.1256C11.0752 15.7752 11.5 15.6 12 15.6C12.5 15.6 12.9248 15.7752 13.2744 16.1256C13.6248 16.4752 13.8 16.9 13.8 17.4C13.8 17.9 13.6248 18.3248 13.2744 18.6744C12.9248 19.0248 12.5 19.2 12 19.2ZM12 13.8C11.5 13.8 11.0752 13.6248 10.7256 13.2744C10.3752 12.9248 10.2 12.5 10.2 12C10.2 11.5 10.3752 11.0752 10.7256 10.7256C11.0752 10.3752 11.5 10.2 12 10.2C12.5 10.2 12.9248 10.3752 13.2744 10.7256C13.6248 11.0752 13.8 11.5 13.8 12C13.8 12.5 13.6248 12.9248 13.2744 13.2744C12.9248 13.6248 12.5 13.8 12 13.8ZM12 8.4C11.5 8.4 11.0752 8.2248 10.7256 7.8744C10.3752 7.5248 10.2 7.1 10.2 6.6C10.2 6.1 10.3752 5.6752 10.7256 5.3256C11.0752 4.9752 11.5 4.8 12 4.8C12.5 4.8 12.9248 4.9752 13.2744 5.3256C13.6248 5.6752 13.8 6.1 13.8 6.6C13.8 7.1 13.6248 7.5248 13.2744 7.8744C12.9248 8.2248 12.5 8.4 12 8.4Z" fill="#333333"/>
</svg>
