<svg width="24" height="24" viewBox="0 0 24 24" fill="none" xmlns="http://www.w3.org/2000/svg">
<path d="M15.9 8.0496V5.1H8.10003V8.0496H6.00003V3H18V8.0496H15.9ZM4.10043 10.1496H19.8996H6.20043H4.10043ZM18 12.7752C18.2832 12.7752 18.5292 12.6708 18.738 12.462C18.946 12.254 19.05 12.0084 19.05 11.7252C19.05 11.442 18.946 11.196 18.738 10.9872C18.5292 10.7792 18.2832 10.6752 18 10.6752C17.7168 10.6752 17.4708 10.7792 17.262 10.9872C17.054 11.196 16.95 11.442 16.95 11.7252C16.95 12.0084 17.054 12.254 17.262 12.462C17.4708 12.6708 17.7168 12.7752 18 12.7752ZM15.9 18.9V15.3996H8.10003V18.9H15.9ZM18 21H6.00003V17.3256H2.00043V11.1252C2.00043 10.2748 2.30043 9.5496 2.90043 8.9496C3.50043 8.3496 4.22523 8.0496 5.07483 8.0496H18.9252C19.7748 8.0496 20.4996 8.3496 21.0996 8.9496C21.6996 9.5496 21.9996 10.2748 21.9996 11.1252V17.3256H18V21ZM19.8996 15.2256V11.2248C19.8996 10.9248 19.8124 10.6708 19.638 10.4628C19.4628 10.254 19.2252 10.1496 18.9252 10.1496H5.17443C4.87523 10.1496 4.62123 10.254 4.41243 10.4628C4.20443 10.6708 4.10043 10.9248 4.10043 11.2248V15.2256H6.00003V13.2996H18V15.2256H19.8996Z" fill="#333333"/>
</svg>
