<svg width="28" height="28" viewBox="0 0 28 28" fill="none" xmlns="http://www.w3.org/2000/svg">
<path d="M12.5788 3.60048C12.2835 3.73583 12.0661 3.94911 11.9226 4.22802L11.8036 4.46591L11.7913 9.59696C11.7831 14.5886 11.779 14.7321 11.7052 14.8018C11.6026 14.8921 11.4632 14.8511 11.4099 14.7116C11.3894 14.6542 11.3729 12.7921 11.3729 10.0071C11.3729 4.82685 11.3935 5.19189 11.0571 4.81454C10.9546 4.6997 10.7741 4.55614 10.6593 4.49462C10.4747 4.39618 10.405 4.38388 10.0604 4.38388C9.71592 4.38388 9.64619 4.39618 9.46162 4.49462C9.34678 4.55614 9.16631 4.6997 9.06377 4.81454C8.72334 5.19189 8.74795 4.7079 8.74795 10.9792V16.5573L8.50596 16.1923C7.97686 15.4007 7.23857 14.687 6.59053 14.3425C6.11064 14.0882 5.74971 14.002 5.17959 14.002C4.31826 14.002 3.75225 14.2071 3.55537 14.5845C3.48154 14.728 3.48154 15.1136 3.55537 15.294C3.58818 15.372 3.85479 15.6755 4.146 15.9626C5.01963 16.8362 5.49131 17.6442 6.14346 19.3751C7.3124 22.4964 8.70283 24.0837 10.5731 24.4405C10.729 24.4733 10.8644 24.4897 10.8726 24.4815C10.8808 24.4733 10.8479 24.3954 10.8028 24.3052C10.6757 24.055 10.5608 23.5915 10.528 23.2183C10.4952 22.7999 10.5896 22.2257 10.7536 21.836C10.8972 21.4915 15.7042 13.6657 15.9421 13.3868C16.2907 12.9808 16.8813 12.5829 17.353 12.4393L17.5294 12.3901L17.5171 8.87509L17.5048 5.36005L17.3612 5.07704C17.1233 4.61357 16.705 4.36337 16.1677 4.36337C15.6386 4.36337 15.13 4.712 14.9495 5.19599L14.8593 5.43388V10.0645C14.8593 14.646 14.8593 14.6993 14.7772 14.7813C14.6788 14.8798 14.6542 14.8798 14.5476 14.806C14.4696 14.7485 14.4696 14.6337 14.4491 9.58466L14.4286 4.42489L14.3179 4.21572C14.1784 3.94911 13.8462 3.6497 13.6001 3.56767C13.3048 3.46513 12.8331 3.48153 12.5788 3.60048Z" fill="#151515"/>
<path d="M18.8789 7.02529C18.641 7.10322 18.4277 7.24267 18.2514 7.43954C17.9314 7.79638 17.9355 7.74716 17.9355 10.1466V12.2671L18.4605 12.2917C18.8379 12.304 19.0594 12.3368 19.2686 12.4024C19.6336 12.5173 20.134 12.7757 20.3473 12.9561C20.4375 13.0341 20.5236 13.0997 20.5359 13.0997C20.5482 13.0997 20.5605 11.9595 20.5605 10.5649C20.5605 7.69794 20.5729 7.80048 20.2447 7.43954C19.974 7.13603 19.7156 7.01708 19.3096 7.00478C19.1291 6.99658 18.9363 7.00478 18.8789 7.02529Z" fill="#151515"/>
<path d="M17.8083 14.0964C17.554 14.203 17.3859 14.3138 17.2505 14.4614C17.0782 14.6501 12.3614 22.3651 12.2917 22.5743C12.1892 22.886 12.2261 23.3577 12.3779 23.6653C12.5255 23.9688 12.7921 24.2313 13.0874 24.3708L13.3212 24.4815H18.3866H23.4521L23.7105 24.3421C24.0058 24.1821 24.2027 23.9811 24.3626 23.6735C24.4693 23.4726 24.4775 23.4192 24.4775 23.005C24.4775 22.6153 24.4652 22.5292 24.3872 22.3815C24.0755 21.7991 19.5802 14.5681 19.4407 14.4204C19.1659 14.1374 18.8952 14.0267 18.4277 14.0102C18.0913 14.002 18.0052 14.0143 17.8083 14.0964ZM18.846 16.3645C18.9486 16.4343 19.0593 16.5655 19.1208 16.6886L19.2275 16.8895V18.3907C19.2275 19.8468 19.2234 19.8919 19.1372 20.0518C18.8214 20.6425 18.0503 20.6999 17.6689 20.1585L17.5458 19.9821L17.5335 18.481C17.5253 17.4679 17.5335 16.9265 17.5663 16.8198C17.7222 16.2907 18.3989 16.0487 18.846 16.3645ZM18.846 21.6145C19.5187 22.0862 19.1988 23.1485 18.3825 23.1567C17.6484 23.1608 17.2628 22.3118 17.7427 21.7663C18.0298 21.4423 18.5056 21.3767 18.846 21.6145Z" fill="#151515"/>
</svg>
