<svg width="28" height="28" viewBox="0 0 28 28" fill="none" xmlns="http://www.w3.org/2000/svg">
<path d="M12.3989 18.8054H13.314V22.9245H12.3989V18.8054Z" fill="black"/>
<path d="M16.0586 17.4316H16.9737V22.9245H16.0586V17.4316Z" fill="black"/>
<path d="M5.07861 21.5507H5.99372V22.9246H5.07861V21.5507Z" fill="black"/>
<path d="M8.73877 20.1778H9.65388V22.9244H8.73877V20.1778Z" fill="black"/>
<path d="M9.78992 8.01163C9.80294 5.70644 10.9908 3.54542 13.0696 2.33609H2.79096C2.53836 2.33609 2.3335 2.54095 2.3335 2.79356V25.2117C2.3335 25.4643 2.53836 25.6692 2.79096 25.6692H19.2616C19.5142 25.6692 19.7191 25.4643 19.7191 25.2117V13.6718C18.6998 14.2756 17.5487 14.5896 16.3781 14.5986C12.7277 14.6273 9.76966 11.6278 9.7901 8.01154L9.78992 8.01163ZM4.62105 5.30973H5.30731V4.62346C5.30731 4.37086 5.51217 4.166 5.76478 4.166C6.01738 4.166 6.22224 4.37086 6.22224 4.62346V5.30973H6.90851C7.16111 5.30973 7.36597 5.51459 7.36597 5.76719C7.36597 6.0198 7.16111 6.22466 6.90851 6.22466L6.22224 6.22483V6.9111C6.22224 7.1637 6.01738 7.36856 5.76478 7.36856C5.51217 7.36856 5.30731 7.1637 5.30731 6.9111L5.30714 6.22483H4.62101C4.3684 6.22483 4.16354 6.01997 4.16354 5.76737C4.16337 5.51459 4.36827 5.30973 4.62105 5.30973ZM4.62105 8.28368H8.31828C8.57089 8.28368 8.77575 8.48854 8.77575 8.74114C8.77575 8.99375 8.57089 9.19861 8.31828 9.19861H4.62105C4.36844 9.19861 4.16358 8.99375 4.16358 8.74114C4.16341 8.48854 4.36827 8.28368 4.62105 8.28368ZM4.62105 10.1137H8.33508C8.58768 10.1137 8.79255 10.3186 8.79255 10.5712C8.79255 10.8238 8.58768 11.0286 8.33508 11.0286L4.62105 11.0288C4.36844 11.0288 4.16358 10.824 4.16358 10.5714C4.16341 10.3186 4.36827 10.1137 4.62105 10.1137ZM4.62105 11.9438H8.87366C9.12626 11.9438 9.33112 12.1486 9.33112 12.4012C9.33112 12.6538 9.12626 12.8587 8.87366 12.8587L4.62105 12.8589C4.36844 12.8589 4.16358 12.654 4.16358 12.4014C4.16341 12.1486 4.36827 11.9438 4.62105 11.9438ZM6.90855 23.382C6.90855 23.6346 6.70369 23.8394 6.45109 23.8394H4.62105C4.36844 23.8394 4.16358 23.6346 4.16358 23.382V21.0931C4.16358 20.8405 4.36844 20.6356 4.62105 20.6356H6.45109C6.70369 20.6356 6.90855 20.8405 6.90855 21.0931V23.382ZM10.5686 23.382C10.5686 23.6346 10.3638 23.8394 10.1112 23.8394H8.28113C8.02852 23.8394 7.82366 23.6346 7.82366 23.382V19.7205C7.82366 19.4679 8.02852 19.263 8.28113 19.263L10.1112 19.2629C10.3638 19.2629 10.5686 19.4677 10.5686 19.7203V23.382ZM10.1112 14.6891H4.62096C4.36835 14.6891 4.16349 14.4842 4.16349 14.2316C4.16349 13.979 4.36835 13.7742 4.62096 13.7742L10.1112 13.774C10.3638 13.774 10.5686 13.9788 10.5686 14.2314C10.5686 14.4842 10.3638 14.6891 10.1112 14.6891ZM14.2288 23.382C14.2288 23.6346 14.024 23.8394 13.7714 23.8394H11.9413C11.6887 23.8394 11.4839 23.6346 11.4839 23.382L11.4837 18.3477C11.4837 18.0951 11.6886 17.8903 11.9412 17.8903H13.7712C14.0238 17.8903 14.2287 18.0951 14.2287 18.3477L14.2288 23.382ZM17.8889 16.974V23.382C17.8889 23.6346 17.6841 23.8394 17.4315 23.8394H15.6014C15.3488 23.8394 15.144 23.6346 15.144 23.382L15.1438 16.974C15.1438 16.7214 15.3486 16.5165 15.6012 16.5165H17.4313C17.6841 16.5165 17.8889 16.7214 17.8889 16.974Z" fill="black"/>
<path d="M16.3781 11.3943C18.2628 11.3743 19.7454 9.83074 19.7637 8.00959C19.7822 6.13981 18.2496 4.60697 16.3779 4.62364C14.5359 4.64013 13.0109 6.13092 12.9928 8.01581C12.9746 9.89794 14.5168 11.4139 16.3781 11.3943Z" fill="black"/>
<path d="M10.705 8.00807C10.6819 11.1351 13.2399 13.7089 16.3779 13.6832C19.5369 13.6573 22.0317 11.1063 22.0508 8.0094C22.0704 4.84377 19.482 2.29164 16.3784 2.33386C13.3686 2.37501 10.7286 4.7495 10.7046 8.00851L10.705 8.00807ZM16.4086 3.70861C18.7978 3.70861 20.6926 5.64594 20.6789 8.00616C20.6653 10.3355 18.7827 12.2877 16.3779 12.3098C14.0095 12.3315 12.056 10.3989 12.0775 8.01189C12.0994 5.58501 14.0779 3.70861 16.4086 3.70861Z" fill="black"/>
<path d="M25.408 15.788L21.6092 11.9893C21.2486 12.4608 20.829 12.8802 20.3589 13.2393L24.1577 17.038C24.504 17.3835 25.0622 17.383 25.408 17.038C25.753 16.6931 25.753 16.133 25.408 15.788Z" fill="black"/>
</svg>
