<svg width="28" height="28" viewBox="0 0 28 28" fill="none" xmlns="http://www.w3.org/2000/svg">
<path d="M25.4115 17.7246C25.1082 17.2393 24.7443 16.815 24.32 16.5117C24.3805 16.0869 24.4414 15.6021 24.4414 15.1773C24.4414 11.1137 22.076 7.59591 18.6187 5.89767C18.4972 4.56334 17.7696 3.28988 16.4957 2.56173C14.4942 1.40925 11.8862 2.07647 10.6729 4.13856C10.3695 4.62383 10.1876 5.16958 10.1271 5.71539C6.42739 7.17114 3.81959 10.8104 3.81959 15.1165C3.81959 15.3589 3.81959 15.6017 3.88009 15.8442C2.7276 16.6328 2 17.9066 2 19.3619C2 21.7274 3.88009 23.6074 6.24549 23.6074C6.79126 23.6074 7.337 23.486 7.88319 23.3041C9.58143 24.6389 11.7649 25.4271 14.1303 25.4271C16.2533 25.4271 18.2544 24.7599 19.8921 23.6684C21.105 24.2751 22.6213 24.2751 23.8342 23.547C25.8967 22.3341 26.6244 19.7263 25.4114 17.7247L25.4115 17.7246ZM9.76343 21.6667C10.1882 20.9995 10.4911 20.211 10.4911 19.3619C10.4911 16.9965 8.61103 15.1164 6.24563 15.1164C6.24563 12.0233 8.0043 9.35459 10.6125 8.08069C10.9764 8.80838 11.5221 9.41502 12.2502 9.83937C14.2517 10.9919 16.8596 10.3246 18.073 8.32308C20.438 9.65785 22.0151 12.2052 22.0151 15.1164V15.6016C21.2265 15.5411 20.3774 15.7231 19.6497 16.1474C17.6482 17.2999 16.9205 19.9077 18.0729 21.9092C16.9204 22.6373 15.5861 23.0011 14.1303 23.0011C12.5535 23.0011 11.0372 22.5159 9.76341 21.6668L9.76343 21.6667Z" fill="black"/>
</svg>
