<svg width="25" height="24" viewBox="0 0 25 24" fill="none" xmlns="http://www.w3.org/2000/svg">
<path d="M17.0327 10.4754L20.8233 6.76948L17.0327 3L15.9103 4.12237L17.7103 5.92241C11.6961 6.473 7.14308 12.8472 6.16895 17.6756L7.71486 17.9932C8.58311 13.6943 12.5644 8.04009 17.7739 7.51067L15.9103 9.33188L17.0327 10.4754Z" fill="#737373"/>
<path d="M20.4419 18.6303C20.4419 19.075 20.0819 19.4138 19.6584 19.4138H5.364C4.91928 19.4138 4.58045 19.0538 4.58045 18.6303V8.31712C4.58045 7.87241 4.94046 7.53358 5.364 7.53358H10.9123V5.94531H5.364C4.05103 5.94531 2.99219 7.00416 2.99219 8.31712V18.6303C2.99219 19.9432 4.05103 21.0021 5.364 21.0021H19.6372C20.9502 21.0021 22.009 19.9432 22.009 18.6303V8.3383H20.4207V18.6303H20.4419Z" fill="#737373"/>
</svg>
