<svg width="18" height="18" viewBox="0 0 18 18" fill="none" xmlns="http://www.w3.org/2000/svg">
<path d="M7.09889 16.9578L7.94489 14.076C8.03309 13.7718 8.20769 13.4964 8.45249 13.2786L10.6215 11.1294C10.4487 11.0646 10.2759 11.0034 10.1031 10.9476C9.99509 10.9116 9.30749 10.602 9.73769 9.29877H9.73049C10.8483 8.14857 11.7033 6.29457 11.7033 4.47117C11.7033 1.66677 9.83669 0.196167 7.66949 0.196167C5.50049 0.196167 3.64649 1.66677 3.64649 4.47117C3.64649 6.30177 4.49609 8.16297 5.62109 9.31137C6.05849 10.4616 5.27549 10.8882 5.11169 10.9476C2.84369 11.7684 0.179688 13.266 0.179688 14.742C0.179688 15.1416 0.179688 14.8986 0.179688 15.2946C0.179688 17.1918 3.64649 17.7066 7.07009 17.7588C7.02149 17.4978 7.02149 17.2242 7.09889 16.9578Z" fill="black"/>
<path d="M14.9687 11.8314L14.9651 11.835L14.3027 11.1708L14.3063 11.1672L13.4189 10.2798L9.38152 14.283C9.32572 14.328 9.27892 14.3838 9.25732 14.4576L8.41132 17.343C8.37352 17.469 8.40952 17.6058 8.50132 17.6976C8.56972 17.766 8.66152 17.8038 8.75512 17.8038C8.78932 17.8038 8.82172 17.7984 8.85592 17.7894L11.7431 16.9416C11.8115 16.9218 11.8655 16.8786 11.9069 16.8282L15.9533 12.816L14.9687 11.8314ZM11.0267 15.1578L11.0789 16.0866L11.3129 16.3188L9.76132 16.7742L9.42292 16.4358L9.87832 14.8842L10.0727 15.0786L11.0267 15.1578Z" fill="black"/>
<path d="M13.7832 9.87832L16.3176 12.4127L16.8972 11.8691L14.3646 9.33472L13.7832 9.87832Z" fill="black"/>
<path d="M17.5669 9.84239L16.3519 8.62739C16.0171 8.29259 15.4771 8.28899 15.1441 8.62019L14.7715 8.99639L17.2015 11.4264L17.5741 11.0484C17.9035 10.719 17.9017 10.1772 17.5669 9.84239Z" fill="black"/>
</svg>
