<svg width="28" height="28" viewBox="0 0 28 28" fill="none" xmlns="http://www.w3.org/2000/svg">
<path d="M10.5352 3.85564V5.37338L10.959 5.52378C11.5288 5.71977 12.3355 6.14364 12.8596 6.51738C13.4111 6.90935 14.1631 7.66138 14.5551 8.21287C15.1978 9.11531 15.6854 10.2775 15.8677 11.3304C15.9908 12.0642 15.9908 13.1125 15.8677 13.8463C15.6854 14.8991 15.1978 16.0614 14.5551 16.9638C14.1677 17.5107 13.4111 18.2673 12.8551 18.6593C12.3309 19.0376 11.5196 19.4569 10.959 19.6529L10.5352 19.8033V21.321V22.8433H18.1011H25.667V15.323V7.80267H22.9323H20.1976V5.06801V2.33334H15.3664H10.5352V3.85564ZM22.2486 11.221V11.9047H19.514H16.7793V11.221V10.5373H19.514H22.2486V11.221ZM22.2486 13.9557V14.6393H19.1721H16.0956V13.9557V13.272H19.1721H22.2486V13.9557ZM22.2486 16.6903V17.374H18.8303H15.412V16.6903V16.0067H18.8303H22.2486V16.6903Z" fill="#151515"/>
<path d="M21.5645 4.56664V6.43532H23.4423H25.3246L23.4559 4.56664C22.4304 3.53658 21.5827 2.69795 21.5781 2.69795C21.569 2.69795 21.5645 3.53658 21.5645 4.56664Z" fill="#151515"/>
<path d="M7.39446 6.50825C4.8968 6.92756 2.80934 9.03325 2.39914 11.54C2.30798 12.1006 2.31254 13.1307 2.4037 13.6594C2.78655 15.8699 4.38633 17.7249 6.52848 18.4451C6.79283 18.5317 7.1848 18.6319 7.39446 18.6638L7.77731 18.7231L7.79098 22.1961L7.8001 25.6691H8.48376H9.16743L9.17654 22.1961L9.19022 18.7231L9.57307 18.6638C10.0881 18.5818 10.8219 18.3311 11.3597 18.0531C13.037 17.1734 14.2676 15.4825 14.5684 13.6366C14.655 13.0806 14.655 12.0961 14.5684 11.54C14.1582 9.01047 12.0616 6.91389 9.53205 6.50369C8.99879 6.41709 7.9186 6.42165 7.39446 6.50825ZM9.16743 11.9047V14.6393H8.48376H7.8001V11.9047V9.16999H8.48376H9.16743V11.9047ZM11.9021 12.5883V14.6393H11.2184H10.5348V12.5883V10.5373H11.2184H11.9021V12.5883ZM6.43277 13.272V14.6393H5.7491H5.06543V13.272V11.9047H5.7491H6.43277V13.272Z" fill="#151515"/>
</svg>
