<svg width="28" height="28" viewBox="0 0 28 28" fill="none" xmlns="http://www.w3.org/2000/svg">
<path d="M16.923 18.4334H11.0774C10.7827 18.4334 10.5615 18.6544 10.5615 18.9493C10.5615 19.2439 10.7825 19.4651 11.0774 19.4651H13.4844V24.1072C13.4844 24.4019 13.7054 24.6231 14.0002 24.6231C14.2949 24.6231 14.5161 24.4021 14.5161 24.1072V19.4651H16.9231C17.2177 19.4651 17.4389 19.2441 17.4389 18.9493C17.4388 18.6546 17.2177 18.4336 16.9231 18.4336L16.923 18.4334Z" fill="black"/>
<path d="M20.4352 12.2194C19.6247 12.3176 19.0107 13.0544 19.109 13.865C19.2072 14.6755 19.944 15.2896 20.7546 15.1912C21.5651 15.093 22.1791 14.3562 22.0808 13.5456C22.0071 12.7106 21.2704 12.1212 20.4352 12.2194Z" fill="black"/>
<path d="M22.9653 20.1527C23.1618 19.907 23.2599 19.5632 23.1863 19.244L22.5722 16.3458C22.5231 16.0511 22.3512 15.8055 22.0811 15.6336C21.8354 15.4616 21.5407 15.4126 21.246 15.4863C21.246 15.4863 20.411 15.6583 20.2145 15.7073C20.0424 15.7565 18.5934 16.5178 18.5934 16.5178L17.3161 16.4686C16.9478 16.4441 16.604 16.7388 16.604 17.1318C16.5795 17.5249 16.8741 17.844 17.2672 17.844L18.7162 17.9177H18.7407C18.8389 17.9177 18.9372 17.8932 19.0354 17.844L19.9933 17.3773L20.3371 18.9984H18.9862C18.3722 18.9984 17.881 19.4896 17.881 20.1036V23.8123C17.881 24.2298 18.2249 24.5984 18.6671 24.5984C19.1091 24.5984 19.4531 24.2545 19.4531 23.8123V20.8159C19.4531 20.6685 19.576 20.5457 19.7233 20.5457H22.1303C22.4496 20.5457 22.7443 20.3983 22.9653 20.1526L22.9653 20.1527Z" fill="black"/>
<path d="M25.6666 16.3212C25.6666 15.9773 25.5193 15.7563 25.1999 15.7071C24.9298 15.6826 24.6841 15.8791 24.6351 16.1491L23.8982 20.3C23.8 20.7912 23.3823 21.1598 22.8666 21.1598H20.7052C20.3368 21.1598 20.042 21.4544 20.042 21.823V24.0826C20.042 24.3773 20.263 24.5985 20.5579 24.5985H25.1508C25.4455 24.5985 25.6667 24.3774 25.6667 24.0826L25.6666 16.3212Z" fill="black"/>
<path d="M7.56511 12.2194C6.75459 12.1212 6.0177 12.7353 5.9195 13.5456C5.82133 14.3561 6.43538 15.093 7.24572 15.1912C8.05624 15.2894 8.79312 14.6753 8.89132 13.865C8.96499 13.0545 8.37563 12.3176 7.56511 12.2194Z" fill="black"/>
<path d="M8.98941 18.9983H7.6385L7.98235 17.3772L8.94024 17.8439C9.03841 17.8931 9.13675 17.9176 9.23492 17.9176H9.25942L10.7085 17.8439C11.1015 17.8194 11.3962 17.5001 11.3717 17.1317C11.3472 16.7387 11.0278 16.444 10.6595 16.4685L9.40692 16.5177C9.40692 16.5177 7.95785 15.7564 7.78584 15.7072C7.58932 15.658 6.75426 15.4862 6.75426 15.4862C6.45958 15.4125 6.16475 15.4862 5.91923 15.6335C5.67355 15.8055 5.50171 16.051 5.42805 16.3457L4.81402 19.2438C4.74035 19.5632 4.83852 19.8824 5.03503 20.1526C5.23154 20.3983 5.5509 20.5456 5.87007 20.5456H8.27702C8.42436 20.5456 8.5472 20.6684 8.5472 20.8158V23.8122C8.5472 24.2298 8.89105 24.5983 9.33325 24.5983C9.75077 24.5983 10.1193 24.2544 10.1193 23.8122L10.1191 20.1037C10.1191 19.4897 9.60343 18.9983 8.9894 18.9983L8.98941 18.9983Z" fill="black"/>
<path d="M7.29495 21.1842H5.13352C4.61764 21.1842 4.20015 20.8159 4.10195 20.3245L3.36507 16.1736C3.3159 15.9034 3.07038 15.7069 2.8002 15.7316C2.48085 15.7561 2.3335 16.0018 2.3335 16.3456V24.1315C2.3335 24.3772 2.55451 24.6229 2.84937 24.6229H7.44231C7.737 24.6229 7.95819 24.4019 7.95819 24.107V21.8474C7.95802 21.479 7.66334 21.1842 7.29499 21.1842L7.29495 21.1842Z" fill="black"/>
<path d="M5.37931 9.86153H6.38619L7.09838 11.1388C7.22122 11.3598 7.54039 11.3598 7.66324 11.1388L8.37543 9.86153H9.38248C9.8245 9.86153 10.1685 9.51768 10.1685 9.07548L10.1687 4.28605C10.1932 3.86853 9.82485 3.5 9.40735 3.5H5.37931C4.93729 3.5 4.59326 3.84385 4.59326 4.28605V9.05092C4.59326 9.49293 4.96178 9.86131 5.37931 9.86131L5.37931 9.86153ZM5.91966 6.202L7.2214 4.63008C7.31957 4.50724 7.49159 4.50724 7.58975 4.63008L8.8915 6.202C9.01434 6.34934 8.916 6.59501 8.69498 6.59501H7.9581V8.51079C7.9581 8.63363 7.85993 8.75647 7.71242 8.75647H7.04922C6.92638 8.75647 6.80354 8.6583 6.80354 8.51079V6.59501H6.06666C5.89499 6.61951 5.77216 6.37383 5.91966 6.202H5.91966Z" fill="black"/>
<path d="M18.5932 9.86153H19.6002L20.3124 11.1388C20.4353 11.3598 20.7544 11.3598 20.8773 11.1388L21.5895 9.86153H22.5965C23.0385 9.86153 23.3826 9.51768 23.3826 9.07548L23.3827 4.28605C23.3827 3.84403 23.0389 3.5 22.5967 3.5H18.5932C18.1512 3.5 17.8071 3.84385 17.8071 4.28605V9.05092C17.8073 9.49293 18.1756 9.86131 18.5932 9.86131L18.5932 9.86153ZM19.3055 6.71769H20.0424V4.80192C20.0424 4.67908 20.1406 4.55624 20.2881 4.55624H20.9513C21.0741 4.55624 21.197 4.65441 21.197 4.80192V6.71769H21.9339C22.1304 6.71769 22.2532 6.96338 22.1304 7.11071L20.8286 8.68263C20.7305 8.80547 20.5584 8.80547 20.4603 8.68263L19.1585 7.11071C18.9862 6.96337 19.109 6.71769 19.3055 6.71769H19.3055Z" fill="black"/>
</svg>
