<svg width="20" height="24" viewBox="0 0 20 24" fill="none" xmlns="http://www.w3.org/2000/svg">
<path d="M7.62363 20.4325C8.20686 20.3091 11.7607 20.3091 12.344 20.4325C12.8426 20.5476 13.3817 20.8167 13.3817 21.4042C13.3527 21.9635 13.0246 22.4594 12.5712 22.7743C11.9834 23.2326 11.2935 23.5228 10.5723 23.6274C10.1734 23.6791 9.78147 23.6802 9.39651 23.6274C8.67414 23.5228 7.98423 23.2326 7.39753 22.7731C6.943 22.4594 6.61486 21.9635 6.58587 21.4042C6.58587 20.8167 7.12504 20.5476 7.62363 20.4325ZM10.0527 0.333252C12.4795 0.333252 14.9585 1.48477 16.4311 3.39536C17.3865 4.62561 17.8248 5.85468 17.8248 7.76527V8.2623C17.8248 9.72756 18.2121 10.5912 19.0643 11.5864C19.7102 12.3197 19.9166 13.2608 19.9166 14.2819C19.9166 15.3019 19.5815 16.2701 18.9101 17.0562C18.0312 17.9985 16.7917 18.6002 15.5267 18.7047C13.6935 18.861 11.8592 18.9926 10.0005 18.9926C8.14065 18.9926 6.30747 18.9139 4.4743 18.7047C3.20812 18.6002 1.96861 17.9985 1.09086 17.0562C0.419508 16.2701 0.083252 15.3019 0.083252 14.2819C0.083252 13.2608 0.290803 12.3197 0.935488 11.5864C1.81439 10.5912 2.17616 9.72756 2.17616 8.2623V7.76527C2.17616 5.80298 2.66547 4.51986 3.67308 3.26376C5.17116 1.4319 7.57249 0.333252 9.94832 0.333252H10.0527Z" fill="#2E3234"/>
</svg>
