<svg width="14" height="18" viewBox="0 0 14 18" fill="none" xmlns="http://www.w3.org/2000/svg">
<path d="M12.8336 15.6667H1.16691C0.9459 15.6667 0.733939 15.7544 0.577658 15.9107C0.421378 16.067 0.333581 16.279 0.333581 16.5C0.333581 16.721 0.421378 16.933 0.577658 17.0892C0.733939 17.2455 0.9459 17.3333 1.16691 17.3333H12.8336C13.0546 17.3333 13.2666 17.2455 13.4228 17.0892C13.5791 16.933 13.6669 16.721 13.6669 16.5C13.6669 16.279 13.5791 16.067 13.4228 15.9107C13.2666 15.7544 13.0546 15.6667 12.8336 15.6667ZM1.16691 14H1.24191L4.71691 13.6833C5.09758 13.6454 5.45361 13.4777 5.72525 13.2083L13.2252 5.70832C13.5163 5.40079 13.6737 4.99041 13.6627 4.5671C13.6518 4.14379 13.4735 3.74207 13.1669 3.44998L10.8836 1.16665C10.5856 0.88673 10.1951 0.726116 9.78636 0.71536C9.37764 0.704604 8.97923 0.844458 8.66691 1.10832L1.16691 8.60832C0.897552 8.87995 0.729834 9.23599 0.691914 9.61665L0.333581 13.0917C0.322355 13.2137 0.338193 13.3367 0.379965 13.452C0.421737 13.5672 0.488416 13.6718 0.575247 13.7583C0.653114 13.8356 0.745461 13.8967 0.846992 13.9381C0.948523 13.9796 1.05724 14.0006 1.16691 14ZM9.72525 2.33332L12.0002 4.60832L10.3336 6.23332L8.10025 3.99998L9.72525 2.33332Z" fill="#909192"/>
</svg>
