<svg width="21" height="21" viewBox="0 0 21 21" fill="none" xmlns="http://www.w3.org/2000/svg">
<path fill-rule="evenodd" clip-rule="evenodd" d="M10.5124 0.399658C5.01859 0.399658 0.564758 4.85349 0.564758 10.3473C0.564758 15.8411 5.01859 20.295 10.5124 20.295C16.0062 20.295 20.4601 15.8411 20.4601 10.3473C20.4601 4.85349 16.0062 0.399658 10.5124 0.399658ZM11.4167 13.9646C11.4167 14.2045 11.3215 14.4345 11.1519 14.6041C10.9823 14.7737 10.7523 14.869 10.5124 14.869C10.2726 14.869 10.0425 14.7737 9.87295 14.6041C9.70335 14.4345 9.60808 14.2045 9.60808 13.9646V11.2516H6.89508C6.65524 11.2516 6.42522 11.1564 6.25562 10.9868C6.08603 10.8172 5.99075 10.5872 5.99075 10.3473C5.99075 10.1075 6.08603 9.87745 6.25562 9.70785C6.42522 9.53825 6.65524 9.44298 6.89508 9.44298H9.60808V6.72998C9.60808 6.49014 9.70335 6.26012 9.87295 6.09052C10.0425 5.92093 10.2726 5.82565 10.5124 5.82565C10.7523 5.82565 10.9823 5.92093 11.1519 6.09052C11.3215 6.26012 11.4167 6.49014 11.4167 6.72998V9.44298H14.1297C14.3696 9.44298 14.5996 9.53825 14.7692 9.70785C14.9388 9.87745 15.0341 10.1075 15.0341 10.3473C15.0341 10.5872 14.9388 10.8172 14.7692 10.9868C14.5996 11.1564 14.3696 11.2516 14.1297 11.2516H11.4167V13.9646Z" fill=""/>
</svg>
