<svg width="28" height="28" viewBox="0 0 28 28" fill="none" xmlns="http://www.w3.org/2000/svg">
<path d="M2.69214 2.43381C2.61011 2.49305 2.49618 2.59787 2.44605 2.66623C2.35491 2.79383 2.35035 2.84852 2.33668 4.85371C2.32756 5.98846 2.33668 6.98195 2.35035 7.06397C2.36402 7.14601 2.43694 7.28272 2.51441 7.36475C2.62834 7.49691 2.64201 7.53793 2.601 7.64275C2.57821 7.70655 2.55542 7.82048 2.55542 7.88884C2.55542 8.02555 3.28003 10.4409 3.40307 10.728C3.4532 10.8374 3.8588 11.2612 4.5515 11.9266L5.62701 12.9611V18.9857L5.63157 25.0059L5.72727 25.1882C5.905 25.5163 6.16021 25.6667 6.54302 25.6667C6.92127 25.6667 7.18559 25.5117 7.34509 25.2018C7.42712 25.0423 7.43168 24.8919 7.43168 22.2715V19.5144H7.75069H8.0697V22.2578C8.0697 24.9603 8.0697 25.0013 8.1654 25.2018C8.22464 25.3203 8.33857 25.4479 8.44795 25.5208C8.60745 25.6257 8.68037 25.6439 8.9857 25.6439C9.30927 25.6439 9.35028 25.6348 9.51435 25.5026C9.61005 25.4251 9.72854 25.293 9.77867 25.2064C9.86981 25.056 9.86981 24.9603 9.88348 19.004L9.8926 12.9611L10.9681 11.922C11.5606 11.3478 12.0618 10.8465 12.0846 10.8009C12.1895 10.605 12.946 8.03923 12.946 7.87972C12.946 7.78402 12.9232 7.66553 12.8958 7.6154C12.8594 7.54249 12.873 7.49691 12.987 7.36475C13.0644 7.27817 13.1374 7.16423 13.151 7.10499C13.1647 7.0503 13.1693 6.05227 13.1647 4.88561C13.151 2.7756 13.151 2.76649 13.0508 2.62521C12.8275 2.31532 13.1556 2.33355 7.73702 2.33355H2.84253L2.69214 2.43381ZM11.1185 8.79117L10.7585 9.96694L9.87893 10.8191L9.00393 11.6759H7.7598H6.51112L5.63613 10.8328L4.76113 9.98973L4.42845 8.88688C4.24161 8.28076 4.0821 7.74756 4.06843 7.70199C4.0502 7.62452 4.19148 7.61996 7.76436 7.61996H11.474L11.1185 8.79117Z" fill="#151515"/>
<path d="M7.49575 7.89794C6.94888 7.97086 6.40201 8.37645 6.16504 8.88686C6.05566 9.11473 6.04199 9.20131 6.04199 9.62514C6.04199 10.049 6.05566 10.1355 6.16504 10.3634C6.31998 10.7006 6.67545 11.0561 7.01269 11.2111C7.24511 11.3204 7.32714 11.3341 7.75096 11.3341C8.20213 11.3341 8.25226 11.325 8.53481 11.1837C9.22751 10.8465 9.6012 10.1128 9.47816 9.33803C9.32777 8.39468 8.46645 7.76578 7.49575 7.89794Z" fill="#151515"/>
<path d="M20.7247 5.43249C19.8862 5.57832 19.3302 6.36673 19.4669 7.22805C19.5535 7.74302 19.8634 8.15773 20.3419 8.37648C20.5835 8.49041 20.6792 8.50864 21.0118 8.50864C21.3309 8.50408 21.4448 8.48585 21.6499 8.39015C22.6479 7.92075 22.8666 6.55358 22.06 5.82442C21.7684 5.56465 21.5633 5.47807 21.0574 5.40971C20.9936 5.40515 20.8478 5.41426 20.7247 5.43249Z" fill="#151515"/>
<path d="M15.8578 5.71961C15.5707 5.91101 15.4659 6.28927 15.6163 6.58093C15.7348 6.80879 17.3936 9.23325 17.4939 9.31984C17.544 9.36541 17.9223 9.53403 18.3324 9.69353L19.0753 9.9852L19.0981 12.8016L19.1208 15.618L19.6221 16.6889C20.1553 17.8419 20.2191 18.0698 20.1052 18.489C20.0049 18.8764 19.5674 19.3276 19.2302 19.4005L19.0935 19.4324L19.1072 20.0795C19.1208 20.6856 19.13 20.7403 19.2348 20.8953C19.5583 21.3692 20.2784 21.3692 20.6019 20.8953L20.7159 20.7266L20.7295 18.252L20.7432 15.7775H21.0121H21.2855L21.2946 18.2794C21.3083 20.7266 21.3083 20.7859 21.404 20.9089C21.5909 21.1641 21.7185 21.2234 22.083 21.2234C22.4613 21.2234 22.6071 21.1505 22.7666 20.877C22.8578 20.7266 22.8578 20.6173 22.8806 16.5522L22.9034 12.3869L23.4001 13.476C23.6735 14.0776 23.9378 14.6245 23.9834 14.6974C24.2614 15.0893 24.9313 15.0346 25.141 14.5971C25.2822 14.3009 25.2321 14.1596 24.0655 11.6076C23.4548 10.2769 22.917 9.13299 22.8669 9.06007C22.6983 8.81854 22.5935 8.80487 21.1625 8.80487H19.85L19.1208 8.52687L18.3917 8.24433L17.5668 7.0321C17.0518 6.27559 16.6873 5.78341 16.5916 5.71505C16.3865 5.57833 16.0675 5.57833 15.8578 5.71961Z" fill="#151515"/>
<path d="M14.7142 8.57698C14.2129 8.66357 13.7572 9.00992 13.5293 9.47932C13.388 9.76187 13.3789 9.81655 13.3789 10.2404C13.3789 10.6414 13.3926 10.728 13.502 10.9559C13.6523 11.2794 13.985 11.6076 14.3131 11.7625C14.6413 11.9129 15.2018 11.9493 15.5345 11.84C16.2272 11.6076 16.6875 10.9832 16.6875 10.2677C16.6875 9.85757 16.6191 9.60236 16.4186 9.30614C16.0403 8.7456 15.375 8.46305 14.7142 8.57698Z" fill="#151515"/>
<path d="M13.2829 12.2683C13.0459 12.364 12.9092 12.6284 11.7289 15.2078C10.4756 17.9512 10.4073 18.129 10.5303 18.4206C10.6625 18.7351 11.027 18.9219 11.3825 18.8536C11.6878 18.7989 11.8246 18.5892 12.4216 17.2676L12.9684 16.06L12.9912 20.6081L13.014 25.1562L13.1553 25.334C13.3649 25.5937 13.5472 25.6758 13.9072 25.6575C14.1533 25.6439 14.2399 25.6165 14.3812 25.5117C14.7321 25.2428 14.723 25.334 14.723 22.349V19.6967H15.0192H15.3154V22.349C15.3154 25.334 15.3063 25.2428 15.6572 25.5117C15.7985 25.6165 15.8851 25.6439 16.1312 25.6575C16.4912 25.6758 16.6735 25.5937 16.8831 25.334L17.0244 25.1562L17.0472 20.6036L17.07 16.0509L17.6168 17.2676C18.2138 18.5892 18.3505 18.7989 18.6559 18.8536C19.0113 18.9219 19.3759 18.7351 19.5081 18.4206C19.6311 18.1244 19.5628 17.9512 18.3232 15.2306C17.6624 13.7905 17.0882 12.5554 17.0426 12.4916C16.8603 12.2319 16.7965 12.2228 15.0101 12.2273C14.1123 12.2273 13.3376 12.2456 13.2829 12.2683Z" fill="#151515"/>
</svg>
