<svg width="28" height="28" viewBox="0 0 28 28" fill="none" xmlns="http://www.w3.org/2000/svg">
<path d="M21.0686 2.33334H5.7657C5.1591 2.33334 4.66699 2.82562 4.66699 3.43222V24.651C4.66699 25.258 5.15893 25.7499 5.7657 25.7499H21.0686C21.6752 25.7499 22.167 25.258 22.167 24.651V3.43266C22.167 2.82589 21.6752 2.3336 21.0686 2.3336V2.33334ZM8.02993 6.38153H14.6312C14.8722 6.38153 15.0674 6.57668 15.0674 6.81706C15.0674 7.05812 14.8722 7.25327 14.6312 7.25327H8.02993C7.78887 7.25327 7.59371 7.05812 7.59371 6.81706C7.59354 6.57668 7.78887 6.38153 8.02993 6.38153ZM8.02993 9.184H14.6312C14.8722 9.184 15.0674 9.37916 15.0674 9.61953C15.0674 9.86059 14.8722 10.0557 14.6312 10.0557H8.02993C7.78887 10.0557 7.59371 9.86059 7.59371 9.61953C7.59354 9.37916 7.78887 9.184 8.02993 9.184ZM7.59354 14.9132C7.59354 14.6727 7.7887 14.4774 8.02976 14.4774H14.631C14.872 14.4774 15.0672 14.6725 15.0672 14.9132C15.0672 15.1543 14.872 15.3495 14.631 15.3495H8.02976C7.78887 15.3493 7.59354 15.1541 7.59354 14.9132ZM15.2565 18.9453L13.2461 21.6019C13.1484 21.7316 12.9982 21.7895 12.847 21.7854C12.694 21.7887 12.5429 21.7285 12.4447 21.5951L11.5222 20.3308C11.3653 20.1146 11.412 19.8118 11.629 19.6538C11.8451 19.4956 12.1479 19.5436 12.3054 19.7597L12.8547 20.5128L14.4836 18.3601C14.6448 18.1467 14.949 18.105 15.1624 18.2664C15.3751 18.4279 15.4172 18.7315 15.2564 18.9453L15.2565 18.9453ZM18.9279 15.3493H17.1843C16.9439 15.3493 16.7487 15.1542 16.7487 14.9131C16.7487 14.6726 16.9439 14.4772 17.1843 14.4772H18.9279C19.1685 14.4772 19.3638 14.6724 19.3638 14.9131C19.3638 15.1542 19.1686 15.3493 18.9279 15.3493ZM18.8966 12.7338H8.06052C7.80227 12.7338 7.59337 12.5247 7.59337 12.2664C7.59337 12.0082 7.80211 11.7991 8.06052 11.7991H18.8971C19.1553 11.7991 19.3642 12.0082 19.3642 12.2664C19.364 12.5249 19.1551 12.7338 18.8967 12.7338H18.8966ZM18.9279 10.0554H17.1843C16.9439 10.0554 16.7487 9.86025 16.7487 9.61919C16.7487 9.37882 16.9439 9.18366 17.1843 9.18366H18.9279C19.1685 9.18366 19.3638 9.37882 19.3638 9.61919C19.3638 9.86008 19.1686 10.0554 18.9279 10.0554ZM18.9279 7.25329H17.1843C16.9439 7.25329 16.7487 7.05813 16.7487 6.81707C16.7487 6.5767 16.9439 6.38154 17.1843 6.38154H18.9279C19.1685 6.38154 19.3638 6.5767 19.3638 6.81707C19.3638 7.05796 19.1686 7.25329 18.9279 7.25329Z" fill="black"/>
</svg>
