<svg width="18" height="13" viewBox="0 0 18 13" fill="none" xmlns="http://www.w3.org/2000/svg" >
    <path
        d="M17.2127 7.57488C17.1536 7.6192 17.0864 7.65145 17.0148 7.66978C16.9433 7.68812 16.8688 7.69217 16.7957 7.68173C16.7225 7.67128 16.6522 7.64653 16.5886 7.6089C16.5251 7.57126 16.4695 7.52148 16.4252 7.46238C16.0862 7.00666 15.6449 6.63691 15.1368 6.38289C14.6288 6.12887 14.0682 5.99768 13.5002 5.99988C13.3896 5.99987 13.2814 5.96725 13.1893 5.90609C13.0971 5.84494 13.025 5.75797 12.982 5.65605C12.9528 5.58685 12.9378 5.5125 12.9378 5.43738C12.9378 5.36227 12.9528 5.28792 12.982 5.21871C13.025 5.1168 13.0971 5.02982 13.1893 4.96867C13.2814 4.90751 13.3896 4.87489 13.5002 4.87488C13.8158 4.87485 14.1251 4.78632 14.3929 4.61932C14.6607 4.45233 14.8764 4.21358 15.0153 3.93019C15.1542 3.6468 15.2109 3.33013 15.1789 3.01614C15.1468 2.70216 15.0274 2.40345 14.8341 2.15394C14.6408 1.90444 14.3814 1.71414 14.0854 1.60466C13.7894 1.49518 13.4686 1.47091 13.1595 1.5346C12.8504 1.5983 12.5653 1.74741 12.3367 1.96499C12.1081 2.18258 11.9451 2.45992 11.8662 2.76551C11.8477 2.83707 11.8153 2.90429 11.7709 2.96333C11.7264 3.02238 11.6708 3.07209 11.6071 3.10964C11.5435 3.14718 11.473 3.17181 11.3998 3.18214C11.3267 3.19246 11.2522 3.18827 11.1806 3.1698C11.109 3.15134 11.0418 3.11895 10.9828 3.07451C10.9237 3.03006 10.874 2.97442 10.8365 2.91076C10.7989 2.8471 10.7743 2.77667 10.764 2.70349C10.7536 2.63031 10.7578 2.55582 10.7763 2.48426C10.8858 2.06049 11.0927 1.66814 11.3806 1.33841C11.6684 1.00868 12.0292 0.750682 12.4343 0.58494C12.8394 0.419198 13.2776 0.350287 13.714 0.383692C14.1504 0.417096 14.573 0.551894 14.9481 0.777358C15.3233 1.00282 15.6406 1.31273 15.8749 1.68243C16.1092 2.05212 16.254 2.47139 16.2978 2.90689C16.3415 3.34238 16.283 3.78208 16.1269 4.19099C15.9708 4.59989 15.7215 4.96673 15.3987 5.2623C16.1635 5.59347 16.8284 6.119 17.3273 6.78668C17.3716 6.84592 17.4038 6.91333 17.4221 6.98504C17.4403 7.05674 17.4442 7.13134 17.4335 7.20456C17.4229 7.27778 17.3979 7.34817 17.36 7.41172C17.3221 7.47527 17.2721 7.53071 17.2127 7.57488ZM13.4243 11.9061C13.465 11.9702 13.4923 12.0417 13.5046 12.1166C13.5169 12.1915 13.514 12.268 13.4959 12.3417C13.4779 12.4154 13.4451 12.4847 13.3996 12.5454C13.3541 12.6061 13.2968 12.6569 13.2311 12.6949C13.1654 12.7329 13.0927 12.7571 13.0174 12.7663C12.9421 12.7754 12.8657 12.7693 12.7928 12.7481C12.72 12.727 12.6522 12.6913 12.5934 12.6433C12.5347 12.5953 12.4863 12.5359 12.4512 12.4686C12.0968 11.8686 11.5922 11.3714 10.987 11.026C10.3818 10.6805 9.69703 10.4989 9.00021 10.4989C8.3034 10.4989 7.61862 10.6805 7.01345 11.026C6.40827 11.3714 5.90362 11.8686 5.54928 12.4686C5.51411 12.5359 5.46571 12.5953 5.40699 12.6433C5.34827 12.6913 5.28044 12.727 5.20758 12.7481C5.13472 12.7693 5.05834 12.7754 4.98303 12.7663C4.90772 12.7571 4.83503 12.7329 4.76935 12.6949C4.70367 12.6569 4.64635 12.6061 4.60084 12.5454C4.55532 12.4847 4.52255 12.4154 4.5045 12.3417C4.48646 12.268 4.4835 12.1915 4.49581 12.1166C4.50812 12.0417 4.53545 11.9702 4.57615 11.9061C5.12149 10.9691 5.95301 10.2318 6.94849 9.80238C6.38833 9.3735 5.97666 8.77987 5.77132 8.10492C5.56599 7.42997 5.57733 6.70764 5.80375 6.03947C6.03016 5.3713 6.46028 4.79088 7.03362 4.37979C7.60697 3.96871 8.29472 3.74763 9.00021 3.74763C9.7057 3.74763 10.3935 3.96871 10.9668 4.37979C11.5402 4.79088 11.9703 5.3713 12.1967 6.03947C12.4231 6.70764 12.4344 7.42997 12.2291 8.10492C12.0238 8.77987 11.6121 9.3735 11.0519 9.80238C12.0474 10.2318 12.8789 10.9691 13.4243 11.9061ZM9.00021 9.37488C9.44522 9.37488 9.88024 9.24292 10.2502 8.99569C10.6203 8.74846 10.9086 8.39705 11.0789 7.98592C11.2492 7.57479 11.2938 7.12239 11.207 6.68593C11.1202 6.24947 10.9059 5.84856 10.5912 5.53389C10.2765 5.21922 9.87562 5.00493 9.43917 4.91811C9.00271 4.8313 8.55031 4.87586 8.13918 5.04615C7.72804 5.21645 7.37664 5.50484 7.12941 5.87485C6.88217 6.24486 6.75021 6.67987 6.75021 7.12488C6.75021 7.72162 6.98727 8.29391 7.40922 8.71587C7.83118 9.13783 8.40348 9.37488 9.00021 9.37488ZM5.06271 5.43738C5.06271 5.2882 5.00345 5.14512 4.89796 5.03963C4.79247 4.93414 4.6494 4.87488 4.50021 4.87488C4.1846 4.87485 3.87532 4.78632 3.6075 4.61932C3.33969 4.45233 3.12407 4.21358 2.98514 3.93019C2.84621 3.6468 2.78954 3.33013 2.82157 3.01614C2.8536 2.70216 2.97304 2.40345 3.16632 2.15394C3.3596 1.90444 3.61899 1.71414 3.915 1.60466C4.21102 1.49518 4.53181 1.47091 4.84092 1.5346C5.15004 1.5983 5.4351 1.74741 5.66373 1.96499C5.89235 2.18258 6.05537 2.45992 6.13428 2.76551C6.17157 2.91003 6.26475 3.03382 6.39332 3.10964C6.52188 3.18546 6.6753 3.2071 6.81982 3.1698C6.96434 3.13251 7.08813 3.03933 7.16395 2.91076C7.23977 2.7822 7.26142 2.62878 7.22412 2.48426C7.1146 2.06049 6.9077 1.66814 6.61986 1.33841C6.33203 1.00868 5.97121 0.750682 5.56612 0.58494C5.16103 0.419198 4.72284 0.350287 4.28643 0.383692C3.85002 0.417096 3.42743 0.551894 3.05229 0.777358C2.67714 1.00282 2.35979 1.31273 2.12549 1.68243C1.89119 2.05212 1.74641 2.47139 1.70267 2.90689C1.65892 3.34238 1.71742 3.78208 1.87351 4.19099C2.0296 4.59989 2.27897 4.96673 2.60178 5.2623C1.83768 5.59379 1.17353 6.11929 0.675213 6.78668C0.58561 6.90603 0.547086 7.05608 0.568118 7.20383C0.58915 7.35158 0.668014 7.48493 0.787362 7.57453C0.906709 7.66413 1.05676 7.70266 1.20451 7.68163C1.35227 7.66059 1.48561 7.58173 1.57521 7.46238C1.91425 7.00666 2.35555 6.63691 2.86359 6.38289C3.37163 6.12887 3.93221 5.99768 4.50021 5.99988C4.6494 5.99988 4.79247 5.94062 4.89796 5.83513C5.00345 5.72964 5.06271 5.58657 5.06271 5.43738Z"
        fill="#2E3234"
    />
</svg>