<svg width="28" height="28" viewBox="0 0 28 28" fill="none" xmlns="http://www.w3.org/2000/svg">
<path d="M9.83523 3.53903H8.72993V2.8915C8.72993 2.58331 8.97725 2.33334 9.28258 2.33334C9.42908 2.33334 9.5698 2.39214 9.67332 2.49688C9.77702 2.60143 9.83523 2.74355 9.83523 2.89151L9.83523 3.53903ZM16.8653 2.8915C16.8653 2.74354 16.8071 2.60142 16.7034 2.49687C16.5997 2.39212 16.4592 2.33333 16.3126 2.33333C16.0073 2.33333 15.7598 2.58331 15.7598 2.89149V3.53902H16.8651L16.8653 2.8915ZM24.415 22.4066C24.1719 22.046 24.0306 21.6253 24.006 21.1898H23.995V19.0686C23.995 18.1092 23.4882 17.223 22.6656 16.7433C21.8431 16.2635 20.8298 16.2635 20.0072 16.7433C19.1847 17.223 18.6779 18.1092 18.6779 19.0686V21.1898H18.6669V21.2233C18.6384 21.6166 18.5131 21.9966 18.3022 22.3285C18.2912 22.3509 18.2691 22.3844 18.2581 22.4066H18.2579C18.1517 22.567 18.1432 22.7738 18.2357 22.9426C18.3286 23.1073 18.5013 23.2093 18.6891 23.2105H20.4687C20.4245 23.3197 20.4012 23.4363 20.4 23.5543C20.4 23.8923 20.5785 24.2044 20.8683 24.3734C21.158 24.5422 21.5148 24.5422 21.8045 24.3734C22.0943 24.2044 22.2728 23.8923 22.2728 23.5543C22.2716 23.4363 22.2483 23.3197 22.2041 23.2105H23.9837C24.1732 23.2119 24.3479 23.1075 24.4381 22.9393C24.5283 22.7711 24.5194 22.5663 24.4149 22.4066L24.415 22.4066ZM21.342 15.25V15.2502C21.5947 15.2475 21.8468 15.2735 22.0937 15.3282V8.58531H3.50001V19.5373C3.50001 20.2775 3.79128 20.9876 4.30942 21.5109C4.82776 22.0344 5.53057 22.3284 6.26349 22.3284H17.1076C17.1476 22.1496 17.2187 21.9795 17.3176 21.8261L17.3397 21.7926V21.7924C17.4608 21.6127 17.5366 21.4057 17.5608 21.1896L17.5718 20.81V19.0683V19.0685C17.5707 18.0571 17.9672 17.0867 18.6743 16.3709C19.3813 15.6548 20.3411 15.2516 21.3423 15.2502L21.342 15.25ZM22.0935 6.32951L22.0937 6.3297C22.0916 5.59007 21.7998 4.88139 21.282 4.35846C20.7643 3.83533 20.0624 3.54077 19.3303 3.53863H16.8652V5.32492C16.8604 5.63116 16.6158 5.8784 16.3126 5.88308C16.0072 5.88308 15.7597 5.6333 15.7597 5.32492V3.53863H9.83502V5.32492C9.83502 5.47288 9.77681 5.61501 9.6731 5.71956C9.56959 5.8243 9.42887 5.88309 9.28237 5.88309C8.97915 5.87842 8.73436 5.63116 8.72972 5.32493V3.53864H6.26347C5.53115 3.54078 4.82948 3.83535 4.31172 4.35847C3.79396 4.8814 3.50212 5.59008 3.5 6.32971V7.46847H22.0927L22.0935 6.32951Z" fill="black"/>
</svg>
