<svg width="24" height="24" viewBox="0 0 24 24" fill="none" xmlns="http://www.w3.org/2000/svg">
<path d="M17.5598 12.0005C17.5533 15.0698 15.0688 17.5537 12.0007 17.5592C8.9299 17.5534 6.44528 15.0696 6.4401 12.0005C6.44473 8.93004 8.92927 6.44581 12 6.44063C13.2397 6.44063 14.3745 6.84803 15.2962 7.53254L14.1426 8.68733L19.6014 10.1484L18.1376 4.69074L16.914 5.91477C15.5728 4.82864 13.8596 4.17391 12 4.17391C7.6778 4.17579 4.17466 7.67832 4.17392 12.0006C4.17464 16.3236 7.67802 19.8261 12 19.8261C16.322 19.8261 19.8261 16.3235 19.8261 12.0006L17.5598 12.0005Z" fill="#2E3234"/>
</svg>
