<svg width="24" height="24" viewBox="0 0 24 24" fill="none" xmlns="http://www.w3.org/2000/svg">
<path d="M17.0572 0.33252C21.0098 0.33252 23.6663 3.10685 23.6663 7.23569V16.7639C23.6663 20.8927 21.0098 23.6659 17.056 23.6659H6.94334C2.98951 23.6659 0.333008 20.8927 0.333008 16.7639V7.23569C0.333008 3.10685 2.98951 0.33252 6.94334 0.33252H17.0572ZM8.31418 8.96469C6.64117 8.96469 5.27967 10.3262 5.27967 11.9992C5.27967 13.6734 6.64117 15.0349 8.31418 15.0349C9.68151 15.0349 10.8272 14.1202 11.2052 12.8742H13.6692V14.1599C13.6692 14.6429 14.0612 15.0349 14.5442 15.0349C15.0272 15.0349 15.4192 14.6429 15.4192 14.1599V12.8742H16.9708V14.1599C16.9708 14.6429 17.3628 15.0349 17.8458 15.0349C18.3288 15.0349 18.7208 14.6429 18.7208 14.1599V11.9992C18.7208 11.5162 18.3288 11.1242 17.8458 11.1242H11.2052C10.8272 9.87935 9.68151 8.96469 8.31418 8.96469ZM8.31429 10.7146C9.02246 10.7146 9.59996 11.2909 9.59996 12.0002C9.59996 12.7084 9.02246 13.2847 8.31429 13.2847C7.60613 13.2847 7.02863 12.7084 7.02863 12.0002C7.02863 11.2909 7.60613 10.7146 8.31429 10.7146Z" fill="#2E3234"/>
</svg>
