<svg width="28" height="28" viewBox="0 0 28 28" fill="none" xmlns="http://www.w3.org/2000/svg">
<path d="M11.0411 23.9642C12.3852 23.2921 14.2847 22.04 15.2971 20.1068H16.6412C18.7823 20.1068 20.8356 19.2563 22.3496 17.7423C23.8637 16.2284 24.7141 14.1749 24.7141 12.0339C24.7141 9.89281 23.8637 7.83949 22.3496 6.32549C20.8357 4.81157 18.7823 3.96097 16.6412 3.96097H11.4892H11.4894C9.43094 3.92909 7.43858 4.68549 5.91978 6.07533C4.40098 7.46517 3.47166 9.38313 3.3215 11.4361C3.1715 13.4891 3.8123 15.5217 5.11258 17.1177C6.4129 18.7136 8.27446 19.7518 10.3154 20.0194C10.4838 21.0818 10.4141 22.1682 10.1115 23.2002C10.0585 23.3659 10.0744 23.5457 10.1555 23.6996C10.2366 23.8534 10.3762 23.9679 10.5427 24.0177C10.7093 24.0674 10.8888 24.0482 11.041 23.9641L11.0411 23.9642ZM10.1944 8.45417H17.9628C18.2428 8.45417 18.5017 8.6037 18.6417 8.8462C18.7817 9.08886 18.7817 9.3876 18.6417 9.63028C18.5017 9.87278 18.2428 10.0223 17.9628 10.0223H10.1944C9.91442 10.0223 9.65551 9.87278 9.51551 9.63028C9.37551 9.38763 9.37551 9.08888 9.51551 8.8462C9.65551 8.6037 9.91441 8.45417 10.1944 8.45417ZM10.1944 11.252H17.9628C18.2428 11.252 18.5017 11.4013 18.6417 11.644C18.7817 11.8865 18.7817 12.1854 18.6417 12.4279C18.5017 12.6706 18.2428 12.82 17.9628 12.82H10.1944C9.91442 12.82 9.65551 12.6706 9.51551 12.4279C9.37551 12.1854 9.37551 11.8865 9.51551 11.644C9.65551 11.4013 9.91441 11.252 10.1944 11.252ZM10.1944 15.6112C9.91442 15.6112 9.65551 15.4618 9.51551 15.2191C9.37551 14.9766 9.37551 14.6777 9.51551 14.4352C9.65551 14.1926 9.91441 14.0432 10.1944 14.0432H17.9628C18.2428 14.0432 18.5017 14.1926 18.6417 14.4352C18.7817 14.6777 18.7817 14.9766 18.6417 15.2191C18.5017 15.4618 18.2428 15.6112 17.9628 15.6112H10.1944Z" fill="black"/>
</svg>
