<svg width="21" height="19" viewBox="0 0 21 19" fill="none" xmlns="http://www.w3.org/2000/svg">
<path d="M16.6476 1.30565C16.2896 1.30565 15.9948 1.01083 15.9948 0.652827C15.9948 0.294825 16.2896 0 16.6476 0C16.6898 0 16.7529 0 16.8372 0C16.9214 0 16.9846 -2.03972e-08 17.0267 0.0210589H17.0478C17.49 0.0631768 17.8901 0.231648 18.2692 0.463297C18.7325 0.779181 19.0905 1.22142 19.3221 1.72683C19.7644 2.69554 19.6591 3.83273 19.0694 4.7172L16.079 9.1817C15.8685 9.47652 15.4683 9.5397 15.1735 9.32911C14.8997 9.13958 14.8366 8.76052 15.005 8.46569L17.9954 3.98014C18.1428 3.74849 18.2481 3.47473 18.2692 3.20096C18.3113 2.88507 18.2481 2.54813 18.1218 2.25331C17.9954 1.95848 17.7848 1.72683 17.5321 1.5373C17.3426 1.41095 17.1109 1.32671 16.8793 1.30565H16.8582C16.8161 1.30565 16.7951 1.30565 16.7529 1.2846L16.6476 1.30565Z" fill="#777777"/>
<path d="M16.3097 0.0209961C16.6677 0.0209961 16.9625 0.315821 16.9625 0.673823C16.9625 1.03183 16.6677 1.32665 16.3097 1.32665H5.18017C4.82217 1.32665 4.52734 1.03183 4.52734 0.673823C4.52734 0.315821 4.82217 0.0209961 5.18017 0.0209961H16.3097ZM6.85423 0.0209961C7.21224 0.0209961 7.50706 0.315821 7.50706 0.673823C7.50706 1.03183 7.21224 1.32665 6.85423 1.32665H6.79106C6.43305 1.32665 6.13823 1.03183 6.13823 0.673823C6.13823 0.315821 6.43305 0.0209961 6.79106 0.0209961H6.85423Z" fill="#777777"/>
<path d="M5.21209 6.48604C5.42268 6.19122 5.8228 6.10698 6.11762 6.29651C6.41245 6.48604 6.49668 6.88616 6.30715 7.20205L1.58995 14.2568C1.44254 14.4884 1.33724 14.7622 1.31618 15.036C1.27407 15.3519 1.31618 15.6677 1.4636 15.9626C1.58995 16.2574 1.80054 16.489 2.05325 16.6575C2.24278 16.7839 2.47443 16.8681 2.70607 16.8892C2.74819 16.8892 2.79031 16.9102 2.81137 16.9102H12.667C13.025 16.9102 13.3198 17.205 13.3198 17.563C13.3198 17.921 13.025 18.2159 12.667 18.2159H2.93772C2.8956 18.2159 2.81137 18.2159 2.74819 18.2159L2.55866 18.1948C2.11642 18.1527 1.69524 18.0053 1.31618 17.7526C0.852887 17.4367 0.494885 16.9945 0.263237 16.489C-0.157942 15.5203 -0.0737063 14.4042 0.515944 13.5197L5.21209 6.48604Z" fill="#777777"/>
<path d="M5.2114 0.0208956C5.5694 -0.000163324 5.88529 0.273603 5.90635 0.631605C5.92741 0.989607 5.65364 1.30549 5.29564 1.32655C5.27458 1.32655 5.25352 1.32655 5.2114 1.32655C4.1374 1.32655 3.25292 2.21103 3.25292 3.28503C3.25292 3.39033 3.27398 3.47456 3.29504 3.57986C3.3161 3.68515 3.37927 3.76939 3.42139 3.87468L3.44245 3.89574C3.58986 4.10633 3.77939 4.2748 4.01104 4.40115C4.26375 4.54857 4.55857 4.61174 4.8534 4.61174H13.4244C13.2349 4.21162 13.1296 3.76939 13.1296 3.32715C13.1506 2.56903 13.4244 1.83196 13.9298 1.24231C14.2246 0.884312 14.6037 0.589487 15.0249 0.378898C15.425 0.168308 15.8883 0.0630135 16.3516 0.0630135C18.1416 0.0840725 19.5736 1.51608 19.5947 3.30609C19.5947 3.66409 19.2998 3.95892 18.9418 3.95892C18.5838 3.95892 18.289 3.66409 18.289 3.30609C18.289 2.77962 18.0784 2.29526 17.7204 1.93726C17.3624 1.57926 16.857 1.36867 16.3516 1.34761C16.0989 1.34761 15.8462 1.41079 15.6145 1.53714C15.3618 1.66349 15.1302 1.85302 14.9406 2.06361C14.6247 2.40056 14.4563 2.84279 14.4352 3.30609C14.4352 3.5588 14.4984 3.83256 14.6037 4.06421C14.6879 4.25374 14.8143 4.40115 14.9617 4.54857C15.0038 4.59069 14.9827 4.61174 15.0038 4.61174V5.9174H4.8534C4.34798 5.9174 3.84257 5.79104 3.40033 5.5594C2.97915 5.34881 2.60009 5.01186 2.34739 4.61174C2.34739 4.59069 2.32633 4.59068 2.32633 4.56963C2.22103 4.3801 2.1368 4.19057 2.05256 4.00103C1.98938 3.79045 1.94727 3.5588 1.94727 3.32715C1.94727 1.53714 3.37927 0.0840725 5.16928 0.0630135C5.19034 -0.000163266 5.2114 -0.000163324 5.2114 0.0208956Z" fill="#777777"/>
<path d="M7.82373 9.11864C7.46572 9.11864 7.1709 8.82382 7.1709 8.46582C7.1709 8.10781 7.46572 7.81299 7.82373 7.81299H11.0879C11.4459 7.81299 11.7407 8.10781 11.7407 8.46582C11.7407 8.82382 11.4459 9.11864 11.0879 9.11864H7.82373Z" fill="#777777"/>
<path d="M6.5181 11.0771C6.1601 11.0561 5.88633 10.7402 5.90739 10.3822C5.92845 10.0453 6.18115 9.79254 6.5181 9.77148H8.47658C8.83458 9.79254 9.10835 10.1084 9.08729 10.4664C9.06623 10.8034 8.81352 11.0561 8.47658 11.0771H6.5181Z" fill="#777777"/>
<path d="M17.069 10.1501C16.7531 9.96053 16.6688 9.56041 16.8584 9.24453C17.0479 8.92864 17.448 8.84441 17.7639 9.03394C18.3957 9.413 18.9221 9.93947 19.3433 10.5291C20.9859 12.9088 20.3752 16.1729 17.9955 17.7945C15.6159 19.416 12.3517 18.8263 10.7302 16.4467C9.10867 14.067 9.67726 10.8239 12.0569 9.20241C12.6676 8.78123 13.3626 8.50746 14.0786 8.36005C14.1628 8.36005 14.226 8.33899 14.2892 8.33899C14.3523 8.31793 14.4155 8.31793 14.4998 8.31793C14.6472 8.29687 14.8156 8.29688 14.9631 8.29688C15.1105 8.29688 15.2789 8.29687 15.4264 8.31793C15.7844 8.36005 16.0371 8.67594 16.016 9.03394C15.9739 9.39194 15.6791 9.64465 15.3211 9.62359C15.1947 9.60253 15.0684 9.60253 14.9631 9.60253C14.8578 9.60253 14.7314 9.62359 14.6051 9.62359C14.5419 9.62359 14.4998 9.62359 14.4366 9.64465C14.3734 9.64465 14.3313 9.66571 14.2681 9.66571C12.1833 10.0448 10.7723 12.0664 11.1724 14.1934C11.362 15.2042 11.9306 16.1097 12.794 16.6994C14.5629 17.9419 17.0058 17.4996 18.2483 15.7096C18.8379 14.8673 19.0695 13.8143 18.88 12.7824C18.7747 12.2349 18.5641 11.7295 18.2483 11.2662C17.9324 10.8239 17.5322 10.4449 17.069 10.1501Z" fill="#777777"/>
<path d="M13.0669 14.1308C12.7089 14.1308 12.4141 13.836 12.4141 13.478C12.4141 13.12 12.7089 12.8252 13.0669 12.8252H16.9839C17.3419 12.8252 17.6367 13.12 17.6367 13.478C17.6367 13.836 17.3419 14.1308 16.9839 14.1308H13.0669Z" fill="#777777"/>
<path d="M14.3105 11.5827C14.3105 11.2247 14.5843 10.9298 14.9423 10.9088C15.3003 10.8877 15.5951 11.1825 15.6162 11.5405L15.7215 15.4575C15.7215 15.8155 15.4477 16.1103 15.0897 16.1314C14.7317 16.1314 14.4369 15.8576 14.4158 15.4996L14.3105 11.5827Z" fill="#777777"/>
</svg>
