 <svg
                    width="100%"
                    height="100%"
                    viewBox="0 0 20 20"
                    fill="none"
                    xmlns="http://www.w3.org/2000/svg"
                  >
                    <path
                      d="M10.0988 7.12167C10.0218 7.20136 9.92982 7.26509 9.82816 7.30923C9.72651 7.35338 9.61715 7.37706 9.50634 7.37894C9.39552 7.38082 9.28543 7.36085 9.18233 7.32017C9.07924 7.2795 8.98516 7.21891 8.90549 7.14188L6.51684 4.83307V15.1054C6.51684 15.3292 6.42794 15.5439 6.26968 15.7021C6.11142 15.8604 5.89678 15.9493 5.67297 15.9493C5.44916 15.9493 5.23451 15.8604 5.07625 15.7021C4.918 15.5439 4.82909 15.3292 4.82909 15.1054V4.83307L2.44045 7.14188C2.36121 7.22107 2.26701 7.2837 2.16332 7.32611C2.05963 7.36851 1.94853 7.38985 1.83651 7.38887C1.72449 7.38789 1.61378 7.36462 1.51085 7.32041C1.40792 7.2762 1.31482 7.21194 1.23698 7.13137C1.15914 7.0508 1.09812 6.95555 1.05748 6.85115C1.01685 6.74676 0.997399 6.63532 1.00028 6.52333C1.00316 6.41134 1.02831 6.30104 1.07426 6.19888C1.12021 6.09671 1.18604 6.00471 1.26792 5.92825L5.08647 2.23721C5.10056 2.22354 5.11685 2.21397 5.13166 2.20143L5.14571 2.18983C5.16407 2.17506 5.18103 2.15785 5.20027 2.14481C5.20343 2.1427 5.20706 2.14131 5.21027 2.1392C5.23314 2.12413 5.25744 2.11295 5.28136 2.10034C5.30596 2.08743 5.32989 2.07325 5.35537 2.06291C5.38157 2.05313 5.40824 2.04468 5.43529 2.03759C5.45736 2.03114 5.47879 2.02224 5.50124 2.01759L5.51225 2.01616C5.53913 2.01097 5.56622 2.0097 5.59343 2.00713C5.61816 2.00485 5.64254 2.00067 5.6674 2.00051L5.67297 2L5.6782 2.00051C5.70288 2.00072 5.72719 2.00473 5.75178 2.00717C5.77896 2.0097 5.80605 2.01097 5.83292 2.01612L5.84478 2.01768C5.86672 2.02224 5.88765 2.03105 5.90921 2.03738C5.93657 2.04445 5.96355 2.0529 5.99005 2.0627C5.99385 2.06426 5.99811 2.06485 6.00187 2.06646C6.02296 2.07536 6.04216 2.08869 6.06254 2.09937C6.08736 2.11125 6.11156 2.12441 6.13503 2.13878C6.13858 2.1411 6.1425 2.14274 6.146 2.1451C6.16288 2.15637 6.17723 2.17143 6.19322 2.18405C6.20073 2.18996 6.20803 2.19608 6.21533 2.20228C6.22971 2.21443 6.24558 2.22375 6.25929 2.23705L10.078 5.92825C10.1578 6.00524 10.2215 6.09718 10.2657 6.19883C10.31 6.30047 10.3337 6.40983 10.3356 6.52065C10.3376 6.63147 10.3176 6.74159 10.277 6.84472C10.2364 6.94784 10.1758 7.04195 10.0988 7.12167ZM18.9595 12.9373C18.8825 12.8577 18.7905 12.7939 18.6889 12.7498C18.5872 12.7056 18.4779 12.682 18.3671 12.6801C18.2562 12.6782 18.1461 12.6982 18.043 12.7389C17.94 12.7795 17.8459 12.8401 17.7662 12.9172L15.3776 15.2259V4.95357C15.3776 4.72976 15.2887 4.51512 15.1304 4.35686C14.9721 4.1986 14.7575 4.1097 14.5337 4.1097C14.3099 4.1097 14.0952 4.1986 13.937 4.35686C13.7787 4.51512 13.6898 4.72976 13.6898 4.95357V15.2259L11.3012 12.9172C11.222 12.8378 11.1278 12.7751 11.024 12.7326C10.9203 12.6901 10.8092 12.6686 10.6971 12.6696C10.585 12.6705 10.4742 12.6937 10.3712 12.7379C10.2682 12.7821 10.175 12.8464 10.0971 12.927C10.0192 13.0077 9.95815 13.103 9.91751 13.2075C9.87687 13.3119 9.85745 13.4235 9.86039 13.5355C9.86333 13.6476 9.88856 13.7579 9.93462 13.8601C9.98068 13.9623 10.0466 14.0543 10.1286 14.1308L13.9472 17.8218C13.9622 17.8363 13.9794 17.8467 13.9952 17.8598C14.0069 17.8696 14.0182 17.8797 14.0304 17.8889C14.0438 17.8988 14.0563 17.9102 14.0701 17.9193C14.0947 17.9343 14.1201 17.9481 14.1461 17.9604C14.1666 17.9712 14.1856 17.9841 14.2071 17.9931L14.2161 17.9964C14.2458 18.0074 14.2762 18.0166 14.3069 18.0241C14.3269 18.0297 14.3458 18.0378 14.3664 18.042L14.3723 18.0431C14.4788 18.0641 14.5883 18.0641 14.6948 18.0431L14.7007 18.042C14.7213 18.0377 14.7402 18.0297 14.7602 18.0241C14.791 18.0166 14.8213 18.0074 14.851 17.9964L14.86 17.9931C14.8815 17.9841 14.9006 17.9712 14.921 17.9604C14.947 17.9481 14.9724 17.9343 14.997 17.9193C15.0108 17.9102 15.0233 17.8988 15.0367 17.8889C15.0489 17.8797 15.0603 17.8696 15.072 17.8598C15.0877 17.8466 15.105 17.8362 15.1199 17.8218L18.9387 14.1308C19.0185 14.0538 19.0823 13.9618 19.1265 13.8602C19.1707 13.7585 19.1944 13.6492 19.1964 13.5384C19.1983 13.4275 19.1784 13.3174 19.1377 13.2143C19.0971 13.1112 19.0365 13.0171 18.9595 12.9373Z"
                      fill="#737373"
                    />
                  </svg>