<svg width="10" height="17" viewBox="0 0 10 17" fill="none" xmlns="http://www.w3.org/2000/svg">
<path d="M1.50371 1.95545C1.43565 1.75939 1.3729 1.38581 1.36419 1.12529C1.35548 0.864768 1.35933 0.640673 1.37271 0.627288C1.38606 0.613941 3.00483 0.603105 4.96994 0.603295L8.54288 0.603598L8.54619 0.985579C8.55284 1.75984 8.3289 2.34588 7.82626 2.86921L7.51877 3.18939L7.51915 5.13652L7.51957 7.08361L7.87942 7.3125C8.39468 7.64021 8.99144 8.29682 9.21154 8.77817C9.4394 9.2767 9.54211 9.73557 9.56105 10.3407L9.57748 10.8656L7.52174 10.8683L5.46601 10.8711L5.4654 13.4373L5.46479 16.0034L5.22948 16.476C5.10004 16.7359 4.97527 16.9486 4.95223 16.9486C4.92918 16.9486 4.80442 16.7359 4.67497 16.476L4.43966 16.0034L4.43905 13.4373L4.43844 10.8711L2.38244 10.8681L0.326402 10.865L0.344959 10.2766C0.365227 9.6348 0.542547 9.00207 0.844177 8.49578C1.06971 8.11715 1.67891 7.51313 2.07309 7.27721L2.38488 7.09061L2.38541 5.12287L2.38594 3.1552L2.22254 3.03682C1.97685 2.8589 1.64282 2.35641 1.50371 1.95545Z" fill="black"/>
</svg>
