<svg width="14" height="16" viewBox="0 0 14 16" fill="none" xmlns="http://www.w3.org/2000/svg">
<path opacity="0.5" fill-rule="evenodd" clip-rule="evenodd" d="M6.875 0.5C7.34958 0.5 7.73438 0.895087 7.73438 1.38235V8.91109L9.69561 6.83439C10.0259 6.4846 10.5702 6.47593 10.9108 6.81528C11.2515 7.15444 11.2599 7.71321 10.9294 8.06298L7.49193 11.7027C7.33022 11.8741 7.10751 11.9708 6.87504 11.9708C6.64258 11.9708 6.41985 11.8741 6.25816 11.7027L2.82066 8.06298C2.49014 7.71319 2.49859 7.15441 2.83927 6.81528C3.17995 6.47593 3.72418 6.4846 4.05447 6.83439L6.01571 8.91109V1.38235C6.01571 0.895087 6.40051 0.5 6.87509 0.5H6.875ZM0.859375 11.5294C1.33395 11.5294 1.71875 11.9245 1.71875 12.4118V12.8529C1.71875 13.3402 2.10355 13.7353 2.57812 13.7353H11.1719C11.6465 13.7353 12.0312 13.3402 12.0312 12.8529V12.4118C12.0312 11.9245 12.416 11.5294 12.8906 11.5294C13.3652 11.5294 13.75 11.9245 13.75 12.4118V12.8529C13.75 14.3149 12.5958 15.5 11.1719 15.5H2.57812C1.15421 15.5 0 14.3149 0 12.8529V12.4118C0 11.9245 0.384799 11.5294 0.859375 11.5294Z" fill="black"/>
</svg>
