<svg width="18" height="16" viewBox="0 0 18 16" fill="none" xmlns="http://www.w3.org/2000/svg">
<path fill-rule="evenodd" clip-rule="evenodd" d="M6.10026 0.969059C4.45888 1.14741 2.91327 1.73694 1.84231 2.59307C1.50684 2.86127 0.968919 3.43175 0.745431 3.75642C0.489247 4.12855 0.227298 4.69095 0.117153 5.10533C0.0367862 5.40764 0.0247628 5.52418 0.0217042 6.03124C0.0179424 6.65586 0.0613956 6.93413 0.235173 7.39889C0.592185 8.35356 1.36956 9.26699 2.38266 9.9223L2.67291 10.11L2.51829 10.4173C2.34395 10.7639 2.06913 11.1364 1.65278 11.5904C1.33261 11.9395 1.26086 12.0748 1.30681 12.2429C1.3447 12.3815 1.48941 12.5 1.62079 12.5C1.803 12.5 2.47505 12.3561 2.88346 12.2296C3.67208 11.9855 4.36979 11.6643 5.02103 11.2455L5.3129 11.0578L5.53079 11.0923C6.61804 11.2645 7.97996 11.2377 9.01678 11.0239C10.0585 10.809 11.0532 10.4039 11.8517 9.86918C12.9718 9.11909 13.7137 8.15918 14.0179 7.06631C14.1084 6.74105 14.1151 6.67165 14.1138 6.0664C14.1125 5.46716 14.1048 5.38841 14.0154 5.06497C13.7173 3.98575 12.9715 3.02145 11.8659 2.28584C10.8851 1.6333 9.79771 1.22897 8.45572 1.01782C8.04496 0.953169 6.53422 0.921915 6.10026 0.969059ZM5.92447 2.30394C4.88508 2.45793 3.88221 2.80429 3.14713 3.26322C2.6078 3.59994 2.07866 4.09944 1.77087 4.56241C0.984775 5.74493 1.19881 7.15681 2.327 8.23107C2.71675 8.60218 2.99698 8.79758 3.80722 9.26323C4.05423 9.40519 4.26334 9.53267 4.27188 9.54648C4.28043 9.5603 4.21574 9.7417 4.12813 9.94958C4.04052 10.1575 3.97541 10.3342 3.98346 10.3422C3.99148 10.3502 4.22583 10.2053 4.50423 10.0201L5.01041 9.68341L5.29166 9.73661C6.24876 9.91763 7.36117 9.95985 8.17447 9.84601C10.0292 9.58642 11.5934 8.7465 12.3557 7.60083C12.7006 7.08241 12.8406 6.6322 12.8382 6.04882C12.8349 5.24554 12.5024 4.56417 11.7762 3.87321C10.9131 3.05182 9.63012 2.49561 8.12315 2.28946C7.57056 2.21391 6.48409 2.22104 5.92447 2.30394ZM15.2414 4.72167C15.4448 5.40845 15.4721 6.35433 15.311 7.13402C14.8341 9.44302 12.6969 11.3822 9.79166 12.1419C8.84747 12.3888 8.10363 12.4783 7.01794 12.4757L6.21297 12.4737L6.4027 12.5961C6.95058 12.9494 7.94796 13.3554 8.70906 13.535C9.84218 13.8022 11.1886 13.856 12.3553 13.6808L12.6953 13.6297L13.0189 13.8393C13.6332 14.2371 14.344 14.562 15.1354 14.8065C15.5523 14.9353 16.1728 15.0664 16.3657 15.0664C16.5124 15.0664 16.654 14.9509 16.6975 14.7956C16.7415 14.6389 16.6672 14.5075 16.3204 14.1291C15.9161 13.6879 15.662 13.3406 15.4836 12.9854L15.3288 12.6772L15.7243 12.4168C16.7258 11.7575 17.5322 10.7564 17.8222 9.81216C18.3921 7.95686 17.5914 6.10655 15.6667 4.83154C15.4369 4.67927 15.236 4.55468 15.2204 4.55468C15.2047 4.55468 15.2142 4.62981 15.2414 4.72167Z" fill="black"/>
</svg>
