<svg width="32" height="32" viewBox="0 0 32 32" fill="none" xmlns="http://www.w3.org/2000/svg">
<path d="M6.74062 4.3279C6.6528 4.22891 6.54621 4.14833 6.42702 4.09084C6.30783 4.03335 6.17841 4.00008 6.04627 3.99297C5.91413 3.98586 5.7819 4.00505 5.65723 4.04943C5.53256 4.0938 5.41794 4.16248 5.32001 4.25147C5.22207 4.34047 5.14278 4.44802 5.08672 4.56789C5.03066 4.68776 4.99895 4.81757 4.99343 4.94978C4.9879 5.082 5.00867 5.214 5.05454 5.33812C5.10041 5.46225 5.17045 5.57604 5.26062 5.6729L8.42187 9.1504C7.07251 9.45234 5.8142 10.0706 4.75062 10.9542C4.53177 11.1301 4.35244 11.3502 4.22429 11.6001C4.09614 11.85 4.02205 12.124 4.00684 12.4044C3.99163 12.6848 4.03564 12.9653 4.13601 13.2276C4.23637 13.4898 4.39084 13.728 4.58937 13.9267L10.6256 19.9642L5.29312 25.2929C5.10548 25.4805 5.00006 25.735 5.00006 26.0004C5.00006 26.2658 5.10548 26.5203 5.29312 26.7079C5.48076 26.8955 5.73525 27.001 6.00062 27.001C6.26598 27.001 6.52048 26.8955 6.70812 26.7079L12.0369 21.3754L18.0731 27.4116C18.2587 27.598 18.4792 27.7459 18.722 27.8469C18.9648 27.948 19.2251 28.0001 19.4881 28.0004C19.5356 28.0004 19.5819 28.0004 19.6294 28.0004C19.9145 27.9806 20.192 27.8998 20.443 27.7632C20.6941 27.6267 20.9128 27.4377 21.0844 27.2092C21.6751 26.4312 22.1617 25.5794 22.5319 24.6754L25.2619 27.6754C25.3497 27.7744 25.4563 27.855 25.5755 27.9125C25.6947 27.97 25.8241 28.0032 25.9562 28.0103C26.0884 28.0174 26.2206 27.9983 26.3453 27.9539C26.4699 27.9095 26.5845 27.8408 26.6825 27.7518C26.7804 27.6628 26.8597 27.5553 26.9158 27.4354C26.9718 27.3155 27.0035 27.1857 27.0091 27.0535C27.0146 26.9213 26.9938 26.7893 26.9479 26.6652C26.9021 26.541 26.832 26.4273 26.7419 26.3304L6.74062 4.3279ZM19.4881 26.0004L6.00062 12.5104C7.27937 11.4792 8.65062 10.9654 10.0831 10.9767L20.9781 22.9617C20.6994 24.1954 20.0306 25.2792 19.4881 26.0004ZM29.4156 13.0004L23.8356 18.5991C23.7429 18.6921 23.6327 18.766 23.5114 18.8164C23.3902 18.8668 23.2602 18.8928 23.1288 18.893C22.9975 18.8932 22.8674 18.8675 22.746 18.8174C22.6246 18.7673 22.5142 18.6938 22.4212 18.601C22.3283 18.5083 22.2544 18.3981 22.204 18.2769C22.1536 18.1556 22.1276 18.0256 22.1274 17.8942C22.1272 17.7629 22.1529 17.6328 22.203 17.5114C22.2531 17.39 22.3266 17.2796 22.4194 17.1867L28.0006 11.5879L20.4156 4.0004L15.2631 9.16915C15.0744 9.34912 14.8228 9.44824 14.562 9.44537C14.3012 9.4425 14.0519 9.33787 13.8672 9.15379C13.6824 8.96971 13.5769 8.72074 13.5731 8.45997C13.5693 8.19921 13.6676 7.94728 13.8469 7.7579L19.0006 2.5879C19.1863 2.40214 19.4068 2.25478 19.6495 2.15424C19.8922 2.0537 20.1523 2.00195 20.415 2.00195C20.6777 2.00195 20.9378 2.0537 21.1805 2.15424C21.4231 2.25478 21.6436 2.40214 21.8294 2.5879L29.4156 10.1729C29.7904 10.5479 30.0009 11.0564 30.0009 11.5867C30.0009 12.1169 29.7904 12.6254 29.4156 13.0004Z" fill="#343330"/>
</svg>
