<svg width="26" height="26" viewBox="0 0 26 26" fill="none" xmlns="http://www.w3.org/2000/svg">
<g clip-path="url(#clip0_7868_3785)">
<mask id="mask0_7868_3785" style="mask-type:luminance" maskUnits="userSpaceOnUse" x="0" y="0" width="26" height="26">
<path d="M0 0H26V26H0V0Z" fill="white"/>
</mask>
<g mask="url(#mask0_7868_3785)">
<path d="M4 5H19V7.16667H4V5Z" fill="black"/>
<path d="M19 17.5835H4V19.7502H19V17.5835Z" fill="black"/>
</g>
<path d="M22.2232 15.6022L25.4732 12.675C25.5183 12.6344 25.5544 12.5847 25.5791 12.5292C25.6038 12.4738 25.6165 12.4137 25.6165 12.353C25.6165 12.2923 25.6038 12.2323 25.5791 12.1768C25.5544 12.1214 25.5183 12.0717 25.4732 12.0311L22.2323 9.11127C22.1703 9.05543 22.0935 9.01869 22.011 9.00547C21.9286 8.99225 21.8442 9.00311 21.7678 9.03675C21.6914 9.07039 21.6263 9.12538 21.5805 9.1951C21.5346 9.26482 21.5098 9.3463 21.5091 9.42977L21.5 10.6188C21.5 10.7338 21.4543 10.844 21.3731 10.9252C21.2918 11.0065 21.1816 11.0522 21.0667 11.0522H18.471H18.4667H18.4623H15.871H15.8667H15.8623H4V13.6522H21.0667C21.1816 13.6522 21.2918 13.6978 21.3731 13.7791C21.4543 13.8604 21.5 13.9706 21.5 14.0855V15.2789C21.4998 15.3628 21.5239 15.4449 21.5694 15.5153C21.6149 15.5858 21.6799 15.6415 21.7565 15.6757C21.8331 15.7099 21.9179 15.7212 22.0008 15.7081C22.0836 15.6951 22.1609 15.6583 22.2232 15.6022Z" fill="black"/>
</g>
<defs>
<clipPath id="clip0_7868_3785">
<rect width="26" height="26" fill="white"/>
</clipPath>
</defs>
</svg>
