<svg width="512" height="512" viewBox="0 0 512 512" fill="none" xmlns="http://www.w3.org/2000/svg">
<g clip-path="url(#clip0_6287_91312)">
<path d="M223.5 1.50002C165.1 9.70002 115.7 34.1 74.9 74.9C33.7 116.1 8.69997 167.2 1.39998 225C-1.10002 245.1 -0.200025 279.5 3.39998 298.1C7.59997 320.6 17.5 351.5 21.8 356.3C28.1 363.3 41.4 362.4 46.5 354.6C50 349.3 49.6 345.6 43.2 326.5C33.9 298.9 31 281.5 31 254.7C31 179.4 68.6 110.3 132.5 67.8C184.8 33.1 250.3 22.1 311.2 37.9C332.7 43.5 356.5 53.7 374.9 65.1L383.4 70.3L379.1 71.6C374.3 73 371.4 75.2 369.4 79.2C366.4 85 368.6 95.4 373.5 98.6C377 100.9 444.1 123 447.5 123C451.8 123 457.1 120 459.7 116.1C463.7 110.2 463 106.5 450.8 70C440.8 39.8 439.3 36.1 436.1 32.9C425 21.8 406.6 33.1 410.8 48.4L411.8 52L404.2 46.7C372.4 24.5 335.9 9.70002 296.6 2.80002C280.8 0.100022 238.9 -0.699978 223.5 1.50002Z" fill=""/>
<path d="M217.6 92.9C211.7 96.8 211 99.1 211 114.7C211 125.8 210.7 129 209.7 129C206.8 129 182.1 142.2 175.4 147.3L168.3 152.7L157.4 146.3C146.9 140.1 146.3 139.9 140.5 140.2C136.4 140.5 133.6 141.2 131.8 142.5C130.3 143.6 122 156.7 112.8 172.5L96.5 200.5V207.2C96.5 213.5 96.7 214.2 99.7 217.1C101.4 218.9 107.3 222.9 112.7 226L122.5 231.6L122 236.1C121.7 238.5 121.5 247.5 121.5 256C121.5 264.5 121.7 273.5 122 275.9L122.5 280.4L112.7 286C107.3 289.1 101.4 293.1 99.7 294.9C96.7 297.8 96.5 298.5 96.5 304.8V311.5L111.9 338C120.3 352.6 128.8 366.1 130.6 368C133.6 371.1 134.6 371.4 140.2 371.7C146.4 372.1 146.7 371.9 157.4 365.7L168.3 359.3L175.4 364.7C182.1 369.8 206.8 383 209.7 383C210.7 383 211 386.2 211 397.2C211 412.9 211.7 415.2 217.6 419.1C220.3 420.9 222.9 421 256 421C289.1 421 291.7 420.9 294.4 419.1C300.3 415.2 301 412.9 301 397.2C301 386.2 301.3 383 302.3 383C305.2 383 329.9 369.8 336.6 364.7L343.7 359.3L354.6 365.7C365.3 371.9 365.6 372.1 371.8 371.7C377.4 371.4 378.4 371 381.4 368C383.3 366.1 391.7 352.6 400.1 338L415.5 311.5V304.8C415.5 298.5 415.3 297.8 412.3 294.9C410.6 293.1 404.7 289.1 399.3 286L389.5 280.4L390 275.9C390.3 273.5 390.5 264.5 390.5 256C390.5 247.5 390.3 238.5 390 236.1L389.5 231.6L399.3 226C413 218.1 415.3 215.6 415.8 208.1L416.2 202.2L399.5 173.3C390.1 157 381.7 143.6 380.2 142.5C378.4 141.2 375.6 140.5 371.5 140.2C365.7 139.9 365.1 140.1 354.6 146.3L343.7 152.7L336.6 147.3C329.9 142.2 305.2 129 302.3 129C301.3 129 301 125.8 301 114.7C301 99.1 300.3 96.8 294.4 92.9C291.7 91.1 289.1 91 256 91C222.9 91 220.3 91.1 217.6 92.9ZM274.3 215.7C283.3 220 292 228.6 296.3 237.7C299.3 244.1 299.5 245.1 299.5 256C299.5 266.9 299.3 267.9 296.3 274.3C292 283.4 283.4 292 274.3 296.3C267.9 299.3 266.9 299.5 256 299.5C245.1 299.5 244.1 299.3 237.7 296.3C228.6 292 220 283.4 215.7 274.3C212.7 267.9 212.5 266.9 212.5 256C212.5 245.1 212.7 244.1 215.7 237.7C219.4 229.9 228.2 220.5 235 217C243.1 212.8 247 212 257.5 212.3C266.4 212.5 268.3 212.9 274.3 215.7Z" fill=""/>
<path d="M470.3 153C466.2 155.5 464 158.9 463.3 163.8C462.9 166.7 464.1 171.4 468.4 184C477.8 212 481 230.1 481 257C481.1 380.3 380.1 481.1 256.7 481.1C237.1 481.1 222.4 479.3 204 474.9C181.7 469.4 156.1 458.7 137.1 446.9L128.6 441.7L132.9 440.4C137.7 439 140.6 436.8 142.6 432.8C145.6 427 143.4 416.6 138.5 413.4C135 411.1 67.9 389 64.5 389C60.2 389 54.9 392 52.3 395.9C48.3 401.8 49 405.5 61.1 441.9C73.4 478.7 74.7 481.2 82.5 483C93.9 485.6 103.9 475.8 101.3 464.5L100.3 460.1L107.9 465.4C140.3 487.9 177.8 503 218.5 509.7C235.5 512.5 279.9 512.3 297 509.3C352.1 499.7 398.2 475.9 437 437C475.8 398.3 499.8 351.9 509.1 297.6C512.1 280.4 512.8 244.4 510.6 227C508.4 210.2 504.7 194.3 499.4 178C493.7 160.8 491.3 156.1 487.1 153.3C482.7 150.3 474.9 150.2 470.3 153Z" fill=""/>
</g>
<defs>
<clipPath id="clip0_6287_91312">
<rect width="512" height="512" fill="white"/>
</clipPath>
</defs>
</svg>
