<svg width="12" height="17" viewBox="0 0 12 17" fill="none" xmlns="http://www.w3.org/2000/svg">
<path d="M1.625 2.25C1.97018 2.25 2.25 1.97018 2.25 1.625C2.25 1.27982 1.97018 1 1.625 1C1.27982 1 1 1.27982 1 1.625C1 1.97018 1.27982 2.25 1.625 2.25Z" stroke="#1776BA" stroke-width="2" stroke-linecap="round" stroke-linejoin="round"/>
<path d="M6 2.25C6.34518 2.25 6.625 1.97018 6.625 1.625C6.625 1.27982 6.34518 1 6 1C5.65482 1 5.375 1.27982 5.375 1.625C5.375 1.97018 5.65482 2.25 6 2.25Z" stroke="#1776BA" stroke-width="2" stroke-linecap="round" stroke-linejoin="round"/>
<path d="M10.375 2.25C10.7202 2.25 11 1.97018 11 1.625C11 1.27982 10.7202 1 10.375 1C10.0298 1 9.75 1.27982 9.75 1.625C9.75 1.97018 10.0298 2.25 10.375 2.25Z" stroke="#1776BA" stroke-width="2" stroke-linecap="round" stroke-linejoin="round"/>
<path d="M1.625 6.625C1.97018 6.625 2.25 6.34518 2.25 6C2.25 5.65482 1.97018 5.375 1.625 5.375C1.27982 5.375 1 5.65482 1 6C1 6.34518 1.27982 6.625 1.625 6.625Z" stroke="#1776BA" stroke-width="2" stroke-linecap="round" stroke-linejoin="round"/>
<path d="M6 6.625C6.34518 6.625 6.625 6.34518 6.625 6C6.625 5.65482 6.34518 5.375 6 5.375C5.65482 5.375 5.375 5.65482 5.375 6C5.375 6.34518 5.65482 6.625 6 6.625Z" stroke="#1776BA" stroke-width="2" stroke-linecap="round" stroke-linejoin="round"/>
<path d="M10.375 6.625C10.7202 6.625 11 6.34518 11 6C11 5.65482 10.7202 5.375 10.375 5.375C10.0298 5.375 9.75 5.65482 9.75 6C9.75 6.34518 10.0298 6.625 10.375 6.625Z" stroke="#1776BA" stroke-width="2" stroke-linecap="round" stroke-linejoin="round"/>
<path d="M1.625 11C1.97018 11 2.25 10.7202 2.25 10.375C2.25 10.0298 1.97018 9.75 1.625 9.75C1.27982 9.75 1 10.0298 1 10.375C1 10.7202 1.27982 11 1.625 11Z" stroke="#1776BA" stroke-width="2" stroke-linecap="round" stroke-linejoin="round"/>
<path d="M6 11C6.34518 11 6.625 10.7202 6.625 10.375C6.625 10.0298 6.34518 9.75 6 9.75C5.65482 9.75 5.375 10.0298 5.375 10.375C5.375 10.7202 5.65482 11 6 11Z" stroke="#1776BA" stroke-width="2" stroke-linecap="round" stroke-linejoin="round"/>
<path d="M6 15.5059C6.34518 15.5059 6.625 15.226 6.625 14.8809C6.625 14.5357 6.34518 14.2559 6 14.2559C5.65482 14.2559 5.375 14.5357 5.375 14.8809C5.375 15.226 5.65482 15.5059 6 15.5059Z" stroke="#1776BA" stroke-width="2" stroke-linecap="round" stroke-linejoin="round"/>
<path d="M10.375 11C10.7202 11 11 10.7202 11 10.375C11 10.0298 10.7202 9.75 10.375 9.75C10.0298 9.75 9.75 10.0298 9.75 10.375C9.75 10.7202 10.0298 11 10.375 11Z" stroke="#1776BA" stroke-width="2" stroke-linecap="round" stroke-linejoin="round"/>
</svg>
