<svg width="24" height="24" viewBox="0 0 24 24" fill="none" xmlns="http://www.w3.org/2000/svg">
<path fill-rule="evenodd" clip-rule="evenodd" d="M13.5303 3.96967C13.2374 3.67678 12.7626 3.67678 12.4697 3.96967L7.46967 8.96967C7.17678 9.26256 7.17678 9.73744 7.46967 10.0303C7.76256 10.3232 8.23744 10.3232 8.53033 10.0303L13 5.56066L14.2681 6.82874L12.0433 9.08167L15.4808 12.5192L20.2342 7.70563C20.5917 7.34812 20.5917 6.77063 20.2342 6.41313L18.0892 4.26812C17.7317 3.91063 17.1542 3.91063 16.7967 4.26812L15.3221 5.7614L13.5303 3.96967ZM4 20.5023V17.0648L11.0625 10.0625L14.5 13.5L7.4375 20.5023H4Z" fill="black" fill-opacity="0.54"/>
</svg>
