<svg width="24" height="24" viewBox="0 0 48 48" fill="none" xmlns="http://www.w3.org/2000/svg">
<path d="M15.5061 36.7841V17.6337C15.5061 16.5052 15.9542 15.4227 16.7525 14.6244C17.5504 13.8264 18.633 13.3779 19.7615 13.3779H36.7843C37.9128 13.3779 38.9953 13.8264 39.7936 14.6244C40.5916 15.4226 41.04 16.5052 41.04 17.6337V36.7841C41.04 37.9126 40.5916 38.9951 39.7936 39.7934C38.9953 40.5914 37.9128 41.0399 36.7843 41.0399H19.7615C18.633 41.0399 17.5504 40.5914 16.7525 39.7934C15.9542 38.9952 15.5061 37.9126 15.5061 36.7841ZM22.9536 34.6564H33.592C34.1798 34.6564 34.656 34.1798 34.656 33.5924C34.656 33.005 34.1798 32.5283 33.592 32.5283H22.9526C22.3652 32.5283 21.889 33.005 21.889 33.5924C21.889 34.1798 22.3653 34.6564 22.9526 34.6564H22.9536ZM22.9536 30.401H33.592C34.1798 30.401 34.656 29.9247 34.656 29.337C34.656 28.7496 34.1798 28.2729 33.592 28.2729H22.9526C22.3652 28.2729 21.889 28.7496 21.889 29.337C21.889 29.9247 22.3653 30.401 22.9526 30.401H22.9536ZM22.9536 26.1449H33.592C34.1798 26.1449 34.656 25.6682 34.656 25.0808C34.656 24.4931 34.1798 24.0168 33.592 24.0168H22.9526C22.3652 24.0168 21.889 24.4931 21.889 25.0808C21.889 25.6682 22.3653 26.1449 22.9526 26.1449H22.9536ZM22.9532 21.8895H33.5926C34.1803 21.8895 34.6566 21.4128 34.6566 20.8254C34.6566 20.238 34.1803 19.7614 33.5926 19.7614H22.9532C22.3658 19.7614 21.8895 20.238 21.8895 20.8254C21.8895 21.4128 22.3658 21.8895 22.9532 21.8895ZM6.9946 11.2501V30.4004C6.9946 31.529 7.44308 32.6115 8.24101 33.4098C9.03929 34.2077 10.1218 34.6562 11.2503 34.6562H12.3144V17.6333C12.3165 15.6588 13.102 13.7659 14.498 12.3698C15.894 10.9735 17.7869 10.1883 19.7615 10.1858H32.3779C32.1442 9.27428 31.6142 8.46605 30.8711 7.88825C30.1281 7.31047 29.214 6.99592 28.2729 6.99414H11.2501C10.1216 6.99414 9.03903 7.44262 8.24073 8.24056C7.4428 9.03885 6.99432 10.1214 6.99432 11.2499L6.9946 11.2501Z" fill="black"/>
</svg>
