<svg width="512" height="437" viewBox="0 0 512 437" fill="none" xmlns="http://www.w3.org/2000/svg">
<path fill-rule="evenodd" clip-rule="evenodd" d="M24.6604 3.32799C15.9072 7.23608 5.79872 17.8401 2.49891 26.5746C0.810261 31.0416 0 93.3222 0 218.649C0 370.907 0.580105 405.465 3.23404 411.67C7.14448 420.811 17.577 430.945 26.5746 434.343C30.7645 435.926 61.8907 436.842 111.543 436.842H189.897L194.764 430.654C197.441 427.251 199.632 422.53 199.632 420.165C199.632 417.797 192.204 388.731 183.124 355.571C174.046 322.408 167.024 294.871 167.52 294.373C168.018 293.877 184.474 288.861 204.092 283.226C223.71 277.592 241.83 271.112 244.357 268.825C250.217 263.522 250.2 254.444 244.256 214.898C241.731 198.106 239.643 183.051 239.613 181.442C239.582 179.833 260.48 168.046 286.049 155.25C344.767 125.862 345.62 124.599 326.126 95.8352C321.142 88.4793 317.063 81.457 317.063 80.231C317.063 79.005 324.461 65.5498 333.503 50.3285C342.545 35.1094 349.944 20.3437 349.944 17.516C349.944 14.6906 347.752 9.59175 345.075 6.1886L340.209 0L185.956 0.0915994C62.3134 0.166755 30.3089 0.807923 24.6604 3.32799ZM417.616 6.45869C414.31 10.0121 400.697 29.299 387.366 49.3209C369.996 75.4093 363.124 87.7442 363.112 92.8478C363.1 97.4299 368.195 108.412 377.373 123.608L391.65 147.242L342.515 169.049C302.358 186.87 292.766 192.037 290.033 197.326C287.076 203.04 287.329 208.846 292.182 246.926C295.204 270.647 297.32 290.686 296.884 291.458C296.447 292.231 279.934 297.382 260.191 302.905C230.918 311.095 223.1 314.202 217.834 319.74C214.283 323.475 211.403 327.836 211.436 329.431C211.61 337.602 239.615 428.314 243.18 432.253C247.192 436.687 251.227 436.842 363.072 436.842C439.137 436.842 481.078 435.985 485.423 434.343C494.421 430.945 504.853 420.811 508.764 411.67C511.42 405.465 511.998 370.872 511.998 218.421C511.998 16.5648 512.479 24.1109 498.782 11.3062C488.542 1.73094 481.259 0 451.22 0C424.146 0 423.516 0.11978 417.616 6.45869ZM37.5778 218.421V399.264H96.2932C128.587 399.264 155.009 398.466 155.009 397.491C155.009 396.517 148.139 370.567 139.743 339.823C131.346 309.08 124.477 281.93 124.477 279.49C124.477 269.029 133.894 263.702 170.275 253.575C189.651 248.183 206.413 242.917 207.524 241.877C208.644 240.825 207.178 223.203 204.233 202.321C199.226 166.815 199.148 164.318 202.869 158.64C205.478 154.656 221.073 145.48 248.897 131.551L290.979 110.486L282.884 98.4563C278.431 91.8402 274.788 84.1321 274.788 81.3302C274.788 78.5259 279.544 68.1075 285.357 58.1775C291.169 48.2476 295.925 39.5507 295.925 38.8508C295.925 38.1509 237.797 37.5778 166.752 37.5778H37.5778V218.421ZM421.952 65.6367L403.539 93.604L420.191 121.452C438.428 151.953 440.433 160.253 431.558 168.485C428.65 171.181 404.079 183.157 376.953 195.097C349.826 207.04 327.385 216.979 327.084 217.186C326.784 217.39 329.132 237.943 332.305 262.855C340.136 324.353 344.119 318.449 283.008 335.96C268.799 340.032 256.452 343.807 255.569 344.347C254.686 344.887 255.421 349.803 257.201 355.27C258.982 360.735 262.655 372.871 265.365 382.237L270.29 399.264H372.354H474.42V218.421V37.5778L457.393 37.6224L440.365 37.6671L421.952 65.6367ZM118.737 92.0868C84.7028 111.864 100.38 164.553 139.329 161.305C159.041 159.663 173.797 143.895 173.797 124.477C173.797 96.4177 142.728 78.1407 118.737 92.0868Z" fill="#1776BA"/>
</svg>
