<svg width="28" height="28" viewBox="0 0 28 28" fill="none" xmlns="http://www.w3.org/2000/svg">
<path d="M14.5795 13.5625C10.7975 13.5625 7.70651 17.1428 7.58301 21.599C8.42851 21.9756 9.30041 22.2898 10.1916 22.5393C9.52051 21.05 9.65061 19.3221 10.5371 17.95C11.4238 16.5781 12.9457 15.7494 14.5793 15.7494C16.2127 15.7494 17.7346 16.5781 18.6213 17.95C19.5078 19.3221 19.6379 21.05 18.9668 22.5393C19.8582 22.2903 20.7301 21.976 21.5754 21.5992C21.4526 17.143 18.3614 13.5627 14.5794 13.5627L14.5795 13.5625Z" fill="black"/>
<path d="M19.8295 10.5C19.3379 10.5002 18.848 10.5616 18.3715 10.6826C18.0998 11.6502 17.4697 12.4779 16.6094 12.9975C19.4383 13.8787 21.6449 16.5557 22.2729 19.9135H22.2731C23.8416 19.6444 25.3707 19.1818 26.8254 18.5365C26.7026 14.0801 23.6114 10.5 19.8294 10.5L19.8295 10.5Z" fill="black"/>
<path d="M14.5801 16.625C13.5357 16.625 12.5342 17.0398 11.7959 17.7783C11.0574 18.5166 10.6426 19.5181 10.6426 20.5625C10.6426 21.6068 11.0574 22.6084 11.7959 23.3467C12.5342 24.0852 13.5357 24.5 14.5801 24.5C15.6244 24.5 16.626 24.0852 17.3643 23.3467C18.1028 22.6084 18.5176 21.6068 18.5176 20.5625C18.5164 19.5185 18.1012 18.5177 17.3631 17.7795C16.6248 17.0414 15.624 16.6262 14.5801 16.625ZM16.3301 21H15.0176V22.3125C15.0176 22.5541 14.8217 22.75 14.5801 22.75C14.3385 22.75 14.1426 22.5541 14.1426 22.3125V21H12.8301C12.5885 21 12.3926 20.8041 12.3926 20.5625C12.3926 20.3209 12.5885 20.125 12.8301 20.125H14.1426V18.8125C14.1426 18.5709 14.3385 18.375 14.5801 18.375C14.8217 18.375 15.0176 18.5709 15.0176 18.8125V20.125H16.3301C16.5717 20.125 16.7676 20.3209 16.7676 20.5625C16.7676 20.8041 16.5717 21 16.3301 21Z" fill="black"/>
<path d="M17.6426 9.62503C17.6426 11.3164 16.2715 12.6875 14.5801 12.6875C12.8887 12.6875 11.5176 11.3164 11.5176 9.62503C11.5176 7.93363 12.8887 6.56253 14.5801 6.56253C16.2715 6.56253 17.6426 7.93363 17.6426 9.62503Z" fill="black"/>
<path d="M18.5031 9.32403C19.2962 9.70508 20.215 9.72657 21.0251 9.38321C21.8353 9.03965 22.4585 8.36446 22.7363 7.52931C23.0138 6.69436 22.9189 5.78031 22.4755 5.02011C22.0324 4.25996 21.2835 3.72716 20.4201 3.55741C19.5566 3.38788 18.6619 3.59784 17.964 4.13376C17.266 4.66971 16.8324 5.47986 16.7734 6.35776C17.7732 7.03001 18.4105 8.12281 18.5031 9.32396L18.5031 9.32403Z" fill="black"/>
<path d="M10.6545 9.32401C10.7471 8.12286 11.3844 7.03006 12.3842 6.35781C12.3248 5.48086 11.8912 4.67187 11.1938 4.13672C10.4965 3.60157 9.60276 3.39217 8.74026 3.56192C7.87776 3.73145 7.12991 4.26367 6.68716 5.02307C6.24441 5.78246 6.14946 6.69531 6.42661 7.52951C6.70376 8.36371 7.32601 9.03851 8.13521 9.38186C8.94441 9.72522 9.86196 9.70413 10.6546 9.32405L10.6545 9.32401Z" fill="black"/>
<path d="M12.5491 12.9975C11.6888 12.478 11.0587 11.6503 10.787 10.6827C10.3104 10.5616 9.8206 10.5003 9.329 10.5001C5.54696 10.5001 2.45601 14.0802 2.33301 18.5366C3.78771 19.1819 5.31681 19.6444 6.88536 19.9137C7.51345 16.5559 9.7201 13.8787 12.5494 12.9977L12.5491 12.9975Z" fill="black"/>
</svg>
