<svg width="24" height="24" viewBox="0 0 24 24" fill="none" xmlns="http://www.w3.org/2000/svg">
<g clip-path="url(#clip0_2865_27963)">
<path d="M19.0705 4.92758C19.9219 5.77894 20.5873 6.74556 21.0681 7.77652L19.3788 7.77581C18.4478 6.14929 17.0054 4.87599 15.2759 4.15391C13.5464 3.43183 11.6268 3.30143 9.81561 3.783C8.00438 4.26456 6.40302 5.3311 5.26055 6.81677C4.11808 8.30243 3.49851 10.124 3.4982 11.9981C3.49789 13.8723 4.11684 15.694 5.25882 17.1801C6.40079 18.6661 8.00179 19.7332 9.81285 20.2153C11.6239 20.6975 13.5436 20.5678 15.2733 19.8463C17.003 19.1248 18.4458 17.8519 19.3774 16.2257H21.066C20.5724 17.2841 19.897 18.2476 19.0705 19.0725C15.1645 22.9786 8.83162 22.9786 4.92556 19.0725C1.01951 15.1665 1.01951 8.83364 4.92557 4.92758C8.83162 1.02153 15.1645 1.02153 19.0705 4.92758ZM16.2407 7.75743C16.5991 8.11553 16.9108 8.51753 17.1684 8.95385L16.0604 10.0619C15.6207 9.14075 14.8809 8.39645 13.9624 7.95117C13.044 7.50589 12.0014 7.38608 11.0059 7.6114C10.0104 7.83672 9.12107 8.39379 8.48387 9.19117C7.84668 9.98855 7.4995 10.9789 7.49931 11.9996C7.49913 13.0203 7.84595 14.0107 8.48285 14.8083C9.11975 15.6059 10.0089 16.1633 11.0043 16.389C11.9998 16.6147 13.0424 16.4953 13.961 16.0503C14.8796 15.6054 15.6196 14.8613 16.0597 13.9404L17.1677 15.0484C16.5322 16.1263 15.5755 16.9786 14.4316 17.4859C13.2877 17.9933 12.0138 18.1302 10.7882 17.8777C9.56265 17.6252 8.44668 16.9957 7.59651 16.0775C6.74635 15.1593 6.20454 13.9983 6.04692 12.7569C5.88929 11.5156 6.12374 10.256 6.71744 9.15442C7.31115 8.05289 8.2344 7.16454 9.35799 6.61372C10.4816 6.06289 11.7493 5.87714 12.9837 6.08247C14.218 6.2878 15.3573 6.87393 16.2421 7.75884L16.2407 7.75743ZM13.4123 13.4143C13.1082 13.7181 12.7143 13.9159 12.289 13.9784C11.8637 14.0408 11.4296 13.9646 11.0511 13.761C10.6725 13.5573 10.3696 13.2372 10.1873 12.8479C10.005 12.4586 9.95294 12.0209 10.0389 11.5997C10.1248 11.1786 10.3442 10.7963 10.6644 10.5095C10.9847 10.2228 11.3888 10.0469 11.8169 10.0079C12.245 9.96884 12.6743 10.0688 13.0411 10.2929C13.4079 10.5169 13.6928 10.8533 13.8535 11.2519H16.2859L18.5402 8.99628C18.6809 8.8558 18.8717 8.77695 19.0705 8.77707L22.6061 8.77707C22.7543 8.77717 22.8992 8.82119 23.0224 8.90357C23.1457 8.98596 23.2417 9.10302 23.2985 9.23997C23.3552 9.37692 23.3701 9.52761 23.3413 9.67302C23.3124 9.81843 23.2411 9.95202 23.1364 10.0569L21.1918 12.0015L23.1364 13.946C23.2411 14.0509 23.3124 14.1845 23.3413 14.3299C23.3701 14.4753 23.3552 14.626 23.2985 14.763C23.2417 14.8999 23.1457 15.017 23.0224 15.0994C22.8992 15.1818 22.7543 15.2258 22.6061 15.2259L19.0705 15.2259C18.8717 15.226 18.6809 15.1472 18.5402 15.0067L16.2845 12.751H13.8521C13.7545 12.9928 13.6081 13.2184 13.4123 13.4143ZM19.3809 13.7261H20.7952L19.6002 12.5311C19.4595 12.3905 19.3805 12.1997 19.3805 12.0008C19.3805 11.8019 19.4595 11.6111 19.6002 11.4704L20.7952 10.2754L19.3817 10.2761L17.698 11.9598C17.6995 11.9878 17.6992 12.0159 17.6973 12.0439L19.3802 13.7268L19.3809 13.7261Z" fill="black"/>
</g>
<defs>
<clipPath id="clip0_2865_27963">
<rect width="24" height="24" fill="white"/>
</clipPath>
</defs>
</svg>
