<svg width="24" height="24" viewBox="0 0 24 24" fill="none" xmlns="http://www.w3.org/2000/svg">
<path fill-rule="evenodd" clip-rule="evenodd" d="M14.0832 6.51488C14.7697 5.82837 15.877 5.82837 16.5635 6.51488L18.003 7.95434C18.6784 8.62978 18.6784 9.73706 18.003 10.4236L10.5509 17.8977C10.1634 18.2742 9.65404 18.4845 9.12255 18.4845H6.52042C6.37648 18.4845 6.2436 18.4292 6.14395 18.3295C6.04429 18.2299 6 18.097 6 17.9531L6.06644 15.3288C6.07751 14.8084 6.28789 14.3212 6.6533 13.9558L11.9351 8.67407C12.0236 8.58549 12.1787 8.58549 12.2672 8.67407L14.1164 10.5122C14.2382 10.634 14.4154 10.7115 14.6036 10.7115C15.0133 10.7115 15.3344 10.3793 15.3344 9.98066C15.3344 9.78135 15.2569 9.60419 15.1351 9.47131C15.1277 9.46147 15.035 9.36742 14.8953 9.22707L14.2258 8.55781C14.0283 8.36096 13.8316 8.1652 13.6741 8.00845L13.4017 7.73758L13.3413 7.67752C13.2306 7.5668 13.2306 7.37856 13.3413 7.26783L14.0832 6.51488Z" fill="#1776BA"/>
</svg>
