<svg width="28" height="28" viewBox="0 0 28 28" fill="none" xmlns="http://www.w3.org/2000/svg">
<path d="M23.4541 3.50001H4.54501C3.32529 3.50001 2.33301 4.46784 2.33301 5.65741V19.4929C2.33301 20.6825 3.32533 21.6503 4.54501 21.6503H9.01314C9.11842 21.6503 9.20388 21.7337 9.20388 21.8364V24.5L12.1444 21.7032C12.18 21.6694 12.2278 21.6503 12.2777 21.6503H23.4543C24.6741 21.6503 25.6663 20.6825 25.6663 19.4929L25.6662 5.6574C25.6662 4.46779 24.6739 3.5 23.4542 3.5L23.4541 3.50001ZM13.0426 7.60886L14.0224 5.45877L15.0022 7.60886H17.3293L15.4921 9.16172L16.227 11.3118L14.0225 9.63954L11.818 11.3118L12.5529 9.16172L10.7158 7.60886H13.0426ZM20.4559 14.5677C20.5612 14.5677 20.6466 14.651 20.6466 14.7537C20.6466 14.8564 20.5612 14.9397 20.4559 14.9397H7.54324C7.43796 14.9397 7.3525 14.8564 7.3525 14.7537C7.3525 14.651 7.43796 14.5677 7.54324 14.5677H20.4559ZM5.51199 7.60886L6.49167 5.45877L7.4715 7.60886H9.79853L7.96141 9.16172L8.69628 11.3118L6.49178 9.63954L4.28728 11.3118L5.022 9.16172L3.18488 7.60886H5.51199ZM23.6502 17.8782H4.34853C4.24325 17.8782 4.15779 17.7948 4.15779 17.6921C4.15779 17.5894 4.24325 17.5061 4.34853 17.5061H23.6502C23.7555 17.5061 23.841 17.5894 23.841 17.6921C23.841 17.7948 23.7555 17.8782 23.6502 17.8782ZM22.9767 9.16172L23.7116 11.3118L21.5071 9.63954L19.3026 11.3118L20.0375 9.16172L18.2004 7.60886H20.5274L21.5072 5.45877L22.4871 7.60886H24.8141L22.9767 9.16172Z" fill="black"/>
</svg>
