<svg width="24" height="24" viewBox="0 0 24 24" fill="none" xmlns="http://www.w3.org/2000/svg">
<path d="M5.39998 20.4C4.89998 20.4 4.47518 20.2248 4.12558 19.8744C3.77518 19.5248 3.59998 19.1 3.59998 18.6V6.75001C3.59998 6.51641 3.64598 6.28721 3.73798 6.06241C3.82918 5.83761 3.95838 5.64161 4.12558 5.47441L5.47438 4.12561C5.64158 3.95841 5.83758 3.82921 6.06238 3.73801C6.28718 3.64601 6.51638 3.60001 6.74998 3.60001H17.25C17.4836 3.60001 17.7128 3.64601 17.9376 3.73801C18.1624 3.82921 18.3584 3.95841 18.5256 4.12561L19.8744 5.47441C20.0416 5.64161 20.1708 5.83761 20.262 6.06241C20.354 6.28721 20.4 6.51641 20.4 6.75001V18.6C20.4 19.1 20.2248 19.5248 19.8744 19.8744C19.5248 20.2248 19.1 20.4 18.6 20.4H5.39998ZM5.54998 6.60001H18.45L17.25 5.40001H6.74998L5.54998 6.60001ZM5.39998 8.40001V18.6H18.6V8.40001H5.39998ZM12 17.1L15.6 13.5L14.3256 12.2256L12.9 13.65V9.90001H11.1V13.65L9.67438 12.2256L8.39998 13.5L12 17.1ZM5.39998 18.6H18.6H5.39998Z" fill="#333333"/>
</svg>
