<svg width="24" height="24" viewBox="0 0 24 24" fill="none" xmlns="http://www.w3.org/2000/svg">
<path d="M20.4 12L16.1496 17.3256C15.9664 17.5416 15.754 17.708 15.5124 17.8248C15.2708 17.9416 15.0084 18 14.7252 18H6.60002C6.10002 18 5.67522 17.8248 5.32562 17.4744C4.97522 17.1248 4.80002 16.7 4.80002 16.2V7.8C4.80002 7.3 4.97522 6.8752 5.32562 6.5256C5.67522 6.1752 6.10002 6 6.60002 6H14.7252C15.0084 6 15.2708 6.0584 15.5124 6.1752C15.754 6.292 15.9664 6.4584 16.1496 6.6744L20.4 12ZM18.0996 12L14.7252 7.8H6.60002V16.2H14.7252L18.0996 12ZM6.60002 12V16.2V7.8V12Z" fill="#333333"/>
</svg>
