<svg width="28" height="28" viewBox="0 0 28 28" fill="none" xmlns="http://www.w3.org/2000/svg">
<path d="M19.1574 11.3496C19.1758 11.3511 19.1939 11.3552 19.2125 11.3552C19.2412 11.3552 19.2695 11.353 19.2982 11.3496H19.1574ZM19.8172 16.3926C19.8253 16.3705 19.8335 16.3487 19.8434 16.3277C19.9871 16.0246 20.0996 15.7124 20.1824 15.3951H16.2802L17.6027 16.3922L19.8173 16.3924L19.8172 16.3926ZM16.2115 8.582C16.2879 8.73771 16.4446 8.8282 16.6076 8.8282C16.6736 8.8282 16.7398 8.81301 16.8028 8.78261C16.9525 8.70818 17.0405 8.55981 17.0463 8.4029C17.616 8.61461 18.1494 8.90982 18.6359 9.28816C20.8375 10.9987 21.5686 14.0654 20.3747 16.5803C20.2702 16.8004 20.3639 17.0637 20.584 17.168C20.646 17.1968 20.7098 17.2108 20.773 17.2108C20.9384 17.2108 21.0959 17.1176 21.172 16.9592C22.5421 14.0731 21.7031 10.5543 19.177 8.59179C18.6115 8.15266 17.9905 7.80982 17.3273 7.56672C17.423 7.4385 17.4459 7.26299 17.3706 7.10949C17.2629 6.89147 16.9986 6.80132 16.7797 6.90871L16.0549 7.26588C15.8361 7.37327 15.7463 7.63825 15.8542 7.85694L16.2115 8.582ZM20.2644 13.0411H13.1541L15.1971 14.5806H20.3301C20.3815 14.0648 20.3582 13.5457 20.2645 13.0411H20.2644ZM11.6728 9.52841C10.8994 9.52841 10.1982 9.2788 9.69829 9.00492L9.34197 10.3966C9.79356 10.6467 10.567 10.8724 11.3638 10.9081V12.0378H12.5408V10.813C13.9088 10.5871 14.6458 9.68344 14.6458 8.62506C14.6458 7.54277 14.0875 6.88886 12.672 6.38981C11.6489 6.02051 11.2325 5.75911 11.2325 5.37889C11.2325 5.04545 11.4825 4.70055 12.2555 4.70055C13.1118 4.70055 13.6707 4.97373 13.9683 5.11697L14.325 3.77279C13.9089 3.5831 13.3734 3.40417 12.5886 3.38096L12.5888 2.33333H11.4236V3.46291C10.1507 3.70108 9.41388 4.52146 9.41388 5.57984C9.41388 6.73298 10.282 7.32797 11.5548 7.75582C12.4463 8.0529 12.8271 8.33853 12.8271 8.79099C12.8266 9.25451 12.3626 9.52838 11.6728 9.52838L11.6728 9.52841ZM5.89293 9.72611C5.15812 9.46062 4.85864 9.2723 4.85864 8.99895C4.85864 8.7601 5.03859 8.51218 5.59314 8.51218C6.20916 8.51218 6.61105 8.70852 6.8253 8.81096L7.08157 7.84463C6.78228 7.70855 6.39746 7.57999 5.83285 7.56343V6.81135H4.99524V7.62353C4.08061 7.79409 3.55066 8.38382 3.55066 9.14442C3.55066 9.97368 4.17502 10.4014 5.08947 10.7092C5.73127 10.9224 6.00462 11.1285 6.00462 11.4531C6.00462 11.7865 5.67033 11.9836 5.17487 11.9836C4.61896 11.9836 4.11462 11.8031 3.75678 11.6066L3.5 12.6069C3.82456 12.7864 4.38014 12.9486 4.9531 12.9749V13.7862H5.79906V12.9055C6.78231 12.7435 7.31191 12.0937 7.31191 11.3333C7.31157 10.5552 6.91018 10.0854 5.89295 9.72612L5.89293 9.72611ZM18.0795 17.5699L11.9198 13.0409C11.42 13.0409 11.0138 13.446 11.0138 13.9463V21.374C11.0138 21.7747 11.2691 21.8384 11.9198 22.28L18.0795 26.8094C18.5795 26.8094 18.9855 26.404 18.9855 25.903V18.4749C18.9751 18.1458 18.0795 17.5701 18.0795 17.5701V17.5699ZM23.3323 13.9463C23.3323 13.4462 22.9264 13.0409 22.4258 13.0409H22.3446C22.532 14.434 22.3333 15.8842 21.7035 17.2117C21.5336 17.569 21.1682 17.7993 20.7732 17.7993C20.6197 17.7993 20.4711 17.7659 20.3322 17.6998C20.1136 17.596 19.9427 17.4237 19.8416 17.2076H18.6837L18.8039 17.2984C18.8039 17.2984 19.7095 17.8167 19.7095 18.2043V22.7333H22.4274C22.928 22.7333 23.3333 22.328 23.3333 21.8277L23.3323 13.9463ZM7.5783 4.58496C7.17537 4.43933 7.01097 4.33621 7.01097 4.1863C7.01097 4.05535 7.10966 3.9191 7.41459 3.9191C7.75196 3.9191 7.97221 4.02684 8.08965 4.08352L8.22965 3.55357C8.06541 3.47844 7.85523 3.40793 7.54554 3.39888V2.98656H7.08643V3.43198C6.58498 3.52554 6.29406 3.84909 6.29406 4.26619C6.29406 4.72066 6.63621 4.95476 7.13783 5.1243C7.48955 5.24108 7.63912 5.35359 7.63912 5.53201C7.63912 5.71435 7.4566 5.82259 7.18478 5.82259C6.88002 5.82259 6.60342 5.72374 6.40691 5.61583L6.26623 6.16458C6.44413 6.26241 6.74906 6.35188 7.06319 6.36605V6.81099H7.52706V6.3285C8.06606 6.23938 8.3568 5.88308 8.3568 5.4658C8.35663 5.03965 8.13639 4.78169 7.57828 4.58501L7.5783 4.58496Z" fill="black"/>
</svg>
