<svg width="512" height="502" viewBox="0 0 512 502" fill="none" xmlns="http://www.w3.org/2000/svg">
<path d="M472.575 108.291L293.377 9.63995V9.64421C270.139 -3.21474 241.862 -3.21474 218.624 9.64421L39.4254 108.296V108.291C27.4378 114.923 17.457 124.623 10.5263 136.384C3.59191 148.144 -0.0424156 161.535 0.000373514 175.16V424.831C0.000373514 445.061 8.09191 464.463 22.4921 478.769C36.8967 493.07 56.4315 501.106 76.8014 501.106H435.199C455.568 501.106 475.103 493.07 489.508 478.769C503.908 464.463 512 445.061 512 424.831V175.16C512.043 161.535 508.408 148.144 501.474 136.384C494.544 124.623 484.563 114.923 472.575 108.291ZM475.134 217.111L301.048 334.063L301.052 334.067C288.037 343.67 272.209 348.76 255.996 348.557C239.29 348.612 223.021 343.257 209.659 333.301L36.8568 217.112C31.2211 213.337 27.3296 207.493 26.031 200.866C24.7367 194.238 26.1424 187.368 29.9439 181.772C33.7497 176.174 39.634 172.31 46.3069 171.02C52.9798 169.734 59.893 171.131 65.5291 174.906L239.615 291.858V291.862C244.136 295.408 249.725 297.336 255.49 297.336C261.25 297.336 266.839 295.408 271.36 291.862L446.466 174.137C454.056 169.05 463.803 168.373 472.036 172.357C480.264 176.346 485.733 184.39 486.371 193.461C487.01 202.535 482.728 211.257 475.138 216.343L475.134 217.111Z" fill="black"/>
</svg>
