<svg width="28" height="28" viewBox="0 0 28 28" fill="none" xmlns="http://www.w3.org/2000/svg">
<path d="M10.5361 5.86978V9.40624L10.6637 9.52929C10.7321 9.59765 11.1012 9.82551 11.484 10.0306C12.0719 10.3496 12.195 10.3997 12.2451 10.3496C12.277 10.3131 12.8011 9.54752 13.4072 8.64517C14.0179 7.74283 14.5283 6.98632 14.5511 6.96353C14.5785 6.93163 14.7607 7.04101 14.9704 7.20963C14.9886 7.22785 14.4827 8.01627 13.8447 8.95963C13.2021 9.90298 12.6781 10.696 12.6781 10.7233C12.6781 10.7506 12.7282 10.8372 12.792 10.9193C12.8558 11.0013 12.9333 11.1471 12.9652 11.2474L13.029 11.4251L18.4613 11.4388L23.889 11.4479V6.89061V2.33332H17.2126H10.5361V5.86978ZM22.4762 7.02733V10.3542H22.2028H21.9294V7.02733V3.70051H22.2028H22.4762V7.02733ZM17.2354 8.39452V10.3542H16.9619H16.6885V8.39452V6.43489H16.9619H17.2354V8.39452ZM20.3799 8.55403V10.3997H20.1064H19.833V8.55403V6.70832H20.1064H20.3799V8.55403ZM18.8304 9.12369V10.3542H18.557H18.2835V9.12369V7.89322H18.557H18.8304V9.12369Z" fill="#151515"/>
<path d="M6.30269 3.63672C6.01558 3.74154 5.80139 3.88281 5.57808 4.12891C5.22717 4.50716 5.08134 5.00846 5.16793 5.54622C5.24996 6.10677 5.62366 6.58984 6.1523 6.83594C6.37561 6.94076 6.47131 6.95898 6.84501 6.95898C7.22782 6.95898 7.30986 6.94531 7.56506 6.82682C8.26689 6.50326 8.68616 5.69206 8.53121 4.94922C8.41728 4.39323 8.08459 3.96029 7.58785 3.71419C7.25973 3.55469 6.63082 3.51823 6.30269 3.63672Z" fill="#151515"/>
<path d="M5.02669 7.76561C4.53906 7.92968 4.20182 8.34439 3.86003 9.20116C3.56836 9.92121 3.54102 10.1308 3.54102 11.6849V13.0885L3.69141 13.2344C3.81445 13.362 3.8737 13.3848 4.05599 13.3848C4.28841 13.3848 4.47982 13.2799 4.56185 13.0976C4.59375 13.0293 4.61198 12.4961 4.61198 11.6165C4.61198 10.86 4.63021 10.2129 4.65299 10.181C4.67122 10.1445 4.73958 10.1263 4.79883 10.1354L4.9082 10.1491L4.92188 12.2318L4.93099 14.319H6.86784H8.80469V12.3822C8.80469 10.5775 8.80924 10.4453 8.88672 10.4043C9.05078 10.3177 9.1237 10.4225 9.1237 10.7552L9.12825 11.0605L10.3678 11.7305C11.1745 12.168 11.6576 12.4049 11.7487 12.4049C12.0723 12.4049 12.373 12.2272 12.5234 11.9401C12.6191 11.7578 12.6055 11.4206 12.487 11.2155C12.4004 11.0605 12.2773 10.9831 11.3294 10.4818C10.7507 10.1719 10.2812 9.90754 10.2904 9.88931C10.3223 9.83918 9.35612 8.33983 9.16016 8.13476C9.0599 8.0345 8.87305 7.88866 8.74089 7.81575L8.50846 7.68814L6.91341 7.67903C5.3776 7.66535 5.30924 7.66991 5.02669 7.76561Z" fill="#151515"/>
<path d="M5.34112 15.668C4.3294 15.9414 3.72784 16.9941 3.99672 18.0332C4.14255 18.5937 4.52081 19.0404 5.06768 19.3047C5.34568 19.4368 5.39581 19.446 5.86521 19.446C6.3574 19.446 6.38018 19.4414 6.71286 19.2773C7.13669 19.0677 7.43292 18.7669 7.63344 18.3385C7.77016 18.0514 7.77927 18.0013 7.77927 17.5319C7.77927 17.067 7.77016 17.0124 7.638 16.7344C7.21417 15.8548 6.27537 15.4173 5.34112 15.668Z" fill="#151515"/>
<path d="M13.521 15.6589C13.1838 15.7409 12.842 15.946 12.5822 16.2194C11.6207 17.2357 12.0673 18.9674 13.3934 19.3776C14.5601 19.7376 15.7222 19.0221 15.9091 17.8281C16.1278 16.4655 14.8746 15.3307 13.521 15.6589Z" fill="#151515"/>
<path d="M21.6107 15.6634C21.0638 15.8183 20.6172 16.1966 20.362 16.7344C20.2298 17.0124 20.2207 17.067 20.2207 17.5319C20.2207 18.0013 20.2298 18.0514 20.3665 18.3385C20.5671 18.7669 20.8633 19.0677 21.2871 19.2773C21.6198 19.4414 21.6426 19.446 22.1348 19.446C22.6042 19.446 22.6543 19.4368 22.9323 19.3047C23.4883 19.0358 23.8574 18.5937 24.0078 18.0104C24.2493 17.0625 23.7389 16.069 22.8275 15.7226C22.5085 15.5996 21.9388 15.5723 21.6107 15.6634Z" fill="#151515"/>
<path d="M5.236 20.2891C4.07389 20.4987 3.02572 21.2005 2.60645 22.0482C2.38314 22.5039 2.33757 22.8776 2.33301 24.263C2.33301 25.4251 2.33757 25.4889 2.42415 25.5755C2.5153 25.6667 2.57454 25.6667 5.90137 25.6667C9.29199 25.6667 9.29199 25.6667 9.37858 25.571C9.46061 25.4798 9.46517 25.3887 9.46517 24.1445C9.46517 22.7044 9.44694 22.5358 9.20996 22.0436C8.84538 21.278 8.06152 20.6764 7.02702 20.3802C6.64421 20.2663 5.63249 20.2161 5.236 20.2891Z" fill="#151515"/>
<path d="M13.4299 20.2708C12.9423 20.3665 12.7919 20.4075 12.4956 20.526C11.6799 20.845 11.0328 21.3965 10.7183 22.0345C10.618 22.2396 10.5178 22.5085 10.495 22.6361C10.4722 22.7591 10.4403 23.429 10.4221 24.1217C10.3902 25.3978 10.3993 25.5299 10.5542 25.6302C10.5816 25.6484 12.1356 25.6667 14.0087 25.6667H17.413L17.4813 25.5664C17.5451 25.4798 17.5542 25.2656 17.5542 24.1536C17.5542 23.388 17.5315 22.7454 17.5041 22.6042C17.4175 22.1712 17.135 21.6654 16.8114 21.3418C16.2873 20.8268 15.7769 20.5488 14.993 20.3574C14.6239 20.2663 14.4143 20.2435 14.0223 20.248C13.7489 20.2526 13.48 20.2617 13.4299 20.2708Z" fill="#151515"/>
<path d="M21.4595 20.2891C20.6073 20.4394 19.7961 20.8633 19.2583 21.4329C18.9803 21.7292 18.8254 21.9889 18.6887 22.3854C18.5975 22.6543 18.5839 22.7956 18.5565 24.026C18.5428 24.7643 18.5474 25.4251 18.5702 25.4889C18.5884 25.5573 18.6522 25.6256 18.7069 25.6393C18.7616 25.653 20.3156 25.6667 22.1613 25.6667C25.3514 25.6667 25.5201 25.6621 25.5884 25.5846C25.6568 25.5117 25.6659 25.3385 25.6659 24.1126C25.6659 22.668 25.6477 22.5039 25.4517 22.0664C25.119 21.3236 24.2531 20.6627 23.2277 20.3756C22.8221 20.2663 21.8606 20.2161 21.4595 20.2891Z" fill="#151515"/>
</svg>
