<svg width="28" height="28" viewBox="0 0 28 28" fill="none" xmlns="http://www.w3.org/2000/svg">
<path d="M3.22998 2.37513C3.22998 2.39887 3.94701 2.9592 4.82074 3.61449L6.40674 4.80637L7.94051 3.65723C8.78575 3.02093 9.51702 2.46535 9.56926 2.41787C9.65948 2.32765 9.5835 2.32765 6.44473 2.32765C4.34588 2.32765 3.22998 2.34189 3.22998 2.37513Z" fill="#151515"/>
<path d="M18.2734 2.37512C18.0265 2.4511 17.808 2.62205 17.6751 2.84048L17.5469 3.06366V5.39044V7.71721L17.6656 7.93089C17.7321 8.04486 17.8793 8.20631 17.9885 8.28703L18.1974 8.42949H21.6069H25.0163L25.2252 8.28703C25.3345 8.20631 25.4817 8.04486 25.5481 7.93089L25.6668 7.71721V5.39044V3.06366L25.5339 2.84048C25.4484 2.69328 25.325 2.56981 25.1777 2.48434L24.9546 2.35138L21.6781 2.34188C19.8784 2.33714 18.3446 2.35138 18.2734 2.37512ZM22.2622 4.16057C23.1406 4.60218 23.3638 4.77788 23.454 5.11502C23.5205 5.34295 23.5205 5.43792 23.454 5.66585C23.3591 6.00299 23.1454 6.17869 22.2337 6.6298C21.4312 7.03342 21.3789 7.05242 21.075 7.05242C20.7996 7.05242 20.7331 7.03342 20.5574 6.90996C20.434 6.82449 20.3058 6.67254 20.2345 6.53008C20.1158 6.30215 20.1111 6.26416 20.1111 5.43792C20.1111 4.51196 20.1443 4.33626 20.3627 4.0751C20.4292 3.99437 20.5954 3.87566 20.7284 3.81393C21.1083 3.63348 21.2982 3.67622 22.2622 4.16057Z" fill="#151515"/>
<path d="M21.0845 5.39047C21.0845 5.79409 21.094 6.12649 21.1082 6.12649C21.1699 6.12649 22.509 5.4332 22.509 5.40471C22.509 5.38572 22.1909 5.20527 21.7968 5.01059L21.0845 4.65445V5.39047Z" fill="#151515"/>
<path d="M2.35156 3.33433C2.33732 3.50052 2.32782 4.54995 2.33732 5.67535L2.35156 7.71721L2.47028 7.93089C2.53676 8.04486 2.68396 8.20631 2.79318 8.28703L3.00211 8.42949H6.41155H9.82099L10.0299 8.28703C10.1391 8.20631 10.2863 8.04486 10.3528 7.93089L10.4715 7.71721L10.4858 5.53289C10.5 3.38181 10.4858 3.03992 10.4003 3.03992C10.3718 3.03992 9.54082 3.65248 8.54364 4.39799C7.54645 5.14351 6.65847 5.78931 6.573 5.83205C6.4258 5.89853 6.3973 5.89853 6.2501 5.83205C6.16463 5.78931 5.27665 5.14351 4.27946 4.39799C3.28227 3.65248 2.45128 3.03992 2.42754 3.03992C2.4038 3.03992 2.37056 3.17288 2.35156 3.33433Z" fill="#151515"/>
<path d="M13.221 8.49123C12.9835 8.64318 12.9551 8.76664 12.974 9.77333L12.9883 10.6803L13.126 10.8228C13.2447 10.9462 13.3017 10.97 13.5011 10.97C13.6911 10.97 13.7528 10.9462 13.8715 10.8322L14.0092 10.6945V9.7021V8.70966L13.8715 8.5767C13.6911 8.40101 13.4204 8.36777 13.221 8.49123Z" fill="#151515"/>
<path d="M16.502 9.82558C16.4497 9.84932 16.1126 10.1675 15.747 10.5379L15.0869 11.2027L15.1154 11.4306C15.1676 11.8912 15.5998 12.0669 15.9844 11.782C16.3025 11.5493 17.181 10.6186 17.2143 10.4809C17.2665 10.2909 17.2048 10.0488 17.0765 9.93005C16.9531 9.81134 16.6539 9.7591 16.502 9.82558Z" fill="#151515"/>
<path d="M7.6697 13.8191L6.15967 17.0101L8.07807 18.9285C9.13224 19.9827 10.0107 20.8469 10.0297 20.8469C10.0772 20.8469 16.3025 17.9076 16.3452 17.8601C16.3642 17.8458 14.7592 16.2076 12.7839 14.2322L9.18448 10.6328L7.6697 13.8191Z" fill="#151515"/>
<path d="M12.3946 12.2378C12.3281 12.2521 12.2617 12.2758 12.2427 12.2948C12.2237 12.309 12.7698 12.8884 13.463 13.5816C14.1516 14.2702 14.7356 14.821 14.7546 14.7973C14.7736 14.7783 14.7926 14.5313 14.7926 14.2559C14.7926 13.7811 14.7831 13.7241 14.6407 13.4249C14.4602 13.0498 14.0993 12.6509 13.7812 12.4752C13.3728 12.2521 12.8315 12.1618 12.3946 12.2378Z" fill="#151515"/>
<path d="M16.2602 13.0546C15.9705 13.2303 15.9325 13.6196 16.1794 13.8761L16.3076 14.009H17.3001H18.2925L18.4302 13.8713C18.5442 13.7526 18.5679 13.6909 18.5679 13.5009C18.5679 13.3015 18.5442 13.2445 18.4207 13.1258L18.2783 12.9881L17.3428 12.9738C16.4928 12.9644 16.3931 12.9691 16.2602 13.0546Z" fill="#151515"/>
<path d="M20.8708 17.5657C20.7094 17.6369 20.6097 17.7841 20.5669 18.0263C20.4862 18.4536 20.1776 18.5866 19.8262 18.3444C19.6932 18.2542 19.5745 18.2115 19.4368 18.2115C19.2468 18.2115 19.2089 18.2352 18.7767 18.6626C18.5298 18.9095 18.2924 19.1754 18.2497 19.2514C18.1594 19.4223 18.1927 19.6028 18.3541 19.8402C18.4918 20.0397 18.5013 20.1346 18.4064 20.3151C18.3304 20.4623 18.1927 20.543 17.9458 20.581C17.8508 20.6 17.7226 20.6665 17.6608 20.7329C17.5516 20.8516 17.5469 20.8754 17.5469 21.6114C17.5469 22.3522 17.5469 22.3664 17.6656 22.4851C17.7416 22.5564 17.8745 22.6181 18.0217 22.6466C18.2876 22.6988 18.4728 22.865 18.4728 23.0645C18.4728 23.1357 18.4064 23.2924 18.3256 23.4206C18.0882 23.791 18.1262 23.8955 18.734 24.5033C19.2136 24.9829 19.2421 25.0019 19.4368 25.0019C19.5745 25.0019 19.6932 24.9591 19.8262 24.8689C20.1823 24.6267 20.4862 24.7597 20.5669 25.1918C20.5954 25.339 20.6572 25.472 20.7284 25.5479C20.8471 25.6666 20.8613 25.6666 21.6069 25.6666C22.3524 25.6666 22.3666 25.6666 22.4853 25.5479C22.5566 25.472 22.6183 25.339 22.6468 25.1918C22.7275 24.7597 23.0314 24.6267 23.3876 24.8689C23.5205 24.9591 23.6392 25.0019 23.7769 25.0019C23.9716 25.0019 24.0001 24.9829 24.4892 24.489C24.9831 23.9999 25.0021 23.9714 25.0021 23.7767C25.0021 23.639 24.9593 23.5203 24.8691 23.3874C24.6269 23.0312 24.7599 22.7273 25.192 22.6466C25.3392 22.6181 25.4722 22.5564 25.5481 22.4851C25.6668 22.3664 25.6668 22.3522 25.6668 21.6067C25.6668 20.8611 25.6668 20.8469 25.5481 20.7282C25.4722 20.657 25.3392 20.5952 25.192 20.5667C24.7694 20.486 24.6269 20.1821 24.8596 19.8402C25.021 19.6028 25.0543 19.4223 24.9641 19.2514C24.9213 19.1754 24.6839 18.9095 24.437 18.6626C24.0049 18.2352 23.9669 18.2115 23.7769 18.2115C23.6392 18.2115 23.5205 18.2542 23.3876 18.3444C23.0314 18.5866 22.7275 18.4536 22.6468 18.0215C22.6183 17.8743 22.5566 17.7366 22.4853 17.6654C22.3666 17.5514 22.3429 17.5467 21.6638 17.5372C21.2792 17.5324 20.9231 17.5419 20.8708 17.5657ZM22.3191 19.75C23.1169 20.0586 23.6487 20.8801 23.5917 21.7159C23.53 22.5754 22.9839 23.2639 22.1624 23.5156C21.3599 23.7577 20.4672 23.4396 19.9781 22.7463C19.2136 21.6494 19.7312 20.1251 21.0133 19.7073C21.3837 19.5838 21.944 19.6028 22.3191 19.75Z" fill="#151515"/>
<path d="M21.3123 20.6047C21.0606 20.6854 20.8469 20.8564 20.714 21.0748C20.5288 21.393 20.5288 21.8203 20.7187 22.1385C20.9087 22.4661 21.2031 22.6276 21.6067 22.6276C21.9439 22.6228 22.1196 22.5564 22.338 22.3379C22.5564 22.1195 22.6229 21.9438 22.6276 21.6066C22.6276 21.2125 22.4662 20.9086 22.1528 20.7282C21.9249 20.5905 21.5307 20.5382 21.3123 20.6047Z" fill="#151515"/>
<path d="M4.57393 18.8145C3.44379 19.9636 3.37256 20.0729 3.37256 20.7044C3.37256 21.3312 3.45328 21.4594 4.48371 22.4946C5.54738 23.563 5.70408 23.6627 6.31664 23.6675C6.9197 23.6722 7.1049 23.5535 8.26354 22.3901L9.23698 21.4167L7.43254 19.6123C6.4401 18.6198 5.61861 17.8078 5.59962 17.8078C5.58537 17.8078 5.12476 18.2637 4.57393 18.8145Z" fill="#151515"/>
<path d="M8.79551 23.188L8.07373 23.9097L8.89048 24.7265C9.7927 25.6192 9.80694 25.6287 10.334 25.586C10.8469 25.5432 11.2078 25.1301 11.2078 24.5888C11.2078 24.4368 11.1793 24.2374 11.1413 24.1519C11.0843 24.0095 9.6265 22.4614 9.55052 22.4614C9.53628 22.4614 9.19438 22.7891 8.79551 23.188Z" fill="#151515"/>
</svg>
