<svg width="28" height="28" viewBox="0 0 28 28" fill="none" xmlns="http://www.w3.org/2000/svg">
<path d="M17.9404 4.88234C17.9404 6.19165 16.8674 8.12936 15.388 8.12936C13.9086 8.12936 12.8354 6.19144 12.8354 4.88234C12.8354 3.47579 13.9815 2.33334 15.388 2.33334C16.7944 2.33318 17.9404 3.47579 17.9404 4.88234Z" fill="black"/>
<path d="M24.4939 14.9188L24.0076 17.3567C23.9833 17.4783 23.8756 17.5651 23.7507 17.5651H4.24765C4.12267 17.5651 4.01506 17.4783 3.99072 17.3567L3.50463 14.9188C3.49067 14.8423 3.50804 14.7625 3.56013 14.7034C3.60883 14.6443 3.6817 14.6062 3.76155 14.6062H24.2406C24.317 14.6062 24.3899 14.6443 24.442 14.7034C24.4905 14.7625 24.5113 14.8423 24.4939 14.9188H24.4939Z" fill="black"/>
<path d="M6.1403 18.0857H9.51929V24.2604C9.51929 24.4027 9.4013 24.5209 9.2588 24.5209H6.40063C6.25829 24.5209 6.14014 24.4029 6.14014 24.2604L6.1403 18.0857Z" fill="black"/>
<path d="M21.8582 18.0857V24.2604C21.8582 24.4027 21.7402 24.5209 21.5977 24.5209H18.7395C18.5972 24.5209 18.479 24.4029 18.479 24.2604L18.4792 18.0857H21.8582Z" fill="black"/>
<path d="M9.16092 11.623C8.89572 11.7881 8.33462 11.8912 8.04606 11.741L7.63624 12.064C7.08409 12.5016 6.76806 13.1545 6.76806 13.8594V14.8701H6.24707V13.8594C6.24707 12.9947 6.63595 12.1924 7.31324 11.6542L7.75778 11.3035C7.7508 10.9146 8.14325 10.4734 8.37242 10.3345C8.71975 10.1227 9.19889 10.2407 9.41083 10.5847C9.62978 10.939 9.51519 11.4078 9.16089 11.6231L9.16092 11.623Z" fill="black"/>
<path d="M20.1214 10.918C20.1214 9.81706 19.2255 8.92112 18.1245 8.92112L12.5818 8.92096C11.4809 8.92096 10.585 9.81686 10.585 10.9178V14.085H12.4739V13.384H12.9948V14.085H17.4344V13.384H17.9554V14.085H20.1214V10.918Z" fill="black"/>
</svg>
