<svg width="20" height="20" viewBox="0 0 20 20" fill="none" xmlns="http://www.w3.org/2000/svg">
<path d="M14.429 7.75H10.198C10.2182 7.75 11.1494 2.56081 11.2102 2.27703C11.2507 2.11486 11.2912 1.93243 11.2912 1.75C11.2912 1.34459 11.0077 1 10.6636 1C10.4409 1 10.2384 1.14189 10.117 1.36486C10.0158 1.56757 8.96304 3.55405 8.67962 4.12162C8.31522 4.81081 7.97106 5.5 7.60666 6.18919C7.24226 6.87838 6.89811 7.56757 6.53371 8.27703C6.25029 8.84459 5.09635 11.0946 5.09635 11.0946C4.91415 11.4392 4.99513 11.9054 5.2988 12.1284C5.40002 12.2095 5.52149 12.25 5.62271 12.25H9.8538C9.83355 12.25 8.7606 18.0676 8.7606 18.1081C8.69986 18.5135 8.92255 18.8986 9.24646 18.9797C9.28695 18.9797 9.32744 19 9.36793 19C9.57037 19 9.75257 18.8784 9.87404 18.6757C9.87404 18.6757 11.6758 15.1284 11.8782 14.7432C12.0807 14.3378 12.2831 13.9324 12.5058 13.527C12.7083 13.1216 12.9107 12.7162 13.1132 12.3311C13.2954 11.9662 13.4978 11.5811 13.68 11.2162C13.842 10.8919 14.0039 10.5676 14.1861 10.2432C14.3076 10 14.9149 8.90541 14.9149 8.90541C14.9756 8.78378 14.9959 8.66216 14.9959 8.54054C15.0364 8.09459 14.7732 7.75 14.429 7.75Z" fill="white"/>
</svg>
