<svg width="18" height="18" viewBox="0 0 18 18" fill="none" xmlns="http://www.w3.org/2000/svg">
<circle cx="8.14815" cy="9.14815" r="8.14815" fill="black"/>
<path d="M6.07496 5.44446C5.17497 5.44446 4.44531 6.17411 4.44531 7.07411C4.44531 7.97411 5.17497 8.70362 6.07496 8.70362C6.97496 8.70362 7.70448 7.97411 7.70448 7.07411C7.70448 6.17411 6.97496 5.44446 6.07496 5.44446Z" fill="white"/>
<path d="M5.28789 10.443C5.67732 10.2176 6.17591 10.3508 6.40111 10.7402C6.82508 11.473 7.61528 11.9631 8.51908 11.9631C9.42278 11.9631 10.2131 11.473 10.6369 10.7402C10.8623 10.3508 11.3607 10.2176 11.7503 10.443C12.1397 10.6682 12.2729 11.1668 12.0475 11.5562C11.3443 12.7718 10.028 13.5926 8.51918 13.5926C7.01011 13.5926 5.69379 12.7718 4.9905 11.5562C4.76516 11.1668 4.89832 10.6682 5.28789 10.443Z" fill="white"/>
<path d="M10.9636 5.44446C10.0636 5.44446 9.33398 6.17411 9.33398 7.07411C9.33398 7.97411 10.0636 8.70362 10.9636 8.70362C11.8636 8.70362 12.5931 7.97411 12.5931 7.07411C12.5931 6.17411 11.8636 5.44446 10.9636 5.44446Z" fill="white"/>
<rect x="8" width="9.62963" height="9.62963" rx="4.81482" fill="#F2F6F9"/>
<path d="M13.5936 2.47829C13.5936 2.04813 13.2448 1.69934 12.8146 1.69934C12.3845 1.69934 12.0358 2.04813 12.0358 2.47829V4.03593H10.478C10.0479 4.03593 9.69922 4.38471 9.69922 4.81488C9.69922 5.24504 10.0479 5.59369 10.478 5.59369H12.0358V7.15146C12.0358 7.58163 12.3845 7.93028 12.8146 7.93028C13.2448 7.93028 13.5936 7.58163 13.5936 7.15146V5.59369H15.1512C15.5814 5.59369 15.9302 5.24504 15.9302 4.81488C15.9302 4.38471 15.5814 4.03593 15.1512 4.03593H13.5936V2.47829Z" fill="black"/>
</svg>
