<svg width="19" height="20" viewBox="0 0 19 20" fill="none" xmlns="http://www.w3.org/2000/svg">
<path d="M11.6299 0.326028C12.3786 -0.390634 13.6049 0.151653 13.6049 1.19982V18.8002C13.6049 19.8483 12.3795 20.3906 11.6299 19.674L6.99763 15.2418C6.69346 14.9508 6.29228 14.7887 5.87545 14.7886H3.04938C2.24063 14.7886 1.46501 14.4605 0.893143 13.8766C0.321273 13.2926 0 12.5006 0 11.6748V8.32907C0 7.50323 0.321273 6.71121 0.893143 6.12725C1.46501 5.54329 2.24063 5.21523 3.04938 5.21523H5.87451C6.29205 5.21523 6.69363 5.05235 6.99763 4.76205L11.6299 0.326028ZM17.2201 4.54168C17.1646 4.46619 17.0952 4.40259 17.0157 4.35451C16.9361 4.30643 16.8481 4.27482 16.7566 4.26147C16.6652 4.24813 16.572 4.25331 16.4825 4.27673C16.393 4.30015 16.3088 4.34135 16.2349 4.39797C16.161 4.45459 16.0987 4.52552 16.0516 4.60672C16.0045 4.68792 15.9736 4.77779 15.9605 4.87121C15.9474 4.96462 15.9525 5.05976 15.9754 5.15117C15.9984 5.24258 16.0387 5.32848 16.0942 5.40398C17.0696 6.72932 17.5956 8.34307 17.5926 10.001C17.5926 11.7255 17.0352 13.316 16.0942 14.597C16.0387 14.6725 15.9984 14.7584 15.9754 14.8498C15.9525 14.9412 15.9474 15.0363 15.9605 15.1297C15.9736 15.2232 16.0045 15.313 16.0516 15.3942C16.0987 15.4754 16.161 15.5464 16.2349 15.603C16.3088 15.6596 16.393 15.7008 16.4825 15.7242C16.572 15.7476 16.6652 15.7528 16.7566 15.7395C16.8481 15.7261 16.9361 15.6945 17.0157 15.6464C17.0952 15.5984 17.1646 15.5348 17.2201 15.4593C18.3781 13.8855 19.0028 11.9695 19 10.001C19.0029 8.03242 18.3781 6.11643 17.2201 4.54264V4.54168Z" fill="#1776BA"/>
</svg>
