<svg width="32" height="32" viewBox="0 0 32 32" fill="none" xmlns="http://www.w3.org/2000/svg">
<path d="M15.4608 19.4641H13.5735L13.9117 17.773C14.0112 17.2973 14.0008 16.8051 13.8814 16.334C13.762 15.8629 13.5367 15.4253 13.2226 15.0544C12.9116 14.6513 12.4908 14.3466 12.0108 14.1769C11.5307 14.0073 11.0119 13.9799 10.5167 14.0981C10.1763 14.2323 9.88896 14.4738 9.6981 14.786C9.50723 15.0981 9.42325 15.464 9.45888 15.8281C9.45888 17.488 7.6189 18.9974 6.31163 19.8117C6.04336 19.381 5.64195 19.0495 5.16827 18.8676C4.6946 18.6857 4.17451 18.6632 3.6869 18.8036C3.1993 18.944 2.77078 19.2395 2.46635 19.6455C2.16193 20.0514 1.9982 20.5456 2.00001 21.053V27.0202C1.99982 27.5203 2.1601 28.0073 2.45728 28.4095C2.75446 28.8117 3.17286 29.108 3.65095 29.2547C4.12904 29.4014 4.64158 29.3908 5.11322 29.2245C5.58486 29.0583 5.99069 28.745 6.27104 28.3309L7.59776 29.2154C7.73686 29.3078 7.90007 29.3572 8.06706 29.3574H13.3249C14.1423 29.3559 14.9367 29.0864 15.5862 28.5901C16.2358 28.0939 16.7047 27.3984 16.9211 26.6101L17.9739 22.7501C18.0784 22.3639 18.0926 21.9589 18.0154 21.5664C17.9381 21.1739 17.7716 20.8045 17.5285 20.4867C17.2855 20.169 16.9726 19.9114 16.614 19.7341C16.2554 19.5568 15.8608 19.4644 15.4608 19.4641ZM4.98322 27.0202C4.98322 27.1916 4.91516 27.3559 4.79401 27.4771C4.67285 27.5982 4.50854 27.6663 4.3372 27.6663C4.16586 27.6663 4.00154 27.5982 3.88039 27.4771C3.75924 27.3559 3.69118 27.1916 3.69118 27.0202V21.053C3.69118 20.8817 3.75924 20.7173 3.88039 20.5962C4.00154 20.475 4.16586 20.407 4.3372 20.407C4.50854 20.407 4.67285 20.475 4.79401 20.5962C4.91516 20.7173 4.98322 20.8817 4.98322 21.053V27.0202ZM16.3419 22.3053L15.2892 26.1654C15.1711 26.596 14.915 26.976 14.5602 27.2472C14.2054 27.5183 13.7714 27.6655 13.3249 27.6663H8.32327L6.67438 26.567V21.5612C7.91908 20.8644 11.15 18.7741 11.15 15.8281C11.1497 15.7789 11.1531 15.7297 11.1602 15.681C11.4629 15.7457 11.7356 15.909 11.9356 16.1452C12.082 16.3227 12.1866 16.5308 12.2416 16.7542C12.2967 16.9775 12.3007 17.2104 12.2535 17.4356L11.7132 20.1415C11.6881 20.2643 11.6907 20.3912 11.7207 20.513C11.7507 20.6347 11.8074 20.7483 11.8868 20.8454C11.9661 20.9426 12.066 21.0208 12.1793 21.0746C12.2926 21.1283 12.4165 21.1562 12.5419 21.1561H15.4608C15.6011 21.1562 15.7395 21.1885 15.8653 21.2507C15.9911 21.3129 16.1009 21.4033 16.1861 21.5147C16.2713 21.6262 16.3297 21.7558 16.3567 21.8935C16.3837 22.0312 16.3787 22.1733 16.3419 22.3087V22.3053Z" fill="black"/>
<path d="M26.721 3C26.3394 3.00013 25.9635 3.09377 25.6264 3.27272C25.2893 3.45167 25.0012 3.71049 24.7872 4.02653L23.4605 3.14459C23.3215 3.05193 23.1582 3.0025 22.9912 3.00254H17.7334C16.916 3.00388 16.1217 3.27324 15.4721 3.76932C14.8225 4.2654 14.3535 4.96082 14.1371 5.74898L13.0843 9.60737C12.9794 9.99366 12.9648 10.399 13.0418 10.7918C13.1188 11.1846 13.2853 11.5544 13.5284 11.8725C13.7715 12.1906 14.0846 12.4483 14.4434 12.6258C14.8022 12.8033 15.1971 12.8957 15.5974 12.8958H17.4848L17.1465 14.587C17.047 15.0628 17.0574 15.5551 17.1768 16.0263C17.2962 16.4976 17.5216 16.9353 17.8357 17.3064C18.0942 17.6173 18.4139 17.8718 18.775 18.0539C19.136 18.236 19.5307 18.3419 19.9344 18.365C20.1423 18.3662 20.3487 18.3305 20.5441 18.2593C20.8851 18.1245 21.1728 17.882 21.3632 17.5686C21.5537 17.2552 21.6366 16.8882 21.5993 16.5234C21.5993 14.8643 23.4393 13.3541 24.7466 12.5398C25.0146 12.9702 25.4156 13.3014 25.8888 13.4834C26.3619 13.6655 26.8815 13.6883 27.3689 13.5486C27.8562 13.4089 28.2847 13.1142 28.5896 12.7091C28.8944 12.304 29.0589 11.8106 29.0582 11.3036V5.33718C29.0575 4.71753 28.8111 4.12345 28.3729 3.68529C27.9348 3.24713 27.3407 3.00067 26.721 3ZM19.9082 16.5293C19.9085 16.5788 19.9051 16.6283 19.898 16.6773C19.5951 16.6126 19.3224 16.4489 19.1226 16.2122C18.9763 16.0349 18.8717 15.8269 18.8167 15.6037C18.7617 15.3805 18.7576 15.1477 18.8047 14.9227L19.345 12.2168C19.3701 12.094 19.3675 11.967 19.3375 11.8453C19.3075 11.7235 19.2508 11.61 19.1715 11.5129C19.0921 11.4157 18.9922 11.3375 18.8789 11.2837C18.7656 11.23 18.6418 11.2021 18.5164 11.2021H15.5974C15.4571 11.202 15.3186 11.1695 15.1929 11.1072C15.0671 11.0449 14.9573 10.9545 14.8721 10.843C14.7869 10.7314 14.7286 10.6018 14.7015 10.464C14.6745 10.3263 14.6796 10.1842 14.7163 10.0488L15.7691 6.18868C15.8872 5.75812 16.1433 5.3782 16.4981 5.10723C16.8529 4.83625 17.2869 4.6892 17.7334 4.68862H22.735L24.3838 5.78788V10.7937C23.1391 11.4922 19.9082 13.5824 19.9082 16.5251V16.5293ZM27.3671 11.3036C27.3671 11.3884 27.3503 11.4724 27.3179 11.5508C27.2854 11.6292 27.2378 11.7004 27.1778 11.7604C27.1178 11.8204 27.0466 11.868 26.9682 11.9004C26.8899 11.9329 26.8059 11.9496 26.721 11.9496C26.6362 11.9496 26.5522 11.9329 26.4738 11.9004C26.3954 11.868 26.3242 11.8204 26.2642 11.7604C26.2042 11.7004 26.1566 11.6292 26.1242 11.5508C26.0917 11.4724 26.075 11.3884 26.075 11.3036V5.33718C26.075 5.16585 26.1431 5.00153 26.2642 4.88038C26.3854 4.75922 26.5497 4.69116 26.721 4.69116C26.8924 4.69116 27.0567 4.75922 27.1778 4.88038C27.299 5.00153 27.3671 5.16585 27.3671 5.33718V11.3036Z" fill="black"/>
</svg>
