<svg width="430" height="286" viewBox="0 0 430 286" fill="none" xmlns="http://www.w3.org/2000/svg">
<path d="M382.357 85.9714L376.91 112.455L373.355 109.023L367.335 113.313L362.749 107.593L352.486 115.086L343.657 100.386L333.853 106.163L329.954 100.786L317.513 107.765L313.729 99.7566L322.501 57.543L369.342 67.2098L382.357 85.9714Z" fill="#EBEBEB"/>
<path d="M369.342 67.21L382.414 85.9716L366.131 82.5968L369.342 67.21Z" fill="#DBDBDB"/>
<path d="M375.706 117.775L367.679 156.671L304.612 143.686L312.582 105.076L316.308 113.084L328.807 106.106L332.706 111.425L342.51 105.705L351.282 120.406L361.602 112.913L366.188 118.575L372.208 114.343L375.706 117.775Z" fill="#EBEBEB"/>
<path d="M285.406 113.199L221.135 117.203L216.032 34.8348L263.734 31.8604L281.278 46.5608L285.406 113.199Z" fill="#EBEBEB"/>
<path d="M263.733 31.8604L281.277 46.5608L264.708 47.5903L263.733 31.8604Z" fill="#DBDBDB"/>
<path d="M245.96 87.287L245.731 85.4566C245.1 81.6242 246.132 77.277 249.515 72.8154C252.554 68.8114 254.159 65.9514 253.987 62.691C253.758 59.0302 251.35 56.7422 246.82 56.9138C244.24 57.0854 241.431 58.0578 239.654 59.545L237.647 55.1406C239.94 53.3102 243.954 51.9374 247.795 51.7086C256.051 51.251 260.064 56.113 260.408 61.6042C260.695 66.4662 258.172 70.127 254.904 74.417C251.923 78.3066 250.948 81.567 251.407 85.1706L251.579 87.0582L245.96 87.287ZM244.928 97.4114C244.756 94.7802 246.476 92.7782 248.999 92.6638C251.522 92.5494 253.356 94.2654 253.471 96.9538C253.586 99.4706 252.095 101.473 249.4 101.644C246.878 101.759 245.043 99.9282 244.928 97.4114Z" fill="#DBDBDB"/>
<path d="M85.1401 73.2732L78.6614 70.356L77.7441 72.358C77.4574 72.93 76.8841 73.3304 76.2534 73.3304C75.9094 73.3304 75.5654 73.3876 75.2214 73.4448C74.5908 73.5592 73.9601 73.2732 73.6161 72.7584L72.3548 70.9852L66.5641 75.1036L67.8254 76.8768C68.1694 77.3916 68.2268 78.078 67.9401 78.65C67.7681 78.9932 67.6534 79.2792 67.4814 79.6224C67.2521 80.1944 66.7361 80.652 66.1054 80.7092L63.9268 80.938L64.6148 87.9736L66.7934 87.7448C67.4241 87.6876 68.0548 87.9736 68.3988 88.5456C68.5134 88.7172 68.5708 88.8316 68.6854 89.0032C68.8001 89.1176 68.9148 89.2892 69.0294 89.4036C69.4308 89.9184 69.5454 90.5476 69.2588 91.1196L68.3414 93.1216L74.8201 96.0388L75.7374 94.0368C76.0241 93.4648 76.5974 93.0644 77.2281 93.0644C77.5721 93.0644 77.9161 93.0072 78.2601 92.95C78.8908 92.8356 79.5214 93.1216 79.8654 93.6364L81.1268 95.4096L86.9174 91.2912L85.6561 89.518C85.3121 89.0032 85.2548 88.3168 85.5414 87.7448C85.7134 87.4588 85.8281 87.1156 86.0001 86.7724C86.2294 86.2004 86.7454 85.7428 87.3761 85.6856L89.5548 85.4568L88.8668 78.4212L86.6881 78.65C86.0574 78.7072 85.4268 78.4212 85.0828 77.8492C84.9681 77.6776 84.9108 77.5632 84.7961 77.3916C84.6814 77.2772 84.5668 77.1056 84.4521 76.9912C84.0508 76.4764 83.9361 75.8472 84.2228 75.218L85.1401 73.2732ZM81.4708 79.794C83.3628 82.4252 82.7321 86.0288 80.1521 87.9164C77.5148 89.804 73.9028 89.1748 72.0108 86.6008C70.1188 83.9696 70.7494 80.366 73.3294 78.4784C75.9668 76.5908 79.5788 77.22 81.4708 79.794Z" fill="#EBEBEB"/>
<path d="M377.483 166.852L373.183 169.312L373.928 170.627C374.157 171.028 374.157 171.485 373.871 171.886C373.756 172.114 373.584 172.286 373.527 172.515C373.297 172.915 372.896 173.144 372.495 173.144H370.947V178.12H372.495C372.953 178.12 373.355 178.349 373.527 178.75C373.641 178.978 373.756 179.207 373.871 179.379C374.1 179.779 374.157 180.237 373.928 180.637L373.183 181.953L377.483 184.412L378.228 183.097C378.457 182.696 378.859 182.468 379.317 182.525C379.432 182.525 379.547 182.525 379.661 182.525C379.776 182.525 379.891 182.525 380.005 182.525C380.464 182.525 380.865 182.696 381.095 183.097L381.84 184.412L386.14 181.953L385.395 180.637C385.165 180.237 385.165 179.779 385.452 179.379C385.567 179.15 385.739 178.978 385.796 178.75C386.025 178.349 386.427 178.12 386.828 178.12H388.376V173.144H386.828C386.369 173.144 385.968 172.915 385.796 172.515C385.681 172.286 385.567 172.057 385.452 171.886C385.223 171.485 385.165 171.028 385.395 170.627L386.14 169.312L381.84 166.852L381.095 168.168C380.865 168.568 380.464 168.74 380.005 168.74C379.891 168.74 379.776 168.74 379.661 168.74C379.547 168.74 379.432 168.74 379.317 168.74C378.859 168.74 378.457 168.568 378.228 168.168L377.483 166.852ZM379.719 171.6C381.955 171.6 383.789 173.43 383.789 175.661C383.789 177.892 381.955 179.722 379.719 179.722C377.483 179.722 375.648 177.892 375.648 175.661C375.648 173.43 377.425 171.6 379.719 171.6Z" fill="#EBEBEB"/>
<path d="M98.2121 52.1662L94.2561 55.1978L95.1735 56.399C95.4601 56.7422 95.4601 57.257 95.2881 57.6574C95.1735 57.8862 95.0588 58.115 95.0015 58.3438C94.8295 58.7442 94.4855 59.0874 94.0268 59.1446L92.5361 59.3162L93.1668 64.2354L94.6575 64.0638C95.1161 64.0066 95.5175 64.2354 95.8041 64.5786C95.9188 64.8074 96.0908 64.979 96.2628 65.1506C96.5495 65.4938 96.6641 65.9514 96.4921 66.3518L95.9188 67.7818L100.505 69.6694L101.079 68.2394C101.251 67.839 101.652 67.553 102.111 67.553C102.225 67.553 102.34 67.553 102.455 67.4958C102.569 67.4958 102.684 67.4386 102.799 67.4386C103.257 67.3814 103.659 67.4958 103.945 67.8962L104.863 69.0974L108.819 66.0658L107.901 64.8646C107.615 64.5214 107.615 64.0066 107.787 63.6062C107.901 63.3774 108.016 63.1486 108.073 62.9198C108.245 62.5194 108.589 62.1762 109.048 62.119L110.539 61.9474L109.908 57.0282L108.417 57.1998C107.959 57.257 107.557 57.0282 107.271 56.685C107.156 56.4562 106.984 56.2846 106.812 56.113C106.525 55.7698 106.411 55.3122 106.583 54.9118L107.156 53.4818L102.569 51.5942L101.996 53.0242C101.824 53.4246 101.423 53.7106 100.964 53.7106C100.849 53.7106 100.735 53.7106 100.62 53.7678C100.505 53.7678 100.391 53.825 100.276 53.825C99.8175 53.8822 99.3588 53.7678 99.1295 53.3674L98.2121 52.1662ZM101.021 56.5706C103.257 56.2846 105.321 57.829 105.608 60.0598C105.895 62.2906 104.347 64.3498 102.111 64.6358C99.8748 64.9218 97.8108 63.3774 97.5241 61.1466C97.2375 58.9158 98.7855 56.8566 101.021 56.5706Z" fill="#EBEBEB"/>
<path d="M68.6853 181.209C68.9147 175.661 68.8 170.113 68.456 164.621C67.7107 153.239 65.8187 141.913 63.2387 130.759C61.8053 124.524 59.9707 118.347 58.136 112.169C58.0787 111.997 57.792 112.055 57.8493 112.226C63.64 133.905 68.3413 156.27 68.0547 178.807C67.94 185.099 67.252 191.334 66.6213 197.569C66.6213 197.74 66.908 197.797 66.908 197.626C68.112 192.306 68.456 186.701 68.6853 181.209Z" fill="#EBEBEB"/>
<path d="M57.8494 112.226C57.8494 112.226 49.1347 134.362 51.0841 139.568C53.0334 144.773 57.1041 145.86 57.1041 145.86C57.1041 145.86 51.7721 153.467 55.4987 160.617C59.2254 167.767 67.5387 167.424 68.1121 175.546C68.0547 175.546 68.5134 141.684 57.8494 112.226Z" fill="#EBEBEB"/>
<path d="M67.0799 161.59C67.0799 161.533 67.0799 161.533 67.0799 161.476C65.8759 146.432 63.1813 131.446 58.5946 116.974C58.5946 116.917 58.5373 116.917 58.5373 116.974C60.2573 123.438 61.8053 129.958 63.1239 136.479C61.9773 135.335 60.4866 134.649 58.9386 134.134C58.8813 134.134 58.8813 134.191 58.9386 134.191C60.5439 134.878 62.0919 135.678 63.2386 137.051C63.4679 138.31 63.7546 139.625 63.9839 140.884C62.0346 138.71 59.3399 137.623 56.5879 136.594C56.5306 136.594 56.5306 136.651 56.5879 136.651C59.3973 137.795 62.2066 139.282 64.1559 141.684C64.8439 145.345 65.4173 149.063 65.9333 152.724C64.4999 151.237 62.7226 150.207 60.7159 149.75C60.6586 149.75 60.6013 149.807 60.6586 149.864C62.7226 150.436 64.4999 151.637 65.9333 153.239C65.9333 153.239 65.9333 153.239 65.9906 153.239C66.1626 154.554 66.3346 155.87 66.5066 157.128C65.4173 156.213 64.2133 155.47 62.8373 154.955C62.7799 154.955 62.7799 155.012 62.8373 155.012C64.2133 155.584 65.4173 156.442 66.5066 157.414H66.5639C66.7359 158.673 66.8506 159.874 66.9653 161.132C64.9586 158.73 62.4933 156.957 59.5693 155.87C59.5119 155.87 59.4546 155.927 59.5119 155.984C62.3786 157.243 64.9013 159.188 66.7933 161.59C66.8506 161.647 66.9079 161.647 66.9653 161.647C67.1373 163.535 67.3093 165.48 67.4813 167.367C67.4813 167.367 67.5386 167.424 67.5386 167.367C67.3666 165.48 67.2519 163.535 67.0799 161.59Z" fill="white"/>
<path d="M60.0852 131.96C58.5946 130.93 56.6452 130.473 54.8106 130.301C54.7532 130.301 54.7532 130.358 54.8106 130.358C56.7026 130.644 58.2506 131.331 60.0279 132.074C60.0852 132.132 60.1426 132.017 60.0852 131.96Z" fill="white"/>
<path d="M61.1172 155.412C59.9132 154.669 58.5372 154.268 57.1612 154.04C57.1038 154.04 57.1038 154.097 57.1612 154.097C58.5372 154.326 59.7985 154.84 61.0598 155.47C61.1172 155.527 61.1745 155.412 61.1172 155.412Z" fill="white"/>
<path d="M91.6763 139.968C88.007 142.542 84.5097 145.46 81.5857 148.777C78.4323 152.324 76.0817 156.328 74.4763 160.789C71.151 169.941 69.3737 179.78 69.2017 189.504C69.087 194.938 69.603 200.314 70.7497 205.634C70.807 205.806 71.0937 205.748 71.0363 205.577C69.603 196.253 69.6603 186.701 71.2083 177.377C72.699 168.225 75.0497 158.272 80.8977 150.836C84.051 146.775 88.007 143.572 91.963 140.312C92.135 140.083 91.9057 139.797 91.6763 139.968Z" fill="#EBEBEB"/>
<path d="M70.4629 182.868C70.4629 182.868 73.4442 177.835 77.8589 173.488C82.2162 169.14 85.9429 166.052 86.4589 163.134C87.0322 160.274 82.1016 158.101 82.1016 158.101C82.1016 158.101 88.1789 159.188 89.7842 156.671C91.4469 154.154 92.2496 139.454 92.2496 139.454C92.2496 139.454 81.2416 147.29 76.1389 158.272C70.9789 169.312 70.4629 182.868 70.4629 182.868Z" fill="#EBEBEB"/>
<path d="M88.4084 143.229C83.7644 147.748 79.1204 152.61 76.3684 158.559C75.4511 160.618 74.6484 162.734 73.9604 164.908C73.8458 165.365 73.6738 165.766 73.5591 166.223V166.281C72.1831 170.742 71.2658 175.318 70.4058 179.837C70.4058 179.894 70.4631 179.894 70.4631 179.837C70.9218 177.549 71.4378 175.261 72.0684 172.916H72.1258C73.0431 172.515 74.0178 172.287 74.9924 172.172C75.0498 172.172 75.0498 172.058 74.9924 172.058C74.0178 172.115 73.0431 172.287 72.1258 172.573C72.6418 170.513 73.2151 168.397 73.9031 166.395C76.0244 165.88 78.2604 165.594 80.4391 165.537V165.48C78.2604 165.365 76.1391 165.594 74.0178 166.052C74.1324 165.709 74.2471 165.365 74.3618 165.022C75.7951 164.679 77.2284 164.45 78.7191 164.279V164.221C77.2858 164.279 75.8524 164.393 74.4764 164.736C75.0498 162.963 75.7378 161.247 76.4258 159.531C76.9991 158.101 77.7444 156.785 78.4898 155.527C79.6938 155.241 80.7831 155.012 81.9871 154.898C82.0444 154.898 82.0444 154.841 81.9871 154.841C80.8978 154.783 79.7511 154.841 78.7191 155.184C79.2924 154.269 79.9231 153.353 80.5538 152.438C83.0191 151.866 85.5418 151.409 88.0644 151.866C88.1218 151.866 88.1218 151.809 88.0644 151.809C85.6564 151.18 83.2484 151.523 80.8978 152.038C81.1844 151.695 81.4138 151.351 81.7004 151.008C83.1911 150.551 84.7391 150.322 86.2871 150.265C86.3444 150.265 86.3444 150.207 86.2871 150.207C84.8538 150.093 83.3631 150.207 81.9871 150.608C84.0511 148.091 86.2871 145.689 88.5231 143.343C88.6378 143.172 88.5231 143.115 88.4084 143.229Z" fill="white"/>
<path d="M88.2937 153.239C87.5484 153.182 86.8604 153.067 86.115 153.182C86.0004 153.182 86.0577 153.353 86.115 153.353C86.8604 153.353 87.5484 153.296 88.2937 153.353C88.351 153.353 88.351 153.239 88.2937 153.239Z" fill="white"/>
<path d="M80.3817 167.481C79.235 167.481 78.0884 167.767 76.999 168.168V168.225C78.1457 167.939 79.235 167.825 80.3817 167.653C80.4964 167.653 80.4964 167.481 80.3817 167.481Z" fill="white"/>
<path d="M78.031 162.562C77.5724 162.562 77.0564 162.62 76.5977 162.677C76.5404 162.677 76.5404 162.734 76.5977 162.734C77.0564 162.734 77.5724 162.734 78.031 162.677C78.0884 162.677 78.0884 162.562 78.031 162.562Z" fill="white"/>
<path d="M38.1842 155.527C41.7389 156.728 45.2362 158.329 48.3895 160.331C51.7722 162.448 54.5815 165.193 56.9322 168.397C61.7482 175.032 65.4749 182.582 67.8829 190.419C69.2015 194.823 70.0615 199.285 70.3482 203.861C70.3482 204.032 70.1189 204.032 70.1189 203.861C69.0869 195.967 66.8509 188.245 63.4682 181.038C60.1429 174.002 55.9002 166.452 49.4789 161.761C45.9815 159.187 42.0255 157.529 38.0695 155.813C37.8402 155.755 38.0122 155.469 38.1842 155.527Z" fill="#EBEBEB"/>
<path d="M65.3028 185.385C65.3028 185.385 61.6908 182.01 57.1615 179.494C52.6322 176.977 48.9055 175.318 47.7588 173.087C46.6122 170.856 50.1668 167.996 50.1668 167.996C50.1668 167.996 45.5228 170.284 43.5735 168.626C41.6242 166.967 37.6108 155.241 37.6108 155.241C37.6108 155.241 48.3322 159.073 55.0402 166.738C61.7482 174.517 65.3028 185.385 65.3028 185.385Z" fill="#EBEBEB"/>
<path d="M64.7294 182.983C59.3401 172.916 52.2308 163.821 42.4268 157.872C45.0068 159.531 47.4148 161.418 49.5934 163.478C47.5868 163.42 45.5801 163.764 43.8028 164.679C43.7454 164.679 43.8028 164.736 43.8601 164.736C45.8094 164.05 47.7014 163.649 49.7654 163.764C49.8228 163.764 49.8228 163.764 49.8228 163.764C50.1668 164.107 50.5108 164.45 50.8548 164.793C49.8228 164.85 48.7908 164.965 47.7588 165.194V165.251C48.8481 165.022 49.9374 164.965 51.0268 164.965C52.8041 166.738 54.5241 168.683 56.0721 170.685C55.3841 170.57 54.5814 170.628 53.8934 170.856C53.8361 170.856 53.8361 170.971 53.8934 170.914C54.6961 170.799 55.4414 170.856 56.1868 170.856C56.4734 171.257 56.7601 171.6 57.0468 172C54.8681 171.886 52.6894 172.058 50.5108 172.63C50.4534 172.63 50.5108 172.687 50.5108 172.687C52.7468 172.229 54.9254 172.115 57.2188 172.229C57.5054 172.572 57.7348 172.973 58.0214 173.316C56.7028 173.259 55.4414 173.43 54.1228 173.774C54.0654 173.774 54.0654 173.888 54.1228 173.831C55.4414 173.545 56.7601 173.43 58.1361 173.545C59.2828 175.146 60.3721 176.748 61.4614 178.407C60.8881 178.292 60.3148 178.35 59.7414 178.521C59.6841 178.521 59.7414 178.578 59.7414 178.578C60.3721 178.521 60.9454 178.578 61.5761 178.693C62.5508 180.18 63.4681 181.667 64.3281 183.154C64.6148 183.212 64.8441 183.097 64.7294 182.983Z" fill="white"/>
<path d="M56.4163 174.631C55.3843 174.517 54.295 174.689 53.3203 175.032V175.089C54.3523 174.917 55.3843 174.803 56.4163 174.746C56.4736 174.746 56.4736 174.631 56.4163 174.631Z" fill="white"/>
<path d="M47.0711 162.391C46.6124 162.334 46.0964 162.391 45.6377 162.448C45.5804 162.448 45.5804 162.562 45.6377 162.505C46.0964 162.448 46.5551 162.448 47.0711 162.448C47.1284 162.505 47.1284 162.391 47.0711 162.391Z" fill="white"/>
<path d="M79.12 218.619H54.9253L58.3653 193.393L59.2826 186.93H74.82L75.68 193.393L79.12 218.619Z" fill="#DBDBDB"/>
<path d="M75.6799 193.393H58.3652L59.2826 186.93H74.8199L75.6799 193.393Z" fill="#C7C7C7"/>
<path d="M77.0557 184.642H57.0464V190.133H77.0557V184.642Z" fill="#DBDBDB"/>
<path d="M39.5601 218.619L83.1334 218.447L126.707 218.39L213.853 218.333L301 218.39L344.573 218.447L388.147 218.619L344.573 218.733L301 218.79L213.853 218.905L126.707 218.79L83.1334 218.733L39.5601 218.619Z" fill="#263238"/>
<path d="M215 261.232C305.782 261.232 379.375 253.191 379.375 243.271C379.375 233.352 305.782 225.311 215 225.311C124.219 225.311 50.6255 233.352 50.6255 243.271C50.6255 253.191 124.219 261.232 215 261.232Z" fill="#EBEBEB"/>
<path d="M176.758 240.298C175.44 240.755 137.141 240.87 135.65 239.954C135.077 239.611 134.733 234.063 134.504 227.313C134.446 225.883 134.389 224.339 134.389 222.852L131.293 202.488L156.921 202.317L159.329 222.68L159.214 227.142C159.214 227.142 173.892 233.662 175.382 234.806C176.873 236.008 178.077 239.84 176.758 240.298Z" fill="#EB9481"/>
<path d="M176.758 240.298C175.44 240.755 137.141 240.87 135.651 239.955C134.963 239.554 134.618 231.432 134.389 222.852L159.329 222.68L159.215 227.142C159.215 227.142 173.892 233.663 175.382 234.807C176.873 236.008 178.077 239.84 176.758 240.298Z" fill="white"/>
<path d="M176.758 240.298C175.439 240.755 137.141 240.87 135.65 239.954C135.077 239.611 134.733 234.063 134.503 227.313L159.214 227.142C159.214 227.142 173.891 233.662 175.382 234.806C176.873 236.008 178.077 239.84 176.758 240.298Z" fill="#A6A6A6"/>
<path d="M176.185 238.753C169.764 238.638 143.849 238.696 137.485 239.039C137.428 239.039 137.428 239.096 137.485 239.096C143.849 239.382 169.764 239.096 176.185 238.867C176.3 238.867 176.3 238.753 176.185 238.753Z" fill="#263238"/>
<path d="M172.917 233.433C171.369 233.376 169.935 234.12 169.075 235.035C168.273 235.893 167.585 237.151 167.642 238.467C167.642 238.524 167.699 238.524 167.699 238.467C168.043 235.95 170.337 233.776 172.859 233.548C172.974 233.548 172.974 233.49 172.917 233.433Z" fill="#263238"/>
<path d="M161.68 227.771C159.1 227.771 156.118 228.686 154.57 230.745C154.513 230.802 154.628 230.917 154.685 230.859C156.978 229.658 159.214 228.743 161.737 228.057C161.909 228.057 161.852 227.771 161.68 227.771Z" fill="#263238"/>
<path d="M163.686 228.571C161.106 228.571 158.125 229.486 156.577 231.546C156.519 231.603 156.634 231.717 156.691 231.66C158.985 230.459 161.221 229.544 163.743 228.857C163.915 228.8 163.858 228.571 163.686 228.571Z" fill="#263238"/>
<path d="M165.636 229.315C163.056 229.315 160.074 230.23 158.526 232.289C158.469 232.347 158.584 232.461 158.641 232.404C160.934 231.203 163.17 230.287 165.693 229.601C165.865 229.601 165.865 229.315 165.636 229.315Z" fill="#263238"/>
<path d="M167.642 230.059C165.062 230.059 162.081 230.974 160.533 233.033C160.475 233.09 160.59 233.205 160.647 233.147C162.941 231.946 165.177 231.031 167.699 230.345C167.871 230.345 167.814 230.059 167.642 230.059Z" fill="#263238"/>
<path d="M139.09 232.976C136.223 232.976 136.223 237.437 139.147 237.437C142.014 237.38 141.957 232.918 139.09 232.976Z" fill="#263238"/>
<path d="M164.432 220.907C163.113 219.82 161.508 220.907 160.705 221.994C159.386 223.824 158.526 226.341 158.412 228.572C158.412 228.629 158.469 228.629 158.469 228.629C158.526 228.8 158.756 228.972 158.928 228.858C160.762 227.599 162.884 226.455 164.26 224.682C165.062 223.652 165.693 221.936 164.432 220.907ZM161.278 226.398C160.418 227.027 159.501 227.656 158.641 228.343C159.1 227.084 159.501 225.769 160.074 224.51C160.361 223.938 160.648 223.309 160.992 222.794C161.565 221.936 164.088 219.82 164.317 222.566C164.489 224.11 162.368 225.597 161.278 226.398Z" fill="#263238"/>
<path d="M151.99 229.601C154.226 229.944 156.52 229.315 158.756 228.972C158.985 228.915 159.042 228.686 158.928 228.514C158.985 228.514 158.985 228.457 158.928 228.4C157.265 226.913 154.914 225.654 152.678 225.254C151.302 225.025 149.41 225.368 149.238 227.027C149.066 228.572 150.672 229.372 151.99 229.601ZM150.442 228.114C148.722 225.94 151.99 225.712 153.022 225.94C153.653 226.112 154.284 226.341 154.914 226.57C156.176 227.027 157.38 227.714 158.584 228.343C157.494 228.457 156.405 228.629 155.316 228.8C153.997 228.915 151.417 229.315 150.442 228.114Z" fill="#263238"/>
<path d="M93.625 108.223C93.625 108.223 123.381 158.673 124.184 162.219C125.388 167.653 131.866 221.421 131.866 221.421L162.826 220.849C162.826 220.849 157.494 173.431 152.449 157.815C148.837 146.547 122.578 109.252 122.578 109.252L93.625 108.223Z" fill="#37474F"/>
<path d="M160.017 216.159C155.545 216.102 139.836 215.931 133.93 216.503C133.873 216.503 133.873 216.56 133.93 216.56C135.994 216.846 155.602 216.388 160.017 216.274C160.074 216.274 160.074 216.159 160.017 216.159Z" fill="#263238"/>
<path d="M98.7276 112.856C100.677 115.888 102.741 118.919 104.748 121.894C106.754 124.925 108.704 127.957 110.71 130.988C114.609 137.052 118.45 143.229 122.177 149.407C123.954 152.324 125.617 155.241 126.821 158.387C128.025 161.533 128.828 164.794 129.458 168.054C130.089 171.372 130.49 174.689 130.834 178.064C131.236 181.61 131.637 185.214 132.038 188.76C132.841 196.025 133.644 203.346 134.504 210.611C134.618 211.526 134.676 212.384 134.79 213.299C134.79 213.414 134.561 213.471 134.561 213.299C133.644 206.035 132.898 198.77 132.096 191.563C131.694 187.96 131.293 184.356 130.834 180.752C130.433 177.378 130.089 174.06 129.573 170.685C129.057 167.425 128.369 164.164 127.394 160.961C126.362 157.644 124.872 154.555 123.094 151.523C119.482 145.346 115.698 139.282 111.914 133.219C108.073 127.099 104.232 121.036 100.218 115.03C99.7022 114.286 99.2436 113.542 98.7276 112.799C98.5556 112.856 98.6702 112.799 98.7276 112.856Z" fill="#263238"/>
<path d="M103.372 243.272C101.938 243.157 65.5317 228.457 64.4997 227.084C64.4424 227.027 64.4424 226.97 64.4424 226.798C64.4424 225.54 66.965 221.193 69.0864 215.415C69.201 215.072 70.1757 213.356 71.437 211.068C75.049 204.776 81.3557 193.965 81.3557 193.965L105.149 203.403L93.7397 220.449L91.9624 224.567C91.9624 224.567 103.142 236.065 104.06 237.723C105.092 239.325 104.805 243.329 103.372 243.272Z" fill="#EB9481"/>
<path d="M103.372 243.272C101.938 243.158 65.5317 228.457 64.4997 227.084C64.4424 227.027 64.4424 226.97 64.4424 226.798C64.4424 225.54 66.965 221.193 69.0864 215.416C69.201 215.072 70.1757 213.356 71.437 211.068L93.7971 220.392L92.0197 224.51C92.0197 224.51 103.2 236.008 104.117 237.666C105.092 239.325 104.805 243.329 103.372 243.272Z" fill="white"/>
<path d="M103.372 243.272C101.938 243.215 65.5318 228.457 64.4998 227.084C64.0985 226.569 65.7612 221.593 69.0865 215.473L92.0198 224.567C92.0198 224.567 103.2 236.065 104.117 237.723C105.149 239.325 104.805 243.329 103.372 243.272Z" fill="#A6A6A6"/>
<path d="M103.429 241.613C97.5237 239.096 73.501 229.429 67.481 227.37C67.4237 227.37 67.4237 227.37 67.481 227.427C73.2717 230.059 97.409 239.497 103.429 241.727C103.544 241.785 103.544 241.67 103.429 241.613Z" fill="#263238"/>
<path d="M102.397 235.493C101.021 234.863 99.3583 234.978 98.269 235.493C97.1796 236.007 96.0903 236.865 95.689 238.124C95.689 238.181 95.7463 238.181 95.7463 238.124C97.0076 235.95 99.989 234.749 102.397 235.493C102.454 235.55 102.454 235.607 102.397 235.493Z" fill="#263238"/>
<path d="M94.1411 226.054C91.7904 225.082 88.6371 224.796 86.4011 226.169C86.2864 226.226 86.4011 226.34 86.4585 226.34C89.0385 226.112 91.4464 226.112 94.0264 226.398C94.2558 226.398 94.3131 226.112 94.1411 226.054Z" fill="#263238"/>
<path d="M95.689 227.485C93.3383 226.512 90.185 226.226 87.949 227.599C87.8343 227.656 87.949 227.771 88.0063 227.771C90.5863 227.542 92.9943 227.542 95.5743 227.828C95.8036 227.828 95.861 227.542 95.689 227.485Z" fill="#263238"/>
<path d="M97.2368 228.972C94.8862 227.999 91.7328 227.713 89.4968 229.086C89.3822 229.143 89.4968 229.258 89.5541 229.258C92.1341 229.029 94.5421 229.029 97.1221 229.315C97.3515 229.258 97.4088 229.029 97.2368 228.972Z" fill="#263238"/>
<path d="M98.7852 230.402C96.4345 229.429 93.2812 229.143 91.0452 230.516C90.9305 230.573 91.0452 230.688 91.1025 230.688C93.6825 230.459 96.0905 230.459 98.6705 230.745C98.8998 230.745 98.9572 230.459 98.7852 230.402Z" fill="#263238"/>
<path d="M71.2649 222.394C68.5702 221.307 66.9076 225.483 69.6022 226.569C72.2969 227.599 73.9596 223.423 71.2649 222.394Z" fill="#263238"/>
<path d="M99.2436 220.735C98.441 219.248 96.549 219.648 95.345 220.335C93.453 221.536 91.6756 223.538 90.7583 225.54C90.7583 225.597 90.7583 225.597 90.8156 225.654C90.8156 225.826 90.9303 226.055 91.1596 225.997C93.3383 225.483 95.689 225.254 97.6383 224.11C98.8423 223.481 100.046 222.108 99.2436 220.735ZM94.313 224.625C93.2236 224.911 92.1916 225.082 91.1596 225.425C92.077 224.396 92.937 223.366 93.9116 222.451C94.3703 221.993 94.8863 221.593 95.4023 221.193C96.2623 220.621 99.3583 219.534 98.5556 222.222C98.1543 223.709 95.5743 224.281 94.313 224.625Z" fill="#263238"/>
<path d="M84.509 224.053C86.4584 225.197 88.8664 225.483 90.9877 225.94C91.217 225.997 91.3317 225.769 91.3317 225.597C91.389 225.597 91.389 225.54 91.389 225.483C90.4144 223.481 88.6944 221.479 86.8024 220.22C85.6557 219.477 83.7064 219.076 82.9037 220.563C82.1584 222.051 83.3624 223.423 84.509 224.053ZM83.5917 222.165C82.789 219.477 85.9424 220.563 86.745 221.135C87.261 221.536 87.777 221.936 88.2357 222.394C89.2104 223.309 90.0704 224.396 90.9877 225.368C89.9557 225.082 88.8664 224.853 87.8344 224.567C86.573 224.224 84.0504 223.652 83.5917 222.165Z" fill="#263238"/>
<path d="M95.6893 219.476L69.0293 208.723C69.0293 208.723 102.053 160.274 102.34 156.614C102.569 153.41 88.064 125.611 87.4906 117.489C86.86 108.737 91.1026 101.988 95.7466 97.7549L123.267 109.424C123.267 109.424 120.343 114.057 115.813 116.631C115.813 116.631 129.917 148.777 129.115 158.673C128.197 168.626 95.6893 219.476 95.6893 219.476Z" fill="#37474F"/>
<path d="M96.836 214.386C92.9946 212.727 94.084 213.127 90.2426 211.526C88.3506 210.725 75.9093 205.577 74.0173 205.119C73.96 205.119 73.96 205.176 73.96 205.176C75.6226 206.206 88.1786 211.125 90.0706 211.869C93.9693 213.413 92.88 212.898 96.7786 214.386C96.8933 214.557 96.9506 214.443 96.836 214.386Z" fill="#263238"/>
<path d="M120.228 116.059C117.361 116.688 114.552 117.66 111.857 118.747C111.743 118.804 111.8 118.919 111.915 118.919C114.724 118.118 117.591 117.317 120.343 116.345C120.572 116.345 120.457 116.059 120.228 116.059Z" fill="#263238"/>
<path d="M116.96 114.972C116.674 115.43 116.444 115.945 116.272 116.459C116.1 116.86 115.928 117.26 115.928 117.718C115.928 117.775 116.043 117.832 116.1 117.775C116.444 117.489 116.616 117.031 116.788 116.631C117.018 116.173 117.247 115.716 117.476 115.258C117.591 114.858 117.132 114.686 116.96 114.972Z" fill="#263238"/>
<path d="M117.304 112.398C117.476 111.998 117.648 111.54 117.82 111.14C117.992 110.682 118.222 110.282 118.394 109.824C118.394 109.767 118.508 109.824 118.508 109.881C118.336 110.282 118.222 110.739 118.107 111.197C117.992 111.654 117.82 112.055 117.706 112.512C117.419 113.313 117.132 114.114 116.731 114.915C117.19 114.915 117.648 114.915 118.05 114.686C118.508 114.457 118.738 114 118.967 113.542C119.196 113.084 119.426 112.57 119.655 112.112C119.942 111.597 120.228 111.082 120.4 110.51C120.4 110.453 120.515 110.51 120.515 110.568C120.114 111.712 119.712 112.856 119.024 113.942C118.795 114.343 118.566 114.8 118.107 114.972C117.591 115.144 117.075 115.086 116.559 115.086C116.502 115.086 116.387 115.086 116.444 114.972C116.674 114.057 116.96 113.199 117.304 112.398Z" fill="#263238"/>
<path d="M116.157 117.717C117.132 119.777 117.992 121.836 118.909 123.895C119.827 125.897 120.629 127.956 121.432 130.015C123.095 134.134 124.528 138.367 125.847 142.599C126.477 144.716 127.051 146.832 127.624 148.949C128.14 151.065 128.656 153.239 128.885 155.469C129.115 157.7 128.943 159.874 128.312 161.99C127.681 164.164 126.879 166.051 125.904 168.053C125.331 169.312 125.101 169.14 125.388 168.511C126.191 166.738 128.369 161.361 128.197 156.842C128.14 154.669 127.681 152.495 127.165 150.379C126.649 148.205 126.076 146.089 125.445 143.915C124.241 139.739 122.751 135.621 121.26 131.503C120.4 129.215 119.54 126.927 118.68 124.639C117.82 122.351 116.96 120.234 115.985 117.717C115.985 117.717 116.1 117.66 116.157 117.717Z" fill="#263238"/>
<path d="M95.9187 110.911C96.3774 110.739 97.0654 111.025 97.5241 111.082C98.1547 111.197 98.7854 111.254 99.4161 111.254C100.047 111.254 100.677 111.254 101.308 111.197C101.939 111.139 102.569 111.082 103.085 110.739C104.003 110.167 104.748 109.195 105.379 108.337C106.067 107.364 106.755 106.335 107.156 105.191C107.156 105.133 107.271 105.191 107.271 105.248C107.041 105.877 106.927 106.506 106.64 107.135C106.411 107.707 106.067 108.279 105.78 108.794C105.149 109.824 104.461 110.853 103.429 111.483C102.34 112.112 100.907 112.055 99.6454 111.997C98.9574 111.94 98.2121 111.883 97.5241 111.711C97.0081 111.597 96.1481 111.54 95.8614 111.082C95.8041 111.025 95.8041 110.911 95.9187 110.911Z" fill="#263238"/>
<path d="M76.6548 203.632C81.0121 196.997 85.3121 190.361 89.5548 183.612C93.7975 176.862 97.9255 170.113 102.053 163.249C103.028 161.59 104.175 159.988 104.805 158.158C105.493 156.213 105.092 154.268 104.461 152.381C103.315 148.834 101.881 145.402 100.391 142.085C98.8428 138.71 97.1801 135.392 95.5748 132.017C93.9694 128.7 92.2495 125.382 91.0455 121.893C89.8988 118.575 89.4401 115.143 90.3001 111.654C91.2175 108.222 93.1094 105.191 95.1161 102.331C95.6321 101.587 96.2054 100.843 96.7214 100.1C96.7788 100.043 96.8361 100.1 96.7788 100.157C94.5428 103.131 92.4214 106.277 91.1028 109.824C90.4721 111.54 90.0708 113.37 90.0135 115.258C89.9561 117.145 90.3001 118.976 90.8735 120.806C91.9628 124.295 93.6255 127.556 95.2308 130.816C96.8361 134.134 98.4988 137.451 100.104 140.826C101.652 144.201 103.143 147.633 104.347 151.179C104.863 152.781 105.493 154.383 105.436 156.099C105.379 157.929 104.519 159.588 103.601 161.189C99.5881 167.996 95.4601 174.689 91.2748 181.324C87.0894 188.016 82.7895 194.651 78.4321 201.229C77.8588 202.087 77.3428 202.888 76.7694 203.746C76.7121 203.861 76.5401 203.746 76.6548 203.632Z" fill="#263238"/>
<path d="M124.7 78.6502C127.165 84.0842 139.721 91.5774 145.569 92.3782C149.812 92.9502 162.597 93.179 167.012 92.4926C172.172 91.6918 168.216 77.8494 165.177 78.1926C156.807 79.165 149.697 80.2518 147.461 80.2518C144.709 80.2518 129.975 75.5042 128.197 74.875C123.897 73.2162 123.324 75.5614 124.7 78.6502Z" fill="#EB9481"/>
<path d="M124.757 80.0801C127.911 84.7133 138.345 92.3209 138.345 92.3209L139.779 89.1177L144.595 78.5357C144.595 78.5357 135.02 75.5041 128.713 74.1885C127.853 74.0169 127.108 73.9025 126.477 73.8453C122.407 73.6165 122.063 76.0761 124.757 80.0801Z" fill="#F78310"/>
<path d="M124.757 80.0801C127.911 84.7133 138.345 92.3209 138.345 92.3209L139.779 89.1177C135.88 84.5989 129.86 77.7921 126.42 73.8453C122.407 73.6165 122.063 76.0761 124.757 80.0801Z" fill="#263238"/>
<path d="M136.511 90.1474C137.313 88.2026 140.868 80.3662 141.728 78.7074C141.785 78.593 141.9 78.593 141.843 78.7074C139.607 84.599 137.485 88.317 136.625 90.1474C136.568 90.2046 136.453 90.2046 136.511 90.1474Z" fill="#263238"/>
<path d="M163.687 78.307C168.789 77.6206 175.096 76.4766 180.428 78.7646C181.46 79.2222 181.861 79.9658 181.861 79.9658C184.269 80.9382 184.556 82.3682 184.556 82.3682C186.505 83.9698 186.62 85.457 186.62 85.457C186.62 85.457 189.429 86.601 189.028 88.4314C188.569 90.4906 184.671 88.4314 181.861 88.603C175.44 89.0034 166.381 91.3486 164.547 91.6346L163.687 78.307Z" fill="#EB9481"/>
<path d="M174.752 84.3131C176.644 84.2559 178.536 84.0843 180.428 84.3131C182.492 84.4847 184.498 85.0567 186.505 85.5143C186.562 85.5143 186.62 85.4571 186.562 85.3999C183.065 83.9127 178.536 83.5123 174.809 84.1987C174.637 84.2559 174.637 84.3131 174.752 84.3131Z" fill="#263238"/>
<path d="M173.949 80.4808C175.784 80.4808 179.052 80.5952 184.499 82.4828C184.499 82.4828 184.556 82.4828 184.499 82.4256C181.116 80.7096 177.676 80.1376 173.949 80.3664C173.835 80.3664 173.835 80.4808 173.949 80.4808Z" fill="#263238"/>
<path d="M173.548 78.3645C176.701 78.5361 178.65 79.0509 181.804 79.9661C181.804 79.9661 181.861 79.9661 181.804 79.9089C178.306 78.4789 176.873 78.3073 173.49 78.1929C173.433 78.2501 173.433 78.3645 173.548 78.3645Z" fill="#263238"/>
<path d="M174.064 89.5752C173.261 89.9756 173.433 90.376 174.981 90.7764C176.586 91.1196 183.065 91.234 182.836 93.522C182.606 95.81 173.433 95.524 170.853 94.7232C168.273 93.9224 164.432 91.7488 164.432 91.7488C166.266 91.4056 170.509 90.2616 174.064 89.5752Z" fill="#EB9481"/>
<path d="M131.522 87.2872C131.465 88.2596 131.408 89.232 131.236 90.2616C131.236 90.2044 131.236 90.2044 131.293 90.1472C131.465 89.6324 131.694 89.1176 131.924 88.6028H131.981C131.866 89.1176 131.694 89.6896 131.465 90.2044C131.35 90.4332 131.293 90.7192 131.178 90.948C131.121 91.4056 131.006 91.806 130.949 92.2636C130.777 93.0644 130.032 96.5536 129.802 97.1256C129.745 97.24 129.63 97.24 129.63 97.0684C129.688 96.4392 130.318 92.7784 130.433 91.9776C130.662 90.376 131.006 88.7744 131.465 87.23C131.465 87.23 131.522 87.2872 131.522 87.2872Z" fill="#263238"/>
<path d="M125.56 113.313C124.012 114.114 122.063 115.315 113.176 113.599C112.603 113.485 112.087 113.37 111.513 113.199C103.2 110.682 93.1666 100.901 92.5933 100.214C92.5933 100.214 105.837 78.8214 122.751 72.0718C124.815 71.2138 128.312 72.8154 130.204 74.8174C130.892 75.5038 132.383 80.7662 131.809 85.0562C131.236 89.289 127.108 112.512 125.56 113.313Z" fill="#F78310"/>
<path d="M124.356 84.8276C124.413 85.2852 124.356 85.7428 124.298 86.2004C124.241 86.658 124.126 87.0584 123.954 87.516C123.897 87.0584 123.954 86.6008 124.012 86.1432C124.126 85.6856 124.184 85.2852 124.356 84.8276Z" fill="white"/>
<path d="M118.565 99.4136C118.623 99.8712 118.565 100.329 118.508 100.786C118.451 101.244 118.336 101.644 118.164 102.102C118.107 101.644 118.164 101.187 118.221 100.729C118.336 100.272 118.393 99.8712 118.565 99.4136Z" fill="white"/>
<path d="M108.761 88.374C108.818 88.8316 108.761 89.2892 108.704 89.7468C108.646 90.2044 108.532 90.6048 108.36 91.0624C108.302 90.6048 108.36 90.1472 108.417 89.6896C108.532 89.2892 108.589 88.8316 108.761 88.374Z" fill="white"/>
<path d="M128.14 98.6699C128.197 99.1275 128.14 99.5851 128.083 100.043C128.025 100.5 127.911 100.901 127.739 101.358C127.681 100.901 127.739 100.443 127.796 99.9855C127.911 99.5279 127.968 99.1275 128.14 98.6699Z" fill="white"/>
<path d="M115.526 86.4861C115.985 86.4289 116.444 86.4861 116.902 86.5433C117.361 86.6005 117.762 86.7149 118.221 86.8865C117.762 86.9437 117.304 86.8865 116.845 86.8293C116.444 86.7721 115.985 86.6577 115.526 86.4861Z" fill="white"/>
<path d="M104.404 97.0681C104.862 97.0109 105.321 97.0681 105.78 97.1253C106.238 97.1825 106.64 97.2969 107.098 97.4685C106.64 97.5257 106.181 97.4685 105.722 97.4113C105.264 97.2969 104.862 97.2397 104.404 97.0681Z" fill="white"/>
<path d="M117.533 108.451C117.992 108.394 118.451 108.451 118.909 108.508C119.368 108.565 119.769 108.68 120.228 108.851C119.769 108.909 119.311 108.851 118.852 108.794C118.393 108.68 117.935 108.623 117.533 108.451Z" fill="white"/>
<path d="M100.964 104.276C101.423 104.218 101.881 104.276 102.34 104.333C102.799 104.39 103.2 104.504 103.659 104.676C103.2 104.733 102.741 104.676 102.283 104.619C101.881 104.562 101.423 104.447 100.964 104.276Z" fill="white"/>
<path d="M124.298 74.5886C124.757 74.5314 125.216 74.5886 125.674 74.6458C126.133 74.703 126.534 74.8174 126.993 74.989C126.534 75.0462 126.076 74.989 125.617 74.9318C125.158 74.8746 124.7 74.7602 124.298 74.5886Z" fill="white"/>
<path d="M121.031 78.2495C120.744 78.5927 120.4 78.8787 120.056 79.1647C119.712 79.4507 119.311 79.6795 118.909 79.8511C119.196 79.5079 119.54 79.2219 119.884 78.9359C120.228 78.6499 120.629 78.4211 121.031 78.2495Z" fill="white"/>
<path d="M103.372 88.6025C103.085 88.9457 102.741 89.2317 102.397 89.5177C102.053 89.8037 101.652 90.0325 101.25 90.2041C101.537 89.8609 101.881 89.5749 102.225 89.2889C102.569 89.0601 102.97 88.7741 103.372 88.6025Z" fill="white"/>
<path d="M125.445 93.293C125.158 93.6362 124.814 93.9222 124.47 94.2082C124.126 94.4942 123.725 94.723 123.324 94.8946C123.61 94.5514 123.954 94.2654 124.298 93.9794C124.642 93.6934 124.986 93.4646 125.445 93.293Z" fill="white"/>
<path d="M111.169 102.273C110.883 102.617 110.539 102.903 110.195 103.189C109.851 103.475 109.449 103.703 109.048 103.875C109.335 103.532 109.679 103.246 110.023 102.96C110.367 102.674 110.711 102.445 111.169 102.273Z" fill="white"/>
<path d="M130.892 81.0522C130.605 81.3954 130.261 81.6814 129.917 81.9674C129.573 82.2534 129.172 82.4822 128.771 82.6538C129.057 82.3106 129.401 82.0246 129.745 81.7386C130.089 81.4526 130.491 81.2238 130.892 81.0522Z" fill="white"/>
<path d="M130.605 91.4055C130.261 91.1195 129.974 90.7763 129.688 90.4331C129.401 90.0899 129.172 89.6895 129 89.2891C129.344 89.5751 129.63 89.9183 129.917 90.2615C130.146 90.6047 130.433 91.0051 130.605 91.4055Z" fill="white"/>
<path d="M98.785 98.6125C98.441 98.3265 98.1544 97.9833 97.8677 97.6401C97.581 97.2969 97.3517 96.8965 97.1797 96.4961C97.5237 96.7821 97.8104 97.1253 98.097 97.4685C98.3264 97.8117 98.613 98.1549 98.785 98.6125Z" fill="white"/>
<path d="M126.764 107.135C126.42 106.849 126.133 106.506 125.846 106.163C125.56 105.82 125.33 105.419 125.158 105.019C125.502 105.305 125.789 105.648 126.076 105.991C126.305 106.335 126.534 106.678 126.764 107.135Z" fill="white"/>
<path d="M112.717 82.8254C112.373 82.5394 112.086 82.1962 111.8 81.853C111.513 81.5098 111.284 81.1094 111.112 80.709C111.456 80.995 111.742 81.3382 112.029 81.6814C112.316 82.0246 112.545 82.425 112.717 82.8254Z" fill="white"/>
<path d="M113.004 111.94C112.66 111.654 112.373 111.311 112.086 110.968C111.8 110.625 111.57 110.224 111.398 109.824C111.742 110.11 112.029 110.453 112.316 110.796C112.545 111.139 112.774 111.54 113.004 111.94Z" fill="white"/>
<path d="M115.354 94.7805C115.01 94.4945 114.724 94.1513 114.437 93.8081C114.15 93.4649 113.921 93.0645 113.749 92.6641C114.093 92.9501 114.38 93.2933 114.666 93.6365C114.896 93.9797 115.182 94.3229 115.354 94.7805Z" fill="white"/>
<path d="M127.108 80.4806C124.93 80.0802 122.923 75.6186 122.636 72.6442C122.636 72.4154 123.668 70.8138 124.815 68.7546C125.503 67.4962 126.248 66.1234 126.822 64.8078C126.936 64.5218 127.624 65.437 127.624 65.437L129.172 66.581L134.275 70.4706C134.275 70.4706 132.211 72.873 131.236 75.2182C131.179 75.3898 131.122 75.6186 131.064 75.7902C131.064 75.7902 131.064 75.8474 131.064 75.9046C130.72 76.9914 129.23 80.881 127.108 80.4806Z" fill="#EB9481"/>
<path d="M131.064 75.7901C131.064 75.7901 131.064 75.8473 131.064 75.9045C130.778 75.8473 130.491 75.7329 130.204 75.5613C124.643 72.9873 127.108 65.5513 127.108 65.5513L129.287 66.6381L134.39 70.5277C134.39 70.5277 132.326 72.9301 131.351 75.2753C131.179 75.4469 131.122 75.6185 131.064 75.7901Z" fill="#263238"/>
<path d="M140.123 54.6831C140.123 54.6831 142.645 56.2847 142.703 59.1447C142.703 62.0047 141.556 64.8075 141.327 64.9219C141.097 65.0363 140.123 54.6831 140.123 54.6831Z" fill="#263238"/>
<path d="M127.51 56.1706C125.962 59.2022 126.076 68.6402 127.968 71.0998C130.72 74.6462 136.052 75.8474 139.263 72.3582C142.359 68.9834 142.072 56.6282 139.836 54.3402C136.626 50.9082 129.803 51.709 127.51 56.1706Z" fill="#EB9481"/>
<path d="M135.65 63.7207L135.593 63.7779C135.65 64.4071 135.536 65.1507 134.962 65.3795V65.4367C135.708 65.3223 135.765 64.3499 135.65 63.7207Z" fill="#263238"/>
<path d="M135.02 63.0915C133.988 63.0343 133.93 65.0935 134.905 65.1507C135.88 65.2079 135.937 63.1487 135.02 63.0915Z" fill="#263238"/>
<path d="M139.148 63.7207L139.205 63.7779C139.148 64.4071 139.262 65.1507 139.836 65.3795V65.4367C139.148 65.3223 139.033 64.2927 139.148 63.7207Z" fill="#263238"/>
<path d="M139.779 63.0344C140.811 62.9772 140.868 65.0364 139.893 65.0936C138.919 65.208 138.861 63.0916 139.779 63.0344Z" fill="#263238"/>
<path d="M134.389 61.49C134.676 61.4328 134.905 61.3184 135.192 61.204C135.478 61.0896 135.765 61.0324 135.994 60.7464C136.109 60.5748 136.052 60.346 135.937 60.2316C135.65 59.9456 135.192 60.0028 134.848 60.1172C134.446 60.2316 134.16 60.4604 133.93 60.8036C133.644 61.1468 133.988 61.6044 134.389 61.49Z" fill="#263238"/>
<path d="M140.466 62.4051C140.18 62.3479 139.893 62.2335 139.664 62.1763C139.32 62.0619 139.09 62.0619 138.861 61.7759C138.746 61.6615 138.747 61.3755 138.919 61.2611C139.205 60.9751 139.606 60.9751 140.008 61.0895C140.409 61.2039 140.696 61.3755 140.982 61.7187C141.212 62.0047 140.868 62.4623 140.466 62.4051Z" fill="#263238"/>
<path d="M134.16 69.8413C134.332 70.0129 134.446 70.1845 134.676 70.2417C134.905 70.2417 135.192 70.1845 135.364 70.0701C135.364 70.0701 135.421 70.0701 135.364 70.1273C135.192 70.3561 134.848 70.5277 134.561 70.4705C134.274 70.4133 134.102 70.1845 134.045 69.8985C134.102 69.8413 134.16 69.8413 134.16 69.8413Z" fill="#263238"/>
<path d="M137.886 67.0954C137.886 67.0954 137.886 68.0678 137.886 68.5254C137.886 68.5826 136.625 68.2966 135.249 68.6398C135.02 68.697 135.077 68.5254 135.306 68.411C135.765 68.1822 136.396 68.0106 137.542 68.125C137.6 68.0106 137.485 66.6378 137.542 66.6378C137.772 66.6378 138.23 66.8666 138.517 66.981C138.517 64.979 138.173 62.977 138.23 60.975C138.23 60.9178 138.345 60.9178 138.345 60.975C138.804 63.0342 138.861 65.3794 138.918 67.4386C138.976 67.6102 138.058 67.2098 137.886 67.0954Z" fill="#263238"/>
<path d="M136.625 68.1823C136.625 68.1823 136.166 69.3263 135.421 69.6123C134.561 69.9555 134.274 69.1547 135.134 68.4683C135.593 68.1251 136.625 68.1823 136.625 68.1823Z" fill="#263238"/>
<path d="M135.708 69.4404C135.593 69.4976 135.536 69.5548 135.421 69.612C134.618 69.9552 134.332 69.2688 134.962 68.6396C135.364 68.6968 135.88 68.8112 135.708 69.4404Z" fill="#FF99BA"/>
<path d="M127.108 64.2358C128.14 64.579 129.344 61.433 129.688 60.1746C129.975 59.0878 130.319 55.713 130.376 55.4842C130.434 55.2554 134.963 58.4586 137.6 57.715C140.238 56.9714 142.015 54.569 142.072 53.4822C142.13 52.3954 138.804 49.5926 135.995 49.421C133.128 49.2494 129.287 52.853 129.287 52.853C129.287 52.853 130.606 51.3086 130.548 51.1942C130.491 51.0798 128.656 51.8234 128.312 53.0818C128.312 53.0818 128.656 51.423 128.542 51.423C128.427 51.3658 126.994 52.7958 127.28 53.8826C127.28 53.8826 125.618 55.3126 125.503 56.857C125.331 58.4586 125.847 63.8926 127.108 64.2358Z" fill="#263238"/>
<path d="M139.492 57.2001C138.69 57.5433 137.887 58.0009 136.97 58.1153C135.995 58.2297 135.02 58.0009 134.103 57.6577C133.186 57.3145 132.383 56.7997 131.58 56.1705C130.892 55.6557 130.319 54.9693 129.631 54.5117C129.459 54.3973 129.23 54.6261 129.344 54.7977C130.434 56.3993 132.326 57.7149 134.16 58.3441C136.11 58.9161 137.944 58.5157 139.492 57.2001Z" fill="#263238"/>
<path d="M128.197 63.9496C128.197 63.9496 126.592 60.632 125.101 61.204C123.61 61.7188 124.528 66.2948 126.018 67.1528C127.509 68.0108 128.312 66.638 128.312 66.638L128.197 63.9496Z" fill="#EB9481"/>
<path d="M125.388 62.5195C125.388 62.5195 125.33 62.5195 125.388 62.5195C126.42 63.2059 126.821 64.2927 127.108 65.4367C126.821 64.9791 126.42 64.6931 125.789 64.9791C125.732 64.9791 125.789 65.0363 125.789 65.0363C126.248 65.0363 126.592 65.1507 126.821 65.5511C126.993 65.8371 127.108 66.1803 127.222 66.5235C127.28 66.6379 127.452 66.5807 127.452 66.4663C127.681 65.0363 126.878 62.8627 125.388 62.5195Z" fill="#263238"/>
<path d="M117.419 78.7069C116.272 85.1705 123.324 107.021 127.853 111.082C134.561 117.145 147.003 121.149 151.475 122.408C153.424 122.98 158.871 109.195 156.864 108.279C152.621 106.335 139.435 102.216 138.173 101.187C136.912 100.157 129.344 89.2317 125.961 82.9397C121.489 74.5885 117.992 75.3894 117.419 78.7069Z" fill="#EB9481"/>
<path d="M153.539 107.135C153.539 107.135 159.387 108.622 163.171 109.766C165.292 110.396 168.789 111.826 170.108 113.027C172.115 114.8 179.339 123.437 177.275 125.21C175.383 126.812 170.165 118.632 170.165 118.632C170.165 118.632 176.185 126.469 173.605 128.013C170.968 129.558 166.324 119.49 166.324 119.49C166.324 119.49 172.344 127.67 169.42 128.814C167.184 129.672 162.425 120.806 162.425 120.806C162.425 120.806 167.528 127.899 165.292 128.871C162.827 129.958 157.896 122.064 157.896 122.064C151.761 123.666 148.149 121.893 145.799 120.348C145.111 119.948 153.539 107.135 153.539 107.135Z" fill="#EB9481"/>
<path d="M168.273 115.772C169.019 116.688 169.764 117.546 170.452 118.518C171.14 119.49 171.713 120.463 172.287 121.492C173.663 123.952 174.179 125.725 174.121 125.668C173.147 123.151 170.853 119.719 170.165 118.747C169.477 117.717 168.847 116.745 168.273 115.772C168.216 115.772 168.216 115.772 168.273 115.772Z" fill="#263238"/>
<path d="M164.719 118.061C165.98 119.09 168.675 122.808 169.707 125.325C169.764 125.439 169.707 125.439 169.649 125.325C168.847 124.124 165.579 119.319 164.719 118.061Z" fill="#263238"/>
<path d="M161.393 119.548C162.884 120.978 164.088 122.98 165.063 125.268C165.12 125.382 165.005 125.382 164.948 125.268C163.744 123.323 162.827 121.836 161.279 119.605C161.279 119.548 161.336 119.49 161.393 119.548Z" fill="#263238"/>
<path d="M123.84 79.1647C118.623 71.7859 115.469 74.5315 116.501 82.5395C117.476 90.0327 120.113 98.9559 120.113 98.9559L133.3 92.5495C133.357 92.5495 127.165 83.9123 123.84 79.1647Z" fill="#F78310"/>
<path d="M126.993 82.082C127.165 82.4824 127.28 82.94 127.337 83.3976C127.395 83.8552 127.452 84.3128 127.452 84.7704C127.28 84.37 127.165 83.9124 127.108 83.4548C127.05 82.9972 126.993 82.5396 126.993 82.082Z" fill="white"/>
<path d="M119.196 86.5435C119.597 86.3719 120.056 86.2575 120.514 86.2003C120.973 86.1431 121.432 86.0859 121.89 86.0859C121.489 86.2575 121.03 86.3719 120.572 86.4291C120.113 86.5435 119.654 86.6007 119.196 86.5435Z" fill="white"/>
<path d="M119.54 75.0464C119.368 75.504 119.139 75.8472 118.852 76.2476C118.565 76.5908 118.336 76.9912 117.935 77.2772C118.107 76.8196 118.336 76.4764 118.623 76.076C118.909 75.7328 119.196 75.3896 119.54 75.0464Z" fill="white"/>
<path d="M130.72 90.0327C130.548 90.4903 130.319 90.8335 130.032 91.2339C129.745 91.5771 129.516 91.9775 129.115 92.2635C129.287 91.8059 129.516 91.4627 129.803 91.0623C130.089 90.6619 130.319 90.3187 130.72 90.0327Z" fill="white"/>
<path d="M121.547 94.4942C121.088 94.3226 120.744 94.0938 120.343 93.8078C119.999 93.5218 119.597 93.293 119.311 92.8926C119.769 93.0642 120.113 93.293 120.515 93.579C120.916 93.865 121.26 94.151 121.547 94.4942Z" fill="white"/>
<path d="M125.56 81.3955C126.248 82.3679 126.993 83.2831 127.738 84.2555C127.566 83.7979 127.394 83.2831 127.28 82.8255C127.28 82.8255 127.28 82.7683 127.337 82.8255C127.509 83.2259 127.624 83.5691 127.796 83.9695C127.853 84.1411 127.91 84.3127 128.025 84.5415C128.025 84.5987 128.082 84.5987 128.082 84.6559C128.656 85.3995 129.229 86.1431 129.745 86.8867C130.376 87.8019 131.006 88.7171 131.637 89.6323C132.268 90.6047 132.898 91.6915 133.586 92.6067C133.644 92.6639 132.44 93.1787 132.325 93.2359C132.21 93.2931 132.153 93.1787 132.268 93.1215C132.382 93.0643 133.357 92.4923 133.357 92.4923C132.726 91.5771 131.981 90.7191 131.35 89.8039C130.72 88.8887 130.032 88.0307 129.401 87.1155C128.025 85.1707 126.821 83.2831 125.56 81.3955C125.56 81.3383 125.502 81.3955 125.56 81.3955Z" fill="#263238"/>
<path d="M116.845 87.8592C117.074 88.2596 117.246 88.66 117.418 89.0604C117.476 89.232 117.59 89.4036 117.648 89.5752C117.361 88.1452 117.074 86.7152 116.73 85.2852C117.361 87.5732 117.934 89.9184 118.508 92.2636C119.024 94.4944 119.712 96.7252 119.998 99.0132C120.17 98.956 121.202 98.5555 121.26 98.6127C121.317 98.6699 119.941 99.2992 119.884 99.2992C119.138 97.0684 118.68 94.5515 118.164 92.3207C118.049 91.6915 117.877 91.0624 117.762 90.376C117.59 89.9756 117.418 89.6324 117.246 89.232C117.132 88.66 116.96 88.2596 116.845 87.8592C116.845 87.802 116.788 87.802 116.845 87.8592Z" fill="#263238"/>
<path d="M120.343 96.7823C122.177 95.7527 129.86 91.8059 131.58 91.0623C131.695 91.0051 131.752 91.0623 131.637 91.1195C126.191 94.3227 122.235 95.9243 120.4 96.8395C120.343 96.8395 120.285 96.7823 120.343 96.7823Z" fill="#263238"/>
<path d="M330.412 247.162H155.717L181.001 104.219H355.696L330.412 247.162Z" fill="#F78310"/>
<path d="M240.8 89.4038H183.639L181.001 104.219H242.176L240.8 89.4038Z" fill="#F78310"/>
<g opacity="0.1">
<path d="M330.412 247.162H155.717L181.001 104.219H355.696L330.412 247.162Z" fill="black"/>
<path d="M240.8 89.4038H183.639L181.001 104.219H242.176L240.8 89.4038Z" fill="black"/>
</g>
<path d="M177.446 95.4672C177.217 94.6092 177.16 93.8084 177.16 92.9504C177.16 92.0924 177.217 91.2916 177.446 90.4336C177.676 91.2916 177.733 92.0924 177.733 92.9504C177.733 93.8084 177.676 94.6092 177.446 95.4672Z" fill="#263238"/>
<path d="M172.344 96.8974C171.713 96.2682 171.254 95.5818 170.853 94.8954C170.452 94.1518 170.05 93.4082 169.878 92.6074C170.509 93.2366 170.968 93.923 171.369 94.6094C171.77 95.353 172.172 96.0966 172.344 96.8974Z" fill="#263238"/>
<path d="M168.675 100.73C167.815 100.501 167.069 100.158 166.381 99.7572C165.693 99.3568 164.948 98.8992 164.375 98.27C165.235 98.4988 165.98 98.842 166.668 99.2424C167.413 99.6428 168.101 100.1 168.675 100.73Z" fill="#263238"/>
<path d="M167.413 105.82C166.553 106.049 165.75 106.106 164.89 106.106C164.03 106.106 163.228 106.049 162.368 105.82C163.228 105.591 164.03 105.534 164.89 105.534C165.75 105.591 166.61 105.649 167.413 105.82Z" fill="#263238"/>
<path d="M168.904 110.911C168.273 111.54 167.585 111.998 166.897 112.398C166.152 112.799 165.406 113.199 164.604 113.371C165.234 112.742 165.922 112.284 166.61 111.884C167.298 111.483 168.044 111.14 168.904 110.911Z" fill="#263238"/>
<path d="M172.688 114.572C172.458 115.43 172.114 116.173 171.713 116.86C171.312 117.546 170.853 118.29 170.222 118.862C170.452 118.004 170.796 117.26 171.197 116.574C171.656 115.887 172.114 115.201 172.688 114.572Z" fill="#263238"/>
<path d="M177.848 115.831C178.077 116.689 178.134 117.489 178.134 118.347C178.134 119.205 178.077 120.006 177.848 120.864C177.618 120.006 177.561 119.205 177.561 118.347C177.561 117.489 177.618 116.689 177.848 115.831Z" fill="#263238"/>
<path d="M182.95 114.343C183.581 114.972 184.04 115.659 184.441 116.345C184.842 117.089 185.244 117.832 185.416 118.633C184.785 118.004 184.326 117.318 183.925 116.631C183.524 115.945 183.122 115.201 182.95 114.343Z" fill="#263238"/>
<path d="M186.62 110.568C187.48 110.797 188.225 111.14 188.913 111.54C189.601 111.941 190.346 112.398 190.92 113.027C190.06 112.799 189.314 112.455 188.626 112.055C187.881 111.655 187.193 111.197 186.62 110.568Z" fill="#263238"/>
<path d="M187.881 105.42C188.741 105.191 189.544 105.134 190.404 105.134C191.264 105.134 192.066 105.191 192.926 105.42C192.066 105.649 191.264 105.706 190.404 105.706C189.544 105.706 188.684 105.649 187.881 105.42Z" fill="#263238"/>
<path d="M186.39 100.386C187.021 99.7572 187.709 99.2996 188.397 98.8992C189.142 98.4988 189.887 98.0984 190.69 97.9268C190.059 98.556 189.371 99.0136 188.683 99.414C187.995 99.8144 187.25 100.158 186.39 100.386Z" fill="#263238"/>
<path d="M182.606 96.7255C182.836 95.8675 183.18 95.1239 183.581 94.4375C183.982 93.7511 184.441 93.0075 185.072 92.4355C184.842 93.2935 184.498 94.0371 184.097 94.7235C183.638 95.4099 183.18 96.0963 182.606 96.7255Z" fill="#263238"/>
<path d="M330.183 247.161H155.087L130.261 109.424H305.3L330.183 247.161Z" fill="#F78310"/>
<path d="M190.92 193.622C194.941 193.622 198.201 190.37 198.201 186.358C198.201 182.346 194.941 179.093 190.92 179.093C186.899 179.093 183.639 182.346 183.639 186.358C183.639 190.37 186.899 193.622 190.92 193.622Z" fill="#263238"/>
<path d="M248.425 193.622C252.447 193.622 255.707 190.37 255.707 186.358C255.707 182.346 252.447 179.093 248.425 179.093C244.404 179.093 241.144 182.346 241.144 186.358C241.144 190.37 244.404 193.622 248.425 193.622Z" fill="#263238"/>
<path d="M230.136 194.766L229.735 194.023C229.678 193.965 225.951 187.044 218.383 187.044C211.503 187.044 209.783 193.565 209.725 193.851L209.496 194.709L207.833 194.309L208.005 193.451C208.005 193.393 210.069 185.328 218.325 185.328C226.925 185.328 231.053 192.936 231.225 193.222L231.627 193.965L230.136 194.766Z" fill="#263238"/>
<path d="M318.544 185.499C318.945 185.442 319.289 185.328 319.633 185.213" stroke="#263238" stroke-miterlimit="10"/>
<path d="M321.87 184.585C330.642 181.61 337.98 174.746 338.668 166.681C340.216 148.949 318.544 139.168 320.78 118.69C322.902 99.1277 343.484 97.7549 351.683 100.443C360.799 103.418 357.646 112.169 349.447 111.025C335.171 109.081 326.17 93.5793 332.992 76.0189C338.038 62.8629 350.708 57.9437 355.811 56.4565" stroke="#263238" stroke-miterlimit="10" stroke-dasharray="4 4"/>
<path d="M356.9 56.1131C357.588 55.9415 357.989 55.8271 357.989 55.8271" stroke="#263238" stroke-miterlimit="10"/>
<path d="M367.106 52.7386C365.615 48.2198 355.868 49.8214 357.76 55.7702C359.71 61.6618 368.596 57.2574 367.106 52.7386Z" fill="#263238"/>
<path d="M352.428 50.9081C352.485 48.9061 355.237 47.4189 359.193 48.1053C363.092 48.7917 366.761 51.4229 366.761 51.4229C366.761 51.4229 362.92 53.7681 358.964 54.2257C355.008 54.6261 352.371 52.9101 352.428 50.9081Z" fill="#EBEBEB"/>
<path d="M366.762 51.4229C364.755 51.4229 362.691 51.3657 360.684 51.3085C358.678 51.1941 356.614 51.1369 354.607 50.9653C356.614 50.9653 358.678 51.0225 360.684 51.0797C362.748 51.1941 364.755 51.2513 366.762 51.4229Z" fill="#263238"/>
<path d="M356.384 49.1348C356.958 49.4208 357.531 49.7068 358.047 50.05C358.563 50.3932 359.136 50.7364 359.595 51.1368C359.022 50.8508 358.448 50.5648 357.932 50.2216C357.416 49.8784 356.843 49.5352 356.384 49.1348Z" fill="#263238"/>
<path d="M361.659 51.251C361.143 51.7086 360.569 52.0518 360.053 52.395C359.48 52.7382 358.907 53.0814 358.333 53.3674C358.849 52.9098 359.423 52.5666 359.939 52.2234C360.512 51.8802 361.085 51.537 361.659 51.251Z" fill="#263238"/>
<path d="M362.29 50.1069C362.576 50.2213 362.863 50.4501 363.092 50.6217C363.322 50.8505 363.551 51.0221 363.78 51.3081C363.494 51.1937 363.207 50.9649 362.978 50.7933C362.691 50.5645 362.462 50.3929 362.29 50.1069Z" fill="#263238"/>
<path d="M356.155 62.634C357.359 64.1784 360.512 63.8352 363.264 60.9752C366.016 58.1152 367.45 53.8252 367.45 53.8252C367.45 53.8252 362.92 54.1684 359.48 56.1132C356.098 58.1724 354.951 61.0896 356.155 62.634Z" fill="#EBEBEB"/>
<path d="M367.507 53.8823C365.844 55.0835 364.239 56.2847 362.634 57.5431C361.028 58.8015 359.423 60.0599 357.875 61.3755C359.538 60.2315 361.143 58.9731 362.748 57.7147C364.354 56.4563 365.959 55.1979 367.507 53.8823Z" fill="#263238"/>
<path d="M360.397 61.7759C360.741 61.2039 360.971 60.6319 361.2 60.0599C361.429 59.4879 361.659 58.8587 361.831 58.2295C361.487 58.8015 361.257 59.3735 361.028 59.9455C360.799 60.5747 360.569 61.1467 360.397 61.7759Z" fill="#263238"/>
<path d="M363.494 56.9712C362.806 56.914 362.175 56.9712 361.487 56.9712C360.799 57.0284 360.168 57.0856 359.48 57.2C360.168 57.2572 360.799 57.2 361.487 57.2C362.118 57.1428 362.806 57.1428 363.494 56.9712Z" fill="#263238"/>
<path d="M364.583 57.5434C364.755 57.2574 364.87 56.9714 364.927 56.6282C364.984 56.3422 365.099 55.999 365.099 55.6558C364.927 55.9418 364.812 56.2278 364.755 56.571C364.698 56.9142 364.583 57.2574 364.583 57.5434Z" fill="#263238"/>
<path d="M367.105 52.7388C366.188 53.0248 365.213 52.51 364.927 51.652C364.64 50.7368 365.156 49.7644 366.016 49.4784C366.876 49.1924 367.908 49.7072 368.195 50.5652C368.539 51.4804 368.023 52.4528 367.105 52.7388Z" fill="#455A64"/>
<path d="M368.195 55.999C367.277 56.285 366.303 55.7702 366.016 54.9122C365.729 53.997 366.245 53.0246 367.105 52.7386C368.023 52.4526 368.997 52.9674 369.284 53.8254C369.571 54.7406 369.055 55.713 368.195 55.999Z" fill="#455A64"/>
<path d="M180.199 54.5114C179.396 62.3478 172.344 68.0106 164.489 67.2098C161.336 66.8666 158.527 65.551 156.291 63.549L149.124 64.5786L152.679 58.401C151.819 56.2846 151.417 53.9394 151.704 51.537C152.507 43.7006 159.559 38.0378 167.413 38.8386C175.325 39.6966 181.001 46.675 180.199 54.5114Z" fill="white"/>
<path d="M180.199 54.5114C179.912 57.1426 178.937 59.6594 177.332 61.7186C176.931 62.2334 176.472 62.691 176.013 63.2058C175.497 63.6634 175.039 64.121 174.523 64.4642C173.491 65.265 172.287 65.8942 171.083 66.3518C169.879 66.8666 168.56 67.0954 167.241 67.267C166.553 67.3242 165.923 67.3814 165.235 67.3242C164.547 67.3242 163.916 67.2098 163.285 67.0954C160.648 66.6378 158.183 65.3794 156.233 63.6062L156.405 63.6634L149.239 64.7502L148.723 64.8074L149.009 64.3498L152.564 58.1722V58.401C150.844 54.3398 151.245 49.4778 153.424 45.7026C154.513 43.815 156.061 42.1562 157.896 40.955C159.731 39.7538 161.852 38.953 163.973 38.667C166.152 38.381 168.388 38.5526 170.452 39.239C172.516 39.9254 174.408 41.1266 175.956 42.6138C179.109 45.7598 180.657 50.2214 180.199 54.5114ZM180.199 54.5114C180.657 50.2214 178.995 45.7598 175.841 42.7854C174.293 41.2982 172.401 40.2114 170.337 39.525C168.273 38.8958 166.095 38.7242 163.973 39.0674C161.852 39.4106 159.845 40.1542 158.068 41.4126C156.348 42.6138 154.857 44.2154 153.768 46.0458C152.679 47.8762 152.105 49.9926 151.933 52.0518C151.819 54.1682 152.163 56.2846 152.965 58.2866L153.023 58.401L152.965 58.5154L149.353 64.693L149.124 64.2926L156.291 63.3202H156.405L156.463 63.3774C158.355 65.1506 160.763 66.409 163.285 66.8666C163.916 66.981 164.547 67.0954 165.235 67.0954C165.865 67.1526 166.553 67.0954 167.184 67.0954C168.503 66.981 169.764 66.7522 171.025 66.2374C172.229 65.7798 173.433 65.2078 174.465 64.407C175.039 64.0638 175.497 63.549 175.956 63.1486C176.415 62.691 176.873 62.2334 177.275 61.6614C178.937 59.6594 179.912 57.1426 180.199 54.5114Z" fill="#263238"/>
<path d="M158.985 59.6594C158.985 58.8014 159.559 58.1722 160.361 58.1722C161.221 58.1722 161.737 58.8014 161.737 59.6594C161.737 60.4602 161.164 61.1466 160.361 61.1466C159.559 61.1466 158.985 60.5174 158.985 59.6594ZM159.616 56.2846L159.272 44.959H161.565L161.221 56.2846H159.616Z" fill="#F78310"/>
<path d="M164.432 59.6594C164.432 58.8014 165.005 58.1722 165.808 58.1722C166.668 58.1722 167.184 58.8014 167.184 59.6594C167.184 60.4602 166.611 61.1466 165.808 61.1466C165.005 61.1466 164.432 60.5174 164.432 59.6594ZM165.063 56.2846L164.719 44.959H167.012L166.668 56.2846H165.063Z" fill="#F78310"/>
<path d="M169.936 59.6594C169.936 58.8014 170.509 58.1722 171.312 58.1722C172.172 58.1722 172.688 58.8014 172.688 59.6594C172.688 60.4602 172.115 61.1466 171.312 61.1466C170.452 61.1466 169.936 60.5174 169.936 59.6594ZM170.509 56.2846L170.165 44.959H172.459L172.115 56.2846H170.509Z" fill="#F78310"/>
</svg>
