<svg width="75" height="72" viewBox="0 0 75 72" fill="none" xmlns="http://www.w3.org/2000/svg">
<path d="M55.077 53.7588C64.9737 43.862 64.9737 27.8163 55.077 17.9196C45.1803 8.02287 29.1345 8.02286 19.2378 17.9196C9.34111 27.8163 9.34111 43.862 19.2378 53.7588C29.1345 63.6555 45.1803 63.6555 55.077 53.7588Z" fill="#C7D9E7"/>
<path opacity="0.73" d="M57.8746 41.9308V50.4324C56.939 51.7341 55.8814 52.9545 54.7424 54.0935V41.9308V41.8901C54.7424 41.8087 53.1967 40.5477 52.017 39.6121V39.0833L53.4407 38.7172C54.0102 38.5545 54.6204 38.6358 55.1899 38.8392C55.4339 38.9613 55.678 39.0426 55.9628 39.124V40.2223C57.1017 41.1985 57.8339 41.8494 57.8746 41.9308Z" fill="black"/>
<path d="M1.12878 3.36804L8.57285 20.7782L13.983 17.0765L17.1559 21.6324L17.7254 13.9443L24.2745 9.91719L1.12878 3.36804Z" fill="#FFB031"/>
<path d="M15.2034 16.263L8.57284 20.7782L13.983 17.0765L17.1559 21.6325L17.7254 13.9443L7.23047 7.67992L15.2034 16.263Z" fill="#FF9433"/>
<path d="M17.5627 15.8155L7.23047 7.67992L17.7254 13.9443L17.5627 15.8155Z" fill="#FF7733"/>
<path d="M17.278 23.8291C17.2373 23.5036 17.1559 23.1375 17.0746 22.8121L17.6034 22.6901C17.6848 23.0155 17.7661 23.3816 17.8475 23.7477L17.278 23.8291Z" fill="#F78310"/>
<path d="M11.1356 35.6664C10.3628 35.6257 9.63055 35.3816 9.02038 34.9748L9.30513 34.5274C9.83395 34.8935 10.4848 35.0969 11.1763 35.1375L11.1356 35.6664ZM13.3323 35.2189L13.0882 34.7308C13.617 34.446 14.1865 34.0392 14.6746 33.4697L15.0814 33.8358C14.5119 34.4867 13.9424 34.9342 13.3323 35.2189ZM7.55598 33.2664C7.27123 32.6562 7.10852 32.0053 7.10852 31.3545C7.10852 31.3138 7.10852 31.2325 7.10852 31.1918V31.0697L7.63734 31.1104V31.1918C7.63734 31.2325 7.63734 31.2731 7.63734 31.3138C7.63734 31.8833 7.75937 32.4528 8.04411 32.9816L7.55598 33.2664ZM27.9356 33.1443V32.6155C28.6272 32.6155 29.3187 32.5748 30.0509 32.5342L30.0916 33.063C29.3594 33.1443 28.6272 33.1443 27.9356 33.1443ZM25.8204 33.1036L25.495 33.063C24.8441 33.0223 24.2746 32.9409 23.7051 32.8189L23.7865 32.2901C24.3153 32.3714 24.8848 32.4528 25.5356 32.4935L25.8611 32.5342L25.8204 33.1036ZM32.2068 32.8596L32.1255 32.3308C32.817 32.2494 33.5085 32.1274 34.2 32.0053L34.2814 32.5342C33.5899 32.6562 32.8983 32.7375 32.2068 32.8596ZM21.5899 32.3308C20.9797 32.1274 20.3695 31.8426 19.8814 31.5579C19.8 31.5172 19.7187 31.4765 19.6373 31.3952L19.9221 30.9477C20.0034 30.9884 20.0848 31.0291 20.1661 31.0697C20.6543 31.3545 21.2238 31.5986 21.7933 31.8019L21.5899 32.3308ZM16.3017 32.0867L15.8543 31.8426C16.1797 31.2325 16.5051 30.6223 16.7085 29.9714L17.1967 30.1342C16.9933 30.8257 16.6678 31.4765 16.3017 32.0867ZM36.3967 32.046L36.2746 31.5172C36.9255 31.3545 37.617 31.1918 38.3085 30.9884L38.4712 31.4765C37.7797 31.7206 37.0882 31.8833 36.3967 32.046ZM40.5051 30.8664L40.3424 30.3782C40.9933 30.1748 41.6848 29.9308 42.3356 29.6867L42.4984 30.1748C41.8475 30.4189 41.1967 30.663 40.5051 30.8664ZM17.8475 30.1748C17.3594 29.8087 16.8306 29.4426 16.2611 29.1579L16.0984 29.0765L16.3424 28.5884C16.4238 28.6291 16.4645 28.6697 16.5458 28.6697C17.156 28.9952 17.6848 29.4019 18.1729 29.7274L17.8475 30.1748ZM8.36954 29.4019L8.00343 29.0358C8.45089 28.5884 9.10174 28.2223 9.95598 27.9782L10.1187 28.4664C9.34581 28.7104 8.73564 28.9952 8.36954 29.4019ZM14.1865 28.3443C13.5763 28.2223 12.9662 28.1409 12.356 28.1409H12.1526V27.6121C12.8848 27.6121 13.617 27.6528 14.3085 27.8155L14.1865 28.3443ZM17.7661 28.0596L17.2373 27.9782C17.3594 27.2867 17.4407 26.5952 17.4407 25.9036H17.9695C17.9695 26.5952 17.8882 27.3274 17.7661 28.0596Z" fill="#F78310"/>
<path d="M44.5322 29.4426L44.3289 28.9545C44.6543 28.8325 44.9797 28.7104 45.3051 28.5884L45.5085 29.0765C45.1831 29.1986 44.8577 29.3206 44.5322 29.4426Z" fill="black"/>
<path d="M61.1288 42.2969C60.8441 42.2969 60.6407 42.0935 60.6 41.8087C60.5593 41.524 60.8034 41.2799 61.0881 41.2393C64.261 40.9138 67.1898 39.4087 69.3458 36.9681C69.5492 36.7647 69.8746 36.724 70.078 36.9274C70.2814 37.1308 70.322 37.4562 70.1186 37.6596C67.8 40.3037 64.6271 41.9715 61.1695 42.2969C61.1695 42.2969 61.1695 42.2969 61.1288 42.2969Z" fill="black"/>
<path d="M54.7017 41.9308L36.3559 52.7918L17.9695 41.9714V41.9308C17.9695 41.8494 18.9864 40.9952 20.5322 39.7748L20.5729 39.7341C25.6576 35.6257 36.3152 27.1647 36.3152 27.1647C36.3152 27.1647 47.0136 35.585 52.0576 39.7341C53.6441 40.9545 54.7017 41.8494 54.7017 41.9308Z" fill="#7A4C08"/>
<path d="M43.8814 18.1748H24.0713C22.3628 18.1748 20.9797 19.5579 20.9797 21.2663V51.246C20.9797 52.9545 22.3628 54.3375 24.0713 54.3375H48.9255C50.634 54.3375 52.017 52.9545 52.017 51.246V26.2697L43.8814 18.1748Z" fill="white"/>
<path d="M43.8814 23.1782C43.8814 24.8867 45.2645 26.2697 46.9729 26.2697H51.9763L43.8814 18.1748V23.1782Z" fill="#E6E8E8"/>
<path d="M33.6306 23.2189H26.756C26.1458 23.2189 25.6577 23.707 25.6577 24.3172V31.1511C25.6577 31.7613 26.1458 32.2494 26.756 32.2494H33.5899C34.2001 32.2494 34.6882 31.7613 34.6882 31.1511V24.3172C34.7289 23.707 34.2001 23.2189 33.6306 23.2189Z" fill="#467CA7"/>
<path d="M42.9865 34.7714H26.5526C26.0645 34.7714 25.6577 35.1782 25.6577 35.6664C25.6577 36.1545 26.0645 36.5613 26.5526 36.5613H42.9865C43.4747 36.5613 43.8814 36.1545 43.8814 35.6664C43.8814 35.1782 43.4747 34.7714 42.9865 34.7714Z" fill="#D9DBDB"/>
<path d="M42.9865 39.1647H26.5526C26.0645 39.1647 25.6577 39.5714 25.6577 40.0596C25.6577 40.5477 26.0645 40.9545 26.5526 40.9545H42.9865C43.4747 40.9545 43.8814 40.5477 43.8814 40.0596C43.8814 39.5714 43.4747 39.1647 42.9865 39.1647Z" fill="#D9DBDB"/>
<path d="M35.5424 43.4358H26.5933C26.1051 43.4358 25.6984 43.8426 25.6984 44.3308C25.6984 44.8189 26.1051 45.2257 26.5933 45.2257H35.5424C36.0306 45.2257 36.4374 44.8189 36.4374 44.3308C36.3967 43.8426 36.0306 43.4358 35.5424 43.4358Z" fill="#D9DBDB"/>
<path d="M54.7017 41.9308V59.5443C54.7017 60.7647 53.6848 61.7816 52.4644 61.7816H20.1661C18.9458 61.7816 17.9288 60.7647 17.9288 59.5443V41.9308L36.3153 52.7511L54.7017 41.9308Z" fill="#FFB031"/>
<path d="M54.0916 61.0901L42.2543 49.2528L36.3153 52.7511L30.3763 49.2528L18.5391 61.0901C18.9458 61.5375 19.5153 61.7816 20.1662 61.7816H52.4645C53.1153 61.8223 53.6848 61.5375 54.0916 61.0901Z" fill="#FF9433"/>
<path d="M58.444 17.7274C53.1559 18.2562 48.9254 22.6087 48.5593 27.8969C48.3559 30.5409 49.1288 32.9816 50.5118 34.9748C51.0407 35.707 51.122 36.6833 50.7559 37.5376L49.9017 39.6528L53.4813 38.7172C54.0508 38.5545 54.661 38.5952 55.2305 38.8392C56.8983 39.5715 58.7288 39.8969 60.722 39.6935C65.9288 39.2054 70.1186 35.0155 70.6068 29.8087C71.2169 22.8528 65.4 17.0359 58.444 17.7274Z" fill="#92B5D2"/>
<path d="M59.8271 34.2833L60.4373 33.6731C60.4373 33.6731 59.9491 32.5342 61.983 30.6223C63.2034 29.4833 63.4474 28.385 63.3661 27.4901C63.2034 26.0664 62.0237 24.8867 60.6 24.724C59.7051 24.6426 58.6068 24.8867 57.4678 26.107C55.5559 28.1409 54.4169 27.6528 54.4169 27.6528L53.8068 28.263L59.8271 34.2833Z" fill="white"/>
<path d="M55.1491 30.5816C54.661 31.2325 54.7424 32.168 55.3119 32.7375C55.922 33.3477 56.8169 33.3884 57.4678 32.9003L55.1491 30.5816Z" fill="white"/>
<path d="M63.7729 25.4562L63.4068 25.8223C63.122 25.3748 62.7152 24.968 62.2271 24.6833L62.5932 24.3172C62.9186 23.9918 63.4474 23.9918 63.7729 24.3172C64.0983 24.6019 64.0983 25.1308 63.7729 25.4562Z" fill="white"/>
<path d="M59.2576 17.6867C63.2034 18.8664 66.0508 22.4867 66.0508 26.8392C66.0508 32.1274 61.7797 36.3986 56.4915 36.3986C53.7254 36.3986 51.2441 35.2189 49.4949 33.307C49.7796 33.9172 50.1051 34.4867 50.4712 35.0155C51 35.7477 51.0813 36.724 50.7152 37.5782L49.861 39.6935L53.4407 38.7579C54.0102 38.5952 54.6203 38.6358 55.1898 38.8799C56.8576 39.6121 58.6881 39.9375 60.6813 39.7341C65.8881 39.246 70.078 35.0562 70.5661 29.8494C71.1763 23.1375 65.8474 17.524 59.2576 17.6867Z" fill="#467CA7"/>
<path d="M1.77968 8.53414L4.17968 14.0663C4.30172 14.3511 4.17968 14.6765 3.89494 14.7985L3.81358 14.8392C3.52884 14.9613 3.20341 14.8392 3.08138 14.5545L0.762736 8.9816C0.640702 8.69685 0.803409 8.37143 1.08815 8.24939C1.33222 8.12736 1.65765 8.24939 1.77968 8.53414Z" fill="#FFB031"/>
<path d="M11.217 47.463C10.2407 47.463 9.42712 48.2765 9.42712 49.2528C9.42712 50.2291 10.2407 51.0426 11.217 51.0426C12.1932 51.0426 13.0068 50.2291 13.0068 49.2528C13.0068 48.2765 12.1932 47.463 11.217 47.463ZM11.217 49.9443C10.8102 49.9443 10.4848 49.6189 10.4848 49.2121C10.4848 48.8053 10.8102 48.4799 11.217 48.4799C11.6237 48.4799 11.9492 48.8053 11.9492 49.2121C11.9085 49.6189 11.5831 49.9443 11.217 49.9443Z" fill="#F78310"/>
<path d="M58.6881 54.6223C57.7119 54.6223 56.8983 55.4358 56.8983 56.4121C56.8983 57.3884 57.7119 58.2019 58.6881 58.2019C59.6644 58.2019 60.478 57.3884 60.478 56.4121C60.478 55.4358 59.6644 54.6223 58.6881 54.6223ZM58.6881 57.1036C58.2814 57.1036 57.9559 56.7782 57.9559 56.3714C57.9559 55.9647 58.2814 55.6392 58.6881 55.6392C59.0949 55.6392 59.4203 55.9647 59.4203 56.3714C59.4203 56.7782 59.0949 57.1036 58.6881 57.1036Z" fill="#F78310"/>
<path d="M73.2101 27.0833C72.4779 27.0833 71.8678 27.6935 71.8678 28.4257C71.8678 29.1579 72.4779 29.768 73.2101 29.768C73.9424 29.768 74.5525 29.1579 74.5525 28.4257C74.5525 27.6935 73.9424 27.0833 73.2101 27.0833ZM73.2101 28.9952C72.9254 28.9952 72.6406 28.7511 72.6406 28.4257C72.6406 28.1409 72.8847 27.8562 73.2101 27.8562C73.4949 27.8562 73.7796 28.1002 73.7796 28.4257C73.739 28.7511 73.4949 28.9952 73.2101 28.9952Z" fill="#F78310"/>
<path d="M49.2915 5.40195C48.5186 5.40195 47.8678 6.05279 47.8678 6.82568C47.8678 7.59856 48.5186 8.2494 49.2915 8.2494C50.0644 8.2494 50.7153 7.59856 50.7153 6.82568C50.7559 6.05279 50.1051 5.40195 49.2915 5.40195ZM49.2915 7.39517C48.9661 7.39517 48.722 7.1511 48.722 6.82568C48.722 6.50025 48.9661 6.25618 49.2915 6.25618C49.617 6.25618 49.861 6.50025 49.861 6.82568C49.9017 7.1511 49.617 7.39517 49.2915 7.39517Z" fill="#F78310"/>
<path d="M3.40682 38.8392C2.59326 38.8392 1.90173 39.5308 1.90173 40.3443C1.90173 41.1579 2.59326 41.8494 3.40682 41.8494C4.22038 41.8494 4.91191 41.1579 4.91191 40.3443C4.91191 39.4901 4.26106 38.8392 3.40682 38.8392Z" fill="#F78310"/>
<path d="M63.9356 43.8019C63.3254 43.8019 62.8373 44.2901 62.8373 44.9003C62.8373 45.5104 63.3254 45.9986 63.9356 45.9986C64.5458 45.9986 65.0339 45.5104 65.0339 44.9003C65.0339 44.2901 64.5458 43.8019 63.9356 43.8019Z" fill="#F78310"/>
<path d="M27.6101 5.8494C26.7152 5.8494 26.0237 6.5816 26.0237 7.43584C26.0237 8.29007 26.7559 9.02228 27.6101 9.02228C28.4644 9.02228 29.1966 8.29007 29.1966 7.43584C29.1966 6.5816 28.4644 5.8494 27.6101 5.8494Z" fill="#F78310"/>
<path d="M36.1932 63.9375C35.5424 63.9375 35.0135 64.4663 35.0135 65.1172C35.0135 65.768 35.5424 66.2968 36.1932 66.2968C36.8441 66.2968 37.3729 65.768 37.3729 65.1172C37.3322 64.4663 36.8441 63.9375 36.1932 63.9375Z" fill="#F78310"/>
<path d="M58.8102 12.0324C58.0373 12.0324 57.4271 12.6426 57.4271 13.4155C57.4271 14.1884 58.0373 14.7985 58.8102 14.7985C59.5831 14.7985 60.1932 14.1884 60.1932 13.4155C60.1526 12.6426 59.5424 12.0324 58.8102 12.0324Z" fill="#F78310"/>
<path d="M10.2407 24.2358C10.6675 24.2358 11.0135 23.8898 11.0135 23.463C11.0135 23.0361 10.6675 22.6901 10.2407 22.6901C9.8138 22.6901 9.46777 23.0361 9.46777 23.463C9.46777 23.8898 9.8138 24.2358 10.2407 24.2358Z" fill="#F78310"/>
<path d="M73.6576 20.2494C72.9254 20.2494 72.3152 20.8596 72.3152 21.5918C72.3152 22.324 72.9254 22.9342 73.6576 22.9342C74.3898 22.9342 75 22.324 75 21.5918C75 20.8596 74.3898 20.2494 73.6576 20.2494Z" fill="#F78310"/>
<path d="M2.67455 28.9952C3.14633 28.9952 3.52879 28.6127 3.52879 28.1409C3.52879 27.6691 3.14633 27.2867 2.67455 27.2867C2.20277 27.2867 1.82031 27.6691 1.82031 28.1409C1.82031 28.6127 2.20277 28.9952 2.67455 28.9952Z" fill="#F78310"/>
<path d="M38.3899 3.00194L38.9187 2.47313C39.122 2.26974 39.122 1.98499 38.9187 1.7816C38.7153 1.57821 38.4305 1.57821 38.2271 1.7816L37.6983 2.31042L37.1695 1.7816C36.9661 1.57821 36.6814 1.57821 36.478 1.7816C36.2746 1.98499 36.2746 2.26974 36.478 2.47313L37.0068 3.00194L36.478 3.53076C36.2746 3.73414 36.2746 4.01889 36.478 4.22228C36.6814 4.42567 36.9661 4.42567 37.1695 4.22228L37.6983 3.69347L38.2271 4.22228C38.4305 4.42567 38.7153 4.42567 38.9187 4.22228C39.122 4.01889 39.122 3.73414 38.9187 3.53076L38.3899 3.00194Z" fill="#F78310"/>
<path d="M2.06441 19.1104L2.59322 18.5816C2.79661 18.3782 2.79661 18.0935 2.59322 17.8901C2.38983 17.6867 2.10508 17.6867 1.90169 17.8901L1.37288 18.4189L0.844067 17.8901C0.640677 17.6867 0.355932 17.6867 0.152542 17.8901C-0.0508475 18.0935 -0.0508475 18.3782 0.152542 18.5816L0.681351 19.1104L0.152542 19.6392C-0.0508475 19.8426 -0.0508475 20.1274 0.152542 20.3308C0.355932 20.5341 0.640677 20.5341 0.844067 20.3308L1.37288 19.8019L1.90169 20.3308C2.10508 20.5341 2.38983 20.5341 2.59322 20.3308C2.79661 20.1274 2.79661 19.8426 2.59322 19.6392L2.06441 19.1104Z" fill="#F78310"/>
<path d="M64.9932 51.6935L65.4407 51.246C65.6034 51.0833 65.6034 50.8392 65.4407 50.6765C65.278 50.5138 65.0339 50.5138 64.8712 50.6765L64.4237 51.124L63.9763 50.6765C63.8136 50.5138 63.5695 50.5138 63.4068 50.6765C63.2441 50.8392 63.2441 51.0833 63.4068 51.246L63.8543 51.6935L63.4068 52.1409C63.2441 52.3036 63.2441 52.5477 63.4068 52.7104C63.5695 52.8731 63.8136 52.8731 63.9763 52.7104L64.4237 52.2629L64.8712 52.7104C65.0339 52.8731 65.278 52.8731 65.4407 52.7104C65.6034 52.5477 65.6034 52.3036 65.4407 52.1409L64.9932 51.6935Z" fill="#F78310"/>
</svg>
