<svg width="54" height="40" viewBox="0 0 54 40" fill="none" xmlns="http://www.w3.org/2000/svg">
<path d="M12.1672 40V18.93L0 9.582V35.5486C0 38.5162 1.4838 40 4.45141 40" fill="#4285F4"/>
<path d="M11.5737 18.7816L26.7085 30.2069L41.8433 18.7816V4.2403L26.7085 15.6656L11.5737 4.2403" fill="#EA4335"/>
<path d="M41.2498 40V18.93L53.417 9.582V35.5486C53.417 38.5162 51.9332 40 48.9655 40" fill="#34A853"/>
<path d="M0 9.87877L12.1672 19.2267V4.68545L7.71578 1.2727C3.70951 -1.84329 0 1.2727 0 5.13059" fill="#C5221F"/>
<path d="M53.417 9.87877L41.2498 19.2267V4.68545L45.7012 1.2727C49.7074 -1.84329 53.417 1.2727 53.417 5.13059" fill="#FBBC04"/>
</svg>
