<svg width="33" height="33" viewBox="0 0 33 33" fill="none" xmlns="http://www.w3.org/2000/svg">
<path d="M25.1855 7.81494H7.81543V25.1851H25.1855V7.81494Z" fill="white"/>
<path d="M25.1855 33L33.0005 25.1851H25.1855V33Z" fill="#F72A25"/>
<path d="M33.0005 7.81494H25.1855V25.1851H33.0005V7.81494Z" fill="#FBBC04"/>
<path d="M25.1855 25.1851H7.81543V33H25.1855V25.1851Z" fill="#34A853"/>
<path d="M0 25.1851V30.395C0 31.8345 1.16553 33 2.60498 33H7.81494V25.1851H0Z" fill="#188038"/>
<path d="M33.0005 7.81494V2.60498C33.0005 1.16553 31.835 0 30.3955 0H25.1855V7.81494H33.0005Z" fill="#1967D2"/>
<path d="M25.1851 0H2.60498C1.16553 0 0 1.16553 0 2.60498V25.1851H7.81494V7.81494H25.1824V0H25.1851Z" fill="#4285F4"/>
<path d="M11.3789 21.2883C10.729 20.8506 10.2805 20.2087 10.0361 19.3628L11.5427 18.7424C11.6797 19.2634 11.9187 19.6663 12.2598 19.9536C12.5981 20.241 13.0117 20.3806 13.4924 20.3806C13.9866 20.3806 14.4082 20.2302 14.7627 19.9321C15.1172 19.6313 15.2944 19.25 15.2944 18.7881C15.2944 18.3154 15.1064 17.9287 14.7332 17.6279C14.3599 17.3271 13.8899 17.1794 13.3313 17.1794H12.4612V15.689H13.2427C13.7234 15.689 14.1316 15.5601 14.4619 15.2969C14.7922 15.0364 14.9561 14.6792 14.9561 14.2253C14.9561 13.8225 14.8084 13.5002 14.5129 13.2585C14.2175 13.0168 13.8442 12.896 13.3904 12.896C12.9473 12.896 12.5955 13.0142 12.335 13.2505C12.0745 13.4868 11.8784 13.7876 11.7656 14.1206L10.2751 13.5002C10.4739 12.939 10.8364 12.4448 11.3682 12.0178C11.8999 11.5908 12.5793 11.376 13.4038 11.376C14.0134 11.376 14.564 11.4941 15.05 11.7305C15.5361 11.9668 15.9175 12.2944 16.1941 12.7107C16.4707 13.1296 16.6077 13.5996 16.6077 14.1206C16.6077 14.6523 16.4788 15.1008 16.2236 15.4714C15.9685 15.8394 15.6516 16.124 15.2783 16.3201V16.4087C15.759 16.6074 16.1807 16.9351 16.4895 17.354C16.8037 17.7783 16.9622 18.2832 16.9622 18.874C16.9622 19.4648 16.8118 19.9912 16.5137 20.4531C16.2129 20.915 15.7993 21.2803 15.2729 21.5461C14.7466 21.812 14.1531 21.9463 13.4951 21.9463C12.7324 21.9463 12.0288 21.7288 11.3789 21.2883ZM20.6333 13.8118L18.979 15.0068L18.1519 13.7527L21.1194 11.6123H22.2581V21.71H20.6333V13.8118Z" fill="#1A73E8"/>
</svg>
