<svg width="54" height="49" viewBox="0 0 54 49" fill="none" xmlns="http://www.w3.org/2000/svg">
<path d="M53.4695 23.9652L43.8008 18.333V33.9849H54V24.8886C54 24.5093 53.7975 24.1569 53.4695 23.9652Z" fill="#1A237E"/>
<path d="M40.3907 3.834H52.6028V2.3382C52.6028 1.04625 51.5566 0 50.266 0H18.4505C17.1599 0 16.1123 1.04625 16.1123 2.3382V3.834H28.2691H40.3907Z" fill="#0C4999"/>
<path d="M40.3906 37.1547H50.2645C51.5551 37.1547 52.6027 36.1084 52.6027 34.8165V25.6H40.3906V37.1547Z" fill="#0F73D9"/>
<path d="M16.1138 25.6014V34.8179C16.1138 36.1085 17.16 37.1561 18.452 37.1561H28.2705V25.6028H16.1138V25.6014Z" fill="#0F439D"/>
<path d="M40.3906 3.83398H52.6027V14.6704H40.3906V3.83398Z" fill="#2ECDFD"/>
<path d="M16.1138 3.83398H28.2705V14.6704H16.1138V3.83398Z" fill="#1C5FB0"/>
<path d="M28.269 25.6014H40.3907V37.1547H28.269V25.6014Z" fill="#1467C7"/>
<path d="M28.269 3.83398H40.3907V14.6704H28.269V3.83398Z" fill="#1690D5"/>
<path d="M40.3906 14.6705H52.6027V25.6001H40.3906V14.6705Z" fill="#1BB4FF"/>
<path d="M16.1138 14.6705H28.2705V25.6001H16.1138V14.6705Z" fill="#074DAF"/>
<path d="M28.269 14.6705H40.3907V25.6001H28.269V14.6705Z" fill="#2076D4"/>
<path d="M15.4453 48.6C16.0704 48.6 51.7198 48.6 51.7198 48.6C52.9794 48.6 54 47.5794 54 46.3199V24.8913C54 24.8913 53.9595 25.7796 51.6361 27.0742C49.8811 28.0516 14.5044 48.0141 14.5044 48.0141C14.5044 48.0141 14.8203 48.6 15.4453 48.6Z" fill="#2ED0FF"/>
<path d="M51.6767 48.596C51.4593 48.596 15.7802 48.6 15.7802 48.6C14.5206 48.6 13.5 47.5794 13.5 46.3199V25.7404L53.14 48.0992C52.8093 48.3638 52.3895 48.596 51.6767 48.596Z" fill="#139FE2"/>
<path d="M24.7306 37.8H2.26935C1.01655 37.8 0 36.7834 0 35.5306V13.0693C0 11.8165 1.01655 10.8 2.26935 10.8H24.7306C25.9834 10.8 27 11.8165 27 13.0693V35.5306C27 36.7834 25.9834 37.8 24.7306 37.8Z" fill="#00488D"/>
<path d="M13.384 17.1909C9.15718 17.1909 6.61108 20.4201 6.61108 24.404C6.61108 28.3878 9.14773 31.6157 13.384 31.6157C17.6217 31.6157 20.157 28.3865 20.157 24.404C20.157 20.4201 17.6109 17.1909 13.384 17.1909ZM13.384 29.1816C10.9864 29.1816 9.55273 27.0432 9.55273 24.404C9.55273 21.7647 10.9932 19.6263 13.384 19.6263C15.7749 19.6263 17.2167 21.7661 17.2167 24.404C17.2167 27.0419 15.7803 29.1816 13.384 29.1816Z" fill="white"/>
</svg>
