<svg width="48" height="39" viewBox="0 0 48 39" fill="none" xmlns="http://www.w3.org/2000/svg">
<path d="M0.162552 3.6124L21.4644 25.2471C22.7824 26.5858 24.8683 26.6694 26.2821 25.4981L26.5555 25.2471L47.8416 3.62849C47.9106 3.89375 47.958 4.16785 47.9819 4.44876L48 4.875V34.125C48 36.6951 46.042 38.8005 43.5582 38.9866L43.2 39H4.8C2.26953 39 0.196404 37.0114 0.0131659 34.4888L0 34.125V4.875C0 4.5839 0.0251199 4.29875 0.0732834 4.02168L0.162552 3.6124ZM43.2 0C43.4906 0 43.775 0.0262057 44.0513 0.0764218L44.4593 0.169479L24.0101 20.9381L3.55658 0.165165C3.82097 0.09334 4.09434 0.0438752 4.37464 0.0188791L4.8 0H43.2Z" fill="#1776BA"/>
</svg>
