<svg width="24" height="24" viewBox="0 0 24 24" fill="none" xmlns="http://www.w3.org/2000/svg">
<path d="M17.0633 0.83252C18.9193 0.83252 20.4343 1.48122 21.4865 2.58251C22.5407 3.68581 23.1666 5.28196 23.1666 7.23919V16.772C23.1666 18.723 22.5409 20.316 21.4868 21.4176C20.4346 22.5174 18.9194 23.1659 17.0633 23.1659H6.94825C5.09206 23.1659 3.57369 22.5173 2.51846 21.4172C1.46149 20.3153 0.833252 18.7224 0.833252 16.772V7.23919C0.833252 5.28257 1.46172 3.68649 2.51871 2.58296C3.57391 1.48131 5.09214 0.83252 6.94825 0.83252H17.0633ZM11.9883 9.72702C11.1451 9.72702 10.4733 10.4235 10.4733 11.2537V16.4104C10.4733 17.2465 11.1521 17.9254 11.9883 17.9254C12.8323 17.9254 13.5149 17.2502 13.5149 16.4104V11.2537C13.5149 10.4197 12.8394 9.72702 11.9883 9.72702ZM12.0116 6.02869C11.1638 6.02869 10.4849 6.70754 10.4849 7.55535C10.4849 8.38619 11.1597 9.07035 11.9883 9.07035C12.8407 9.07035 13.5266 8.39735 13.5266 7.55535C13.5266 6.71128 12.8514 6.02869 12.0116 6.02869Z" stroke="black"/>
</svg>
