<svg width="23" height="24" viewBox="0 0 23 24" fill="none" xmlns="http://www.w3.org/2000/svg">
<path fill-rule="evenodd" clip-rule="evenodd" d="M19.708 12.1943C19.708 11.588 19.6536 11.0051 19.5525 10.4454H11.5V13.7527H16.1015C15.9032 14.8215 15.3009 15.727 14.3953 16.3333V18.4785H17.1585C18.7753 16.9901 19.708 14.7982 19.708 12.1943Z" fill="#4285F4"/>
<path fill-rule="evenodd" clip-rule="evenodd" d="M11.5 20.55C13.8085 20.55 15.7439 19.7843 17.1585 18.4785L14.3953 16.3332C13.6297 16.8462 12.6503 17.1494 11.5 17.1494C9.27308 17.1494 7.38819 15.6454 6.71585 13.6245H3.85938V15.8397C5.26624 18.634 8.15769 20.55 11.5 20.55Z" fill="#34A853"/>
<path fill-rule="evenodd" clip-rule="evenodd" d="M6.71584 13.6245C6.54484 13.1115 6.44768 12.5635 6.44768 12C6.44768 11.4365 6.54484 10.8885 6.71584 10.3755V8.16028H3.85936C3.28029 9.31453 2.94995 10.6203 2.94995 12C2.94995 13.3797 3.28029 14.6855 3.85936 15.8397L6.71584 13.6245Z" fill="#FBBC05"/>
<path fill-rule="evenodd" clip-rule="evenodd" d="M11.5 6.85052C12.7553 6.85052 13.8823 7.28191 14.7684 8.12913L17.2207 5.67684C15.74 4.29718 13.8046 3.44995 11.5 3.44995C8.15769 3.44995 5.26624 5.36593 3.85938 8.16022L6.71585 10.3755C7.38819 8.35454 9.27308 6.85052 11.5 6.85052Z" fill="#EA4335"/>
</svg>
