<svg width="512" height="512" viewBox="0 0 512 512" fill="none" xmlns="http://www.w3.org/2000/svg">
<path d="M462 136.976V238.983L432.683 255.952L462 272.922V374.928L432.683 391.898L403.304 408.931L373.925 425.9L344.608 442.933L315.229 459.902L285.85 476.935L256.533 493.905L227.154 476.935L197.775 459.902L227.154 442.933L285.85 408.931L315.229 391.898L344.608 374.928L373.925 357.959L403.304 340.926V306.924L373.925 289.954L344.608 272.922L315.229 255.952L344.608 238.983L373.925 221.95L403.304 204.981V170.978L373.925 153.946L344.608 136.976L315.229 120.007L285.85 102.974L256.533 86.0044L227.154 68.9717L197.775 52.0022L227.154 34.9696L256.533 18L285.85 34.9696L315.229 52.0022L344.608 68.9717L373.925 86.0044L403.304 102.974L432.683 120.007L462 136.976Z" fill="#00AA45"/>
<path d="M285.846 306.924L315.225 323.957L285.846 340.926L256.529 357.959L227.15 374.929L197.771 391.898L168.454 408.931L139.075 425.9L109.696 408.931L80.3793 391.898L51 374.929V136.976L80.3793 120.007L109.696 102.974L139.075 86.0045L168.454 102.974L197.771 120.007L168.454 136.976L139.075 153.946L109.696 170.978V238.983L139.075 221.95L168.454 204.981L197.771 187.948L227.15 170.978L256.529 153.946L285.846 170.978L315.225 187.948L285.846 204.981L256.529 221.95L227.15 238.983L197.771 255.952L168.454 272.922L139.075 289.955L109.696 306.924V340.926L139.075 357.959L168.454 340.926L197.771 323.957L227.15 306.924L256.529 289.955L285.846 306.924Z" fill="#00AA45"/>
</svg>
