<svg fill="#000000" height="28px" width="28px" version="1.1" id="Layer_1" xmlns="http://www.w3.org/2000/svg" xmlns:xlink="http://www.w3.org/1999/xlink" viewBox="0 0 512 512" xml:space="preserve"><g id="SVGRepo_bgCarrier" stroke-width="0"></g><g id="SVGRepo_tracerCarrier" stroke-linecap="round" stroke-linejoin="round"></g><g id="SVGRepo_iconCarrier"> <g> <g> <path d="M76.8,443.733c-23.893,0-42.667,18.773-42.667,42.667v17.067c0,5.12,3.413,8.533,8.533,8.533h68.267 c5.12,0,8.533-3.413,8.533-8.533V486.4C119.467,462.507,100.693,443.733,76.8,443.733z M102.4,494.933H51.2V486.4 c0-14.507,11.093-25.6,25.6-25.6s25.6,11.093,25.6,25.6V494.933z"></path> </g> </g> <g> <g> <path d="M76.8,358.4c-18.773,0-34.133,15.36-34.133,34.133c0,18.773,15.36,34.133,34.133,34.133s34.133-15.36,34.133-34.133 C110.933,373.76,95.573,358.4,76.8,358.4z M76.8,409.6c-9.387,0-17.067-7.68-17.067-17.067c0-9.387,7.68-17.067,17.067-17.067 s17.067,7.68,17.067,17.067C93.867,401.92,86.187,409.6,76.8,409.6z"></path> </g> </g> <g> <g> <path d="M256,443.733c-23.893,0-42.667,18.773-42.667,42.667v17.067c0,5.12,3.413,8.533,8.533,8.533h68.267 c5.12,0,8.533-3.413,8.533-8.533V486.4C298.667,462.507,279.893,443.733,256,443.733z M281.6,494.933h-51.2V486.4 c0-14.507,11.093-25.6,25.6-25.6c14.507,0,25.6,11.093,25.6,25.6V494.933z"></path> </g> </g> <g> <g> <path d="M256,358.4c-18.773,0-34.133,15.36-34.133,34.133c0,18.773,15.36,34.133,34.133,34.133 c18.773,0,34.133-15.36,34.133-34.133C290.133,373.76,274.773,358.4,256,358.4z M256,409.6c-9.387,0-17.067-7.68-17.067-17.067 c0-9.387,7.68-17.067,17.067-17.067c9.387,0,17.067,7.68,17.067,17.067C273.067,401.92,265.387,409.6,256,409.6z"></path> </g> </g> <g> <g> <path d="M435.2,443.733c-23.893,0-42.667,18.773-42.667,42.667v17.067c0,5.12,3.413,8.533,8.533,8.533h68.267 c5.12,0,8.533-3.413,8.533-8.533V486.4C477.867,462.507,459.093,443.733,435.2,443.733z M460.8,494.933h-51.2V486.4 c0-14.507,11.093-25.6,25.6-25.6s25.6,11.093,25.6,25.6V494.933z"></path> </g> </g> <g> <g> <path d="M435.2,358.4c-18.773,0-34.133,15.36-34.133,34.133c0,18.773,15.36,34.133,34.133,34.133 c18.773,0,34.133-15.36,34.133-34.133C469.333,373.76,453.973,358.4,435.2,358.4z M435.2,409.6 c-9.387,0-17.067-7.68-17.067-17.067c0-9.387,7.68-17.067,17.067-17.067s17.067,7.68,17.067,17.067 C452.267,401.92,444.587,409.6,435.2,409.6z"></path> </g> </g> <g> <g> <path d="M76.8,290.133c-5.12,0-8.533,3.413-8.533,8.533V332.8c0,5.12,3.413,8.533,8.533,8.533s8.533-3.413,8.533-8.533v-34.133 C85.333,293.547,81.92,290.133,76.8,290.133z"></path> </g> </g> <g> <g> <path d="M435.2,290.133c-5.12,0-8.533,3.413-8.533,8.533V332.8c0,5.12,3.413,8.533,8.533,8.533s8.533-3.413,8.533-8.533v-34.133 C443.733,293.547,440.32,290.133,435.2,290.133z"></path> </g> </g> <g> <g> <path d="M435.2,290.133H76.8c-5.12,0-8.533,3.413-8.533,8.533S71.68,307.2,76.8,307.2h358.4c5.12,0,8.533-3.413,8.533-8.533 S440.32,290.133,435.2,290.133z"></path> </g> </g> <g> <g> <path d="M256,221.867c-5.12,0-8.533,3.413-8.533,8.533v102.4c0,5.12,3.413,8.533,8.533,8.533c5.12,0,8.533-3.413,8.533-8.533 V230.4C264.533,225.28,261.12,221.867,256,221.867z"></path> </g> </g> <g> <g> <path d="M256,0c-65.707,0-119.467,53.76-119.467,119.467S190.293,238.933,256,238.933s119.467-53.76,119.467-119.467 S321.707,0,256,0z M256,221.867c-56.32,0-102.4-46.08-102.4-102.4s46.08-102.4,102.4-102.4s102.4,46.08,102.4,102.4 S312.32,221.867,256,221.867z"></path> </g> </g> <g> <g> <path d="M326.827,203.093c-2.56-1.707-5.12-3.413-7.68-5.12l-31.573-16.213c-0.853-0.853-1.707-1.707-1.707-3.413 c0,0,0-11.093,0.853-11.093c4.267-5.973,7.68-11.947,10.24-18.773c5.12-3.413,8.533-9.387,8.533-15.36v-13.653 c0-4.267-0.853-7.68-3.413-10.24V93.013c0.853-5.973-0.853-12.8-4.267-19.627c-6.827-11.947-20.48-19.627-40.96-19.627 c-20.48,0-34.133,6.827-40.96,19.627c-3.413,6.827-4.267,13.653-4.267,18.773v16.213c-2.56,3.413-3.413,6.827-3.413,10.24v13.653 c0,5.12,1.707,10.24,5.973,13.653c1.707,5.12,3.413,9.387,5.12,13.653s4.267,6.827,5.973,9.387v9.387 c0,1.707-0.853,2.56-1.707,3.413l-29.867,16.213c-2.56,1.707-5.12,3.413-7.68,5.12l-7.68,6.827l8.533,5.973 c19.627,15.36,43.52,23.04,69.12,23.04c25.6,0,49.493-7.68,69.973-23.04l7.68-6.827L326.827,203.093z M256,221.867 c-17.067,0-34.133-4.267-48.64-12.8l23.04-12.8c6.827-3.413,11.093-10.24,11.093-17.92v-15.36c0,0-6.827-9.387-8.533-11.947 c-1.707-4.267-3.413-8.533-4.267-12.8l-0.853-3.413l-3.413-2.56v-12.8l3.413-3.413v-23.04V92.16c0-2.56-1.707-20.48,29.013-20.48 c14.507,0,23.04,4.267,26.453,10.24c1.707,3.413,2.56,6.827,2.56,9.387v0.853v23.04l2.56,2.56l0.853,0.853v13.653 c-0.853,0.853-5.12,3.413-5.12,3.413l-2.56,3.413c-1.707,6.827-5.12,12.8-8.533,17.92c-0.853,1.707-1.707,2.56-2.56,3.413 l-2.56,2.56v15.36c0,7.68,4.267,15.36,11.093,18.773l24.747,12.8C289.28,217.6,273.067,221.867,256,221.867z"></path> </g> </g> </g></svg>