<svg width="80" height="80" viewBox="0 0 80 80" fill="none" xmlns="http://www.w3.org/2000/svg">
<path d="M54.5924 6.37671C65.9907 6.37671 73.6231 14.379 73.6231 26.2816V53.7551C73.6231 65.6208 65.9907 73.6231 54.5924 73.6231H25.4411C14.0429 73.6231 6.37677 65.6208 6.37677 53.7551V26.2816C6.37677 14.379 14.0429 6.37671 25.4411 6.37671H54.5924ZM54.0545 29.9129C52.9113 28.7698 51.0284 28.7698 49.8852 29.9129L35.9988 43.7993L30.1147 37.9153C28.9716 36.7721 27.0887 36.7721 25.9455 37.9153C24.8023 39.0584 24.8023 40.9077 25.9455 42.0845L33.9478 50.0532C34.5194 50.6248 35.2591 50.8938 35.9988 50.8938C36.7721 50.8938 37.5118 50.6248 38.0834 50.0532L54.0545 34.0822C55.1976 32.939 55.1976 31.0898 54.0545 29.9129Z" fill="#24BD64"/>
</svg>
