<svg width="22" height="22" viewBox="0 0 22 22" fill="none" xmlns="http://www.w3.org/2000/svg">
<path d="M19.9374 11.7446C19.7913 13.4427 19.1633 15.0638 18.1273 16.4171C17.0912 17.7704 15.6902 18.7996 14.089 19.3837C12.4878 19.9678 10.7532 20.0825 9.08905 19.7142C7.42494 19.3459 5.90064 18.51 4.69546 17.3048C3.49029 16.0997 2.65439 14.5754 2.2861 12.9112C1.91781 11.2471 2.03247 9.51246 2.61657 7.9113C3.20067 6.31014 4.22992 4.90911 5.58322 3.87303C6.93653 2.83696 8.55759 2.20895 10.2557 2.06288C10.346 2.05543 10.4368 2.06584 10.5231 2.09351C10.6094 2.12118 10.6893 2.16557 10.7584 2.22414C10.8276 2.28271 10.8844 2.35433 10.9259 2.43489C10.9673 2.51545 10.9925 2.60338 10.9999 2.69366C11.0074 2.78395 10.997 2.87481 10.9693 2.96108C10.9416 3.04734 10.8972 3.12731 10.8387 3.19641C10.7801 3.26552 10.7085 3.32241 10.6279 3.36384C10.5473 3.40528 10.4594 3.43043 10.3691 3.43788C8.9319 3.56137 7.55984 4.09278 6.41438 4.9696C5.26893 5.84642 4.39773 7.03216 3.9033 8.3873C3.40888 9.74245 3.31178 11.2106 3.62346 12.6191C3.93513 14.0275 4.64259 15.3177 5.66261 16.3377C6.68263 17.3577 7.97277 18.0652 9.38122 18.3768C10.7897 18.6885 12.2578 18.5914 13.613 18.097C14.9681 17.6026 16.1539 16.7314 17.0307 15.5859C17.9075 14.4405 18.4389 13.0684 18.5624 11.6312C18.5775 11.4488 18.6643 11.2799 18.8039 11.1616C18.9435 11.0433 19.1243 10.9853 19.3066 11.0004C19.489 11.0154 19.6579 11.1023 19.7762 11.2419C19.8945 11.3814 19.9525 11.5623 19.9374 11.7446ZM10.3124 6.18788V11.0004C10.3124 11.1827 10.3848 11.3576 10.5138 11.4865C10.6427 11.6154 10.8176 11.6879 10.9999 11.6879H15.8124C15.9948 11.6879 16.1696 11.6154 16.2985 11.4865C16.4275 11.3576 16.4999 11.1827 16.4999 11.0004C16.4999 10.818 16.4275 10.6432 16.2985 10.5142C16.1696 10.3853 15.9948 10.3129 15.8124 10.3129H11.6874V6.18788C11.6874 6.00555 11.615 5.83068 11.4861 5.70175C11.3571 5.57282 11.1823 5.50038 10.9999 5.50038C10.8176 5.50038 10.6427 5.57282 10.5138 5.70175C10.3848 5.83068 10.3124 6.00555 10.3124 6.18788ZM13.7499 4.12538C13.9539 4.12538 14.1533 4.0649 14.3228 3.95159C14.4924 3.83827 14.6246 3.67721 14.7027 3.48877C14.7807 3.30034 14.8011 3.09299 14.7613 2.89295C14.7216 2.6929 14.6233 2.50915 14.4791 2.36493C14.3349 2.22071 14.1511 2.12249 13.9511 2.0827C13.7511 2.04291 13.5437 2.06333 13.3553 2.14138C13.1668 2.21943 13.0058 2.35161 12.8925 2.5212C12.7791 2.69079 12.7187 2.89017 12.7187 3.09413C12.7187 3.36764 12.8273 3.62994 13.0207 3.82334C13.2141 4.01673 13.4764 4.12538 13.7499 4.12538ZM16.8437 6.18788C17.0476 6.18788 17.247 6.1274 17.4166 6.01409C17.5862 5.90077 17.7184 5.73971 17.7964 5.55128C17.8745 5.36284 17.8949 5.15549 17.8551 4.95545C17.8153 4.7554 17.7171 4.57165 17.5729 4.42743C17.4286 4.28321 17.2449 4.18499 17.0449 4.1452C16.8448 4.10541 16.6375 4.12583 16.449 4.20388C16.2606 4.28193 16.0995 4.41411 15.9862 4.5837C15.8729 4.75329 15.8124 4.95267 15.8124 5.15663C15.8124 5.43014 15.9211 5.69244 16.1145 5.88584C16.3079 6.07923 16.5702 6.18788 16.8437 6.18788ZM18.9062 9.28163C19.1101 9.28163 19.3095 9.22115 19.4791 9.10784C19.6487 8.99452 19.7809 8.83346 19.8589 8.64502C19.937 8.45659 19.9574 8.24924 19.9176 8.0492C19.8778 7.84915 19.7796 7.6654 19.6354 7.52118C19.4911 7.37696 19.3074 7.27874 19.1073 7.23895C18.9073 7.19916 18.7 7.21958 18.5115 7.29763C18.3231 7.37568 18.162 7.50786 18.0487 7.67745C17.9354 7.84704 17.8749 8.04642 17.8749 8.25038C17.8749 8.52389 17.9836 8.78619 18.177 8.97959C18.3704 9.17298 18.6327 9.28163 18.9062 9.28163Z" fill="#737373"/>
</svg>
