<svg width="20" height="20" viewBox="0 0 20 20" fill="none" xmlns="http://www.w3.org/2000/svg">
<path d="M14.3124 9.5009C16.9703 9.5009 19.1249 11.6555 19.1249 14.3134C19.1249 16.9713 16.9703 19.1259 14.3124 19.1259C11.6545 19.1259 9.49989 16.9713 9.49989 14.3134C9.49989 11.6555 11.6545 9.5009 14.3124 9.5009ZM9.49989 0.75C14.3331 0.75 18.2512 4.66812 18.2512 9.50136C18.2512 9.73168 18.2424 9.95993 18.2249 10.1858C17.8417 9.82213 17.4078 9.51149 16.935 9.26533C16.8107 5.26641 13.5294 2.0625 9.49989 2.0625C5.39152 2.0625 2.06104 5.39299 2.06104 9.50136C2.06104 13.5312 5.26541 16.8126 9.26515 16.9366C9.5108 17.4093 9.82131 17.843 10.1846 18.2261C9.95905 18.2438 9.73051 18.2527 9.49989 18.2527C4.66665 18.2527 0.748535 14.3346 0.748535 9.50136C0.748535 4.66812 4.66665 0.75 9.49989 0.75ZM14.3124 11.2502L14.2337 11.2573C14.0552 11.2897 13.9144 11.4305 13.8819 11.6091L13.8749 11.6877L13.8746 13.8752L11.6853 13.8759L11.6067 13.883C11.4281 13.9154 11.2873 14.0562 11.2549 14.2348L11.2478 14.3134L11.2549 14.392C11.2873 14.5706 11.4281 14.7114 11.6067 14.7439L11.6853 14.7509L13.8755 14.7502L13.8759 16.9415L13.8829 17.0201C13.9153 17.1987 14.0561 17.3395 14.2347 17.3719L14.3134 17.379L14.392 17.3719C14.5706 17.3395 14.7114 17.1987 14.7438 17.0201L14.7509 16.9415L14.7505 14.7502L16.9414 14.7509L17.02 14.7439C17.1986 14.7114 17.3394 14.5706 17.3718 14.392L17.3789 14.3134L17.3718 14.2348C17.3394 14.0562 17.1986 13.9154 17.02 13.883L16.9414 13.8759L14.7496 13.8752L14.7499 11.6877L14.7428 11.6091C14.7104 11.4305 14.5696 11.2897 14.391 11.2573L14.3124 11.2502ZM6.40391 11.9368C6.9826 12.6712 7.79583 13.1736 8.70519 13.3599C8.6522 13.6692 8.62489 13.9881 8.62489 14.3134C8.62489 14.4367 8.62881 14.559 8.63654 14.6803C7.34575 14.468 6.18477 13.7794 5.37297 12.749C5.14866 12.4644 5.19761 12.0517 5.4823 11.8274C5.76699 11.6031 6.17961 11.6521 6.40391 11.9368ZM6.87528 6.65817C7.479 6.65817 7.96841 7.14758 7.96841 7.7513C7.96841 8.35501 7.479 8.84442 6.87528 8.84442C6.27157 8.84442 5.78216 8.35501 5.78216 7.7513C5.78216 7.14758 6.27157 6.65817 6.87528 6.65817ZM12.1253 6.65817C12.729 6.65817 13.2184 7.14758 13.2184 7.7513C13.2184 8.35501 12.729 8.84442 12.1253 8.84442C11.5216 8.84442 11.0322 8.35501 11.0322 7.7513C11.0322 7.14758 11.5216 6.65817 12.1253 6.65817Z" fill="#737373"/>
</svg>
