<svg width="41" height="41" viewBox="0 0 41 41" fill="none" xmlns="http://www.w3.org/2000/svg">
<path d="M20.5 3.84375C17.2057 3.84375 13.9854 4.82062 11.2463 6.65083C8.50718 8.48105 6.37231 11.0824 5.11164 14.1259C3.85097 17.1695 3.52112 20.5185 4.1638 23.7495C4.80649 26.9805 6.39284 29.9483 8.72226 32.2777C11.0517 34.6072 14.0195 36.1935 17.2505 36.8362C20.4815 37.4789 23.8305 37.149 26.8741 35.8884C29.9176 34.6277 32.519 32.4928 34.3492 29.7537C36.1794 27.0146 37.1563 23.7943 37.1563 20.5C37.1507 16.0842 35.3941 11.8508 32.2717 8.72834C29.1492 5.60588 24.9158 3.84926 20.5 3.84375ZM26.3361 21.5666L18.6486 26.6916C18.4378 26.8314 18.1905 26.906 17.9375 26.9062C17.5977 26.9062 17.2718 26.7713 17.0315 26.531C16.7912 26.2907 16.6563 25.9648 16.6563 25.625V15.375C16.6561 15.143 16.719 14.9153 16.8381 14.7162C16.9573 14.5171 17.1282 14.3541 17.3328 14.2446C17.5373 14.1351 17.7678 14.0832 17.9995 14.0944C18.2313 14.1056 18.4556 14.1796 18.6486 14.3084L26.3361 19.4334C26.5118 19.5503 26.656 19.7089 26.7557 19.895C26.8553 20.0811 26.9075 20.2889 26.9075 20.5C26.9075 20.7111 26.8553 20.9189 26.7557 21.105C26.656 21.2911 26.5118 21.4497 26.3361 21.5666Z" fill="white"/>
</svg>
