<svg width="20" height="22" viewBox="0 0 20 22" fill="none" xmlns="http://www.w3.org/2000/svg">
<path d="M18.1563 8.64251C18.7356 8.64251 19.2057 9.10575 19.2057 9.67883C19.2057 14.3412 15.6313 18.1912 11.0474 18.7083V20.7944C11.0474 21.3665 10.5772 21.8307 9.99792 21.8307C9.41758 21.8307 8.94848 21.3665 8.94848 20.7944V18.7083C4.36346 18.1912 0.789062 14.3412 0.789062 9.67883C0.789062 9.10575 1.25921 8.64251 1.8385 8.64251C2.4178 8.64251 2.88795 9.10575 2.88795 9.67883C2.88795 13.5495 6.0772 16.6989 9.99792 16.6989C13.9176 16.6989 17.1068 13.5495 17.1068 9.67883C17.1068 9.10575 17.577 8.64251 18.1563 8.64251ZM10.1867 0.164062C12.7904 0.164062 14.9019 2.2481 14.9019 4.81921V9.82775C14.9019 12.3978 12.7904 14.4829 10.1867 14.4829H9.80787C7.2042 14.4829 5.09377 12.3978 5.09377 9.82775V4.81921C5.09377 2.2481 7.2042 0.164062 9.80787 0.164062H10.1867Z" fill=""/>
</svg>
