<svg width="21" height="24" viewBox="0 0 21 24" fill="none" xmlns="http://www.w3.org/2000/svg">
<path d="M14.7579 -0.00024151C15.2532 -0.00140495 15.6449 0.383402 15.646 0.896479L15.6472 1.77104C18.8609 2.02291 20.9839 4.21282 20.9873 7.57114L21 17.4012C21.0046 21.0627 18.7043 23.3156 15.0171 23.3214L6.01054 23.3331C2.3464 23.3377 0.0172937 21.0312 0.0126862 17.3592L7.73196e-06 7.6446C-0.00459204 4.26413 2.04346 2.08005 5.25721 1.78503L5.25606 0.910472C5.2549 0.397395 5.63503 0.011422 6.14185 0.011422C6.64868 0.0102559 7.0288 0.395063 7.02995 0.90814L7.03111 1.7244L13.8733 1.71507L13.8721 0.898811C13.871 0.385734 14.2511 0.000927216 14.7579 -0.00024151ZM15.2279 16.557H15.2164C14.6865 16.5698 14.2615 17.0141 14.273 17.5505C14.2741 18.0869 14.7015 18.5288 15.2314 18.5405C15.7716 18.5393 16.2093 18.095 16.2082 17.547C16.2082 16.9989 15.7693 16.557 15.2279 16.557ZM5.73639 16.5581C5.20652 16.5815 4.79185 17.0257 4.793 17.5621C4.81719 18.0985 5.2549 18.5183 5.78477 18.4938C6.30427 18.4705 6.71779 18.0262 6.6936 17.4898C6.68209 16.9651 6.25474 16.557 5.73639 16.5581ZM10.4821 16.5523C9.95228 16.5768 9.53875 17.0199 9.53875 17.5563C9.56294 18.0927 10.0007 18.5113 10.5305 18.488C11.0489 18.4635 11.4635 18.0204 11.4394 17.4828C11.4278 16.9593 11.0005 16.5511 10.4821 16.5523ZM5.73063 12.3602C5.20077 12.3836 4.78724 12.8278 4.78839 13.3642C4.81143 13.9006 5.2503 14.3204 5.78016 14.2959C6.29851 14.2726 6.71203 13.8283 6.68785 13.2919C6.67633 12.7672 6.25013 12.3591 5.73063 12.3602ZM10.4775 12.3194C9.94767 12.3427 9.533 12.787 9.53414 13.3234C9.55718 13.8598 9.99605 14.2784 10.5259 14.2551C11.0443 14.2306 11.4578 13.7875 11.4348 13.2511C11.4221 12.7264 10.9959 12.3183 10.4775 12.3194ZM15.2233 12.3253C14.6934 12.3369 14.2788 12.7684 14.2799 13.3048V13.3176C14.2914 13.854 14.7291 14.261 15.2602 14.2493C15.7785 14.2365 16.192 13.7922 16.1805 13.2558C16.1563 12.7427 15.7405 12.3241 15.2233 12.3253ZM13.8756 3.51084L7.03341 3.52016L7.03456 4.46353C7.03456 4.96611 6.65559 5.36258 6.14876 5.36258C5.64194 5.36374 5.26066 4.96844 5.26066 4.46586L5.25951 3.56797C3.01334 3.79303 1.77046 5.11303 1.77391 7.64227L1.77507 8.00492L19.2146 7.9816V7.57347C19.165 5.06639 17.9072 3.75105 15.6495 3.55515L15.6506 4.45303C15.6506 4.95445 15.2602 5.35208 14.7648 5.35208C14.258 5.35325 13.8767 4.95678 13.8767 4.45536L13.8756 3.51084Z" fill=""/>
</svg>
