<svg width="20" height="20" viewBox="0 0 20 20" fill="none" xmlns="http://www.w3.org/2000/svg">
<path d="M5.91997 11.4696C7.32996 11.4696 8.45996 12.6106 8.45996 14.0306V17.4396C8.45996 18.8496 7.32996 19.9996 5.91997 19.9996H2.53999C1.13999 19.9996 0 18.8496 0 17.4396V14.0306C0 12.6106 1.13999 11.4696 2.53999 11.4696H5.91997ZM17.46 11.4696C18.86 11.4696 20 12.6106 20 14.0306V17.4396C20 18.8496 18.86 19.9996 17.46 19.9996H14.08C12.67 19.9996 11.54 18.8496 11.54 17.4396V14.0306C11.54 12.6106 12.67 11.4696 14.08 11.4696H17.46ZM5.91997 0C7.32996 0 8.45996 1.14999 8.45996 2.56099V5.96997C8.45996 7.38996 7.32996 8.52996 5.91997 8.52996H2.53999C1.13999 8.52996 0 7.38996 0 5.96997V2.56099C0 1.14999 1.13999 0 2.53999 0H5.91997ZM17.46 0C18.86 0 20 1.14999 20 2.56099V5.96997C20 7.38996 18.86 8.52996 17.46 8.52996H14.08C12.67 8.52996 11.54 7.38996 11.54 5.96997V2.56099C11.54 1.14999 12.67 0 14.08 0H17.46Z" fill=""/>
</svg>
