<svg width="22" height="22" viewBox="0 0 22 22" fill="none" xmlns="http://www.w3.org/2000/svg">
<path d="M15.6943 0.166504C19.366 0.166504 21.8327 2.74279 21.8327 6.57628V15.4234C21.8327 19.2569 19.366 21.8332 15.6932 21.8332H6.30438C2.63265 21.8332 0.166016 19.2569 0.166016 15.4234V6.57628C0.166016 2.74279 2.63265 0.166504 6.30438 0.166504H15.6943ZM16.889 11.5957C15.7277 10.8713 14.8312 11.8886 14.5893 12.214C14.3562 12.5281 14.1557 12.8747 13.9444 13.2213C13.428 14.0765 12.8365 15.0626 11.8125 15.6361C10.3244 16.4601 9.19474 15.701 8.38206 15.1487C8.07704 14.943 7.78073 14.7485 7.48551 14.6188C6.7578 14.3046 6.10309 14.6624 5.13137 15.8966C4.62154 16.5417 4.11607 17.1812 3.60406 17.8185C3.29795 18.1997 3.37094 18.7878 3.78381 19.0427C4.44288 19.4485 5.24684 19.6665 6.15538 19.6665H15.2854C15.8007 19.6665 16.3171 19.5961 16.8095 19.4351C17.9184 19.0728 18.7987 18.2433 19.2584 17.1477C19.6462 16.2264 19.8347 15.1085 19.4719 14.1783C19.351 13.8697 19.1701 13.5824 18.9163 13.3297C18.2507 12.669 17.6287 12.0519 16.889 11.5957ZM7.20644 4.49984C5.71291 4.49984 4.49935 5.71504 4.49935 7.20817C4.49935 8.7013 5.71291 9.9165 7.20644 9.9165C8.69889 9.9165 9.91354 8.7013 9.91354 7.20817C9.91354 5.71504 8.69889 4.49984 7.20644 4.49984Z" fill=""/>
</svg>
