<svg width="29" height="29" viewBox="0 0 29 29" fill="none" xmlns="http://www.w3.org/2000/svg">
<path fill-rule="evenodd" clip-rule="evenodd" d="M17.9835 25.1258C17.749 25.3604 17.4707 25.5464 17.1643 25.6734C16.8579 25.8003 16.5296 25.8656 16.198 25.8656C15.8663 25.8656 15.538 25.8003 15.2316 25.6734C14.9252 25.5464 14.6469 25.3604 14.4125 25.1258L4.43909 15.1525C3.96562 14.6791 3.69957 14.0371 3.69946 13.3676V6.22323C3.69946 4.83146 4.83108 3.69985 6.22401 3.69985H13.3672C14.0356 3.69985 14.6784 3.96584 15.1521 4.43948L25.1254 14.4128C25.36 14.6473 25.546 14.9256 25.673 15.232C25.7999 15.5384 25.8652 15.8667 25.8652 16.1983C25.8652 16.53 25.7999 16.8583 25.673 17.1647C25.546 17.471 25.36 17.7494 25.1254 17.9838L17.9835 25.1258ZM8.10269 7.24567L7.26171 6.43714C7.02948 6.21387 6.66022 6.22113 6.43695 6.45336C6.21368 6.68559 6.22095 7.05485 6.45318 7.27812L7.29416 8.08666C7.52639 8.30993 7.89565 8.30266 8.11892 8.07043C8.34219 7.8382 8.33493 7.46895 8.10269 7.24567Z" fill=""/>
</svg>
