<svg width="24" height="20" viewBox="0 0 24 20" fill="none" xmlns="http://www.w3.org/2000/svg">
<path d="M23.6666 2.98644C22.8081 3.36718 21.8855 3.6245 20.9171 3.74024C21.9055 3.14775 22.6645 2.2096 23.022 1.0918C22.097 1.64033 21.0725 2.03874 19.9821 2.25347C19.1088 1.32309 17.8647 0.741699 16.4879 0.741699C13.844 0.741699 11.7006 2.88505 11.7006 5.52871C11.7006 5.9039 11.743 6.26927 11.8246 6.61963C7.84602 6.42 4.31867 4.51417 1.9576 1.61797C1.54554 2.32499 1.30946 3.14732 1.30946 4.02462C1.30946 5.68541 2.15467 7.15066 3.43916 8.0091C2.65438 7.98426 1.91629 7.76893 1.2708 7.41038C1.27046 7.43035 1.27046 7.45041 1.27046 7.47055C1.27046 9.78997 2.92058 11.7248 5.11053 12.1645C4.7088 12.2739 4.2859 12.3324 3.84925 12.3324C3.54081 12.3324 3.24089 12.3024 2.94866 12.2465C3.55779 14.1484 5.32569 15.5324 7.42048 15.5711C5.78213 16.855 3.71799 17.6203 1.47521 17.6203C1.08884 17.6203 0.70776 17.5977 0.333252 17.5535C2.45176 18.9117 4.96808 19.7042 7.67149 19.7042C16.4767 19.7042 21.2917 12.4097 21.2917 6.08381C21.2917 5.87624 21.2871 5.66979 21.2779 5.46452C22.2131 4.78959 23.0248 3.94644 23.6666 2.98644Z" fill=""/>
</svg>
