<svg width="20" height="20" viewBox="0 0 20 20" fill="none" xmlns="http://www.w3.org/2000/svg">
<path d="M5.91997 11.9696C7.04974 11.9696 7.95996 12.8827 7.95996 14.0306V17.4396C7.95996 18.5786 7.04872 19.4996 5.91997 19.4996H2.53999C1.41996 19.4996 0.5 18.5773 0.5 17.4396V14.0306C0.5 12.884 1.41894 11.9696 2.53999 11.9696H5.91997ZM17.46 11.9696C18.5811 11.9696 19.5 12.884 19.5 14.0306V17.4396C19.5 18.5773 18.58 19.4996 17.46 19.4996H14.08C12.9513 19.4996 12.04 18.5786 12.04 17.4396V14.0306C12.04 12.8827 12.9503 11.9696 14.08 11.9696H17.46ZM5.91997 0.5C7.0486 0.5 7.95996 1.42089 7.95996 2.56099V5.96997C7.95996 7.11767 7.04999 8.02996 5.91997 8.02996H2.53999C1.41869 8.02996 0.5 7.11638 0.5 5.96997V2.56099C0.5 1.42217 1.42008 0.5 2.53999 0.5H5.91997ZM17.46 0.5C18.5799 0.5 19.5 1.42217 19.5 2.56099V5.96997C19.5 7.11638 18.5813 8.02996 17.46 8.02996H14.08C12.95 8.02996 12.04 7.11767 12.04 5.96997V2.56099C12.04 1.42089 12.9514 0.5 14.08 0.5H17.46Z" stroke="black"/>
</svg>
