<svg width="28" height="28" viewBox="0 0 28 28" fill="none" xmlns="http://www.w3.org/2000/svg">
<path d="M3.76733 14C3.76733 13.8945 3.80069 13.7917 3.86261 13.7064C5.15166 11.9731 6.70902 10.2189 8.44354 8.90195C10.1806 7.58305 12.0586 6.72998 13.9999 6.72998C15.9414 6.72998 17.822 7.58315 19.5616 8.90215C21.2986 10.2192 22.8584 11.9733 24.1472 13.7064C24.2092 13.7917 24.2425 13.8945 24.2425 14C24.2425 14.1055 24.2092 14.2082 24.1472 14.2936C22.8584 16.0266 21.2986 17.7808 19.5616 19.0978C17.822 20.4168 15.9414 21.27 13.9999 21.27C12.0586 21.27 10.1806 20.4169 8.44354 19.098C6.70902 17.781 5.15166 16.0269 3.86261 14.2936C3.80069 14.2082 3.76733 14.1055 3.76733 14ZM11.9868 17.957C12.823 18.3821 13.7724 18.5315 14.6987 18.3837C15.6229 18.2363 16.4769 17.8005 17.1387 17.1387C17.8005 16.477 18.2362 15.623 18.3837 14.6988C18.5315 13.7724 18.3821 12.823 17.9569 11.9869C17.5318 11.1507 16.8527 10.4706 16.0171 10.0443C15.1815 9.61792 14.2324 9.46718 13.3058 9.61366C12.3793 9.76014 11.5229 10.1963 10.8596 10.8596C10.1963 11.523 9.76009 12.3793 9.61361 13.3059C9.46713 14.2324 9.61787 15.1816 10.0442 16.0172C10.4706 16.8527 11.1506 17.5318 11.9868 17.957ZM13.1666 12.7528C13.4132 12.588 13.7033 12.5 13.9999 12.5C14.3978 12.5 14.7793 12.658 15.0606 12.9393C15.3419 13.2206 15.4999 13.6022 15.4999 14C15.4999 14.2967 15.412 14.5867 15.2471 14.8333C15.0823 15.08 14.848 15.2723 14.574 15.3858C14.2999 15.4993 13.9983 15.529 13.7073 15.4712C13.4163 15.4133 13.149 15.2704 12.9393 15.0606C12.7295 14.8509 12.5866 14.5836 12.5288 14.2926C12.4709 14.0016 12.5006 13.7 12.6141 13.426C12.7276 13.1519 12.9199 12.9176 13.1666 12.7528Z" stroke="black"/>
<path d="M23.051 6.51362L21.4741 4.93677L4.92075 21.4901L6.4976 23.067L23.051 6.51362Z" fill="white"/>
<path d="M22.6903 6.15297L21.8418 5.30444L5.28843 21.8578L6.13696 22.7063L22.6903 6.15297Z" fill="black"/>
</svg>
