<svg width="12" height="22" viewBox="0 0 12 22" fill="none" xmlns="http://www.w3.org/2000/svg">
<path d="M7.24537 11.4209H6.74537V11.9209V21H3.89034V11.9209V11.4209H3.39034H0.666748V8.68784H3.39034H3.89034V8.18784V5.43471C3.89034 3.94058 4.34422 2.84589 5.07372 2.12484C5.80477 1.40227 6.86816 1 8.1918 1C9.17011 1 10.0453 1.05311 10.5724 1.09834V3.48624L9.09554 3.48689C9.09546 3.48689 9.09539 3.48689 9.09531 3.48689C8.25383 3.48693 7.61252 3.6863 7.20674 4.16824C6.81715 4.63095 6.74537 5.24247 6.74537 5.8043V8.18784V8.68784H7.24537H10.3735L10.0211 11.4209H7.24537Z" stroke="black"/>
</svg>
