<svg width="30" height="30" viewBox="0 0 30 30" fill="none" xmlns="http://www.w3.org/2000/svg">
<rect width="30" height="30" fill="white"/>
<path d="M26.9478 19.5771H26.0025V8.03644C26.0021 7.76162 25.8927 7.49817 25.6984 7.30387C25.504 7.10957 25.2406 7.00029 24.9657 7H4.32663C4.05181 7.00029 3.78832 7.10957 3.59397 7.30387C3.39962 7.49817 3.29027 7.76162 3.28991 8.03644V19.5771H2.34457C2.25333 19.5771 2.16581 19.6133 2.10121 19.6777C2.03661 19.7422 2.00022 19.8296 2 19.9209V21.3272C2.01154 21.6126 2.13559 21.8818 2.34504 22.076C2.55449 22.2702 2.8323 22.3736 3.11776 22.3636H26.1746C26.4601 22.3736 26.7379 22.2702 26.9473 22.076C27.1568 21.8818 27.2808 21.6126 27.2924 21.3272V19.9209C27.2921 19.8296 27.2557 19.7422 27.1911 19.6777C27.1266 19.6133 27.039 19.5771 26.9478 19.5771ZM3.97879 8.03644C3.97893 7.94426 4.01563 7.8559 4.08084 7.79074C4.14605 7.72558 4.23444 7.68895 4.32663 7.68888H24.9657C25.0579 7.68895 25.1463 7.72558 25.2115 7.79074C25.2767 7.8559 25.3134 7.94426 25.3136 8.03644V19.5771H17.0732C17.0279 19.5771 16.9831 19.586 16.9413 19.6033C16.8995 19.6207 16.8616 19.646 16.8296 19.678C16.7976 19.71 16.7723 19.748 16.755 19.7898C16.7377 19.8316 16.7288 19.8764 16.7289 19.9217V20.0849C16.7157 20.1868 16.6638 20.2798 16.584 20.3446C16.5041 20.4093 16.4025 20.4409 16.3 20.4327H12.9927C12.8902 20.4409 12.7885 20.4093 12.7086 20.3446C12.6288 20.2798 12.5769 20.1868 12.5638 20.0849V19.9217C12.5638 19.8764 12.5549 19.8316 12.5376 19.7898C12.5204 19.748 12.495 19.71 12.463 19.678C12.4311 19.646 12.3931 19.6207 12.3513 19.6033C12.3095 19.586 12.2647 19.5771 12.2195 19.5771H3.97879V8.03644ZM26.6035 21.3272C26.5903 21.4291 26.5384 21.5221 26.4586 21.5868C26.3787 21.6515 26.2771 21.683 26.1746 21.6747H3.11776C3.01531 21.683 2.91362 21.6515 2.83376 21.5868C2.75391 21.5221 2.70203 21.4291 2.68888 21.3272V20.2652H11.892C11.9482 20.5131 12.0886 20.7339 12.2893 20.8899C12.49 21.046 12.7385 21.1276 12.9927 21.121H16.2997C16.5538 21.1276 16.8024 21.046 17.0031 20.8899C17.2037 20.7339 17.3441 20.5131 17.4003 20.2652H26.6035V21.3272ZM12.7384 8.98205C12.7383 8.93681 12.7472 8.89201 12.7645 8.85021C12.7818 8.8084 12.8071 8.77042 12.8391 8.73842C12.8711 8.70642 12.9091 8.68103 12.9509 8.66371C12.9926 8.64639 13.0374 8.63748 13.0827 8.63748H16.2102C16.2999 8.64 16.3851 8.67739 16.4476 8.74171C16.5101 8.80603 16.5451 8.8922 16.5451 8.98191C16.5451 9.07163 16.5101 9.1578 16.4476 9.22212C16.3851 9.28644 16.2999 9.32383 16.2102 9.32635H13.0827C12.9914 9.32635 12.9038 9.29008 12.8392 9.22551C12.7746 9.16094 12.7384 9.07337 12.7384 8.98205Z" fill="black"/>
</svg>
