<svg width="24" height="22" viewBox="0 0 24 22" fill="none" xmlns="http://www.w3.org/2000/svg">
<path d="M21.5856 2.58101L21.5861 2.58157C22.6007 3.59513 23.1673 4.96128 23.1673 6.39167V15.6083C23.1673 18.5858 20.7442 21 17.7628 21H6.23732C3.25607 21 0.833984 18.586 0.833984 15.6083V6.39167C0.833984 3.41339 3.24505 1 6.23732 1H17.7628C19.1957 1 20.573 1.56633 21.5856 2.58101ZM19.1323 6.06917L19.1204 6.06798L19.1085 6.06735C18.7393 6.04802 18.3793 6.17086 18.103 6.41949L12.8554 10.6093L12.8553 10.6092L12.8481 10.6151C12.358 11.0216 11.6548 11.0248 11.1502 10.6127L11.1503 10.6127L11.1463 10.6096L5.89633 6.40957L5.88892 6.40364L5.88129 6.39799C5.32834 5.98906 4.54573 6.02938 4.06011 6.53178C3.57378 7.02171 3.51693 7.80135 3.93704 8.35171L3.95789 8.37903L3.98229 8.40324L4.13512 8.5549L4.15626 8.57589L4.17975 8.59421L9.48674 12.7348C9.48698 12.735 9.48722 12.7352 9.48746 12.7354C10.2267 13.316 11.1269 13.635 12.0707 13.635C13.0105 13.635 13.9255 13.317 14.6654 12.7346L14.6654 12.7346L14.6686 12.732L19.9314 8.52038L19.953 8.50311L19.9725 8.48355L20.0659 8.39022L20.0829 8.37322L20.0982 8.35466C20.53 7.83068 20.5307 7.06849 20.0782 6.54353L20.0718 6.5361L20.0651 6.52893C19.817 6.26302 19.4805 6.10417 19.1323 6.06917Z" stroke="black"/>
</svg>
