<svg width="22" height="24" viewBox="0 0 22 24" fill="none" xmlns="http://www.w3.org/2000/svg">
<path d="M20.6418 3.46667L20.6424 3.46851C20.8231 3.99412 20.9332 4.54134 20.97 5.09585V5.74237V18.0643V18.7039C20.9268 19.029 20.8611 19.3508 20.7735 19.667L20.77 19.6795L20.7672 19.6922L20.7623 19.714L20.7623 19.714C20.7278 19.8694 20.7041 19.9758 20.6503 20.1372C20.586 20.3301 20.5072 20.5475 20.4597 20.6584C20.4123 20.7689 20.3564 20.8817 20.2929 21.0086L20.1222 21.299C19.7045 21.9217 19.1337 22.4266 18.4646 22.7652L18.4493 22.772L18.4492 22.772C18.285 22.845 18.1267 22.9151 17.9723 22.9692L17.9711 22.9696C17.7785 23.0376 17.5726 23.0978 17.3531 23.1499C17.0332 23.2213 16.7087 23.2701 16.3819 23.2958H15.7291H5.73156H5.71707L5.70261 23.2967C5.47317 23.31 5.24316 23.31 5.01372 23.2967L5.01372 23.2966L5.00588 23.2963C4.84246 23.2894 4.67977 23.2704 4.51914 23.2395L4.50671 23.2371L4.49418 23.2353C4.10923 23.1813 3.73255 23.0794 3.37291 22.9318L3.34963 22.9223L3.32551 22.9151C3.21522 22.8824 3.10846 22.8387 3.00683 22.7848L2.99758 22.7799L2.98813 22.7753C2.85087 22.7097 2.71699 22.6372 2.58698 22.5582C2.32246 22.3924 2.07741 22.1973 1.85645 21.9767C1.73076 21.851 1.63708 21.756 1.56072 21.6519C1.53188 21.6126 1.5053 21.5769 1.48065 21.5439C1.40235 21.4389 1.34364 21.3602 1.29459 21.273C1.2531 21.1993 1.19817 21.1008 1.15167 21.0158C1.12832 20.9731 1.10799 20.9354 1.09284 20.9065C1.08046 20.8829 1.07599 20.8735 1.07589 20.8736C1.06108 20.8385 1.04496 20.8092 1.0319 20.7875L1.00302 20.7262C0.947004 20.6074 0.899083 20.4849 0.859581 20.3596L0.847116 20.3201L0.828312 20.2832C0.80009 20.2277 0.775688 20.1704 0.755273 20.1117C0.6153 19.6599 0.529608 19.1931 0.5 18.721V18.0643V5.74237V5.10002C0.546101 4.54708 0.664248 4.0025 0.851454 3.48014C0.869835 3.43226 0.886401 3.38804 0.902023 3.34634C0.930065 3.27148 0.955064 3.20475 0.982052 3.13962C1.39225 2.22039 2.11208 1.47427 3.01605 1.03138L3.40139 0.851559L3.92284 0.689137C4.30211 0.598421 4.68814 0.538783 5.0771 0.510816H5.73156H15.7291H15.7436L15.7581 0.509978C15.9875 0.496674 16.2175 0.496674 16.4469 0.509978L16.4469 0.510094L16.4577 0.510486C16.6193 0.516363 16.7801 0.535125 16.9386 0.566594L16.9543 0.569709L16.9702 0.571814C17.6455 0.661424 18.2936 0.894771 18.8711 1.25612L18.8857 1.26526L18.9009 1.27338C19.0408 1.34808 19.1747 1.43373 19.3011 1.52954L19.3011 1.52961L19.3086 1.5351C19.4212 1.61716 19.5237 1.71232 19.6139 1.81858L19.6253 1.83198L19.6375 1.84454C19.858 2.07014 20.055 2.31758 20.2255 2.58303C20.3972 2.86091 20.5368 3.15735 20.6418 3.46667Z" fill="white" stroke="black"/>
<rect x="4.5" y="4.5" width="5.88889" height="2.22222" rx="1.11111" fill="white" stroke="black"/>
<rect x="10.6111" y="16.7222" width="5.88889" height="2.22222" rx="1.11111" fill="white" stroke="black"/>
<rect x="4.5" y="10.6111" width="12" height="2.22222" rx="1.11111" fill="white" stroke="black"/>
</svg>
