<svg width="30" height="30" viewBox="0 0 30 30" fill="none" xmlns="http://www.w3.org/2000/svg">
<rect width="30" height="30" fill="white"/>
<path d="M19.6667 4H10.3333C9.71449 4 9.121 4.24583 8.68342 4.68342C8.24583 5.121 8 5.71449 8 6.33333V24.0667C8 24.3731 8.06035 24.6765 8.17761 24.9596C8.29488 25.2427 8.46675 25.4999 8.68342 25.7166C8.90009 25.9333 9.15731 26.1051 9.44041 26.2224C9.7235 26.3396 10.0269 26.4 10.3333 26.4H19.6667C19.9731 26.4 20.2765 26.3396 20.5596 26.2224C20.8427 26.1051 21.0999 25.9333 21.3166 25.7166C21.5333 25.4999 21.7051 25.2427 21.8224 24.9596C21.9396 24.6765 22 24.3731 22 24.0667V6.33333C22 5.71449 21.7542 5.121 21.3166 4.68342C20.879 4.24583 20.2855 4 19.6667 4ZM21.0667 24.0667C21.0667 24.438 20.9192 24.7941 20.6566 25.0566C20.3941 25.3192 20.038 25.4667 19.6667 25.4667H10.3333C9.96203 25.4667 9.60593 25.3192 9.34338 25.0566C9.08083 24.7941 8.93333 24.438 8.93333 24.0667V6.33333C8.93333 5.96203 9.08083 5.60593 9.34338 5.34338C9.60593 5.08083 9.96203 4.93333 10.3333 4.93333H19.6667C20.038 4.93333 20.3941 5.08083 20.6566 5.34338C20.9192 5.60593 21.0667 5.96203 21.0667 6.33333V24.0667Z" fill="black"/>
<path d="M16.867 23.5977H13.1337C13.0099 23.5977 12.8912 23.6468 12.8037 23.7343C12.7162 23.8219 12.667 23.9406 12.667 24.0643C12.667 24.1881 12.7162 24.3068 12.8037 24.3943C12.8912 24.4818 13.0099 24.531 13.1337 24.531H16.867C16.9908 24.531 17.1095 24.4818 17.197 24.3943C17.2845 24.3068 17.3337 24.1881 17.3337 24.0643C17.3337 23.9406 17.2845 23.8219 17.197 23.7343C17.1095 23.6468 16.9908 23.5977 16.867 23.5977Z" fill="black"/>
<path d="M13.8339 6.10339H16.1673C16.2291 6.10339 16.2885 6.0788 16.3322 6.03504C16.376 5.99129 16.4006 5.93194 16.4006 5.87005C16.4006 5.80817 16.376 5.74882 16.3322 5.70506C16.2885 5.6613 16.2291 5.63672 16.1673 5.63672H13.8339C13.772 5.63672 13.7127 5.6613 13.6689 5.70506C13.6252 5.74882 13.6006 5.80817 13.6006 5.87005C13.6006 5.93194 13.6252 5.99129 13.6689 6.03504C13.7127 6.0788 13.772 6.10339 13.8339 6.10339Z" fill="black"/>
</svg>
