<svg width="20" height="24" viewBox="0 0 20 24" fill="none" xmlns="http://www.w3.org/2000/svg">
<path d="M12.286 22.3636L12.2747 22.3715L12.2638 22.38C11.746 22.7836 11.1388 23.0393 10.5042 23.132C10.1481 23.1779 9.80254 23.1783 9.46616 23.1322C8.82974 23.0398 8.22237 22.784 7.70579 22.3795L7.69394 22.3702L7.68155 22.3616C7.33407 22.1218 7.11033 21.7637 7.08603 21.3924C7.08888 21.2846 7.13148 21.2093 7.22697 21.1342C7.34161 21.044 7.51888 20.9704 7.73097 20.9209C7.82985 20.9009 8.11302 20.8784 8.54338 20.8628C8.96005 20.8476 9.47089 20.8399 9.9838 20.8399C10.4967 20.8399 11.0076 20.8476 11.4242 20.8628C11.8546 20.8784 12.1378 20.9009 12.2366 20.9209C12.4487 20.9704 12.626 21.044 12.7406 21.1342C12.8361 21.2093 12.8787 21.2846 12.8816 21.3924C12.8573 21.7637 12.6334 22.1223 12.286 22.3636ZM16.0351 3.70059L16.0362 3.70205C16.9176 4.83698 17.3248 5.95573 17.3248 7.76527V8.2623C17.3248 9.04053 17.4279 9.68699 17.6589 10.2817C17.8895 10.8751 18.2363 11.3881 18.6846 11.9117L18.6845 11.9117L18.6891 11.9169C19.2217 12.5216 19.4166 13.3214 19.4166 14.2819C19.4166 15.1858 19.1221 16.034 18.537 16.7232C17.7426 17.5708 16.6218 18.1125 15.4855 18.2064L15.4842 18.2065C13.654 18.3626 11.837 18.4926 10.0005 18.4926C8.15461 18.4926 6.34096 18.4145 4.53098 18.208L4.52323 18.2071L4.51545 18.2064C3.37783 18.1125 2.25724 17.5707 1.46412 16.7233C0.878646 16.0338 0.583252 15.1855 0.583252 14.2819C0.583252 13.322 0.779014 12.5218 1.3108 11.9168C1.77546 11.3905 2.12431 10.8754 2.35239 10.2793C2.58049 9.6832 2.67616 9.03673 2.67616 8.2623V7.76527C2.67616 5.91253 3.12938 4.74125 4.06162 3.57847C5.46118 1.86829 7.71741 0.833252 9.94832 0.833252H10.0527C12.3343 0.833252 14.663 1.9204 16.0351 3.70059Z" stroke="black"/>
</svg>
