<svg width="22" height="22" viewBox="0 0 22 22" fill="none" xmlns="http://www.w3.org/2000/svg">
<path d="M10.1463 11.8588C11.2499 12.9621 12.1875 13.519 13.0408 13.728C13.9049 13.9397 14.6155 13.7776 15.2101 13.585C15.3415 13.5424 15.4701 13.4974 15.5908 13.4551C15.6044 13.4503 15.618 13.4456 15.6314 13.4409C15.7661 13.3937 15.8908 13.3506 16.0131 13.3128C16.2579 13.2372 16.4705 13.1908 16.6749 13.1854C17.0462 13.1756 17.4901 13.2982 18.0965 13.9042C18.4228 14.2304 18.7317 14.5242 19.0123 14.7911L19.0279 14.8059C19.3147 15.0787 19.5682 15.3202 19.7892 15.5468C20.2402 16.0093 20.4983 16.3547 20.6044 16.6751C20.6983 16.9589 20.6899 17.2779 20.4527 17.7418C20.206 18.2242 19.7273 18.83 18.9166 19.642C18.8733 19.6798 18.8302 19.724 18.8005 19.7544L18.793 19.7622L18.788 19.7673C18.7442 19.8121 18.6977 19.8598 18.6425 19.9123C18.5293 20.0199 18.3832 20.1443 18.1951 20.2605C17.8259 20.4887 17.2684 20.7025 16.4422 20.6524C14.7597 20.5506 11.8915 19.3479 7.27369 14.7314C2.65534 10.1143 1.4511 7.24572 1.3483 5.56259C1.29781 4.73606 1.51129 4.17832 1.73926 3.80892C1.85534 3.62083 1.97963 3.47458 2.08717 3.36138C2.13977 3.30601 2.18752 3.25937 2.23242 3.21551L2.23713 3.21091C2.23962 3.20848 2.24223 3.20593 2.24496 3.20327C2.2754 3.17359 2.31949 3.1306 2.35716 3.08749C3.17147 2.2746 3.77844 1.79486 4.2613 1.54786C4.72556 1.31037 5.04393 1.3024 5.3268 1.39646C5.64667 1.50283 5.99123 1.76144 6.4534 2.21331C6.67981 2.43468 6.92108 2.68846 7.19388 2.97558L7.1982 2.98013C7.46785 3.26393 7.76511 3.5768 8.09587 3.90747C8.70232 4.51375 8.82537 4.95779 8.81591 5.32938C8.8107 5.53392 8.7644 5.7466 8.68905 5.9915C8.65142 6.11381 8.60836 6.23863 8.56133 6.3734C8.55661 6.38693 8.55185 6.40057 8.54705 6.41432C8.50491 6.53494 8.45999 6.66353 8.41757 6.79486C8.22544 7.38977 8.0639 8.10056 8.27602 8.96465C8.48551 9.81802 9.04265 10.7555 10.1463 11.8588Z" stroke="black"/>
</svg>
