<svg width="24" height="24" viewBox="0 0 24 24" fill="none" xmlns="http://www.w3.org/2000/svg">
<path d="M14.532 1.80717L14.5326 1.80819C14.7059 2.09086 14.8079 2.41838 14.7823 2.74431L14.7823 2.74431L14.7819 2.74951C14.7495 3.22552 14.897 3.67485 15.1232 4.06231L15.1231 4.06236L15.1288 4.07153C15.8755 5.28935 17.5131 5.74048 18.795 5.05627L18.8017 5.0527L18.8082 5.04894C19.7487 4.50978 20.9362 4.83442 21.4782 5.75416C21.4785 5.75457 21.4787 5.75498 21.4789 5.75539L22.2762 7.12944L22.2762 7.12946L22.2797 7.13534C22.8278 8.05069 22.5263 9.21731 21.5829 9.74349L21.5828 9.74339L21.5733 9.74898C20.3285 10.4798 19.8777 12.1051 20.6358 13.356C20.8441 13.7 21.1184 14.0625 21.5743 14.2884C21.8907 14.4583 22.1515 14.7339 22.3449 15.0311C22.6722 15.5727 22.6638 16.2599 22.3103 16.9087L21.4804 18.3008L21.4794 18.3025C21.1276 18.898 20.468 19.2702 19.7995 19.2702C19.468 19.2702 19.0964 19.1759 18.8002 18.9958C18.385 18.7319 17.9253 18.6518 17.4865 18.6518C16.037 18.6518 14.8252 19.8338 14.781 21.2597L14.7808 21.2674V21.2752C14.7808 22.3243 13.9245 23.1668 12.8128 23.1668H11.1912C10.066 23.1668 9.2113 22.3227 9.2113 21.2752H9.21141L9.21119 21.2648C9.18165 19.8338 7.96596 18.6518 6.5175 18.6518C6.07259 18.6518 5.60836 18.7297 5.2002 18.998C4.90541 19.1761 4.52403 19.2702 4.20447 19.2702C3.52301 19.2702 2.86432 18.8971 2.51309 18.3032C2.51295 18.303 2.51282 18.3027 2.51268 18.3025L1.69172 16.9054C1.69155 16.9051 1.69138 16.9048 1.69121 16.9045C1.33296 16.288 1.32695 15.5758 1.66256 15.0255L1.66889 15.0151L1.6747 15.0045C1.81317 14.7504 2.09315 14.4683 2.4208 14.2869C2.87364 14.0616 3.14667 13.7007 3.36112 13.3674L3.36594 13.3599L3.3705 13.3522C4.11275 12.103 3.66354 10.4798 2.41881 9.74898L2.41885 9.74892L2.41109 9.74454C1.47835 9.21905 1.17437 8.0497 1.71431 7.13206L1.71584 7.12944L2.51285 5.7559C3.0674 4.83298 4.24565 4.50972 5.19765 5.05001L5.19759 5.05011L5.20691 5.05514C6.47962 5.74223 8.11758 5.28773 8.86332 4.07153L8.86342 4.07159L8.86884 4.06231C9.0944 3.67606 9.24165 3.22834 9.21044 2.75398C9.19331 2.41279 9.29198 2.08566 9.46489 1.81851L9.46504 1.81861L9.47201 1.80717C9.8233 1.23118 10.4632 0.854404 11.1625 0.833496H12.8366C13.5322 0.833496 14.175 1.22186 14.532 1.80717ZM12.0139 8.21016C9.87852 8.21016 8.12784 9.89157 8.12784 12.0118C8.12784 14.1344 9.88086 15.8018 12.0139 15.8018C14.154 15.8018 15.8642 14.1275 15.8642 12.0118C15.8642 9.89843 14.1563 8.21016 12.0139 8.21016Z" stroke="black"/>
</svg>
