<svg width="30" height="30" viewBox="0 0 30 30" fill="none" xmlns="http://www.w3.org/2000/svg">
<path d="M25.6505 23.2529H4.34948C3.60529 23.2529 3 22.6476 3 21.9034V7.34948C3 6.60503 3.60529 6 4.34948 6H25.6505C26.3947 6 27 6.60503 27 7.34948V21.9034C27 22.6473 26.3947 23.2529 25.6505 23.2529ZM4.34948 6.38557C3.81795 6.38557 3.38557 6.81795 3.38557 7.34948V21.9034C3.38557 22.4349 3.81795 22.8676 4.34948 22.8676H25.6505C26.182 22.8676 26.6147 22.4352 26.6147 21.9034V7.34948C26.6147 6.81795 26.1823 6.38557 25.6505 6.38557H4.34948Z" fill="black"/>
<path d="M24.5906 22.1086H5.41016V7.13672H24.5906V22.1086ZM5.79572 21.7233H24.205V7.52255H5.79572V21.7233Z" fill="black"/>
<path d="M4.59104 17.0094C4.59104 17.1693 4.46156 17.2985 4.302 17.2985C4.14218 17.2985 4.0127 17.1693 4.0127 17.0094V12.2383C4.0127 12.0784 4.14218 11.9492 4.302 11.9492C4.46156 11.9492 4.59104 12.0784 4.59104 12.2383V17.0094Z" fill="black"/>
<path d="M25.6176 15.3192C25.9991 15.3192 26.3084 15.0099 26.3084 14.6283C26.3084 14.2468 25.9991 13.9375 25.6176 13.9375C25.2361 13.9375 24.9268 14.2468 24.9268 14.6283C24.9268 15.0099 25.2361 15.3192 25.6176 15.3192Z" fill="black"/>
</svg>
