<svg width="32" height="32" viewBox="0 0 32 32" fill="" xmlns="http://www.w3.org/2000/svg">
<path d="M29.5999 23.5111L18.6692 4.52757C18.3961 4.06248 18.0061 3.67685 17.5381 3.4089C17.07 3.14096 16.54 3 16.0006 3C15.4613 3 14.9313 3.14096 14.4632 3.4089C13.9951 3.67685 13.6052 4.06248 13.332 4.52757L2.40132 23.5111C2.1385 23.961 2 24.4726 2 24.9936C2 25.5146 2.1385 26.0263 2.40132 26.4761C2.67097 26.944 3.06025 27.3317 3.52921 27.5995C3.99818 27.8673 4.52994 28.0054 5.06993 27.9998H26.9313C27.4709 28.005 28.0021 27.8666 28.4706 27.5989C28.9391 27.3311 29.328 26.9436 29.5974 26.4761C29.8606 26.0265 29.9996 25.515 30 24.994C30.0004 24.473 29.8624 23.9612 29.5999 23.5111ZM27.8663 25.4749C27.771 25.6374 27.6342 25.7717 27.4699 25.864C27.3056 25.9562 27.1197 26.0031 26.9313 25.9999H5.06993C4.88154 26.0031 4.69567 25.9562 4.53137 25.864C4.36708 25.7717 4.23027 25.6374 4.13498 25.4749C4.04867 25.3287 4.00314 25.1621 4.00314 24.9924C4.00314 24.8226 4.04867 24.656 4.13498 24.5099L15.0657 5.52631C15.1629 5.36452 15.3003 5.23065 15.4646 5.13771C15.6289 5.04477 15.8144 4.99593 16.0031 4.99593C16.1919 4.99593 16.3774 5.04477 16.5417 5.13771C16.7059 5.23065 16.8434 5.36452 16.9406 5.52631L27.8713 24.5099C27.9568 24.6565 28.0015 24.8233 28.0006 24.993C27.9997 25.1628 27.9533 25.3292 27.8663 25.4749ZM15.0007 17.9999V13C15.0007 12.7348 15.106 12.4804 15.2936 12.2929C15.4811 12.1053 15.7354 12 16.0006 12C16.2658 12 16.5202 12.1053 16.7077 12.2929C16.8952 12.4804 17.0006 12.7348 17.0006 13V17.9999C17.0006 18.2651 16.8952 18.5195 16.7077 18.707C16.5202 18.8946 16.2658 18.9999 16.0006 18.9999C15.7354 18.9999 15.4811 18.8946 15.2936 18.707C15.106 18.5195 15.0007 18.2651 15.0007 17.9999ZM17.5005 22.4999C17.5005 22.7966 17.4126 23.0866 17.2478 23.3332C17.083 23.5799 16.8487 23.7722 16.5746 23.8857C16.3005 23.9992 15.999 24.0289 15.708 23.9711C15.417 23.9132 15.1498 23.7703 14.94 23.5605C14.7302 23.3508 14.5874 23.0835 14.5295 22.7925C14.4716 22.5016 14.5013 22.2 14.6149 21.9259C14.7284 21.6518 14.9207 21.4175 15.1673 21.2527C15.414 21.0879 15.704 20.9999 16.0006 20.9999C16.3984 20.9999 16.7799 21.1579 17.0612 21.4392C17.3425 21.7205 17.5005 22.1021 17.5005 22.4999Z" />
</svg>
