<svg width="19" height="18" viewBox="0 0 19 18" fill="none" xmlns="http://www.w3.org/2000/svg">
<path d="M18.9774 12.7839L16.6688 6.73069V6.73054C16.6064 6.56707 16.4309 6.48489 16.2726 6.54496L13.7582 7.48683V7.48668C13.6779 7.51635 13.6126 7.57875 13.5771 7.65946C13.5434 7.74134 13.5423 7.83399 13.574 7.91675L13.7394 8.34347L12.6943 8.70183C12.3043 8.54577 10.9379 7.99166 10.551 7.80911C9.9364 7.51954 9.37179 7.7505 8.71664 8.18739C8.25803 7.81928 7.8275 7.81594 7.2441 8.16135C6.8416 8.39886 6.20831 8.79661 5.91517 8.98237L5.42228 8.69236L5.65 8.20048C5.7213 8.04006 5.65961 7.84925 5.50961 7.76691L3.24779 6.56151C3.17314 6.52268 3.08707 6.5157 3.00754 6.54188C2.92983 6.57068 2.86534 6.62885 2.82663 6.70477L0.0344884 12.468C-0.00325492 12.5445 -0.0103572 12.6335 0.0148509 12.7154C0.040059 12.7972 0.0953505 12.8653 0.168609 12.9046L2.54588 14.1809C2.58989 14.2057 2.63933 14.218 2.68933 14.2172C2.72331 14.2182 2.75715 14.2125 2.78919 14.2004C2.86885 14.1737 2.93445 14.1138 2.9701 14.0346L3.15102 13.6371L3.43806 13.8424V13.8425C3.38138 13.9583 3.33235 14.078 3.29154 14.2009C3.28277 14.2337 3.27859 14.2678 3.27901 14.3018C3.27901 15.1195 4.08707 15.576 4.42397 15.732H4.42745H4.42731C4.54012 16.0983 4.80057 16.3948 5.14025 16.5439C5.21114 16.5659 5.28467 16.5768 5.35863 16.5765C5.47339 16.5749 5.58676 16.5496 5.69205 16.5021C5.79776 16.7472 5.97464 16.9512 6.19748 17.0857C6.39622 17.196 6.62504 17.2328 6.84635 17.1899C6.98256 17.4493 7.19314 17.6576 7.44858 17.7858C7.5412 17.827 7.64105 17.8481 7.74175 17.8476C7.84788 17.8482 7.95303 17.8261 8.05066 17.7825C8.31584 17.6591 8.54508 17.4648 8.71515 17.2192V17.2173C8.87113 17.3476 9.10816 17.5415 9.37029 17.7614C9.57363 17.9215 9.82277 18.0054 10.0775 17.9997C10.2913 17.9997 10.5022 17.9481 10.6937 17.8489C10.9793 17.7065 11.1945 17.4452 11.2864 17.129C11.3971 17.1274 11.5074 17.1127 11.615 17.0849C12.0137 16.9831 12.3507 16.7063 12.5399 16.3259C12.5995 16.335 12.6596 16.3398 12.7199 16.3403C13.0163 16.3389 13.3056 16.244 13.5495 16.0678C13.7933 15.8919 13.9805 15.6429 14.0864 15.3537H14.1284C14.4517 15.3632 14.7659 15.2417 15.0052 15.0146C15.1664 14.8607 15.2766 14.6571 15.3198 14.4336C15.363 14.2099 15.3369 13.9776 15.2454 13.7705L15.7446 13.5392L15.9287 14.0148H15.9286C15.9753 14.1374 16.0893 14.2175 16.2156 14.2167C16.2538 14.2165 16.2918 14.21 16.3278 14.1972L18.7987 13.2065C18.8773 13.1768 18.9405 13.1144 18.9735 13.0341C19.0073 12.9549 19.0089 12.8644 18.9775 12.784L18.9774 12.7839ZM3.9029 14.3542C3.9607 14.2066 4.02727 14.0629 4.10262 13.9242C4.11209 13.9096 4.12045 13.8942 4.12755 13.8782C4.16808 13.8101 4.21181 13.7384 4.26167 13.6635C4.38117 13.566 4.54551 13.5542 4.67658 13.6339C4.72769 13.6499 4.76975 13.6877 4.79245 13.7382C4.81501 13.7885 4.81599 13.8465 4.7951 13.8977C4.67658 14.3017 4.55485 14.7316 4.47379 15.0317C4.22115 14.8819 3.9341 14.6441 3.9029 14.3542L3.9029 14.3542ZM5.31986 15.9202C5.20106 15.8837 5.08463 15.6885 5.01666 15.5179C5.24841 15.1082 5.50188 14.7122 5.77599 14.332C5.90496 14.1534 6.13991 14.1006 6.3278 14.2079C6.44103 14.2899 6.39326 14.4457 6.32307 14.575L6.32028 14.5789H6.32042C6.31485 14.5903 6.30858 14.6012 6.30162 14.6115C6.29842 14.6153 6.29619 14.6199 6.29535 14.6249C6.29062 14.6332 6.28644 14.6418 6.28296 14.6506C6.22683 14.781 5.87112 15.3837 5.61847 15.7945C5.53825 15.8639 5.41346 15.9499 5.31987 15.9202L5.31986 15.9202ZM6.79448 16.5368V16.537C6.69629 16.5729 6.58821 16.5659 6.49504 16.5174C6.34699 16.4084 6.23905 16.2497 6.18933 16.0678C6.37025 15.771 6.75716 15.1296 6.84754 14.9308C6.85061 14.9276 6.85061 14.921 6.85381 14.9174V14.9175C6.88905 14.8767 6.93626 14.8493 6.98793 14.8396C7.11049 14.8192 7.2357 14.8522 7.3343 14.9308C7.46313 15.0214 7.51592 15.1921 7.46215 15.3442L6.79448 16.5368ZM7.80841 17.1852C7.64615 17.2566 7.4715 17.006 7.37164 16.8334L8.00493 15.9339H8.00507C8.13863 15.9308 8.26788 15.9837 8.36382 16.0809C8.42649 16.2066 8.43777 16.3534 8.39502 16.4881C8.29 16.7889 8.08082 17.0378 7.80883 17.1852L7.80841 17.1852ZM14.5656 14.5529H14.5657C14.3958 14.6874 14.178 14.7373 13.9697 14.6895C13.9526 14.6824 13.9349 14.677 13.9168 14.6732H13.9136C13.8838 14.6648 13.8555 14.6517 13.8293 14.6344C13.6452 14.507 12.6813 13.5398 12.1198 12.9595C11.9955 12.8341 11.7975 12.8372 11.6767 12.9663C11.5581 13.0955 11.5613 13.3004 11.684 13.4253C11.9336 13.6831 13.194 14.976 13.4841 15.1751C13.3873 15.393 13.2107 15.5609 12.994 15.6411C12.8118 15.7244 12.6022 15.7098 12.4324 15.6017C12.0269 15.2268 10.9327 14.0836 10.9219 14.0705C10.7999 13.9433 10.6024 13.9433 10.4805 14.0707C10.3588 14.1979 10.3588 14.4043 10.4807 14.5314C10.5247 14.5774 11.537 15.6338 11.9781 16.0499C11.8684 16.2515 11.6843 16.3972 11.4687 16.4532C11.3181 16.5068 11.1528 16.4908 11.0142 16.4093L10.1241 15.484C10.0022 15.3569 9.80476 15.3569 9.68304 15.484C9.56117 15.6113 9.56117 15.8175 9.68304 15.9446L10.5706 16.8715H10.5705C10.606 16.9069 10.6449 16.9384 10.6862 16.9658C10.639 17.1 10.5422 17.2091 10.4174 17.2683C10.2119 17.3842 9.96314 17.3791 9.7623 17.2546C9.43473 16.9809 9.14741 16.7444 9.00522 16.6278L9.00508 16.6279C9.09115 16.3114 9.04101 15.9715 8.86789 15.6968C8.67946 15.4527 8.40022 15.3045 8.10037 15.2895C8.11458 15.1155 8.08352 14.9406 8.01054 14.7836C7.93742 14.6265 7.82517 14.4928 7.68548 14.3968C7.48896 14.2463 7.24871 14.1712 7.00541 14.1848C6.966 13.9767 6.85054 13.7928 6.68341 13.6722C6.49149 13.5463 6.26573 13.488 6.03968 13.5061C5.8135 13.5242 5.59903 13.6178 5.42771 13.773C5.42047 13.6178 5.37187 13.4677 5.28774 13.3397C5.20348 13.2116 5.08677 13.1105 4.9507 13.0477C4.756 12.9402 4.53205 12.9049 4.31563 12.9475C4.0992 12.9901 3.90297 13.1082 3.75897 13.2823L3.42513 13.0442L5.15353 9.28188L5.76813 9.64315C5.81437 9.6718 5.86729 9.6865 5.92092 9.68577C5.97844 9.68577 6.03456 9.66889 6.08317 9.6369C6.0925 9.6337 7.03164 9.03418 7.55251 8.72761C7.81142 8.57475 7.97672 8.5224 8.14526 8.5842L8.1454 8.58435C7.68564 8.94853 7.37648 9.48243 7.28121 10.0767C7.14389 10.65 7.17509 11.0472 7.38107 11.3307C7.56352 11.5458 7.81352 11.6857 8.08606 11.7253C8.33494 11.7787 8.59384 11.7154 8.79426 11.5522C9.07698 11.3371 9.27362 11.0205 9.34647 10.6631L9.6771 10.438V10.4381C10.6212 10.987 11.6052 11.4577 12.6199 11.8459C12.9101 12.1391 14.2297 13.4617 14.5511 13.8397V13.8395C14.5528 13.8413 14.5539 13.8436 14.5542 13.8461C14.6564 13.9315 14.717 14.06 14.7192 14.1967C14.7216 14.3335 14.6655 14.4641 14.566 14.5531L14.5656 14.5529ZM14.8619 13.2335C14.3253 12.6503 13.0556 11.3797 12.9932 11.3179H12.9933C12.9547 11.2799 12.9075 11.253 12.8561 11.2397C11.9358 10.9853 9.83304 9.78629 9.81133 9.77363H9.81119C9.71008 9.71545 9.58654 9.7204 9.48989 9.78643L8.89086 10.1973V10.1971C8.80953 10.2507 8.75744 10.3414 8.75048 10.4415C8.72541 10.6723 8.61037 10.8822 8.43224 11.0213C8.37319 11.0775 8.2924 11.1016 8.21386 11.0865C8.09004 11.0722 7.97291 11.0202 7.87695 10.937C7.83322 10.875 7.77403 10.7021 7.88628 10.2366C7.97848 9.63705 8.34547 9.1225 8.86898 8.85852C8.88319 8.85111 8.89684 8.84238 8.90965 8.83249L9.04377 8.7413C9.72383 8.28841 10.0172 8.2721 10.2947 8.40577C10.7596 8.62044 12.5004 9.32117 12.5721 9.35054C12.6393 9.37672 12.7128 9.37891 12.7812 9.35665L13.9729 8.94941L15.511 12.934L14.8619 13.2335ZM9.50028 6.6102C10.3397 6.60977 11.1445 6.26115 11.7379 5.64101C12.331 5.02086 12.6641 4.18008 12.6638 3.30352C12.6633 2.42696 12.3295 1.58647 11.7356 0.966888C11.1418 0.347304 10.3366 -0.000409195 9.49725 3.61389e-07C8.65784 0.000436651 7.85299 0.349054 7.25967 0.969197C6.66635 1.58934 6.33338 2.43012 6.33377 3.30668C6.33447 4.1831 6.66831 5.02343 7.26217 5.64302C7.85588 6.26245 8.66102 6.61031 9.50028 6.6102V6.6102ZM8.15573 2.41746C8.15629 2.16309 8.2535 1.91933 8.42606 1.73972C8.59862 1.5601 8.83234 1.45946 9.07603 1.45961H9.18828V1.27723C9.18828 1.09732 9.32798 0.951444 9.50026 0.951444C9.67254 0.951444 9.81223 1.09732 9.81223 1.27723V1.45961H9.92448C10.1359 1.45932 10.3387 1.54658 10.4884 1.70234C10.6381 1.85796 10.7226 2.06943 10.7232 2.29006C10.7232 2.46996 10.5835 2.61584 10.4112 2.61584C10.2389 2.61584 10.0993 2.46996 10.0993 2.29006C10.0979 2.19058 10.0199 2.11073 9.92447 2.11117H9.07587H9.07601C8.91333 2.11073 8.78075 2.24759 8.77963 2.41746V2.67154C8.78075 2.842 8.91278 2.97973 9.07601 2.98075H9.92461H9.92447C10.1682 2.98046 10.4019 3.08125 10.5744 3.26086C10.747 3.44033 10.8442 3.68408 10.8448 3.9386V4.19298C10.8449 4.44793 10.748 4.69241 10.5754 4.87262C10.4027 5.05296 10.1686 5.15419 9.92444 5.15404H9.81219V5.33642C9.81219 5.51647 9.6725 5.6622 9.50022 5.6622C9.32794 5.6622 9.18824 5.51647 9.18824 5.33642V5.15404H9.07599C8.8643 5.1536 8.66137 5.06561 8.51166 4.90927C8.36194 4.75292 8.27768 4.54116 8.27726 4.3201C8.27726 4.14019 8.41695 3.99432 8.58923 3.99432C8.76151 3.99432 8.90121 4.14019 8.90121 4.3201C8.90121 4.36853 8.91959 4.41493 8.95232 4.4491C8.98505 4.48343 9.02962 4.50263 9.076 4.50248H9.9246H9.92446C10.0878 4.50146 10.2199 4.36344 10.2208 4.19299V3.93861C10.2196 3.76874 10.0871 3.63203 9.92446 3.63232H9.07586H9.076C8.83185 3.63246 8.59773 3.53139 8.42517 3.35118C8.25247 3.17099 8.15554 2.92651 8.15568 2.67154L8.15573 2.41746Z" fill="#27AE60"/>
</svg>
