<svg width="28" height="28" viewBox="0 0 28 28" fill="none" xmlns="http://www.w3.org/2000/svg">
<path d="M19.7626 3.5C21.3271 3.5 22.8321 4.11833 23.9393 5.22783C25.0476 6.335 25.6671 7.82833 25.6671 9.39167V18.6083C25.6671 21.8633 23.0188 24.5 19.7626 24.5H8.23713C4.98097 24.5 2.3338 21.8633 2.3338 18.6083V9.39167C2.3338 6.13667 4.9693 3.5 8.23713 3.5H19.7626ZM21.0821 9.56667C20.8371 9.55383 20.6038 9.63667 20.4276 9.8L15.1671 14C14.4905 14.5612 13.521 14.5612 12.8338 14L7.5838 9.8C7.22097 9.53167 6.7193 9.56667 6.41713 9.88167C6.10213 10.1967 6.06713 10.6983 6.3343 11.0483L6.48713 11.2L11.7955 15.3417C12.4488 15.855 13.241 16.135 14.0705 16.135C14.8976 16.135 15.7038 15.855 16.356 15.3417L21.6188 11.13L21.7121 11.0367C21.991 10.6983 21.991 10.2083 21.6993 9.87C21.5371 9.69617 21.3143 9.59 21.0821 9.56667Z" fill="#1776BA"/>
</svg>
