<svg width="20" height="22" viewBox="0 0 20 22" fill="none" xmlns="http://www.w3.org/2000/svg">
<path d="M11.3562 0.166504C11.6351 0.166504 11.8496 0.394004 11.8496 0.664837V4.15317C11.8496 6.13567 13.4692 7.76067 15.4321 7.7715C16.2473 7.7715 16.8909 7.78234 17.3842 7.78234L17.567 7.78153C17.8967 7.77903 18.3407 7.7715 18.725 7.7715C18.9932 7.7715 19.2077 7.98817 19.2077 8.259V16.969C19.2077 19.6557 17.0517 21.8332 14.3917 21.8332H5.85372C3.06494 21.8332 0.791016 19.5473 0.791016 16.7307V5.05234C0.791016 2.36567 2.95768 0.166504 5.62847 0.166504H11.3562ZM12.5039 14.1415H6.6689C6.22913 14.1415 5.86445 14.499 5.86445 14.9432C5.86445 15.3873 6.22913 15.7557 6.6689 15.7557H12.5039C12.9437 15.7557 13.3083 15.3873 13.3083 14.9432C13.3083 14.499 12.9437 14.1415 12.5039 14.1415ZM10.2943 8.72484H6.6689C6.22913 8.72484 5.86445 9.09317 5.86445 9.53734C5.86445 9.9815 6.22913 10.339 6.6689 10.339H10.2943C10.7341 10.339 11.0988 9.9815 11.0988 9.53734C11.0988 9.09317 10.7341 8.72484 10.2943 8.72484ZM13.4126 1.148C13.4126 0.681087 13.9736 0.449254 14.2943 0.786171C15.4538 2.00384 17.4799 4.13259 18.6126 5.32209C18.9258 5.65034 18.6963 6.19525 18.2447 6.19634C17.363 6.19959 16.3237 6.19634 15.576 6.18875C14.3897 6.18875 13.4126 5.20184 13.4126 4.00367V1.148Z" fill="#1776BA"/>
</svg>
