<svg width="24" height="24" viewBox="0 0 24 24" fill="none" xmlns="http://www.w3.org/2000/svg">
<path d="M17.0633 0.33252C21.0183 0.33252 23.6666 3.10919 23.6666 7.23919V16.772C23.6666 20.8904 21.0183 23.6659 17.0633 23.6659H6.94825C2.99325 23.6659 0.333252 20.8904 0.333252 16.772V7.23919C0.333252 3.10919 2.99325 0.33252 6.94825 0.33252H17.0633ZM11.9883 10.227C11.4283 10.227 10.9733 10.6925 10.9733 11.2537V16.4104C10.9733 16.9704 11.4283 17.4254 11.9883 17.4254C12.5599 17.4254 13.0149 16.9704 13.0149 16.4104V11.2537C13.0149 10.6925 12.5599 10.227 11.9883 10.227ZM12.0116 6.52869C11.4399 6.52869 10.9849 6.98369 10.9849 7.55535C10.9849 8.11419 11.4399 8.57035 11.9883 8.57035C12.5716 8.57035 13.0266 8.11419 13.0266 7.55535C13.0266 6.98369 12.5716 6.52869 12.0116 6.52869Z" fill="#2E3234"/>
</svg>
