<svg width="24" height="24" viewBox="0 0 24 24" fill="none" xmlns="http://www.w3.org/2000/svg">
<path d="M12.8366 0.333496C13.7189 0.333496 14.5177 0.823496 14.9589 1.54683C15.1735 1.89683 15.3166 2.3285 15.2808 2.7835C15.2569 3.1335 15.3642 3.4835 15.555 3.81016C16.1631 4.80183 17.5104 5.17516 18.5596 4.61516C19.7399 3.9385 21.2303 4.34683 21.9099 5.50183L22.7087 6.8785C23.4002 8.0335 23.0187 9.51516 21.8264 10.1802C20.813 10.7752 20.4553 12.0935 21.0634 13.0968C21.2541 13.4118 21.4687 13.6802 21.8026 13.8435C22.2199 14.0652 22.5418 14.4152 22.7683 14.7652C23.2095 15.4885 23.1737 16.3752 22.7445 17.1568L21.9099 18.5568C21.4687 19.3035 20.6461 19.7702 19.7995 19.7702C19.3822 19.7702 18.9172 19.6535 18.5357 19.4202C18.2257 19.2218 17.868 19.1518 17.4865 19.1518C16.3061 19.1518 15.3166 20.1202 15.2808 21.2752C15.2808 22.6168 14.1839 23.6668 12.8128 23.6668H11.1912C9.8082 23.6668 8.7113 22.6168 8.7113 21.2752C8.68745 20.1202 7.69786 19.1518 6.5175 19.1518C6.12404 19.1518 5.76636 19.2218 5.46829 19.4202C5.08676 19.6535 4.60984 19.7702 4.20447 19.7702C3.34602 19.7702 2.52335 19.3035 2.0822 18.5568L1.25953 17.1568C0.818382 16.3985 0.794536 15.4885 1.23568 14.7652C1.42645 14.4152 1.78413 14.0652 2.18951 13.8435C2.52335 13.6802 2.73796 13.4118 2.94065 13.0968C3.53679 12.0935 3.1791 10.7752 2.16566 10.1802C0.985302 9.51516 0.603771 8.0335 1.28337 6.8785L2.0822 5.50183C2.77373 4.34683 4.25216 3.9385 5.44444 4.61516C6.48173 5.17516 7.82901 4.80183 8.43707 3.81016C8.62784 3.4835 8.73515 3.1335 8.7113 2.7835C8.68745 2.3285 8.8186 1.89683 9.04514 1.54683C9.48628 0.823496 10.2851 0.356829 11.1555 0.333496H12.8366ZM12.0139 8.71016C10.142 8.71016 8.62784 10.1802 8.62784 12.0118C8.62784 13.8435 10.142 15.3018 12.0139 15.3018C13.8858 15.3018 15.3642 13.8435 15.3642 12.0118C15.3642 10.1802 13.8858 8.71016 12.0139 8.71016Z" fill="#2E3234"/>
</svg>
