<svg width="28" height="28" viewBox="0 0 28 28" fill="none" xmlns="http://www.w3.org/2000/svg">
<path d="M14.8366 2.3335C15.7189 2.3335 16.5178 2.8235 16.9589 3.54683C17.1735 3.89683 17.3166 4.3285 17.2808 4.7835C17.257 5.1335 17.3643 5.4835 17.5551 5.81016C18.1631 6.80183 19.5104 7.17516 20.5596 6.61516C21.74 5.9385 23.2303 6.34683 23.9099 7.50183L24.7088 8.8785C25.4003 10.0335 25.0187 11.5152 23.8265 12.1802C22.813 12.7752 22.4553 14.0935 23.0634 15.0968C23.2542 15.4118 23.4688 15.6802 23.8026 15.8435C24.2199 16.0652 24.5418 16.4152 24.7684 16.7652C25.2095 17.4885 25.1737 18.3752 24.7445 19.1568L23.9099 20.5568C23.4688 21.3035 22.6461 21.7702 21.7996 21.7702C21.3823 21.7702 20.9173 21.6535 20.5358 21.4202C20.2258 21.2218 19.8681 21.1518 19.4866 21.1518C18.3062 21.1518 17.3166 22.1202 17.2808 23.2752C17.2808 24.6168 16.1839 25.6668 14.8128 25.6668H13.1913C11.8082 25.6668 10.7113 24.6168 10.7113 23.2752C10.6875 22.1202 9.6979 21.1518 8.51754 21.1518C8.12409 21.1518 7.7664 21.2218 7.46833 21.4202C7.0868 21.6535 6.60989 21.7702 6.20451 21.7702C5.34607 21.7702 4.52339 21.3035 4.08225 20.5568L3.25957 19.1568C2.81843 18.3985 2.79458 17.4885 3.23573 16.7652C3.42649 16.4152 3.78418 16.0652 4.18955 15.8435C4.52339 15.6802 4.738 15.4118 4.94069 15.0968C5.53683 14.0935 5.17915 12.7752 4.16571 12.1802C2.98535 11.5152 2.60382 10.0335 3.28342 8.8785L4.08225 7.50183C4.77377 6.34683 6.2522 5.9385 7.44449 6.61516C8.48177 7.17516 9.82906 6.80183 10.4371 5.81016C10.6279 5.4835 10.7352 5.1335 10.7113 4.7835C10.6875 4.3285 10.8187 3.89683 11.0452 3.54683C11.4863 2.8235 12.2852 2.35683 13.1555 2.3335H14.8366ZM14.014 10.7102C12.1421 10.7102 10.6279 12.1802 10.6279 14.0118C10.6279 15.8435 12.1421 17.3018 14.014 17.3018C15.8859 17.3018 17.3643 15.8435 17.3643 14.0118C17.3643 12.1802 15.8859 10.7102 14.014 10.7102Z" fill="#1776BA"/>
</svg>
