<svg width="42" height="42" viewBox="0 0 42 42" fill="none" xmlns="http://www.w3.org/2000/svg">
<path d="M30.0415 0.166504C37.1019 0.166504 41.8332 5.12484 41.8332 12.4998V29.5207C41.8332 36.8748 37.1019 41.8332 30.0415 41.8332H11.979C4.9165 41.8332 0.166504 36.8748 0.166504 29.5207V12.4998C0.166504 5.12484 4.9165 0.166504 11.979 0.166504H30.0415ZM22.104 11.3748C21.5207 10.7915 20.479 10.7915 19.8957 11.3748L12.0832 19.229C11.479 19.8332 11.479 20.8332 12.0832 21.4373C12.7082 22.0415 13.6873 22.0415 14.3123 21.4373L19.4373 16.2707V29.4998C19.4373 30.3748 20.1457 31.0623 20.9998 31.0623C21.8748 31.0623 22.5623 30.3748 22.5623 29.4998V16.2707L27.7082 21.4373C27.9998 21.729 28.4165 21.8957 28.8123 21.8957C29.2061 21.8957 29.604 21.729 29.9165 21.4373C30.5207 20.8332 30.5207 19.8332 29.9165 19.229L22.104 11.3748Z" fill="#1776BA"/>
</svg>
