<svg width="22" height="22" viewBox="0 0 22 22" fill="none" xmlns="http://www.w3.org/2000/svg">
<path d="M21.0373 12.9243C20.965 12.9784 20.8829 13.0178 20.7954 13.0402C20.7079 13.0627 20.6169 13.0676 20.5275 13.0548C20.4382 13.0421 20.3522 13.0118 20.2745 12.9658C20.1968 12.9198 20.1289 12.859 20.0748 12.7868C19.6604 12.2298 19.121 11.7778 18.5001 11.4674C17.8792 11.1569 17.194 10.9966 16.4998 10.9993C16.3646 10.9992 16.2324 10.9594 16.1197 10.8846C16.0071 10.8099 15.919 10.7036 15.8664 10.579C15.8307 10.4944 15.8123 10.4036 15.8123 10.3118C15.8123 10.22 15.8307 10.1291 15.8664 10.0445C15.919 9.91993 16.0071 9.81363 16.1197 9.73889C16.2324 9.66414 16.3646 9.62427 16.4998 9.62426C16.8855 9.62422 17.2635 9.51601 17.5909 9.31191C17.9182 9.10781 18.1817 8.81601 18.3515 8.46964C18.5213 8.12327 18.5906 7.73623 18.5514 7.35247C18.5123 6.96871 18.3663 6.60362 18.1301 6.29867C17.8939 5.99372 17.5768 5.76113 17.215 5.62732C16.8532 5.49351 16.4612 5.46385 16.0833 5.5417C15.7055 5.61955 15.3571 5.80179 15.0777 6.06773C14.7983 6.33366 14.599 6.67263 14.5026 7.04613C14.48 7.1336 14.4404 7.21576 14.3861 7.28792C14.3318 7.36009 14.2638 7.42085 14.186 7.46674C14.1082 7.51262 14.0221 7.54273 13.9327 7.55535C13.8432 7.56797 13.7522 7.56284 13.6647 7.54027C13.5772 7.5177 13.4951 7.47813 13.4229 7.4238C13.3507 7.36948 13.29 7.30147 13.2441 7.22367C13.1982 7.14586 13.1681 7.05978 13.1555 6.97034C13.1429 6.8809 13.148 6.78985 13.1706 6.70238C13.3044 6.18445 13.5573 5.7049 13.9091 5.3019C14.2609 4.8989 14.7019 4.58357 15.197 4.381C15.6921 4.17842 16.2277 4.0942 16.7611 4.13503C17.2944 4.17585 17.8109 4.34061 18.2695 4.61617C18.728 4.89174 19.1158 5.27052 19.4022 5.72237C19.6886 6.17422 19.8655 6.68666 19.919 7.21893C19.9725 7.75121 19.901 8.28861 19.7102 8.78839C19.5194 9.28816 19.2146 9.73652 18.8201 10.0978C19.7549 10.5025 20.5676 11.1448 21.1774 11.9609C21.2315 12.0333 21.2709 12.1157 21.2931 12.2033C21.3154 12.291 21.3202 12.3822 21.3072 12.4716C21.2942 12.5611 21.2636 12.6472 21.2173 12.7248C21.171 12.8025 21.1098 12.8703 21.0373 12.9243ZM16.407 18.218C16.4567 18.2963 16.4901 18.3838 16.5052 18.4753C16.5202 18.5667 16.5166 18.6603 16.4945 18.7504C16.4725 18.8405 16.4324 18.9251 16.3768 18.9993C16.3212 19.0735 16.2511 19.1356 16.1708 19.1821C16.0905 19.2285 16.0017 19.2581 15.9097 19.2693C15.8176 19.2805 15.7243 19.2729 15.6352 19.2471C15.5462 19.2213 15.4633 19.1777 15.3915 19.119C15.3197 19.0603 15.2606 18.9877 15.2176 18.9055C14.7845 18.1722 14.1677 17.5644 13.428 17.1422C12.6884 16.7201 11.8514 16.498 10.9998 16.498C10.1481 16.498 9.31116 16.7201 8.5715 17.1422C7.83185 17.5644 7.21505 18.1722 6.78196 18.9055C6.73898 18.9877 6.67983 19.0603 6.60806 19.119C6.53628 19.1777 6.45338 19.2213 6.36433 19.2471C6.27528 19.2729 6.18192 19.2805 6.08988 19.2693C5.99783 19.2581 5.909 19.2285 5.82872 19.1821C5.74845 19.1356 5.67838 19.0735 5.62276 18.9993C5.56713 18.9251 5.52708 18.8405 5.50502 18.7504C5.48296 18.6603 5.47934 18.5667 5.49439 18.4753C5.50944 18.3838 5.54284 18.2963 5.59259 18.218C6.25911 17.0728 7.27541 16.1716 8.49212 15.6468C7.80748 15.1226 7.30431 14.397 7.05335 13.5721C6.80239 12.7471 6.81625 11.8643 7.09298 11.0476C7.36971 10.231 7.8954 9.52159 8.59616 9.01915C9.29692 8.51671 10.1375 8.2465 10.9998 8.2465C11.862 8.2465 12.7026 8.51671 13.4034 9.01915C14.1041 9.52159 14.6298 10.231 14.9066 11.0476C15.1833 11.8643 15.1972 12.7471 14.9462 13.5721C14.6952 14.397 14.1921 15.1226 13.5074 15.6468C14.7241 16.1716 15.7404 17.0728 16.407 18.218ZM10.9998 15.1243C11.5437 15.1243 12.0754 14.963 12.5276 14.6608C12.9798 14.3586 13.3323 13.9291 13.5404 13.4266C13.7486 12.9241 13.803 12.3712 13.6969 11.8378C13.5908 11.3043 13.3289 10.8143 12.9443 10.4297C12.5597 10.0451 12.0697 9.78321 11.5363 9.6771C11.0028 9.57099 10.4499 9.62545 9.94739 9.83359C9.4449 10.0417 9.01541 10.3942 8.71323 10.8464C8.41106 11.2987 8.24977 11.8304 8.24977 12.3743C8.24977 13.1036 8.5395 13.8031 9.05523 14.3188C9.57095 14.8345 10.2704 15.1243 10.9998 15.1243ZM6.18727 10.3118C6.18727 10.1294 6.11484 9.95455 5.98591 9.82562C5.85698 9.69669 5.68211 9.62426 5.49977 9.62426C5.11402 9.62422 4.73601 9.51601 4.40868 9.31191C4.08135 9.10781 3.81782 8.81601 3.64802 8.46964C3.47822 8.12327 3.40896 7.73623 3.4481 7.35247C3.48724 6.96871 3.63322 6.60362 3.86946 6.29867C4.10569 5.99372 4.42272 5.76113 4.78451 5.62732C5.14631 5.49351 5.53838 5.46385 5.9162 5.5417C6.29401 5.61955 6.64242 5.80179 6.92184 6.06773C7.20127 6.33366 7.40052 6.67263 7.49696 7.04613C7.54254 7.22277 7.65643 7.37407 7.81357 7.46674C7.9707 7.55941 8.15821 7.58586 8.33485 7.54027C8.51149 7.49469 8.66278 7.3808 8.75545 7.22367C8.84812 7.06653 8.87458 6.87902 8.82899 6.70238C8.69514 6.18445 8.44225 5.7049 8.09045 5.3019C7.73866 4.8989 7.29766 4.58357 6.80254 4.381C6.30743 4.17842 5.77188 4.0942 5.23849 4.13503C4.7051 4.17585 4.1886 4.34061 3.73008 4.61617C3.27157 4.89174 2.8837 5.27052 2.59734 5.72237C2.31097 6.17422 2.13402 6.68666 2.08055 7.21893C2.02708 7.75121 2.09858 8.28861 2.28936 8.78839C2.48013 9.28816 2.78492 9.73652 3.17946 10.0978C2.24556 10.5029 1.43382 11.1452 0.824772 11.9609C0.715257 12.1068 0.668173 12.2902 0.693878 12.4708C0.719584 12.6513 0.815974 12.8143 0.961843 12.9238C1.10771 13.0333 1.29111 13.0804 1.4717 13.0547C1.65228 13.029 1.81526 12.9326 1.92477 12.7868C2.33915 12.2298 2.87852 11.7778 3.49946 11.4674C4.12039 11.1569 4.80555 10.9966 5.49977 10.9993C5.68211 10.9993 5.85698 10.9268 5.98591 10.7979C6.11484 10.669 6.18727 10.4941 6.18727 10.3118Z" fill="#737373"/>
</svg>
