<svg width="22" height="22" viewBox="0 0 22 22" fill="none" xmlns="http://www.w3.org/2000/svg">
<path d="M7.5625 8.25C7.5625 8.06766 7.63493 7.8928 7.76386 7.76386C7.8928 7.63493 8.06766 7.5625 8.25 7.5625H13.75C13.9323 7.5625 14.1072 7.63493 14.2361 7.76386C14.3651 7.8928 14.4375 8.06766 14.4375 8.25C14.4375 8.43234 14.3651 8.6072 14.2361 8.73614C14.1072 8.86507 13.9323 8.9375 13.75 8.9375H8.25C8.06766 8.9375 7.8928 8.86507 7.76386 8.73614C7.63493 8.6072 7.5625 8.43234 7.5625 8.25ZM8.25 11.6875H13.75C13.9323 11.6875 14.1072 11.6151 14.2361 11.4861C14.3651 11.3572 14.4375 11.1823 14.4375 11C14.4375 10.8177 14.3651 10.6428 14.2361 10.5139C14.1072 10.3849 13.9323 10.3125 13.75 10.3125H8.25C8.06766 10.3125 7.8928 10.3849 7.76386 10.5139C7.63493 10.6428 7.5625 10.8177 7.5625 11C7.5625 11.1823 7.63493 11.3572 7.76386 11.4861C7.8928 11.6151 8.06766 11.6875 8.25 11.6875ZM11 13.0625H8.25C8.06766 13.0625 7.8928 13.1349 7.76386 13.2639C7.63493 13.3928 7.5625 13.5677 7.5625 13.75C7.5625 13.9323 7.63493 14.1072 7.76386 14.2361C7.8928 14.3651 8.06766 14.4375 8.25 14.4375H11C11.1823 14.4375 11.3572 14.3651 11.4861 14.2361C11.6151 14.1072 11.6875 13.9323 11.6875 13.75C11.6875 13.5677 11.6151 13.3928 11.4861 13.2639C11.3572 13.1349 11.1823 13.0625 11 13.0625ZM19.25 4.125V13.4655C19.2506 13.6462 19.2152 13.8251 19.146 13.992C19.0769 14.1588 18.9752 14.3103 18.847 14.4375L14.4375 18.847C14.3103 18.9752 14.1588 19.0769 13.992 19.146C13.8251 19.2152 13.6462 19.2506 13.4655 19.25H4.125C3.76033 19.25 3.41059 19.1051 3.15273 18.8473C2.89487 18.5894 2.75 18.2397 2.75 17.875V4.125C2.75 3.76033 2.89487 3.41059 3.15273 3.15273C3.41059 2.89487 3.76033 2.75 4.125 2.75H17.875C18.2397 2.75 18.5894 2.89487 18.8473 3.15273C19.1051 3.41059 19.25 3.76033 19.25 4.125ZM4.125 17.875H13.0625V13.75C13.0625 13.5677 13.1349 13.3928 13.2639 13.2639C13.3928 13.1349 13.5677 13.0625 13.75 13.0625H17.875V4.125H4.125V17.875ZM14.4375 14.4375V16.9039L16.903 14.4375H14.4375Z" fill="#737373"/>
</svg>
