<svg width="22" height="22" viewBox="0 0 22 22" fill="none" xmlns="http://www.w3.org/2000/svg">
<path d="M19.0609 15.1198C18.584 14.2983 17.875 11.9737 17.875 8.9375C17.875 7.11414 17.1507 5.36545 15.8613 4.07614C14.572 2.78683 12.8233 2.0625 11 2.0625C9.17662 2.0625 7.42793 2.78683 6.13862 4.07614C4.84931 5.36545 4.12498 7.11414 4.12498 8.9375C4.12498 11.9745 3.41514 14.2983 2.93818 15.1198C2.81638 15.3287 2.75181 15.566 2.75098 15.8078C2.75015 16.0496 2.81309 16.2873 2.93346 16.497C3.05382 16.7067 3.22735 16.8809 3.43654 17.0022C3.64573 17.1234 3.8832 17.1873 4.12498 17.1875H7.63209C7.79071 17.9637 8.21253 18.6612 8.82622 19.1622C9.43991 19.6631 10.2078 19.9367 11 19.9367C11.7922 19.9367 12.5601 19.6631 13.1737 19.1622C13.7874 18.6612 14.2093 17.9637 14.3679 17.1875H17.875C18.1167 17.1872 18.354 17.1231 18.5631 17.0018C18.7722 16.8805 18.9456 16.7063 19.0659 16.4966C19.1861 16.2869 19.249 16.0493 19.2481 15.8076C19.2472 15.5659 19.1827 15.3286 19.0609 15.1198ZM11 18.5625C10.5736 18.5624 10.1577 18.4301 9.80957 18.1838C9.46145 17.9376 9.19821 17.5895 9.05607 17.1875H12.9439C12.8018 17.5895 12.5385 17.9376 12.1904 18.1838C11.8423 18.4301 11.4264 18.5624 11 18.5625ZM4.12498 15.8125C4.7867 14.6747 5.49998 12.0381 5.49998 8.9375C5.49998 7.47881 6.07944 6.07986 7.11089 5.04841C8.14234 4.01696 9.54129 3.4375 11 3.4375C12.4587 3.4375 13.8576 4.01696 14.8891 5.04841C15.9205 6.07986 16.5 7.47881 16.5 8.9375C16.5 12.0355 17.2115 14.6721 17.875 15.8125H4.12498Z" fill="#737373"/>
</svg>
