<svg width="35" height="35" viewBox="0 0 35 35" fill="none" xmlns="http://www.w3.org/2000/svg">
<path d="M17.5 0.84375C14.2057 0.84375 10.9854 1.82062 8.24629 3.65083C5.50718 5.48105 3.37231 8.0824 2.11164 11.1259C0.850967 14.1695 0.521118 17.5185 1.1638 20.7495C1.80649 23.9805 3.39284 26.9483 5.72226 29.2777C8.05168 31.6072 11.0195 33.1935 14.2505 33.8362C17.4815 34.4789 20.8305 34.149 23.8741 32.8884C26.9176 31.6277 29.519 29.4928 31.3492 26.7537C33.1794 24.0146 34.1563 20.7943 34.1563 17.5C34.1507 13.0842 32.3941 8.8508 29.2717 5.72834C26.1492 2.60588 21.9158 0.849259 17.5 0.84375ZM14.9375 22.625C14.9375 22.9648 14.8025 23.2907 14.5622 23.531C14.322 23.7713 13.9961 23.9062 13.6563 23.9062C13.3164 23.9062 12.9906 23.7713 12.7503 23.531C12.51 23.2907 12.375 22.9648 12.375 22.625V12.375C12.375 12.0352 12.51 11.7093 12.7503 11.469C12.9906 11.2287 13.3164 11.0938 13.6563 11.0938C13.9961 11.0938 14.322 11.2287 14.5622 11.469C14.8025 11.7093 14.9375 12.0352 14.9375 12.375V22.625ZM22.625 22.625C22.625 22.9648 22.49 23.2907 22.2497 23.531C22.0095 23.7713 21.6836 23.9062 21.3438 23.9062C21.0039 23.9062 20.6781 23.7713 20.4378 23.531C20.1975 23.2907 20.0625 22.9648 20.0625 22.625V12.375C20.0625 12.0352 20.1975 11.7093 20.4378 11.469C20.6781 11.2287 21.0039 11.0938 21.3438 11.0938C21.6836 11.0938 22.0095 11.2287 22.2497 11.469C22.49 11.7093 22.625 12.0352 22.625 12.375V22.625Z" fill="white"/>
</svg>
