<?xml version="1.0" standalone="no"?>
<!DOCTYPE svg PUBLIC "-//W3C//DTD SVG 1.1//EN" "http://www.w3.org/Graphics/SVG/1.1/DTD/svg11.dtd" >
<svg xmlns="http://www.w3.org/2000/svg" xmlns:xlink="http://www.w3.org/1999/xlink" version="1.1">
<metadata>
Created by FontForge 20170731 at Sun Apr 23 04:35:10 2017
 By Aleksey,,,
Copyright (c) 2016 by Deni Anggara. All rights reserved.
</metadata>
<defs>
<font id="Biotif-RegularItalic" horiz-adv-x="0" >
  <font-face 
    font-family="Biotif Italic"
    font-weight="400"
    font-style="italic"
    font-stretch="normal"
    units-per-em="1000"
    panose-1="0 0 5 0 0 0 0 0 0 0"
    ascent="762"
    descent="-238"
    x-height="487"
    cap-height="720"
    bbox="-536 -247 1488 1037"
    underline-thickness="80"
    underline-position="-275"
    slope="-8"
    unicode-range="U+0020-FB02"
  />
<missing-glyph horiz-adv-x="555" 
d="M455 -247h-352v1110h352v-1110zM186 789v-37h73v-41h-74v-37h185v37h-74v41h74v37h-184zM185 645v-115h185v38h-74v77h-111zM259 568h-37v40h37v-40zM185 500v-37h74v-41h-74v-36h111v77h74v37h-185zM333 433v-73h-148v-38h185v111h-37zM259 298v-62h37v25h37v-52h-111
v89h-37v-125h185v125h-111zM185 106v-125h185v125h-185zM333 17h-111v52h111v-52zM185 -45v-37h78l-78 -52v-36h185v36h-114l78 52h36v37h-185z" />
    <glyph glyph-name="fi" unicode="fi" horiz-adv-x="566" 
d="M529 486l-68 -486h-83l58 415h-224l-58 -415h-82l58 415h-73l10 72h73l15 105q20 138 153 140q16 0 32 -1.5t32 -5.5l-12 -71q-14 2 -25 3.5t-19 1.5q-34 0 -54.5 -18.5t-26.5 -61.5l-13 -92zM574 669q0 -28 -20.5 -48t-49.5 -20q-24 0 -39 15t-15 39q0 28 21 48.5
t50 20.5q24 0 38.5 -15.5t14.5 -39.5z" />
    <glyph glyph-name="fl" unicode="fl" horiz-adv-x="537" 
d="M555 732l-103 -732h-82l59 415h-217l-58 -415h-82l58 415h-73l10 72h73l15 105q20 138 153 140q16 0 32 -1.5t32 -5.5l-12 -71q-14 2 -25 3.5t-19 1.5q-34 0 -54.5 -18.5t-26.5 -61.5l-13 -92h217l34 245h82z" />
    <glyph glyph-name="f_f" unicode="ff" horiz-adv-x="653" 
d="M630 659q-34 0 -54.5 -18.5t-26.5 -61.5l-13 -92h99l-9 -72h-100l-59 -415h-82l58 415h-73h-158l-58 -415h-82l58 415h-73l10 72h73l15 105q20 138 153 140q16 0 32 -1.5t32 -5.5l-12 -71q-14 2 -25 3.5t-19 1.5q-34 0 -54.5 -18.5t-26.5 -61.5l-13 -92h169h62l15 105
q20 138 153 140q33 0 65 -7l-13 -71q-13 2 -23.5 3.5t-19.5 1.5z" />
    <glyph glyph-name="f_f_i" unicode="ffi" horiz-adv-x="879" 
d="M534 487l308 -1l-10 -71l-58 -415h-83l58 415h-225l-59 -415h-82l58 415h-229l-58 -415h-82l58 415h-73l10 72h73l15 105q20 138 153 140q16 0 32 -1.5t32 -5.5l-12 -71q-14 2 -25 3.5t-19 1.5q-34 0 -54.5 -18.5t-26.5 -61.5l-13 -92h229l15 105q20 138 153 140
q33 0 65 -7l-13 -71q-13 2 -23.5 3.5t-19.5 1.5q-34 0 -54.5 -18.5t-26.5 -61.5zM887 669q0 -28 -20.5 -48t-49.5 -20q-24 0 -39 15t-15 39q0 28 21 48.5t50 20.5q24 0 38.5 -15.5t14.5 -39.5z" />
    <glyph glyph-name="f_f_l" unicode="ffl" horiz-adv-x="850" 
d="M868 732l-103 -732h-82l59 415h-218l-59 -415h-82l58 415h-229l-58 -415h-82l58 415h-73l10 72h73l15 105q20 138 153 140q16 0 32 -1.5t32 -5.5l-12 -71q-14 2 -25 3.5t-19 1.5q-34 0 -54.5 -18.5t-26.5 -61.5l-13 -92h229l15 105q20 138 153 140q33 0 65 -7l-13 -71
q-13 2 -23.5 3.5t-19.5 1.5q-34 0 -54.5 -18.5t-26.5 -61.5l-13 -92h218l34 245h82z" />
    <glyph glyph-name="f_t" unicode="ft" horiz-adv-x="633" 
d="M646 415h-117l-58 -415h-82l59 415h-236l-58 -415h-82l58 415h-73l10 72h73l15 105q20 138 153 140q16 0 32 -1.5t32 -5.5l-12 -71q-14 2 -25 3.5t-19 1.5q-34 0 -54.5 -18.5t-26.5 -61.5l-13 -92h236l21 153h82l-22 -153h116z" />
    <glyph glyph-name="f_y" unicode="fy" horiz-adv-x="768" 
d="M794 487l-315 -611q-53 -101 -152 -101q-28 0 -55 8t-46 19l33 72q14 -11 32.5 -18t37.5 -7q53 0 81 57l29 57l-118 452h-109l-58 -415h-82l58 415h-73l10 72h73l15 105q20 138 153 140q16 0 32 -1.5t32 -5.5l-12 -71q-14 2 -25 3.5t-19 1.5q-34 0 -54.5 -18.5
t-26.5 -61.5l-13 -92h167h1v-4l101 -416l211 420h92z" />
    <glyph glyph-name="t_i" unicode="ti" horiz-adv-x="541" 
d="M560 669q0 -28 -20.5 -48t-49.5 -20q-24 0 -39 15t-15 39q0 28 21 48.5t50 20.5q24 0 38.5 -15.5t14.5 -39.5zM447 0h-83l58 415h-187l-58 -415h-82l58 415h-96l10 72h96l22 153h82l-22 -153h270z" />
    <glyph glyph-name="t_t" unicode="tt" horiz-adv-x="636" 
d="M639 415h-96l-59 -415h-82l59 415h-96h-130l-58 -415h-82l58 415h-96l10 72h96l22 153h82l-22 -153h166h60l21 153h82l-21 -153h95z" />
    <glyph glyph-name="t_y" unicode="ty" horiz-adv-x="784" 
d="M810 487l-314 -603q-30 -57 -72.5 -83t-88.5 -26q-52 0 -93 27l32 72q31 -22 67 -22q55 0 82 54l30 60l-117 449h-101l-58 -415h-82l58 415h-96l10 72h96l22 153h82l-22 -153h157h2l102 -418l211 418h93z" />
    <glyph glyph-name=".notdef" horiz-adv-x="555" 
d="M455 -247h-352v1110h352v-1110zM186 789v-37h73v-41h-74v-37h185v37h-74v41h74v37h-184zM185 645v-115h185v38h-74v77h-111zM259 568h-37v40h37v-40zM185 500v-37h74v-41h-74v-36h111v77h74v37h-185zM333 433v-73h-148v-38h185v111h-37zM259 298v-62h37v25h37v-52h-111
v89h-37v-125h185v125h-111zM185 106v-125h185v125h-185zM333 17h-111v52h111v-52zM185 -45v-37h78l-78 -52v-36h185v36h-114l78 52h36v37h-185z" />
    <glyph glyph-name=".null" 
 />
    <glyph glyph-name="nonmarkingreturn" horiz-adv-x="333" 
 />
    <glyph glyph-name="space" unicode=" " horiz-adv-x="267" 
 />
    <glyph glyph-name="exclam" unicode="!" horiz-adv-x="253" 
d="M89 164q1 54 6.5 117t16.5 136l43 302h93l-43 -302q-6 -39 -11 -72t-10.5 -63.5t-12 -59t-14.5 -58.5h-68zM42 43q0 30 22 50.5t53 20.5q24 0 40 -16t16 -40q0 -29 -22.5 -50t-52.5 -21q-24 0 -40 16t-16 40z" />
    <glyph glyph-name="quotedbl" unicode="&#x22;" horiz-adv-x="304" 
d="M171 452h-51l7 184q1 26 17 40t36 14q16 0 26.5 -9.5t10.5 -27.5q0 -2 -0.5 -6.5t-1.5 -10.5zM312 452h-52l7 184q1 26 17.5 40t36.5 14q16 0 26.5 -9.5t10.5 -28.5q0 -2 -0.5 -6t-1.5 -10z" />
    <glyph glyph-name="numbersign" unicode="#" horiz-adv-x="637" 
d="M519 432l-28 -144h110l-15 -83h-112l-40 -205h-83l41 205h-162l-41 -205h-82l40 205h-102l15 83h103l29 144h-118l15 82h119l40 205h82l-40 -205h163l41 205h81l-40 -205h105l-16 -82h-105zM437 432h-163l-28 -144h162z" />
    <glyph glyph-name="dollar" unicode="$" horiz-adv-x="653" 
d="M569 208q0 -47 -17 -85.5t-49 -67t-76.5 -46t-100.5 -20.5l-11 -79h-67l11 80q-91 10 -143.5 59.5t-51.5 127.5l85 13q-1 -52 31 -83.5t90 -39.5l37 264l-24 7q-146 42 -146 170q0 44 17 82.5t47 68.5t72 49.5t91 23.5l10 70h66l-9 -70q79 -8 131 -54t59 -116l-85 -22
q-4 48 -34.5 78t-81.5 37l-37 -258l28 -8q72 -21 115 -65t43 -116zM319 415l34 238q-58 -10 -93.5 -48.5t-35.5 -86.5q0 -75 92 -102zM484 201q0 80 -102 108l-11 3l-34 -245q72 7 109.5 45t37.5 89z" />
    <glyph glyph-name="percent" unicode="%" horiz-adv-x="916" 
d="M276 732q66 0 106.5 -44t40.5 -119q0 -47 -14 -87t-39 -69.5t-58 -46t-72 -16.5q-65 0 -107 45t-42 117q0 47 13.5 87.5t38.5 70t59 46t74 16.5zM154 0l548 719h88l-549 -719h-87zM243 417q50 0 81 43t31 103q0 46 -22.5 73.5t-59.5 27.5q-25 0 -46 -11.5t-36 -31
t-23.5 -46t-8.5 -56.5q0 -48 23 -75t61 -27zM717 368q66 0 106.5 -44t40.5 -119q0 -47 -14 -87t-38.5 -69.5t-58 -46t-71.5 -16.5q-33 0 -60.5 12t-47.5 33t-31 51t-11 66q0 47 13.5 87.5t38.5 70t59 46t74 16.5zM685 53q49 0 80 43q32 44 32 103q0 46 -22.5 73.5
t-59.5 27.5q-25 0 -46 -11.5t-36 -31t-23.5 -46t-8.5 -56.5q0 -48 23 -75t61 -27z" />
    <glyph glyph-name="ampersand" unicode="&#x26;" horiz-adv-x="698" 
d="M257 418q-31 45 -48.5 83.5t-17.5 76.5q0 33 12 61.5t34 49.5t52.5 32.5t66.5 11.5q69 0 113 -40q45 -39 45 -105q0 -60 -39 -105.5t-111 -83.5l147 -212q32 63 39 159l83 2q-4 -67 -23.5 -126t-50.5 -104l81 -118h-96l-42 62q-42 -37 -97 -55.5t-116 -18.5
q-114 0 -176.5 50t-62.5 138q0 38 13 69.5t38.5 60.5t64.5 56t91 56zM327 454q51 29 79 59.5t28 69.5q0 36 -22.5 56.5t-56.5 20.5q-38 0 -61 -23.5t-23 -60.5q0 -25 13 -52.5t43 -69.5zM301 61q48 0 89 16t71 44l-166 243q-26 -16 -47.5 -30t-37.5 -25q-31 -23 -53.5 -55
t-22.5 -71q0 -55 44.5 -88.5t122.5 -33.5z" />
    <glyph glyph-name="quotesingle" unicode="'" horiz-adv-x="194" 
d="M189 453h-57l7 189q1 29 18.5 43.5t39.5 14.5q17 0 28.5 -10.5t11.5 -30.5q0 -2 -0.5 -6.5t-1.5 -10.5z" />
    <glyph glyph-name="parenleft" unicode="(" horiz-adv-x="237" 
d="M130 -71q-22 32 -38.5 72t-28.5 88q-24 95 -24 195q0 144 57 282q59 140 158 244h71q-92 -102 -147 -244q-56 -142 -56 -290q0 -97 20 -192q21 -92 59 -155h-71z" />
    <glyph glyph-name="parenright" unicode=")" horiz-adv-x="259" 
d="M159 464q0 50 -5.5 99t-15.5 93.5t-25 84t-33 69.5h71q45 -66 68 -160.5t23 -194.5q0 -147 -59 -285t-156 -241h-71q93 106 148 248q55 141 55 287z" />
    <glyph glyph-name="asterisk" unicode="*" horiz-adv-x="404" 
d="M283 489l36 -54l-39 -27l-37 53q-26 35 -42 76q-11 -32 -40 -76l-39 -53l-39 27l37 54q29 41 57 66q-26 5 -47 10t-37 10l-63 23l17 44l61 -21q44 -15 79 -38q-9 47 -9 87v66h47v-66q0 -44 -8 -87q34 23 78 38l61 21l18 -44l-64 -23q-22 -8 -43.5 -12.5t-40.5 -7.5
q20 -18 57 -66z" />
    <glyph glyph-name="plus" unicode="+" horiz-adv-x="635" 
d="M576 300h-213l-30 -214h-74l30 214h-214l10 74h214l30 213h74l-29 -213h212z" />
    <glyph glyph-name="comma" unicode="," horiz-adv-x="254" 
d="M190 28q0 -52 -29.5 -82.5t-71.5 -29.5v33q21 0 34 13t13 34q-8 -4 -21 -4q-23 0 -38.5 14.5t-15.5 41.5t17.5 44t44.5 17q29 0 48 -20.5t19 -60.5z" />
    <glyph glyph-name="hyphen" unicode="-" horiz-adv-x="488" 
d="M451 317l-10 -75h-385l11 75h384z" />
    <glyph glyph-name="period" unicode="." horiz-adv-x="269" 
d="M74 45q0 30 23.5 52.5t54.5 22.5q25 0 41.5 -17.5t16.5 -42.5q0 -29 -24 -51t-54 -22q-25 0 -41.5 17t-16.5 41z" />
    <glyph glyph-name="slash" unicode="/" horiz-adv-x="349" 
d="M324 733h83l-316 -733h-82z" />
    <glyph glyph-name="zero" unicode="0" horiz-adv-x="765" 
d="M436 732q63 0 115 -22.5t89.5 -65.5t58.5 -104t21 -138q1 -85 -25.5 -161t-74.5 -133t-113.5 -89.5t-141.5 -30.5q-64 0 -117 23t-91 65t-59 102t-21 135q-1 86 26.5 162.5t76.5 134t115 91t141 31.5zM365 71q59 -1 108.5 26.5t84.5 74t54.5 107t18.5 124.5
q0 56 -14 100.5t-40 76.5t-63 49t-84 17q-58 2 -107 -26t-84.5 -74.5t-55 -107t-18.5 -124.5q0 -55 13.5 -100t39.5 -77t63 -49t84 -17z" />
    <glyph glyph-name="one" unicode="1" horiz-adv-x="364" 
d="M112 643l142 77h83l-101 -720h-83l89 634l-142 -74z" />
    <glyph glyph-name="two" unicode="2" horiz-adv-x="569" 
d="M37 94l357 268q94 70 94 157q0 60 -37.5 96t-103.5 36q-69 0 -117.5 -40.5t-60.5 -112.5h-83q8 55 31.5 98.5t58.5 74t80 46.5t95 16t91 -15.5t69.5 -43t44 -65.5t15.5 -83q0 -70 -36 -126t-102 -104l-284 -213l345 1l-12 -82l-458 -2z" />
    <glyph glyph-name="three" unicode="3" horiz-adv-x="576" 
d="M567 636l-219 -187q82 -12 130.5 -66.5t48.5 -142.5q0 -58 -21 -104.5t-57 -79.5t-84 -50.5t-102 -17.5q-51 0 -93.5 16t-73 43.5t-47.5 65.5t-17 82q0 5 0.5 11.5t1.5 15.5h84q-1 -7 -1.5 -12t-0.5 -9q0 -58 40.5 -94.5t109.5 -36.5q38 0 70 12t56 33.5t37.5 52.5
t13.5 70q0 57 -33 92.5t-93 43.5q-16 3 -63 3h-42l6 60l230 199l-323 1l12 82h442z" />
    <glyph glyph-name="four" unicode="4" horiz-adv-x="614" 
d="M569 146h-89l-20 -146h-82l21 146h-357l11 83l387 491h98l-386 -491l258 -1l33 234h81l-32 -234h88z" />
    <glyph glyph-name="five" unicode="5" horiz-adv-x="604" 
d="M284 637l-76 -189q59 35 133 35q50 0 90 -17t68 -47t43 -70.5t15 -87.5q0 -58 -22 -108t-59.5 -86.5t-88.5 -57.5t-109 -21q-49 0 -92 16t-74 44.5t-49 68t-18 85.5q0 5 0.5 12.5t1.5 18.5h83q-1 -8 -1.5 -14t-0.5 -11q0 -60 41 -98.5t108 -38.5q41 0 76.5 15t61.5 41
t41 60.5t15 74.5q0 64 -40.5 105t-110.5 41q-91 0 -155 -67l-75 20l141 359h348l-12 -83h-283z" />
    <glyph glyph-name="six" unicode="6" horiz-adv-x="660" 
d="M613 266q1 -58 -20.5 -109.5t-59 -89.5t-88.5 -59.5t-108 -20.5q-64 0 -113 23t-82 63.5t-50 97.5t-17 124q0 28 3 56q7 78 33 147.5t70 122t105 83t138 29.5q72 0 133.5 -28t95.5 -86l-75 -44q-26 39 -68.5 56.5t-90.5 17.5q-52 0 -95.5 -21.5t-75.5 -58.5t-52.5 -86
t-27.5 -104q30 57 87 87.5t120 30.5q45 0 88 -16t76 -45.5t53.5 -72.5t20.5 -97zM367 419q-40 0 -75 -15.5t-61 -41.5t-40.5 -60.5t-14.5 -72.5q0 -33 11.5 -62t32.5 -51t51 -34.5t67 -12.5q39 0 73.5 15.5t60.5 41.5t41.5 60.5t15.5 72.5q0 32 -11.5 60.5t-33 51
t-51.5 35.5t-66 13z" />
    <glyph glyph-name="seven" unicode="7" horiz-adv-x="520" 
d="M565 719l-12 -85q-144 -108 -227 -246q-41 -69 -68 -127.5t-41 -107.5t-22.5 -87t-12.5 -66h-85q2 24 10 60t21 85t39 107t64 127q77 138 213 255h-367l12 85h476z" />
    <glyph glyph-name="eight" unicode="8" horiz-adv-x="627" 
d="M451 378q54 -20 82.5 -64t28.5 -101q0 -51 -21.5 -92.5t-58.5 -71t-87.5 -45.5t-109.5 -16q-51 0 -93.5 14t-74 39t-49 59.5t-17.5 75.5q0 72 47 130q47 59 123 81q-43 19 -68 57t-25 86q0 47 19 84.5t52 63.5t77.5 40t95.5 14q44 0 82 -12.5t66.5 -36t44.5 -55.5t16 -71
q0 -64 -33.5 -110t-96.5 -69zM366 657q-35 0 -64.5 -8.5t-51.5 -25t-34 -40.5t-12 -56q0 -45 36 -76.5t102 -31.5q75 0 118.5 35.5t43.5 92.5q0 51 -38.5 80.5t-99.5 29.5zM323 338q-80 0 -134 -39q-53 -39 -53 -109q0 -58 43.5 -91t112.5 -33q38 0 72.5 11t60 31t40.5 48
t15 63q0 57 -44 88t-113 31z" />
    <glyph glyph-name="nine" unicode="9" horiz-adv-x="669" 
d="M624 428q0 -103 -22 -185t-64 -139t-104 -87t-142 -30q-78 0 -140 31.5t-92 86.5l72 42q23 -36 64 -56.5t99 -20.5q103 0 164 68.5t73 195.5q-32 -53 -90 -83q-60 -29 -118 -29q-46 0 -89 16t-76 47t-52.5 75.5t-19.5 101.5q-1 54 20 104t57.5 87.5t86 59t105.5 20.5
q131 0 199 -83q69 -82 69 -222zM363 652q-42 0 -77 -15.5t-60 -41t-39 -59.5t-14 -71q0 -34 11 -64t32 -52.5t50.5 -35.5t65.5 -13q40 0 75.5 15.5t62 42t42 62t15.5 74.5q0 33 -11.5 62t-33 50t-52 33.5t-67.5 12.5z" />
    <glyph glyph-name="colon" unicode=":" horiz-adv-x="256" 
d="M86 420q0 30 23.5 52t53.5 22q25 0 42 -17t17 -42q0 -30 -24 -52t-54 -22q-24 0 -41 17.5t-17 41.5zM33 45q0 30 23.5 52.5t54.5 22.5q25 0 41.5 -17.5t16.5 -42.5q0 -29 -24 -51t-54 -22q-25 0 -41.5 17t-16.5 41z" />
    <glyph glyph-name="semicolon" unicode=";" horiz-adv-x="257" 
d="M257 435q0 -30 -24 -52t-54 -22q-24 0 -41 17.5t-17 41.5q0 30 23.5 52t53.5 22q25 0 42 -17t17 -42zM196 43q0 -29 -10.5 -53t-27.5 -40.5t-38 -25.5t-43 -8l5 33q21 0 36 13t17 34q-7 -4 -20 -4q-21 0 -34.5 12.5t-13.5 34.5q0 30 20.5 50t50.5 20q26 0 42 -16.5
t16 -49.5z" />
    <glyph glyph-name="less" unicode="&#x3c;" horiz-adv-x="420" 
d="M42 289l364 191l-12 -89l-276 -146l235 -147l-12 -86l-311 191z" />
    <glyph glyph-name="equal" unicode="=" horiz-adv-x="490" 
d="M464 442l-11 -74h-382l11 74h382zM51 224h382l-10 -73h-382z" />
    <glyph glyph-name="greater" unicode="&#x3e;" horiz-adv-x="426" 
d="M30 101l277 146l-236 146l12 87l311 -191l-12 -86l-364 -191z" />
    <glyph glyph-name="question" unicode="?" horiz-adv-x="576" 
d="M538 534q0 -56 -22 -96q-10 -21 -23 -37t-28.5 -31t-35.5 -29.5t-44 -31.5q-51 -35 -76.5 -60t-30.5 -59q-1 -3 -4 -26h-82q0 9 4 26q4 29 15 51.5t28 42t41 38.5t54 40q42 30 65 50q24 20 40 49t16 66q0 54 -35 89t-98 35q-69 0 -111 -41.5t-51 -104.5h-83q7 48 27.5 90
t52.5 72.5t75.5 48t96.5 17.5q46 0 84.5 -15t66 -41.5t43 -63t15.5 -79.5zM288 57q0 -28 -22.5 -49.5t-52.5 -21.5q-26 0 -42.5 16.5t-16.5 40.5q0 29 23 50.5t54 21.5q25 0 41 -17t16 -41z" />
    <glyph glyph-name="at" unicode="@" horiz-adv-x="932" 
d="M895 366q0 -62 -16 -116t-43.5 -93.5t-65 -62.5t-80.5 -23q-48 0 -75 28t-23 76q-25 -45 -72 -69.5t-104 -24.5q-40 0 -74.5 14t-59.5 40.5t-39 63.5t-14 83q-1 60 18.5 112.5t53.5 91t80 60t97 20.5q58 0 100.5 -28t60.5 -77l16 92h55l-62 -355q-1 -8 -1.5 -13.5
t-0.5 -9.5q0 -52 46 -52q28 -1 54 18.5t45.5 54t31.5 79.5t11 95q1 68 -23 125.5t-66.5 99t-101.5 65t-128 22.5q-81 2 -153 -29.5t-126 -86.5t-85 -128t-30 -155q0 -72 24 -133.5t67.5 -106.5t103 -70.5t131.5 -25.5q66 0 132.5 20t121.5 56l25 -49q-60 -36 -136.5 -57.5
t-148.5 -21.5q-76 -1 -146 26t-122.5 77.5t-83 121.5t-29.5 159q-2 95 34 178.5t98 145.5t145.5 97t176.5 33q83 1 153.5 -26.5t121.5 -77t79 -117t27 -146.5zM610 367q0 70 -35.5 109t-96.5 39q-41 0 -76 -18.5t-60.5 -50.5t-39.5 -74t-14 -89q0 -72 38 -111t99 -39
q72 0 120.5 52t61.5 140q3 23 3 42z" />
    <glyph glyph-name="A" unicode="A" horiz-adv-x="632" 
d="M595 0h-89l-40 185h-311l-93 -185h-86l359 720h95zM450 259l-78 356l-181 -356h259z" />
    <glyph glyph-name="B" unicode="B" horiz-adv-x="637" 
d="M588 209q0 -47 -18.5 -85.5t-52 -66t-80.5 -42.5t-103 -15h-243h-40l102 719h83h196q93 0 144 -46.5t51 -124.5q0 -69 -36.5 -117.5t-96.5 -70.5q43 -19 68.5 -56.5t25.5 -94.5zM225 645l-35 -251h191q75 0 118 40t43 100q0 51 -31 81t-91 30h-195zM506 215
q0 52 -34.5 81t-92.5 29h-199l-35 -250h189q81 0 126.5 38.5t45.5 101.5z" />
    <glyph glyph-name="C" unicode="C" horiz-adv-x="733" 
d="M650 495q-25 76 -84.5 115.5t-135.5 39.5q-61 1 -113 -24t-90 -69t-59 -103.5t-20 -127.5q0 -58 16.5 -105t46.5 -80t72.5 -51t94.5 -18q75 0 134.5 39t95.5 109l82 -34q-40 -87 -126 -143q-84 -54 -190 -54q-66 0 -124 22t-100.5 65t-67.5 105.5t-25 144.5
q-1 83 26.5 157.5t77 130.5t118 88.5t149.5 30.5q57 0 107 -16t89 -43.5t66 -64.5t38 -78z" />
    <glyph glyph-name="D" unicode="D" horiz-adv-x="719" 
d="M694 397q2 -85 -29.5 -158t-87 -126.5t-130 -83.5t-158.5 -29h-186h-52l102 720h86h134q72 0 131 -22.5t101 -64.5t65.5 -101.5t23.5 -134.5zM602 398q0 56 -16 100.5t-46.5 75.5t-74.5 48t-99 17h-138l-79 -559h121q73 0 134 23.5t105 66t68.5 101t24.5 127.5z" />
    <glyph glyph-name="E" unicode="E" horiz-adv-x="580" 
d="M227 638l-33 -238h316l-13 -77l-315 1l-34 -242l350 -1l-12 -81h-434l101 720h434l-11 -82h-349z" />
    <glyph glyph-name="F" unicode="F" horiz-adv-x="545" 
d="M226 639l-35 -250l288 -1l-12 -78l-287 1l-43 -311h-86l100 720h86h344l-12 -82z" />
    <glyph glyph-name="G" unicode="G" horiz-adv-x="759" 
d="M394 397h331l-56 -398h-76l9 91q-40 -49 -101.5 -75.5t-130.5 -26.5q-71 0 -128.5 23t-98.5 66t-63.5 104t-22.5 137q-1 86 26.5 162t77 132.5t118.5 89.5t150 31q57 0 106.5 -14.5t89 -40.5t67 -61.5t40.5 -77.5l-78 -31q-22 67 -82.5 105t-141.5 38q-66 1 -119 -25.5
t-90.5 -71.5t-57 -105t-19.5 -126q0 -61 18.5 -108t49.5 -79.5t72.5 -49.5t87.5 -17q82 0 157 45q75 46 97 160l8 47h-251z" />
    <glyph glyph-name="H" unicode="H" horiz-adv-x="711" 
d="M153 720h86l-45 -317l368 -1l44 318h86l-100 -720h-87l46 326l-367 1l-46 -327h-86z" />
    <glyph glyph-name="I" unicode="I" horiz-adv-x="251" 
d="M52 0l101 720h86l-101 -720h-86z" />
    <glyph glyph-name="J" unicode="J" horiz-adv-x="510" 
d="M507 720l-65 -457l-10 -71q-12 -90 -73 -148q-60 -57 -154 -57q-44 0 -79.5 12.5t-61 36t-39.5 56t-14 72.5q0 17 3 35l3 23h83l-3 -23q-1 -10 -1.5 -16.5t-0.5 -10.5q0 -60 36 -83q37 -22 73 -22q45 0 89 29q43 28 54 106l9 61l65 457h86z" />
    <glyph glyph-name="K" unicode="K" horiz-adv-x="624" 
d="M150 720h87l-58 -408l393 408h112l-315 -332l207 -388h-105l-163 324l-149 -153l-23 -171h-87z" />
    <glyph glyph-name="L" unicode="L" horiz-adv-x="487" 
d="M445 78l-11 -78h-369h-13l101 720h86l-89 -642h295z" />
    <glyph glyph-name="M" unicode="M" horiz-adv-x="841" 
d="M832 719l-101 -719h-86l72 512l-285 -512h-82l-143 509l-72 -509h-83l101 720h83l168 -619l342 619z" />
    <glyph glyph-name="N" unicode="N" horiz-adv-x="721" 
d="M153 720h86l300 -576l81 576h85l-100 -720h-86l-300 576l-81 -576h-86z" />
    <glyph glyph-name="O" unicode="O" horiz-adv-x="767" 
d="M429 733q70 0 127.5 -24t99 -67.5t64.5 -104t23 -134.5q1 -88 -28.5 -164t-80.5 -132t-119 -87.5t-144 -29.5q-70 0 -128 24t-99.5 67t-64.5 104t-23 134q-1 88 28.5 164.5t81 132.5t119.5 87.5t144 29.5zM372 74q58 -1 109.5 24.5t90 70t60 104.5t20.5 129
q0 55 -16 100.5t-45 78t-70.5 50.5t-92.5 18q-58 1 -109.5 -24t-90 -69.5t-60.5 -104.5t-21 -129q0 -55 16 -100.5t45 -78.5t71 -51t93 -18z" />
    <glyph glyph-name="P" unicode="P" horiz-adv-x="623" 
d="M629 515q0 -53 -18.5 -99.5t-53 -81t-82 -54.5t-106.5 -20h-195l-36 -260h-86l101 720h261q100 0 157.5 -54.5t57.5 -150.5zM539 519q0 55 -34.5 88.5t-101.5 33.5h-176l-42 -304h176q76 0 122.5 44.5t54.5 116.5q1 5 1 21z" />
    <glyph glyph-name="Q" unicode="Q" horiz-adv-x="767" 
d="M684 -1h-99l-32 40q-82 -49 -181 -49q-70 0 -128 24t-99.5 67t-64 104t-22.5 134q-1 88 28.5 164.5t80.5 132.5t119 87.5t144 29.5q70 0 128 -24t99.5 -67.5t64.5 -104t23 -134.5q0 -99 -34 -179.5t-95 -137.5zM399 234h100l62 -79q45 45 69 108.5t24 138.5
q0 55 -16 100.5t-45 78t-71 50.5t-93 18q-58 1 -109.5 -24.5t-89.5 -70t-60 -104.5t-21 -128q0 -55 16 -100.5t45.5 -78.5t70.5 -51t92 -18q66 0 126 33z" />
    <glyph glyph-name="R" unicode="R" horiz-adv-x="648" 
d="M642 527q0 -87 -45.5 -145.5t-126.5 -79.5l99 -302h-96l-92 292h-202l-41 -292h-86l101 720h86h196q96 0 151.5 -51t55.5 -142zM228 642l-38 -272h187q84 0 128.5 42t44.5 114q0 116 -132 116h-190z" />
    <glyph glyph-name="S" unicode="S" horiz-adv-x="575" 
d="M343 733q51 0 92 -13t70 -36t45 -54.5t17 -68.5l-84 -22q-3 55 -42.5 85t-105.5 30q-36 0 -66 -10t-51.5 -27.5t-33 -41.5t-11.5 -53q0 -42 24.5 -66t72.5 -39l95 -28q166 -51 166 -190q0 -46 -19 -85t-54 -67t-84.5 -43.5t-109.5 -15.5q-103 0 -166 45.5t-70 130.5
l85 21q1 -54 39 -85.5t116 -31.5q39 0 71.5 8.5t56.5 25t37 39.5t13 53q0 83 -107 115l-99 31q-78 24 -115.5 68.5t-37.5 107.5q0 47 18.5 86.5t52.5 68.5t81 45.5t104 16.5z" />
    <glyph glyph-name="T" unicode="T" horiz-adv-x="539" 
d="M588 639h-216l-89 -639h-86l89 639h-217l12 81h518z" />
    <glyph glyph-name="U" unicode="U" horiz-adv-x="699" 
d="M145 720h86l-63 -452q-3 -21 -3 -40q0 -85 50 -121q51 -36 118 -36q82 0 140.5 48t73.5 152l63 449h86l-67 -474q-18 -130 -99 -194q-80 -64 -197 -64q-49 0 -95.5 13.5t-82 42t-57 72t-21.5 103.5q0 14 1 27t3 26z" />
    <glyph glyph-name="V" unicode="V" horiz-adv-x="661" 
d="M722 720l-377 -720h-91l-177 720h95l144 -599l312 599h94z" />
    <glyph glyph-name="W" unicode="W" horiz-adv-x="990" 
d="M1044 720l-318 -720h-82l-102 573l-264 -573h-84l-113 720h92l84 -576l259 576h93l96 -578l248 578h91z" />
    <glyph glyph-name="X" unicode="X" horiz-adv-x="629" 
d="M185 720l154 -287l236 287h99l-293 -359l201 -361h-102l-157 290l-242 -290h-100l300 362l-197 358h101z" />
    <glyph glyph-name="Y" unicode="Y" horiz-adv-x="587" 
d="M174 720l140 -340l242 340h94l-301 -422l-41 -298h-87l42 298l-186 422h97z" />
    <glyph glyph-name="Z" unicode="Z" horiz-adv-x="559" 
d="M20 82l459 555h-379l11 83h480l-11 -82l-459 -556h376l-11 -82h-476z" />
    <glyph glyph-name="bracketleft" unicode="[" horiz-adv-x="275" 
d="M250 -68h-204l121 861h204l-10 -69h-132l-101 -723h132z" />
    <glyph glyph-name="backslash" unicode="\" horiz-adv-x="519" 
d="M360 0l-282 719h83l281 -719h-82z" />
    <glyph glyph-name="bracketright" unicode="]" horiz-adv-x="257" 
d="M137 1l102 723h-132l9 69h204l-121 -861h-203l9 69h132z" />
    <glyph glyph-name="asciicircum" unicode="^" horiz-adv-x="373" 
d="M293 480l-73 152l-73 -152h-74l110 230h74l110 -230h-74z" />
    <glyph glyph-name="underscore" unicode="_" horiz-adv-x="524" 
d="M462 -19l-10 -67h-404l9 67h405z" />
    <glyph glyph-name="grave" unicode="`" horiz-adv-x="208" 
d="M28 890h86l61 -123h-69z" />
    <glyph glyph-name="a" unicode="a" horiz-adv-x="591" 
d="M574 487l-68 -487h-76l8 86q-25 -45 -74.5 -71.5t-106.5 -26.5q-48 0 -86.5 16.5t-65.5 46.5t-41 72t-14 93q0 60 19 112t52.5 90.5t79 60t99.5 21.5q63 0 111 -28.5t70 -79.5l16 95h77zM453 266q0 70 -38.5 114.5t-104.5 44.5q-38 0 -70.5 -16.5t-56 -44t-36.5 -64.5
t-13 -79q0 -78 38.5 -119t102.5 -41q38 0 70.5 17t56.5 45t37.5 65.5t13.5 77.5z" />
    <glyph glyph-name="b" unicode="b" horiz-adv-x="599" 
d="M570 270q1 -57 -18 -109t-53.5 -90.5t-81 -61t-100.5 -21.5q-69 0 -116 30t-64 75l-18 -93h-75l102 733h82l-45 -318q24 38 69.5 61.5t102.5 23.5q47 0 86.5 -16t68 -46t44.5 -72.5t16 -95.5zM486 265q0 75 -40 118t-104 43q-39 0 -72 -17t-57 -45.5t-37 -66t-13 -78.5
q0 -73 40 -115t106 -42q41 0 73.5 16.5t55.5 44.5t35.5 65t12.5 77z" />
    <glyph glyph-name="c" unicode="c" horiz-adv-x="550" 
d="M313 500q81 0 137.5 -38.5t78.5 -107.5l-73 -28q-16 51 -54 75.5t-87 24.5q-40 0 -73.5 -16t-57.5 -43t-37 -63.5t-13 -78.5q0 -76 42 -119.5t108 -43.5q51 0 91 25.5t62 70.5l67 -33q-28 -63 -87.5 -100t-134.5 -37q-51 0 -93 16.5t-73 47t-48 74t-17 97.5
q0 58 20 108.5t55 88t83 59t104 21.5z" />
    <glyph glyph-name="d" unicode="d" horiz-adv-x="592" 
d="M610 733l-103 -733h-76l9 85q-25 -45 -71.5 -71t-106.5 -26q-45 0 -83.5 16t-67 45.5t-44.5 72t-16 95.5v17.5t1 12.5q5 56 26 102.5t54.5 80t78 52t96.5 18.5q60 0 106 -26t68 -74l47 333h82zM455 270q0 72 -41 114t-105 42q-37 0 -69 -16.5t-55.5 -44.5t-37 -64.5
t-13.5 -77.5q0 -72 40 -116.5t106 -44.5q71 0 118 53q49 55 56 134q1 5 1 21z" />
    <glyph glyph-name="e" unicode="e" horiz-adv-x="554" 
d="M315 500q48 0 87.5 -14.5t67.5 -42t43 -67t15 -88.5q0 -22 -3 -46l-5 -36l-391 1q-4 -72 33 -109.5t100 -37.5q54 0 96 24.5t62 66.5l73 -31q-35 -64 -95.5 -98t-133.5 -34q-99 0 -156.5 56.5t-57.5 158.5v19t1 13q5 57 26 105.5t55.5 84t81 55.5t101.5 20zM445 268
q1 10 1.5 17t0.5 11q0 63 -36.5 98.5t-96.5 35.5q-67 0 -115 -43.5t-63 -119.5z" />
    <glyph glyph-name="f" unicode="f" horiz-adv-x="341" 
d="M316 659q-34 0 -54.5 -18.5t-26.5 -61.5l-13 -92h114l-10 -69h-113l-59 -418h-82l58 418h-73l10 69h73l15 105q20 138 153 140q16 0 32 -1.5t32 -5.5l-12 -71q-14 2 -25 3.5t-19 1.5z" />
    <glyph glyph-name="g" unicode="g" horiz-adv-x="551" 
d="M564 532l-9 -71q-3 1 -15 1q-45 0 -74 -29q37 -44 37 -107q0 -45 -17 -82.5t-47.5 -65t-72.5 -43t-92 -15.5q-47 0 -83 14q-32 -1 -50.5 -11t-18.5 -29q0 -14 11.5 -24t38.5 -10h149q78 0 124.5 -35.5t46.5 -98.5q0 -41 -18.5 -70t-52 -48t-81 -28t-106.5 -9
q-109 0 -168.5 29.5t-59.5 92.5q0 39 20 67.5t56 45.5q-35 23 -35 65q0 32 22 58.5t65 36.5q-55 47 -55 124q0 45 17.5 83t48.5 65.5t73.5 43.5t92.5 16q64 0 114 -29q20 30 52 47t72 17zM423 321q0 51 -32 80.5t-87 30.5q-64 0 -105 -39q-41 -38 -41 -97q0 -51 33 -80.5
t87 -29.5q32 0 58.5 10.5t46 28.5t30 42.5t10.5 53.5zM154 -11h-8q-32 -13 -47.5 -34t-15.5 -45q0 -41 40.5 -54.5t107.5 -13.5q75 0 128 17q51 16 51 67q0 31 -23 47t-65 16h-168z" />
    <glyph glyph-name="h" unicode="h" horiz-adv-x="569" 
d="M526 318q0 -7 -1 -19t-3 -29l-38 -270h-82l38 268q3 20 3 36q0 64 -33.5 92.5t-84.5 28.5q-30 0 -57.5 -11t-49 -31.5t-36.5 -50t-20 -67.5l-37 -264h-82l104 732h82l-44 -308q25 34 68 54.5t95 20.5q32 0 63.5 -9.5t57 -31.5t41.5 -56.5t16 -84.5z" />
    <glyph glyph-name="i" unicode="i" horiz-adv-x="239" 
d="M125 655q0 29 20 49t48 20q25 0 40 -16t15 -41q0 -27 -20.5 -46.5t-47.5 -19.5q-25 0 -40 15t-15 39zM203 487l-68 -487h-83l68 487h83z" />
    <glyph glyph-name="j" unicode="j" horiz-adv-x="265" 
d="M151 655q0 29 20 49t48 20q25 0 40 -16t15 -41q0 -27 -20.5 -46.5t-47.5 -19.5q-25 0 -40 15t-15 39zM-68 -140q27 -10 54 -10q71 0 83 87l77 550h83l-81 -573q-10 -69 -52 -105t-105 -36q-40 0 -83 15z" />
    <glyph glyph-name="k" unicode="k" horiz-adv-x="501" 
d="M44 0l102 733h83l-68 -483l261 237h103l-235 -215l162 -272h-97l-127 216l-82 -74l-20 -142h-82z" />
    <glyph glyph-name="l" unicode="l" horiz-adv-x="211" 
d="M146 733h83l-103 -733h-82z" />
    <glyph glyph-name="m" unicode="m" horiz-adv-x="846" 
d="M806 343q0 -19 -3 -40l-42 -303h-80l41 294q1 5 1.5 13t0.5 19q0 51 -26 76.5t-74 25.5q-54 0 -92 -36.5t-46 -93.5l-42 -298h-81l42 294q1 11 1.5 18.5t0.5 11.5q0 51 -25 77.5t-73 26.5q-60 0 -97 -37t-45 -98l-41 -293h-82l68 487h76l-4 -56q49 69 146 69
q58 0 96 -25.5t51 -73.5q23 46 67.5 72.5t101.5 26.5q75 0 117.5 -40.5t42.5 -116.5z" />
    <glyph glyph-name="n" unicode="n" horiz-adv-x="570" 
d="M527 319q0 -20 -3 -44l-39 -275h-82l38 270q3 20 3 35q0 63 -32.5 91.5t-86.5 28.5q-64 0 -107.5 -43t-54.5 -115l-37 -266h-82l68 486h78l-7 -69q23 37 66 59.5t97 22.5q33 0 65.5 -10.5t58 -32.5t41.5 -56t16 -82z" />
    <glyph glyph-name="o" unicode="o" horiz-adv-x="577" 
d="M320 500q50 0 92 -17t72 -48t47 -73.5t17 -93.5q1 -55 -19.5 -106.5t-57 -90.5t-86.5 -61.5t-107 -21.5q-51 0 -92.5 17t-71.5 47.5t-46.5 73t-16.5 93.5q-1 56 19.5 107t57 90t86 62t106.5 22zM281 62q39 0 73 16t58.5 44t38.5 66t14 82q0 72 -40 113.5t-106 42.5
q-40 0 -74 -16.5t-59 -45t-38.5 -66.5t-13.5 -80q0 -72 40 -114t107 -42z" />
    <glyph glyph-name="p" unicode="p" horiz-adv-x="598" 
d="M568 269v-17.5t-1 -12.5q-5 -57 -26.5 -103t-54.5 -79t-76 -51t-92 -18q-63 0 -111 28t-69 77l-43 -308h-82l99 702h75l-7 -83q24 43 70.5 69.5t104.5 26.5q45 0 84 -16t67.5 -46t45 -73t16.5 -96zM341 426q-72 0 -120 -54q-49 -55 -56 -134q-1 -5 -1 -20
q0 -70 39 -111.5t102 -44.5q38 -1 70.5 14.5t57 43.5t38.5 65t14 80q0 72 -39 116.5t-105 44.5z" />
    <glyph glyph-name="q" unicode="q" horiz-adv-x="593" 
d="M577 487l-99 -702h-81l40 282q-26 -36 -70 -57.5t-101 -21.5q-46 0 -85.5 16.5t-68 46.5t-45 73t-16.5 96q-1 56 18 107.5t53 90t80.5 61t101.5 21.5q69 0 116.5 -31t63.5 -74l18 92h75zM458 268q0 73 -39.5 115t-105.5 43q-41 0 -74 -16.5t-56 -45t-35.5 -65
t-12.5 -77.5q0 -75 40 -117.5t103 -42.5q39 0 72 16.5t57 45t37.5 65.5t13.5 79z" />
    <glyph glyph-name="r" unicode="r" horiz-adv-x="355" 
d="M322 493q28 0 53 -6l-10 -76q-22 5 -46 5q-64 0 -105.5 -40t-50.5 -106l-37 -270h-82l68 487h76l-4 -62q19 34 56 51t82 17z" />
    <glyph glyph-name="s" unicode="s" horiz-adv-x="447" 
d="M205 57q45 0 77 18.5t38 58.5q5 51 -60 68l-70 21q-112 33 -112 121q0 32 12.5 60t36.5 49.5t58 34t77 12.5q72 0 117 -32.5t47 -89.5l-76 -16q0 32 -25 50.5t-64 18.5q-45 0 -72.5 -21t-30.5 -54q-4 -27 13 -43t50 -26l70 -21q111 -31 111 -121q0 -73 -53.5 -115
t-143.5 -42q-78 0 -124 35t-48 93l76 13q-1 -33 24.5 -52.5t71.5 -19.5z" />
    <glyph glyph-name="t" unicode="t" horiz-adv-x="328" 
d="M330 415h-96l-58 -415h-81l58 415h-96l10 72h96l21 153h82l-22 -153h96z" />
    <glyph glyph-name="u" unicode="u" horiz-adv-x="562" 
d="M545 487l-68 -487h-75l3 66q-26 -36 -70.5 -57t-95.5 -21q-36 0 -67 9.5t-54 30t-36 52t-13 74.5q0 21 3 46l40 287h83l-39 -283q-3 -18 -3 -34q0 -59 32 -84t78 -25q61 0 106 41t55 110l39 275h82z" />
    <glyph glyph-name="v" unicode="v" horiz-adv-x="522" 
d="M548 487l-273 -487h-82l-134 487h89l96 -390l212 390h92z" />
    <glyph glyph-name="w" unicode="w" horiz-adv-x="766" 
d="M792 487l-235 -487h-79l-70 364l-172 -364h-82l-94 487h85l64 -367l171 367h85l66 -368l170 368h91z" />
    <glyph glyph-name="x" unicode="x" horiz-adv-x="493" 
d="M-5 0l211 242l-147 245h97q21 -35 37.5 -65t29.5 -52l37 -67l156 184h101l-215 -245l147 -242l-98 -1l-68 120l-35 62l-153 -181h-100z" />
    <glyph glyph-name="y" unicode="y" horiz-adv-x="527" 
d="M553 487l-316 -606q-29 -57 -70 -82t-86 -25q-55 0 -95 28l30 71q27 -21 62 -21q26 0 49 14t37 42l33 65l-138 514h87l102 -414l212 414h93z" />
    <glyph glyph-name="z" unicode="z" horiz-adv-x="461" 
d="M30 76l318 338h-271l11 73h373l-11 -76l-320 -338h272l-9 -73h-373z" />
    <glyph glyph-name="braceleft" unicode="{" horiz-adv-x="269" 
d="M365 793l-9 -66q-62 0 -71 -56l-28 -203q-9 -66 -62 -107q34 -31 34 -82q0 -4 -0.5 -9.5t-1.5 -13.5l-26 -186q-1 -9 -1.5 -15t-0.5 -9q0 -30 13.5 -39t40.5 -9l-9 -65h-33q-43 0 -65.5 25t-22.5 67q0 16 1 21l29 199q1 5 1 19q0 35 -17.5 49.5t-38.5 14.5l9 66
q24 0 48 18.5t31 66.5l28 199q7 51 38 83.5t83 31.5h30z" />
    <glyph glyph-name="bar" unicode="|" horiz-adv-x="215" 
d="M221 788l-124 -878h-74l124 878h74z" />
    <glyph glyph-name="braceright" unicode="}" horiz-adv-x="255" 
d="M206 457q0 -35 17.5 -49t38.5 -14l-9 -66q-24 0 -48 -18.5t-31 -64.5l-28 -205q-7 -51 -39.5 -79t-75.5 -28h-35l9 65q31 0 48 13t23 52l27 193q11 66 62 106q-33 30 -33 84v12.5t1 9.5l28 199q1 3 1 13q0 47 -55 47l9 66h32q38 0 63.5 -24.5t25.5 -69.5q0 -4 -0.5 -9.5
t-1.5 -13.5l-27 -197q-1 -8 -1.5 -13.5t-0.5 -8.5z" />
    <glyph glyph-name="asciitilde" unicode="~" horiz-adv-x="447" 
d="M416 312q-5 -46 -33 -75.5t-71 -29.5q-27 0 -47.5 10t-49.5 29q-23 16 -39.5 23.5t-33.5 7.5q-21 0 -35.5 -12.5t-17.5 -35.5h-51q5 46 32.5 74.5t69.5 28.5q25 0 47 -10t51 -29q25 -16 41 -23.5t33 -7.5q20 0 34.5 13t18.5 37h51z" />
    <glyph glyph-name="exclamdown" unicode="&#xa1;" horiz-adv-x="240" 
d="M247 677q0 -30 -22 -50.5t-52 -20.5q-25 0 -41 15.5t-16 40.5q0 30 22 50.5t52 20.5q25 0 41 -16t16 -40zM134 1h-93l42 302q20 145 48 253h68q0 -30 -1.5 -58.5t-4.5 -58.5t-7 -63.5t-10 -72.5z" />
    <glyph glyph-name="cent" unicode="&#xa2;" horiz-adv-x="582" 
d="M314 616l14 103h73l-13 -102q66 -7 110.5 -47t57.5 -101l-73 -24q-10 45 -46 71.5t-93 26.5q-39 0 -74 -16.5t-61 -45t-41 -66t-15 -79.5q0 -67 39 -112q39 -44 104 -44q51 0 92 24t64 63l70 -29q-24 -52 -83 -90q-57 -36 -123 -41l-16 -108h-74l16 111q-77 14 -124 76
q-46 61 -46 145q0 53 17.5 101t49 86.5t76.5 64.5t99 33z" />
    <glyph glyph-name="sterling" unicode="&#xa3;" horiz-adv-x="680" 
d="M527 203h81q-2 -94 -56.5 -148.5t-154.5 -54.5h-358l11 74h-1l2 9q31 5 58.5 22.5t48.5 43t33 58t12 68.5q0 13 -1.5 26t-3.5 27h-102l10 74h73q-12 44 -12 81q0 53 18.5 98.5t51.5 79.5t80 53t104 19q86 0 141 -45q57 -44 68 -115l-83 -27q-7 48 -42 77t-90 29
q-36 0 -66.5 -12.5t-52.5 -35t-34 -53t-12 -66.5q0 -35 13 -83h257l-10 -74h-231q1 -11 1.5 -19.5t0.5 -15.5q0 -5 -0.5 -12.5t-1.5 -18.5q-6 -57 -30.5 -106.5t-72.5 -72.5l235 -1q58 0 88 32t28 89z" />
    <glyph glyph-name="currency" unicode="&#xa4;" horiz-adv-x="656" 
d="M132 221q-13 22 -20 50.5t-7 57.5q0 88 66 164l-68 77l62 56l68 -77q71 44 144 44q76 0 131 -45l90 78l47 -56l-90 -77q28 -46 28 -110q0 -86 -65 -162l68 -77l-64 -56l-68 78q-67 -45 -144 -45q-37 0 -71 11.5t-60 32.5l-89 -77l-47 56zM321 198q36 0 69 14.5t58.5 38.5
t41 56t15.5 67q0 61 -40 101q-39 41 -99 41q-35 0 -68 -14.5t-58.5 -39t-41 -56.5t-15.5 -68q0 -28 10.5 -53.5t29 -45t43.5 -30.5t55 -11z" />
    <glyph glyph-name="yen" unicode="&#xa5;" horiz-adv-x="699" 
d="M226 719l138 -341l1 1l239 340h98l-265 -364h137l-11 -71h-169l-10 -79h169l-11 -71h-169l-18 -134h-82l19 134h-170l10 71h170l11 79h-170l10 71h138l-161 364h96z" />
    <glyph glyph-name="brokenbar" unicode="&#xa6;" horiz-adv-x="242" 
d="M235 791l-49 -344h-74l49 344h74zM163 284l-50 -354h-74l50 354h74z" />
    <glyph glyph-name="section" unicode="&#xa7;" horiz-adv-x="485" 
d="M361 247q68 -36 68 -108q0 -31 -12.5 -57.5t-35 -46.5t-53.5 -31.5t-68 -11.5q-69 0 -116.5 32t-60.5 89l68 15q14 -73 110 -73q45 0 71 22.5t26 59.5q0 51 -62 65l-64 12q-63 11 -104 46t-41 98q0 78 71 119q-32 17 -50 45t-18 64q0 31 12.5 58t35 46.5t53.5 30.5t68 11
q69 0 117.5 -32.5t60.5 -87.5l-67 -16q-8 35 -36 54.5t-76 19.5q-45 0 -71 -23t-26 -58q0 -53 62 -65l64 -13q64 -12 104.5 -47t40.5 -99q0 -77 -71 -118zM370 364q0 38 -31 58t-79 20q-54 0 -82.5 -23t-28.5 -58q0 -38 30.5 -58t81.5 -20q54 0 81.5 23t27.5 58z" />
    <glyph glyph-name="dieresis" unicode="&#xa8;" horiz-adv-x="345" 
d="M136 824q0 28 22 49.5t50 21.5q23 0 39 -17t16 -40q0 -27 -22 -48t-50 -21q-24 0 -39.5 16t-15.5 39zM316 824q0 28 22 49.5t50 21.5q23 0 39 -17t16 -40q0 -13 -6 -25.5t-16.5 -22.5t-23 -15.5t-26.5 -5.5q-24 0 -39.5 16t-15.5 39z" />
    <glyph glyph-name="copyright" unicode="&#xa9;" horiz-adv-x="825" 
d="M60 356q-2 75 27.5 142.5t80.5 118.5t118.5 80.5t142.5 27.5q74 2 141.5 -27.5t118.5 -80.5t80.5 -118.5t27.5 -142.5q2 -74 -27.5 -142t-80.5 -119t-118.5 -81t-142.5 -28q-74 -2 -141.5 28t-118.5 81t-80 119t-28 142zM731 356q2 61 -22.5 116.5t-66 97t-97 66
t-116.5 22.5q-61 2 -116.5 -22.5t-97.5 -66t-66 -97t-23 -116.5q-1 -61 23 -116.5t65.5 -97.5t97 -66t116.5 -23q62 -1 117.5 23t97 66t65.5 97.5t23 116.5zM542 413q-11 35 -40 56t-71 21q-57 0 -91.5 -38.5t-34.5 -101.5q0 -61 34 -95.5t88 -34.5q45 0 72.5 20t41.5 54
l57 -20q-17 -51 -63.5 -82t-107.5 -31q-38 0 -71.5 14t-59 39t-40 60t-14.5 77t15 78.5t40.5 63.5t60 42t73.5 15q60 0 106 -32t62 -86z" />
    <glyph glyph-name="guillemotleft" unicode="&#xab;" horiz-adv-x="576" 
d="M263 243l179 -243h-100h-27l-178 243l246 244h100h27z" />
    <glyph glyph-name="logicalnot" unicode="&#xac;" horiz-adv-x="563" 
d="M435 78v183h-394v87h481v-270h-87z" />
    <glyph glyph-name="registered" unicode="&#xae;" horiz-adv-x="434" 
d="M280 730q36 0 67 -12.5t53.5 -35t35 -52.5t12.5 -66q0 -42 -16.5 -79.5t-45 -66t-66 -45t-80.5 -16.5q-37 0 -68.5 13t-54 35.5t-35.5 53t-13 65.5q0 41 17 78t46 65.5t67.5 45.5t80.5 17zM240 394q35 0 66 13t54.5 36t37.5 53.5t14 65.5q0 58 -37 95.5t-97 37.5
q-34 0 -65 -13.5t-54.5 -36t-37.5 -53t-14 -65.5q0 -60 36 -96.5t97 -36.5zM216 626h58q55 0 55 -46q0 -18 -10.5 -31t-26.5 -18l20 -70h-36l-19 64h-22l-10 -64h-32zM266 554q12 0 19 6.5t7 15.5q0 19 -21 19h-27l-6 -41h28z" />
    <glyph glyph-name="macron" unicode="&#xaf;" horiz-adv-x="334" 
d="M425 837l-9 -62h-280l8 62h281z" />
    <glyph glyph-name="degree" unicode="&#xb0;" horiz-adv-x="266" 
d="M76 606q0 48 35 83q34 34 83 34q42 0 71.5 -28t29.5 -73q0 -50 -35 -83q-34 -33 -83 -33q-43 0 -72 27.5t-29 72.5zM242 619q0 24 -14.5 39t-36.5 15q-26 0 -44 -18.5t-18 -44.5q0 -23 15 -38t38 -15q25 0 42.5 17.5t17.5 44.5z" />
    <glyph glyph-name="plusminus" unicode="&#xb1;" horiz-adv-x="554" 
d="M505 366l-10 -72h-174l-17 -115h-72l17 115h-175l10 72h175l16 114h72l-16 -114h174zM43 72h421l-11 -72h-421z" />
    <glyph glyph-name="uni00B2" unicode="&#xb2;" horiz-adv-x="407" 
d="M46 374l207 171q25 21 34.5 40t9.5 39q0 42 -25.5 66.5t-68.5 24.5q-40 0 -66 -23t-28 -66h-69q2 73 47.5 115t115.5 42q37 0 67.5 -12t52 -33t33 -50t11.5 -62q0 -42 -18.5 -74.5t-53.5 -60.5l-149 -122l209 1v-69l-309 -1v74z" />
    <glyph glyph-name="uni00B3" unicode="&#xb3;" horiz-adv-x="408" 
d="M368 450q0 -34 -13 -63t-35 -50.5t-52 -33.5t-63 -12q-35 0 -65.5 12.5t-52.5 33.5t-34.5 49.5t-12.5 61.5h70q0 -37 26.5 -63t68.5 -26q39 0 66 25.5t27 65.5q0 42 -26.5 68.5t-68.5 26.5q-24 0 -42 -6l-23 56l116 108l-194 1v69h300v-64l-113 -105q54 -14 87.5 -55
t33.5 -99z" />
    <glyph glyph-name="acute" unicode="&#xb4;" horiz-adv-x="215" 
d="M40 767l59 123h87l-77 -123h-69z" />
    <glyph glyph-name="uni00B5" unicode="&#xb5;" horiz-adv-x="667" 
d="M620 75v-75h-87q-73 0 -91 62q-50 -74 -152 -77h-2h-3q-95 3 -145 68v-297h-81v730h81v-235q0 -191 148 -191q140 0 147 174v252h82v-356q0 -31 11 -42.5t33 -11.5z" />
    <glyph glyph-name="paragraph" unicode="&#xb6;" horiz-adv-x="587" 
d="M398 712v-783h-74v378h-55q-40 0 -74 14.5t-59 41t-38.5 64t-13.5 83.5q0 45 14 82.5t39 64t58.5 41t73.5 14.5h129zM500 710v-783h-46v783h46z" />
    <glyph glyph-name="periodcentered" unicode="&#xb7;" horiz-adv-x="318" 
d="M69 253q0 21 8.5 39.5t22.5 32t33 21.5t40 8q36 0 59 -24t23 -60q0 -41 -32 -70t-72 -29q-35 0 -58.5 23.5t-23.5 58.5z" />
    <glyph glyph-name="cedilla" unicode="&#xb8;" horiz-adv-x="600" 
d="M225 -119h82q13 0 21.5 8t8.5 19q0 21 -23 21h-82l6 45l51 54h38l-4 -28l-25 -26h36q29 0 43.5 -18t14.5 -43q0 -32 -21.5 -55.5t-54.5 -23.5h-98z" />
    <glyph glyph-name="uni00B9" unicode="&#xb9;" horiz-adv-x="291" 
d="M205 774v-474h-70v403l-95 -39v70l95 40h70z" />
    <glyph glyph-name="guillemotright" unicode="&#xbb;" horiz-adv-x="577" 
d="M450 243l-247 -243h-100h-27l248 243l-180 244h100h27z" />
    <glyph glyph-name="onequarter" unicode="&#xbc;" horiz-adv-x="758" 
d="M45 679l66 31v-66l-66 -27v62zM175 710v-368h-63l-1 368h64zM50 0l541 710h81l-542 -710h-80zM702 68h-48v-71h-64v71h-175v63l175 237h64v-238h48v-62zM590 130v132l-96 -131z" />
    <glyph glyph-name="onehalf" unicode="&#xbd;" horiz-adv-x="799" 
d="M45 679l66 31v-66l-66 -27v62zM175 710v-368h-63l-1 368h64zM50 0l541 710h81l-542 -710h-80zM492 63l142 122q23 19 32 32t10 29q1 31 -16.5 47.5t-48.5 16.5q-29 0 -46 -16.5t-17 -44.5q0 -10 1 -13h-62q-2 29 7 53.5t26.5 43t42 29t54.5 10.5q54 -1 87.5 -34.5
t34.5 -87.5q0 -59 -64 -113l-89 -75h145v-62h-239v63z" />
    <glyph glyph-name="threequarters" unicode="&#xbe;" horiz-adv-x="829" 
d="M312 460q0 -52 -38 -88q-37 -36 -90 -36q-26 0 -49.5 9.5t-41 26.5t-27.5 39.5t-10 48.5l1 13h63q-1 -5 -1.5 -8.5t-0.5 -5.5q0 -25 19.5 -43t46.5 -18t46 18t19 44q0 32 -24 51q-17 13 -40 13q-3 0 -7 -0.5t-9 -1.5q-4 -1 -7 -2t-5 -2l-31 49l79 80h-133v63h230v-57
l-76 -75q34 -12 53 -34q33 -36 33 -84zM121 0l541 710h81l-542 -710h-80zM773 68h-48v-71h-64v71h-175v63l175 237h64v-238h48v-62zM661 130v132l-96 -131z" />
    <glyph glyph-name="questiondown" unicode="&#xbf;" horiz-adv-x="525" 
d="M297 662q0 28 22.5 49.5t52.5 21.5q26 0 42.5 -16.5t16.5 -40.5q0 -29 -22.5 -50.5t-53.5 -21.5q-25 0 -41.5 17t-16.5 41zM509 214q-7 -48 -27 -90t-52.5 -72.5t-76 -48t-97.5 -17.5q-46 0 -84.5 15t-66 41.5t-42.5 63t-15 79.5q0 56 21 96q11 21 24 37t28.5 31
t35.5 29.5t44 31.5q26 19 45 34t31.5 28.5t20 27t10.5 29.5l3 26h82l-3 -26q-6 -38 -26 -71q-20 -30 -46 -51.5t-66 -49.5q-21 -15 -37.5 -27.5t-28.5 -22.5q-23 -20 -39 -49t-16 -66q0 -54 34.5 -89t97.5 -35q69 0 111.5 41.5t51.5 104.5h83z" />
    <glyph glyph-name="Agrave" unicode="&#xc0;" horiz-adv-x="632" 
d="M595 0h-89l-40 185h-311l-93 -185h-86l359 720h95zM450 259l-78 356l-181 -356h259zM272 897h86l61 -123h-69z" />
    <glyph glyph-name="Aacute" unicode="&#xc1;" horiz-adv-x="632" 
d="M595 0h-89l-40 185h-311l-93 -185h-86l359 720h95zM450 259l-78 356l-181 -356h259zM350 774l59 123h87l-77 -123h-69z" />
    <glyph glyph-name="Acircumflex" unicode="&#xc2;" horiz-adv-x="632" 
d="M595 0h-89l-40 185h-311l-93 -185h-86l359 720h95zM450 259l-78 356l-181 -356h259zM443 774l-40 81l-64 -81h-76l98 130h80h17l61 -130h-76z" />
    <glyph glyph-name="Atilde" unicode="&#xc3;" horiz-adv-x="632" 
d="M595 0h-89l-40 185h-311l-93 -185h-86l359 720h95zM450 259l-78 356l-181 -356h259zM339 909q19 0 35 -6.5t36 -18.5q17 -10 28.5 -15t24.5 -5q35 0 38 43h60q-3 -54 -31 -82t-70 -28q-21 0 -38 7t-37 20q-12 7 -24 12.5t-22 5.5q-31 0 -37 -45h-60q2 54 30 83t67 29z
" />
    <glyph glyph-name="Adieresis" unicode="&#xc4;" horiz-adv-x="632" 
d="M595 0h-89l-40 185h-311l-93 -185h-86l359 720h95zM450 259l-78 356l-181 -356h259zM247 831q0 28 22 49.5t50 21.5q23 0 39 -17t16 -40q0 -27 -22 -48t-50 -21q-24 0 -39.5 16t-15.5 39zM427 831q0 28 22 49.5t50 21.5q23 0 39 -17t16 -40q0 -13 -6 -25.5t-16.5 -22.5
t-23 -15.5t-26.5 -5.5q-24 0 -39.5 16t-15.5 39z" />
    <glyph glyph-name="Aring" unicode="&#xc5;" horiz-adv-x="632" 
d="M595 0h-89l-40 185h-311l-93 -185h-86l359 720h95zM450 259l-78 356l-181 -356h259zM294 867q0 26 10.5 49t28.5 40t41 27.5t48 10.5q42 0 70 -29t28 -71q0 -25 -11 -47.5t-29 -39.5t-41.5 -27.5t-48.5 -10.5q-42 0 -69 28t-27 70zM464 889q0 21 -14 35.5t-35 14.5
q-26 0 -45.5 -19t-19.5 -45q0 -22 13.5 -36t35.5 -14q27 0 46 18.5t19 45.5z" />
    <glyph glyph-name="AE" unicode="&#xc6;" horiz-adv-x="900" 
d="M541 638l-33 -236l319 -1l-12 -79h-319l-34 -241h354l-13 -81h-352h-82l29 201h-227l-103 -201h-92l376 719h87h32h81h353l-13 -82zM459 638h-62l-188 -364h199z" />
    <glyph glyph-name="Ccedilla" unicode="&#xc7;" horiz-adv-x="733" 
d="M608 220l82 -34q-40 -85 -124 -142q-82 -53 -187 -55l-20 -21h36q29 0 43.5 -18t14.5 -43q0 -32 -21.5 -55.5t-54.5 -23.5h-98l7 47h82q13 0 21.5 8t8.5 19q0 21 -23 21h-82l6 45l23 24q-57 8 -105.5 34t-84 68t-55.5 100.5t-20 131.5q-1 83 26.5 157.5t77 130.5
t118 88.5t149.5 30.5q57 0 107 -16t89 -43.5t66 -64.5t38 -78l-78 -36q-25 76 -84.5 115.5t-135.5 39.5q-61 1 -113 -24t-90 -69t-59 -103.5t-20 -127.5q0 -58 16.5 -105t46.5 -80t72.5 -51t94.5 -18q75 0 134.5 39t95.5 109z" />
    <glyph glyph-name="Egrave" unicode="&#xc8;" horiz-adv-x="580" 
d="M227 638l-33 -238h316l-13 -77l-315 1l-34 -242l350 -1l-12 -81h-434l101 720h434l-11 -82h-349zM258 897h86l61 -123h-69z" />
    <glyph glyph-name="Eacute" unicode="&#xc9;" horiz-adv-x="580" 
d="M227 638l-33 -238h316l-13 -77l-315 1l-34 -242l350 -1l-12 -81h-434l101 720h434l-11 -82h-349zM337 774l59 123h87l-77 -123h-69z" />
    <glyph glyph-name="Ecircumflex" unicode="&#xca;" horiz-adv-x="580" 
d="M227 638l-33 -238h316l-13 -77l-315 1l-34 -242l350 -1l-12 -81h-434l101 720h434l-11 -82h-349zM430 774l-40 81l-64 -81h-76l98 130h80h17l61 -130h-76z" />
    <glyph glyph-name="Edieresis" unicode="&#xcb;" horiz-adv-x="580" 
d="M227 638l-33 -238h316l-13 -77l-315 1l-34 -242l350 -1l-12 -81h-434l101 720h434l-11 -82h-349zM233 831q0 28 22 49.5t50 21.5q23 0 39 -17t16 -40q0 -27 -22 -48t-50 -21q-24 0 -39.5 16t-15.5 39zM413 831q0 28 22 49.5t50 21.5q23 0 39 -17t16 -40q0 -13 -6 -25.5
t-16.5 -22.5t-23 -15.5t-26.5 -5.5q-24 0 -39.5 16t-15.5 39z" />
    <glyph glyph-name="Igrave" unicode="&#xcc;" horiz-adv-x="251" 
d="M52 0l101 720h86l-101 -720h-86zM84 897h86l61 -123h-69z" />
    <glyph glyph-name="Iacute" unicode="&#xcd;" horiz-adv-x="251" 
d="M52 0l101 720h86l-101 -720h-86zM162 774l59 123h87l-77 -123h-69z" />
    <glyph glyph-name="Icircumflex" unicode="&#xce;" horiz-adv-x="251" 
d="M52 0l101 720h86l-101 -720h-86zM255 774l-40 81l-64 -81h-76l98 130h80h17l61 -130h-76z" />
    <glyph glyph-name="Idieresis" unicode="&#xcf;" horiz-adv-x="251" 
d="M52 0l101 720h86l-101 -720h-86zM59 831q0 28 22 49.5t50 21.5q23 0 39 -17t16 -40q0 -27 -22 -48t-50 -21q-24 0 -39.5 16t-15.5 39zM239 831q0 28 22 49.5t50 21.5q23 0 39 -17t16 -40q0 -13 -6 -25.5t-16.5 -22.5t-23 -15.5t-26.5 -5.5q-24 0 -39.5 16t-15.5 39z" />
    <glyph glyph-name="Eth" unicode="&#xd0;" horiz-adv-x="710" 
d="M685 397q2 -85 -29.5 -158t-87 -126.5t-130 -83.5t-158.5 -29h-186h-52l46 323h-76l10 74h76l46 323h86h134q72 0 131 -22.5t101 -64.5t65.5 -101.5t23.5 -134.5zM593 398q0 56 -16.5 100.5t-47 75.5t-74.5 48t-99 17h-137l-35 -242h99l-10 -74h-99l-35 -243h121
q73 0 134 23.5t105.5 66t69 101t24.5 127.5z" />
    <glyph glyph-name="Ntilde" unicode="&#xd1;" horiz-adv-x="721" 
d="M153 720h86l300 -576l81 576h85l-100 -720h-86l-300 576l-81 -576h-86zM386 909q19 0 35 -6.5t36 -18.5q17 -10 28.5 -15t24.5 -5q35 0 38 43h60q-3 -54 -31 -82t-70 -28q-21 0 -38 7t-37 20q-12 7 -24 12.5t-22 5.5q-31 0 -37 -45h-60q2 54 30 83t67 29z" />
    <glyph glyph-name="Ograve" unicode="&#xd2;" horiz-adv-x="767" 
d="M429 733q70 0 127.5 -24t99 -67.5t64.5 -104t23 -134.5q1 -88 -28.5 -164t-80.5 -132t-119 -87.5t-144 -29.5q-70 0 -128 24t-99.5 67t-64.5 104t-23 134q-1 88 28.5 164.5t81 132.5t119.5 87.5t144 29.5zM372 74q58 -1 109.5 24.5t90 70t60 104.5t20.5 129
q0 55 -16 100.5t-45 78t-70.5 50.5t-92.5 18q-58 1 -109.5 -24t-90 -69.5t-60.5 -104.5t-21 -129q0 -55 16 -100.5t45 -78.5t71 -51t93 -18zM338 897h86l61 -123h-69z" />
    <glyph glyph-name="Oacute" unicode="&#xd3;" horiz-adv-x="767" 
d="M429 733q70 0 127.5 -24t99 -67.5t64.5 -104t23 -134.5q1 -88 -28.5 -164t-80.5 -132t-119 -87.5t-144 -29.5q-70 0 -128 24t-99.5 67t-64.5 104t-23 134q-1 88 28.5 164.5t81 132.5t119.5 87.5t144 29.5zM372 74q58 -1 109.5 24.5t90 70t60 104.5t20.5 129
q0 55 -16 100.5t-45 78t-70.5 50.5t-92.5 18q-58 1 -109.5 -24t-90 -69.5t-60.5 -104.5t-21 -129q0 -55 16 -100.5t45 -78.5t71 -51t93 -18zM416 774l59 123h87l-77 -123h-69z" />
    <glyph glyph-name="Ocircumflex" unicode="&#xd4;" horiz-adv-x="767" 
d="M429 733q70 0 127.5 -24t99 -67.5t64.5 -104t23 -134.5q1 -88 -28.5 -164t-80.5 -132t-119 -87.5t-144 -29.5q-70 0 -128 24t-99.5 67t-64.5 104t-23 134q-1 88 28.5 164.5t81 132.5t119.5 87.5t144 29.5zM372 74q58 -1 109.5 24.5t90 70t60 104.5t20.5 129
q0 55 -16 100.5t-45 78t-70.5 50.5t-92.5 18q-58 1 -109.5 -24t-90 -69.5t-60.5 -104.5t-21 -129q0 -55 16 -100.5t45 -78.5t71 -51t93 -18zM509 774l-40 81l-64 -81h-76l98 130h80h17l61 -130h-76z" />
    <glyph glyph-name="Otilde" unicode="&#xd5;" horiz-adv-x="767" 
d="M429 733q70 0 127.5 -24t99 -67.5t64.5 -104t23 -134.5q1 -88 -28.5 -164t-80.5 -132t-119 -87.5t-144 -29.5q-70 0 -128 24t-99.5 67t-64.5 104t-23 134q-1 88 28.5 164.5t81 132.5t119.5 87.5t144 29.5zM372 74q58 -1 109.5 24.5t90 70t60 104.5t20.5 129
q0 55 -16 100.5t-45 78t-70.5 50.5t-92.5 18q-58 1 -109.5 -24t-90 -69.5t-60.5 -104.5t-21 -129q0 -55 16 -100.5t45 -78.5t71 -51t93 -18zM405 909q19 0 35 -6.5t36 -18.5q17 -10 28.5 -15t24.5 -5q35 0 38 43h60q-3 -54 -31 -82t-70 -28q-21 0 -38 7t-37 20
q-12 7 -24 12.5t-22 5.5q-31 0 -37 -45h-60q2 54 30 83t67 29z" />
    <glyph glyph-name="Odieresis" unicode="&#xd6;" horiz-adv-x="767" 
d="M429 733q70 0 127.5 -24t99 -67.5t64.5 -104t23 -134.5q1 -88 -28.5 -164t-80.5 -132t-119 -87.5t-144 -29.5q-70 0 -128 24t-99.5 67t-64.5 104t-23 134q-1 88 28.5 164.5t81 132.5t119.5 87.5t144 29.5zM372 74q58 -1 109.5 24.5t90 70t60 104.5t20.5 129
q0 55 -16 100.5t-45 78t-70.5 50.5t-92.5 18q-58 1 -109.5 -24t-90 -69.5t-60.5 -104.5t-21 -129q0 -55 16 -100.5t45 -78.5t71 -51t93 -18zM313 831q0 28 22 49.5t50 21.5q23 0 39 -17t16 -40q0 -27 -22 -48t-50 -21q-24 0 -39.5 16t-15.5 39zM493 831q0 28 22 49.5
t50 21.5q23 0 39 -17t16 -40q0 -13 -6 -25.5t-16.5 -22.5t-23 -15.5t-26.5 -5.5q-24 0 -39.5 16t-15.5 39z" />
    <glyph glyph-name="multiply" unicode="&#xd7;" horiz-adv-x="551" 
d="M337 313l132 -156l-63 -55l-132 155l-174 -156l-48 55l175 156l-132 156l63 55l132 -155l174 156l47 -55z" />
    <glyph glyph-name="Oslash" unicode="&#xd8;" horiz-adv-x="769" 
d="M732 404q1 -88 -28.5 -164.5t-80.5 -132.5t-119 -87.5t-144 -29.5q-82 0 -145 31l-18 -29h-84l42 68q-52 45 -81 111.5t-29 148.5q-1 88 28.5 164t80.5 132t119 87.5t144 29.5q77 0 141 -29l15 24h84l-38 -61q54 -45 83.5 -111.5t29.5 -151.5zM512 630q-45 19 -96 19
q-58 1 -109.5 -24.5t-89.5 -70t-60 -104.5t-21 -128q0 -58 17.5 -105.5t49.5 -79.5zM641 402q0 60 -18 108t-52 80l-309 -495q45 -20 98 -20q58 -1 109.5 24t90 69.5t60.5 104.5t21 129z" />
    <glyph glyph-name="Ugrave" unicode="&#xd9;" horiz-adv-x="699" 
d="M145 720h86l-63 -452q-3 -21 -3 -40q0 -85 50 -121q51 -36 118 -36q82 0 140.5 48t73.5 152l63 449h86l-67 -474q-18 -130 -99 -194q-80 -64 -197 -64q-49 0 -95.5 13.5t-82 42t-57 72t-21.5 103.5q0 14 1 27t3 26zM309 897h86l61 -123h-69z" />
    <glyph glyph-name="Uacute" unicode="&#xda;" horiz-adv-x="699" 
d="M145 720h86l-63 -452q-3 -21 -3 -40q0 -85 50 -121q51 -36 118 -36q82 0 140.5 48t73.5 152l63 449h86l-67 -474q-18 -130 -99 -194q-80 -64 -197 -64q-49 0 -95.5 13.5t-82 42t-57 72t-21.5 103.5q0 14 1 27t3 26zM387 774l59 123h87l-77 -123h-69z" />
    <glyph glyph-name="Ucircumflex" unicode="&#xdb;" horiz-adv-x="699" 
d="M145 720h86l-63 -452q-3 -21 -3 -40q0 -85 50 -121q51 -36 118 -36q82 0 140.5 48t73.5 152l63 449h86l-67 -474q-18 -130 -99 -194q-80 -64 -197 -64q-49 0 -95.5 13.5t-82 42t-57 72t-21.5 103.5q0 14 1 27t3 26zM480 774l-40 81l-64 -81h-76l98 130h80h17l61 -130h-76
z" />
    <glyph glyph-name="Udieresis" unicode="&#xdc;" horiz-adv-x="699" 
d="M145 720h86l-63 -452q-3 -21 -3 -40q0 -85 50 -121q51 -36 118 -36q82 0 140.5 48t73.5 152l63 449h86l-67 -474q-18 -130 -99 -194q-80 -64 -197 -64q-49 0 -95.5 13.5t-82 42t-57 72t-21.5 103.5q0 14 1 27t3 26zM284 831q0 28 22 49.5t50 21.5q23 0 39 -17t16 -40
q0 -27 -22 -48t-50 -21q-24 0 -39.5 16t-15.5 39zM464 831q0 28 22 49.5t50 21.5q23 0 39 -17t16 -40q0 -13 -6 -25.5t-16.5 -22.5t-23 -15.5t-26.5 -5.5q-24 0 -39.5 16t-15.5 39z" />
    <glyph glyph-name="Yacute" unicode="&#xdd;" horiz-adv-x="587" 
d="M174 720l140 -340l242 340h94l-301 -422l-41 -298h-87l42 298l-186 422h97zM332 774l59 123h87l-77 -123h-69z" />
    <glyph glyph-name="Thorn" unicode="&#xde;" horiz-adv-x="574" 
d="M153 720h82l-22 -149h147q50 0 88 -15t63.5 -41t38.5 -60.5t13 -72.5q0 -43 -17 -85t-49 -75t-78 -53t-103 -20h-161l-22 -149h-82zM312 230q37 0 67 13t51 34t32 48t11 55q0 48 -31.5 80t-91.5 32h-147l-38 -262h147z" />
    <glyph glyph-name="germandbls" unicode="&#xdf;" horiz-adv-x="560" 
d="M528 242q0 -54 -19.5 -98.5t-55.5 -76.5t-86.5 -49.5t-111.5 -17.5q-23 0 -40 3t-40 9l11 79q33 -16 78 -16q41 0 74.5 11.5t57.5 33t37 52t13 67.5q0 69 -42 103t-111 32v2l10 68q30 0 55 9.5t43 25.5t28 38t10 46q0 43 -29 68t-78 25q-52 0 -87.5 -31t-44.5 -97
l-75 -528h-82l73 523q14 102 71 156t148 54q40 0 73.5 -11t57.5 -31.5t37.5 -50t13.5 -67.5q0 -51 -23 -91t-63 -67q46 -25 71.5 -68.5t25.5 -104.5z" />
    <glyph glyph-name="agrave" unicode="&#xe0;" horiz-adv-x="591" 
d="M574 487l-68 -487h-76l8 86q-25 -45 -74.5 -71.5t-106.5 -26.5q-48 0 -86.5 16.5t-65.5 46.5t-41 72t-14 93q0 60 19 112t52.5 90.5t79 60t99.5 21.5q63 0 111 -28.5t70 -79.5l16 95h77zM453 266q0 70 -38.5 114.5t-104.5 44.5q-38 0 -70.5 -16.5t-56 -44t-36.5 -64.5
t-13 -79q0 -78 38.5 -119t102.5 -41q38 0 70.5 17t56.5 45t37.5 65.5t13.5 77.5zM221 667h86l61 -123h-69z" />
    <glyph glyph-name="aacute" unicode="&#xe1;" horiz-adv-x="591" 
d="M574 487l-68 -487h-76l8 86q-25 -45 -74.5 -71.5t-106.5 -26.5q-48 0 -86.5 16.5t-65.5 46.5t-41 72t-14 93q0 60 19 112t52.5 90.5t79 60t99.5 21.5q63 0 111 -28.5t70 -79.5l16 95h77zM453 266q0 70 -38.5 114.5t-104.5 44.5q-38 0 -70.5 -16.5t-56 -44t-36.5 -64.5
t-13 -79q0 -78 38.5 -119t102.5 -41q38 0 70.5 17t56.5 45t37.5 65.5t13.5 77.5zM299 544l59 123h87l-77 -123h-69z" />
    <glyph glyph-name="acircumflex" unicode="&#xe2;" horiz-adv-x="591" 
d="M574 487l-68 -487h-76l8 86q-25 -45 -74.5 -71.5t-106.5 -26.5q-48 0 -86.5 16.5t-65.5 46.5t-41 72t-14 93q0 60 19 112t52.5 90.5t79 60t99.5 21.5q63 0 111 -28.5t70 -79.5l16 95h77zM453 266q0 70 -38.5 114.5t-104.5 44.5q-38 0 -70.5 -16.5t-56 -44t-36.5 -64.5
t-13 -79q0 -78 38.5 -119t102.5 -41q38 0 70.5 17t56.5 45t37.5 65.5t13.5 77.5zM392 544l-40 81l-64 -81h-76l98 130h80h17l61 -130h-76z" />
    <glyph glyph-name="atilde" unicode="&#xe3;" horiz-adv-x="591" 
d="M574 487l-68 -487h-76l8 86q-25 -45 -74.5 -71.5t-106.5 -26.5q-48 0 -86.5 16.5t-65.5 46.5t-41 72t-14 93q0 60 19 112t52.5 90.5t79 60t99.5 21.5q63 0 111 -28.5t70 -79.5l16 95h77zM453 266q0 70 -38.5 114.5t-104.5 44.5q-38 0 -70.5 -16.5t-56 -44t-36.5 -64.5
t-13 -79q0 -78 38.5 -119t102.5 -41q38 0 70.5 17t56.5 45t37.5 65.5t13.5 77.5zM288 679q19 0 35 -6.5t36 -18.5q17 -10 28.5 -15t24.5 -5q35 0 38 43h60q-3 -54 -31 -82t-70 -28q-21 0 -38 7t-37 20q-12 7 -24 12.5t-22 5.5q-31 0 -37 -45h-60q2 54 30 83t67 29z" />
    <glyph glyph-name="adieresis" unicode="&#xe4;" horiz-adv-x="591" 
d="M574 487l-68 -487h-76l8 86q-25 -45 -74.5 -71.5t-106.5 -26.5q-48 0 -86.5 16.5t-65.5 46.5t-41 72t-14 93q0 60 19 112t52.5 90.5t79 60t99.5 21.5q63 0 111 -28.5t70 -79.5l16 95h77zM453 266q0 70 -38.5 114.5t-104.5 44.5q-38 0 -70.5 -16.5t-56 -44t-36.5 -64.5
t-13 -79q0 -78 38.5 -119t102.5 -41q38 0 70.5 17t56.5 45t37.5 65.5t13.5 77.5zM196 601q0 28 22 49.5t50 21.5q23 0 39 -17t16 -40q0 -27 -22 -48t-50 -21q-24 0 -39.5 16t-15.5 39zM376 601q0 28 22 49.5t50 21.5q23 0 39 -17t16 -40q0 -13 -6 -25.5t-16.5 -22.5
t-23 -15.5t-26.5 -5.5q-24 0 -39.5 16t-15.5 39z" />
    <glyph glyph-name="aring" unicode="&#xe5;" horiz-adv-x="591" 
d="M574 487l-68 -487h-76l8 86q-25 -45 -74.5 -71.5t-106.5 -26.5q-48 0 -86.5 16.5t-65.5 46.5t-41 72t-14 93q0 60 19 112t52.5 90.5t79 60t99.5 21.5q63 0 111 -28.5t70 -79.5l16 95h77zM453 266q0 70 -38.5 114.5t-104.5 44.5q-38 0 -70.5 -16.5t-56 -44t-36.5 -64.5
t-13 -79q0 -78 38.5 -119t102.5 -41q38 0 70.5 17t56.5 45t37.5 65.5t13.5 77.5zM243 637q0 26 10.5 49t28.5 40t41 27.5t48 10.5q42 0 70 -29t28 -71q0 -25 -11 -47.5t-29 -39.5t-41.5 -27.5t-48.5 -10.5q-42 0 -69 28t-27 70zM413 659q0 21 -14 35.5t-35 14.5
q-26 0 -45.5 -19t-19.5 -45q0 -22 13.5 -36t35.5 -14q27 0 46 18.5t19 45.5z" />
    <glyph glyph-name="ae" unicode="&#xe6;" horiz-adv-x="873" 
d="M848 296q0 -20 -3 -41q-1 -18 -6 -42h-393q-4 -75 34 -114t104 -39q51 0 93.5 24t69.5 66l60 -33q-39 -66 -98.5 -97.5t-131.5 -31.5q-67 0 -115 29.5t-68 81.5q-27 -54 -78 -82.5t-117 -28.5q-36 0 -67.5 9t-55 26.5t-36.5 44t-13 60.5q0 66 43 107.5t115 41.5h149
q22 0 32 13t10 42q0 49 -30.5 73.5t-76.5 24.5q-51 0 -86.5 -21t-60.5 -63l-57 37q71 117 204 117q63 0 108.5 -28t59.5 -74q31 45 84 73.5t116 28.5q48 0 87 -14.5t66.5 -41t42.5 -64t15 -84.5zM767 300q0 60 -37 95t-98 35q-66 0 -113.5 -41.5t-63.5 -113.5h310
q1 9 1.5 15t0.5 10zM369 214h-170q-45 0 -69 -22.5t-24 -59.5q0 -39 28.5 -58t73.5 -19q70 0 108.5 38.5t49.5 101.5z" />
    <glyph glyph-name="ccedilla" unicode="&#xe7;" horiz-adv-x="550" 
d="M437 158l67 -33q-27 -61 -84.5 -98.5t-130.5 -38.5l-21 -22h36q29 0 43.5 -18t14.5 -43q0 -32 -21.5 -55.5t-54.5 -23.5h-98l7 47h82q13 0 21.5 8t8.5 19q0 21 -23 21h-82l6 45l25 26q-82 15 -132 76t-50 155q0 58 20 108.5t55 88t83 59t104 21.5q81 0 137.5 -38.5
t78.5 -107.5l-73 -28q-16 51 -54 75.5t-87 24.5q-40 0 -73.5 -16t-57.5 -43t-37 -63.5t-13 -78.5q0 -76 42 -119.5t108 -43.5q51 0 91 25.5t62 70.5z" />
    <glyph glyph-name="egrave" unicode="&#xe8;" horiz-adv-x="554" 
d="M315 500q48 0 87.5 -14.5t67.5 -42t43 -67t15 -88.5q0 -22 -3 -46l-5 -36l-391 1q-4 -72 33 -109.5t100 -37.5q54 0 96 24.5t62 66.5l73 -31q-35 -64 -95.5 -98t-133.5 -34q-99 0 -156.5 56.5t-57.5 158.5v19t1 13q5 57 26 105.5t55.5 84t81 55.5t101.5 20zM445 268
q1 10 1.5 17t0.5 11q0 63 -36.5 98.5t-96.5 35.5q-67 0 -115 -43.5t-63 -119.5zM211 667h86l61 -123h-69z" />
    <glyph glyph-name="eacute" unicode="&#xe9;" horiz-adv-x="554" 
d="M315 500q48 0 87.5 -14.5t67.5 -42t43 -67t15 -88.5q0 -22 -3 -46l-5 -36l-391 1q-4 -72 33 -109.5t100 -37.5q54 0 96 24.5t62 66.5l73 -31q-35 -64 -95.5 -98t-133.5 -34q-99 0 -156.5 56.5t-57.5 158.5v19t1 13q5 57 26 105.5t55.5 84t81 55.5t101.5 20zM445 268
q1 10 1.5 17t0.5 11q0 63 -36.5 98.5t-96.5 35.5q-67 0 -115 -43.5t-63 -119.5zM289 544l59 123h87l-77 -123h-69z" />
    <glyph glyph-name="ecircumflex" unicode="&#xea;" horiz-adv-x="554" 
d="M315 500q48 0 87.5 -14.5t67.5 -42t43 -67t15 -88.5q0 -22 -3 -46l-5 -36l-391 1q-4 -72 33 -109.5t100 -37.5q54 0 96 24.5t62 66.5l73 -31q-35 -64 -95.5 -98t-133.5 -34q-99 0 -156.5 56.5t-57.5 158.5v19t1 13q5 57 26 105.5t55.5 84t81 55.5t101.5 20zM445 268
q1 10 1.5 17t0.5 11q0 63 -36.5 98.5t-96.5 35.5q-67 0 -115 -43.5t-63 -119.5zM382 544l-40 81l-64 -81h-76l98 130h80h17l61 -130h-76z" />
    <glyph glyph-name="edieresis" unicode="&#xeb;" horiz-adv-x="554" 
d="M315 500q48 0 87.5 -14.5t67.5 -42t43 -67t15 -88.5q0 -22 -3 -46l-5 -36l-391 1q-4 -72 33 -109.5t100 -37.5q54 0 96 24.5t62 66.5l73 -31q-35 -64 -95.5 -98t-133.5 -34q-99 0 -156.5 56.5t-57.5 158.5v19t1 13q5 57 26 105.5t55.5 84t81 55.5t101.5 20zM445 268
q1 10 1.5 17t0.5 11q0 63 -36.5 98.5t-96.5 35.5q-67 0 -115 -43.5t-63 -119.5zM240 591q0 28 22 49.5t50 21.5q23 0 39 -17t16 -40q0 -27 -22 -48t-50 -21q-24 0 -39.5 16t-15.5 39zM420 591q0 28 22 49.5t50 21.5q23 0 39 -17t16 -40q0 -13 -6 -25.5t-16.5 -22.5
t-23 -15.5t-26.5 -5.5q-24 0 -39.5 16t-15.5 39z" />
    <glyph glyph-name="igrave" unicode="&#xec;" horiz-adv-x="200" 
d="M183 487l-68 -487h-82l68 487h82zM30 667h86l61 -123h-69z" />
    <glyph glyph-name="iacute" unicode="&#xed;" horiz-adv-x="200" 
d="M183 487l-68 -487h-82l68 487h82zM109 544l59 123h87l-77 -123h-69z" />
    <glyph glyph-name="icircumflex" unicode="&#xee;" horiz-adv-x="200" 
d="M183 487l-68 -487h-82l68 487h82zM202 544l-40 81l-64 -81h-76l98 130h80h17l61 -130h-76z" />
    <glyph glyph-name="idieresis" unicode="&#xef;" horiz-adv-x="200" 
d="M183 487l-68 -487h-82l68 487h82zM5 601q0 28 22 49.5t50 21.5q23 0 39 -17t16 -40q0 -27 -22 -48t-50 -21q-24 0 -39.5 16t-15.5 39zM185 601q0 28 22 49.5t50 21.5q23 0 39 -17t16 -40q0 -13 -6 -25.5t-16.5 -22.5t-23 -15.5t-26.5 -5.5q-24 0 -39.5 16t-15.5 39z" />
    <glyph glyph-name="eth" unicode="&#xf0;" horiz-adv-x="641" 
d="M597 323q0 -77 -22 -139t-61.5 -105.5t-94 -67t-119.5 -23.5q-57 0 -103 18.5t-78.5 50.5t-49.5 76.5t-17 95.5q-1 60 22.5 112.5t63.5 91.5t93 61.5t110 21.5q48 0 88.5 -15t68.5 -44q-30 92 -92 154l-79 -64l-36 49l70 58q-38 33 -85 56l49 59q63 -31 101 -65l72 58
l38 -49l-65 -52q59 -61 93 -154q33 -91 33 -184zM507 277q0 70 -45 115q-43 45 -118 45q-44 0 -82 -16.5t-66.5 -45t-44.5 -66t-16 -78.5q0 -71 45 -118q45 -46 119 -46q45 0 83 18t66 47t43.5 67t15.5 78z" />
    <glyph glyph-name="ntilde" unicode="&#xf1;" horiz-adv-x="570" 
d="M527 319q0 -20 -3 -44l-39 -275h-82l38 270q3 20 3 35q0 63 -32.5 91.5t-86.5 28.5q-64 0 -107.5 -43t-54.5 -115l-37 -266h-82l68 486h78l-7 -69q23 37 66 59.5t97 22.5q33 0 65.5 -10.5t58 -32.5t41.5 -56t16 -82zM279 679q19 0 35 -6.5t36 -18.5q17 -10 28.5 -15
t24.5 -5q35 0 38 43h60q-3 -54 -31 -82t-70 -28q-21 0 -38 7t-37 20q-12 7 -24 12.5t-22 5.5q-31 0 -37 -45h-60q2 54 30 83t67 29z" />
    <glyph glyph-name="ograve" unicode="&#xf2;" horiz-adv-x="577" 
d="M320 500q50 0 92 -17t72 -48t47 -73.5t17 -93.5q1 -55 -19.5 -106.5t-57 -90.5t-86.5 -61.5t-107 -21.5q-51 0 -92.5 17t-71.5 47.5t-46.5 73t-16.5 93.5q-1 56 19.5 107t57 90t86 62t106.5 22zM281 62q39 0 73 16t58.5 44t38.5 66t14 82q0 72 -40 113.5t-106 42.5
q-40 0 -74 -16.5t-59 -45t-38.5 -66.5t-13.5 -80q0 -72 40 -114t107 -42zM222 667h86l61 -123h-69z" />
    <glyph glyph-name="oacute" unicode="&#xf3;" horiz-adv-x="577" 
d="M320 500q50 0 92 -17t72 -48t47 -73.5t17 -93.5q1 -55 -19.5 -106.5t-57 -90.5t-86.5 -61.5t-107 -21.5q-51 0 -92.5 17t-71.5 47.5t-46.5 73t-16.5 93.5q-1 56 19.5 107t57 90t86 62t106.5 22zM281 62q39 0 73 16t58.5 44t38.5 66t14 82q0 72 -40 113.5t-106 42.5
q-40 0 -74 -16.5t-59 -45t-38.5 -66.5t-13.5 -80q0 -72 40 -114t107 -42zM300 544l59 123h87l-77 -123h-69z" />
    <glyph glyph-name="ocircumflex" unicode="&#xf4;" horiz-adv-x="577" 
d="M320 500q50 0 92 -17t72 -48t47 -73.5t17 -93.5q1 -55 -19.5 -106.5t-57 -90.5t-86.5 -61.5t-107 -21.5q-51 0 -92.5 17t-71.5 47.5t-46.5 73t-16.5 93.5q-1 56 19.5 107t57 90t86 62t106.5 22zM281 62q39 0 73 16t58.5 44t38.5 66t14 82q0 72 -40 113.5t-106 42.5
q-40 0 -74 -16.5t-59 -45t-38.5 -66.5t-13.5 -80q0 -72 40 -114t107 -42zM393 544l-40 81l-64 -81h-76l98 130h80h17l61 -130h-76z" />
    <glyph glyph-name="otilde" unicode="&#xf5;" horiz-adv-x="577" 
d="M320 500q50 0 92 -17t72 -48t47 -73.5t17 -93.5q1 -55 -19.5 -106.5t-57 -90.5t-86.5 -61.5t-107 -21.5q-51 0 -92.5 17t-71.5 47.5t-46.5 73t-16.5 93.5q-1 56 19.5 107t57 90t86 62t106.5 22zM281 62q39 0 73 16t58.5 44t38.5 66t14 82q0 72 -40 113.5t-106 42.5
q-40 0 -74 -16.5t-59 -45t-38.5 -66.5t-13.5 -80q0 -72 40 -114t107 -42zM273 679q19 0 35 -6.5t36 -18.5q17 -10 28.5 -15t24.5 -5q35 0 38 43h60q-3 -54 -31 -82t-70 -28q-21 0 -38 7t-37 20q-12 7 -24 12.5t-22 5.5q-31 0 -37 -45h-60q2 54 30 83t67 29z" />
    <glyph glyph-name="odieresis" unicode="&#xf6;" horiz-adv-x="577" 
d="M320 500q50 0 92 -17t72 -48t47 -73.5t17 -93.5q1 -55 -19.5 -106.5t-57 -90.5t-86.5 -61.5t-107 -21.5q-51 0 -92.5 17t-71.5 47.5t-46.5 73t-16.5 93.5q-1 56 19.5 107t57 90t86 62t106.5 22zM281 62q39 0 73 16t58.5 44t38.5 66t14 82q0 72 -40 113.5t-106 42.5
q-40 0 -74 -16.5t-59 -45t-38.5 -66.5t-13.5 -80q0 -72 40 -114t107 -42zM197 601q0 28 22 49.5t50 21.5q23 0 39 -17t16 -40q0 -27 -22 -48t-50 -21q-24 0 -39.5 16t-15.5 39zM377 601q0 28 22 49.5t50 21.5q23 0 39 -17t16 -40q0 -13 -6 -25.5t-16.5 -22.5t-23 -15.5
t-26.5 -5.5q-24 0 -39.5 16t-15.5 39z" />
    <glyph glyph-name="divide" unicode="&#xf7;" horiz-adv-x="529" 
d="M235 489q0 28 23 49.5t52 21.5q23 0 39 -17t16 -40q0 -28 -22.5 -49t-51.5 -21q-24 0 -40 16.5t-16 39.5zM469 342l-10 -70h-381l10 70h381zM181 103q0 28 22.5 49.5t51.5 21.5q23 0 39.5 -17t16.5 -40q0 -13 -6.5 -26t-17 -22.5t-23.5 -15.5t-27 -6q-24 0 -40 16.5
t-16 39.5z" />
    <glyph glyph-name="oslash" unicode="&#xf8;" horiz-adv-x="577" 
d="M484 436q31 -31 47.5 -73.5t16.5 -93.5q1 -55 -19.5 -106.5t-57 -90.5t-86 -62t-107.5 -22q-62 0 -113 27l-49 -65h-76l76 100q-31 30 -48 73.5t-17 94.5q-1 56 19.5 107.5t56.5 90.5t86 62t107 22q64 0 117 -29l43 57h74zM390 409q-31 16 -71 17q-40 0 -74 -17t-59 -46
t-38.5 -67t-13.5 -80q0 -63 31 -101zM212 77q29 -15 69 -15q39 0 73 16t58.5 44t38.5 66t14 81q0 62 -30 102z" />
    <glyph glyph-name="ugrave" unicode="&#xf9;" horiz-adv-x="562" 
d="M545 487l-68 -487h-75l3 66q-26 -36 -70.5 -57t-95.5 -21q-36 0 -67 9.5t-54 30t-36 52t-13 74.5q0 21 3 46l40 287h83l-39 -283q-3 -18 -3 -34q0 -59 32 -84t78 -25q61 0 106 41t55 110l39 275h82zM217 667h86l61 -123h-69z" />
    <glyph glyph-name="uacute" unicode="&#xfa;" horiz-adv-x="562" 
d="M545 487l-68 -487h-75l3 66q-26 -36 -70.5 -57t-95.5 -21q-36 0 -67 9.5t-54 30t-36 52t-13 74.5q0 21 3 46l40 287h83l-39 -283q-3 -18 -3 -34q0 -59 32 -84t78 -25q61 0 106 41t55 110l39 275h82zM295 544l59 123h87l-77 -123h-69z" />
    <glyph glyph-name="ucircumflex" unicode="&#xfb;" horiz-adv-x="562" 
d="M545 487l-68 -487h-75l3 66q-26 -36 -70.5 -57t-95.5 -21q-36 0 -67 9.5t-54 30t-36 52t-13 74.5q0 21 3 46l40 287h83l-39 -283q-3 -18 -3 -34q0 -59 32 -84t78 -25q61 0 106 41t55 110l39 275h82zM388 544l-40 81l-64 -81h-76l98 130h80h17l61 -130h-76z" />
    <glyph glyph-name="udieresis" unicode="&#xfc;" horiz-adv-x="562" 
d="M545 487l-68 -487h-75l3 66q-26 -36 -70.5 -57t-95.5 -21q-36 0 -67 9.5t-54 30t-36 52t-13 74.5q0 21 3 46l40 287h83l-39 -283q-3 -18 -3 -34q0 -59 32 -84t78 -25q61 0 106 41t55 110l39 275h82zM192 601q0 28 22 49.5t50 21.5q23 0 39 -17t16 -40q0 -27 -22 -48
t-50 -21q-24 0 -39.5 16t-15.5 39zM372 601q0 28 22 49.5t50 21.5q23 0 39 -17t16 -40q0 -13 -6 -25.5t-16.5 -22.5t-23 -15.5t-26.5 -5.5q-24 0 -39.5 16t-15.5 39z" />
    <glyph glyph-name="yacute" unicode="&#xfd;" horiz-adv-x="527" 
d="M553 487l-316 -606q-29 -57 -70 -82t-86 -25q-55 0 -95 28l30 71q27 -21 62 -21q26 0 49 14t37 42l33 65l-138 514h87l102 -414l212 414h93zM275 544l59 123h87l-77 -123h-69z" />
    <glyph glyph-name="thorn" unicode="&#xfe;" horiz-adv-x="597" 
d="M569 281q0 -5 -0.5 -13.5t-1.5 -19.5q-4 -57 -25.5 -105t-56 -82.5t-79.5 -53.5t-97 -19q-61 0 -107 26t-65 71l-42 -300h-82l135 935h82l-48 -307q30 42 78.5 64.5t102.5 22.5q47 0 85 -15.5t65 -44t41.5 -69t14.5 -90.5zM350 426q-76 0 -126 -53t-59 -135
q-1 -5 -1 -11.5v-15.5q0 -69 36 -109t100 -40q41 0 75 16.5t59 45.5t38.5 68.5t13.5 86.5q0 66 -36 106t-100 41z" />
    <glyph glyph-name="ydieresis" unicode="&#xff;" horiz-adv-x="527" 
d="M553 487l-316 -606q-29 -57 -70 -82t-86 -25q-55 0 -95 28l30 71q27 -21 62 -21q26 0 49 14t37 42l33 65l-138 514h87l102 -414l212 414h93zM172 601q0 28 22 49.5t50 21.5q23 0 39 -17t16 -40q0 -27 -22 -48t-50 -21q-24 0 -39.5 16t-15.5 39zM352 601q0 28 22 49.5
t50 21.5q23 0 39 -17t16 -40q0 -13 -6 -25.5t-16.5 -22.5t-23 -15.5t-26.5 -5.5q-24 0 -39.5 16t-15.5 39z" />
    <glyph glyph-name="Amacron" unicode="&#x100;" horiz-adv-x="632" 
d="M595 0h-89l-40 185h-311l-93 -185h-86l359 720h95zM450 259l-78 356l-181 -356h259zM541 844l-9 -62h-280l8 62h281z" />
    <glyph glyph-name="amacron" unicode="&#x101;" horiz-adv-x="591" 
d="M574 487l-68 -487h-76l8 86q-25 -45 -74.5 -71.5t-106.5 -26.5q-48 0 -86.5 16.5t-65.5 46.5t-41 72t-14 93q0 60 19 112t52.5 90.5t79 60t99.5 21.5q63 0 111 -28.5t70 -79.5l16 95h77zM453 266q0 70 -38.5 114.5t-104.5 44.5q-38 0 -70.5 -16.5t-56 -44t-36.5 -64.5
t-13 -79q0 -78 38.5 -119t102.5 -41q38 0 70.5 17t56.5 45t37.5 65.5t13.5 77.5zM490 614l-9 -62h-280l8 62h281z" />
    <glyph glyph-name="Abreve" unicode="&#x102;" horiz-adv-x="632" 
d="M595 0h-89l-40 185h-311l-93 -185h-86l359 720h95zM450 259l-78 356l-181 -356h259zM392 774q-54 0 -89 32.5t-35 81.5q0 14 1 18h71q-4 -28 13.5 -45t48.5 -17q30 0 52 17t27 45h70q-7 -55 -54 -94q-47 -38 -105 -38z" />
    <glyph glyph-name="abreve" unicode="&#x103;" horiz-adv-x="591" 
d="M574 487l-68 -487h-76l8 86q-25 -45 -74.5 -71.5t-106.5 -26.5q-48 0 -86.5 16.5t-65.5 46.5t-41 72t-14 93q0 60 19 112t52.5 90.5t79 60t99.5 21.5q63 0 111 -28.5t70 -79.5l16 95h77zM453 266q0 70 -38.5 114.5t-104.5 44.5q-38 0 -70.5 -16.5t-56 -44t-36.5 -64.5
t-13 -79q0 -78 38.5 -119t102.5 -41q38 0 70.5 17t56.5 45t37.5 65.5t13.5 77.5zM341 544q-54 0 -89 32.5t-35 81.5q0 14 1 18h71q-4 -28 13.5 -45t48.5 -17q30 0 52 17t27 45h70q-7 -55 -54 -94q-47 -38 -105 -38z" />
    <glyph glyph-name="Aogonek" unicode="&#x104;" horiz-adv-x="632" 
d="M595 0h-89l-40 185h-311l-93 -185h-86l359 720h95zM450 259l-78 356l-181 -356h259zM598 0q-33 -14 -49.5 -33t-16.5 -36q0 -12 8.5 -20t23.5 -8q9 0 19 3l-9 -63q-22 -6 -41 -6q-33 0 -51.5 18t-18.5 46q0 29 21 57t59 42h55z" />
    <glyph glyph-name="aogonek" unicode="&#x105;" horiz-adv-x="591" 
d="M574 487l-68 -487h-76l8 86q-25 -45 -74.5 -71.5t-106.5 -26.5q-48 0 -86.5 16.5t-65.5 46.5t-41 72t-14 93q0 60 19 112t52.5 90.5t79 60t99.5 21.5q63 0 111 -28.5t70 -79.5l16 95h77zM453 266q0 70 -38.5 114.5t-104.5 44.5q-38 0 -70.5 -16.5t-56 -44t-36.5 -64.5
t-13 -79q0 -78 38.5 -119t102.5 -41q38 0 70.5 17t56.5 45t37.5 65.5t13.5 77.5zM505 0q-33 -14 -49.5 -33t-16.5 -36q0 -12 8.5 -20t23.5 -8q9 0 19 3l-9 -63q-22 -6 -41 -6q-33 0 -51.5 18t-18.5 46q0 29 21 57t59 42h55z" />
    <glyph glyph-name="Cacute" unicode="&#x106;" horiz-adv-x="733" 
d="M650 495q-25 76 -84.5 115.5t-135.5 39.5q-61 1 -113 -24t-90 -69t-59 -103.5t-20 -127.5q0 -58 16.5 -105t46.5 -80t72.5 -51t94.5 -18q75 0 134.5 39t95.5 109l82 -34q-40 -87 -126 -143q-84 -54 -190 -54q-66 0 -124 22t-100.5 65t-67.5 105.5t-25 144.5
q-1 83 26.5 157.5t77 130.5t118 88.5t149.5 30.5q57 0 107 -16t89 -43.5t66 -64.5t38 -78zM405 774l59 123h87l-77 -123h-69z" />
    <glyph glyph-name="cacute" unicode="&#x107;" horiz-adv-x="550" 
d="M313 500q81 0 137.5 -38.5t78.5 -107.5l-73 -28q-16 51 -54 75.5t-87 24.5q-40 0 -73.5 -16t-57.5 -43t-37 -63.5t-13 -78.5q0 -76 42 -119.5t108 -43.5q51 0 91 25.5t62 70.5l67 -33q-28 -63 -87.5 -100t-134.5 -37q-51 0 -93 16.5t-73 47t-48 74t-17 97.5
q0 58 20 108.5t55 88t83 59t104 21.5zM282 544l59 123h87l-77 -123h-69z" />
    <glyph glyph-name="Ccircumflex" unicode="&#x108;" horiz-adv-x="733" 
d="M650 495q-25 76 -84.5 115.5t-135.5 39.5q-61 1 -113 -24t-90 -69t-59 -103.5t-20 -127.5q0 -58 16.5 -105t46.5 -80t72.5 -51t94.5 -18q75 0 134.5 39t95.5 109l82 -34q-40 -87 -126 -143q-84 -54 -190 -54q-66 0 -124 22t-100.5 65t-67.5 105.5t-25 144.5
q-1 83 26.5 157.5t77 130.5t118 88.5t149.5 30.5q57 0 107 -16t89 -43.5t66 -64.5t38 -78zM498 774l-40 81l-64 -81h-76l98 130h80h17l61 -130h-76z" />
    <glyph glyph-name="ccircumflex" unicode="&#x109;" horiz-adv-x="550" 
d="M313 500q81 0 137.5 -38.5t78.5 -107.5l-73 -28q-16 51 -54 75.5t-87 24.5q-40 0 -73.5 -16t-57.5 -43t-37 -63.5t-13 -78.5q0 -76 42 -119.5t108 -43.5q51 0 91 25.5t62 70.5l67 -33q-28 -63 -87.5 -100t-134.5 -37q-51 0 -93 16.5t-73 47t-48 74t-17 97.5
q0 58 20 108.5t55 88t83 59t104 21.5zM375 544l-40 81l-64 -81h-76l98 130h80h17l61 -130h-76z" />
    <glyph glyph-name="Cdotaccent" unicode="&#x10a;" horiz-adv-x="733" 
d="M650 495q-25 76 -84.5 115.5t-135.5 39.5q-61 1 -113 -24t-90 -69t-59 -103.5t-20 -127.5q0 -58 16.5 -105t46.5 -80t72.5 -51t94.5 -18q75 0 134.5 39t95.5 109l82 -34q-40 -87 -126 -143q-84 -54 -190 -54q-66 0 -124 22t-100.5 65t-67.5 105.5t-25 144.5
q-1 83 26.5 157.5t77 130.5t118 88.5t149.5 30.5q57 0 107 -16t89 -43.5t66 -64.5t38 -78zM391 832q0 28 22 49t50 21q23 0 38.5 -16.5t15.5 -39.5q0 -27 -22 -48t-49 -21q-24 0 -39.5 16t-15.5 39z" />
    <glyph glyph-name="cdotaccent" unicode="&#x10b;" horiz-adv-x="550" 
d="M313 500q81 0 137.5 -38.5t78.5 -107.5l-73 -28q-16 51 -54 75.5t-87 24.5q-40 0 -73.5 -16t-57.5 -43t-37 -63.5t-13 -78.5q0 -76 42 -119.5t108 -43.5q51 0 91 25.5t62 70.5l67 -33q-28 -63 -87.5 -100t-134.5 -37q-51 0 -93 16.5t-73 47t-48 74t-17 97.5
q0 58 20 108.5t55 88t83 59t104 21.5zM268 602q0 28 22 49t50 21q23 0 38.5 -16.5t15.5 -39.5q0 -27 -22 -48t-49 -21q-24 0 -39.5 16t-15.5 39z" />
    <glyph glyph-name="Ccaron" unicode="&#x10c;" horiz-adv-x="733" 
d="M650 495q-25 76 -84.5 115.5t-135.5 39.5q-61 1 -113 -24t-90 -69t-59 -103.5t-20 -127.5q0 -58 16.5 -105t46.5 -80t72.5 -51t94.5 -18q75 0 134.5 39t95.5 109l82 -34q-40 -87 -126 -143q-84 -54 -190 -54q-66 0 -124 22t-100.5 65t-67.5 105.5t-25 144.5
q-1 83 26.5 157.5t77 130.5t118 88.5t149.5 30.5q57 0 107 -16t89 -43.5t66 -64.5t38 -78zM593 904l-99 -130h-80h-16l-61 130h75l41 -81l64 81h76z" />
    <glyph glyph-name="ccaron" unicode="&#x10d;" horiz-adv-x="550" 
d="M313 500q81 0 137.5 -38.5t78.5 -107.5l-73 -28q-16 51 -54 75.5t-87 24.5q-40 0 -73.5 -16t-57.5 -43t-37 -63.5t-13 -78.5q0 -76 42 -119.5t108 -43.5q51 0 91 25.5t62 70.5l67 -33q-28 -63 -87.5 -100t-134.5 -37q-51 0 -93 16.5t-73 47t-48 74t-17 97.5
q0 58 20 108.5t55 88t83 59t104 21.5zM470 674l-99 -130h-80h-16l-61 130h75l41 -81l64 81h76z" />
    <glyph glyph-name="Dcaron" unicode="&#x10e;" horiz-adv-x="719" 
d="M694 397q2 -85 -29.5 -158t-87 -126.5t-130 -83.5t-158.5 -29h-186h-52l102 720h86h134q72 0 131 -22.5t101 -64.5t65.5 -101.5t23.5 -134.5zM602 398q0 56 -16 100.5t-46.5 75.5t-74.5 48t-99 17h-138l-79 -559h121q73 0 134 23.5t105 66t68.5 101t24.5 127.5zM545 903
l-99 -130h-80h-16l-61 130h75l41 -81l64 81h76z" />
    <glyph glyph-name="dcaron" unicode="&#x10f;" horiz-adv-x="709" 
d="M528 733h82l-103 -733h-76l9 85q-25 -45 -71.5 -71t-106.5 -26q-45 0 -83.5 16t-67 45.5t-44.5 72t-16 95.5v17.5t1 12.5q5 56 26 102.5t54.5 80t78 52t96.5 18.5q60 0 106 -26t68 -74zM744 725l-39 -281h-71l39 281h71zM455 270q0 72 -41 114t-105 42q-37 0 -69 -16.5
t-55.5 -44.5t-37 -64.5t-13.5 -77.5q0 -72 40 -116.5t106 -44.5q71 0 118 53q49 55 56 134q1 5 1 21z" />
    <glyph glyph-name="Dcroat" unicode="&#x110;" horiz-adv-x="710" 
d="M685 397q2 -85 -29.5 -158t-87 -126.5t-130 -83.5t-158.5 -29h-186h-52l46 323h-76l10 74h76l46 323h86h134q72 0 131 -22.5t101 -64.5t65.5 -101.5t23.5 -134.5zM593 398q0 56 -16.5 100.5t-47 75.5t-74.5 48t-99 17h-137l-35 -242h99l-10 -74h-99l-35 -243h121
q73 0 134 23.5t105.5 66t69 101t24.5 127.5z" />
    <glyph glyph-name="dcroat" unicode="&#x111;" horiz-adv-x="592" 
d="M633 568h-46l-80 -568h-76l9 85q-25 -45 -71.5 -71t-106.5 -26q-45 0 -83.5 16t-67 45.5t-44.5 72t-16 95.5v17.5t1 12.5q5 56 26 102.5t54.5 80t78 52t96.5 18.5q60 0 106 -26t68 -74l24 168h-198l9 71h199l13 94h82l-13 -94h45zM455 270q0 72 -41 114t-105 42
q-37 0 -69 -16.5t-55.5 -44.5t-37 -64.5t-13.5 -77.5q0 -72 40 -116.5t106 -44.5q71 0 118 53q49 55 56 134q1 5 1 21z" />
    <glyph glyph-name="Emacron" unicode="&#x112;" horiz-adv-x="580" 
d="M227 638l-33 -238h316l-13 -77l-315 1l-34 -242l350 -1l-12 -81h-434l101 720h434l-11 -82h-349zM528 844l-9 -62h-280l8 62h281z" />
    <glyph glyph-name="emacron" unicode="&#x113;" horiz-adv-x="554" 
d="M315 500q48 0 87.5 -14.5t67.5 -42t43 -67t15 -88.5q0 -22 -3 -46l-5 -36l-391 1q-4 -72 33 -109.5t100 -37.5q54 0 96 24.5t62 66.5l73 -31q-35 -64 -95.5 -98t-133.5 -34q-99 0 -156.5 56.5t-57.5 158.5v19t1 13q5 57 26 105.5t55.5 84t81 55.5t101.5 20zM445 268
q1 10 1.5 17t0.5 11q0 63 -36.5 98.5t-96.5 35.5q-67 0 -115 -43.5t-63 -119.5zM481 614l-9 -62h-280l8 62h281z" />
    <glyph glyph-name="Ebreve" unicode="&#x114;" horiz-adv-x="580" 
d="M227 638l-33 -238h316l-13 -77l-315 1l-34 -242l350 -1l-12 -81h-434l101 720h434l-11 -82h-349zM327 908q-1 -3 -1 -11q0 -25 17 -39t46 -14q31 0 53 17.5t26 46.5h71q-7 -55 -55 -95q-46 -39 -105 -39q-55 0 -89.5 32t-34.5 83q0 14 1 19h71z" />
    <glyph glyph-name="ebreve" unicode="&#x115;" horiz-adv-x="554" 
d="M315 500q48 0 87.5 -14.5t67.5 -42t43 -67t15 -88.5q0 -22 -3 -46l-5 -36l-391 1q-4 -72 33 -109.5t100 -37.5q54 0 96 24.5t62 66.5l73 -31q-35 -64 -95.5 -98t-133.5 -34q-99 0 -156.5 56.5t-57.5 158.5v19t1 13q5 57 26 105.5t55.5 84t81 55.5t101.5 20zM445 268
q1 10 1.5 17t0.5 11q0 63 -36.5 98.5t-96.5 35.5q-67 0 -115 -43.5t-63 -119.5zM279 678q-1 -3 -1 -11q0 -25 17 -39t46 -14q31 0 53 17.5t26 46.5h71q-7 -55 -55 -95q-46 -39 -105 -39q-55 0 -89.5 32t-34.5 83q0 14 1 19h71z" />
    <glyph glyph-name="Edotaccent" unicode="&#x116;" horiz-adv-x="580" 
d="M227 638l-33 -238h316l-13 -77l-315 1l-34 -242l350 -1l-12 -81h-434l101 720h434l-11 -82h-349zM323 832q0 28 22 49t50 21q23 0 38.5 -16.5t15.5 -39.5q0 -27 -22 -48t-49 -21q-24 0 -39.5 16t-15.5 39z" />
    <glyph glyph-name="edotaccent" unicode="&#x117;" horiz-adv-x="554" 
d="M315 500q48 0 87.5 -14.5t67.5 -42t43 -67t15 -88.5q0 -22 -3 -46l-5 -36l-391 1q-4 -72 33 -109.5t100 -37.5q54 0 96 24.5t62 66.5l73 -31q-35 -64 -95.5 -98t-133.5 -34q-99 0 -156.5 56.5t-57.5 158.5v19t1 13q5 57 26 105.5t55.5 84t81 55.5t101.5 20zM445 268
q1 10 1.5 17t0.5 11q0 63 -36.5 98.5t-96.5 35.5q-67 0 -115 -43.5t-63 -119.5zM276 602q0 28 22 49t50 21q23 0 38.5 -16.5t15.5 -39.5q0 -27 -22 -48t-49 -21q-24 0 -39.5 16t-15.5 39z" />
    <glyph glyph-name="Eogonek" unicode="&#x118;" horiz-adv-x="580" 
d="M227 638l-33 -238h316l-13 -77l-315 1l-34 -242l350 -1l-12 -81h-434l101 720h434l-11 -82h-349zM486 0q-33 -14 -49.5 -33t-16.5 -36q0 -12 8.5 -20t23.5 -8q9 0 19 3l-9 -63q-22 -6 -41 -6q-33 0 -51.5 18t-18.5 46q0 29 21 57t59 42h55z" />
    <glyph glyph-name="eogonek" unicode="&#x119;" horiz-adv-x="554" 
d="M528 288q0 -22 -3 -46l-5 -36l-391 1q-4 -72 33 -109.5t100 -37.5q54 0 96 24.5t62 66.5l73 -31q-32 -60 -86 -93t-120 -38q-26 -14 -39.5 -31t-13.5 -32q0 -12 9 -20t24 -8q9 0 19 3l-9 -63q-22 -6 -41 -6q-34 0 -52 18t-18 45t17.5 53t49.5 41q-85 9 -134 64.5
t-49 149.5v19t1 13q5 57 26 105.5t55.5 84t81 55.5t101.5 20q48 0 87.5 -14.5t67.5 -42t43 -67t15 -88.5zM447 296q0 63 -36.5 98.5t-96.5 35.5q-67 0 -115 -43.5t-63 -119.5l309 1q1 10 1.5 17t0.5 11z" />
    <glyph glyph-name="Ecaron" unicode="&#x11a;" horiz-adv-x="580" 
d="M227 638l-33 -238h316l-13 -77l-315 1l-34 -242l350 -1l-12 -81h-434l101 720h434l-11 -82h-349zM525 904l-99 -130h-80h-16l-61 130h75l41 -81l64 81h76z" />
    <glyph glyph-name="ecaron" unicode="&#x11b;" horiz-adv-x="554" 
d="M315 500q48 0 87.5 -14.5t67.5 -42t43 -67t15 -88.5q0 -22 -3 -46l-5 -36l-391 1q-4 -72 33 -109.5t100 -37.5q54 0 96 24.5t62 66.5l73 -31q-35 -64 -95.5 -98t-133.5 -34q-99 0 -156.5 56.5t-57.5 158.5v19t1 13q5 57 26 105.5t55.5 84t81 55.5t101.5 20zM445 268
q1 10 1.5 17t0.5 11q0 63 -36.5 98.5t-96.5 35.5q-67 0 -115 -43.5t-63 -119.5zM477 674l-99 -130h-80h-16l-61 130h75l41 -81l64 81h76z" />
    <glyph glyph-name="Gcircumflex" unicode="&#x11c;" horiz-adv-x="759" 
d="M394 397h331l-56 -398h-76l9 91q-40 -49 -101.5 -75.5t-130.5 -26.5q-71 0 -128.5 23t-98.5 66t-63.5 104t-22.5 137q-1 86 26.5 162t77 132.5t118.5 89.5t150 31q57 0 106.5 -14.5t89 -40.5t67 -61.5t40.5 -77.5l-78 -31q-22 67 -82.5 105t-141.5 38q-66 1 -119 -25.5
t-90.5 -71.5t-57 -105t-19.5 -126q0 -61 18.5 -108t49.5 -79.5t72.5 -49.5t87.5 -17q82 0 157 45q75 46 97 160l8 47h-251zM503 774l-40 81l-64 -81h-76l98 130h80h17l61 -130h-76z" />
    <glyph glyph-name="gcircumflex" unicode="&#x11d;" horiz-adv-x="551" 
d="M270 555h-76l99 122h80h16l61 -122h-75l-41 76zM564 532l-9 -71q-3 1 -15 1q-45 0 -74 -29q37 -44 37 -107q0 -45 -17 -82.5t-47.5 -65t-72.5 -43t-92 -15.5q-47 0 -83 14q-32 -1 -50.5 -11t-18.5 -29q0 -14 11.5 -24t38.5 -10h149q78 0 124.5 -35.5t46.5 -98.5
q0 -41 -18.5 -70t-52 -48t-81 -28t-106.5 -9q-109 0 -168.5 29.5t-59.5 92.5q0 39 20 67.5t56 45.5q-35 23 -35 65q0 32 22 58.5t65 36.5q-55 47 -55 124q0 45 17.5 83t48.5 65.5t73.5 43.5t92.5 16q64 0 114 -29q20 30 52 47t72 17zM423 321q0 51 -32 80.5t-87 30.5
q-64 0 -105 -39q-41 -38 -41 -97q0 -51 33 -80.5t87 -29.5q32 0 58.5 10.5t46 28.5t30 42.5t10.5 53.5zM154 -11h-8q-32 -13 -47.5 -34t-15.5 -45q0 -41 40.5 -54.5t107.5 -13.5q75 0 128 17q51 16 51 67q0 31 -23 47t-65 16h-168z" />
    <glyph glyph-name="Gbreve" unicode="&#x11e;" horiz-adv-x="759" 
d="M394 397h331l-56 -398h-76l9 91q-40 -49 -101.5 -75.5t-130.5 -26.5q-71 0 -128.5 23t-98.5 66t-63.5 104t-22.5 137q-1 86 26.5 162t77 132.5t118.5 89.5t150 31q57 0 106.5 -14.5t89 -40.5t67 -61.5t40.5 -77.5l-78 -31q-22 67 -82.5 105t-141.5 38q-66 1 -119 -25.5
t-90.5 -71.5t-57 -105t-19.5 -126q0 -61 18.5 -108t49.5 -79.5t72.5 -49.5t87.5 -17q82 0 157 45q75 46 97 160l8 47h-251zM400 908q-1 -3 -1 -11q0 -25 17 -39t46 -14q31 0 53 17.5t26 46.5h71q-7 -55 -55 -95q-46 -39 -105 -39q-55 0 -89.5 32t-34.5 83q0 14 1 19h71z" />
    <glyph glyph-name="gbreve" unicode="&#x11f;" horiz-adv-x="551" 
d="M564 532l-9 -71q-3 1 -15 1q-45 0 -74 -29q37 -44 37 -107q0 -45 -17 -82.5t-47.5 -65t-72.5 -43t-92 -15.5q-47 0 -83 14q-32 -1 -50.5 -11t-18.5 -29q0 -14 11.5 -24t38.5 -10h149q78 0 124.5 -35.5t46.5 -98.5q0 -41 -18.5 -70t-52 -48t-81 -28t-106.5 -9
q-109 0 -168.5 29.5t-59.5 92.5q0 39 20 67.5t56 45.5q-35 23 -35 65q0 32 22 58.5t65 36.5q-55 47 -55 124q0 45 17.5 83t48.5 65.5t73.5 43.5t92.5 16q64 0 114 -29q20 30 52 47t72 17zM423 321q0 51 -32 80.5t-87 30.5q-64 0 -105 -39q-41 -38 -41 -97q0 -51 33 -80.5
t87 -29.5q32 0 58.5 10.5t46 28.5t30 42.5t10.5 53.5zM154 -11h-8q-32 -13 -47.5 -34t-15.5 -45q0 -41 40.5 -54.5t107.5 -13.5q75 0 128 17q51 16 51 67q0 31 -23 47t-65 16h-168zM273 678q-1 -3 -1 -11q0 -25 17 -39t46 -14q31 0 53 17.5t26 46.5h71q-7 -55 -55 -95
q-46 -39 -105 -39q-55 0 -89.5 32t-34.5 83q0 14 1 19h71z" />
    <glyph glyph-name="Gdotaccent" unicode="&#x120;" horiz-adv-x="759" 
d="M394 397h331l-56 -398h-76l9 91q-40 -49 -101.5 -75.5t-130.5 -26.5q-71 0 -128.5 23t-98.5 66t-63.5 104t-22.5 137q-1 86 26.5 162t77 132.5t118.5 89.5t150 31q57 0 106.5 -14.5t89 -40.5t67 -61.5t40.5 -77.5l-78 -31q-22 67 -82.5 105t-141.5 38q-66 1 -119 -25.5
t-90.5 -71.5t-57 -105t-19.5 -126q0 -61 18.5 -108t49.5 -79.5t72.5 -49.5t87.5 -17q82 0 157 45q75 46 97 160l8 47h-251zM396 832q0 28 22 49t50 21q23 0 38.5 -16.5t15.5 -39.5q0 -27 -22 -48t-49 -21q-24 0 -39.5 16t-15.5 39z" />
    <glyph glyph-name="gdotaccent" unicode="&#x121;" horiz-adv-x="551" 
d="M564 532l-9 -71q-3 1 -15 1q-45 0 -74 -29q37 -44 37 -107q0 -45 -17 -82.5t-47.5 -65t-72.5 -43t-92 -15.5q-47 0 -83 14q-32 -1 -50.5 -11t-18.5 -29q0 -14 11.5 -24t38.5 -10h149q78 0 124.5 -35.5t46.5 -98.5q0 -41 -18.5 -70t-52 -48t-81 -28t-106.5 -9
q-109 0 -168.5 29.5t-59.5 92.5q0 39 20 67.5t56 45.5q-35 23 -35 65q0 32 22 58.5t65 36.5q-55 47 -55 124q0 45 17.5 83t48.5 65.5t73.5 43.5t92.5 16q64 0 114 -29q20 30 52 47t72 17zM423 321q0 51 -32 80.5t-87 30.5q-64 0 -105 -39q-41 -38 -41 -97q0 -51 33 -80.5
t87 -29.5q32 0 58.5 10.5t46 28.5t30 42.5t10.5 53.5zM154 -11h-8q-32 -13 -47.5 -34t-15.5 -45q0 -41 40.5 -54.5t107.5 -13.5q75 0 128 17q51 16 51 67q0 31 -23 47t-65 16h-168zM270 602q0 28 22 49t50 21q23 0 38.5 -16.5t15.5 -39.5q0 -27 -22 -48t-49 -21
q-24 0 -39.5 16t-15.5 39z" />
    <glyph glyph-name="Gcommaaccent" unicode="&#x122;" horiz-adv-x="759" 
d="M394 397h331l-56 -398h-76l9 91q-40 -49 -101.5 -75.5t-130.5 -26.5q-71 0 -128.5 23t-98.5 66t-63.5 104t-22.5 137q-1 86 26.5 162t77 132.5t118.5 89.5t150 31q57 0 106.5 -14.5t89 -40.5t67 -61.5t40.5 -77.5l-78 -31q-22 67 -82.5 105t-141.5 38q-66 1 -119 -25.5
t-90.5 -71.5t-57 -105t-19.5 -126q0 -61 18.5 -108t49.5 -79.5t72.5 -49.5t87.5 -17q82 0 157 45q75 46 97 160l8 47h-251zM395 -105q-4 -42 -31.5 -66.5t-61.5 -24.5l4 26q16 1 27.5 10.5t14.5 25.5q-6 -2 -12 -2q-20 0 -31.5 11.5t-10.5 33.5q0 20 14 33.5t36 13.5
q23 0 38 -15.5t13 -45.5z" />
    <glyph glyph-name="gcommaaccent" unicode="&#x123;" horiz-adv-x="551" 
d="M564 532l-9 -71q-3 1 -15 1q-45 0 -74 -29q37 -44 37 -107q0 -45 -17 -82.5t-47.5 -65t-72.5 -43t-92 -15.5q-47 0 -83 14q-32 -1 -50.5 -11t-18.5 -29q0 -14 11.5 -24t38.5 -10h149q78 0 124.5 -35.5t46.5 -98.5q0 -41 -18.5 -70t-52 -48t-81 -28t-106.5 -9
q-109 0 -168.5 29.5t-59.5 92.5q0 39 20 67.5t56 45.5q-35 23 -35 65q0 32 22 58.5t65 36.5q-55 47 -55 124q0 45 17.5 83t48.5 65.5t73.5 43.5t92.5 16q64 0 114 -29q20 30 52 47t72 17zM423 321q0 51 -32 80.5t-87 30.5q-64 0 -105 -39q-41 -38 -41 -97q0 -51 33 -80.5
t87 -29.5q32 0 58.5 10.5t46 28.5t30 42.5t10.5 53.5zM154 -11h-8q-32 -13 -47.5 -34t-15.5 -45q0 -41 40.5 -54.5t107.5 -13.5q75 0 128 17q51 16 51 67q0 31 -23 47t-65 16h-168zM283 544l59 123h87l-77 -123h-69z" />
    <glyph glyph-name="Hbar" unicode="&#x126;" horiz-adv-x="711" 
d="M750 521h-85l-73 -521h-87l46 326l-367 1l-46 -327h-86l73 521h-81l9 76h82l18 123h86l-18 -123h368l17 123h86l-17 -123h84zM578 521h-367l-17 -118l368 -1z" />
    <glyph glyph-name="hbar" unicode="&#x127;" horiz-adv-x="590" 
d="M526 318q0 -7 -1 -19t-3 -29l-38 -270h-82l38 268q3 20 3 36q0 64 -33.5 92.5t-84.5 28.5q-30 0 -57.5 -11t-49 -31.5t-36.5 -50t-20 -67.5l-37 -264h-82l82 573h-51l10 68h50l13 91h82l-13 -91h163l-10 -68h-162l-22 -149q25 34 68 54.5t95 20.5q32 0 63.5 -9.5
t57 -31.5t41.5 -56.5t16 -84.5z" />
    <glyph glyph-name="Itilde" unicode="&#x128;" horiz-adv-x="251" 
d="M52 0l101 720h86l-101 -720h-86zM151 909q19 0 35 -6.5t36 -18.5q17 -10 28.5 -15t24.5 -5q35 0 38 43h60q-3 -54 -31 -82t-70 -28q-21 0 -38 7t-37 20q-12 7 -24 12.5t-22 5.5q-31 0 -37 -45h-60q2 54 30 83t67 29z" />
    <glyph glyph-name="itilde" unicode="&#x129;" horiz-adv-x="200" 
d="M183 487l-68 -487h-82l68 487h82zM98 679q19 0 35 -6.5t36 -18.5q17 -10 28.5 -15t24.5 -5q35 0 38 43h60q-3 -54 -31 -82t-70 -28q-21 0 -38 7t-37 20q-12 7 -24 12.5t-22 5.5q-31 0 -37 -45h-60q2 54 30 83t67 29z" />
    <glyph glyph-name="Imacron" unicode="&#x12a;" horiz-adv-x="251" 
d="M52 0l101 720h86l-101 -720h-86zM353 844l-9 -62h-280l8 62h281z" />
    <glyph glyph-name="imacron" unicode="&#x12b;" horiz-adv-x="200" 
d="M183 487l-68 -487h-82l68 487h82zM300 614l-9 -62h-280l8 62h281z" />
    <glyph glyph-name="Iogonek" unicode="&#x12e;" horiz-adv-x="251" 
d="M52 0l101 720h86l-101 -720h-86zM138 0q-33 -14 -49.5 -33t-16.5 -36q0 -12 8.5 -20t23.5 -8q9 0 19 3l-9 -63q-22 -6 -41 -6q-33 0 -51.5 18t-18.5 46q0 29 21 57t59 42h55z" />
    <glyph glyph-name="iogonek" unicode="&#x12f;" horiz-adv-x="200" 
d="M183 487l-68 -487h-82l68 487h82zM115 0q-33 -14 -49.5 -33t-16.5 -36q0 -12 8.5 -20t23.5 -8q9 0 19 3l-9 -63q-22 -6 -41 -6q-33 0 -51.5 18t-18.5 46q0 29 21 57t59 42h55zM95 602q0 28 22 49t50 21q23 0 38.5 -16.5t15.5 -39.5q0 -27 -22 -48t-49 -21q-24 0 -39.5 16
t-15.5 39z" />
    <glyph glyph-name="Idotaccent" unicode="&#x130;" horiz-adv-x="251" 
d="M52 0l101 720h86l-101 -720h-86zM149 832q0 28 22 49t50 21q23 0 38.5 -16.5t15.5 -39.5q0 -27 -22 -48t-49 -21q-24 0 -39.5 16t-15.5 39z" />
    <glyph glyph-name="dotlessi" unicode="&#x131;" horiz-adv-x="200" 
d="M183 487l-68 -487h-82l68 487h82z" />
    <glyph glyph-name="Jcircumflex" unicode="&#x134;" horiz-adv-x="510" 
d="M507 720l-65 -457l-10 -71q-12 -90 -73 -148q-60 -57 -154 -57q-44 0 -79.5 12.5t-61 36t-39.5 56t-14 72.5q0 17 3 35l3 23h83l-3 -23q-1 -10 -1.5 -16.5t-0.5 -10.5q0 -60 36 -83q37 -22 73 -22q45 0 89 29q43 28 54 106l9 61l65 457h86zM523 775l-40 81l-64 -81h-76
l98 130h80h17l61 -130h-76z" />
    <glyph glyph-name="jcircumflex" unicode="&#x135;" horiz-adv-x="241" 
d="M-83 -136q33 -14 56 -14q31 0 51.5 21.5t26.5 63.5l77 551h84l-79 -564q-11 -78 -53.5 -113t-100.5 -35q-47 0 -87 18zM230 544l-40 81l-64 -81h-76l98 130h80h17l61 -130h-76z" />
    <glyph glyph-name="Kcommaaccent" unicode="&#x136;" horiz-adv-x="624" 
d="M150 720h87l-58 -408l393 408h112l-315 -332l207 -388h-105l-163 324l-149 -153l-23 -171h-87zM346 -91q-4 -42 -31.5 -66.5t-61.5 -24.5l4 26q16 1 27.5 10.5t14.5 25.5q-6 -2 -12 -2q-20 0 -31.5 11.5t-10.5 33.5q0 20 14 33.5t36 13.5q23 0 38 -15.5t13 -45.5z" />
    <glyph glyph-name="kcommaaccent" unicode="&#x137;" horiz-adv-x="501" 
d="M44 0l102 733h83l-68 -483l261 237h103l-235 -215l162 -272h-97l-127 216l-82 -74l-20 -142h-82zM273 -91q-4 -42 -31.5 -66.5t-61.5 -24.5l4 26q16 1 27.5 10.5t14.5 25.5q-6 -2 -12 -2q-20 0 -31.5 11.5t-10.5 33.5q0 20 14 33.5t36 13.5q23 0 38 -15.5t13 -45.5z" />
    <glyph glyph-name="Lacute" unicode="&#x139;" horiz-adv-x="487" 
d="M445 78l-11 -78h-369h-13l101 720h86l-89 -642h295zM162 767l59 123h87l-77 -123h-69z" />
    <glyph glyph-name="lacute" unicode="&#x13a;" horiz-adv-x="211" 
d="M146 733h83l-103 -733h-82zM151 773l59 123h87l-77 -123h-69z" />
    <glyph glyph-name="Lcommaaccent" unicode="&#x13b;" horiz-adv-x="487" 
d="M445 78l-11 -78h-369h-13l101 720h86l-89 -642h295zM296 -91q-4 -42 -31.5 -66.5t-61.5 -24.5l4 26q16 1 27.5 10.5t14.5 25.5q-6 -2 -12 -2q-20 0 -31.5 11.5t-10.5 33.5q0 20 14 33.5t36 13.5q23 0 38 -15.5t13 -45.5z" />
    <glyph glyph-name="lcommaaccent" unicode="&#x13c;" horiz-adv-x="211" 
d="M146 733h83l-103 -733h-82zM129 -96q-4 -42 -31.5 -66.5t-61.5 -24.5l4 26q16 1 27.5 10.5t14.5 25.5q-6 -2 -12 -2q-20 0 -31.5 11.5t-10.5 33.5q0 20 14 33.5t36 13.5q23 0 38 -15.5t13 -45.5z" />
    <glyph glyph-name="Lcaron" unicode="&#x13d;" horiz-adv-x="487" 
d="M445 78l-11 -78h-369h-13l101 720h86l-89 -642h295zM449 668q-4 -42 -31.5 -66.5t-61.5 -24.5l4 26q16 1 27.5 10.5t14.5 25.5q-6 -2 -12 -2q-20 0 -31.5 11.5t-10.5 33.5q0 20 14 33.5t36 13.5q23 0 38 -15.5t13 -45.5z" />
    <glyph glyph-name="lcaron" unicode="&#x13e;" horiz-adv-x="211" 
d="M146 733h83l-103 -733h-82z" />
    <glyph glyph-name="Ldot" unicode="&#x13f;" horiz-adv-x="487" 
d="M445 78l-11 -78h-369h-13l101 720h86l-89 -642h295zM280 363q0 31 23 53t54 22q27 0 44 -18t17 -44q0 -31 -23 -52t-54 -21q-26 0 -43.5 17t-17.5 43z" />
    <glyph glyph-name="ldot" unicode="&#x140;" horiz-adv-x="386" 
d="M146 733h83l-103 -733h-82zM222 362q0 32 23.5 54.5t55.5 22.5q27 0 44.5 -18.5t17.5 -45.5q0 -32 -23.5 -53.5t-55.5 -21.5q-26 0 -44 17.5t-18 44.5z" />
    <glyph glyph-name="Lslash" unicode="&#x141;" horiz-adv-x="487" 
d="M445 78l-11 -78h-369h-13l47 337l-71 -34l10 78l72 34l43 305h86l-36 -260l149 71l-11 -78l-149 -72l-42 -303h295z" />
    <glyph glyph-name="lslash" unicode="&#x142;" horiz-adv-x="240" 
d="M148 733h83l-103 -733h-82zM147 360l1 6l-24 -9l-1 -6z" />
    <glyph glyph-name="Nacute" unicode="&#x143;" horiz-adv-x="721" 
d="M153 720h86l300 -576l81 576h85l-100 -720h-86l-300 576l-81 -576h-86zM398 774l59 123h87l-77 -123h-69z" />
    <glyph glyph-name="nacute" unicode="&#x144;" horiz-adv-x="570" 
d="M527 319q0 -20 -3 -44l-39 -275h-82l38 270q3 20 3 35q0 63 -32.5 91.5t-86.5 28.5q-64 0 -107.5 -43t-54.5 -115l-37 -266h-82l68 486h78l-7 -69q23 37 66 59.5t97 22.5q33 0 65.5 -10.5t58 -32.5t41.5 -56t16 -82zM290 544l59 123h87l-77 -123h-69z" />
    <glyph glyph-name="Ncommaaccent" unicode="&#x145;" horiz-adv-x="721" 
d="M153 720h86l300 -576l81 576h85l-100 -720h-86l-300 576l-81 -576h-86zM379 -91q-4 -42 -31.5 -66.5t-61.5 -24.5l4 26q16 1 27.5 10.5t14.5 25.5q-6 -2 -12 -2q-20 0 -31.5 11.5t-10.5 33.5q0 20 14 33.5t36 13.5q23 0 38 -15.5t13 -45.5z" />
    <glyph glyph-name="ncommaaccent" unicode="&#x146;" horiz-adv-x="570" 
d="M527 319q0 -20 -3 -44l-39 -275h-82l38 270q3 20 3 35q0 63 -32.5 91.5t-86.5 28.5q-64 0 -107.5 -43t-54.5 -115l-37 -266h-82l68 486h78l-7 -69q23 37 66 59.5t97 22.5q33 0 65.5 -10.5t58 -32.5t41.5 -56t16 -82zM297 -91q-4 -42 -31.5 -66.5t-61.5 -24.5l4 26
q16 1 27.5 10.5t14.5 25.5q-6 -2 -12 -2q-20 0 -31.5 11.5t-10.5 33.5q0 20 14 33.5t36 13.5q23 0 38 -15.5t13 -45.5z" />
    <glyph glyph-name="Ncaron" unicode="&#x147;" horiz-adv-x="721" 
d="M153 720h86l300 -576l81 576h85l-100 -720h-86l-300 576l-81 -576h-86zM585 904l-99 -130h-80h-16l-61 130h75l41 -81l64 81h76z" />
    <glyph glyph-name="ncaron" unicode="&#x148;" horiz-adv-x="570" 
d="M527 319q0 -20 -3 -44l-39 -275h-82l38 270q3 20 3 35q0 63 -32.5 91.5t-86.5 28.5q-64 0 -107.5 -43t-54.5 -115l-37 -266h-82l68 486h78l-7 -69q23 37 66 59.5t97 22.5q33 0 65.5 -10.5t58 -32.5t41.5 -56t16 -82zM478 674l-99 -130h-80h-16l-61 130h75l41 -81l64 81
h76z" />
    <glyph glyph-name="Eng" unicode="&#x14a;" horiz-adv-x="714" 
d="M695 720l-109 -777q-9 -64 -50 -96t-95 -32q-24 0 -51 8l10 69q20 -5 34 -5q30 0 50.5 16.5t25.5 52.5l6 44h-6l-294 574l-81 -574h-84l102 720h84l294 -575l80 575h84z" />
    <glyph glyph-name="eng" unicode="&#x14b;" horiz-adv-x="568" 
d="M510 327q0 -7 -1 -19.5t-3 -30.5l-39 -277l-6 -42q-8 -63 -47.5 -95.5t-90.5 -32.5q-21 0 -47 8l11 68q12 -4 30 -4q57 0 64 61l4 37l40 282q1 6 1.5 14t0.5 19q0 60 -31 85t-79 25q-63 0 -108 -41t-55 -113l-38 -270h-81l68 486h75l-5 -65q27 36 73 57t98 21
q68 0 117 -40t49 -133z" />
    <glyph glyph-name="Omacron" unicode="&#x14c;" horiz-adv-x="767" 
d="M429 733q70 0 127.5 -24t99 -67.5t64.5 -104t23 -134.5q1 -88 -28.5 -164t-80.5 -132t-119 -87.5t-144 -29.5q-70 0 -128 24t-99.5 67t-64.5 104t-23 134q-1 88 28.5 164.5t81 132.5t119.5 87.5t144 29.5zM372 74q58 -1 109.5 24.5t90 70t60 104.5t20.5 129
q0 55 -16 100.5t-45 78t-70.5 50.5t-92.5 18q-58 1 -109.5 -24t-90 -69.5t-60.5 -104.5t-21 -129q0 -55 16 -100.5t45 -78.5t71 -51t93 -18zM607 844l-9 -62h-280l8 62h281z" />
    <glyph glyph-name="omacron" unicode="&#x14d;" horiz-adv-x="577" 
d="M320 500q50 0 92 -17t72 -48t47 -73.5t17 -93.5q1 -55 -19.5 -106.5t-57 -90.5t-86.5 -61.5t-107 -21.5q-51 0 -92.5 17t-71.5 47.5t-46.5 73t-16.5 93.5q-1 56 19.5 107t57 90t86 62t106.5 22zM281 62q39 0 73 16t58.5 44t38.5 66t14 82q0 72 -40 113.5t-106 42.5
q-40 0 -74 -16.5t-59 -45t-38.5 -66.5t-13.5 -80q0 -72 40 -114t107 -42zM491 614l-9 -62h-280l8 62h281z" />
    <glyph glyph-name="Ohungarumlaut" unicode="&#x150;" horiz-adv-x="767" 
d="M429 733q70 0 127.5 -24t99 -67.5t64.5 -104t23 -134.5q1 -88 -28.5 -164t-80.5 -132t-119 -87.5t-144 -29.5q-70 0 -128 24t-99.5 67t-64.5 104t-23 134q-1 88 28.5 164.5t81 132.5t119.5 87.5t144 29.5zM372 74q58 -1 109.5 24.5t90 70t60 104.5t20.5 129
q0 55 -16 100.5t-45 78t-70.5 50.5t-92.5 18q-58 1 -109.5 -24t-90 -69.5t-60.5 -104.5t-21 -129q0 -55 16 -100.5t45 -78.5t71 -51t93 -18zM348 782l55 123h86l-72 -123h-69zM471 782l68 123h87l-86 -123h-69z" />
    <glyph glyph-name="ohungarumlaut" unicode="&#x151;" horiz-adv-x="577" 
d="M320 500q50 0 92 -17t72 -48t47 -73.5t17 -93.5q1 -55 -19.5 -106.5t-57 -90.5t-86.5 -61.5t-107 -21.5q-51 0 -92.5 17t-71.5 47.5t-46.5 73t-16.5 93.5q-1 56 19.5 107t57 90t86 62t106.5 22zM281 62q39 0 73 16t58.5 44t38.5 66t14 82q0 72 -40 113.5t-106 42.5
q-40 0 -74 -16.5t-59 -45t-38.5 -66.5t-13.5 -80q0 -72 40 -114t107 -42zM234 552l55 123h86l-72 -123h-69zM357 552l68 123h87l-86 -123h-69z" />
    <glyph glyph-name="OE" unicode="&#x152;" horiz-adv-x="1194" 
d="M824 636l-34 -243h319l-11 -72h-317q-1 -4 -2 -10t-3 -14l-31 -223l352 -1l-11 -73h-352h-74l15 105q-54 -57 -126.5 -89t-156.5 -32q-66 0 -122 24.5t-96.5 68t-63.5 102t-23 127.5q-1 86 29.5 163t84 134.5t126 90.5t153.5 31q87 0 154.5 -38t107.5 -105l18 128h74
l352 -1l-11 -74zM709 398q0 56 -16.5 102t-46.5 79t-72.5 51t-95.5 18q-64 1 -121 -25t-99.5 -71.5t-67 -107t-23.5 -130.5q0 -54 16.5 -100.5t46.5 -80t72.5 -52.5t93.5 -19q66 -1 123.5 24.5t100 71t66.5 107.5t23 133z" />
    <glyph glyph-name="oe" unicode="&#x153;" horiz-adv-x="962" 
d="M936 289q0 -21 -3 -45l-6 -39h-387q-2 -72 35 -108.5t100 -36.5q52 0 93 24t68 66l60 -33q-39 -63 -97 -96t-130 -33q-69 0 -118.5 31t-67.5 85q-35 -55 -90.5 -85.5t-124.5 -30.5q-48 0 -88.5 15.5t-69.5 44.5t-45 69.5t-16 90.5q-1 60 20 113.5t58 93.5t87.5 63
t108.5 22q72 0 122 -31t71 -85q34 55 88.5 85.5t123.5 30.5q96 0 152 -56t56 -155zM855 295q0 63 -35 99t-95 36q-33 0 -62.5 -11.5t-53 -33t-39.5 -51.5t-22 -66h305q1 9 1.5 15.5t0.5 11.5zM464 271q0 69 -37 112t-104 43q-40 0 -75 -16.5t-60 -45t-39.5 -67t-14.5 -83.5
q0 -70 37 -111t103 -41q41 0 75.5 16.5t60 44.5t40 66.5t14.5 81.5z" />
    <glyph glyph-name="Racute" unicode="&#x154;" horiz-adv-x="648" 
d="M642 527q0 -87 -45.5 -145.5t-126.5 -79.5l99 -302h-96l-92 292h-202l-41 -292h-86l101 720h86h196q96 0 151.5 -51t55.5 -142zM228 642l-38 -272h187q84 0 128.5 42t44.5 114q0 116 -132 116h-190zM306 774l59 123h87l-77 -123h-69z" />
    <glyph glyph-name="racute" unicode="&#x155;" horiz-adv-x="355" 
d="M322 493q28 0 53 -6l-10 -76q-22 5 -46 5q-64 0 -105.5 -40t-50.5 -106l-37 -270h-82l68 487h76l-4 -62q19 34 56 51t82 17zM117 548l59 123h87l-77 -123h-69z" />
    <glyph glyph-name="Rcommaaccent" unicode="&#x156;" horiz-adv-x="648" 
d="M642 527q0 -87 -45.5 -145.5t-126.5 -79.5l99 -302h-96l-92 292h-202l-41 -292h-86l101 720h86h196q96 0 151.5 -51t55.5 -142zM228 642l-38 -272h187q84 0 128.5 42t44.5 114q0 116 -132 116h-190zM348 -91q-4 -42 -31.5 -66.5t-61.5 -24.5l4 26q16 1 27.5 10.5
t14.5 25.5q-6 -2 -12 -2q-20 0 -31.5 11.5t-10.5 33.5q0 20 14 33.5t36 13.5q23 0 38 -15.5t13 -45.5z" />
    <glyph glyph-name="rcommaaccent" unicode="&#x157;" horiz-adv-x="355" 
d="M322 493q28 0 53 -6l-10 -76q-22 5 -46 5q-64 0 -105.5 -40t-50.5 -106l-37 -270h-82l68 487h76l-4 -62q19 34 56 51t82 17zM130 -91q-4 -42 -31.5 -66.5t-61.5 -24.5l4 26q16 1 27.5 10.5t14.5 25.5q-6 -2 -12 -2q-20 0 -31.5 11.5t-10.5 33.5q0 20 14 33.5t36 13.5
q23 0 38 -15.5t13 -45.5z" />
    <glyph glyph-name="Rcaron" unicode="&#x158;" horiz-adv-x="648" 
d="M642 527q0 -87 -45.5 -145.5t-126.5 -79.5l99 -302h-96l-92 292h-202l-41 -292h-86l101 720h86h196q96 0 151.5 -51t55.5 -142zM228 642l-38 -272h187q84 0 128.5 42t44.5 114q0 116 -132 116h-190zM494 904l-99 -130h-80h-16l-61 130h75l41 -81l64 81h76z" />
    <glyph glyph-name="rcaron" unicode="&#x159;" horiz-adv-x="355" 
d="M322 493q28 0 53 -6l-10 -76q-22 5 -46 5q-64 0 -105.5 -40t-50.5 -106l-37 -270h-82l68 487h76l-4 -62q19 34 56 51t82 17zM305 678l-99 -130h-80h-16l-61 130h75l41 -81l64 81h76z" />
    <glyph glyph-name="Sacute" unicode="&#x15a;" horiz-adv-x="575" 
d="M343 733q51 0 92 -13t70 -36t45 -54.5t17 -68.5l-84 -22q-3 55 -42.5 85t-105.5 30q-36 0 -66 -10t-51.5 -27.5t-33 -41.5t-11.5 -53q0 -42 24.5 -66t72.5 -39l95 -28q166 -51 166 -190q0 -46 -19 -85t-54 -67t-84.5 -43.5t-109.5 -15.5q-103 0 -166 45.5t-70 130.5
l85 21q1 -54 39 -85.5t116 -31.5q39 0 71.5 8.5t56.5 25t37 39.5t13 53q0 83 -107 115l-99 31q-78 24 -115.5 68.5t-37.5 107.5q0 47 18.5 86.5t52.5 68.5t81 45.5t104 16.5zM322 774l59 123h87l-77 -123h-69z" />
    <glyph glyph-name="sacute" unicode="&#x15b;" horiz-adv-x="447" 
d="M205 57q45 0 77 18.5t38 58.5q5 51 -60 68l-70 21q-112 33 -112 121q0 32 12.5 60t36.5 49.5t58 34t77 12.5q72 0 117 -32.5t47 -89.5l-76 -16q0 32 -25 50.5t-64 18.5q-45 0 -72.5 -21t-30.5 -54q-4 -27 13 -43t50 -26l70 -21q111 -31 111 -121q0 -73 -53.5 -115
t-143.5 -42q-78 0 -124 35t-48 93l76 13q-1 -33 24.5 -52.5t71.5 -19.5zM238 564l59 123h87l-77 -123h-69z" />
    <glyph glyph-name="Scircumflex" unicode="&#x15c;" horiz-adv-x="575" 
d="M343 733q51 0 92 -13t70 -36t45 -54.5t17 -68.5l-84 -22q-3 55 -42.5 85t-105.5 30q-36 0 -66 -10t-51.5 -27.5t-33 -41.5t-11.5 -53q0 -42 24.5 -66t72.5 -39l95 -28q166 -51 166 -190q0 -46 -19 -85t-54 -67t-84.5 -43.5t-109.5 -15.5q-103 0 -166 45.5t-70 130.5
l85 21q1 -54 39 -85.5t116 -31.5q39 0 71.5 8.5t56.5 25t37 39.5t13 53q0 83 -107 115l-99 31q-78 24 -115.5 68.5t-37.5 107.5q0 47 18.5 86.5t52.5 68.5t81 45.5t104 16.5zM415 774l-40 81l-64 -81h-76l98 130h80h17l61 -130h-76z" />
    <glyph glyph-name="scircumflex" unicode="&#x15d;" horiz-adv-x="447" 
d="M205 57q45 0 77 18.5t38 58.5q5 51 -60 68l-70 21q-112 33 -112 121q0 32 12.5 60t36.5 49.5t58 34t77 12.5q72 0 117 -32.5t47 -89.5l-76 -16q0 32 -25 50.5t-64 18.5q-45 0 -72.5 -21t-30.5 -54q-4 -27 13 -43t50 -26l70 -21q111 -31 111 -121q0 -73 -53.5 -115
t-143.5 -42q-78 0 -124 35t-48 93l76 13q-1 -33 24.5 -52.5t71.5 -19.5zM331 564l-40 81l-64 -81h-76l98 130h80h17l61 -130h-76z" />
    <glyph glyph-name="Scedilla" unicode="&#x15e;" horiz-adv-x="575" 
d="M531 199q0 -44 -17.5 -81.5t-50 -65.5t-78 -45t-101.5 -19l-22 -21h36q29 0 43.5 -17.5t14.5 -43.5q0 -32 -21.5 -55.5t-54.5 -23.5h-98l7 48h82q13 0 21.5 7.5t8.5 18.5q0 21 -23 21h-83l7 45l23 22q-87 8 -138.5 53.5t-58.5 121.5l85 21q1 -54 39 -85.5t116 -31.5
q39 0 71.5 8.5t56.5 25t37 39.5t13 53q0 83 -107 115l-99 31q-78 24 -115.5 68.5t-37.5 107.5q0 47 18.5 86.5t52.5 68.5t81 45.5t104 16.5q51 0 92 -13t70 -36t45 -54.5t17 -68.5l-84 -22q-3 55 -42.5 85t-105.5 30q-36 0 -66 -10t-51.5 -27.5t-33 -41.5t-11.5 -53
q0 -42 24.5 -66t72.5 -39l95 -28q166 -51 166 -190z" />
    <glyph glyph-name="scedilla" unicode="&#x15f;" horiz-adv-x="447" 
d="M402 145q0 -69 -50 -111t-132 -46l-24 -23h36q29 0 43.5 -17.5t14.5 -43.5q0 -32 -21.5 -55.5t-54.5 -23.5h-98l7 48h82q13 0 21.5 7.5t8.5 18.5q0 21 -23 21h-83l7 45l27 26q-61 9 -95 41.5t-35 83.5l76 13q-1 -33 24.5 -52.5t71.5 -19.5q45 0 77 18.5t38 58.5
q5 51 -60 68l-70 21q-112 33 -112 121q0 32 12.5 60t36.5 49.5t58 34t77 12.5q72 0 117 -32.5t47 -89.5l-76 -16q0 32 -25 50.5t-64 18.5q-45 0 -72.5 -21t-30.5 -54q-4 -27 13 -43t50 -26l70 -21q111 -31 111 -121z" />
    <glyph glyph-name="Scaron" unicode="&#x160;" horiz-adv-x="575" 
d="M343 733q51 0 92 -13t70 -36t45 -54.5t17 -68.5l-84 -22q-3 55 -42.5 85t-105.5 30q-36 0 -66 -10t-51.5 -27.5t-33 -41.5t-11.5 -53q0 -42 24.5 -66t72.5 -39l95 -28q166 -51 166 -190q0 -46 -19 -85t-54 -67t-84.5 -43.5t-109.5 -15.5q-103 0 -166 45.5t-70 130.5
l85 21q1 -54 39 -85.5t116 -31.5q39 0 71.5 8.5t56.5 25t37 39.5t13 53q0 83 -107 115l-99 31q-78 24 -115.5 68.5t-37.5 107.5q0 47 18.5 86.5t52.5 68.5t81 45.5t104 16.5zM510 904l-99 -130h-80h-16l-61 130h75l41 -81l64 81h76z" />
    <glyph glyph-name="scaron" unicode="&#x161;" horiz-adv-x="447" 
d="M205 57q45 0 77 18.5t38 58.5q5 51 -60 68l-70 21q-112 33 -112 121q0 32 12.5 60t36.5 49.5t58 34t77 12.5q72 0 117 -32.5t47 -89.5l-76 -16q0 32 -25 50.5t-64 18.5q-45 0 -72.5 -21t-30.5 -54q-4 -27 13 -43t50 -26l70 -21q111 -31 111 -121q0 -73 -53.5 -115
t-143.5 -42q-78 0 -124 35t-48 93l76 13q-1 -33 24.5 -52.5t71.5 -19.5zM426 694l-99 -130h-80h-16l-61 130h75l41 -81l64 81h76z" />
    <glyph glyph-name="uni0162" unicode="&#x162;" horiz-adv-x="539" 
d="M588 639h-216l-89 -639h-86l89 639h-217l12 81h518zM168 -120h82q13 0 21.5 7.5t8.5 18.5q0 21 -23 21h-83l7 45l55 53h35l-4 -28l-26 -25h36q29 0 43.5 -17.5t14.5 -43.5q0 -32 -21.5 -55.5t-54.5 -23.5h-98z" />
    <glyph glyph-name="uni0163" unicode="&#x163;" horiz-adv-x="328" 
d="M330 415h-96l-58 -415h-81l58 415h-96l10 72h96l21 153h82l-22 -153h96zM64 -120h82q13 0 21.5 7.5t8.5 18.5q0 21 -23 21h-83l7 45l55 53h35l-4 -28l-26 -25h36q29 0 43.5 -17.5t14.5 -43.5q0 -32 -21.5 -55.5t-54.5 -23.5h-98z" />
    <glyph glyph-name="Tcaron" unicode="&#x164;" horiz-adv-x="539" 
d="M588 639h-216l-89 -639h-86l89 639h-217l12 81h518zM495 904l-99 -130h-80h-16l-61 130h75l41 -81l64 81h76z" />
    <glyph glyph-name="tcaron" unicode="&#x165;" horiz-adv-x="344" 
d="M380 688q0 -2 -0.5 -5t-1.5 -8l-34 -143h-43l5 143q1 20 14 31t29 11q13 0 22 -7.5t9 -21.5zM245 487h95l-9 -72h-96l-59 -415h-81l58 415h-96l10 72h96l22 153h81z" />
    <glyph glyph-name="Tbar" unicode="&#x166;" horiz-adv-x="539" 
d="M372 639l-29 -205h149l-10 -75h-149l-50 -359h-86l50 359h-150l11 75h149l29 205h-217l12 81h518l-11 -81h-216z" />
    <glyph glyph-name="tbar" unicode="&#x167;" horiz-adv-x="331" 
d="M234 415l-14 -100h100l-10 -71h-100l-34 -244h-81l34 244h-93l10 71h93l14 100h-96l10 72h96l21 153h82l-22 -153h96l-10 -72h-96z" />
    <glyph glyph-name="Utilde" unicode="&#x168;" horiz-adv-x="699" 
d="M145 720h86l-63 -452q-3 -21 -3 -40q0 -85 50 -121q51 -36 118 -36q82 0 140.5 48t73.5 152l63 449h86l-67 -474q-18 -130 -99 -194q-80 -64 -197 -64q-49 0 -95.5 13.5t-82 42t-57 72t-21.5 103.5q0 14 1 27t3 26zM376 909q19 0 35 -6.5t36 -18.5q17 -10 28.5 -15
t24.5 -5q35 0 38 43h60q-3 -54 -31 -82t-70 -28q-21 0 -38 7t-37 20q-12 7 -24 12.5t-22 5.5q-31 0 -37 -45h-60q2 54 30 83t67 29z" />
    <glyph glyph-name="utilde" unicode="&#x169;" horiz-adv-x="562" 
d="M545 487l-68 -487h-75l3 66q-26 -36 -70.5 -57t-95.5 -21q-36 0 -67 9.5t-54 30t-36 52t-13 74.5q0 21 3 46l40 287h83l-39 -283q-3 -18 -3 -34q0 -59 32 -84t78 -25q61 0 106 41t55 110l39 275h82zM284 679q19 0 35 -6.5t36 -18.5q17 -10 28.5 -15t24.5 -5q35 0 38 43
h60q-3 -54 -31 -82t-70 -28q-21 0 -38 7t-37 20q-12 7 -24 12.5t-22 5.5q-31 0 -37 -45h-60q2 54 30 83t67 29z" />
    <glyph glyph-name="Umacron" unicode="&#x16a;" horiz-adv-x="699" 
d="M145 720h86l-63 -452q-3 -21 -3 -40q0 -85 50 -121q51 -36 118 -36q82 0 140.5 48t73.5 152l63 449h86l-67 -474q-18 -130 -99 -194q-80 -64 -197 -64q-49 0 -95.5 13.5t-82 42t-57 72t-21.5 103.5q0 14 1 27t3 26zM578 844l-9 -62h-280l8 62h281z" />
    <glyph glyph-name="umacron" unicode="&#x16b;" horiz-adv-x="562" 
d="M545 487l-68 -487h-75l3 66q-26 -36 -70.5 -57t-95.5 -21q-36 0 -67 9.5t-54 30t-36 52t-13 74.5q0 21 3 46l40 287h83l-39 -283q-3 -18 -3 -34q0 -59 32 -84t78 -25q61 0 106 41t55 110l39 275h82zM487 614l-9 -62h-280l8 62h281z" />
    <glyph glyph-name="Uring" unicode="&#x16e;" horiz-adv-x="699" 
d="M145 720h86l-63 -452q-3 -21 -3 -40q0 -85 50 -121q51 -36 118 -36q82 0 140.5 48t73.5 152l63 449h86l-67 -474q-18 -130 -99 -194q-80 -64 -197 -64q-49 0 -95.5 13.5t-82 42t-57 72t-21.5 103.5q0 14 1 27t3 26zM331 867q0 26 10.5 49t28.5 40t41 27.5t48 10.5
q42 0 70 -29t28 -71q0 -25 -11 -47.5t-29 -39.5t-41.5 -27.5t-48.5 -10.5q-42 0 -69 28t-27 70zM501 889q0 21 -14 35.5t-35 14.5q-26 0 -45.5 -19t-19.5 -45q0 -22 13.5 -36t35.5 -14q27 0 46 18.5t19 45.5z" />
    <glyph glyph-name="uring" unicode="&#x16f;" horiz-adv-x="562" 
d="M545 487l-68 -487h-75l3 66q-26 -36 -70.5 -57t-95.5 -21q-36 0 -67 9.5t-54 30t-36 52t-13 74.5q0 21 3 46l40 287h83l-39 -283q-3 -18 -3 -34q0 -59 32 -84t78 -25q61 0 106 41t55 110l39 275h82zM239 637q0 26 10.5 49t28.5 40t41 27.5t48 10.5q42 0 70 -29t28 -71
q0 -25 -11 -47.5t-29 -39.5t-41.5 -27.5t-48.5 -10.5q-42 0 -69 28t-27 70zM409 659q0 21 -14 35.5t-35 14.5q-26 0 -45.5 -19t-19.5 -45q0 -22 13.5 -36t35.5 -14q27 0 46 18.5t19 45.5z" />
    <glyph glyph-name="Uhungarumlaut" unicode="&#x170;" horiz-adv-x="699" 
d="M145 720h86l-63 -452q-3 -21 -3 -40q0 -85 50 -121q51 -36 118 -36q82 0 140.5 48t73.5 152l63 449h86l-67 -474q-18 -130 -99 -194q-80 -64 -197 -64q-49 0 -95.5 13.5t-82 42t-57 72t-21.5 103.5q0 14 1 27t3 26zM325 774l55 123h86l-72 -123h-69zM448 774l68 123h87
l-86 -123h-69z" />
    <glyph glyph-name="uhungarumlaut" unicode="&#x171;" horiz-adv-x="562" 
d="M545 487l-68 -487h-75l3 66q-26 -36 -70.5 -57t-95.5 -21q-36 0 -67 9.5t-54 30t-36 52t-13 74.5q0 21 3 46l40 287h83l-39 -283q-3 -18 -3 -34q0 -59 32 -84t78 -25q61 0 106 41t55 110l39 275h82zM234 544l55 123h86l-72 -123h-69zM357 544l68 123h87l-86 -123h-69z
" />
    <glyph glyph-name="Uogonek" unicode="&#x172;" horiz-adv-x="699" 
d="M696 720l-67 -474q-18 -130 -99 -194q-80 -64 -197 -64h-14q-26 -14 -39.5 -30.5t-13.5 -31.5q0 -12 9 -20t24 -8q9 0 19 3l-9 -63q-22 -6 -40 -6q-34 0 -52.5 18.5t-18.5 45.5q0 29 19.5 56t55.5 41q-42 8 -78 25.5t-62.5 46t-41 67.5t-14.5 88q0 31 4 52l64 448h86
l-63 -452q-3 -21 -3 -40q0 -85 50 -121q51 -36 118 -36q82 0 140.5 48t73.5 152l63 449h86z" />
    <glyph glyph-name="uogonek" unicode="&#x173;" horiz-adv-x="562" 
d="M419 -69q0 -12 8.5 -20t23.5 -8q9 0 19 3l-9 -63q-22 -6 -41 -6q-33 0 -51.5 18t-18.5 46q0 29 21 57t59 42h-28l3 66q-26 -36 -70.5 -57t-95.5 -21q-36 0 -67 9.5t-54 30t-36 52t-13 74.5q0 21 3 46l40 287h83l-39 -283q-3 -18 -3 -34q0 -59 32 -84t78 -25q61 0 106 41
t55 110l39 275h82l-68 -487h8q-33 -14 -49.5 -33t-16.5 -36z" />
    <glyph glyph-name="Wcircumflex" unicode="&#x174;" horiz-adv-x="990" 
d="M1044 720l-318 -720h-82l-102 573l-264 -573h-84l-113 720h92l84 -576l259 576h93l96 -578l248 578h91zM622 774l-40 81l-64 -81h-76l98 130h80h17l61 -130h-76z" />
    <glyph glyph-name="wcircumflex" unicode="&#x175;" horiz-adv-x="766" 
d="M792 487l-235 -487h-79l-70 364l-172 -364h-82l-94 487h85l64 -367l171 367h85l66 -368l170 368h91zM487 543l-40 81l-64 -81h-76l98 130h80h17l61 -130h-76z" />
    <glyph glyph-name="Ycircumflex" unicode="&#x176;" horiz-adv-x="587" 
d="M174 720l140 -340l242 340h94l-301 -422l-41 -298h-87l42 298l-186 422h97zM425 774l-40 81l-64 -81h-76l98 130h80h17l61 -130h-76z" />
    <glyph glyph-name="ycircumflex" unicode="&#x177;" horiz-adv-x="527" 
d="M553 487l-316 -606q-29 -57 -70 -82t-86 -25q-55 0 -95 28l30 71q27 -21 62 -21q26 0 49 14t37 42l33 65l-138 514h87l102 -414l212 414h93zM368 544l-40 81l-64 -81h-76l98 130h80h17l61 -130h-76z" />
    <glyph glyph-name="Ydieresis" unicode="&#x178;" horiz-adv-x="587" 
d="M174 720l140 -340l242 340h94l-301 -422l-41 -298h-87l42 298l-186 422h97zM228 831q0 28 22 49.5t50 21.5q23 0 39 -17t16 -40q0 -27 -22 -48t-50 -21q-24 0 -39.5 16t-15.5 39zM408 831q0 28 22 49.5t50 21.5q23 0 39 -17t16 -40q0 -13 -6 -25.5t-16.5 -22.5t-23 -15.5
t-26.5 -5.5q-24 0 -39.5 16t-15.5 39z" />
    <glyph glyph-name="Zacute" unicode="&#x179;" horiz-adv-x="559" 
d="M20 82l459 555h-379l11 83h480l-11 -82l-459 -556h376l-11 -82h-476zM318 774l59 123h87l-77 -123h-69z" />
    <glyph glyph-name="zacute" unicode="&#x17a;" horiz-adv-x="461" 
d="M30 76l318 338h-271l11 73h373l-11 -76l-320 -338h272l-9 -73h-373zM241 544l59 123h87l-77 -123h-69z" />
    <glyph glyph-name="Zdotaccent" unicode="&#x17b;" horiz-adv-x="559" 
d="M20 82l459 555h-379l11 83h480l-11 -82l-459 -556h376l-11 -82h-476zM305 832q0 28 22 49t50 21q23 0 38.5 -16.5t15.5 -39.5q0 -27 -22 -48t-49 -21q-24 0 -39.5 16t-15.5 39z" />
    <glyph glyph-name="zdotaccent" unicode="&#x17c;" horiz-adv-x="461" 
d="M30 76l318 338h-271l11 73h373l-11 -76l-320 -338h272l-9 -73h-373zM228 602q0 28 22 49t50 21q23 0 38.5 -16.5t15.5 -39.5q0 -27 -22 -48t-49 -21q-24 0 -39.5 16t-15.5 39z" />
    <glyph glyph-name="Zcaron" unicode="&#x17d;" horiz-adv-x="559" 
d="M20 82l459 555h-379l11 83h480l-11 -82l-459 -556h376l-11 -82h-476zM506 904l-99 -130h-80h-16l-61 130h75l41 -81l64 81h76z" />
    <glyph glyph-name="zcaron" unicode="&#x17e;" horiz-adv-x="461" 
d="M30 76l318 338h-271l11 73h373l-11 -76l-320 -338h272l-9 -73h-373zM429 674l-99 -130h-80h-16l-61 130h75l41 -81l64 81h76z" />
    <glyph glyph-name="florin" unicode="&#x192;" horiz-adv-x="514" 
d="M387 602l-32 -116h136l-10 -72h-147l-19 -68h-1l-107 -376q-15 -55 -47.5 -82.5t-77.5 -27.5h-82l10 78h60q45 0 59 50l103 358l19 68h-117l9 72h129l36 127q14 54 46.5 82.5t96.5 28.5h77l-11 -77h-71q-25 0 -38.5 -11.5t-20.5 -33.5z" />
    <glyph glyph-name="Aringacute" unicode="&#x1fa;" horiz-adv-x="632" 
d="M457 914h-69l60 123h86zM595 0h-89l-40 185h-311l-93 -185h-86l347 695q-30 29 -30 74q0 26 11 49t29 40t41 27.5t47 10.5q42 0 70 -29.5t28 -71.5q0 -37 -22.5 -68t-57.5 -46zM349 776q0 -22 13.5 -36t35.5 -14q27 0 46 18.5t19 45.5q0 21 -14 35.5t-35 14.5
q-27 0 -46 -18.5t-19 -45.5zM450 259l-78 356l-181 -356h259z" />
    <glyph glyph-name="aringacute" unicode="&#x1fb;" horiz-adv-x="591" 
d="M385 690h-68l59 116h85zM574 487l-68 -487h-76l8 86q-25 -45 -74.5 -71.5t-106.5 -26.5q-48 0 -86.5 16.5t-65.5 46.5t-41 72t-14 93q0 99 50 175q50 75 132 99q-15 24 -15 55q0 26 10.5 49t28.5 40t41 27.5t48 10.5q42 0 70 -29.5t28 -71.5q0 -26 -12 -50t-33 -43
q59 -29 83 -86l16 95h77zM273 552q0 -22 13.5 -36t35.5 -14q27 0 46 18.5t19 45.5q0 21 -14 35.5t-35 14.5q-27 0 -46 -18.5t-19 -45.5zM453 266q0 70 -38.5 114.5t-104.5 44.5q-38 0 -70.5 -16.5t-56 -44t-36.5 -64.5t-13 -79q0 -78 38.5 -119t102.5 -41q38 0 70.5 17
t56.5 45t37.5 65.5t13.5 77.5z" />
    <glyph glyph-name="AEacute" unicode="&#x1fc;" horiz-adv-x="900" 
d="M541 638l-33 -236l319 -1l-12 -79h-319l-34 -241h354l-13 -81h-352h-82l29 201h-227l-103 -201h-92l376 719h87h32h81h353l-13 -82zM459 638h-62l-188 -364h199zM582 774l59 123h87l-77 -123h-69z" />
    <glyph glyph-name="aeacute" unicode="&#x1fd;" horiz-adv-x="873" 
d="M848 296q0 -20 -3 -41q-1 -18 -6 -42h-393q-4 -75 34 -114t104 -39q51 0 93.5 24t69.5 66l60 -33q-39 -66 -98.5 -97.5t-131.5 -31.5q-67 0 -115 29.5t-68 81.5q-27 -54 -78 -82.5t-117 -28.5q-36 0 -67.5 9t-55 26.5t-36.5 44t-13 60.5q0 66 43 107.5t115 41.5h149
q22 0 32 13t10 42q0 49 -30.5 73.5t-76.5 24.5q-51 0 -86.5 -21t-60.5 -63l-57 37q71 117 204 117q63 0 108.5 -28t59.5 -74q31 45 84 73.5t116 28.5q48 0 87 -14.5t66.5 -41t42.5 -64t15 -84.5zM767 300q0 60 -37 95t-98 35q-66 0 -113.5 -41.5t-63.5 -113.5h310
q1 9 1.5 15t0.5 10zM369 214h-170q-45 0 -69 -22.5t-24 -59.5q0 -39 28.5 -58t73.5 -19q70 0 108.5 38.5t49.5 101.5zM431 544l59 123h87l-77 -123h-69z" />
    <glyph glyph-name="Oslashacute" unicode="&#x1fe;" horiz-adv-x="769" 
d="M732 404q1 -88 -28.5 -164.5t-80.5 -132.5t-119 -87.5t-144 -29.5q-82 0 -145 31l-18 -29h-84l42 68q-52 45 -81 111.5t-29 148.5q-1 88 28.5 164t80.5 132t119 87.5t144 29.5q77 0 141 -29l15 24h84l-38 -61q54 -45 83.5 -111.5t29.5 -151.5zM512 630q-45 19 -96 19
q-58 1 -109.5 -24.5t-89.5 -70t-60 -104.5t-21 -128q0 -58 17.5 -105.5t49.5 -79.5zM641 402q0 60 -18 108t-52 80l-309 -495q45 -20 98 -20q58 -1 109.5 24t90 69.5t60.5 104.5t21 129zM345 769l59 123h87l-77 -123h-69z" />
    <glyph glyph-name="oslashacute" unicode="&#x1ff;" horiz-adv-x="577" 
d="M484 436q31 -31 47.5 -73.5t16.5 -93.5q1 -55 -19.5 -106.5t-57 -90.5t-86 -62t-107.5 -22q-62 0 -113 27l-49 -65h-76l76 100q-31 30 -48 73.5t-17 94.5q-1 56 19.5 107.5t56.5 90.5t86 62t107 22q64 0 117 -29l43 57h74zM390 409q-31 16 -71 17q-40 0 -74 -17t-59 -46
t-38.5 -67t-13.5 -80q0 -63 31 -101zM212 77q29 -15 69 -15q39 0 73 16t58.5 44t38.5 66t14 81q0 62 -30 102zM300 544l59 123h87l-77 -123h-69z" />
    <glyph glyph-name="Scommaaccent" unicode="&#x218;" horiz-adv-x="575" 
d="M343 733q51 0 92 -13t70 -36t45 -54.5t17 -68.5l-84 -22q-3 55 -42.5 85t-105.5 30q-36 0 -66 -10t-51.5 -27.5t-33 -41.5t-11.5 -53q0 -42 24.5 -66t72.5 -39l95 -28q166 -51 166 -190q0 -46 -19 -85t-54 -67t-84.5 -43.5t-109.5 -15.5q-103 0 -166 45.5t-70 130.5
l85 21q1 -54 39 -85.5t116 -31.5q39 0 71.5 8.5t56.5 25t37 39.5t13 53q0 83 -107 115l-99 31q-78 24 -115.5 68.5t-37.5 107.5q0 47 18.5 86.5t52.5 68.5t81 45.5t104 16.5zM305 -96q-4 -42 -31.5 -66.5t-61.5 -24.5l4 26q16 1 27.5 10.5t14.5 25.5q-6 -2 -12 -2
q-20 0 -31.5 11.5t-10.5 33.5q0 20 14 33.5t36 13.5q23 0 38 -15.5t13 -45.5z" />
    <glyph glyph-name="scommaaccent" unicode="&#x219;" horiz-adv-x="447" 
d="M205 57q45 0 77 18.5t38 58.5q5 51 -60 68l-70 21q-112 33 -112 121q0 32 12.5 60t36.5 49.5t58 34t77 12.5q72 0 117 -32.5t47 -89.5l-76 -16q0 32 -25 50.5t-64 18.5q-45 0 -72.5 -21t-30.5 -54q-4 -27 13 -43t50 -26l70 -21q111 -31 111 -121q0 -73 -53.5 -115
t-143.5 -42q-78 0 -124 35t-48 93l76 13q-1 -33 24.5 -52.5t71.5 -19.5zM239 -97q-4 -42 -31.5 -66.5t-61.5 -24.5l4 26q16 1 27.5 10.5t14.5 25.5q-6 -2 -12 -2q-20 0 -31.5 11.5t-10.5 33.5q0 20 14 33.5t36 13.5q23 0 38 -15.5t13 -45.5z" />
    <glyph glyph-name="uni021A" unicode="&#x21a;" horiz-adv-x="539" 
d="M588 639h-216l-89 -639h-86l89 639h-217l12 81h518zM284 -91q-4 -42 -31.5 -66.5t-61.5 -24.5l4 26q16 1 27.5 10.5t14.5 25.5q-6 -2 -12 -2q-20 0 -31.5 11.5t-10.5 33.5q0 20 14 33.5t36 13.5q23 0 38 -15.5t13 -45.5z" />
    <glyph glyph-name="uni021B" unicode="&#x21b;" horiz-adv-x="328" 
d="M330 415h-96l-58 -415h-81l58 415h-96l10 72h96l21 153h82l-22 -153h96zM179 -91q-4 -42 -31.5 -66.5t-61.5 -24.5l4 26q16 1 27.5 10.5t14.5 25.5q-6 -2 -12 -2q-20 0 -31.5 11.5t-10.5 33.5q0 20 14 33.5t36 13.5q23 0 38 -15.5t13 -45.5z" />
    <glyph glyph-name="uni0237" unicode="&#x237;" horiz-adv-x="241" 
d="M-83 -136q33 -14 56 -14q31 0 51.5 21.5t26.5 63.5l77 551h84l-79 -564q-11 -78 -53.5 -113t-100.5 -35q-47 0 -87 18z" />
    <glyph glyph-name="circumflex" unicode="&#x2c6;" horiz-adv-x="323" 
d="M328 767l-40 81l-64 -81h-76l98 130h80h17l61 -130h-76z" />
    <glyph glyph-name="caron" unicode="&#x2c7;" horiz-adv-x="321" 
d="M404 897l-99 -130h-80h-16l-61 130h75l41 -81l64 81h76z" />
    <glyph glyph-name="breve" unicode="&#x2d8;" horiz-adv-x="338" 
d="M278 767q-54 0 -89 32.5t-35 81.5q0 14 1 18h71q-4 -28 13.5 -45t48.5 -17q30 0 52 17t27 45h70q-7 -55 -54 -94q-47 -38 -105 -38z" />
    <glyph glyph-name="dotaccent" unicode="&#x2d9;" horiz-adv-x="166" 
d="M136 824q0 28 22 49.5t50 21.5q23 0 39 -17t16 -40q0 -27 -22 -48t-50 -21q-24 0 -39.5 16t-15.5 39z" />
    <glyph glyph-name="ring" unicode="&#x2da;" horiz-adv-x="261" 
d="M139 860q0 26 10.5 49t28.5 40t41 27.5t48 10.5q42 0 70 -29t28 -71q0 -25 -11 -47.5t-29 -39.5t-41.5 -27.5t-48.5 -10.5q-42 0 -69 28t-27 70zM309 882q0 21 -14 35.5t-35 14.5q-26 0 -45.5 -19t-19.5 -45q0 -22 13.5 -36t35.5 -14q27 0 46 18.5t19 45.5z" />
    <glyph glyph-name="ogonek" unicode="&#x2db;" horiz-adv-x="315" 
d="M213 0q-33 -14 -49.5 -33t-16.5 -36q0 -12 8.5 -20t23.5 -8q9 0 19 3l-9 -63q-22 -6 -41 -6q-33 0 -51.5 18t-18.5 46q0 29 21 57t59 42h55z" />
    <glyph glyph-name="tilde" unicode="&#x2dc;" horiz-adv-x="348" 
d="M229 902q19 0 35 -6.5t36 -18.5q17 -10 28.5 -15t24.5 -5q35 0 38 43h60q-3 -54 -31 -82t-70 -28q-21 0 -38 7t-37 20q-12 7 -24 12.5t-22 5.5q-31 0 -37 -45h-60q2 54 30 83t67 29z" />
    <glyph glyph-name="hungarumlaut" unicode="&#x2dd;" horiz-adv-x="358" 
d="M27 767l55 123h86l-72 -123h-69zM150 767l68 123h87l-86 -123h-69z" />
    <glyph glyph-name="gravecomb" unicode="&#x300;" 
d="M-214 900h87l66 -133h-69z" />
    <glyph glyph-name="acutecomb" unicode="&#x301;" 
d="M-179 767l59 123h87l-77 -123h-69z" />
    <glyph glyph-name="uni0302" unicode="&#x302;" 
d="M-8 767l-40 81l-64 -81h-76l98 130h80h17l61 -130h-76z" />
    <glyph glyph-name="tildecomb" unicode="&#x303;" 
d="M-117 902q19 0 35 -6.5t36 -18.5q17 -10 28.5 -15t24.5 -5q35 0 38 43h60q-3 -54 -31 -82t-70 -28q-21 0 -38 7t-37 20q-12 7 -24 12.5t-22 5.5q-31 0 -37 -45h-60q2 54 30 83t67 29z" />
    <glyph glyph-name="uni0304" unicode="&#x304;" 
d="M98 886l-9 -62h-281l9 62h281z" />
    <glyph glyph-name="uni0306" unicode="&#x306;" 
d="M-111 901q-1 -3 -1 -11q0 -25 17 -39t46 -14q31 0 53 17.5t26 46.5h71q-7 -55 -55 -95q-47 -39 -105 -39q-55 0 -89.5 32t-34.5 83q0 14 1 19h71z" />
    <glyph glyph-name="uni0307" unicode="&#x307;" 
d="M-95 825q0 28 22 49t50 21q23 0 38.5 -16.5t15.5 -39.5q0 -27 -22 -48t-49 -21q-24 0 -39.5 16t-15.5 39z" />
    <glyph glyph-name="uni0308" unicode="&#x308;" 
d="M-240 828q0 28 20.5 47.5t48.5 19.5q23 0 40 -17.5t17 -41.5q0 -26 -20.5 -46t-46.5 -20q-25 0 -42 17t-17 41zM-64 828q0 27 20.5 47t47.5 20q24 0 40.5 -17.5t16.5 -41.5q0 -27 -20 -46.5t-47 -19.5q-25 0 -41.5 17t-16.5 41z" />
    <glyph glyph-name="uni030A" unicode="&#x30a;" 
d="M-118 860q0 26 10.5 49t28.5 40t41 27.5t48 10.5q42 0 70 -29t28 -71q0 -25 -11 -47.5t-29 -39.5t-41.5 -27.5t-48.5 -10.5q-42 0 -69 28t-27 70zM52 882q0 21 -14 35.5t-35 14.5q-26 0 -45.5 -19t-19.5 -45q0 -22 13.5 -36t35.5 -14q27 0 46 18.5t19 45.5z" />
    <glyph glyph-name="uni030B" unicode="&#x30b;" 
d="M-304 767l66 133h87l-84 -133h-69zM-201 767l86 133h87l-104 -133h-69z" />
    <glyph glyph-name="uni030C" unicode="&#x30c;" 
d="M46 900l-90 -133h-80h-16l-70 133h76l46 -83l58 83h76z" />
    <glyph glyph-name="uni0312" unicode="&#x312;" 
d="M63 813q0 -21 -14 -35t-36 -14q-23 0 -38 15.5t-13 45.5q4 42 31.5 66.5t61.5 24.5l-4 -26q-16 -1 -27.5 -10.5t-14.5 -25.5q6 2 12 2q18 0 30 -11t12 -32z" />
    <glyph glyph-name="uni0326" unicode="&#x326;" 
d="M-49 -84q-4 -42 -31.5 -66.5t-61.5 -24.5l4 26q16 1 27.5 10.5t14.5 25.5q-6 -2 -12 -2q-20 0 -31.5 11.5t-10.5 33.5q0 20 14 33.5t36 13.5q23 0 38 -15.5t13 -45.5z" />
    <glyph glyph-name="uni0327" unicode="&#x327;" 
d="M-334 -117h82q13 0 21.5 7.5t8.5 18.5q0 21 -23 21h-83l7 45l55 53h35l-4 -28l-26 -25h36q29 0 43.5 -17.5t14.5 -43.5q0 -32 -21.5 -55.5t-54.5 -23.5h-98z" />
    <glyph glyph-name="uni0338" unicode="&#x338;" 
d="M-536 -41l440 578h74l-438 -578h-76z" />
    <glyph glyph-name="uni03A9" unicode="&#x3a9;" horiz-adv-x="645" 
d="M578 69v-69h-210v69q66 26 100 78.5t34 113.5q0 37 -13.5 68t-37 53t-55.5 34t-68 12t-68 -12.5t-55.5 -34.5t-37.5 -53t-14 -68q0 -63 35.5 -115t98.5 -76v-69h-210v69h97q-45 38 -70 89t-25 108q0 50 19 92.5t52.5 74t79 49.5t98.5 18q54 0 99.5 -18t78.5 -49
t51.5 -73.5t18.5 -92.5q0 -60 -24.5 -110t-70.5 -88h97z" />
    <glyph glyph-name="pi" unicode="&#x3c0;" horiz-adv-x="616" 
d="M470 414v-284q0 -31 11 -42.5t33 -11.5l59 -1v-75h-86q-51 0 -75 29t-24 89v296h-193v-414h-82v414h-95v72h177h275h103v-72h-103z" />
    <glyph glyph-name="Wgrave" unicode="&#x1e80;" horiz-adv-x="990" 
d="M1044 720l-318 -720h-82l-102 573l-264 -573h-84l-113 720h92l84 -576l259 576h93l96 -578l248 578h91zM451 897h86l61 -123h-69z" />
    <glyph glyph-name="wgrave" unicode="&#x1e81;" horiz-adv-x="766" 
d="M792 487l-235 -487h-79l-70 364l-172 -364h-82l-94 487h85l64 -367l171 367h85l66 -368l170 368h91zM315 666h86l61 -123h-69z" />
    <glyph glyph-name="Wacute" unicode="&#x1e82;" horiz-adv-x="990" 
d="M1044 720l-318 -720h-82l-102 573l-264 -573h-84l-113 720h92l84 -576l259 576h93l96 -578l248 578h91zM529 774l59 123h87l-77 -123h-69z" />
    <glyph glyph-name="wacute" unicode="&#x1e83;" horiz-adv-x="766" 
d="M792 487l-235 -487h-79l-70 364l-172 -364h-82l-94 487h85l64 -367l171 367h85l66 -368l170 368h91zM394 543l59 123h87l-77 -123h-69z" />
    <glyph glyph-name="Wdieresis" unicode="&#x1e84;" horiz-adv-x="990" 
d="M1044 720l-318 -720h-82l-102 573l-264 -573h-84l-113 720h92l84 -576l259 576h93l96 -578l248 578h91zM426 831q0 28 22 49.5t50 21.5q23 0 39 -17t16 -40q0 -27 -22 -48t-50 -21q-24 0 -39.5 16t-15.5 39zM606 831q0 28 22 49.5t50 21.5q23 0 39 -17t16 -40
q0 -13 -6 -25.5t-16.5 -22.5t-23 -15.5t-26.5 -5.5q-24 0 -39.5 16t-15.5 39z" />
    <glyph glyph-name="wdieresis" unicode="&#x1e85;" horiz-adv-x="766" 
d="M792 487l-235 -487h-79l-70 364l-172 -364h-82l-94 487h85l64 -367l171 367h85l66 -368l170 368h91zM290 600q0 28 22 49.5t50 21.5q23 0 39 -17t16 -40q0 -27 -22 -48t-50 -21q-24 0 -39.5 16t-15.5 39zM470 600q0 28 22 49.5t50 21.5q23 0 39 -17t16 -40
q0 -13 -6 -25.5t-16.5 -22.5t-23 -15.5t-26.5 -5.5q-24 0 -39.5 16t-15.5 39z" />
    <glyph glyph-name="Ygrave" unicode="&#x1ef2;" horiz-adv-x="587" 
d="M174 720l140 -340l242 340h94l-301 -422l-41 -298h-87l42 298l-186 422h97zM253 897h86l61 -123h-69z" />
    <glyph glyph-name="ygrave" unicode="&#x1ef3;" horiz-adv-x="527" 
d="M553 487l-316 -606q-29 -57 -70 -82t-86 -25q-55 0 -95 28l30 71q27 -21 62 -21q26 0 49 14t37 42l33 65l-138 514h87l102 -414l212 414h93zM197 667h86l61 -123h-69z" />
    <glyph glyph-name="endash" unicode="&#x2013;" horiz-adv-x="890" 
d="M853 314l-11 -76h-786l10 76h787z" />
    <glyph glyph-name="emdash" unicode="&#x2014;" horiz-adv-x="1099" 
d="M1056 314l-11 -76h-990l11 76h990z" />
    <glyph glyph-name="quoteleft" unicode="&#x2018;" horiz-adv-x="254" 
d="M221 547q0 -27 -19 -46t-49 -19q-26 0 -43.5 18t-17.5 53q0 28 10.5 51t27.5 39t38 24.5t43 8.5l-5 -33q-20 -1 -34.5 -13.5t-18.5 -32.5q6 3 14 3q24 0 39 -13.5t15 -39.5z" />
    <glyph glyph-name="quoteright" unicode="&#x2019;" horiz-adv-x="254" 
d="M249 604q0 -28 -10.5 -51t-27 -39.5t-37.5 -25t-43 -7.5l4 33q20 0 35 12.5t19 32.5q-6 -2 -15 -2q-24 0 -38.5 13t-14.5 40t19 45.5t49 18.5q26 0 43 -17.5t17 -52.5z" />
    <glyph glyph-name="quotesinglbase" unicode="&#x201a;" horiz-adv-x="222" 
d="M168 28q0 -52 -29.5 -82.5t-71.5 -29.5v33q21 0 34 13t13 34q-8 -4 -21 -4q-23 0 -38.5 14.5t-15.5 41.5t17.5 44t44.5 17q29 0 48 -20.5t19 -60.5z" />
    <glyph glyph-name="quotedblleft" unicode="&#x201c;" horiz-adv-x="407" 
d="M221 547q0 -27 -19 -46t-49 -19q-26 0 -43.5 18t-17.5 53q0 28 10.5 51t27.5 39t38 24.5t43 8.5l-5 -33q-20 -1 -34.5 -13.5t-18.5 -32.5q8 3 14 3q24 0 39 -13.5t15 -39.5zM374 547q0 -27 -19 -46t-49 -19q-26 0 -43 18t-17 53q0 28 10.5 50.5t27 39t37.5 25t43 7.5
l-4 -33q-20 0 -35 -12.5t-19 -32.5q6 3 14 3q25 0 39.5 -13.5t14.5 -39.5z" />
    <glyph glyph-name="quotedblright" unicode="&#x201d;" horiz-adv-x="407" 
d="M224 604q0 -28 -10.5 -51t-27.5 -39.5t-38 -25t-43 -7.5l5 33q20 0 35 12.5t18 32.5q-8 -2 -14 -2q-24 0 -38.5 13t-14.5 40t19 45.5t48 18.5q27 0 44 -17.5t17 -52.5zM377 604q0 -28 -10.5 -51t-27 -39.5t-37.5 -25t-43 -7.5l4 33q20 0 35 12.5t19 32.5q-6 -2 -15 -2
q-24 0 -38.5 13t-14.5 40t19 45.5t49 18.5q26 0 43 -17.5t17 -52.5z" />
    <glyph glyph-name="quotedblbase" unicode="&#x201e;" horiz-adv-x="407" 
d="M197 38q0 -28 -10.5 -51t-27.5 -39t-38 -25t-43 -8l5 33q20 1 35 13.5t18 32.5q-7 -3 -15 -3q-24 0 -38.5 13.5t-14.5 39.5q0 27 19 45.5t49 18.5q26 0 43.5 -17.5t17.5 -52.5zM350 38q0 -28 -10.5 -51t-27.5 -39t-38 -25t-43 -8l5 33q20 1 35 13.5t18 31.5
q-10 -2 -15 -2q-24 0 -38 13.5t-14 39.5q0 27 19 45.5t48 18.5q27 0 44 -17.5t17 -52.5z" />
    <glyph glyph-name="dagger" unicode="&#x2020;" horiz-adv-x="344" 
d="M351 549h-101v-285h-61v285h-101v61h101v100h61v-100h101v-61z" />
    <glyph glyph-name="daggerdbl" unicode="&#x2021;" horiz-adv-x="367" 
d="M350 384h-101v-120h-60v120h-102v61h102v84h-103v61h103v120h60v-120h99v-61h-99v-84h101v-61z" />
    <glyph glyph-name="bullet" unicode="&#x2022;" horiz-adv-x="422" 
d="M70 255q0 32 12.5 59.5t33.5 48t49.5 32.5t61.5 12q58 0 94 -38q37 -37 37 -94q0 -31 -12 -58.5t-33 -48t-49.5 -32.5t-61.5 -12q-58 0 -95 37t-37 94z" />
    <glyph glyph-name="ellipsis" unicode="&#x2026;" horiz-adv-x="728" 
d="M77 45q0 30 23.5 52.5t53.5 22.5q25 0 42 -17.5t17 -42.5q0 -29 -24 -51t-54 -22q-25 0 -41.5 17t-16.5 41zM304 45q0 30 23.5 52.5t53.5 22.5q25 0 42 -17.5t17 -42.5q0 -29 -24 -51t-54 -22q-25 0 -41.5 17t-16.5 41zM530 45q0 30 23.5 52.5t54.5 22.5q25 0 41.5 -17.5
t16.5 -42.5q0 -29 -24 -51t-54 -22q-25 0 -41.5 17t-16.5 41z" />
    <glyph glyph-name="perthousand" unicode="&#x2030;" horiz-adv-x="1306" 
d="M276 732q66 0 106.5 -44t40.5 -119q0 -47 -14 -87t-39 -69.5t-58 -46t-72 -16.5q-65 0 -107 45t-42 117q0 47 13.5 87.5t38.5 70t59 46t74 16.5zM165 0l548 719h88l-549 -719h-87zM243 417q50 0 81 43t31 103q0 46 -22.5 73.5t-59.5 27.5q-25 0 -46 -11.5t-36 -31
t-23.5 -46t-8.5 -56.5q0 -48 23 -75t61 -27zM740 367q66 0 106.5 -44t40.5 -119q0 -47 -14 -87t-39 -69.5t-58 -46t-72 -16.5q-65 0 -107 45t-42 117q0 47 13.5 87.5t38.5 70t59 46t74 16.5zM1107 367q66 0 106.5 -44t40.5 -119q0 -47 -14 -87t-39 -69.5t-58 -46t-72 -16.5
q-65 0 -107 45t-42 117q0 47 13.5 87.5t38.5 70t59 46t74 16.5zM707 52q50 0 81 43t31 103q0 46 -22 73.5t-59 27.5q-51 0 -83 -42q-32 -43 -32 -103q0 -48 23 -75t61 -27zM1074 52q50 0 81 43t31 103q0 46 -22 73.5t-59 27.5q-51 0 -83 -42q-32 -43 -32 -103q0 -48 23 -75
t61 -27z" />
    <glyph glyph-name="minute" unicode="&#x2032;" horiz-adv-x="167" 
d="M167 501h-48l-19 181q-2 24 11.5 37.5t31.5 12.5q18 0 30.5 -13t10.5 -37z" />
    <glyph glyph-name="guilsinglleft" unicode="&#x2039;" horiz-adv-x="349" 
d="M136 243l179 -243h-100l-178 243l246 244h100z" />
    <glyph glyph-name="guilsinglright" unicode="&#x203a;" horiz-adv-x="350" 
d="M313 243l-247 -243h-100l248 243l-180 244h100z" />
    <glyph glyph-name="uni2042" unicode="&#x2042;" horiz-adv-x="877" 
d="M517 408l-37 53q-27 36 -42 76q-7 -18 -17 -37t-24 -39l-39 -53l-39 27l38 54q26 36 57 66q-27 5 -48 10t-37 10l-62 23l17 44l60 -21q22 -7 41.5 -16.5t38.5 -21.5q-9 39 -9 87v66h47v-66q0 -49 -9 -87q35 23 79 38l61 21l18 -44l-64 -23q-22 -8 -43.5 -12.5t-40.5 -7.5
q23 -22 57 -66l35 -54zM310 195q-22 -8 -43.5 -12.5t-40.5 -7.5q20 -18 57 -66l36 -54l-39 -27l-37 53q-26 35 -42 76q-11 -32 -40 -76l-39 -53l-39 27l37 54q29 41 57 66q-26 5 -47 10t-37 10l-63 23l17 44l61 -21q44 -15 79 -38q-9 47 -9 87v66h47v-66q0 -44 -8 -87
q34 23 78 38l61 21l18 -44zM792 55l-38 -27l-38 53q-26 35 -42 76q-10 -34 -40 -76l-39 -53l-39 27l38 54q29 41 57 66q-27 5 -48 10t-37 10l-63 23l18 44l60 -21q44 -15 79 -38q-9 47 -9 87v66h47v-66q0 -52 -8 -87q36 24 78 38l62 21l17 -44l-63 -23q-16 -5 -37 -10
t-47 -10q13 -11 26.5 -27.5t29.5 -38.5z" />
    <glyph glyph-name="fraction" unicode="&#x2044;" horiz-adv-x="128" 
d="M-247 0l541 710h81l-542 -710h-80z" />
    <glyph glyph-name="uni2070" unicode="&#x2070;" horiz-adv-x="499" 
d="M250 292h-2q-97 2 -153 69q-55 67 -55 177q0 53 14.5 98t41.5 78t65.5 51.5t86.5 18.5h2h1q49 0 87.5 -18.5t65.5 -51.5t41 -78t14 -98q0 -110 -55 -177t-153 -69h-1zM384 538q0 76 -35.5 124.5t-98.5 49.5q-32 0 -57 -13.5t-42.5 -36.5t-27 -54.5t-9.5 -69.5t9.5 -70
t27 -55t42.5 -36.5t57 -13.5t57 13.5t42 36.5t26 55t9 70z" />
    <glyph glyph-name="uni2074" unicode="&#x2074;" horiz-adv-x="443" 
d="M403 392h-59v-92h-68v92h-236v69l236 313h68v-313h59v-69zM276 461v203l-152 -203h152z" />
    <glyph glyph-name="uni2075" unicode="&#x2075;" horiz-adv-x="417" 
d="M377 456q0 -34 -13.5 -64t-37 -52.5t-54.5 -35.5t-66 -13t-65 13t-52.5 35.5t-35.5 52.5t-13 64h69q0 -40 27.5 -67.5t69.5 -27.5q21 0 39.5 7.5t32 20.5t21.5 30.5t8 36.5q1 48 -27.5 77t-76.5 29q-26 0 -49.5 -12t-33.5 -30l-64 16l59 238h245v-69h-191l-27 -101
q31 19 71 19q36 0 66.5 -13t52 -35.5t33.5 -53t12 -65.5z" />
    <glyph glyph-name="uni2076" unicode="&#x2076;" horiz-adv-x="446" 
d="M406 465q0 -37 -14 -69t-38 -55.5t-57 -36.5t-71 -13q-93 0 -140 68q-46 67 -46 172q0 53 12 99t37 81t62 55t87 20q49 0 90 -20t67 -60l-59 -36q-37 46 -98 46q-28 0 -51 -11.5t-39.5 -31.5t-26 -47t-10.5 -59q18 33 51.5 50t72.5 17q32 0 62.5 -11.5t54.5 -33.5
t39 -53.5t15 -70.5zM337 464q0 48 -31 76t-77 28q-45 0 -75 -29t-30 -75q0 -48 30.5 -76.5t75.5 -28.5t76 28.5t31 76.5z" />
    <glyph glyph-name="uni2077" unicode="&#x2077;" horiz-adv-x="403" 
d="M363 774v-71q-117 -92 -149 -206q-30 -112 -30 -197h-71q0 78 28 189q29 115 134 214h-235v71h323z" />
    <glyph glyph-name="uni2078" unicode="&#x2078;" horiz-adv-x="418" 
d="M378 428q0 -63 -49 -100t-123 -37q-35 0 -65.5 10t-53 28.5t-35 44t-12.5 55.5q0 42 24.5 75.5t64.5 48.5q-32 13 -50.5 42t-18.5 65q0 28 11.5 51t31.5 39t47 25t59 9q66 0 107.5 -35t41.5 -92q0 -36 -19 -63.5t-51 -40.5q42 -13 66 -48t24 -77zM209 581q38 0 63 20
t25 50q0 32 -25.5 50.5t-62.5 18.5q-38 0 -63 -18.5t-25 -49.5t25.5 -51t62.5 -20zM209 517q-45 0 -73 -22.5t-27 -58.5q0 -36 29 -58t71 -22q43 0 71.5 24t28.5 60q0 35 -29 56t-71 21z" />
    <glyph glyph-name="uni2079" unicode="&#x2079;" horiz-adv-x="446" 
d="M209 291q-51 0 -91 20t-66 60l58 35q19 -24 43 -34.5t57 -10.5q60 0 91 39t35 111q-19 -33 -53 -50.5t-73 -17.5q-32 1 -62.5 12.5t-54.5 33t-38.5 52.5t-14.5 71q0 38 13.5 70t37.5 55t57 36t72 13q94 0 139 -69q45 -67 47 -175q0 -112 -50 -182q-49 -69 -147 -69z
M321 614q0 48 -30 76.5t-75 28.5t-76 -28.5t-31 -76.5t31 -76.5t76 -28.5t75 28.5t30 76.5z" />
    <glyph glyph-name="uni2080" unicode="&#x2080;" horiz-adv-x="499" 
d="M250 -108h-2q-97 1 -153 69q-55 67 -55 177q0 53 14.5 98t41.5 78t65.5 51.5t86.5 18.5h2h1q49 0 87.5 -18.5t65.5 -51.5t41 -78t14 -98q0 -110 -55 -177q-55 -68 -153 -69h-1zM384 138q0 76 -35.5 124.5t-98.5 49.5q-32 0 -57 -13.5t-42.5 -36.5t-27 -54.5t-9.5 -69.5
t9.5 -70t27 -55t42.5 -36.5t57 -13.5t57 13.5t42 36.5t26 55t9 70z" />
    <glyph glyph-name="uni2081" unicode="&#x2081;" horiz-adv-x="291" 
d="M205 374v-474h-70v403l-95 -39v70l95 40h70z" />
    <glyph glyph-name="uni2082" unicode="&#x2082;" horiz-adv-x="407" 
d="M46 -26l207 171q25 21 34.5 40t9.5 39q0 42 -25.5 66.5t-68.5 24.5q-40 0 -66 -23t-28 -66h-69q2 73 47.5 115t115.5 42q37 0 67.5 -12t52 -33t33 -50t11.5 -62q0 -42 -18.5 -74.5t-53.5 -60.5l-149 -122l209 1v-69l-309 -1v74z" />
    <glyph glyph-name="uni2083" unicode="&#x2083;" horiz-adv-x="408" 
d="M368 52q0 -35 -13 -64.5t-35 -50.5t-52 -33t-63 -12q-35 0 -65.5 12.5t-52.5 33.5t-34.5 50t-12.5 62h70q0 -38 26.5 -64t68.5 -26q39 0 66 26t27 66q0 43 -27 68.5t-70 25.5q-26 0 -40 -6l-23 56l116 109h-194v69h300v-64l-113 -105q54 -13 87.5 -54t33.5 -99z" />
    <glyph glyph-name="uni2084" unicode="&#x2084;" horiz-adv-x="443" 
d="M403 -8h-59v-92h-68v92h-236v69l236 313h68v-313h59v-69zM276 61v203l-152 -203h152z" />
    <glyph glyph-name="uni2085" unicode="&#x2085;" horiz-adv-x="417" 
d="M377 56q0 -34 -13.5 -64t-37 -52.5t-54.5 -35.5t-66 -13t-65 13t-52.5 35.5t-35.5 52.5t-13 64h69q0 -40 27.5 -67.5t69.5 -27.5q21 0 39.5 7.5t32 20.5t21.5 30.5t8 36.5q1 48 -27.5 77t-76.5 29q-26 0 -49.5 -12t-33.5 -30l-64 16l59 238h245v-69h-191l-27 -101
q31 19 71 19q36 0 66.5 -13t52 -35.5t33.5 -53t12 -65.5z" />
    <glyph glyph-name="uni2086" unicode="&#x2086;" horiz-adv-x="446" 
d="M406 65q0 -37 -14 -69t-38 -55.5t-57 -36.5t-71 -13q-93 0 -140 68q-46 67 -46 172q0 53 12 99t37 81t62 55t87 20q49 0 90 -20t67 -60l-59 -36q-37 46 -98 46q-28 0 -51 -11.5t-39.5 -31.5t-26 -47t-10.5 -59q18 33 51.5 50t72.5 17q32 0 62.5 -11.5t54.5 -33.5
t39 -53.5t15 -70.5zM337 64q0 48 -31 76t-77 28q-45 0 -75 -29t-30 -75q0 -48 30.5 -76.5t75.5 -28.5t76 28.5t31 76.5z" />
    <glyph glyph-name="uni2087" unicode="&#x2087;" horiz-adv-x="403" 
d="M363 374v-71q-117 -92 -149 -206q-30 -113 -30 -197h-71q0 78 28 189q29 115 134 214h-235v71h323z" />
    <glyph glyph-name="uni2088" unicode="&#x2088;" horiz-adv-x="418" 
d="M378 28q0 -31 -12.5 -56.5t-35.5 -43.5t-54 -27.5t-69 -9.5q-72 0 -120 39q-47 38 -47 99q0 42 23.5 75.5t65.5 48.5q-32 13 -50.5 42t-18.5 65q0 28 11.5 51t31.5 39t47 25t59 9q66 0 107.5 -34.5t41.5 -92.5q0 -35 -19 -63t-51 -41q42 -13 66 -48t24 -77zM121 253
q0 -32 25.5 -52t62.5 -20q38 0 63 20t25 51q0 32 -25 50t-63 18t-63 -18t-25 -49zM210 117q-45 0 -73.5 -22t-27.5 -59q0 -36 29 -58t72 -22q45 0 72 23t27 60q0 36 -28.5 57t-70.5 21z" />
    <glyph glyph-name="uni2089" unicode="&#x2089;" horiz-adv-x="446" 
d="M209 -109q-51 0 -91 20t-66 60l58 35q19 -24 43 -34.5t57 -10.5q60 0 91 39t35 111q-19 -33 -53 -50.5t-73 -17.5q-32 1 -62.5 12.5t-54.5 33t-38.5 52.5t-14.5 71q0 38 13.5 70t37.5 55t57 36t72 13q94 0 139 -69q45 -67 47 -175q0 -112 -50 -182q-49 -69 -147 -69z
M321 214q0 48 -30 76.5t-75 28.5t-76 -28.5t-31 -76.5t31 -76.5t76 -28.5t75 28.5t30 76.5z" />
    <glyph glyph-name="Euro" unicode="&#x20ac;" horiz-adv-x="749" 
d="M244 493h312l-31 -79h-315q-14 -48 -14 -93q0 -10 1 -13h289l-30 -80h-245q26 -75 89 -118t151 -43q40 0 87 14.5t80 38.5l42 -62q-51 -35 -107 -52.5t-111 -17.5q-121 0 -207 65q-84 65 -110 175h-90l11 80h70v5q0 52 12 101h-67l11 79h83q51 109 146 172q98 66 215 66
q115 0 200 -51l-48 -70q-70 42 -148 42q-85 0 -158 -43t-118 -116z" />
    <glyph glyph-name="uni2116" unicode="&#x2116;" horiz-adv-x="1218" 
d="M1192 508q0 -55 -20.5 -102.5t-56 -82.5t-83 -55t-101.5 -20q-47 0 -87.5 15.5t-70.5 43.5t-47 67t-17 85q-1 54 20 101.5t57.5 83t84.5 56t101 19.5q45 0 85 -15t70 -43t47.5 -66.5t17.5 -86.5zM583 710h74l-99 -710h-74l-297 577l-81 -577h-74l99 710h74l298 -577z
M969 648q-35 0 -66.5 -12t-56.5 -33.5t-41 -52t-21 -67.5q-1 -5 -1 -20q0 -63 40.5 -103.5t109.5 -40.5q39 0 72.5 13.5t58.5 37.5t39.5 58t14.5 75q0 33 -11.5 60t-31.5 45.5t-47 29t-59 10.5zM740 196h340l-10 -64h-339z" />
    <glyph glyph-name="uni2117" unicode="&#x2117;" horiz-adv-x="525" 
d="M524 498q0 -47 -18 -88t-48.5 -72t-71.5 -48.5t-87 -17.5t-87.5 17.5t-72 48.5t-48.5 72t-18 88q0 46 18 86.5t49 71t72 48t87 17.5q45 1 86.5 -17t72.5 -49t49 -71.5t17 -85.5zM486 496q0 39 -14.5 73.5t-40 60t-59.5 40t-73 14.5q-40 0 -74 -14.5t-59 -40t-39.5 -60
t-14.5 -73.5q0 -40 14 -74t39 -59t59.5 -39t74.5 -14q39 0 73 14.5t59.5 39.5t40 59t14.5 73zM382 536v-3q-1 -29 -19 -44t-49 -16h-6h-29v-77h-39v199h39h29q71 2 74 -57v-2zM338 533q2 24 -29 24h-30v-49h35q24 2 24 25z" />
    <glyph glyph-name="trademark" unicode="&#x2122;" horiz-adv-x="613" 
d="M101 720h218l-6 -44h-91l-33 -235h-43l33 235h-84zM354 720h42l64 -229l129 229h41l-39 -279h-41l25 176l-101 -176h-42l-51 174l-24 -174h-42z" />
    <glyph glyph-name="estimated" unicode="&#x212e;" horiz-adv-x="746" 
d="M390 710q73 0 133 -22.5t103.5 -65.5t67.5 -103.5t24 -137.5q1 -5 1 -27v-15.5t-1 -10.5h-558v-180q39 -57 101 -87t141 -30q78 0 142 36.5t96 96.5l38 -14q-37 -75 -110.5 -117t-167.5 -42q-75 0 -137.5 26t-107.5 73t-70 112t-25 144q0 80 24.5 147t68 115t104.5 75
t133 27zM160 364h459v200q-37 51 -96 78.5t-129 27.5q-75 0 -135 -33t-99 -91v-182z" />
    <glyph glyph-name="oneeighth" unicode="&#x215b;" horiz-adv-x="788" 
d="M45 679l66 31v-66l-66 -27v62zM175 710v-368h-63l-1 368h64zM50 0l541 710h81l-542 -710h-80zM475 99q0 28 13.5 52.5t36.5 38.5q-38 29 -38 73q0 21 8.5 40t24.5 33.5t38.5 23.5t49.5 9q54 -1 86.5 -32t32.5 -73q0 -45 -38 -74q22 -15 36 -39t14 -52q0 -21 -8.5 -41
t-25.5 -35.5t-42 -25t-58 -9.5q-63 0 -96.5 33t-33.5 78zM666 264q0 18 -15.5 31t-43.5 13q-29 -1 -44.5 -14.5t-13.5 -31.5q0 -18 15.5 -30.5t42.5 -12.5q28 1 44 14t15 31zM677 101q1 21 -17.5 37.5t-52.5 16.5q-33 0 -51.5 -16.5t-17.5 -38.5q0 -21 18 -36.5t51 -15.5
t51.5 15.5t18.5 37.5z" />
    <glyph glyph-name="threeeighths" unicode="&#x215c;" horiz-adv-x="858" 
d="M312 460q0 -52 -38 -88q-37 -36 -90 -36q-26 0 -49.5 9.5t-41 26.5t-27.5 39.5t-10 48.5l1 13h63q-1 -5 -1.5 -8.5t-0.5 -5.5q0 -25 19.5 -43t46.5 -18t46 18t19 44q0 32 -24 51q-17 13 -40 13q-3 0 -7 -0.5t-9 -1.5q-4 -1 -7 -2t-5 -2l-31 49l79 80h-133v63h230v-57
l-76 -75q34 -12 53 -34q33 -36 33 -84zM121 0l541 710h81l-542 -710h-80zM545 99q0 28 13.5 52.5t36.5 38.5q-38 29 -38 73q0 21 8.5 40t24.5 33.5t38.5 23.5t49.5 9q54 -1 86.5 -32t32.5 -73q0 -45 -38 -74q22 -15 36 -39t14 -52q0 -21 -8.5 -41t-25.5 -35.5t-42 -25
t-58 -9.5q-63 0 -96.5 33t-33.5 78zM736 264q0 18 -15.5 31t-43.5 13q-29 -1 -44.5 -14.5t-13.5 -31.5q0 -18 15.5 -30.5t42.5 -12.5q28 1 44 14t15 31zM747 101q1 21 -17.5 37.5t-52.5 16.5q-33 0 -51.5 -16.5t-17.5 -38.5q0 -21 18 -36.5t51 -15.5t51.5 15.5t18.5 37.5z
" />
    <glyph glyph-name="fiveeighths" unicode="&#x215d;" horiz-adv-x="863" 
d="M118 474q-2 -31 17 -52t50 -21q29 0 49.5 20t20.5 47q0 30 -20.5 50t-50.5 20q-19 0 -35.5 -9.5t-23.5 -22.5l-60 16l47 188h192v-63h-142l-15 -56q20 7 41 7q54 0 92 -38q37 -37 37 -94q0 -26 -10.5 -49t-28.5 -40.5t-42 -27.5t-51 -10q-29 0 -53 10.5t-41.5 28.5
t-26.5 43t-8 53h62zM126 0l541 710h81l-542 -710h-80zM550 99q0 28 13.5 52.5t36.5 38.5q-38 29 -38 73q0 21 8.5 40t24.5 33.5t38.5 23.5t49.5 9q54 -1 86.5 -32t32.5 -73q0 -45 -38 -74q22 -15 36 -39t14 -52q0 -21 -8.5 -41t-25.5 -35.5t-42 -25t-58 -9.5q-63 0 -96.5 33
t-33.5 78zM741 264q0 18 -15.5 31t-43.5 13q-29 -1 -44.5 -14.5t-13.5 -31.5q0 -18 15.5 -30.5t42.5 -12.5q28 1 44 14t15 31zM752 101q1 21 -17.5 37.5t-52.5 16.5q-33 0 -51.5 -16.5t-17.5 -38.5q0 -21 18 -36.5t51 -15.5t51.5 15.5t18.5 37.5z" />
    <glyph glyph-name="seveneighths" unicode="&#x215e;" horiz-adv-x="807" 
d="M318 710v-66q-142 -106 -142 -300h-66q0 53 20 136q19 80 103 164h-177v66h262zM70 0l541 710h81l-542 -710h-80zM494 99q0 28 13.5 52.5t36.5 38.5q-38 29 -38 73q0 21 8.5 40t24.5 33.5t38.5 23.5t49.5 9q54 -1 86.5 -32t32.5 -73q0 -45 -38 -74q22 -15 36 -39t14 -52
q0 -21 -8.5 -41t-25.5 -35.5t-42 -25t-58 -9.5q-63 0 -96.5 33t-33.5 78zM685 264q0 18 -15.5 31t-43.5 13q-29 -1 -44.5 -14.5t-13.5 -31.5q0 -18 15.5 -30.5t42.5 -12.5q28 1 44 14t15 31zM696 101q1 21 -17.5 37.5t-52.5 16.5q-33 0 -51.5 -16.5t-17.5 -38.5
q0 -21 18 -36.5t51 -15.5t51.5 15.5t18.5 37.5z" />
    <glyph glyph-name="arrowleft" unicode="&#x2190;" horiz-adv-x="933" 
d="M62 262l321 320l48 -47l-238 -239h677v-68h-677l238 -238l-48 -48z" />
    <glyph glyph-name="arrowup" unicode="&#x2191;" horiz-adv-x="767" 
d="M412 763l323 -318l-48 -48l-241 236v-633h-68v633l-241 -236l-48 48z" />
    <glyph glyph-name="arrowright" unicode="&#x2192;" horiz-adv-x="932" 
d="M880 297l-321 -320l-48 48l238 239h-677v67h677l-238 239l48 47z" />
    <glyph glyph-name="arrowdown" unicode="&#x2193;" horiz-adv-x="760" 
d="M375 -107l-319 320l48 48l238 -238v706h67v-706l239 238l47 -48z" />
    <glyph glyph-name="arrowboth" unicode="&#x2194;" horiz-adv-x="1073" 
d="M784 126l99 101l-459 -1h-231l102 -102v-98l-233 235l232 233v-100l-100 -99h228v1h235l227 -1l-100 100v99l231 -233l-231 -234v99z" />
    <glyph glyph-name="arrowupdn" unicode="&#x2195;" horiz-adv-x="655" 
d="M471 64h99l-234 -232l-233 232h98l101 -100l-1 229v117v117l1 226l-101 -99h-98l233 231l234 -231h-99l-101 100v-461v-229z" />
    <glyph glyph-name="uni2196" unicode="&#x2196;" horiz-adv-x="926" 
d="M389 443l249 -241l-20 -134l-411 377h98v236h162l173 -210zM157 491l50 -46h-51z" />
    <glyph glyph-name="uni2197" unicode="&#x2197;" horiz-adv-x="810" 
d="M753 720v-453h-68v337l-605 -604l-47 47l604 605h-337v68h453z" />
    <glyph glyph-name="uni2198" unicode="&#x2198;" horiz-adv-x="933" 
d="M839 1l-453 1v67l337 1l-602 603l47 47l603 -603l1 338l67 -1v-453z" />
    <glyph glyph-name="uni2199" unicode="&#x2199;" horiz-adv-x="810" 
d="M89 -1v453h69v-337l605 606l47 -48l-605 -606h337v-68h-453z" />
    <glyph glyph-name="partialdiff" unicode="&#x2202;" horiz-adv-x="617" 
d="M582 334q1 -85 -24.5 -150t-68.5 -108.5t-97 -65.5t-110 -21q-48 0 -91.5 15.5t-76 45t-52 72.5t-19.5 98q-1 60 22 112.5t63 91.5t92 61t109 21q48 0 91.5 -16t68.5 -46q-16 75 -63.5 145.5t-122.5 130.5h108q81 -69 126 -175q45 -105 45 -211zM496 274q0 35 -12.5 65.5
t-34.5 52.5t-52.5 34.5t-66.5 12.5q-44 0 -82.5 -17t-67.5 -46t-45.5 -66.5t-16.5 -78.5q0 -73 45 -121t122 -48q42 -1 80.5 16.5t68 47t46.5 68t16 80.5z" />
    <glyph glyph-name="emptyset" unicode="&#x2205;" horiz-adv-x="815" 
d="M736 567q39 -75 39 -170q1 -88 -29.5 -164t-83.5 -132t-124.5 -87.5t-152.5 -29.5q-72 0 -133 28.5t-104 80.5l-88 -70l-38 48l92 73q-40 74 -40 170q-1 86 29.5 161t84 131.5t125.5 88.5t152 30q73 0 134 -28t103 -79l83 66l36 -49zM640 568q-66 80 -181 80
q-64 1 -120 -25t-97.5 -71t-65 -106t-22.5 -129q0 -68 24 -121zM210 144q32 -39 77.5 -60.5t102.5 -21.5q65 -1 121.5 24.5t97.5 71t64.5 107t22.5 130.5q0 66 -24 120z" />
    <glyph glyph-name="uni2206" unicode="&#x2206;" horiz-adv-x="685" 
d="M614 70v-70h-560v70l241 640h78zM130 70h408l-204 543z" />
    <glyph glyph-name="product" unicode="&#x220f;" horiz-adv-x="615" 
d="M459 165q-1 -8 -1.5 -13.5t-0.5 -7.5q0 -34 18 -50.5t51 -16.5q3 0 9 0.5t15 1.5l-11 -78q-19 -3 -37 -3q-60 0 -94.5 30.5t-34.5 91.5q0 16 3 34l46 333h-173l-68 -487h-83l68 487h-90l11 82h174h255h103l-11 -82h-104z" />
    <glyph glyph-name="summation" unicode="&#x2211;" horiz-adv-x="517" 
d="M32 89l292 275l-215 271l12 85h410l-12 -82h-308l217 -275l-292 -278h306l-13 -85h-409z" />
    <glyph glyph-name="minus" unicode="&#x2212;" horiz-adv-x="488" 
d="M435 363l-10 -74h-355l10 74h355z" />
    <glyph glyph-name="radical" unicode="&#x221a;" horiz-adv-x="698" 
d="M717 714v-79h-152l-252 -635h-82l-185 486h80l147 -381l242 609h202z" />
    <glyph glyph-name="infinity" unicode="&#x221e;" horiz-adv-x="886" 
d="M253 467q55 0 106.5 -32.5t89.5 -92.5q37 60 88.5 92.5t106.5 32.5q39 0 73 -14.5t59 -39.5t39.5 -58.5t14.5 -71.5q0 -39 -14.5 -72t-39.5 -58t-59 -39t-73 -14q-55 0 -106.5 32t-88.5 92q-38 -60 -89.5 -92t-106.5 -32q-39 0 -73 14t-59 39t-39.5 58t-14.5 72
q0 38 14.5 71.5t39.5 58.5t59 39.5t73 14.5zM256 178q37 0 74.5 25.5t66.5 79.5q-29 54 -66.5 79.5t-74.5 25.5q-49 0 -79.5 -28.5t-30.5 -76.5q0 -46 30.5 -75.5t79.5 -29.5zM641 178q49 0 79.5 29.5t30.5 75.5q0 48 -30.5 76.5t-79.5 28.5q-37 0 -74.5 -25.5t-66.5 -79.5
q29 -54 66.5 -79.5t74.5 -25.5z" />
    <glyph glyph-name="integral" unicode="&#x222b;" horiz-adv-x="350" 
d="M15 64h44q22 0 38 14.5t20 39.5l67 484q8 60 45 96t91 36h59l-11 -78h-44q-23 0 -38.5 -14t-18.5 -40l-68 -484q-8 -60 -44.5 -95.5t-91.5 -35.5h-59z" />
    <glyph glyph-name="approxequal" unicode="&#x2248;" horiz-adv-x="447" 
d="M427 382q-5 -48 -33.5 -76.5t-71.5 -28.5q-27 0 -48.5 10t-48.5 29q-23 16 -39 23.5t-33 7.5q-22 0 -36.5 -12.5t-16.5 -35.5h-52q5 46 33 74.5t70 28.5q26 0 47.5 -10t49.5 -29q25 -16 40.5 -23.5t32.5 -7.5q21 0 36 13t18 37h52zM405 234q-4 -48 -33.5 -76.5
t-72.5 -28.5q-27 0 -48 10t-47 29q-25 16 -39.5 23.5t-32.5 7.5q-22 0 -35.5 -13t-17.5 -35h-52q4 46 34 74.5t72 28.5q27 0 48.5 -10t49.5 -29q22 -16 37.5 -23.5t32.5 -7.5q20 0 35 13t18 37h51z" />
    <glyph glyph-name="notequal" unicode="&#x2260;" horiz-adv-x="557" 
d="M359 408l-78 -144h222l-11 -73h-251l-71 -130h-79l71 130h-112l10 73h142l79 144h-201l10 74h231l74 136h79l-74 -136h133l-10 -74h-164z" />
    <glyph glyph-name="lessequal" unicode="&#x2264;" horiz-adv-x="558" 
d="M60 402l483 159l-12 -89l-350 -114l318 -115l-13 -86l-438 159zM16 87h461l-13 -87h-461z" />
    <glyph glyph-name="greaterequal" unicode="&#x2265;" horiz-adv-x="548" 
d="M52 232l357 118l-324 117l11 78l433 -158l-11 -77l-477 -158zM30 79h455l-10 -79h-455z" />
    <glyph glyph-name="filledbox" unicode="&#x25a0;" horiz-adv-x="917" 
d="M829 710v-710h-710v710h710z" />
    <glyph glyph-name="uni25A1" unicode="&#x25a1;" horiz-adv-x="917" 
d="M829 710v-710h-710v710h710zM187 68h574v574h-574v-574z" />
    <glyph glyph-name="triagup" unicode="&#x25b2;" horiz-adv-x="939" 
d="M858 0h-846l423 710z" />
    <glyph glyph-name="uni25B3" unicode="&#x25b3;" horiz-adv-x="967" 
d="M37 1l424 712l424 -712h-848zM461 580l-306 -514h612z" />
    <glyph glyph-name="lozenge" unicode="&#x25ca;" horiz-adv-x="613" 
d="M564 355l-206 -355h-82l-205 355l205 355h82zM478 355l-161 282l-161 -282l161 -282z" />
    <glyph glyph-name="circle" unicode="&#x25cb;" horiz-adv-x="905" 
d="M71 333q-2 79 29.5 150t85.5 125t125.5 85.5t149.5 29.5q78 2 149.5 -29.5t125.5 -85.5t85.5 -125.5t29.5 -149.5q2 -79 -29.5 -150t-85.5 -125t-125.5 -85.5t-149.5 -29.5q-79 -2 -150 29.5t-125 85.5t-85 125t-30 150zM781 333q2 65 -23.5 123.5t-70 103t-103 70
t-123.5 23.5q-65 2 -123.5 -23.5t-103 -70t-69.5 -103t-24 -123.5q-1 -65 24 -123.5t69.5 -103t103 -69.5t123.5 -24q65 -1 123.5 24t103 69.5t70 103t23.5 123.5z" />
    <glyph glyph-name="uni25CF" unicode="&#x25cf;" horiz-adv-x="905" 
d="M71 333q-2 79 29.5 150t85.5 125t125.5 85.5t149.5 29.5q78 2 149.5 -29.5t125.5 -85.5t85.5 -125.5t29.5 -149.5q2 -79 -29.5 -150t-85.5 -125t-125.5 -85.5t-149.5 -29.5q-79 -2 -150 29.5t-125 85.5t-85 125t-30 150z" />
    <glyph glyph-name="uni262E" unicode="&#x262e;" horiz-adv-x="895" 
d="M851 333q2 -79 -29.5 -150t-85.5 -125t-125.5 -85.5t-149.5 -29.5q-79 -2 -150 29.5t-125 85.5t-85 125t-30 150q-2 79 29.5 150t85.5 125t125.5 85.5t149.5 29.5q78 2 149.5 -29.5t125.5 -85.5t85.5 -125.5t29.5 -149.5zM141 333q0 -71 28 -131l261 171v279
q-60 -5 -113 -32.5t-92.5 -71t-62 -99t-21.5 -116.5zM493 373l260 -171q28 60 28 131q0 61 -22.5 116t-61.5 98t-91.5 71t-112.5 34v-279zM430 297l-230 -150q40 -57 100.5 -91.5t129.5 -41.5v283zM493 297v-283q70 7 130 42.5t99 90.5z" />
    <glyph glyph-name="smileface" unicode="&#x263a;" horiz-adv-x="893" 
d="M70 335q-1 77 30 147.5t84.5 123.5t125.5 84t151 29q78 2 149 -29t124 -84t84.5 -123.5t29.5 -147.5q2 -80 -29.5 -151.5t-84.5 -125t-124 -84.5t-149 -29q-79 -2 -151 29t-125.5 84.5t-84.5 125t-30 151.5zM783 331q1 67 -24.5 126.5t-69.5 103.5t-103.5 69.5
t-125.5 24.5q-68 1 -127.5 -24.5t-103 -69.5t-68.5 -103.5t-24 -126.5q-1 -68 23.5 -127t68 -102t103 -67.5t128.5 -23.5q66 -1 125.5 23.5t103.5 68t69.5 102.5t24.5 126zM274 420q0 24 17 41.5t42 17.5q24 0 40.5 -17.5t16.5 -41.5t-16.5 -42t-40.5 -18t-41.5 18t-17.5 42
zM529 416q0 24 17 41t42 17q24 0 40.5 -17t16.5 -41t-16.5 -41.5t-40.5 -17.5q-25 0 -42 17.5t-17 41.5zM348 293q-3 -49 30 -84t83 -35q49 0 82 34t31 85h60q2 -36 -11 -68.5t-36.5 -57t-56 -39t-69.5 -14.5t-69.5 14t-55.5 38.5t-35.5 57t-11.5 69.5h59z" />
    <glyph glyph-name="uni2713" unicode="&#x2713;" horiz-adv-x="654" 
d="M95 293l160 -173l329 396l58 -48l-383 -461l-216 233z" />
    <glyph glyph-name="uni2776" unicode="&#x2776;" horiz-adv-x="796" 
d="M50 348q-1 71 26.5 134.5t75.5 111.5t111.5 75.5t134.5 26.5q70 2 133.5 -26.5t111.5 -76.5t76.5 -111.5t26.5 -133.5q2 -70 -26 -134t-76 -112.5t-111.5 -76.5t-134.5 -26q-70 -2 -134 26.5t-112 76.5t-75.5 112t-26.5 134zM438 545h-62l-71 -36v-59l71 34v-320h62v381z
" />
    <glyph glyph-name="uni2777" unicode="&#x2777;" horiz-adv-x="796" 
d="M50 348q-1 71 26.5 134.5t75.5 111.5t111.5 75.5t134.5 26.5q70 2 133.5 -26t111.5 -76.5t76.5 -112t26.5 -134.5q2 -70 -26 -134t-76 -112t-111.5 -75.5t-134.5 -26.5q-70 -2 -134 26.5t-112 76.5t-75.5 112t-26.5 134zM327 432q8 26 27.5 42t47.5 16q31 0 51 -17
t20 -50q0 -19 -8.5 -35t-30.5 -33q-10 -8 -22.5 -16t-28.5 -18l-38 -22q-37 -23 -55 -48.5t-19 -58.5l-1 -28h259v60h-179q3 10 9.5 16t18.5 13l24 15q22 11 40 23t34 23q28 22 43 48t15 62q0 30 -10.5 53.5t-29 40t-42.5 25t-51 8.5q-49 0 -85.5 -28t-49.5 -76z" />
    <glyph glyph-name="uni2778" unicode="&#x2778;" horiz-adv-x="796" 
d="M50 348q-1 71 26.5 134.5t75.5 111.5t111.5 75.5t134.5 26.5q70 2 133.5 -26.5t111.5 -76.5t76.5 -111.5t26.5 -133.5q2 -70 -26 -134t-76 -112.5t-111.5 -76.5t-134.5 -26q-70 -2 -134 26.5t-112 76.5t-75.5 112t-26.5 134zM524 441q0 49 -33.5 79t-90.5 30
q-51 0 -85 -28t-44 -76l58 -16q4 25 23 42t47 17q26 0 42.5 -13t17.5 -35t-13.5 -37t-40.5 -18l-22 -1v-56l18 -1q32 -1 51 -15.5t19 -40.5t-19.5 -42t-50.5 -16q-28 1 -49.5 18t-29.5 45l-57 -15q7 -49 45 -79t95 -30q29 0 53.5 8.5t42.5 23t28 35t10 44.5q0 31 -16 57
t-42 38q20 11 31.5 33.5t11.5 48.5z" />
    <glyph glyph-name="uni2779" unicode="&#x2779;" horiz-adv-x="796" 
d="M50 348q-1 71 26.5 134.5t75.5 111.5t111.5 75.5t134.5 26.5q70 2 133.5 -26.5t111.5 -76.5t76.5 -111.5t26.5 -133.5q2 -70 -26 -134t-76 -112.5t-111.5 -76.5t-134.5 -26q-70 -2 -134 26.5t-112 76.5t-75.5 112t-26.5 134zM469 164v71h60v60h-60v250h-63l-176 -244v-66
h176v-71h63zM406 445v-150h-113z" />
    <glyph glyph-name="uni277A" unicode="&#x277a;" horiz-adv-x="796" 
d="M50 348q-1 71 26.5 134.5t75.5 111.5t111.5 75.5t134.5 26.5q70 2 133.5 -26.5t111.5 -76.5t76.5 -111.5t26.5 -133.5q2 -70 -26 -134t-76 -112.5t-111.5 -76.5t-134.5 -26q-70 -2 -134 26.5t-112 76.5t-75.5 112t-26.5 134zM351 478h153v62h-203l-36 -209l54 -10
q12 19 31 29t40 10q33 0 54 -21t21 -54t-20.5 -54t-52.5 -21q-62 0 -74 62l-61 -16q8 -49 43.5 -78.5t89.5 -29.5q61 0 100 39q40 39 40 98q0 30 -9.5 55t-27 43t-41 28.5t-51.5 10.5q-40 0 -63 -17z" />
    <glyph glyph-name="uni277B" unicode="&#x277b;" horiz-adv-x="796" 
d="M50 348q-1 71 26.5 134.5t75.5 111.5t111.5 75.5t134.5 26.5q70 2 133.5 -26t111.5 -76.5t76.5 -112t26.5 -134.5q2 -70 -26 -134t-76 -112t-111.5 -75.5t-134.5 -26.5q-70 -2 -134 26.5t-112 76.5t-75.5 112t-26.5 134zM395 489q25 0 45.5 -10.5t32.5 -29.5l59 20
q-18 38 -53 59.5t-81 21.5q-75 0 -116 -51.5t-41 -145.5q0 -97 38.5 -149.5t107.5 -52.5q29 0 55 10.5t45.5 29.5t30.5 45t11 57q0 56 -39 95q-37 39 -95 39q-24 0 -49 -8.5t-42 -29.5q1 43 25 71.5t66 28.5zM312 288q0 33 21.5 54.5t55.5 21.5q32 0 53 -21.5t21 -54.5
q0 -34 -21 -55t-54 -21t-54.5 21.5t-21.5 54.5z" />
    <glyph glyph-name="uni277C" unicode="&#x277c;" horiz-adv-x="796" 
d="M50 348q-1 71 26.5 134.5t75.5 111.5t111.5 75.5t134.5 26.5q70 2 133.5 -26.5t111.5 -76.5t76.5 -111.5t26.5 -133.5q2 -70 -26 -134t-76 -112.5t-111.5 -76.5t-134.5 -26q-70 -2 -134 26.5t-112 76.5t-75.5 112t-26.5 134zM392 164q18 182 135 307v53h-240v-56h167
q-55 -70 -86 -144.5t-41 -159.5h65z" />
    <glyph glyph-name="uni277D" unicode="&#x277d;" horiz-adv-x="796" 
d="M50 348q-1 71 26.5 134.5t75.5 111.5t111.5 75.5t134.5 26.5q70 2 133.5 -26.5t111.5 -76.5t76.5 -111.5t26.5 -133.5q2 -70 -26 -134t-76 -112.5t-111.5 -76.5t-134.5 -26q-70 -2 -134 26.5t-112 76.5t-75.5 112t-26.5 134zM537 277q0 32 -14.5 59.5t-38.5 37.5
q14 9 23.5 29.5t9.5 42.5q0 48 -33 76t-88 28t-89 -28.5t-34 -76.5q0 -18 9 -39t23 -34q-23 -9 -37.5 -36.5t-14.5 -60.5q0 -57 38.5 -89.5t104.5 -32.5t103.5 33.5t37.5 90.5zM338 442q0 20 16.5 33.5t41.5 13.5t41 -13.5t16 -33.5t-16 -33t-41 -13q-26 0 -42 13t-16 33z
M318 279q0 29 21.5 47.5t56.5 18.5q34 0 56 -18.5t22 -47.5q0 -28 -22 -46.5t-56 -18.5t-56 18.5t-22 46.5z" />
    <glyph glyph-name="uni277E" unicode="&#x277e;" horiz-adv-x="796" 
d="M50 348q-1 71 26.5 134.5t75.5 111.5t111.5 75.5t134.5 26.5q70 2 133.5 -26.5t111.5 -76.5t76.5 -111.5t26.5 -133.5q2 -70 -26 -134t-76 -112.5t-111.5 -76.5t-134.5 -26q-70 -2 -134 26.5t-112 76.5t-75.5 112t-26.5 134zM394 212q-62 2 -81 47l-60 -21q18 -39 54 -62
t84 -23q72 0 111.5 47.5t39.5 141.5q0 99 -38.5 153.5t-110.5 54.5q-59 0 -98 -40q-39 -39 -39 -100q0 -57 38 -95q37 -37 94 -37q26 0 51.5 9.5t42.5 30.5q0 -48 -22.5 -76.5t-65.5 -29.5zM469 413q0 -33 -21.5 -54t-55.5 -21q-31 0 -52 22t-21 54q0 33 21.5 54t55.5 21
q32 0 52.5 -21t20.5 -55z" />
    <glyph glyph-name="uni2780" unicode="&#x2780;" horiz-adv-x="879" 
d="M829 333q2 -79 -29.5 -150t-85.5 -125t-125 -85.5t-149 -29.5q-79 -2 -150 29.5t-125 85.5t-85 125t-30 150q-1 79 30 150t85 125t125 85.5t150 29.5q78 2 149 -29.5t125 -85.5t85.5 -125.5t29.5 -149.5zM760 333q2 64 -24 122.5t-70.5 103t-103 70.5t-122.5 24
q-65 2 -124 -23.5t-103 -70t-69.5 -103t-24.5 -123.5q-1 -65 24.5 -123.5t69.5 -103t103 -69.5t124 -24q65 -1 123.5 24t103 69.5t70 103t23.5 123.5zM487 510v-368h-63v262q-3 -1 -13 -1h-51v63h39q20 0 25 19v25h63z" />
    <glyph glyph-name="uni2781" unicode="&#x2781;" horiz-adv-x="879" 
d="M829 333q2 -79 -29.5 -150t-85.5 -125t-125 -85.5t-149 -29.5q-79 -2 -150 29.5t-125 85.5t-85 125t-30 150q-1 79 30 150t85 125t125 85.5t150 29.5q78 2 149 -29.5t125 -85.5t85.5 -125.5t29.5 -149.5zM760 333q2 64 -24 122.5t-70.5 103t-103 70.5t-122.5 24
q-65 2 -124 -23.5t-103 -70t-69.5 -103t-24.5 -123.5q-1 -65 24.5 -123.5t69.5 -103t103 -69.5t124 -24q65 -1 123.5 24t103 69.5t70 103t23.5 123.5zM573 398q0 -10 -1 -13v-3q-4 -36 -29 -64q-12 -13 -33 -31.5t-50 -41.5q-18 -14 -28.5 -22t-12.5 -10h144v-62l-246 -1
q-1 32 6.5 53t30.5 37l37 30q23 19 45.5 37t44.5 37q27 23 30 48q1 34 -19 52.5t-55 15.5q-25 -3 -39 -18.5t-14 -41.5q0 -11 1 -14h-63q-4 57 26.5 94t84.5 42h13q5 1 8.5 0.5t6.5 -0.5q46 -5 76 -35t35 -75q1 -3 1 -14z" />
    <glyph glyph-name="uni2782" unicode="&#x2782;" horiz-adv-x="879" 
d="M829 333q2 -79 -29.5 -150t-85.5 -125t-125 -85.5t-149 -29.5q-79 -2 -150 29.5t-125 85.5t-85 125t-30 150q-1 79 30 150t85 125t125 85.5t150 29.5q78 2 149 -29.5t125 -85.5t85.5 -125.5t29.5 -149.5zM760 333q2 64 -24 122.5t-70.5 103t-103 70.5t-122.5 24
q-65 2 -124 -23.5t-103 -70t-69.5 -103t-24.5 -123.5q-1 -65 24.5 -123.5t69.5 -103t103 -69.5t124 -24q65 -1 123.5 24t103 69.5t70 103t23.5 123.5zM533 342q15 -16 24 -38t9 -46q0 -52 -38 -88q-38 -35 -90 -35q-53 0 -91 36q-37 36 -37 87l1 13h63q-1 -5 -1.5 -8.5
t-0.5 -5.5q0 -25 19.5 -43t46.5 -18t46 18t19 44q0 32 -24 51q-20 14 -41 14q-2 0 -6 -0.5t-9 -1.5l-12 -4l-31 49l79 79h-133v63h230v-57l-76 -75q36 -12 53 -34z" />
    <glyph glyph-name="uni2783" unicode="&#x2783;" horiz-adv-x="879" 
d="M829 333q2 -79 -29.5 -150t-85.5 -125t-125 -85.5t-149 -29.5q-79 -2 -150 29.5t-125 85.5t-85 125t-30 150q-1 79 30 150t85 125t125 85.5t150 29.5q78 2 149 -29.5t125 -85.5t85.5 -125.5t29.5 -149.5zM760 333q2 64 -24 122.5t-70.5 103t-103 70.5t-122.5 24
q-65 2 -124 -23.5t-103 -70t-69.5 -103t-24.5 -123.5q-1 -65 24.5 -123.5t69.5 -103t103 -69.5t124 -24q65 -1 123.5 24t103 69.5t70 103t23.5 123.5zM521 279h48v-62h-48v-71h-64v71h-173v62l173 235h64v-235zM457 279v131l-95 -131h95z" />
    <glyph glyph-name="uni2784" unicode="&#x2784;" horiz-adv-x="879" 
d="M50 333q-1 79 30 150t85 125t125 85.5t150 29.5q78 2 149 -29.5t125 -85.5t85.5 -125.5t29.5 -149.5q2 -79 -29.5 -150t-85.5 -125t-125 -85.5t-149 -29.5q-79 -2 -150 29.5t-125 85.5t-85 125t-30 150zM760 333q2 64 -24 122.5t-70.5 103t-103 70.5t-122.5 24
q-65 2 -124 -23.5t-103 -70t-69.5 -103t-24.5 -123.5q-1 -65 24.5 -123.5t69.5 -103t103 -69.5t124 -24q65 -1 123.5 24t103 69.5t70 103t23.5 123.5zM371 274q-2 -31 16.5 -52t50.5 -21q29 0 49.5 20t20.5 47q0 30 -20.5 50t-50.5 20q-20 0 -36 -9t-24 -23l-59 16l47 188
h192v-63h-142l-15 -56q20 7 40 7q54 0 92 -38t38 -94q0 -26 -10.5 -49t-28.5 -40.5t-42 -27.5t-51 -10q-29 0 -53.5 10.5t-41.5 28.5t-26.5 43t-8.5 53h63z" />
    <glyph glyph-name="uni2785" unicode="&#x2785;" horiz-adv-x="879" 
d="M50 333q-1 79 30 150t85 125t125 85.5t150 29.5q78 2 149 -29.5t125 -85.5t85.5 -125.5t29.5 -149.5q2 -79 -29.5 -150t-85.5 -125t-125 -85.5t-149 -29.5q-79 -2 -150 29.5t-125 85.5t-85 125t-30 150zM760 333q2 64 -24 122.5t-70.5 103t-103 70.5t-122.5 24
q-65 2 -124 -23.5t-103 -70t-69.5 -103t-24.5 -123.5q-1 -65 24.5 -123.5t69.5 -103t103 -69.5t124 -24q65 -1 123.5 24t103 69.5t70 103t23.5 123.5zM443 515q85 0 125 -73l-48 -33q-25 45 -76 45q-31 0 -55.5 -23t-30.5 -62q14 19 36.5 29.5t46.5 10.5q58 0 92.5 -38.5
t34.5 -95.5l-1 -15q-7 -55 -44 -87.5t-91 -32.5q-68 0 -103 51q-35 53 -35 127q0 61 23 115q17 37 51.5 59.5t74.5 22.5zM430 203q31 0 53 19t22 52q0 34 -20.5 54.5t-49.5 20.5t-50.5 -20t-21.5 -56q0 -32 19.5 -51t47.5 -19z" />
    <glyph glyph-name="uni2786" unicode="&#x2786;" horiz-adv-x="879" 
d="M829 333q2 -79 -29.5 -150t-85.5 -125t-125 -85.5t-149 -29.5q-79 -2 -150 29.5t-125 85.5t-85 125t-30 150q-1 79 30 150t85 125t125 85.5t150 29.5q78 2 149 -29.5t125 -85.5t85.5 -125.5t29.5 -149.5zM760 333q2 64 -24 122.5t-70.5 103t-103 70.5t-122.5 24
q-65 2 -124 -23.5t-103 -70t-69.5 -103t-24.5 -123.5q-1 -65 24.5 -123.5t69.5 -103t103 -69.5t124 -24q65 -1 123.5 24t103 69.5t70 103t23.5 123.5zM317 510h262v-66q-142 -106 -142 -300h-66q0 53 20 136q19 80 103 164h-177v66z" />
    <glyph glyph-name="uni2787" unicode="&#x2787;" horiz-adv-x="879" 
d="M50 333q-1 79 30 150t85 125t125 85.5t150 29.5q78 2 149 -29.5t125 -85.5t85.5 -125.5t29.5 -149.5q2 -79 -29.5 -150t-85.5 -125t-125 -85.5t-149 -29.5q-79 -2 -150 29.5t-125 85.5t-85 125t-30 150zM760 333q2 64 -24 122.5t-70.5 103t-103 70.5t-122.5 24
q-65 2 -124 -23.5t-103 -70t-69.5 -103t-24.5 -123.5q-1 -65 24.5 -123.5t69.5 -103t103 -69.5t124 -24q65 -1 123.5 24t103 69.5t70 103t23.5 123.5zM303 255q0 27 14 51t37 39q-39 31 -39 74q0 20 8.5 39t24.5 33.5t38.5 23.5t49.5 9t49 -8.5t37.5 -23t24 -33.5t8.5 -40
q0 -45 -39 -74q23 -14 36.5 -38t13.5 -51q0 -45 -33.5 -78t-97.5 -34q-64 0 -97.5 33t-34.5 78zM494 420q0 17 -16 30.5t-43 13.5q-28 -1 -43.5 -14t-15.5 -31q1 -17 16.5 -30.5t42.5 -13.5q28 1 43.5 14t15.5 31zM505 259q0 21 -18.5 36t-51.5 15t-51 -15.5t-18 -36.5
q0 -22 18 -38t51 -16t51.5 16t18.5 39z" />
    <glyph glyph-name="uni2788" unicode="&#x2788;" horiz-adv-x="879" 
d="M50 333q-1 79 30 150t85 125t125 85.5t150 29.5q78 2 149 -29.5t125 -85.5t85.5 -125.5t29.5 -149.5q2 -79 -29.5 -150t-85.5 -125t-125 -85.5t-149 -29.5q-79 -2 -150 29.5t-125 85.5t-85 125t-30 150zM760 333q2 64 -24 122.5t-70.5 103t-103 70.5t-122.5 24
q-65 2 -124 -23.5t-103 -70t-69.5 -103t-24.5 -123.5q-1 -65 24.5 -123.5t69.5 -103t103 -69.5t124 -24q65 -1 123.5 24t103 69.5t70 103t23.5 123.5zM430 245q-27 0 -50 10t-39.5 28t-25.5 43.5t-8 55.5q1 27 12 51t29.5 42t42.5 28.5t50 10.5q45 0 77.5 -24t44.5 -64
q17 -53 17 -101q0 -81 -40 -134q-39 -53 -112 -53q-79 0 -120 71l51 31q11 -20 30 -30.5t39 -10.5q33 0 58.5 23.5t29.5 65.5q-11 -21 -35.5 -32t-50.5 -11zM441 453q-29 0 -51.5 -22t-21.5 -53q-1 -33 19 -53.5t49 -20.5q31 0 53 22.5t22 57.5q-1 29 -20 49t-50 20z" />
    <glyph glyph-name="DegarismLogo" horiz-adv-x="1528" 
d="M731 275h229v-267h-82l-10 80h-9q0 -3 -7 -18t-23.5 -30.5t-44.5 -28t-71 -11.5q-95 0 -155 64q-60 65 -60 189q0 65 19.5 113.5t52 80.5t75 48t88.5 16q37 0 73.5 -10.5t67 -32.5t52.5 -55t29 -78h-113q-10 36 -37.5 57.5t-69.5 21.5q-63 0 -94.5 -44.5t-31.5 -112.5
q0 -34 7.5 -63.5t23 -51t39 -33.5t54.5 -12q43 0 73 23t38 60h-113v95zM997 457q0 22 16 38t39 16t38.5 -15.5t15.5 -38.5t-16 -39t-38 -16t-38.5 16.5t-16.5 38.5zM1135 457q0 22 16 38t39 16t38.5 -15.5t15.5 -38.5t-16 -39t-38 -16t-38.5 16.5t-16.5 38.5zM1276 511h84
v-21h-30v-85h-25v85h-29v21zM1488 511v-106h-25v91l-15 -91h-35l-14 91v-91h-25v106h44l12 -88l14 88h44zM464 257q0 -124 -61 -186.5t-169 -62.5h-194v498h194q108 0 169 -62.5t61 -186.5zM354 257q0 96 -42 127q-40 31 -78 31h-66q-25 2 -42.5 12t-19.5 12l-8 -8
q3 -3 11.5 -11t18.5 -19q15 -13 18.5 -29t3.5 -27v-177q0 -25 -10 -39.5t-12 -16.5l-30 -30l8 -7q3 3 22.5 13.5t47.5 10.5h58q39 0 79 30q41 32 41 128zM1210 345q18 0 34 -3v-89q-4 1 -18 1q-49 0 -76.5 -25.5t-27.5 -80.5v-140h-108v257q0 49 -7 77h109q2 -10 2.5 -20
t1.5 -20q22 43 90 43z" />
    <glyph glyph-name="G.ss01" horiz-adv-x="757" 
d="M390 381h346l-9 -65q-10 -76 -40.5 -137t-77.5 -103t-108.5 -64.5t-134.5 -22.5q-68 0 -125 21t-98.5 61.5t-64.5 100.5t-23 138q-1 89 29 166.5t83 135t126 90t158 30.5q111 0 187.5 -51.5t102.5 -142.5l-85 -30q-21 70 -75 106t-132 36q-66 0 -122.5 -25t-97.5 -69
t-64 -105.5t-23 -134.5q0 -120 59.5 -183t165.5 -63q51 0 95.5 15.5t79 45.5t59 73.5t34.5 100.5h-256z" />
    <glyph glyph-name="ampersand.ss02" horiz-adv-x="687" 
d="M653 0q-65 0 -94 13q-30 13 -53 49l-3 4q-43 -38 -99 -58t-120 -20q-53 0 -97 13.5t-75.5 39t-49 61t-17.5 80.5q0 54 26 98q26 43 70.5 78t118.5 79l-6 9q-23 35 -35.5 65.5t-12.5 62.5q0 33 12.5 61.5t35 50.5t53 34.5t67.5 12.5q64 0 100.5 -34.5t36.5 -91.5
q0 -52 -35 -94t-110 -90l147 -225q32 57 40 135h75q-12 -120 -69 -204q18 -27 32 -38q8 -6 14 -8.5t13.5 -4t18 -2t26.5 -0.5zM285 579q0 -21 9 -41.5t30 -51.5l5 -8q57 35 83 62t26 59q0 29 -19 47t-49 18q-35 0 -60 -24t-25 -61zM297 380q-47 -30 -79 -52t-52 -43
t-29 -43.5t-11 -52.5q0 -63 46 -94.5t116 -31.5q51 0 95.5 17t78.5 49z" />
    <glyph glyph-name="bracketleftsuperior" horiz-adv-x="198" 
d="M193 -108h-146v641h146v-54h-91v-532h91v-55z" />
    <glyph glyph-name="bracketrightsuperior" horiz-adv-x="193" 
d="M91 -53v532h-91v54h146v-641h-146v55h91z" />
    <glyph glyph-name="eight.dnom" horiz-adv-x="362" 
d="M49 99q0 28 13.5 52.5t36.5 38.5q-38 29 -38 73q0 21 8.5 40t24.5 33.5t38.5 23.5t49.5 9q54 -1 86.5 -32t32.5 -73q0 -45 -38 -74q22 -15 36 -39t14 -52q0 -21 -8.5 -41t-25.5 -35.5t-42 -25t-58 -9.5q-63 0 -96.5 33t-33.5 78zM240 264q0 18 -15.5 31t-43.5 13
q-29 -1 -44.5 -14.5t-13.5 -31.5q0 -18 15.5 -30.5t42.5 -12.5q28 1 44 14t15 31zM251 101q1 21 -17.5 37.5t-52.5 16.5q-33 0 -51.5 -16.5t-17.5 -38.5q0 -21 18 -36.5t51 -15.5t51.5 15.5t18.5 37.5z" />
    <glyph glyph-name="eight.numr" horiz-adv-x="374" 
d="M56 446q0 28 13.5 52.5t36.5 38.5q-38 27 -38 75q0 21 9 39.5t24.5 33t38 23t49.5 8.5q52 -1 84.5 -31t34.5 -72q0 -47 -39 -76q23 -14 36.5 -38.5t13.5 -51.5q0 -45 -34 -78t-100 -33q-63 0 -96 32.5t-33 77.5zM246 613q-1 17 -16.5 29.5t-42.5 12.5q-28 -1 -43 -13.5
t-16 -30.5q1 -18 16.5 -31t42.5 -13q28 0 44.5 14t14.5 32zM257 450q0 21 -18.5 36.5t-51.5 15.5q-31 0 -49 -15t-20 -35q-1 -23 17.5 -40t51.5 -17t51.5 16.5t18.5 38.5z" />
    <glyph glyph-name="eight.tf" horiz-adv-x="627" 
d="M451 378q54 -20 82.5 -64t28.5 -101q0 -51 -21.5 -92.5t-58.5 -71t-87.5 -45.5t-109.5 -16q-51 0 -93.5 14t-74 39t-49 59.5t-17.5 75.5q0 72 47 130q47 59 123 81q-43 19 -68 57t-25 86q0 47 19 84.5t52 63.5t77.5 40t95.5 14q44 0 82 -12.5t66.5 -36t44.5 -55.5t16 -71
q0 -64 -33.5 -110t-96.5 -69zM366 657q-35 0 -64.5 -8.5t-51.5 -25t-34 -40.5t-12 -56q0 -45 36 -76.5t102 -31.5q75 0 118.5 35.5t43.5 92.5q0 51 -38.5 80.5t-99.5 29.5zM323 338q-80 0 -134 -39q-53 -39 -53 -109q0 -58 43.5 -91t112.5 -33q38 0 72.5 11t60 31t40.5 48
t15 63q0 57 -44 88t-113 31z" />
    <glyph glyph-name="five.dnom" horiz-adv-x="380" 
d="M119 125q-2 -32 17.5 -53.5t51.5 -21.5q30 0 51 20.5t21 49.5q0 31 -21 51.5t-52 20.5q-20 0 -36.5 -9.5t-24.5 -23.5l-61 15l48 194h198v-64h-147l-15 -58q20 6 41 6q58 0 95 -39q39 -37 39 -95q0 -27 -10.5 -51t-29 -41.5t-43.5 -28t-53 -10.5q-30 0 -54.5 10.5
t-42.5 29t-27 44t-8 54.5h63z" />
    <glyph glyph-name="five.numr" horiz-adv-x="373" 
d="M118 474q-2 -31 17 -52t50 -21q29 0 49.5 20t20.5 47q0 30 -20.5 50t-50.5 20q-19 0 -35.5 -9.5t-23.5 -22.5l-60 16l47 188h192v-63h-142l-15 -56q20 7 41 7q54 0 92 -38q37 -37 37 -94q0 -26 -10.5 -49t-28.5 -40.5t-42 -27.5t-51 -10q-29 0 -53 10.5t-41.5 28.5
t-26.5 43t-8 53h62z" />
    <glyph glyph-name="five.tf" horiz-adv-x="614" 
d="M284 637l-76 -189q59 35 133 35q50 0 90 -17t67.5 -46.5t42 -69.5t14.5 -87q0 -57 -21 -107.5t-58 -87.5t-88 -58.5t-111 -21.5q-51 0 -93.5 16t-73.5 44t-48 67t-17 85q0 5 0.5 13.5t1.5 19.5h83q-1 -8 -1.5 -14t-0.5 -10q0 -30 11 -55.5t30.5 -43.5t47.5 -28.5
t61 -10.5q41 0 76 15t61 41.5t41 61.5t15 74q0 63 -39 104t-111 41q-92 0 -156 -67l-75 20l141 359h348l-12 -83h-283z" />
    <glyph glyph-name="four.dnom" horiz-adv-x="399" 
d="M343 68h-48v-71h-64v71h-175v63l175 237h64v-238h48v-62zM231 130v132l-96 -131z" />
    <glyph glyph-name="four.numr" horiz-adv-x="396" 
d="M341 413h-48v-71h-64v71h-173v62l173 235h64v-236h48v-61zM229 474v131l-95 -130z" />
    <glyph glyph-name="four.ss03" horiz-adv-x="640" 
d="M624 146h-88l-21 -146h-81l20 146h-397l12 83l397 -1l58 411l-356 -410h-99l426 491h99h22l-69 -492h89z" />
    <glyph glyph-name="four.tf" horiz-adv-x="617" 
d="M569 146h-89l-20 -146h-82l21 146h-357l11 83l387 491h98l-386 -491l258 -1l33 234h81l-32 -234h88z" />
    <glyph glyph-name="g.ss02" horiz-adv-x="585" 
d="M574 486l-66 -472q-17 -115 -84 -178.5t-176 -63.5q-93 0 -153 42.5t-75 114.5l79 30q7 -54 47.5 -83t103.5 -29q73 0 119.5 41t57.5 122l12 82q-31 -37 -80 -57.5t-98 -20.5t-87.5 16t-65.5 44.5t-41.5 67t-14.5 84.5q-1 55 18.5 105t54.5 88t83.5 60t106.5 21
q61 0 106.5 -24.5t63.5 -72.5l16 83h73zM458 282q0 63 -37.5 104.5t-103.5 41.5q-40 0 -73 -15.5t-57 -42t-37.5 -62t-13.5 -75.5q0 -64 36 -105t102 -41q39 0 73 16t58.5 42.5t38.5 62t14 74.5z" />
    <glyph glyph-name="i.loclTRK" horiz-adv-x="200" 
d="M183 487l-68 -487h-82l68 487h82zM95 602q0 28 22 49t50 21q23 0 38.5 -16.5t15.5 -39.5q0 -27 -22 -48t-49 -21q-24 0 -39.5 16t-15.5 39z" />
    <glyph glyph-name="i.ss04" horiz-adv-x="251" 
d="M255 658l-76 -66l-56 66l75 66zM205 487l-68 -487h-83l68 487h83z" />
    <glyph glyph-name="nine.dnom" horiz-adv-x="391" 
d="M177 96q-27 2 -49.5 13t-39 29.5t-25 43t-7.5 54.5q0 29 11 53.5t29 42.5t42.5 28.5t51.5 10.5q43 0 77 -24t48 -66q19 -53 19 -111q0 -39 -10 -72.5t-28.5 -58.5t-46.5 -39t-64 -14q-79 0 -125 73l52 31q12 -21 31.5 -32t40.5 -11q33 0 59 24.5t27 67.5
q-11 -21 -38.5 -33t-54.5 -10zM197 309q-32 3 -56 -18.5t-24 -55.5t21 -56.5t51 -22.5q31 0 53 23t21 59q-2 28 -19.5 47.5t-46.5 23.5z" />
    <glyph glyph-name="nine.numr" horiz-adv-x="386" 
d="M182 445q-27 0 -50 10t-40.5 28t-27 43.5t-8.5 55.5q0 27 10.5 51t28.5 42t42 28.5t50 10.5q45 0 77.5 -24t46.5 -64q19 -51 19 -108q0 -76 -38 -129q-37 -51 -110 -51q-80 0 -121 71l51 31q12 -21 30.5 -31t38.5 -10q33 0 58.5 23.5t27.5 65.5q-10 -20 -34.5 -31.5
t-50.5 -11.5zM188 653q-29 0 -50.5 -22t-20.5 -53q0 -33 20.5 -53.5t49.5 -20.5q31 0 52.5 22.5t20.5 57.5q-2 29 -21.5 49t-50.5 20z" />
    <glyph glyph-name="nine.tf" horiz-adv-x="669" 
d="M624 428q0 -103 -22 -185t-64 -139t-104 -87t-142 -30q-78 0 -140 31.5t-92 86.5l72 42q23 -36 64 -56.5t99 -20.5q103 0 164 68.5t73 195.5q-32 -53 -90 -83q-60 -29 -118 -29q-46 0 -89 16t-76 47t-52.5 75.5t-19.5 101.5q-1 54 20 104t57.5 87.5t86 59t105.5 20.5
q131 0 199 -83q69 -82 69 -222zM363 652q-42 0 -77 -15.5t-60 -41t-39 -59.5t-14 -71q0 -34 11 -64t32 -52.5t50.5 -35.5t65.5 -13q40 0 75.5 15.5t62 42t42 62t15.5 74.5q0 33 -11.5 62t-33 50t-52 33.5t-67.5 12.5z" />
    <glyph glyph-name="one.dnom" horiz-adv-x="255" 
d="M43 336l67 32v-66l-67 -28v62zM173 368v-368h-62l-1 368h63z" />
    <glyph glyph-name="one.numr" horiz-adv-x="257" 
d="M45 679l66 31v-66l-66 -27v62zM175 710v-368h-63l-1 368h64z" />
    <glyph glyph-name="one.tf" horiz-adv-x="545" 
d="M464 76l-11 -76h-228h-148l11 76h148l90 644h84l-91 -644h145zM192 650l134 70l-12 -86l-134 -67z" />
    <glyph glyph-name="registered.ss01" horiz-adv-x="558" 
d="M340 730q47 0 86.5 -16.5t68.5 -45t45.5 -67.5t16.5 -85q1 -52 -20.5 -100.5t-58 -85.5t-86 -58.5t-103.5 -20.5q-47 0 -87 16.5t-69.5 45t-46 67.5t-16.5 85q-1 52 21.5 100.5t60 85.5t87 58.5t101.5 20.5zM290 298q44 0 84 17t70 46.5t48 68.5t18 84q0 37 -12.5 68.5
t-35 54.5t-54 36t-70.5 13q-44 0 -83.5 -17.5t-69.5 -47t-48 -69t-18 -83.5q0 -38 12 -69.5t34 -54t54 -35t71 -12.5zM259 597h74q73 0 71 -62q-1 -23 -14.5 -39t-33.5 -22l26 -89h-47l-24 82h-29l-11 -82h-42zM323 504q16 0 25 8t9 20q0 24 -28 24h-34l-8 -52h36z" />
    <glyph glyph-name="seven.dnom" horiz-adv-x="375" 
d="M319 368v-67q-142 -106 -142 -301h-67q0 54 20 137q19 80 103 164h-177v67h263z" />
    <glyph glyph-name="seven.numr" horiz-adv-x="374" 
d="M318 710v-66q-142 -106 -142 -300h-66q0 53 20 136q19 80 103 164h-177v66h262z" />
    <glyph glyph-name="seven.tf" horiz-adv-x="520" 
d="M565 719l-12 -85q-146 -109 -229 -246q-82 -136 -108 -232q-13 -48 -21.5 -86.5t-12.5 -69.5h-85q2 24 10 60t21 85t39 107t64 127q77 138 213 255h-367l12 85h476z" />
    <glyph glyph-name="six.dnom" horiz-adv-x="394" 
d="M336 127q0 -58 -39 -99q-39 -39 -100 -39q-35 0 -61.5 13.5t-44 38.5t-26.5 59t-9 74q0 85 40 140q41 56 116 56q42 0 74.5 -17t51.5 -48l-50 -34q-28 37 -76 37q-36 0 -59.5 -23t-29.5 -61q12 18 34.5 27.5t50.5 9.5q58 0 92 -39q36 -39 36 -95zM270 123
q0 34 -20.5 54.5t-52.5 20.5q-31 0 -51 -20.5t-20 -54.5q0 -35 20.5 -54t50.5 -19t51.5 19t21.5 54z" />
    <glyph glyph-name="six.numr" horiz-adv-x="394" 
d="M337 474q0 -29 -10.5 -54t-29 -43t-44.5 -28.5t-56 -10.5q-70 0 -105.5 51.5t-35.5 131.5q0 82 41 138t115 56q42 0 74 -16.5t52 -47.5l-50 -34q-13 18 -32.5 27t-42.5 9q-37 0 -60.5 -22.5t-29.5 -59.5q13 18 35.5 27.5t49.5 9.5q57 0 93 -39t36 -95zM271 471
q0 34 -21 54t-52 20t-51.5 -20t-20.5 -55q0 -34 20.5 -53t50.5 -19t52 19t22 54z" />
    <glyph glyph-name="six.tf" horiz-adv-x="663" 
d="M613 266q0 -60 -21.5 -111t-59.5 -88.5t-90 -58.5t-113 -21t-108.5 23t-80 64t-49 97.5t-16.5 123.5q0 28 3 56q7 78 33 147.5t70 122t105 83t138 29.5q72 0 133.5 -28t95.5 -86l-75 -44q-26 39 -68.5 56.5t-90.5 17.5q-52 0 -95.5 -21.5t-75.5 -58.5t-52.5 -86
t-27.5 -104q30 57 87 87.5t120 30.5q45 0 88 -16t76 -45.5t53.5 -72.5t20.5 -97zM367 419q-40 0 -75 -15.5t-61 -41.5t-40.5 -60.5t-14.5 -72.5q0 -33 11.5 -62t32 -51t49 -34.5t63.5 -12.5q40 0 76 15.5t63 41.5t42.5 60.5t15.5 72.5q0 32 -11.5 60.5t-33 51t-51.5 35.5
t-66 13z" />
    <glyph glyph-name="t.ss03" horiz-adv-x="326" 
d="M176 135q-1 -4 -1 -17q0 -54 55 -54q24 0 51 9l-11 -73q-36 -9 -66 -9q-54 0 -83.5 28t-29.5 83q0 15 3 33l39 280h-76l10 72h76l22 153h82l-22 -153h115l-9 -72h-116z" />
    <glyph glyph-name="three.dnom" horiz-adv-x="360" 
d="M311 118q0 -27 -10 -49.5t-27.5 -39t-41.5 -26t-52 -9.5q-56 0 -94 35q-37 36 -37 87q0 12 1 15h64q-1 -5 -1.5 -9t-0.5 -6q0 -25 19 -42.5t49 -17.5t48.5 17t18.5 45q0 30 -19.5 47.5t-47.5 17.5q-14 0 -28 -6l-32 48l82 80h-137v63h234v-57l-77 -74q39 -12 64 -43
t25 -76z" />
    <glyph glyph-name="three.numr" horiz-adv-x="368" 
d="M312 460q0 -52 -38 -88q-37 -36 -90 -36q-26 0 -49.5 9.5t-41 26.5t-27.5 39.5t-10 48.5l1 13h63q-1 -5 -1.5 -8.5t-0.5 -5.5q0 -25 19.5 -43t46.5 -18t46 18t19 44q0 32 -24 51q-17 13 -40 13q-3 0 -7 -0.5t-9 -1.5q-4 -1 -7 -2t-5 -2l-31 49l79 80h-133v63h230v-57
l-76 -75q34 -12 53 -34q33 -36 33 -84z" />
    <glyph glyph-name="three.tf" horiz-adv-x="576" 
d="M567 636l-219 -187q82 -12 130.5 -66.5t48.5 -142.5q0 -58 -21 -104.5t-57 -79.5t-84 -50.5t-102 -17.5q-51 0 -93.5 16t-73 43.5t-47.5 65.5t-17 82q0 5 0.5 11.5t1.5 15.5h84q-1 -7 -1.5 -12t-0.5 -9q0 -58 40.5 -94.5t109.5 -36.5q38 0 70 12t56 33.5t37.5 52.5
t13.5 70q0 57 -33 92.5t-93 43.5q-16 3 -63 3h-42l6 60l230 199l-323 1l12 82h442z" />
    <glyph glyph-name="two.dnom" horiz-adv-x="373" 
d="M66 63l142 122q23 19 32 32t10 29q1 31 -16.5 47.5t-48.5 16.5q-29 0 -46 -16.5t-17 -44.5q0 -10 1 -13h-62q-2 29 7 53.5t26.5 43t42 29t54.5 10.5q54 -1 87.5 -34.5t34.5 -87.5q0 -59 -64 -113l-89 -75h145v-62h-239v63z" />
    <glyph glyph-name="two.numr" horiz-adv-x="364" 
d="M62 403l143 122q23 20 31.5 33.5t8.5 31.5q0 28 -16.5 44t-45.5 16q-30 0 -47.5 -16.5t-17.5 -45.5q0 -10 1 -13h-63q-2 29 7 54t26 43t42 28.5t54 10.5q55 0 89.5 -33.5t34.5 -88.5q0 -60 -64 -112l-89 -75h145v-62l-239 -1v64z" />
    <glyph glyph-name="two.tf" horiz-adv-x="569" 
d="M37 94l357 268q94 70 94 157q0 60 -37.5 96t-103.5 36q-69 0 -117.5 -40.5t-60.5 -112.5h-83q8 55 31.5 98.5t58.5 74t80 46.5t95 16t91 -15.5t69.5 -43t44 -65.5t15.5 -83q0 -70 -36 -126t-102 -104l-284 -213l345 1l-12 -82l-458 -2z" />
    <glyph glyph-name="zero.dnom" horiz-adv-x="431" 
d="M214 -14q-72 0 -115 51.5t-43 138.5q0 85 41.5 136.5t113.5 52.5q74 3 119 -50q45 -52 45 -139t-44 -138.5t-117 -51.5zM312 176q0 57 -26 91t-71 34q-43 0 -69.5 -34t-26.5 -91t26 -91.5t71 -35.5q43 1 69.5 35.5t26.5 91.5z" />
    <glyph glyph-name="zero.numr" horiz-adv-x="434" 
d="M217 338q-73 0 -116.5 52t-43.5 140q0 42 11 77t31.5 60t49 39t64.5 14q74 3 119 -50q45 -52 45 -140t-43.5 -140t-116.5 -52zM313 530q0 57 -25.5 91t-70.5 35q-45 -1 -70.5 -35t-25.5 -91q0 -58 25.5 -92.5t70.5 -35.5q45 1 70.5 35.5t25.5 92.5z" />
    <glyph glyph-name="zero.tf" horiz-adv-x="765" 
d="M436 732q63 0 115 -22.5t89.5 -65.5t58.5 -104t21 -138q1 -85 -25.5 -161t-74.5 -133t-113.5 -89.5t-141.5 -30.5q-64 0 -117 23t-91 65t-59 102t-21 135q-1 86 26.5 162.5t76.5 134t115 91t141 31.5zM365 71q59 -1 108.5 26.5t84.5 74t54.5 107t18.5 124.5
q0 56 -14 100.5t-40 76.5t-63 49t-84 17q-58 2 -107 -26t-84.5 -74.5t-55 -107t-18.5 -124.5q0 -55 13.5 -100t39.5 -77t63 -49t84 -17z" />
    </font>
</defs>
</svg>
