<svg width="16" height="14" viewBox="0 0 16 14" fill="none" xmlns="http://www.w3.org/2000/svg">
<path fill-rule="evenodd" clip-rule="evenodd" d="M6.99326 0.711671C7.54888 -0.239446 8.45188 -0.234999 9.00464 0.711671L15.7605 12.278C16.3161 13.2291 15.8727 14 14.7635 14H1.23474C0.128769 14 -0.315035 13.2246 0.23746 12.278L6.99326 0.711671ZM7.2473 5.96624V9.19488C7.2473 9.46931 7.4713 9.6972 7.74772 9.6972H8.24988C8.52839 9.6972 8.75029 9.4721 8.75029 9.19488V5.96624C8.75029 5.69147 8.52629 5.46393 8.24988 5.46393H7.74772C7.46921 5.46393 7.2473 5.68868 7.2473 5.96624ZM7.2473 10.9415V11.4407C7.2473 11.7176 7.4713 11.9381 7.74772 11.9381H8.24988C8.52839 11.9381 8.75029 11.7155 8.75029 11.4407V10.9415C8.75029 10.6646 8.52629 10.444 8.24988 10.444H7.74772C7.46921 10.444 7.2473 10.6667 7.2473 10.9415Z" fill="#FF3C3C"/>
</svg>
