<svg width="28" height="28" viewBox="0 0 28 28" fill="none" xmlns="http://www.w3.org/2000/svg">
<path d="M11.0833 17.5177C15.8279 17.5177 19.8333 18.2984 19.8333 21.3135C19.8333 24.3286 15.8022 25.0833 11.0833 25.0833C6.33874 25.0833 2.33334 24.3014 2.33334 21.2875C2.33334 18.2724 6.36326 17.5177 11.0833 17.5177ZM22.1655 8.74996C22.7444 8.74996 23.2143 9.22765 23.2143 9.81351V11.1858H24.6179C25.1956 11.1858 25.6667 11.6635 25.6667 12.2494C25.6667 12.8352 25.1956 13.3129 24.6179 13.3129H23.2143V14.6864C23.2143 15.2723 22.7444 15.75 22.1655 15.75C21.5877 15.75 21.1167 15.2723 21.1167 14.6864V13.3129H19.7155C19.1365 13.3129 18.6667 12.8352 18.6667 12.2494C18.6667 11.6635 19.1365 11.1858 19.7155 11.1858H21.1167V9.81351C21.1167 9.22765 21.5877 8.74996 22.1655 8.74996ZM11.0833 2.91663C14.297 2.91663 16.8731 5.52603 16.8731 8.78127C16.8731 12.0365 14.297 14.6459 11.0833 14.6459C7.86967 14.6459 5.2936 12.0365 5.2936 8.78127C5.2936 5.52603 7.86967 2.91663 11.0833 2.91663Z" fill="#1776BA"/>
</svg>
