<svg width="24" height="24" viewBox="0 0 24 24" fill="none" xmlns="http://www.w3.org/2000/svg">
<path d="M17.0633 0.333496C21.0183 0.333496 23.6666 3.109 23.6666 7.239V16.7707C23.6666 20.8902 21.0183 23.6668 17.0633 23.6668H6.94825C2.99325 23.6668 0.333252 20.8902 0.333252 16.7707V7.239C0.333252 3.109 2.99325 0.333496 6.94825 0.333496H17.0633ZM11.5916 6.07233C11.1133 6.07233 10.7166 6.47016 10.7166 6.94733V12.8402C10.7166 13.1435 10.8799 13.4352 11.1483 13.5868L15.7216 16.3168C15.8616 16.4102 16.0249 16.4452 16.1766 16.4452C16.4683 16.4452 16.7599 16.2935 16.9233 16.0135C17.1799 15.604 17.0399 15.0673 16.6199 14.8118L12.4666 12.3385V6.94733C12.4666 6.47016 12.0816 6.07233 11.5916 6.07233Z" fill="#2E3234"/>
</svg>
