<svg width="512" height="512" viewBox="0 0 512 512" fill="none" xmlns="http://www.w3.org/2000/svg">
<path fill-rule="evenodd" clip-rule="evenodd" d="M232.501 17.117C178.65 22.181 125.512 47.414 86.4638 86.463C58.5688 114.357 39.3898 145.99 27.1398 184.307C-1.66919 274.421 26.9538 375.228 98.9278 437.138C208.236 531.162 372.708 509.802 454.202 391C500.382 323.68 508.705 237.133 476.313 161.084C452.852 106.002 406.654 59.623 351.805 36.088C313.866 19.809 272.988 13.309 232.501 17.117ZM244.805 113.929C231.846 118.072 221.718 129.939 219.565 143.5C219.006 147.017 229.029 273.944 230.578 282.965C231.826 290.24 237.312 297.47 244.501 301.314C250.143 304.332 261.859 304.332 267.501 301.314C274.689 297.47 280.174 290.243 281.426 282.965C281.754 281.059 284.514 249.617 287.561 213.092C293.504 141.829 293.504 141.86 288.871 132.717C283.888 122.881 276.417 116.614 266.069 113.588C259.054 111.537 251.929 111.651 244.805 113.929ZM248.439 336.875C243.549 338.146 235.05 343.153 232.363 346.347C231.003 347.963 228.684 351.583 227.21 354.393C224.918 358.759 224.527 360.734 224.515 368C224.502 375.792 224.786 377.025 227.918 382.801C231.725 389.823 234.866 392.853 242.394 396.765C246.749 399.028 248.752 399.419 256.001 399.419C263.293 399.419 265.243 399.034 269.718 396.71C276.343 393.268 281.269 388.342 284.711 381.717C287.035 377.242 287.42 375.292 287.42 368C287.42 360.751 287.029 358.748 284.766 354.393C280.869 346.894 277.815 343.713 271.053 340.109C264.592 336.665 254.695 335.249 248.439 336.875Z" fill="#EF1A1A"/>
</svg>
