<svg width="28" height="28" viewBox="0 0 28 28" fill="none" xmlns="http://www.w3.org/2000/svg">
<path fill-rule="evenodd" clip-rule="evenodd" d="M4.63323 23.7071C3.66228 23.6329 3.42811 22.9342 3.51759 22.1288C4.04875 17.3769 9.37755 18.7534 11.5194 16.8248C12.5874 19.9661 17.05 20.0822 18.0514 16.8248C18.2817 17.0323 18.6016 17.2075 18.9785 17.3617C18.6339 17.5711 18.3084 17.8243 18.0095 18.1232C16.4998 19.631 16.1285 21.849 16.8938 23.7071H4.63323ZM11.4908 13.674C11.8963 14.3156 12.3209 14.9743 12.8463 15.4579C13.3527 15.9205 13.9696 16.2365 14.7806 16.2384C15.664 16.2403 16.3056 15.9148 16.8291 15.4236C17.3736 14.9153 17.802 14.2166 18.2265 13.5198L19.365 11.6464C19.5763 11.1609 19.6544 10.8373 19.6049 10.6469C19.5744 10.5346 19.4507 10.4794 19.2394 10.4698C19.1956 10.4679 19.148 10.4679 19.1023 10.4679C19.0528 10.4698 18.9995 10.4736 18.9424 10.4775C18.91 10.4794 18.8833 10.4775 18.8548 10.4717C18.7558 10.4775 18.6492 10.4698 18.5445 10.4546L18.9328 8.72974C16.0409 9.18475 13.8782 7.03914 10.8245 8.30138L11.0453 10.3328C10.9254 10.3404 10.8073 10.3347 10.6988 10.3194C8.94539 10.3765 11.1462 13.1238 11.4908 13.674ZM19.6334 9.95199C19.9133 10.0377 20.0923 10.2147 20.1665 10.5022C20.2484 10.8201 20.1589 11.2694 19.8886 11.8825C19.8829 11.8939 19.879 11.9053 19.8714 11.9148L18.7215 13.8091C18.2779 14.5402 17.8286 15.2732 17.227 15.8329C16.6064 16.4155 15.8372 16.8039 14.7882 16.8C13.8097 16.7981 13.071 16.425 12.4656 15.8691C11.7345 15.1989 8.36853 10.9839 9.87255 9.96913C9.9468 9.92153 10.0287 9.87775 10.1162 9.84538C10.0496 8.97343 10.0268 7.87683 10.0686 6.95728C10.0915 6.74024 10.1334 6.52321 10.1924 6.30427C10.4494 5.38091 11.0986 4.63842 11.8982 4.1282C12.3399 3.84643 12.8254 3.63511 13.328 3.49423C13.6478 3.40284 13.0557 2.37668 13.3851 2.34622C14.9862 2.18059 17.583 3.64463 18.7025 4.85736C19.2603 5.46278 19.6163 6.2681 19.6925 7.33233L19.6334 9.95199Z" fill="black"/>
<path fill-rule="evenodd" clip-rule="evenodd" d="M21.6479 17.691C23.8677 17.691 25.6668 19.4901 25.6668 21.71C25.6668 23.9299 23.8677 25.729 21.6479 25.729C19.428 25.729 17.6289 23.9299 17.6289 21.71C17.6289 19.4901 19.428 17.691 21.6479 17.691ZM20.2105 21.4054C20.5113 21.5786 20.7074 21.7233 20.9397 21.9803C21.5432 21.0075 22.2 20.4687 23.0529 19.7015L23.1367 19.6691H24.0714C22.8187 21.0589 21.8478 22.2069 20.9796 23.8823C20.5265 22.9151 20.1229 22.2469 19.2224 21.6281L20.2105 21.4054Z" fill="black"/>
</svg>
