<svg width="24" height="24" viewBox="0 0 24 24" fill="none" xmlns="http://www.w3.org/2000/svg">
<path d="M3.70703 20.4313H20.768" stroke="#ADAFAF" stroke-width="1.6" stroke-linecap="round" stroke-linejoin="round"/>
<path d="M7.97321 12.6479H6.26711C5.79599 12.6479 5.41406 13.0835 5.41406 13.6209V19.4584C5.41406 19.9957 5.79599 20.4313 6.26711 20.4313H7.97321C8.44434 20.4313 8.82626 19.9957 8.82626 19.4584V13.6209C8.82626 13.0835 8.44434 12.6479 7.97321 12.6479Z" stroke="#ADAFAF" stroke-width="1.6" stroke-linejoin="round"/>
<path d="M6.79688 16.302H7.75581" stroke="#ADAFAF" stroke-width="1.6" stroke-linecap="square" stroke-linejoin="round"/>
<path d="M18.2078 1.94586H9.67727C9.20614 1.94586 8.82422 2.38145 8.82422 2.91878V19.4584C8.82422 19.9957 9.20614 20.4313 9.67727 20.4313H18.2078C18.6789 20.4313 19.0608 19.9957 19.0608 19.4584V2.91878C19.0608 2.38145 18.6789 1.94586 18.2078 1.94586Z" stroke="#ADAFAF" stroke-width="1.6" stroke-linejoin="round"/>
<path d="M11.3828 4.86456H13.0889V6.8104H11.3828V4.86456ZM14.795 4.86456H16.5011V6.8104H14.795V4.86456ZM11.3828 8.26977H13.0889V10.2156H11.3828V8.26977ZM14.795 8.26977H16.5011V10.2156H14.795V8.26977ZM14.795 11.675H16.5011V13.6208H14.795V11.675ZM14.795 15.0802H16.5011V17.026H14.795V15.0802Z" fill="#ADAFAF"/>
</svg>
