<svg width="28" height="28" viewBox="0 0 28 28" fill="none" xmlns="http://www.w3.org/2000/svg">
<path d="M7.84697 5.09183V7.84881H5.08999H2.33301V16.7577V25.6667H11.2647H20.1964V20.0114V14.3562L19.9139 14.6159C18.4875 15.9056 17.681 16.5663 16.8334 17.1269C15.5847 17.9562 14.5184 18.3208 13.8349 18.1522L13.6161 18.0975L12.9781 18.7355L12.3356 19.378L11.8662 18.9132L11.4014 18.4438L12.0212 17.8241C12.6273 17.2134 12.6364 17.2043 12.5817 17.0722C12.5133 16.899 12.5133 16.3111 12.5817 16.0514C12.887 14.9395 13.9351 13.3673 15.7078 11.3577C16.3822 10.5967 19.2076 7.76223 19.7954 7.2564L20.1964 6.91463V4.62246V2.33485H14.0217H7.84697V5.09183ZM11.9938 9.89946V10.583H8.5533H5.11277V9.89946V9.21591H8.5533H11.9938V9.89946ZM9.21407 12.6337V13.3172H7.16342H5.11277V12.6337V11.9501H7.16342H9.21407V12.6337ZM9.21407 15.3679V16.0514H7.16342H5.11277V15.3679V14.6843H7.16342H9.21407V15.3679ZM7.82874 18.9907C8.22976 19.2276 8.46672 19.6742 8.62621 20.4899C8.67634 20.7405 8.72191 20.9502 8.73103 20.9593C8.74014 20.9684 8.82672 20.8681 8.92242 20.736C9.01812 20.6038 9.2004 20.4352 9.32343 20.3578C9.5285 20.2347 9.58318 20.221 9.93863 20.221C10.2667 20.221 10.367 20.2393 10.5538 20.335C10.9776 20.5537 11.4151 21.0185 11.7386 21.6155L11.9027 21.9117L11.3057 22.176C10.9776 22.3218 10.7042 22.4312 10.6951 22.4221C10.6905 22.413 10.6541 22.3446 10.6131 22.2717C10.5083 22.0666 10.1346 21.579 10.0617 21.5517C10.0161 21.5335 9.9523 21.6155 9.8566 21.816C9.5604 22.4494 9.26419 22.7456 8.83128 22.8459C8.31634 22.9598 7.81963 22.6636 7.61912 22.1259C7.56444 21.9846 7.46418 21.5152 7.39127 21.0778C7.22266 20.098 7.18165 20.0023 7.00848 20.1937C6.81709 20.4033 6.47987 21.5836 6.47987 22.0393C6.47987 22.1988 6.47531 22.2033 6.30671 22.2033C6.20645 22.2033 5.91025 22.1897 5.64594 22.1714L5.15834 22.1441V21.98C5.15834 21.8889 5.19024 21.6383 5.2267 21.415C5.44543 20.1709 5.91936 19.2778 6.53 18.9679C6.9219 18.7674 7.46418 18.7765 7.82874 18.9907Z" fill="#151515"/>
<path d="M4.56596 4.59057L2.6748 6.48172H4.57963H6.47989V4.59057C6.47989 3.55157 6.47534 2.69942 6.46622 2.69942C6.46167 2.69942 5.60495 3.55157 4.56596 4.59057Z" fill="#151515"/>
<path d="M25.1406 5.11462C24.2474 5.28778 21.937 6.98754 19.818 9.02907L19.2803 9.55313L20.2509 10.5238L21.2216 11.499L21.7638 10.9385C23.5228 9.12021 25.136 7.00577 25.5553 5.98044C25.6737 5.67968 25.7056 5.24677 25.6099 5.17386C25.5142 5.10094 25.3365 5.07816 25.1406 5.11462Z" fill="#151515"/>
<path d="M17.7484 11.098C16.0031 12.9891 14.7317 14.575 14.1849 15.5547C13.998 15.8874 13.8613 16.2975 13.8613 16.5162C13.8613 16.6484 13.8932 16.7259 13.9798 16.8124C14.0846 16.9173 14.1211 16.9264 14.3489 16.9036C14.8092 16.8535 15.7297 16.334 16.7322 15.5547C17.63 14.8575 19.1292 13.5633 19.9358 12.7795L20.2912 12.4332L19.3206 11.4625C18.7874 10.9294 18.3409 10.4919 18.3272 10.4964C18.3135 10.4964 18.0538 10.7699 17.7484 11.098Z" fill="#151515"/>
</svg>
