<svg width="28" height="28" viewBox="0 0 28 28" fill="none" xmlns="http://www.w3.org/2000/svg">
<path d="M2.68926 2.43228C2.6002 2.48671 2.48639 2.60051 2.43197 2.68957C2.33796 2.84791 2.33301 2.94687 2.33301 5.49999C2.33301 8.05311 2.33796 8.15207 2.43197 8.31041C2.5804 8.54791 2.80306 8.66666 3.12467 8.66666C3.44629 8.66666 3.66895 8.54791 3.81738 8.31041C3.91139 8.15207 3.91634 8.05311 3.91634 6.02942V3.91666H5.24238C6.47441 3.91666 6.57337 3.91171 6.72676 3.8177C6.96426 3.66926 7.08301 3.4466 7.08301 3.12499C7.08301 2.80338 6.96426 2.58072 6.72676 2.43228C6.57337 2.33827 6.47441 2.33332 4.70801 2.33332C2.9416 2.33332 2.84264 2.33827 2.68926 2.43228Z" fill="#151515"/>
<path d="M20.1062 2.43228C19.8687 2.58072 19.75 2.80338 19.75 3.12499C19.75 3.4466 19.8687 3.66926 20.1062 3.8177C20.2596 3.91171 20.3586 3.91666 21.5956 3.91666H22.9167V6.02942C22.9167 8.05311 22.9216 8.15207 23.0156 8.31041C23.1641 8.54791 23.3867 8.66666 23.7083 8.66666C24.0299 8.66666 24.2526 8.54791 24.401 8.31041C24.4951 8.15207 24.5 8.05311 24.5 5.49999C24.5 2.94687 24.4951 2.84791 24.401 2.68957C24.3466 2.60051 24.2328 2.48671 24.1437 2.43228C23.9904 2.33827 23.8914 2.33332 22.125 2.33332C20.3586 2.33332 20.2596 2.33827 20.1062 2.43228Z" fill="#151515"/>
<path d="M7.43926 5.59897C7.3502 5.6534 7.23639 5.7672 7.18197 5.85626C7.08301 6.01954 7.08301 6.12345 7.08301 13.4167C7.08301 20.7099 7.08301 20.8138 7.18197 20.9771C7.23639 21.0662 7.3502 21.18 7.43926 21.2344C7.59759 21.3333 7.7015 21.3333 13.4163 21.3333C19.1312 21.3333 19.2351 21.3333 19.3934 21.2344C19.4825 21.18 19.5963 21.0662 19.6507 20.9771C19.7497 20.8188 19.7497 20.7149 19.7497 15.0099C19.7497 10.8685 19.7348 9.17136 19.6952 9.09715C19.6161 8.94376 16.3406 5.65834 16.1773 5.56928C16.0635 5.50991 15.3955 5.50001 11.8231 5.50001C7.69655 5.50001 7.59759 5.50496 7.43926 5.59897ZM15.915 9.52761C16.2169 9.65626 16.2169 10.0521 15.915 10.1807C15.6627 10.2846 11.17 10.2846 10.9176 10.1807C10.6208 10.057 10.6158 9.65626 10.9077 9.53256C11.1452 9.42866 15.6676 9.42371 15.915 9.52761ZM15.915 11.9026C16.2169 12.0313 16.2169 12.4271 15.915 12.5557C15.6627 12.6596 11.17 12.6596 10.9176 12.5557C10.6208 12.432 10.6158 12.0313 10.9077 11.9076C11.1452 11.8037 15.6676 11.7987 15.915 11.9026ZM15.915 14.2776C16.2169 14.4063 16.2169 14.8021 15.915 14.9307C15.6627 15.0346 11.17 15.0346 10.9176 14.9307C10.6208 14.807 10.6158 14.4063 10.9077 14.2826C11.1452 14.1787 15.6676 14.1737 15.915 14.2776ZM15.915 16.6526C16.2169 16.7813 16.2169 17.1771 15.915 17.3057C15.6627 17.4096 11.17 17.4096 10.9176 17.3057C10.6208 17.182 10.6158 16.7813 10.9077 16.6576C11.1452 16.5537 15.6676 16.5487 15.915 16.6526Z" fill="#151515"/>
<path d="M2.68926 18.2656C2.6002 18.3201 2.48639 18.4339 2.43197 18.5229C2.33796 18.6813 2.33301 18.7802 2.33301 21.3333C2.33301 23.8865 2.33796 23.9854 2.43197 24.1438C2.48639 24.2328 2.6002 24.3466 2.68926 24.401C2.84264 24.4951 2.9416 24.5 4.70801 24.5C6.47441 24.5 6.57337 24.4951 6.72676 24.401C6.96426 24.2526 7.08301 24.0299 7.08301 23.7083C7.08301 23.3867 6.96426 23.1641 6.72676 23.0156C6.57337 22.9216 6.47441 22.9167 5.24238 22.9167H3.91634V20.799C3.91634 18.7802 3.91139 18.6813 3.81738 18.5229C3.76296 18.4339 3.64915 18.3201 3.56009 18.2656C3.33743 18.132 2.91191 18.132 2.68926 18.2656Z" fill="#151515"/>
<path d="M23.2729 18.2656C23.1839 18.3201 23.0701 18.4339 23.0156 18.5229C22.9216 18.6813 22.9167 18.7802 22.9167 20.799V22.9167H21.5956C20.3586 22.9167 20.2596 22.9216 20.1062 23.0156C19.8687 23.1641 19.75 23.3867 19.75 23.7083C19.75 24.0299 19.8687 24.2526 20.1062 24.401C20.2596 24.4951 20.3586 24.5 22.125 24.5C23.8914 24.5 23.9904 24.4951 24.1437 24.401C24.2328 24.3466 24.3466 24.2328 24.401 24.1438C24.4951 23.9854 24.5 23.8865 24.5 21.3333C24.5 18.7802 24.4951 18.6813 24.401 18.5229C24.3466 18.4339 24.2328 18.3201 24.1437 18.2656C23.9211 18.132 23.4956 18.132 23.2729 18.2656Z" fill="#151515"/>
</svg>
