<svg width="28" height="28" viewBox="0 0 28 28" fill="none" xmlns="http://www.w3.org/2000/svg">
<path d="M7.71834 3.59164C7.46401 3.75982 7.4353 3.87468 7.4353 4.71561V5.46629H5.69191C3.80494 5.46629 3.83366 5.46219 3.62035 5.69191L3.5178 5.80266L3.50549 14.9339C3.49319 23.495 3.49729 24.0775 3.56292 24.2046C3.60394 24.2785 3.69419 24.3728 3.76392 24.418C3.89519 24.5 3.98954 24.5 8.85462 24.5H13.814L13.5884 24.3482C13.0921 24.0201 12.3332 23.3145 11.9312 22.8181C11.0615 21.7434 10.4996 20.4635 10.2821 19.0852C10.196 18.5109 10.196 17.4034 10.2863 16.8291C10.5488 15.139 11.2872 13.6828 12.485 12.485C13.6828 11.2872 15.139 10.5488 16.8291 10.2863C17.4034 10.196 18.5109 10.196 19.0852 10.2821C20.4635 10.4996 21.7434 11.0615 22.8181 11.9312C23.3145 12.3332 24.0201 13.0921 24.3523 13.5884L24.5 13.814L24.4918 9.80631L24.4795 5.80266L24.3769 5.69191C24.1636 5.46219 24.1923 5.46629 22.3054 5.46629H20.562V4.71561C20.562 4.08799 20.5497 3.94852 20.4882 3.82545C20.2666 3.38243 19.6021 3.38243 19.3683 3.82545C19.2985 3.94852 19.2903 4.06748 19.2903 4.71561V5.46629H17.9613H16.6322L16.6158 4.6951C16.6035 3.84186 16.5748 3.73111 16.3245 3.57523C16.1317 3.45627 15.7256 3.48088 15.5738 3.62035C15.3687 3.81725 15.3523 3.88699 15.3523 4.70741V5.46629H13.9986H12.645V4.70741C12.645 3.88699 12.6285 3.81725 12.4234 3.62035C12.2717 3.48088 11.8656 3.45627 11.6728 3.57523C11.4225 3.73111 11.3938 3.84186 11.3815 4.6951L11.3651 5.46629H10.036H8.70694V4.71561C8.70694 3.87878 8.67823 3.76803 8.4198 3.58753C8.2311 3.46037 7.91114 3.46037 7.71834 3.59164Z" fill="#151515"/>
<path d="M17.4443 11.4143C16.6526 11.4759 15.9799 11.6481 15.2333 11.9845C13.2561 12.8706 11.8286 14.7411 11.4717 16.9029C11.3937 17.3829 11.3855 18.4002 11.4553 18.8596C11.8696 21.6326 13.8796 23.7903 16.6034 24.3769C17.2351 24.5164 18.3714 24.5369 19.0318 24.4221C20.3937 24.1923 21.6162 23.5606 22.5883 22.5884C23.5605 21.6162 24.1923 20.3938 24.422 19.0319C24.5368 18.3715 24.5163 17.2352 24.3769 16.6035C23.8477 14.1422 21.9853 12.2019 19.5774 11.5989C18.8801 11.4266 18.1417 11.361 17.4443 11.4143ZM18.9785 12.7721C19.9138 12.9567 20.6973 13.3464 21.4316 13.9863C23.0806 15.418 23.6713 17.7562 22.9042 19.8072C22.3217 21.3619 20.9557 22.6089 19.3559 23.052C18.4493 23.3022 17.3049 23.2899 16.4311 23.0191C14.6303 22.4613 13.2356 20.9804 12.8131 19.1673C12.5218 17.9367 12.69 16.5871 13.2643 15.5246C14.4047 13.3997 16.6567 12.3168 18.9785 12.7721Z" fill="#151515"/>
<path d="M17.6043 15.4467C17.3336 15.6272 17.3213 15.6887 17.3213 16.9686C17.3213 18.0679 17.3254 18.1171 17.4115 18.2689C17.469 18.3715 17.5633 18.4576 17.67 18.5109C17.8258 18.5848 17.9243 18.593 18.9416 18.593C19.9589 18.593 20.0574 18.5848 20.2133 18.5109C20.6686 18.2894 20.6727 17.6044 20.2174 17.387C20.1066 17.3336 19.9343 17.3213 19.3354 17.3213H18.5929V16.5912C18.5929 15.9143 18.5847 15.8487 18.5027 15.6805C18.3345 15.3605 17.9038 15.2457 17.6043 15.4467Z" fill="#151515"/>
</svg>
