<svg width="24" height="24" viewBox="0 0 24 24" fill="none" xmlns="http://www.w3.org/2000/svg">
<path fill-rule="evenodd" clip-rule="evenodd" d="M20.5397 5.23006L19.1497 3.55006C18.8797 3.21006 18.4697 3.00006 17.9997 3.00006H5.99974C5.52974 3.00006 5.11974 3.21006 4.83974 3.55006L3.45974 5.23006C3.16974 5.57006 2.99974 6.02006 2.99974 6.50006V19.0001C2.99974 20.1001 3.89974 21.0001 4.99974 21.0001H18.9997C20.0997 21.0001 20.9997 20.1001 20.9997 19.0001V6.50006C20.9997 6.02006 20.8297 5.57006 20.5397 5.23006ZM11.9993 17.5001L6.49933 12.0001H9.99933V10.0001H13.9993V12.0001H17.4993L11.9993 17.5001ZM5.92983 3.99996L5.11983 7.59997H18.8698L17.9298 3.99996H5.92983Z" fill="black"/>
</svg>
