<svg width="28" height="28" viewBox="0 0 28 28" fill="none" xmlns="http://www.w3.org/2000/svg">
<path d="M21.4465 3.50004V10.8381L23.73 9.32434V23.3333L4.6665 23.3332V9.55508L6.95002 11.0176V3.5L21.4465 3.50004ZM20.6769 4.26981H7.71988V11.5052L14.1856 15.6617L20.6769 11.3511V4.26981Z" fill="black"/>
<path d="M14.1188 5.55264C16.1346 5.55264 17.7723 7.17908 17.7723 9.20615C17.7723 11.233 16.1346 12.8597 14.1188 12.8597C12.103 12.8597 10.4653 11.2332 10.4653 9.20615C10.4652 7.17912 12.103 5.55264 14.1188 5.55264ZM16.3109 8.48038L15.7062 7.8548L13.6904 9.75653L12.8337 8.95569L12.2289 9.58128L13.6904 10.9825L16.3109 8.48038Z" fill="black"/>
</svg>
