<svg width="24" height="24" viewBox="0 0 24 24" fill="none" xmlns="http://www.w3.org/2000/svg">
<path d="M6.89692 12.0854C6.80136 12.0314 6.73595 11.9246 6.7237 11.8019C6.71135 11.6793 6.75363 11.5578 6.83593 11.4797L9.16544 9.24594V7.36613C9.16544 7.07512 8.99619 6.90209 8.77943 7.06722L4.14102 11.4875C4.05294 11.5544 4 11.6681 4 11.7903C4 11.9124 4.05294 12.0263 4.14102 12.0931L8.73881 16.5055C8.94875 16.6707 9.13831 16.5055 9.13831 16.2066V14.327L6.89692 12.0854Z" fill="#1776BA"/>
<path d="M13.5737 9.89076V7.36603C13.5726 7.22869 13.506 7.1036 13.4008 7.04079C13.2957 6.97812 13.1693 6.98826 13.0726 7.06713L8.37326 11.4874C8.28529 11.5543 8.23224 11.668 8.23224 11.7902C8.23224 11.9123 8.28529 12.0262 8.37326 12.093L13.0726 16.5055V16.5056C13.1693 16.5845 13.2957 16.5946 13.4008 16.5318C13.506 16.4691 13.5726 16.3439 13.5737 16.2067V13.8471C16.5126 13.8471 18.991 15.3729 19.9119 18C19.9656 17.6494 19.995 17.2943 19.9999 16.9382C19.9504 15.0147 19.246 13.1924 18.0413 11.8714C16.8365 10.5502 15.23 9.83792 13.5738 9.89085L13.5737 9.89076Z" fill="#1776BA"/>
</svg>
