<svg width="24" height="24" viewBox="0 0 24 24" fill="none" xmlns="http://www.w3.org/2000/svg">
<path d="M4.19999 19.2C3.69999 19.2 3.27519 19.0248 2.92559 18.6744C2.57519 18.3248 2.39999 17.9 2.39999 17.4V6.60002C2.39999 6.10002 2.57519 5.67522 2.92559 5.32562C3.27519 4.97522 3.69999 4.80002 4.19999 4.80002H19.8C20.3 4.80002 20.7248 4.97522 21.0744 5.32562C21.4248 5.67522 21.6 6.10002 21.6 6.60002V17.4C21.6 17.9 21.4248 18.3248 21.0744 18.6744C20.7248 19.0248 20.3 19.2 19.8 19.2H4.19999ZM12 13.2L4.19999 8.72522V17.4H19.8V8.72522L12 13.2ZM12 11.0748L19.8 6.60002H4.19999L12 11.0748ZM4.19999 8.72522V6.60002V17.4V8.72522Z" fill="#333333"/>
</svg>
