<svg width="24" height="24" viewBox="0 0 24 24" fill="none" xmlns="http://www.w3.org/2000/svg">
<path d="M5.39998 20.4C4.89998 20.4 4.47518 20.2248 4.12558 19.8744C3.77518 19.5248 3.59998 19.1 3.59998 18.6V5.40001C3.59998 4.90001 3.77518 4.47521 4.12558 4.12561C4.47518 3.77521 4.89998 3.60001 5.39998 3.60001H12V5.40001H5.39998V18.6H18.6V12H20.4V18.6C20.4 19.1 20.2248 19.5248 19.8744 19.8744C19.5248 20.2248 19.1 20.4 18.6 20.4H5.39998ZM9.67438 15.6L8.39998 14.3256L17.3256 5.40001H14.4V3.60001H20.4V9.60001H18.6V6.67441L9.67438 15.6Z" fill="#333333"/>
</svg>
