<svg width="24" height="24" viewBox="0 0 24 24" fill="none" xmlns="http://www.w3.org/2000/svg">
<path d="M4 16.9999C4 16.9999 5.57621 9.12193 12.8204 9.09276V6.46689C12.8204 6.20434 13.0327 6 13.275 6C13.3961 6 13.4872 6.0291 13.5782 6.08752L19.7009 10.5225C20.0343 10.756 20.095 11.2229 19.8525 11.5439C19.8223 11.6023 19.7616 11.6605 19.7009 11.6898L13.5479 16.1248C13.3356 16.2708 13.0628 16.2414 12.881 16.0373C12.8203 15.9498 12.7901 15.8623 12.7901 15.7748V13.1489C8.88014 13.1194 6.09145 13.4694 4.00002 17L4 16.9999Z" fill="#1776BA"/>
</svg>
