<svg width="28" height="28" viewBox="0 0 28 28" fill="none" xmlns="http://www.w3.org/2000/svg">
<path d="M6.57296 7.22922C5.47204 7.22922 4.58447 8.12061 4.58447 9.29685C4.58447 10.4741 5.47222 11.366 6.57296 11.366C7.67445 11.366 8.56145 10.474 8.56145 9.29685C8.56145 8.12042 7.67445 7.22922 6.57296 7.22922Z" fill="black"/>
<path d="M5.30851 11.7897C4.38466 12.0471 3.67883 12.8006 3.68067 14.6127C3.68067 14.7494 3.69908 14.8793 3.75044 14.9987C4.22873 14.5843 4.84548 14.3374 5.52265 14.3374C6.52728 14.3374 7.40123 14.8794 7.87772 15.714C8.27188 15.6441 8.64397 15.5437 8.97572 15.4104C9.42033 15.2309 9.49618 14.9286 9.49618 14.6126C9.49802 12.8006 8.79233 12.0473 7.86942 11.7897C7.54853 11.8787 6.80512 12.0728 6.58822 12.0728C6.37116 12.0728 5.62813 11.8787 5.30853 11.7897L5.30851 11.7897Z" fill="black"/>
<path d="M5.5227 14.9097C4.30834 14.9097 3.33057 15.8935 3.33057 17.1908C3.33057 18.4893 4.30834 19.473 5.5227 19.473C6.73834 19.473 7.71593 18.4893 7.71593 17.1908C7.71574 15.8939 6.73797 14.9097 5.5227 14.9097Z" fill="black"/>
<path d="M21.427 7.22922C22.5266 7.22922 23.4138 8.12061 23.4138 9.29685C23.4138 10.4741 22.5268 11.366 21.427 11.366C20.3255 11.366 19.4385 10.474 19.4385 9.29685C19.4383 8.12042 20.3255 7.22922 21.427 7.22922Z" fill="black"/>
<path d="M20.1304 11.7897C19.206 12.0471 18.5001 12.8006 18.502 14.6126C18.502 14.9287 18.58 15.2308 19.0243 15.4104C19.3542 15.5441 19.7281 15.6441 20.1223 15.714C20.5987 14.8793 21.4726 14.3374 22.4773 14.3374C23.1545 14.3374 23.7712 14.5839 24.2495 14.9987C24.3011 14.8793 24.3193 14.7494 24.3193 14.6127C24.3211 12.8006 23.6155 12.0473 22.6915 11.7897C22.3719 11.8788 21.6284 12.0728 21.4114 12.0728C21.1943 12.0728 20.4495 11.8788 20.1304 11.7897L20.1304 11.7897Z" fill="black"/>
<path d="M22.4763 14.9097C23.6907 14.9097 24.6695 15.8935 24.6695 17.1908C24.6695 18.4893 23.6906 19.473 22.4763 19.473C21.262 19.473 20.2842 18.4893 20.2842 17.1908C20.2845 15.8939 21.2623 14.9097 22.4763 14.9097Z" fill="black"/>
<path d="M4.12795 19.9406C3.10894 20.225 2.33185 21.0563 2.3335 23.054C2.3335 23.4034 2.42353 23.7216 2.9092 23.9342C4.3069 24.5494 6.64651 24.5494 8.17227 23.9342C8.66252 23.7356 8.74854 23.4032 8.74854 23.054C8.74964 21.0561 7.97088 20.2248 6.95352 19.9406C6.60078 20.0392 5.77931 20.2534 5.54125 20.2534C5.301 20.2534 4.48082 20.0392 4.1279 19.9406H4.12795Z" fill="black"/>
<path d="M23.8725 19.9406C24.8916 20.225 25.6686 21.0563 25.667 23.054C25.667 23.4034 25.577 23.7216 25.0913 23.9342C23.6921 24.5494 21.354 24.5494 19.8282 23.9342C19.338 23.7356 19.252 23.4032 19.252 23.054C19.2508 21.0561 20.028 20.2248 21.047 19.9406C21.3997 20.0392 22.2201 20.2534 22.4592 20.2534C22.6997 20.2534 23.5199 20.0392 23.8726 19.9406H23.8725Z" fill="black"/>
<path fill-rule="evenodd" clip-rule="evenodd" d="M11.357 12.0457H16.3391C16.6066 12.0457 16.7852 12.2972 16.8204 12.6035L18.1233 23.9421C18.1583 24.2473 17.9081 24.5 17.6406 24.5H10.0545C9.78696 24.5 9.53768 24.2473 9.57322 23.9421L10.8746 12.6035C10.9096 12.2972 11.09 12.0457 11.3568 12.0457H11.357Z" fill="black"/>
<path fill-rule="evenodd" clip-rule="evenodd" d="M10.5687 3.96401C10.1716 3.96401 9.85107 4.29754 9.85107 4.71093V9.27532C9.85107 9.68854 10.172 10.0222 10.5687 10.0222H13.1961V10.3991C12.7975 10.3991 12.472 10.8201 12.472 11.1299V11.3826C12.472 11.4588 12.5116 11.4939 12.5773 11.4939H15.1187C15.1846 11.4939 15.224 11.4588 15.224 11.3826V11.1299C15.224 10.8201 14.8987 10.3991 14.4988 10.3991V10.0222H17.1273C17.5244 10.0222 17.8436 9.68832 17.8436 9.27532V4.71113C17.8436 4.29771 17.524 3.96421 17.1273 3.96421H16.1285C15.7728 3.96421 15.7728 4.59048 16.1285 4.59048H16.7427C17.0286 4.59048 17.0468 4.77477 17.0468 5.00217V8.66888C17.0468 8.89781 16.816 9.08172 16.529 9.08172L11.166 9.08153C10.8789 9.08153 10.6499 8.89724 10.6499 8.66869L10.6497 5.00198C10.6497 4.77439 10.6665 4.59029 10.9533 4.59029H11.5675C11.9221 4.59029 11.9221 3.96402 11.5675 3.96402L10.5687 3.96401Z" fill="black"/>
<path d="M14.7261 5.66474C15.7615 5.94271 16.261 6.3479 16.4646 7.49079C16.5197 7.79903 16.4339 7.88983 16.3271 7.93275C15.5905 8.22508 14.3808 8.32853 13.8481 8.32853C13.3133 8.32853 12.1036 8.22547 11.3692 7.93275C11.2622 7.89003 11.1751 7.79903 11.2316 7.49079C11.4334 6.34766 11.9329 5.94252 12.9683 5.66474L13.7531 6.23177C13.8174 6.28005 13.8768 6.28005 13.9411 6.23177L14.7261 5.66474Z" fill="black"/>
<path fill-rule="evenodd" clip-rule="evenodd" d="M13.2281 3.22012C13.3566 3.34713 13.5856 3.43162 13.8483 3.43162C14.1108 3.43162 14.3399 3.34713 14.4667 3.22012C14.6409 3.39196 14.7491 3.63354 14.7491 3.90191C14.7491 4.42166 14.3476 4.83926 13.8483 4.83926C13.3488 4.83926 12.9457 4.42144 12.9457 3.90191C12.9457 3.63352 13.0558 3.39197 13.2281 3.22012H13.2281ZM13.8483 2.33334C13.0233 2.33334 12.3574 3.00095 12.3574 3.88318C12.3574 4.7654 13.0233 5.43282 13.8483 5.43282C14.6733 5.43282 15.3375 4.7654 15.3375 3.88318C15.3375 3.00252 14.6733 2.33334 13.8483 2.33334Z" fill="black"/>
</svg>
