<svg width="21" height="24" viewBox="0 0 21 24" fill="none" xmlns="http://www.w3.org/2000/svg">
<path fill-rule="evenodd" clip-rule="evenodd" d="M6.41496 0.845071C6.06544 0.927135 5.59904 1.18348 5.33001 1.44144C4.92598 1.82883 4.70933 2.21748 4.58712 2.77411L4.55789 2.90723L3.40264 2.93342C2.51801 2.95347 2.18203 2.97975 1.96827 3.04573C1.22 3.27665 0.627383 3.8483 0.331759 4.62444L0.217367 4.92483L0.202396 12.4106C0.192651 17.2892 0.205441 20.0327 0.239139 20.2878C0.364342 21.2359 1.0105 22.0135 1.93031 22.3229C2.2337 22.4249 2.36469 22.4303 4.95643 22.448C6.44643 22.4581 7.68424 22.4477 7.70708 22.4248C7.72997 22.4019 7.64871 22.2278 7.52651 22.0379C7.3405 21.7488 7.11299 21.2676 6.97591 20.8733C6.94713 20.7905 6.79097 20.7845 4.66715 20.7845H2.3893L2.21959 20.6701C2.12626 20.6072 2.00299 20.4759 1.94564 20.3783C1.84175 20.2015 1.84139 20.1753 1.84139 12.6897C1.84139 5.20411 1.84175 5.17798 1.94564 5.00111C2.00299 4.90352 2.12626 4.77222 2.21959 4.70929C2.38443 4.59825 2.42574 4.59495 3.65919 4.59495H4.92908L5.26347 4.91778C5.44734 5.0953 5.71709 5.30105 5.86284 5.37489C6.38618 5.64006 6.58609 5.65915 8.8508 5.65996C10.0528 5.66041 11.0532 5.6389 11.2107 5.60921C11.6693 5.52278 12.1766 5.24867 12.5161 4.90387L12.8202 4.59495H14.0859C15.3149 4.59495 15.3565 4.59825 15.5239 4.70955C15.6188 4.77258 15.7477 4.92585 15.8106 5.05019L15.9248 5.27623V9.52854V13.7809H16.7368H17.5488L17.5479 9.5051C17.547 4.79917 17.548 4.81719 17.2379 4.23538C17.0118 3.81121 16.6006 3.4154 16.1604 3.19834C15.7132 2.97772 15.2869 2.92109 14.0698 2.92058L13.2046 2.92017L13.0962 2.55223C12.8459 1.70246 12.2167 1.08416 11.3808 0.866438C11.1327 0.801832 10.7034 0.789499 8.84704 0.793711C7.61775 0.796553 6.52331 0.819645 6.41496 0.845071ZM6.58492 2.5265C6.32584 2.70108 6.18059 2.94641 6.18059 3.20935C6.18059 3.49102 6.28164 3.68798 6.51915 3.86911L6.70556 4.01132H8.87536C10.9975 4.01132 11.0484 4.00898 11.1885 3.90514C11.2673 3.84673 11.3832 3.72346 11.446 3.63119C11.6639 3.31111 11.5538 2.79274 11.2142 2.53954C11.0838 2.4423 10.987 2.43743 8.91825 2.42383L6.75844 2.40957L6.58492 2.5265ZM11.6109 14.8802C9.75589 15.1227 8.24671 16.5235 7.87821 18.3451C7.81218 18.6716 7.79838 18.9184 7.81995 19.3855C7.85349 20.1103 7.93683 20.4469 8.23687 21.0693C8.90845 22.4623 10.2667 23.3825 11.8258 23.5007C12.2019 23.5292 12.2686 23.5203 12.4707 23.4145C12.7997 23.2425 12.9051 23.0723 12.9051 22.713C12.9051 22.4911 12.8782 22.3797 12.7989 22.2726C12.6287 22.0429 12.3813 21.9011 12.149 21.9001C11.4469 21.8971 10.731 21.5892 10.2143 21.0678C9.67961 20.5282 9.42865 19.9271 9.42865 19.1858C9.42865 17.7633 10.5296 16.5977 11.9788 16.4859C12.265 16.4639 12.4253 16.4244 12.5366 16.3486C13.0299 16.0127 13.0574 15.3693 12.5937 15.0156C12.4606 14.914 12.3542 14.8826 12.106 14.8713C11.9314 14.8635 11.7086 14.8674 11.6109 14.8802ZM16.1531 14.9151C15.8029 15.0793 15.5726 15.5188 15.6661 15.8447C15.791 16.2799 15.9862 16.4163 16.5759 16.4803C17.6899 16.6012 18.4675 17.1381 18.9147 18.0954C19.5142 19.3784 18.9492 20.9658 17.6687 21.5961C17.3313 21.7622 16.7913 21.8987 16.4653 21.9001C15.9314 21.9025 15.5372 22.4119 15.6734 22.9232C15.7373 23.1629 16.0613 23.4572 16.3133 23.5045C16.5584 23.5504 17.2883 23.4536 17.7349 23.3158C19.1689 22.8735 20.2523 21.7347 20.6505 20.2516C20.8043 19.6784 20.8044 18.6935 20.6505 18.1201C20.2488 16.6221 19.1122 15.4567 17.6359 15.0289C17.0836 14.8688 16.369 14.814 16.1531 14.9151ZM12.2262 18.3977C11.5326 18.5679 11.3694 19.4575 11.9588 19.8548C12.1992 20.0168 12.4543 20.0327 14.5291 20.0144C16.3984 19.9979 16.4078 19.9973 16.5988 19.8785C16.8243 19.7383 16.9905 19.4428 16.9905 19.1821C16.9905 18.9367 16.8091 18.624 16.5864 18.4855C16.41 18.3758 16.3717 18.3737 14.4022 18.3647C13.2997 18.3598 12.3204 18.3746 12.2262 18.3977Z" fill="#1776BA"/>
</svg>
