<svg width="28" height="28" viewBox="0 0 28 28" fill="none" xmlns="http://www.w3.org/2000/svg">
<path d="M12.4997 2.08749C9.90444 2.48276 7.6672 3.7719 6.32485 5.64497C4.82984 7.72915 4.58769 10.2805 5.66157 12.5668C5.93004 13.1327 13.4209 24.7305 13.6262 24.8922C13.8052 25.0359 14.1947 25.0359 14.3737 24.8922C14.579 24.7305 22.0751 13.1238 22.3383 12.5623C24.1018 8.81167 22.233 4.59389 18.0112 2.7882C17.1952 2.43785 16.2951 2.19529 15.3581 2.06503C14.6474 1.9707 13.1945 1.97969 12.4997 2.08749ZM15.2949 6.03126C16.0477 6.23339 16.5635 6.5029 17.1479 6.99699C17.7427 7.49109 18.127 8.07951 18.3481 8.82514C18.4849 9.29678 18.4744 10.1053 18.3218 10.5949C17.8796 12.0008 16.553 13.0878 14.9054 13.3888C14.4526 13.4696 13.5472 13.4696 13.0945 13.3888C11.4468 13.0878 10.1203 12.0008 9.67809 10.5949C9.52543 10.1053 9.5149 9.29678 9.65177 8.82514C10.0624 7.45066 11.2047 6.41306 12.7365 6.02228C13.3366 5.86956 13.3998 5.86507 14.1578 5.88303C14.7106 5.89651 14.8948 5.91897 15.2949 6.03126Z" fill="black"/>
</svg>
