<svg width="28" height="28" viewBox="0 0 28 28" fill="none" xmlns="http://www.w3.org/2000/svg">
<path d="M6.22222 25H21.7778C22.3671 25 22.9324 24.7682 23.3491 24.3556C23.7659 23.9431 24 23.3835 24 22.8V12.9C24 12.3165 23.7659 11.7569 23.3491 11.3444C22.9324 10.9318 22.3671 10.7 21.7778 10.7H19.5556V8.5C19.5556 7.04131 18.9702 5.64236 17.9284 4.61091C16.8865 3.57946 15.4734 3 14 3C12.5266 3 11.1135 3.57946 10.0716 4.61091C9.02976 5.64236 8.44444 7.04131 8.44444 8.5V10.7H6.22222C5.63285 10.7 5.06762 10.9318 4.65087 11.3444C4.23413 11.7569 4 12.3165 4 12.9V22.8C4 23.3835 4.23413 23.9431 4.65087 24.3556C5.06762 24.7682 5.63285 25 6.22222 25ZM14 20.05C13.5605 20.05 13.1308 19.921 12.7654 19.6792C12.4 19.4375 12.1151 19.0939 11.9469 18.6919C11.7787 18.2899 11.7347 17.8476 11.8205 17.4208C11.9062 16.994 12.1179 16.602 12.4287 16.2944C12.7394 15.9867 13.1354 15.7772 13.5665 15.6923C13.9975 15.6074 14.4443 15.651 14.8504 15.8175C15.2565 15.984 15.6035 16.266 15.8477 16.6277C16.0919 16.9895 16.2222 17.4149 16.2222 17.85C16.2222 18.4335 15.9881 18.9931 15.5713 19.4056C15.1546 19.8182 14.5894 20.05 14 20.05ZM10.6667 10.7V8.5C10.6667 7.62479 11.0179 6.78542 11.643 6.16655C12.2681 5.54768 13.1159 5.2 14 5.2C14.8841 5.2 15.7319 5.54768 16.357 6.16655C16.9821 6.78542 17.3333 7.62479 17.3333 8.5V10.7H10.6667Z" fill="black"/>
</svg>
