<svg width="28" height="28" viewBox="0 0 28 28" fill="none" xmlns="http://www.w3.org/2000/svg">
<path fill-rule="evenodd" clip-rule="evenodd" d="M19.4359 20.1434C16.5082 23.7597 11.3051 24.8129 7.14798 22.4127C2.54419 19.7547 0.96659 13.8677 3.62467 9.26389C5.59891 5.84434 9.35433 4.09463 13.0423 4.50965C13.2682 4.29316 13.5254 4.09739 13.8127 3.92774L14.5372 3.5L14.9507 4.23251L15.4409 5.1009C15.894 5.27721 16.3395 5.49015 16.7735 5.74084C17.6019 6.21895 18.3323 6.80184 18.9577 7.46283L20.5479 4.64604C20.5532 4.63696 20.5532 4.63696 20.5584 4.62787C20.9147 4.02027 21.696 3.81672 22.3036 4.17287C22.577 4.33329 22.7699 4.57903 22.8677 4.85682C23.1525 4.80884 23.455 4.85697 23.7236 5.01454C23.9679 5.15778 24.1478 5.36916 24.2531 5.61047C24.514 5.58336 24.7854 5.63631 25.0291 5.77912C25.6367 6.13544 25.8462 6.9131 25.4999 7.52637L23.7154 10.6875C23.2314 11.5447 22.3161 12.0293 21.3798 12.0043L21.3665 12.0306C21.6292 13.237 21.6618 14.4957 21.445 15.736L23.132 18.7243C23.6428 19.6291 23.2803 20.781 22.3672 21.3202C21.444 21.8652 20.2605 21.6046 19.7432 20.688L19.4359 20.1434ZM13.7669 21.0664C13.6135 20.8891 13.4918 20.6889 13.4099 20.4773C11.8465 20.8544 10.1413 20.6553 8.63857 19.7877C5.5309 17.9935 4.46616 14.0199 6.26032 10.9123C7.46357 8.82819 9.64695 7.663 11.8919 7.66256C11.8609 7.39255 11.8594 7.12256 11.8863 6.85664C9.41991 6.88447 7.03141 8.17618 5.70857 10.4671C3.71503 13.9201 4.89796 18.3352 8.35102 20.3289C10.0572 21.3139 11.9987 21.5233 13.7667 21.0665L13.7669 21.0664ZM9.50875 17.9404C9.61692 18.0029 9.75519 17.9658 9.81765 17.8576L9.92342 17.6744C9.98588 17.5663 9.94883 17.4281 9.84065 17.3656C8.17801 16.4057 7.60846 14.2798 8.56825 12.6172C8.63072 12.509 8.59366 12.3707 8.48549 12.3083L8.30236 12.2025C8.19419 12.14 8.05592 12.1771 7.99346 12.2853C6.85025 14.2653 7.52868 16.7971 9.50873 17.9404L9.50875 17.9404ZM19.4744 13.9232L20.9168 11.0973C21.6846 11.3429 22.5746 11.0304 22.997 10.2819L24.7817 7.1207C24.9065 6.89953 24.831 6.61915 24.612 6.49068C24.3975 6.36491 24.1216 6.43688 23.9959 6.65124C23.9946 6.65337 23.9934 6.6555 23.9922 6.65763L22.4513 9.37618C22.3714 9.51786 22.1918 9.56783 22.0503 9.4879C22.049 9.4872 22.0478 9.48649 22.0465 9.48563C21.9034 9.40202 21.854 9.21903 21.9355 9.07464L23.4763 6.35623C23.6011 6.13506 23.5256 5.85454 23.3065 5.72607C23.092 5.60029 22.8162 5.67212 22.6904 5.88662C22.6891 5.88875 22.688 5.89088 22.6867 5.89301L21.1798 8.55164C21.0826 8.7237 20.8642 8.7846 20.692 8.68735C20.6892 8.68579 20.6865 8.68423 20.6836 8.68253C20.5082 8.57719 20.4486 8.35133 20.5492 8.17301L22.0561 5.51453C22.181 5.29336 22.1055 5.01298 21.8865 4.88451C21.672 4.75874 21.3961 4.83057 21.2704 5.04507C21.2691 5.0472 21.268 5.04933 21.2667 5.05146L19.482 8.21276C19.0595 8.96119 19.2425 9.90095 19.8345 10.4583L18.6208 12.4111L18.298 11.8391L18.211 11.6851L14.2326 4.63806C12.6851 5.55173 12.2966 7.32936 13.1053 8.76177L15.8109 13.5545L16.573 13.3937L17.2571 14.6056L14.2338 19.4703C14.217 19.4968 14.201 19.5247 14.1869 19.5534C13.9788 19.9745 14.2657 20.5583 14.7594 20.821C15.2532 21.0837 15.8774 20.9849 16.0856 20.5637L18.2389 16.3444L20.462 20.2824C20.7436 20.7814 21.409 20.928 21.948 20.6097C22.4871 20.2914 22.6956 19.6289 22.4139 19.1299L19.4744 13.9232Z" fill="black"/>
</svg>
