<svg width="32" height="32" viewBox="0 0 32 32" fill="none" xmlns="http://www.w3.org/2000/svg">
<path d="M29.4155 10.1709L21.8292 2.58595C21.6435 2.40018 21.423 2.25282 21.1803 2.15228C20.9376 2.05175 20.6775 2 20.4148 2C20.1522 2 19.892 2.05175 19.6494 2.15228C19.4067 2.25282 19.1862 2.40018 19.0005 2.58595L12.2967 9.31095C10.9642 8.89345 7.92171 8.3897 4.74671 10.9534C4.52787 11.1294 4.34854 11.3495 4.22039 11.5994C4.09224 11.8493 4.01815 12.1233 4.00294 12.4037C3.98773 12.6841 4.03173 12.9646 4.1321 13.2269C4.23247 13.4891 4.38694 13.7273 4.58546 13.9259L10.6255 19.9634L5.29296 25.2922C5.10532 25.4798 4.99991 25.7343 4.99991 25.9997C4.99991 26.2651 5.10532 26.5196 5.29296 26.7072C5.4806 26.8948 5.7351 27.0003 6.00046 27.0003C6.26583 27.0003 6.52032 26.8948 6.70796 26.7072L12.0367 21.3747L18.073 27.4109C18.2585 27.5973 18.479 27.7452 18.7218 27.8462C18.9646 27.9473 19.225 27.9994 19.488 27.9997C19.5355 27.9997 19.5817 27.9997 19.6292 27.9997C19.9143 27.9799 20.1918 27.8991 20.4429 27.7625C20.6939 27.626 20.9127 27.437 21.0842 27.2084C23.5392 23.9459 23.303 21.2934 22.733 19.7084L29.4167 12.9997C29.6024 12.8139 29.7497 12.5933 29.8501 12.3506C29.9505 12.1079 30.0022 11.8477 30.002 11.5851C30.0019 11.3224 29.9501 11.0623 29.8494 10.8197C29.7488 10.577 29.6013 10.3566 29.4155 10.1709ZM28.0005 11.5859L20.8417 18.7684C20.6939 18.9168 20.5964 19.1079 20.5629 19.3147C20.5295 19.5215 20.5619 19.7335 20.6555 19.9209C21.838 22.2872 20.4305 24.7447 19.488 25.9984L6.00046 12.5097C7.51046 11.2922 8.95546 10.9709 10.0605 10.9709C10.7616 10.9614 11.457 11.0989 12.1017 11.3747C12.2898 11.4688 12.5028 11.5013 12.7104 11.4674C12.918 11.4335 13.1096 11.335 13.258 11.1859L20.4155 3.9997L28.0005 11.5847V11.5859Z" fill="#343330"/>
</svg>
