<svg width="18" height="15" viewBox="0 0 18 15" fill="none" xmlns="http://www.w3.org/2000/svg">
    <path
        d="M8.14522 10.6298C8.39199 10.4675 8.68531 10.3734 9 10.3734C9.31469 10.3734 9.60801 10.4675 9.85478 10.6298C10.3395 9.66903 11.3158 9.0126 12.4412 9.0126C13.4634 9.0126 14.3625 9.55413 14.882 10.3734H15.6176C15.91 10.3734 16.1471 10.6171 16.1471 10.9177C16.1471 11.2183 15.91 11.462 15.6176 11.462H15.3049C15.3365 11.6385 15.3529 11.8204 15.3529 12.0063C15.3529 13.6597 14.0493 15 12.4412 15C10.8331 15 9.52941 13.6597 9.52941 12.0063C9.52941 11.7057 9.29239 11.462 9 11.462C8.70761 11.462 8.47059 11.7057 8.47059 12.0063C8.47059 13.6597 7.16695 15 5.55882 15C3.9507 15 2.64706 13.6597 2.64706 12.0063C2.64706 11.8204 2.66354 11.6385 2.69508 11.462H2.38235C2.08997 11.462 1.85294 11.2183 1.85294 10.9177C1.85294 10.6171 2.08997 10.3734 2.38235 10.3734H3.11795C3.63749 9.55413 4.53665 9.0126 5.55882 9.0126C6.68423 9.0126 7.66051 9.66903 8.14522 10.6298ZM12.4412 13.9114C13.4645 13.9114 14.2941 13.0584 14.2941 12.0063C14.2941 10.9542 13.4645 10.1012 12.4412 10.1012C11.4178 10.1012 10.5882 10.9542 10.5882 12.0063C10.5882 13.0584 11.4178 13.9114 12.4412 13.9114ZM5.55882 13.9114C6.58217 13.9114 7.41177 13.0584 7.41177 12.0063C7.41177 10.9542 6.58217 10.1012 5.55882 10.1012C4.53547 10.1012 3.70588 10.9542 3.70588 12.0063C3.70588 13.0584 4.53547 13.9114 5.55882 13.9114ZM2.45501 6.83536L3.21387 1.56887C3.39304 0.325443 4.51352 -0.324061 5.63751 0.162512L7.25374 0.862184C8.19945 1.27158 9.80119 1.27131 10.7463 0.862184L12.3625 0.162512C13.4886 -0.324994 14.6069 0.324968 14.7861 1.56887L15.545 6.83536H17.4706C17.763 6.83536 18 7.07906 18 7.37967C18 7.68029 17.763 7.92398 17.4706 7.92398H0.529412C0.237026 7.92398 0 7.68029 0 7.37967C0 7.07906 0.237026 6.83536 0.529412 6.83536H2.45501ZM14.2785 5.47459H3.72146L3.52538 6.83536H14.4746L14.2785 5.47459ZM14.1217 4.38597L13.7387 1.7284C13.6607 1.18693 13.2611 0.954689 12.7734 1.16583L11.1572 1.8655C9.94938 2.38835 8.05137 2.38867 6.84285 1.8655L5.22662 1.16583C4.74047 0.955381 4.33914 1.18801 4.26127 1.7284L3.87832 4.38597H14.1217Z"
        fill="#7467B7"
    />
</svg>