<svg width="512" height="512" viewBox="0 0 512 512" fill="none" xmlns="http://www.w3.org/2000/svg">
    <path
        d="M448 256C448.005 306.478 428.131 354.927 392.68 390.86C357.229 426.794 309.053 447.322 258.58 448H256C206.965 448.122 159.766 429.357 124.2 395.6C122.673 394.155 121.445 392.424 120.587 390.505C119.729 388.586 119.257 386.517 119.198 384.415C119.14 382.314 119.496 380.222 120.246 378.258C120.996 376.294 122.125 374.497 123.57 372.97C125.015 371.443 126.746 370.215 128.665 369.357C130.584 368.498 132.653 368.027 134.755 367.968C136.856 367.91 138.948 368.266 140.912 369.016C142.876 369.766 144.673 370.895 146.2 372.34C169.076 393.914 197.802 408.269 228.789 413.612C259.776 418.955 291.65 415.049 320.43 402.382C349.21 389.715 373.619 368.848 390.609 342.389C407.599 315.93 416.416 285.052 415.959 253.611C415.501 222.17 405.79 191.561 388.037 165.607C370.285 139.654 345.278 119.506 316.142 107.682C287.006 95.8576 255.031 92.8806 224.213 99.1229C193.395 105.365 165.099 120.55 142.86 142.78C142.697 142.957 142.523 143.124 142.34 143.28L89.18 192H144C148.243 192 152.313 193.686 155.314 196.686C158.314 199.687 160 203.756 160 208C160 212.243 158.314 216.313 155.314 219.314C152.313 222.314 148.243 224 144 224H48C43.7565 224 39.6869 222.314 36.6863 219.314C33.6857 216.313 32 212.243 32 208V112C32 107.756 33.6857 103.687 36.6863 100.686C39.6869 97.6856 43.7565 95.9999 48 95.9999C52.2435 95.9999 56.3131 97.6856 59.3137 100.686C62.3143 103.687 64 107.756 64 112V171.6L120.5 120C147.38 93.2247 181.589 75.0133 218.811 67.6645C256.032 60.3158 294.596 64.1592 329.635 78.7097C364.673 93.2601 394.616 117.865 415.682 149.419C436.749 180.973 447.994 218.06 448 256Z"
        fill="#343330" />
</svg>