<svg width="25" height="24" viewBox="0 0 25 24" fill="none" xmlns="http://www.w3.org/2000/svg">
<path fill-rule="evenodd" clip-rule="evenodd" d="M10.5716 1.02387C9.77531 1.10631 8.98478 1.39168 8.31233 1.83943C7.98822 2.05522 7.78694 2.22383 7.49907 2.5206C6.73468 3.30864 6.27225 4.30463 6.16422 5.39557C6.06274 6.42068 6.33515 7.52601 6.90646 8.40717C7.69943 9.63018 8.96483 10.4224 10.4614 10.6329L10.6708 10.6623L10.4614 10.6799C10.1595 10.7053 9.61676 10.801 9.2663 10.8908C6.19911 11.6759 3.78498 14.2922 3.12439 17.5471C2.96747 18.3202 2.95294 18.6603 3.06646 18.9028C3.14696 19.0747 3.33627 19.2682 3.50721 19.3533L3.63946 19.4191L8.41473 19.425C13.1293 19.4307 13.1913 19.4302 13.2917 19.3864C13.4249 19.3282 13.5912 19.1678 13.6567 19.0343C13.6987 18.9486 13.7145 18.8615 13.7374 18.5897C13.781 18.0726 13.8387 17.7482 13.959 17.3425C14.3806 15.9214 15.2894 14.8226 16.5886 14.163C17.0342 13.9368 17.1405 13.8113 17.1399 13.5121C17.1395 13.3306 17.0651 13.2059 16.8051 12.9514C15.7294 11.8983 14.359 11.1492 12.9301 10.8333C12.6068 10.7618 12.2839 10.7116 11.9057 10.6738C11.7727 10.6605 11.6609 10.6466 11.6572 10.6429C11.6535 10.6392 11.7177 10.6292 11.7999 10.6208C12.1998 10.5798 12.8609 10.3816 13.2877 10.1747C15.3001 9.19886 16.3946 7.03744 15.962 4.89366C15.5755 2.9787 14.0192 1.46188 12.0594 1.09021C11.5884 1.0009 11.0328 0.976119 10.5716 1.02387ZM18.5864 14.8286C17.1636 14.9948 15.9775 15.848 15.3654 17.1455C15.2206 17.4525 15.1093 17.7916 15.0416 18.132C14.9975 18.3536 14.991 18.4531 14.991 18.9028C14.991 19.3533 14.9975 19.4518 15.0419 19.6751C15.2112 20.5264 15.6239 21.2937 16.2232 21.8716C16.9772 22.5985 17.9621 23 18.9916 23C20.7572 23 22.3284 21.813 22.8361 20.0956C22.9666 19.6539 22.9922 19.4568 22.9922 18.8916C22.9922 18.4474 22.9859 18.3553 22.9399 18.1282C22.5968 16.4354 21.3222 15.1638 19.6749 14.8711C19.3836 14.8194 18.8453 14.7983 18.5864 14.8286ZM19.4324 16.4338C18.9764 16.5601 18.5929 16.9308 18.4575 17.3761C18.3945 17.5833 18.3906 17.9151 18.4484 18.1449L18.4893 18.3076L18.3115 18.5154L18.1337 18.7232L18.1449 18.9252C18.1511 19.0364 18.1603 19.1545 18.1653 19.1878C18.1763 19.2603 18.1758 19.2605 17.8723 19.2965C17.6801 19.3193 17.6473 19.3289 17.6562 19.36C17.6619 19.3802 17.6734 19.4902 17.6817 19.6044L17.6968 19.812H17.598C17.5437 19.812 17.4372 19.8186 17.3614 19.8267L17.2236 19.8414L17.2387 20.0344C17.247 20.1405 17.2586 20.2486 17.2646 20.2746C17.2751 20.32 17.2657 20.3223 17.0304 20.3337C16.8956 20.3402 16.7802 20.3507 16.7741 20.3569C16.7679 20.3632 16.7832 20.5639 16.8081 20.803C16.8723 21.4215 16.8783 21.4273 17.4291 21.4073L17.7732 21.3948L18.6768 20.3415L19.5805 19.2881L19.8977 19.2846C20.2379 19.2808 20.316 19.2628 20.5791 19.1271C20.7486 19.0397 20.9949 18.7814 21.082 18.5997C21.2984 18.1484 21.2417 17.5464 20.9389 17.0801C20.7545 16.7962 20.4735 16.5692 20.1745 16.4625C19.9974 16.3994 19.6107 16.3844 19.4324 16.4338ZM19.9097 17.0597C19.8 17.1011 19.7231 17.1745 19.6725 17.2863C19.5409 17.5767 19.772 17.9241 20.0978 17.9257C20.2256 17.9263 20.3067 17.8962 20.3877 17.8181C20.4809 17.7283 20.5125 17.6506 20.5125 17.5111C20.5125 17.3742 20.4634 17.2512 20.3769 17.1711C20.2476 17.0514 20.0541 17.0053 19.9097 17.0597Z" fill="#A5A8AA"/>
</svg>
