<svg width="28" height="28" viewBox="0 0 28 28" fill="none" xmlns="http://www.w3.org/2000/svg">
<path d="M20.4139 9.23837C20.4111 9.22969 20.4082 9.22391 20.4053 9.21523C20.4082 9.22391 20.4111 9.23258 20.4139 9.23837Z" fill="black"/>
<path d="M11.0521 13.7038C11.1101 14.4225 11.6287 14.8804 12.2663 14.5616C12.4285 14.4805 12.6575 14.637 12.6197 14.8137C12.501 15.3527 12.1098 16.277 12.0981 16.2741C11.7155 16.1523 10.8724 15.7437 10.3478 15.7004C10.0609 15.6772 9.75673 15.9178 9.99434 16.2857C10.571 17.181 9.39748 17.3984 8.94249 17.2042C8.43541 16.9897 8.49903 16.7 8.75997 16.1494C8.84111 15.9756 8.73684 15.8364 8.65571 15.764C8.11959 15.2945 7.0706 15.8451 6.44173 16.1059C6.43306 16.1088 5.78108 14.7295 6.10852 14.2484C6.18387 14.1384 6.33747 14.1209 6.44463 14.1702C7.28199 14.5556 7.47916 14.3238 7.45891 13.4689C7.44445 12.8545 6.85029 12.9067 6.63309 13.0023C5.8651 13.3413 5.98689 11.7562 6.37811 11.1507C6.3839 11.142 7.8763 11.7824 8.55142 11.481C8.74839 11.3941 8.83837 11.168 8.75145 10.9711C8.71964 10.8986 8.6761 10.8261 8.63272 10.7537C8.46756 10.4814 8.56315 10.1219 8.84143 9.96835C9.07616 9.84078 9.38913 9.80319 9.66434 9.85541C10.0236 9.92498 10.2092 10.3249 10.0382 10.6465C9.95128 10.8088 9.87304 10.9682 9.9455 11.1131C9.99194 11.2029 10.0846 11.258 10.186 11.2609C10.8467 11.2812 11.5422 10.8986 12.087 10.5916C12.0986 10.5858 12.113 10.5916 12.1188 10.6032C12.3275 11.258 13.1011 12.0752 12.6694 12.4346C12.4318 12.6316 12.1711 12.3535 11.9681 12.3332H11.9652C11.2493 12.1999 11.0175 13.2866 11.0522 13.7039L11.0521 13.7038Z" fill="black"/>
<path d="M18.5361 13.9616C18.1594 14.4369 17.9362 14.0543 17.5683 13.9819C17.3944 13.9501 17.2466 14.0717 17.209 14.2455C17.0381 15.0308 17.5974 15.4712 17.803 16.0363C17.4525 16.4622 16.7338 16.8592 16.1599 16.7665C15.9687 16.7347 15.7369 16.5058 15.8905 16.2768C16.3976 15.5264 15.8818 14.9496 15.1167 14.9322C14.4965 14.9178 14.0908 15.5088 14.3314 16.1088C14.4183 16.3262 14.595 16.7868 14.0591 16.781C13.5056 16.7752 12.8362 16.526 12.4306 16.3289C12.5755 15.7494 13.0217 15.1205 12.8972 14.5119C12.8507 14.2801 12.616 14.1178 12.3321 14.2279C11.7931 14.4366 11.4425 14.4046 11.3874 13.6975C11.3614 13.3556 11.4396 12.857 11.7931 12.6688C11.9409 12.5905 12.1843 12.6398 12.4248 12.7875C12.7029 12.9584 13.0594 12.8686 13.1203 12.5499C13.2362 11.9646 12.5958 11.069 12.4335 10.5157V10.507C12.9088 10.3563 13.9751 9.88972 14.3519 10.3158C14.4214 10.3941 14.4677 10.5679 14.3925 10.6404C13.7261 11.2866 14.6824 12.1704 15.343 11.9472C15.5922 11.8632 16.2615 11.4459 15.9081 10.9881C15.8443 10.9069 15.5488 10.6258 15.7516 10.4432C16.2906 9.96512 17.2469 10.4664 17.8582 10.6548C17.6613 11.2112 17.0845 12.0023 17.2787 12.6774C17.3367 12.8775 17.641 13.0078 17.8091 12.8861C18.1539 12.6398 18.4059 12.6109 18.5393 12.7877C18.8259 13.159 18.771 13.6633 18.5363 13.9617L18.5361 13.9616Z" fill="black"/>
<path d="M10.0663 8.10839C10.1243 8.46474 9.71286 9.11401 9.14475 9.21246C9.01428 9.23559 8.8811 9.17487 8.80863 9.06465C8.69859 8.89081 8.68991 8.72854 8.64347 8.54007C8.6348 8.50826 8.62323 8.47629 8.60877 8.44737C8.58564 8.40382 8.55655 8.33732 8.53631 8.31401C8.42336 8.18933 8.23201 8.18066 8.10171 8.2851C7.53956 8.7343 7.51931 9.59195 7.24393 10.189C6.59194 10.0441 5.84132 9.68771 5.57479 9.03284C5.65303 8.61849 6.14561 8.75763 6.40061 8.55473C6.65847 8.37221 6.45572 7.93744 6.14563 7.61869C5.89355 7.36083 5.57481 7.17815 5.3661 7.27102C4.95175 7.45353 5.29653 8.09392 4.9344 8.40692C4.14907 8.38668 3.74337 7.36372 3.5 6.71465C3.91724 6.50594 4.64169 6.1872 4.94311 5.79308C5.1576 5.51191 4.99243 5.10046 4.64459 5.03684C4.44762 4.99925 4.15489 5.06287 4.05352 4.84855C3.86811 4.45154 4.24759 3.72131 4.75192 3.46636C5.12579 3.27806 5.49662 3.47214 5.56908 3.8836C5.8676 5.60191 6.91369 3.18232 7.04689 2.33333C7.55971 2.52163 8.71024 2.82016 8.97103 3.32719C9.09282 3.56481 8.96236 3.85177 8.70738 3.92118C8.46687 3.98785 8.06118 3.89226 8.0263 4.1935C8.05233 4.63099 8.45512 5.04262 8.84054 5.1729C9.14195 5.27428 9.43453 5.20182 9.53895 4.83679C9.54762 4.80209 9.5563 4.76722 9.56208 4.72963C9.60274 4.48044 9.85482 4.31817 10.0925 4.4022C10.1765 4.43112 10.2576 4.48045 10.3359 4.54423C10.6778 4.81944 10.9502 5.36426 11.0574 5.69459C10.643 6.00467 9.20575 6.70599 9.06079 7.15502C8.83763 7.86789 9.97657 7.53757 10.0664 8.10843L10.0663 8.10839Z" fill="black"/>
<path d="M16.9526 7.09985C16.7729 7.40994 16.7323 8.42134 17.3177 8.45892C17.5438 8.47337 17.7843 8.38067 17.9002 8.31978C18.0653 8.23575 18.4101 8.29086 18.4623 8.46759C18.6564 9.13112 18.2449 9.83532 17.9466 10.3917C17.2917 10.2295 15.9384 9.66149 15.4458 10.3366C15.2342 10.6265 15.6748 10.9539 15.721 11.0755C15.8398 11.3654 15.5935 11.6377 15.3443 11.6899C14.727 11.8204 14.1881 11.348 14.6923 10.6236C14.7561 10.5338 14.7647 10.4149 14.7125 10.3164C14.3415 9.59773 12.8435 10.0383 12.3536 10.1946C12.1624 9.72802 11.9682 9.27899 12.0349 8.78911C12.0784 8.45879 12.4724 8.30229 12.7391 8.50506C13.0085 8.70798 13.2317 8.91073 13.5042 8.58619C13.7969 8.23563 13.7418 7.48787 13.2521 7.21555C13.1507 7.15754 13.0318 7.11995 12.9246 7.16911C11.6207 7.77194 12.0177 5.66513 12.5219 4.95226C12.5421 4.91161 14.3995 5.97521 15.0459 5.35505C15.1299 5.27391 15.1646 5.07694 14.9792 4.90293C14.6287 4.57839 14.6778 4.30606 15.0081 4.12339C15.408 3.90023 16.0369 3.88577 16.2745 4.28856C16.3759 4.45951 16.3556 4.62177 16.2832 4.73489C16.1036 5.02184 15.7615 5.30863 16.034 5.5898C16.0629 5.61871 16.1007 5.63912 16.1411 5.64491C16.9903 5.77826 18.3318 5.06537 18.3724 5.04804C18.555 5.72603 18.6594 6.10569 18.584 6.72006C18.5203 7.22714 18.187 6.98082 18.1059 6.92299C17.6218 6.58977 17.251 6.58399 16.9525 7.09989L16.9526 7.09985Z" fill="black"/>
<path d="M20.4139 9.23837C20.4111 9.22969 20.4082 9.22391 20.4053 9.21523C20.4082 9.22391 20.4111 9.23258 20.4139 9.23837Z" fill="black"/>
<path d="M22.1417 13.8807C21.594 13.1447 21.3304 12.4375 21.6434 11.7218C22.023 10.8496 21.8172 10.5743 21.4695 9.21531C21.1247 7.86782 19.8353 5.48002 18.6876 5.11211C18.6731 5.10633 18.8412 5.63957 18.8963 6.23068C18.9659 6.9638 18.624 7.70849 18.1312 7.271C17.6966 6.88557 17.3112 6.97827 17.1692 7.29124C17.0271 7.60422 17.0358 8.16061 17.4068 8.17794C17.7922 8.19529 18.1921 7.80985 18.6036 8.20396C19.015 8.59808 18.5398 9.89915 18.1601 10.5831C17.8124 11.2033 17.6993 11.5974 17.5661 12.064C17.4328 12.5305 17.5574 12.6492 17.7197 12.6088C18.0327 12.5334 18.2616 12.2582 18.6035 12.4987C18.9454 12.7421 19.1454 13.4086 18.786 14.0201C18.4268 14.6287 18.1196 14.4635 17.8066 14.3186C17.4937 14.1766 17.4734 14.4229 17.4763 14.5678C17.4792 14.7561 17.6126 15.1068 17.7893 15.3589C17.9689 15.611 18.3341 15.9211 17.9051 16.379C17.4734 16.8369 16.3026 17.1904 15.9028 17.0425C15.5811 16.9238 15.4564 16.5644 15.6536 16.1963C16.0882 15.382 15.4942 15.2516 15.1755 15.214C14.8191 15.1704 14.3235 15.5849 14.6393 16.2078C14.7756 16.4744 14.7147 16.7382 14.5089 16.9612C14.3031 17.1843 13.9438 17.1148 13.1992 16.9467C12.4545 16.7758 11.249 16.2194 10.7738 16.0311C10.2985 15.8428 10.1739 16.1354 10.3421 16.3875C10.7738 17.0163 10.3189 17.6045 9.35975 17.59C8.49618 17.5785 8.16585 16.9872 8.21227 16.712C8.26449 16.4019 8.51657 15.9991 8.16583 15.918C7.97465 15.8745 7.42693 15.918 6.55469 16.3904L8.00646 18.3029L6.56048 16.4048C6.8908 17.0975 7.23847 17.6914 7.52255 18.0769C8.23833 19.0447 8.58307 19.7547 8.61795 20.3922C8.71355 22.2294 8.31365 24.0115 7.17777 26.7266H17.4765C17.2735 26.318 17.1519 26.0804 17.0766 25.4227C16.981 24.5793 17.1201 23.6086 17.3286 22.9595C17.4707 22.522 17.998 22.2206 18.5052 22.2148C19.3339 22.2033 20.0817 22.4611 21.3711 22.2235C22.0405 22.1017 22.0029 21.1079 21.8348 20.4123C21.6667 19.7168 22.2145 19.5719 22.2116 19.288C22.2087 19.1315 22.2753 19.0128 21.8783 18.7723C22.6028 18.3782 22.3536 18.0131 22.2202 17.7204C21.7479 16.683 22.2753 16.6888 22.4868 16.6048C22.6984 16.5207 23.2663 16.4165 23.3301 15.9528C23.3876 15.4889 22.6865 14.6197 22.1416 13.8807L22.1417 13.8807Z" fill="black"/>
</svg>
