<svg width="18" height="18" viewBox="0 0 18 18" fill="none" xmlns="http://www.w3.org/2000/svg">
<path d="M7.87816 1.66608C8.17751 0.744769 9.48092 0.744771 9.78027 1.66608L11.0744 5.64886C11.2082 6.06088 11.5922 6.33984 12.0254 6.33984H16.2132C17.1819 6.33984 17.5847 7.57946 16.8009 8.14886L13.413 10.6104C13.0625 10.865 12.9158 11.3164 13.0497 11.7284L14.3438 15.7112C14.6431 16.6325 13.5887 17.3986 12.805 16.8292L9.417 14.3677C9.06651 14.1131 8.59192 14.1131 8.24143 14.3677L4.85347 16.8292C4.06976 17.3986 3.01528 16.6325 3.31463 15.7112L4.60872 11.7284C4.74259 11.3164 4.59593 10.865 4.24545 10.6104L0.85749 8.14886C0.0737768 7.57946 0.476554 6.33984 1.44528 6.33984H5.63302C6.06625 6.33984 6.4502 6.06088 6.58408 5.64886L7.87816 1.66608Z" fill="#1776BA"/>
</svg>
