<svg width="28" height="28" viewBox="0 0 28 28" fill="none" xmlns="http://www.w3.org/2000/svg">
<path fill-rule="evenodd" clip-rule="evenodd" d="M25.2 19.2293C25.2 23.0384 23.0396 25.1888 19.2304 25.2H8.76965C4.96165 25.2 2.80005 23.0384 2.80005 19.2293L2.80005 8.7696C2.80005 4.96048 4.96165 2.8 8.76965 2.8L19.2304 2.8C23.0396 2.8 25.2 4.96048 25.2 8.7696V19.2293ZM18.7126 7.31409C18.3292 6.8953 17.6979 6.8953 17.3146 7.31409L12.6584 12.4011L10.6855 10.2456C10.3022 9.82679 9.67085 9.82679 9.28753 10.2456C8.90422 10.6644 8.90422 11.3418 9.28753 11.7729L11.9707 14.6921C12.1624 14.9015 12.4104 15 12.6584 15C12.9177 15 13.1658 14.9015 13.3574 14.6921L18.7126 8.84142C19.0959 8.42263 19.0959 7.74519 18.7126 7.31409ZM17.3146 14.2748C17.6979 13.9084 18.3292 13.9084 18.7126 14.2748C19.0959 14.652 19.0959 15.2448 18.7126 15.6112L13.3574 20.7306C13.1658 20.9138 12.9177 21 12.6584 21C12.4104 21 12.1624 20.9138 11.9707 20.7306L9.28753 18.1763C8.90422 17.7991 8.90422 17.2063 9.28753 16.8399C9.67085 16.4734 10.3022 16.4734 10.6855 16.8399L12.6584 18.7259L17.3146 14.2748Z" fill="black"/>
</svg>
