<svg width="28" height="28" viewBox="0 0 28 28" fill="none" xmlns="http://www.w3.org/2000/svg">
<path d="M23.628 20.4171H2.68497C2.47383 20.4171 2.33301 20.5931 2.33301 20.769C2.33301 22.8105 4.02252 24.5 6.06397 24.5H20.2489C22.2904 24.5 23.9799 22.8457 23.9799 20.769C23.9802 20.5579 23.8042 20.4171 23.6281 20.4171H23.628Z" fill="black"/>
<path d="M8.35177 19.7131H17.2218C17.9258 19.15 18.5242 18.4459 19.0521 17.6364C19.1224 17.8827 19.2633 18.094 19.4746 18.27C19.6857 18.4811 19.9674 18.5868 20.249 18.5868H20.425C20.6361 18.5516 20.7418 18.3756 20.7066 18.1996C20.6715 18.0236 20.4955 17.8828 20.3195 17.918C20.1787 17.9532 20.0379 17.8828 19.9675 17.8123C19.8267 17.6715 19.7212 17.4604 19.7212 17.2844C19.7564 16.7564 20.214 16.3692 20.4252 16.2285C20.8828 15.9117 21.3756 15.7357 21.9387 15.5246C22.6074 15.2782 23.3114 14.9966 23.9098 14.5038C24.5786 13.9054 24.9657 13.0255 24.9305 12.1104C24.8953 11.2305 24.4729 10.3505 23.769 9.78735C23.1705 9.29457 22.4314 9.08341 21.7275 9.18891C21.3404 9.25923 21.0587 9.36489 20.7771 9.54087C20.7771 9.40006 20.742 9.22407 20.7068 9.08327C20.6365 8.66079 20.2843 8.34419 19.8269 8.34419L9.44308 8.34403V11.8638H9.90069C10.2878 11.8638 10.6046 12.1806 10.6046 12.5678V14.4686C10.6046 14.8557 10.2878 15.1725 9.90069 15.1725L8.31668 15.1727C7.92955 15.1727 7.61274 14.8559 7.61274 14.4687V12.4976C7.61274 12.1105 7.92954 11.7936 8.31668 11.7936H8.77428V8.27383H5.81761C5.39514 8.27383 5.00802 8.59063 4.9377 9.01291C4.83205 9.71685 4.76172 10.4561 4.76172 11.16C4.76172 14.6798 6.16959 17.8476 8.35185 19.7131L8.35177 19.7131ZM20.8471 11.16C20.8471 10.9137 20.8471 10.6321 20.8119 10.3856C21.0582 10.0336 21.3047 9.89282 21.7623 9.8225C22.2551 9.75217 22.8182 9.92816 23.2407 10.2801C23.7686 10.7026 24.1206 11.3713 24.1206 12.0752C24.1557 12.7792 23.8389 13.4479 23.3462 13.9055C22.8886 14.328 22.2549 14.5391 21.6215 14.7854C21.0936 14.9614 20.5656 15.1726 20.0728 15.4894C20.6006 14.1519 20.8471 12.6737 20.8471 11.1601L20.8471 11.16Z" fill="black"/>
<path d="M8.28125 14.4683H9.86526V12.4972H8.31643L8.28125 14.4683Z" fill="black"/>
<path d="M12.2236 2.99384C12.7164 3.24015 12.9981 3.83858 12.8924 4.36654C12.7868 4.7185 12.5404 5.10561 12.4348 5.56326C12.294 6.19684 12.5051 6.86564 12.9628 7.32325C13.1036 7.46407 13.3147 7.42891 13.4555 7.28809C13.5964 7.14727 13.5964 6.93612 13.4204 6.7953C13.1387 6.51366 12.9979 6.09136 13.1036 5.70407C13.1387 5.52809 13.2444 5.35211 13.3147 5.17611C13.4204 4.96496 13.5259 4.75364 13.561 4.54253C13.7722 3.69779 13.3147 2.7474 12.5403 2.36028C12.3643 2.28995 12.1532 2.36028 12.0827 2.53626C11.9772 2.7124 12.0477 2.92355 12.2237 2.99386L12.2236 2.99384Z" fill="black"/>
<path d="M9.61891 4.29617C9.93571 4.43698 10.1117 4.82413 10.006 5.1409C9.97088 5.24655 9.93571 5.35204 9.86522 5.49286C9.7949 5.63368 9.72441 5.80966 9.68924 5.98565C9.58359 6.47843 9.72441 7.00636 10.1117 7.32317C10.2525 7.46398 10.4637 7.46398 10.6045 7.288C10.7453 7.14719 10.7453 6.93604 10.5693 6.79522C10.3934 6.61924 10.323 6.37275 10.3582 6.12646C10.3934 6.0208 10.4285 5.88015 10.499 5.77449C10.5693 5.63368 10.6398 5.49286 10.675 5.28171C10.851 4.64813 10.499 3.90901 9.90057 3.62738C9.72459 3.55705 9.51344 3.62738 9.44296 3.80336C9.37264 4.01451 9.44293 4.22585 9.61891 4.29617Z" fill="black"/>
<path d="M15.075 4.29617C15.3918 4.43698 15.5678 4.82413 15.4622 5.1409C15.427 5.24655 15.3918 5.35204 15.3213 5.49286C15.251 5.63368 15.1805 5.80966 15.1454 5.98565C15.0397 6.47843 15.1805 7.00636 15.5678 7.32317C15.7087 7.46398 15.9198 7.46398 16.0606 7.288C16.2014 7.14719 16.2014 6.93604 16.0255 6.79522C15.8495 6.61924 15.7791 6.37275 15.8143 6.12646C15.8495 6.0208 15.8846 5.88015 15.9551 5.77449C16.0255 5.63368 16.0959 5.49286 16.1311 5.28171C16.3071 4.64813 15.9551 3.90901 15.3567 3.62738C15.1807 3.55705 14.9696 3.62738 14.8991 3.80336C14.8286 4.01451 14.8991 4.22585 15.075 4.29617Z" fill="black"/>
</svg>
