<svg width="28" height="28" viewBox="0 0 28 28" fill="none" xmlns="http://www.w3.org/2000/svg">
<path d="M24 12.9009C24 12.3175 23.7659 11.7579 23.3491 11.3454C22.9324 10.9329 22.3671 10.7011 21.7778 10.7011H19.5556V8.50125C19.5559 7.2903 19.1525 6.11308 18.408 5.15226C17.6634 4.19144 16.6194 3.50075 15.4378 3.18736C14.2562 2.87397 13.0031 2.9554 11.873 3.41903C10.743 3.88265 9.79905 4.70253 9.18778 5.75146C9.05088 6.00328 9.01844 6.29798 9.09734 6.57308C9.17623 6.84818 9.36026 7.08205 9.6104 7.2251C9.86054 7.36815 10.1571 7.40914 10.4373 7.33937C10.7174 7.2696 10.9591 7.09457 11.1111 6.85137C11.4775 6.22125 12.0439 5.72857 12.7223 5.44987C13.4006 5.17117 14.153 5.12207 14.8625 5.31019C15.5719 5.49831 16.1987 5.91311 16.6456 6.49016C17.0924 7.06721 17.3342 7.77418 17.3333 8.50125V10.7011H6.22222C5.63285 10.7011 5.06762 10.9329 4.65087 11.3454C4.23413 11.7579 4 12.3175 4 12.9009V22.8002C4 23.3836 4.23413 23.9431 4.65087 24.3557C5.06762 24.7682 5.63285 25 6.22222 25H21.7778C22.3671 25 22.9324 24.7682 23.3491 24.3557C23.7659 23.9431 24 23.3836 24 22.8002V12.9009ZM14 20.0504C13.5605 20.0504 13.1308 19.9214 12.7654 19.6796C12.4 19.4379 12.1151 19.0943 11.9469 18.6924C11.7787 18.2904 11.7347 17.8481 11.8205 17.4214C11.9062 16.9946 12.1179 16.6027 12.4287 16.295C12.7394 15.9874 13.1354 15.7779 13.5665 15.693C13.9975 15.6081 14.4443 15.6517 14.8504 15.8182C15.2565 15.9847 15.6035 16.2666 15.8477 16.6284C16.0919 16.9901 16.2222 17.4155 16.2222 17.8505C16.2222 18.434 15.9881 18.9935 15.5713 19.4061C15.1546 19.8186 14.5894 20.0504 14 20.0504Z" fill="black"/>
</svg>
