<svg width="28" height="28" viewBox="0 0 28 28" fill="none" xmlns="http://www.w3.org/2000/svg">
<path d="M16.5867 2.42858C16.2659 2.64414 16.2559 2.67923 16.2559 4.07285V5.34114H20.7926H25.3294V4.07285C25.3294 2.67923 25.3194 2.64414 24.9986 2.42858C24.8582 2.33834 24.6878 2.33333 20.7926 2.33333C16.8975 2.33333 16.7271 2.33834 16.5867 2.42858Z" fill="#151515"/>
<path d="M3.00127 5.43639C2.68044 5.65195 2.67041 5.68704 2.67041 7.08066V8.34895H7.20719H11.744V7.08066C11.744 5.68704 11.734 5.65195 11.4131 5.43639C11.2728 5.34615 11.1023 5.34114 7.20719 5.34114C3.31208 5.34114 3.14163 5.34615 3.00127 5.43639Z" fill="#151515"/>
<path d="M15.3784 7.597L15.0024 8.34895H20.7925H26.5825L26.2065 7.597L25.8306 6.84505H20.7925H15.7544L15.3784 7.597Z" fill="#151515"/>
<path d="M1.79297 10.6048L1.41699 11.3568H7.20703H12.9971L12.6211 10.6048L12.2451 9.85286H7.20703H2.16895L1.79297 10.6048Z" fill="#151515"/>
<path d="M14.752 12.1087V14.3646H15.5741H16.4012L16.5617 14.0588C17.1131 13.0261 18.4265 12.61 19.4893 13.1314C19.8051 13.2918 20.0106 13.4773 21.6048 15.0764C23.224 16.7006 23.3844 16.8761 23.5348 17.1969C23.6902 17.5328 23.7002 17.5779 23.7002 18.1243C23.7002 18.6708 23.6902 18.7159 23.5348 19.0518C23.3844 19.3726 23.224 19.548 21.6048 21.1723C20.0106 22.7714 19.8051 22.9569 19.4893 23.1173C18.4215 23.6437 17.1181 23.2276 16.5617 22.1849L16.4012 21.8841H15.5741H14.752V23.1474C14.752 24.546 14.762 24.5811 15.0828 24.7967C15.2232 24.8869 15.4237 24.8919 20.7926 24.8919C26.1616 24.8919 26.3621 24.8869 26.5025 24.7967C26.5777 24.7465 26.688 24.6363 26.7381 24.5611C26.8283 24.4207 26.8333 24.1851 26.8333 17.1318V9.85286H20.7926H14.752V12.1087Z" fill="#151515"/>
<path d="M1.1665 18.6357C1.1665 24.2152 1.17152 24.4207 1.26175 24.5611C1.31188 24.6363 1.42217 24.7465 1.49736 24.7967C1.63773 24.8869 1.83825 24.8919 7.20719 24.8919C12.5761 24.8919 12.7767 24.8869 12.917 24.7967C13.2379 24.5811 13.2479 24.546 13.2479 23.1474V21.8841H11.4332C10.4306 21.8841 9.443 21.859 9.24248 21.834C8.2098 21.6986 7.41774 20.9066 7.28239 19.8739C7.22223 19.3926 7.22223 16.856 7.28239 16.3748C7.41774 15.3421 8.2098 14.5501 9.24248 14.4147C9.443 14.3896 10.4306 14.3646 11.4332 14.3646H13.2479V13.6126V12.8607H7.20719H1.1665V18.6357Z" fill="#151515"/>
<path d="M18.0906 14.4598C17.8149 14.6453 17.7598 14.7907 17.7598 15.3521V15.8685H13.4887C9.38301 15.8685 9.20755 15.8735 9.06719 15.9637C8.99199 16.0139 8.88171 16.1241 8.83158 16.1993C8.74134 16.3347 8.73633 16.465 8.73633 18.1243C8.73633 19.7836 8.74134 19.914 8.83158 20.0493C8.88171 20.1245 8.99199 20.2348 9.06719 20.2849C9.20755 20.3752 9.38301 20.3802 13.4887 20.3802H17.7598V20.8915C17.7598 21.458 17.8149 21.6034 18.0906 21.7889C18.2761 21.9092 18.7373 21.9192 18.9128 21.8039C19.0932 21.6836 21.9557 18.8362 22.1261 18.6056C22.2464 18.4452 22.2715 18.3599 22.2715 18.1294C22.2715 17.9489 22.2414 17.7985 22.1913 17.7233C22.071 17.5428 19.2236 14.6804 18.993 14.5099C18.8326 14.3896 18.7473 14.3646 18.5167 14.3646C18.3262 14.3646 18.1909 14.3946 18.0906 14.4598Z" fill="#151515"/>
</svg>
