<svg width="19" height="21" viewBox="0 0 19 21" fill="none" xmlns="http://www.w3.org/2000/svg">
<path d="M9.52379 14.0941C11.7413 14.0941 13.5447 12.2908 13.5447 10.0733V4.04197C13.5447 1.81341 11.7503 0 9.5449 0C9.47415 0.00042511 9.40367 0.00885552 9.33481 0.0251304C8.30271 0.0751703 7.32933 0.520053 6.61608 1.26773C5.90283 2.01541 5.5043 3.00866 5.50293 4.04197V10.0733C5.50293 12.2908 7.30629 14.0941 9.52379 14.0941Z" fill="#1776BA"/>
<path d="M8.51893 18.0466V20.1264H10.5294V18.0466C14.4889 17.549 17.5659 14.1685 17.5659 10.0742H15.5554C15.5554 13.4005 12.8504 16.1055 9.52415 16.1055C6.19789 16.1055 3.49285 13.4005 3.49285 10.0742H1.48242C1.48242 14.1675 4.55939 17.549 8.51893 18.0466Z" fill="#1776BA"/>
<rect x="0.488228" y="2.4707" width="2.17127" height="23.3179" rx="1.08563" transform="rotate(-45 0.488228 2.4707)" fill="#1776BA" stroke="white" stroke-width="0.723756"/>
</svg>
