<?xml version="1.0" standalone="no"?>
<!DOCTYPE svg PUBLIC "-//W3C//DTD SVG 1.1//EN" "http://www.w3.org/Graphics/SVG/1.1/DTD/svg11.dtd" >
<svg xmlns="http://www.w3.org/2000/svg" xmlns:xlink="http://www.w3.org/1999/xlink" version="1.1">
<metadata>
Created by FontForge 20170731 at Sun Apr 23 04:35:11 2017
 By Aleksey,,,
Copyright (c) 2016 by Deni Anggara. All rights reserved.
</metadata>
<defs>
<font id="Biotif-BookItalic" horiz-adv-x="0" >
  <font-face 
    font-family="Biotif Book Italic"
    font-weight="450"
    font-style="italic"
    font-stretch="normal"
    units-per-em="1000"
    panose-1="0 0 5 0 0 0 0 0 0 0"
    ascent="760"
    descent="-240"
    x-height="489"
    cap-height="723"
    bbox="-538 -252 1488 1050"
    underline-thickness="80"
    underline-position="-275"
    slope="-8"
    unicode-range="U+0020-FB02"
  />
<missing-glyph horiz-adv-x="558" 
d="M458 -252h-354v1116h354v-1116zM187 789v-37h73v-41h-74v-37h186v37h-74v41h74v37h-185zM186 645v-116h186v38h-74v78h-112zM260 567h-37v40h37v-40zM186 499v-37h74v-41h-74v-37h112v78h74v37h-186zM335 432v-74h-149v-37h186v111h-37zM260 296v-63h38v26h37v-52h-112
v89h-37v-126h186v126h-112zM186 103v-126h186v126h-186zM335 14h-112v52h112v-52zM186 -49v-37h78l-78 -52v-37h186v37h-114l78 52h36v37h-186z" />
    <glyph glyph-name="fi" unicode="fi" horiz-adv-x="586" 
d="M552 488l-69 -488h-95l57 407h-223l-58 -407h-94l57 407h-72l11 82h72l14 99q21 147 163 148q28 0 68 -8l-14 -81q-14 2 -25 3.5t-19 1.5q-34 0 -54 -18.5t-26 -61.5l-12 -83zM595 670q0 -30 -22.5 -51.5t-52.5 -21.5q-25 0 -41 16t-16 42q0 31 22.5 52.5t53.5 21.5
q25 0 40.5 -16.5t15.5 -42.5z" />
    <glyph glyph-name="fl" unicode="fl" horiz-adv-x="559" 
d="M579 736l-104 -736h-94l58 407h-217l-58 -407h-94l57 407h-72l11 82h72l14 99q21 147 163 148q28 0 68 -8l-14 -81q-14 2 -25 3.5t-19 1.5q-34 0 -54 -18.5t-26 -61.5l-12 -83h217l35 247h94z" />
    <glyph glyph-name="f_f" unicode="ff" horiz-adv-x="673" 
d="M651 652q-34 0 -54 -18.5t-26 -61.5l-12 -83h99l-10 -82h-100l-58 -407h-94l57 407h-72h-159l-58 -407h-94l57 407h-72l11 82h72l14 99q21 147 163 148q28 0 68 -8l-14 -81q-14 2 -25 3.5t-19 1.5q-34 0 -54 -18.5t-26 -61.5l-12 -83h174h57l14 99q21 147 163 148
q28 0 68 -8l-14 -81q-14 2 -25 3.5t-19 1.5z" />
    <glyph glyph-name="f_f_i" unicode="ffi" horiz-adv-x="911" 
d="M557 489l320 -1l-11 -81l-57 -407h-95l57 407h-225l-58 -407h-94l57 407h-229l-58 -407h-94l57 407h-72l11 82h72l14 99q21 147 163 148q28 0 68 -8l-14 -81q-14 2 -25 3.5t-19 1.5q-34 0 -54 -18.5t-26 -61.5l-12 -83h229l14 99q21 147 163 148q28 0 68 -8l-14 -81
q-14 2 -25 3.5t-19 1.5q-34 0 -54 -18.5t-26 -61.5zM921 670q0 -30 -22.5 -51.5t-52.5 -21.5q-25 0 -41.5 16.5t-16.5 41.5q0 31 22.5 52.5t53.5 21.5q25 0 41 -16.5t16 -42.5z" />
    <glyph glyph-name="f_f_l" unicode="ffl" horiz-adv-x="885" 
d="M904 736l-103 -736h-94l57 407h-218l-58 -407h-94l57 407h-229l-58 -407h-94l57 407h-72l11 82h72l14 99q21 147 163 148q28 0 68 -8l-14 -81q-14 2 -25 3.5t-19 1.5q-34 0 -54 -18.5t-26 -61.5l-12 -83h229l14 99q21 147 163 148q28 0 68 -8l-14 -81q-14 2 -25 3.5
t-19 1.5q-34 0 -54 -18.5t-26 -61.5l-12 -83h219l34 247h94z" />
    <glyph glyph-name="f_t" unicode="ft" horiz-adv-x="657" 
d="M668 407h-116l-57 -407h-94l58 407h-237l-58 -407h-94l57 407h-72l11 82h72l14 99q21 147 163 148q28 0 68 -8l-14 -81q-14 2 -25 3.5t-19 1.5q-34 0 -54 -18.5t-26 -61.5l-12 -83h237l22 153h93l-21 -153h115z" />
    <glyph glyph-name="f_y" unicode="fy" horiz-adv-x="788" 
d="M817 489l-317 -611q-30 -58 -71.5 -83t-89.5 -25q-53 0 -105 28l37 82q36 -24 71 -24q50 0 78 54l26 53l-116 444h-108l-58 -407h-94l57 407h-72l11 82h72l14 99q21 147 163 148q28 0 68 -8l-14 -81q-14 2 -25 3.5t-19 1.5q-34 0 -54 -18.5t-26 -61.5l-12 -83h175h1
l-1 -3l98 -404l205 407h106z" />
    <glyph glyph-name="t_i" unicode="ti" horiz-adv-x="559" 
d="M578 670q0 -30 -22.5 -51.5t-52.5 -21.5q-25 0 -41.5 16.5t-16.5 41.5q0 31 22.5 52.5t53.5 21.5q25 0 41 -16.5t16 -42.5zM466 0h-95l57 407h-183l-58 -407h-94l58 407h-96l11 82h96l22 153h94l-22 -153h278z" />
    <glyph glyph-name="t_t" unicode="tt" horiz-adv-x="654" 
d="M657 407h-96l-57 -407h-94l57 407h-95h-127l-58 -407h-94l58 407h-96l11 82h96l22 153h94l-22 -153h165h58l21 153h94l-21 -153h95z" />
    <glyph glyph-name="t_y" unicode="ty" horiz-adv-x="802" 
d="M831 489l-316 -605q-31 -60 -75.5 -86.5t-93.5 -26.5q-27 0 -53 7.5t-45 19.5l37 82q31 -22 68 -22q24 0 45 12.5t34 39.5l27 55l-116 442h-98l-58 -407h-94l58 407h-96l11 82h96l22 153h94l-22 -153h164h1l98 -405l205 405h107z" />
    <glyph glyph-name=".notdef" horiz-adv-x="558" 
d="M458 -252h-354v1116h354v-1116zM187 789v-37h73v-41h-74v-37h186v37h-74v41h74v37h-185zM186 645v-116h186v38h-74v78h-112zM260 567h-37v40h37v-40zM186 499v-37h74v-41h-74v-37h112v78h74v37h-186zM335 432v-74h-149v-37h186v111h-37zM260 296v-63h38v26h37v-52h-112
v89h-37v-126h186v126h-112zM186 103v-126h186v126h-186zM335 14h-112v52h112v-52zM186 -49v-37h78l-78 -52v-37h186v37h-114l78 52h36v37h-186z" />
    <glyph glyph-name=".null" 
 />
    <glyph glyph-name="nonmarkingreturn" horiz-adv-x="333" 
 />
    <glyph glyph-name="space" unicode=" " horiz-adv-x="266" 
 />
    <glyph glyph-name="exclam" unicode="!" horiz-adv-x="259" 
d="M87 167q0 32 1 61.5t3.5 60.5t6.5 64.5t10 72.5l42 296h109l-42 -296q-5 -38 -11 -72.5t-11 -63.5t-12.5 -60t-16.5 -63h-79zM42 45q0 32 23.5 53.5t55.5 21.5q25 0 42 -16.5t17 -42.5q0 -31 -23.5 -52.5t-55.5 -21.5q-26 0 -42.5 16.5t-16.5 41.5z" />
    <glyph glyph-name="quotedbl" unicode="&#x22;" horiz-adv-x="316" 
d="M176 445h-57l6 187q1 29 18.5 44t39.5 15q17 0 28.5 -10t11.5 -30q0 -6 -0.5 -10.5t-1.5 -8.5zM323 445h-57l7 187q1 29 18.5 44t39.5 15q17 0 28.5 -10.5t11.5 -30.5q0 -8 -2 -18z" />
    <glyph glyph-name="numbersign" unicode="#" horiz-adv-x="648" 
d="M529 428l-26 -133h111l-18 -95h-112l-39 -200h-95l40 200h-152l-39 -200h-94l39 200h-100l17 95h102l26 133h-115l17 94h116l39 200h94l-39 -200h152l40 200h93l-39 -200h104l-18 -94h-104zM435 428h-152l-26 -133h151z" />
    <glyph glyph-name="dollar" unicode="$" horiz-adv-x="658" 
d="M576 212q0 -48 -17 -87t-49 -68t-76.5 -46.5t-100.5 -21.5l-11 -79h-75l12 81q-93 10 -144.5 60t-50.5 129l97 15q-1 -48 27.5 -77.5t82.5 -37.5l35 247l-24 7q-147 42 -147 173q0 44 17 83.5t47 70t72 50.5t93 25l10 69h74l-10 -70q79 -10 130 -56t58 -116l-98 -25
q-4 45 -31 72t-72 35l-34 -241l26 -8q72 -21 115.5 -66t43.5 -118zM351 644q-52 -11 -84 -46t-32 -80q0 -69 85 -94zM478 204q0 75 -95 101l-6 2l-32 -228q66 8 99.5 43.5t33.5 81.5z" />
    <glyph glyph-name="percent" unicode="%" horiz-adv-x="922" 
d="M275 736q66 0 107 -45t41 -120q0 -47 -14 -87.5t-38.5 -70t-58 -46t-72.5 -16.5q-66 0 -108 45t-42 120q0 47 13.5 87.5t38 70t58.5 46t75 16.5zM151 0l550 722h98l-551 -722h-97zM243 423q47 0 77 41t30 100q0 46 -21.5 72t-57.5 26q-24 0 -44 -10.5t-34 -29.5t-22 -44
t-8 -55q0 -48 22 -74t58 -26zM722 371q66 0 107.5 -45t41.5 -121q0 -47 -14 -87t-38.5 -69.5t-58 -46t-72.5 -16.5q-33 0 -60.5 11.5t-48 33.5t-31.5 52.5t-11 67.5q0 47 13.5 87.5t38.5 70t59 46t74 16.5zM691 58q47 0 77 41q30 42 30 100q0 46 -22 72t-57 26
q-24 0 -44 -10.5t-34 -29.5t-22 -44t-8 -55q0 -48 22 -74t58 -26z" />
    <glyph glyph-name="ampersand" unicode="&#x26;" horiz-adv-x="710" 
d="M254 420q-31 45 -47 82t-16 75q0 35 12.5 64t35 50t54 33t69.5 12q71 0 117 -40q47 -41 47 -108q0 -60 -39 -106t-111 -83l137 -198q29 59 36 148l96 2q-5 -67 -25 -125.5t-52 -103.5l85 -122h-111l-40 58q-42 -35 -97 -52.5t-115 -17.5q-114 0 -177 50t-63 140
q0 38 12.5 70t38 60.5t64 56t89.5 55.5zM333 461q49 28 75 56.5t26 64.5q0 33 -21 52t-53 19q-36 0 -57 -22.5t-21 -55.5q0 -24 11.5 -49.5t39.5 -64.5zM305 71q45 0 83.5 14.5t67.5 40.5l-159 233q-72 -43 -110.5 -81t-38.5 -90t42 -84.5t115 -32.5z" />
    <glyph glyph-name="quotesingle" unicode="'" horiz-adv-x="209" 
d="M199 447h-63l6 193q1 31 19.5 47.5t42.5 16.5q19 0 32.5 -11t13.5 -33q0 -9 -3 -20z" />
    <glyph glyph-name="parenleft" unicode="(" horiz-adv-x="254" 
d="M137 -78q-45 66 -70.5 162.5t-25.5 199.5q0 146 59 288q60 141 164 248h79q-93 -103 -150 -248q-57 -144 -57 -298q0 -100 21 -195q21 -92 59 -157h-79z" />
    <glyph glyph-name="parenright" unicode=")" horiz-adv-x="273" 
d="M161 469q0 51 -5.5 101t-16 95.5t-25.5 85t-33 69.5h79q48 -69 71 -164q25 -96 25 -198q0 -154 -61 -292q-59 -138 -161 -244h-79q96 109 151 254q55 144 55 293z" />
    <glyph glyph-name="asterisk" unicode="*" horiz-adv-x="408" 
d="M288 491l37 -56l-43 -29l-38 54q-11 15 -21 33.5t-20 41.5q-10 -34 -39 -75l-40 -54l-43 29l38 56q27 36 57 65q-49 6 -84 19l-64 23l19 49l62 -21q44 -17 78 -38q-9 45 -9 86v67h52v-67q0 -50 -9 -86q30 20 77 38l63 21l19 -49l-65 -23q-34 -13 -83 -19q24 -23 56 -65z
" />
    <glyph glyph-name="plus" unicode="+" horiz-adv-x="633" 
d="M574 295h-208l-30 -209h-83l29 209h-209l11 84h210l29 208h83l-29 -208h208z" />
    <glyph glyph-name="comma" unicode="," horiz-adv-x="262" 
d="M198 30q0 -55 -31 -87.5t-76 -31.5v35q23 0 37 14t13 36q-10 -5 -22 -5q-24 0 -40.5 16t-16.5 44q0 29 18.5 47t46.5 18q31 0 51 -21.5t20 -64.5z" />
    <glyph glyph-name="hyphen" unicode="-" horiz-adv-x="495" 
d="M460 322l-12 -86h-394l12 86h394z" />
    <glyph glyph-name="period" unicode="." horiz-adv-x="276" 
d="M74 48q0 15 7 29.5t18 25.5t26 17.5t31 6.5q26 0 44 -18.5t18 -44.5q0 -31 -26 -55q-26 -23 -57 -23q-26 0 -43.5 18t-17.5 44z" />
    <glyph glyph-name="slash" unicode="/" horiz-adv-x="374" 
d="M335 736h94l-329 -736h-93z" />
    <glyph glyph-name="zero" unicode="0" horiz-adv-x="766" 
d="M437 736q63 -1 116 -24t90.5 -66t58.5 -105t21 -140q2 -85 -25 -161t-75 -132.5t-114 -89t-142 -30.5q-64 0 -118 23t-92.5 65.5t-60 103t-21.5 136.5q-1 86 27 163t77 134.5t115.5 91t142.5 31.5zM368 84q57 -1 104 25.5t80 71.5t51 102.5t17 118.5q0 109 -50.5 172
t-141.5 63q-56 2 -103 -25t-80 -72t-51.5 -103t-17.5 -120q0 -108 50.5 -170.5t141.5 -62.5z" />
    <glyph glyph-name="one" unicode="1" horiz-adv-x="376" 
d="M110 645l145 78h95l-102 -723h-95l88 624l-144 -74z" />
    <glyph glyph-name="two" unicode="2" horiz-adv-x="574" 
d="M38 104l354 264q91 69 91 150q0 57 -36 91t-99 34q-64 0 -110.5 -38t-58.5 -107h-95q8 56 32 100.5t59.5 75t81 46.5t96.5 16t93 -15.5t71 -43t45 -66t16 -84.5q0 -72 -37 -128.5t-103 -104.5l-268 -199l332 1l-13 -94l-466 -2z" />
    <glyph glyph-name="three" unicode="3" horiz-adv-x="578" 
d="M569 632l-207 -179q78 -15 123.5 -69t45.5 -141q0 -59 -21.5 -106.5t-58 -80.5t-85 -50.5t-102.5 -17.5q-52 0 -95.5 16t-74.5 43.5t-48 66t-17 83.5q0 4 0.5 11t1.5 17h96q-1 -5 -1 -20q0 -55 39 -89.5t103 -34.5q36 0 66.5 11.5t53 32t35 50t12.5 65.5q0 55 -32 88.5
t-92 41.5q-8 1 -23 1.5t-37 0.5h-45l7 67l216 189h-309l14 94h448z" />
    <glyph glyph-name="four" unicode="4" horiz-adv-x="623" 
d="M578 143h-90l-20 -143h-93l20 143l-354 1l13 94l380 485h112l-379 -485h241l31 218h93l-31 -218l90 -1z" />
    <glyph glyph-name="five" unicode="5" horiz-adv-x="606" 
d="M289 628l-69 -170q53 31 124 31q51 0 91 -17.5t68.5 -47.5t43.5 -71t15 -89q0 -59 -22 -109.5t-60 -87.5t-89.5 -58t-110.5 -21q-51 0 -94 16t-75 45t-50 68.5t-18 87.5q0 5 0.5 12.5t1.5 18.5h95q-1 -8 -1.5 -14t-0.5 -10q0 -57 38.5 -93t102.5 -36q38 0 71.5 14
t58.5 38.5t39.5 58t14.5 71.5q0 63 -38.5 101.5t-105.5 38.5q-43 0 -81 -17.5t-66 -48.5l-85 23l142 361h354l-14 -95h-280z" />
    <glyph glyph-name="six" unicode="6" horiz-adv-x="664" 
d="M619 270q1 -59 -20 -111t-59 -90.5t-89.5 -60.5t-111.5 -21q-130 0 -197 85q-68 86 -68 226q0 17 0.5 30t1.5 21q6 79 32 149.5t70.5 123.5t107 84t140.5 30q75 0 137 -29t95 -87l-85 -49q-25 37 -65.5 53.5t-88.5 16.5q-49 0 -90 -19.5t-71.5 -52.5t-50 -78t-27.5 -96
q30 52 84.5 79t114.5 27q46 0 89 -15.5t76.5 -45t54 -72.5t20.5 -98zM369 413q-39 0 -72.5 -14.5t-58 -39t-38.5 -57.5t-14 -69q0 -31 10.5 -59t30.5 -49t48.5 -33t64.5 -12q38 0 71.5 14.5t58 39.5t39 57.5t14.5 69.5q0 30 -10.5 57.5t-30.5 48.5t-48.5 33.5t-64.5 12.5z
" />
    <glyph glyph-name="seven" unicode="7" horiz-adv-x="526" 
d="M573 722l-14 -97q-142 -105 -222 -239q-40 -67 -66.5 -122.5t-39.5 -101.5q-13 -45 -22 -85.5t-15 -76.5h-97q3 26 10.5 62.5t20.5 84.5t38 105t62 124q75 136 208 249h-362l14 97h485z" />
    <glyph glyph-name="eight" unicode="8" horiz-adv-x="629" 
d="M457 379q52 -20 80.5 -63.5t28.5 -100.5q0 -51 -21.5 -93t-59.5 -72t-88.5 -46t-109.5 -16q-52 0 -95.5 14t-75 39t-49.5 60t-18 77q0 36 12 69t34.5 60.5t53.5 48t69 32.5q-42 19 -66.5 57t-24.5 86q0 47 19.5 85t52.5 64.5t78 40.5t96 14q45 0 83 -12.5t66.5 -36
t44.5 -55.5t16 -71q0 -66 -33 -112t-93 -69zM365 650q-67 0 -110 -31.5t-43 -91.5q0 -42 34.5 -72.5t97.5 -30.5q72 0 112.5 33.5t40.5 87.5q0 49 -36 77t-96 28zM323 335q-38 0 -70.5 -9.5t-56 -27.5t-37 -44t-13.5 -59q0 -55 41 -87t107 -32q75 0 126 39q52 40 52 107
q0 54 -41.5 83.5t-107.5 29.5z" />
    <glyph glyph-name="nine" unicode="9" horiz-adv-x="673" 
d="M631 429q0 -106 -22.5 -188t-66 -138.5t-106.5 -86t-143 -29.5q-79 0 -142.5 31t-93.5 88l83 48q22 -33 61.5 -52.5t94.5 -19.5q97 0 156 62.5t72 177.5q-15 -24 -37.5 -43t-48.5 -32t-55 -20t-58 -7q-47 0 -90.5 16.5t-76.5 47.5t-53 76.5t-20 102.5q-1 55 20.5 105
t59 87.5t88 59.5t107.5 21q132 0 201 -84q70 -83 70 -223zM366 645q-41 0 -74.5 -15t-57.5 -39.5t-37 -57.5t-13 -69q0 -31 11 -59t30.5 -49.5t47.5 -34t62 -12.5q39 0 73.5 15t59.5 40t39.5 58.5t14.5 70.5q0 32 -11 59.5t-31.5 48t-49 32.5t-64.5 12z" />
    <glyph glyph-name="colon" unicode=":" horiz-adv-x="264" 
d="M86 420q0 32 24.5 55.5t57.5 23.5q26 0 44 -18.5t18 -44.5q0 -15 -7 -29.5t-18 -25t-26 -17t-31 -6.5q-27 0 -44.5 18t-17.5 44zM33 48q0 31 25 55q26 24 58 24q26 0 44 -18.5t18 -44.5q0 -31 -26 -55q-26 -23 -57 -23q-26 0 -44 18t-18 44z" />
    <glyph glyph-name="semicolon" unicode=";" horiz-adv-x="266" 
d="M266 436q0 -31 -26 -55q-26 -23 -57 -23q-26 0 -44 18t-18 44q0 32 25 55.5t57 23.5q26 0 44.5 -18.5t18.5 -44.5zM204 46q0 -30 -10.5 -55t-28.5 -43t-40.5 -28t-46.5 -9l5 35q22 0 38.5 14t19.5 35q-8 -4 -22 -4q-22 0 -36.5 13.5t-14.5 37.5q0 32 21.5 53t53.5 21
q27 0 44 -17.5t17 -52.5z" />
    <glyph glyph-name="less" unicode="&#x3c;" horiz-adv-x="423" 
d="M43 296l368 189l-14 -103l-264 -136l226 -137l-14 -100l-316 189z" />
    <glyph glyph-name="equal" unicode="=" horiz-adv-x="494" 
d="M468 450l-12 -83h-384l12 83h384zM52 227h384l-11 -83h-384z" />
    <glyph glyph-name="greater" unicode="&#x3e;" horiz-adv-x="431" 
d="M31 112l265 136l-226 136l14 101l315 -189l-14 -99l-368 -188z" />
    <glyph glyph-name="question" unicode="?" horiz-adv-x="585" 
d="M548 534q0 -56 -22 -96q-21 -40 -51.5 -67t-79.5 -61q-51 -36 -76 -60t-30 -57l-3 -26h-95l4 26q6 38 26 71q11 16 22 29t24 24.5t29.5 23.5t37.5 27q29 20 50 36t36 33.5t23 38.5t9 49q0 51 -33 84t-93 33q-66 0 -106 -39t-48 -99h-95q7 50 27.5 92t53.5 73.5t77.5 49
t98.5 17.5q47 0 86.5 -15t68 -42t44 -64t15.5 -81zM298 61q0 -30 -24 -52.5t-56 -22.5q-27 0 -44.5 17.5t-17.5 42.5q0 30 24 52.5t57 22.5q27 0 44 -17.5t17 -42.5z" />
    <glyph glyph-name="at" unicode="@" horiz-adv-x="939" 
d="M902 366q1 -62 -15.5 -116.5t-45 -95.5t-66.5 -64t-81 -22q-48 0 -75 27.5t-24 73.5q-26 -42 -72 -66.5t-103 -24.5q-42 0 -76.5 14.5t-60 41.5t-39.5 64.5t-14 83.5q-1 61 19 114t54.5 92t81 61t97.5 21q57 -1 99 -27.5t61 -74.5l16 88h59l-62 -356q-1 -8 -1.5 -14
t-0.5 -10q0 -51 45 -51q27 0 52 19.5t44 53t30.5 78.5t11.5 96q0 69 -24 125.5t-66.5 97.5t-100.5 63.5t-127 22.5q-80 2 -152 -29.5t-126 -86t-85 -127t-30 -153.5q-1 -71 22.5 -133t67 -107.5t103.5 -71.5t132 -25q66 0 133.5 20t122.5 57l27 -53q-57 -37 -138 -58
q-78 -22 -151 -22q-76 -1 -146.5 26.5t-123.5 78.5t-84 122.5t-30 159.5q-2 96 34.5 180t99.5 146.5t147 98t177 33.5q83 1 153.5 -26.5t122.5 -77t80.5 -118t27.5 -149.5zM612 367q0 72 -35.5 109.5t-95.5 37.5q-40 0 -74.5 -18t-59.5 -49.5t-39 -74t-14 -90.5
q0 -70 37.5 -109t97.5 -39q69 0 118 51.5t62 139.5q3 23 3 42z" />
    <glyph glyph-name="A" unicode="A" horiz-adv-x="640" 
d="M602 0h-103l-38 180h-296l-90 -180h-99l358 723h104zM443 265l-71 330l-166 -330h237z" />
    <glyph glyph-name="B" unicode="B" horiz-adv-x="642" 
d="M594 211q0 -48 -19 -87t-52.5 -66.5t-81 -42.5t-104.5 -15h-234h-53l102 722h96h189q94 0 145.5 -47t51.5 -125q0 -69 -37 -117t-95 -71q42 -20 67 -58t25 -93zM236 638l-34 -238h182q70 0 110.5 37.5t40.5 94.5q0 48 -29 77t-86 29h-184zM500 218q0 49 -32 76.5
t-87 27.5h-190l-33 -237h181q75 0 118 36.5t43 96.5z" />
    <glyph glyph-name="C" unicode="C" horiz-adv-x="738" 
d="M644 491q-24 75 -82 112.5t-131 37.5q-58 1 -108.5 -23t-87 -67t-56.5 -100t-19 -122q0 -57 16 -102t45 -76.5t70 -48.5t92 -17q72 0 129.5 37.5t91.5 106.5l93 -39q-41 -90 -126 -145q-86 -56 -194 -56q-66 0 -124.5 22t-102 64.5t-69 106t-25.5 146.5q-1 83 26 157.5
t76.5 130.5t119 88.5t151.5 31.5q59 0 109.5 -16t90.5 -44t67 -65t38 -79z" />
    <glyph glyph-name="D" unicode="D" horiz-adv-x="727" 
d="M703 398q2 -85 -29 -158.5t-86 -127t-128.5 -84t-157.5 -28.5h-191h-61l102 723h99h129q72 0 131 -23t102 -65.5t66.5 -102.5t23.5 -134zM597 399q0 53 -15.5 96t-45 73t-71 46.5t-94.5 16.5h-133l-77 -539h120q69 0 127 23t100 64t65.5 97t23.5 123z" />
    <glyph glyph-name="E" unicode="E" horiz-adv-x="584" 
d="M237 630l-31 -222h309l-14 -88h-308l-32 -226l343 -1l-14 -93h-440l102 723h440l-13 -94z" />
    <glyph glyph-name="F" unicode="F" horiz-adv-x="551" 
d="M236 631l-33 -235h284l-14 -90l-282 1l-43 -307h-99l101 723h99h338l-14 -93z" />
    <glyph glyph-name="G" unicode="G" horiz-adv-x="765" 
d="M398 404h334l-57 -405h-87l8 84q-40 -46 -100.5 -70.5t-124.5 -24.5q-70 0 -128.5 23.5t-99.5 66.5t-64 104t-23 137q-1 87 26.5 163.5t77.5 133t119.5 89t151.5 31.5q59 0 109.5 -14.5t90 -41t67.5 -62.5t41 -78l-90 -35q-21 66 -79.5 102t-136.5 36q-64 1 -115.5 -24
t-87.5 -69t-55 -102t-19 -123q0 -59 18 -104.5t48.5 -76.5t70.5 -47t84 -16q78 0 151 44q72 44 93 153l6 39h-241z" />
    <glyph glyph-name="H" unicode="H" horiz-adv-x="718" 
d="M152 723h98l-44 -313l353 -1l43 314h99l-101 -723h-99l45 322l-352 1l-45 -323h-99z" />
    <glyph glyph-name="I" unicode="I" horiz-adv-x="258" 
d="M50 0l102 723h98l-101 -723h-99z" />
    <glyph glyph-name="J" unicode="J" horiz-adv-x="518" 
d="M518 723l-65 -458l-10 -71q-12 -90 -74 -149q-61 -58 -158 -58q-93 0 -146.5 49t-53.5 130q0 17 3 35l3 24h95l-3 -24q-1 -9 -1.5 -15t-0.5 -9q0 -54 33 -77q35 -21 71 -21q44 0 84 28q41 29 51 98l9 60l64 458h99z" />
    <glyph glyph-name="K" unicode="K" horiz-adv-x="635" 
d="M148 723h100l-57 -394l378 394h129l-320 -339l211 -384h-121l-160 309l-139 -144l-23 -165h-99z" />
    <glyph glyph-name="L" unicode="L" horiz-adv-x="499" 
d="M457 89l-13 -89h-378h-16l102 723h99l-89 -634h295z" />
    <glyph glyph-name="M" unicode="M" horiz-adv-x="851" 
d="M844 723l-102 -723h-98l69 485l-271 -485h-94l-135 483l-68 -483h-95l102 723h95l164 -607l335 607h98z" />
    <glyph glyph-name="N" unicode="N" horiz-adv-x="730" 
d="M152 723h98l291 -560l79 560h97l-101 -723h-98l-291 560l-78 -560h-99z" />
    <glyph glyph-name="O" unicode="O" horiz-adv-x="771" 
d="M432 736q71 0 129.5 -24t100 -67.5t64.5 -104t23 -134.5q1 -90 -29 -167t-82 -133t-120.5 -87.5t-145.5 -29.5q-71 0 -129.5 24t-100 67.5t-64.5 104.5t-23 134q-1 90 29 167t82 133t121 87t145 30zM374 86q55 -1 104.5 23t87 67t59 102t20.5 126q0 53 -15.5 96.5
t-43.5 74.5t-67.5 48t-88.5 17q-55 1 -104.5 -23t-87 -67t-59 -101.5t-20.5 -125.5q0 -53 15.5 -96.5t43.5 -75t67.5 -48.5t88.5 -17z" />
    <glyph glyph-name="P" unicode="P" horiz-adv-x="629" 
d="M635 516q0 -54 -18.5 -101t-53 -82.5t-83 -55.5t-108.5 -20h-187l-36 -257h-99l102 723h264q102 0 160.5 -55t58.5 -152zM532 516q0 54 -32 86t-98 32h-164l-41 -289h165q75 0 118.5 43t50.5 112q1 4 1 16z" />
    <glyph glyph-name="Q" unicode="Q" horiz-adv-x="772" 
d="M693 -1h-110l-30 37q-83 -47 -179 -47q-71 0 -129.5 24t-100 67.5t-64.5 104.5t-23 134q-1 90 29 167t82 133t121 87t145 30q71 0 129.5 -24t100 -67.5t64.5 -104t23 -134.5q0 -97 -34 -179t-94 -139zM393 239h111l56 -72q42 45 64.5 105t22.5 132q0 53 -15.5 96.5
t-43.5 74.5t-68 48t-89 17q-55 1 -104 -23t-86.5 -67t-59 -101.5t-20.5 -125.5q0 -53 15.5 -96.5t43.5 -75t67.5 -48.5t88.5 -17q62 0 115 29z" />
    <glyph glyph-name="R" unicode="R" horiz-adv-x="655" 
d="M649 524q0 -85 -45.5 -144t-123.5 -81l97 -299h-110l-88 287h-190l-40 -287h-99l102 723h98h187q48 0 87 -13.5t67 -39t43 -62.5t15 -84zM238 634l-37 -259h177q81 0 123.5 40.5t42.5 106.5q0 112 -127 112h-179z" />
    <glyph glyph-name="S" unicode="S" horiz-adv-x="581" 
d="M347 736q52 0 93.5 -13t70.5 -36.5t45.5 -55t17.5 -69.5l-96 -25q-3 52 -40.5 80.5t-100.5 28.5q-69 0 -110.5 -34.5t-41.5 -88.5q0 -40 23 -62.5t68 -36.5l98 -29q166 -49 166 -192q0 -47 -19.5 -86.5t-55 -68t-85.5 -44.5t-112 -16q-106 0 -170 46.5t-71 133.5l97 24
q1 -52 39 -82.5t111 -30.5q75 0 121 32t46 86q0 77 -99 107l-101 31q-78 24 -116.5 70.5t-38.5 109.5q0 48 19 88.5t53.5 70t82.5 46t106 16.5z" />
    <glyph glyph-name="T" unicode="T" horiz-adv-x="550" 
d="M595 630h-213l-88 -630h-99l88 630h-214l13 93h526z" />
    <glyph glyph-name="U" unicode="U" horiz-adv-x="707" 
d="M144 723h99l-63 -449q-3 -21 -3 -39q0 -81 48 -117q49 -35 114 -35q81 0 137 46.5t69 146.5l63 447h99l-67 -473q-18 -130 -100 -196t-201 -66q-52 0 -99.5 14t-83.5 43.5t-57.5 74.5t-21.5 106q0 14 1 27.5t3 26.5z" />
    <glyph glyph-name="V" unicode="V" horiz-adv-x="676" 
d="M738 723l-378 -723h-104l-179 723h111l139 -583l303 583h108z" />
    <glyph glyph-name="W" unicode="W" horiz-adv-x="1002" 
d="M1056 723l-319 -723h-95l-97 552l-254 -552h-96l-114 723h106l81 -555l247 555h108l90 -558l239 558h104z" />
    <glyph glyph-name="X" unicode="X" horiz-adv-x="645" 
d="M203 723l145 -277l226 277h114l-292 -360l201 -363h-118l-149 281l-234 -281h-115l301 365l-195 358h116z" />
    <glyph glyph-name="Y" unicode="Y" horiz-adv-x="604" 
d="M189 723l134 -332l236 332h107l-303 -427l-41 -296h-100l42 296l-187 427h112z" />
    <glyph glyph-name="Z" unicode="Z" horiz-adv-x="560" 
d="M20 94l445 534h-368l13 95h484l-13 -94l-445 -535h365l-13 -94h-479z" />
    <glyph glyph-name="bracketleft" unicode="[" horiz-adv-x="289" 
d="M259 -76h-210l123 882h211l-11 -77h-129l-102 -727h129z" />
    <glyph glyph-name="backslash" unicode="\" horiz-adv-x="534" 
d="M365 0l-283 722h94l282 -722h-93z" />
    <glyph glyph-name="bracketright" unicode="]" horiz-adv-x="265" 
d="M135 2l102 727h-129l10 77h211l-124 -882h-210l10 78h130z" />
    <glyph glyph-name="asciicircum" unicode="^" horiz-adv-x="387" 
d="M297 480l-70 144l-71 -144h-83l112 230h83l112 -230h-83z" />
    <glyph glyph-name="underscore" unicode="_" horiz-adv-x="530" 
d="M468 -18l-11 -74h-410l10 74h411z" />
    <glyph glyph-name="grave" unicode="`" horiz-adv-x="217" 
d="M26 896h95l64 -128h-76z" />
    <glyph glyph-name="a" unicode="a" horiz-adv-x="598" 
d="M583 489l-69 -489h-87l7 79q-26 -42 -74 -66.5t-102 -24.5q-98 0 -154 63q-56 64 -56 166q-1 60 18.5 113t53.5 91.5t80 60.5t100 21q61 0 109 -26.5t70 -74.5l16 87h88zM449 265q0 67 -37.5 109t-100.5 42q-36 0 -66.5 -15t-53 -41t-35 -61t-12.5 -75q0 -75 37.5 -113.5
t98.5 -38.5q36 0 67 15.5t53.5 42t35.5 61.5t13 74z" />
    <glyph glyph-name="b" unicode="b" horiz-adv-x="608" 
d="M580 271q0 -58 -19.5 -110t-53.5 -90t-81 -60.5t-102 -22.5q-67 0 -113.5 28t-63.5 70l-18 -86h-86l103 736h94l-44 -313q22 36 65.5 58t100.5 22q47 0 87 -16t69 -46t45.5 -73t16.5 -97zM484 264q0 72 -38 113t-101 41q-37 0 -68.5 -16t-54.5 -43t-35.5 -62t-12.5 -74
q0 -70 39 -110t102 -40q38 0 69 15.5t53.5 41.5t34.5 60.5t12 73.5z" />
    <glyph glyph-name="c" unicode="c" horiz-adv-x="553" 
d="M312 503q85 0 142.5 -40t78.5 -109l-84 -32q-15 48 -50.5 72t-83.5 24q-38 0 -69.5 -15t-54 -41t-35 -61t-12.5 -74q0 -72 39.5 -113t102.5 -41q49 0 86.5 24.5t58.5 66.5l78 -36q-28 -64 -88.5 -102t-136.5 -38q-52 0 -95.5 16.5t-74.5 47.5t-48 75t-17 98q0 58 20 109
t55 88.5t83 59t105 21.5z" />
    <glyph glyph-name="d" unicode="d" horiz-adv-x="599" 
d="M619 736l-104 -736h-87l8 79q-24 -42 -70 -66.5t-104 -24.5q-45 0 -84 15.5t-68 45t-45.5 72.5t-16.5 97q0 61 19.5 113t54 90.5t83 60t105.5 21.5q55 0 100.5 -23.5t68.5 -68.5l46 325h94zM310 418q-36 0 -66 -15.5t-52.5 -42t-35 -61.5t-12.5 -73q0 -33 10 -61.5
t28.5 -48.5t44.5 -31.5t57 -11.5q36 0 67 15.5t53.5 42t35 62t12.5 76.5q0 69 -39.5 109t-102.5 40z" />
    <glyph glyph-name="e" unicode="e" horiz-adv-x="556" 
d="M314 503q99 0 158 -58q60 -58 60 -158q0 -21 -3 -44l-6 -38l-385 1q-4 -66 31.5 -101t95.5 -35q51 0 91 23.5t58 62.5l83 -35q-35 -64 -95.5 -98.5t-135.5 -34.5q-49 0 -89.5 15t-69.5 43.5t-44.5 69.5t-15.5 92v14t1 11q5 57 25.5 106.5t55 86t81.5 57t104 20.5z
M437 274q1 5 1 24q0 58 -34.5 91.5t-91.5 33.5q-63 0 -108 -40t-58 -110z" />
    <glyph glyph-name="f" unicode="f" horiz-adv-x="348" 
d="M325 652q-34 0 -54 -18.5t-26 -61.5l-12 -83h114l-10 -78h-115l-58 -411h-94l57 411h-72l11 78h72l14 99q21 147 163 148q28 0 68 -8l-14 -81q-14 2 -25 3.5t-19 1.5z" />
    <glyph glyph-name="g" unicode="g" horiz-adv-x="556" 
d="M556 540q13 0 17 -1l-10 -80q-3 1 -16 1q-43 0 -72 -27q34 -44 34 -105q0 -46 -17 -84t-48 -66t-74 -43.5t-94 -15.5q-45 0 -87 14q-28 -2 -44 -11.5t-16 -26.5q0 -13 11.5 -23t37.5 -10h147q81 0 127.5 -36.5t46.5 -100.5q0 -84 -72 -121q-71 -37 -190 -37
q-112 0 -172.5 30.5t-60.5 91.5q0 39 19.5 67t54.5 45q-34 22 -34 67q0 32 21 60t66 39q-54 48 -54 123q0 46 18 84.5t49.5 66.5t75 44t94.5 16q68 0 115 -29q19 32 52 50t75 18zM417 321q0 48 -30 76t-81 29q-59 0 -99 -37q-39 -36 -39 -91q0 -48 31 -76t82 -28q60 0 98 36
t38 91zM155 -18h-9q-28 -12 -41.5 -31t-13.5 -41q0 -38 38 -50.5t107 -12.5q37 0 68 3.5t53.5 12t35 23.5t12.5 38q0 29 -22.5 43.5t-60.5 14.5h-167z" />
    <glyph glyph-name="h" unicode="h" horiz-adv-x="576" 
d="M534 319q0 -8 -1 -20t-3 -29l-38 -270h-94l38 267q3 20 3 35q0 62 -32.5 88.5t-79.5 26.5q-27 0 -53 -10t-46.5 -29.5t-35 -48t-19.5 -64.5l-37 -264h-94l104 735h95l-44 -303q25 32 67 51t91 19q33 0 65 -10t57.5 -32t41 -57t15.5 -85z" />
    <glyph glyph-name="i" unicode="i" horiz-adv-x="245" 
d="M124 660q1 28 22.5 48.5t50.5 20.5q26 0 42 -17t16 -43q0 -30 -22 -51t-51 -21q-27 0 -43.5 18t-14.5 45zM212 489l-68 -489h-95l68 489h95z" />
    <glyph glyph-name="j" unicode="j" horiz-adv-x="272" 
d="M151 660q1 28 22.5 48.5t50.5 20.5q26 0 42 -17t16 -43q0 -30 -22 -51t-51 -21q-27 0 -43.5 18t-14.5 45zM-66 -135q26 -10 53 -10q70 0 81 86l77 548h94l-81 -573q-10 -73 -54.5 -110.5t-110.5 -37.5q-40 0 -87 16z" />
    <glyph glyph-name="k" unicode="k" horiz-adv-x="513" 
d="M43 0l103 736h94l-66 -473l248 226h118l-238 -218l163 -271h-112l-122 207l-74 -68l-20 -139h-94z" />
    <glyph glyph-name="l" unicode="l" horiz-adv-x="221" 
d="M146 736h94l-103 -736h-94z" />
    <glyph glyph-name="m" unicode="m" horiz-adv-x="857" 
d="M818 344q0 -18 -3 -41l-42 -303h-91l40 291q3 17 3 32q0 48 -25.5 72.5t-70.5 24.5q-51 0 -87.5 -34t-44.5 -91l-41 -295h-93l41 291q1 5 1.5 13t0.5 18q0 48 -24.5 73t-69.5 25q-55 0 -90.5 -33.5t-43.5 -93.5l-41 -293h-94l68 489h87l-3 -54q24 33 61 50.5t83 17.5
q60 0 97.5 -25.5t50.5 -73.5q23 46 67.5 72.5t101.5 26.5q75 0 118.5 -40.5t43.5 -118.5z" />
    <glyph glyph-name="n" unicode="n" horiz-adv-x="577" 
d="M535 321q0 -21 -3 -45l-39 -276h-94l38 270q1 6 1.5 14t0.5 19q0 60 -30.5 87t-81.5 27q-61 0 -102 -40t-51 -110l-37 -266h-94l68 488h89l-5 -64q22 35 64 56.5t94 21.5q35 0 67.5 -10.5t58 -33t41 -57t15.5 -81.5z" />
    <glyph glyph-name="o" unicode="o" horiz-adv-x="580" 
d="M319 502q51 0 93.5 -17t73.5 -47.5t48.5 -73.5t17.5 -95q1 -55 -19.5 -106.5t-57 -90.5t-86 -62t-107.5 -22q-52 0 -95 17t-74 48t-48 74t-17 95q-1 56 19.5 107t57.5 90t87 61.5t107 21.5zM283 73q37 0 69 15t55 42t36.5 63t13.5 78q0 67 -37.5 106.5t-100.5 40.5
q-39 0 -71 -16t-55 -43t-36 -63t-13 -76q0 -67 38 -107t101 -40z" />
    <glyph glyph-name="p" unicode="p" horiz-adv-x="607" 
d="M579 270q0 -63 -20 -115t-54.5 -89t-81 -57.5t-99.5 -20.5q-61 0 -108 26.5t-68 71.5l-43 -305h-94l100 708h87l-6 -75q24 40 69.5 64.5t100.5 24.5q45 0 84.5 -16t69 -46t46.5 -73.5t17 -97.5zM344 418q-37 0 -68 -16t-53.5 -43t-35 -63t-12.5 -76q0 -33 10.5 -60.5
t29.5 -46.5t45 -29.5t56 -10.5q35 0 65.5 15t53 41t35.5 60.5t13 74.5q0 33 -10 61.5t-28 49t-43.5 32t-57.5 11.5z" />
    <glyph glyph-name="q" unicode="q" horiz-adv-x="600" 
d="M586 489l-100 -708h-94l40 280q-26 -34 -68.5 -53.5t-96.5 -19.5q-46 0 -86 16.5t-69 47t-46 73.5t-17 97q0 57 19 108.5t52.5 89.5t80.5 60.5t103 22.5q69 0 115.5 -29t62.5 -69l17 84h87zM454 267q0 69 -38 109.5t-101 41.5q-39 0 -70.5 -15.5t-54 -42t-34.5 -61.5
t-12 -74q0 -72 39.5 -112t99.5 -40q37 0 68.5 15.5t54 42t35.5 62t13 74.5z" />
    <glyph glyph-name="r" unicode="r" horiz-adv-x="364" 
d="M331 496q31 0 55 -7l-12 -87q-22 5 -46 5q-63 0 -104.5 -40t-50.5 -106l-36 -261h-94l68 489h88l-4 -61q19 34 55 51t81 17z" />
    <glyph glyph-name="s" unicode="s" horiz-adv-x="452" 
d="M209 66q42 0 71.5 17t33.5 53q5 47 -56 63l-67 21q-115 36 -115 125q0 32 13 60.5t37.5 50t59 34.5t77.5 13q73 0 119.5 -33.5t49.5 -90.5l-87 -19q0 30 -23.5 47t-59.5 17q-42 0 -68.5 -21.5t-26.5 -53.5q0 -40 60 -58l68 -20q113 -36 113 -125q0 -75 -54 -116.5
t-145 -41.5q-81 0 -128.5 35.5t-49.5 95.5l87 15q-1 -32 23.5 -50t67.5 -18z" />
    <glyph glyph-name="t" unicode="t" horiz-adv-x="337" 
d="M339 407h-95l-57 -407h-94l57 407h-95l11 82h96l21 153h94l-22 -153h96z" />
    <glyph glyph-name="u" unicode="u" horiz-adv-x="571" 
d="M555 489l-68 -489h-87l3 61q-26 -34 -69 -53.5t-94 -19.5q-72 0 -123 39q-50 41 -50 128q0 7 1 18.5t3 28.5l41 287h95l-39 -281q-3 -18 -3 -33q0 -56 31 -79.5t74 -23.5q57 0 100 37.5t52 104.5l39 275h94z" />
    <glyph glyph-name="v" unicode="v" horiz-adv-x="533" 
d="M561 489l-276 -489h-93l-134 489h102l91 -377l204 377h106z" />
    <glyph glyph-name="w" unicode="w" horiz-adv-x="777" 
d="M805 489l-237 -489h-89l-67 349l-166 -349h-93l-95 489h98l60 -352l163 352h98l61 -354l163 354h104z" />
    <glyph glyph-name="x" unicode="x" horiz-adv-x="505" 
d="M-6 0l211 242l-147 247h110q13 -21 30 -51.5t39 -70.5l31 -55l148 177h115l-216 -247l147 -242l-111 -1l-59 104q-13 25 -22.5 42t-16.5 28l-145 -173h-114z" />
    <glyph glyph-name="y" unicode="y" horiz-adv-x="540" 
d="M569 489l-319 -609q-30 -58 -73 -84.5t-92 -26.5q-53 0 -99 28l35 82q29 -20 62 -20q25 0 47.5 13.5t36.5 40.5l31 60l-140 516h99l100 -401l205 401h107z" />
    <glyph glyph-name="z" unicode="z" horiz-adv-x="467" 
d="M31 86l306 319h-262l12 84h381l-12 -86l-309 -319h264l-11 -84h-381z" />
    <glyph glyph-name="braceleft" unicode="{" horiz-adv-x="283" 
d="M377 806l-10 -73q-63 0 -70 -55l-28 -200q-11 -73 -65 -114q35 -35 35 -89q0 -4 -0.5 -10t-1.5 -15l-26 -181q-1 -9 -1.5 -15t-0.5 -9q0 -30 13.5 -39t41.5 -9l-10 -72h-41q-45 0 -67.5 26t-22.5 68q0 4 0.5 9.5t1.5 13.5l28 194q1 9 1.5 15t0.5 8q0 39 -19.5 53.5
t-38.5 13.5v1l10 73q12 0 25 4.5t24 15t20 28t13 44.5l27 195q8 54 39.5 87t85.5 32h36z" />
    <glyph glyph-name="bar" unicode="|" horiz-adv-x="224" 
d="M230 788l-124 -878h-83l124 878h83z" />
    <glyph glyph-name="braceright" unicode="}" horiz-adv-x="265" 
d="M217 468q0 -40 18.5 -54t39.5 -14l-10 -74q-12 0 -24.5 -4t-24.5 -14t-21 -27.5t-13 -44.5l-27 -199q-7 -52 -40 -82t-78 -30h-42l10 72q30 0 47.5 13.5t23.5 52.5l26 187q10 72 65 114q-34 34 -34 89q0 4 0.5 10t1.5 15l27 197q1 3 1 13q0 45 -55 45l10 73h38
q42 0 67 -25.5t25 -70.5q0 -4 -0.5 -10t-1.5 -14l-27 -194q-1 -9 -1.5 -15t-0.5 -9z" />
    <glyph glyph-name="asciitilde" unicode="~" horiz-adv-x="453" 
d="M422 311q-5 -48 -33 -78.5t-73 -30.5q-27 0 -49 10t-52 30q-24 16 -39 23.5t-32 7.5q-21 0 -35 -12t-17 -34h-54q5 48 33 77t70 29q26 0 48.5 -10t51.5 -29q27 -16 42 -23.5t32 -7.5q20 0 34 12t18 36h55z" />
    <glyph glyph-name="exclamdown" unicode="&#xa1;" horiz-adv-x="248" 
d="M256 678q0 -32 -23 -53.5t-55 -21.5q-26 0 -43 16.5t-17 42.5q0 32 23 53t55 21q26 0 43 -16.5t17 -41.5zM147 1h-109l42 296q11 75 23.5 139.5t26.5 119.5h80q0 -64 -5.5 -123.5t-16.5 -135.5z" />
    <glyph glyph-name="cent" unicode="&#xa2;" horiz-adv-x="591" 
d="M313 618l14 104h83l-14 -103q66 -8 110 -48t56 -101l-83 -28q-10 42 -44 68t-88 26q-38 0 -71 -16.5t-57 -44t-38 -63.5t-14 -75q0 -32 9.5 -59t27 -47t42.5 -31t56 -11q49 0 87.5 23t59.5 60l80 -33q-26 -53 -83 -90t-122 -42l-16 -108h-83l16 112q-78 15 -122 76
q-45 62 -45 145q0 53 17 101t48.5 86.5t75.5 64.5t98 34z" />
    <glyph glyph-name="sterling" unicode="&#xa3;" horiz-adv-x="693" 
d="M528 210h93q-5 -97 -61.5 -153.5t-158.5 -56.5h-362l11 83l2 11q30 5 56.5 21t46.5 40.5t32 56t12 66.5q0 11 -1.5 22.5t-3.5 25.5h-101l12 83h68q-9 41 -9 72q0 54 19 100.5t53.5 81t82 54t105.5 19.5q88 0 146 -45t69 -117l-94 -30q-8 46 -42 73.5t-86 27.5
q-35 0 -64 -12t-50 -34t-33 -51t-12 -64q0 -26 11 -75h256l-11 -83h-228q1 -8 1.5 -15t0.5 -12q0 -58 -23 -119q-23 -59 -75 -86h223q57 0 86.5 30.5t28.5 85.5z" />
    <glyph glyph-name="currency" unicode="&#xa4;" horiz-adv-x="678" 
d="M135 223q-13 21 -19.5 49.5t-6.5 57.5q0 89 64 166l-68 77l71 64l68 -78q71 44 145 44q38 0 72 -11.5t60 -32.5l90 78l54 -64l-90 -77q26 -47 26 -110q0 -88 -64 -164l68 -77l-72 -63l-68 78q-68 -44 -145 -44t-132 43l-90 -77l-53 63zM332 203q35 0 67.5 14t58 38
t40.5 55.5t15 65.5q0 59 -39 99q-37 40 -97 40q-35 0 -67.5 -14t-57.5 -38t-40 -55.5t-15 -66.5q0 -28 10.5 -53.5t28.5 -44t42.5 -29.5t53.5 -11z" />
    <glyph glyph-name="yen" unicode="&#xa5;" horiz-adv-x="718" 
d="M242 722l133 -333l1 1l232 332h113l-262 -360h126l-11 -79h-164l-10 -71h164l-11 -80h-164l-19 -132h-93l18 132h-164l11 80h165l9 71h-164l11 79h128l-159 360h110z" />
    <glyph glyph-name="brokenbar" unicode="&#xa6;" horiz-adv-x="247" 
d="M242 791l-49 -342h-83l49 342h83zM170 282l-50 -352h-83l49 352h84z" />
    <glyph glyph-name="section" unicode="&#xa7;" horiz-adv-x="489" 
d="M368 251q66 -35 66 -108q0 -31 -13 -58.5t-35.5 -47.5t-54 -31.5t-69.5 -11.5q-69 0 -117 32.5t-61 89.5l76 17q14 -68 104 -68q42 0 66 20.5t24 54.5q0 47 -58 60l-63 13q-62 11 -104 46.5t-42 100.5q0 77 68 118q-31 17 -48 45t-17 64q0 32 13 59t35.5 47t54 31.5
t68.5 11.5q69 0 118 -32.5t62 -89.5l-76 -18q-8 33 -35 51t-70 18q-42 0 -66.5 -21t-24.5 -53q0 -48 58 -61l64 -13q63 -12 104 -47.5t41 -101.5q0 -76 -68 -117zM367 366q0 35 -28.5 54t-76.5 19q-52 0 -78.5 -21t-26.5 -54q0 -36 28.5 -54.5t77.5 -18.5q51 0 77.5 21
t26.5 54z" />
    <glyph glyph-name="dieresis" unicode="&#xa8;" horiz-adv-x="360" 
d="M137 829q0 30 23 52t53 22q24 0 40.5 -17.5t16.5 -42.5q0 -28 -23 -50t-52 -22q-25 0 -41.5 17t-16.5 41zM324 829q0 30 23 52t53 22q25 0 41.5 -17.5t16.5 -42.5q0 -14 -6.5 -27t-17 -23t-24 -16t-28.5 -6q-25 0 -41.5 17t-16.5 41z" />
    <glyph glyph-name="copyright" unicode="&#xa9;" horiz-adv-x="826" 
d="M60 356q-2 75 27.5 143t80.5 119t118.5 80.5t142.5 27.5q75 2 142.5 -27.5t118.5 -80.5t80.5 -118.5t27.5 -142.5q2 -75 -27.5 -143t-80.5 -119t-118.5 -81t-142.5 -28q-75 -2 -142.5 28t-118.5 81t-80 119t-28 142zM725 357q1 60 -22.5 114t-64 94.5t-95 64.5t-114.5 22
q-60 1 -114 -22.5t-95 -64t-64.5 -95t-22.5 -114.5q-1 -60 22.5 -114t64 -95t95 -64.5t114.5 -22.5q60 -1 114.5 22.5t95 64.5t64 95.5t22.5 114.5zM536 411q-11 33 -38.5 53t-66.5 20q-54 0 -86.5 -36.5t-32.5 -96.5q0 -58 32 -91.5t84 -33.5q42 0 68 19.5t38 50.5l61 -22
q-17 -49 -62.5 -79.5t-105.5 -30.5q-37 0 -70 14t-58 39t-39.5 59.5t-14.5 75.5q0 42 14.5 77.5t40 61.5t59.5 41t72 15q58 0 103.5 -32t62.5 -83z" />
    <glyph glyph-name="guillemotleft" unicode="&#xab;" horiz-adv-x="605" 
d="M285 244l180 -244h-117h-27l-180 244l248 245h117h27z" />
    <glyph glyph-name="logicalnot" unicode="&#xac;" horiz-adv-x="575" 
d="M433 79v179h-391v100h491v-279h-100z" />
    <glyph glyph-name="registered" unicode="&#xae;" horiz-adv-x="439" 
d="M282 734q37 0 68.5 -13t54.5 -35.5t36 -53.5t13 -67q1 -42 -15.5 -80t-46 -67.5t-68 -46.5t-82.5 -16q-38 0 -69.5 13t-54.5 35.5t-36 54t-13 67.5q-1 41 16.5 79t47 67.5t68.5 46.5t81 16zM243 393q35 0 66 13.5t54.5 36.5t37.5 54t14 66q0 58 -37.5 96t-97.5 38
q-34 0 -65 -13.5t-55 -36.5t-38 -53.5t-14 -65.5q0 -60 36 -97.5t99 -37.5zM218 629h60q55 0 55 -46q0 -19 -10.5 -33t-27.5 -19l21 -71h-38l-19 65h-22l-9 -65h-34zM269 556q26 0 26 22q0 18 -21 18h-27l-6 -40h28z" />
    <glyph glyph-name="macron" unicode="&#xaf;" horiz-adv-x="340" 
d="M433 845l-9 -67h-289l9 67h289z" />
    <glyph glyph-name="degree" unicode="&#xb0;" horiz-adv-x="273" 
d="M76 603q0 51 36 85q37 35 85 35q43 0 73 -29t30 -74q0 -49 -36 -84q-34 -34 -84 -34q-45 0 -74.5 28t-29.5 73zM243 617q0 23 -14 37t-35 14q-25 0 -42.5 -17.5t-17.5 -42.5q0 -22 14.5 -36.5t36.5 -14.5q24 0 41 17t17 43z" />
    <glyph glyph-name="plusminus" unicode="&#xb1;" horiz-adv-x="552" 
d="M504 370l-11 -80h-170l-16 -111h-80l16 111h-171l11 80h171l16 110h80l-16 -110h170zM43 80h421l-12 -80h-421z" />
    <glyph glyph-name="uni00B2" unicode="&#xb2;" horiz-adv-x="411" 
d="M47 378l207 171q23 20 32.5 38t9.5 38q0 39 -24.5 63.5t-66.5 24.5q-39 0 -64 -22t-27 -64h-74q3 75 48 116.5t117 41.5q38 0 68.5 -12t52 -33.5t33.5 -50.5t12 -63q0 -76 -72 -135l-145 -117l205 1v-74l-312 -1v78z" />
    <glyph glyph-name="uni00B3" unicode="&#xb3;" horiz-adv-x="411" 
d="M371 452q0 -35 -13 -64.5t-35.5 -51.5t-52.5 -34t-64 -12q-36 0 -66 12.5t-52.5 34t-35 50.5t-12.5 62h74q1 -36 25.5 -61t66.5 -25q38 0 64.5 24.5t26.5 64.5q0 42 -26 67t-68 25q-23 0 -40 -7l-26 60l111 103l-188 1v73h302v-67l-109 -102q54 -14 86 -55t32 -98z" />
    <glyph glyph-name="acute" unicode="&#xb4;" horiz-adv-x="231" 
d="M40 768l62 128h95l-81 -128h-76z" />
    <glyph glyph-name="uni00B5" unicode="&#xb5;" horiz-adv-x="679" 
d="M631 86v-86h-95q-70 0 -92 61q-48 -72 -147 -75h-3h-4q-92 2 -138 64v-295h-94v733h94v-233q0 -93 36.5 -138.5t105.5 -45.5q66 0 103 43.5t38 131.5v242h94l1 -351q0 -29 11 -39.5t33 -10.5z" />
    <glyph glyph-name="paragraph" unicode="&#xb6;" horiz-adv-x="599" 
d="M406 712v-788h-83v383h-54q-82 0 -133 55q-51 56 -51 148q0 45 13.5 82t37.5 64t58 41.5t75 14.5h137zM510 710v-788h-46v788h46z" />
    <glyph glyph-name="periodcentered" unicode="&#xb7;" horiz-adv-x="325" 
d="M69 257q0 43 32 75q31 31 76 31q38 0 62.5 -25.5t24.5 -62.5q0 -42 -33 -74q-31 -30 -76 -30q-37 0 -61.5 24.5t-24.5 61.5z" />
    <glyph glyph-name="cedilla" unicode="&#xb8;" horiz-adv-x="600" 
d="M224 -123h84q13 0 21.5 7.5t8.5 18.5q0 21 -23 21h-84l6 48l52 57h43l-4 -29l-27 -28h36q29 0 44.5 -18.5t15.5 -44.5q0 -34 -22.5 -58t-56.5 -24h-101z" />
    <glyph glyph-name="uni00B9" unicode="&#xb9;" horiz-adv-x="296" 
d="M210 776v-476h-74v401l-96 -40v74l96 41h74z" />
    <glyph glyph-name="guillemotright" unicode="&#xbb;" horiz-adv-x="606" 
d="M478 244l-249 -244h-116h-28l248 244l-180 245h117h28z" />
    <glyph glyph-name="onequarter" unicode="&#xbc;" horiz-adv-x="771" 
d="M43 678l69 32v-70l-69 -27v65zM179 710v-368h-67v368h67zM53 0l541 710h89l-541 -710h-89zM716 66h-47v-70h-68v70h-175v67l175 235h68v-236h47v-66zM601 132v125l-91 -125h91z" />
    <glyph glyph-name="onehalf" unicode="&#xbd;" horiz-adv-x="812" 
d="M43 678l69 32v-70l-69 -27v65zM179 710v-368h-67v368h67zM53 0l541 710h89l-541 -710h-89zM505 66l139 119q24 21 32.5 34t8.5 31q0 27 -16.5 42t-44.5 15q-28 -1 -44 -16.5t-16 -41.5q0 -10 1 -13h-66q-2 29 6.5 53.5t26 43t43 29t55.5 10.5q54 -1 88 -34.5t35 -87.5
q0 -33 -17 -60.5t-48 -53.5l-84 -71l142 1v-66h-241v66z" />
    <glyph glyph-name="threequarters" unicode="&#xbe;" horiz-adv-x="838" 
d="M311 461q0 -51 -38 -89q-37 -36 -90 -36q-28 0 -52.5 11t-42 29.5t-26.5 43.5t-7 53h67q-1 -5 -1.5 -8.5t-0.5 -5.5q0 -24 18.5 -40.5t44.5 -16.5t44 17t18 42q0 31 -23 49q-13 13 -39 13q-15 0 -29 -6l-30 51l74 75h-128v67h230v-59l-72 -72q32 -12 52 -35
q31 -34 31 -83zM120 0l541 710h89l-541 -710h-89zM783 66h-47v-70h-68v70h-175v67l175 235h68v-236h47v-66zM668 132v125l-91 -125h91z" />
    <glyph glyph-name="questiondown" unicode="&#xbf;" horiz-adv-x="534" 
d="M306 662q0 30 24 52t56 22q28 0 45 -17t17 -42q0 -31 -23.5 -53t-56.5 -22q-27 0 -44.5 17.5t-17.5 42.5zM528 219q-7 -49 -27.5 -92t-53.5 -74t-77.5 -49t-99.5 -18q-47 0 -86.5 15t-67.5 42t-43.5 64.5t-15.5 81.5q0 54 21 94q11 21 23.5 37t28.5 30.5t35.5 29
t43.5 32.5q51 35 76 60t30 58l3 25h95l-4 -25q-6 -41 -26 -73q-20 -31 -45.5 -52.5t-67.5 -50.5q-40 -28 -63 -48q-23 -19 -38.5 -46.5t-15.5 -62.5q0 -51 32.5 -83.5t92.5 -32.5q66 0 106 39t48 99h96z" />
    <glyph glyph-name="Agrave" unicode="&#xc0;" horiz-adv-x="640" 
d="M602 0h-103l-38 180h-296l-90 -180h-99l358 723h104zM443 265l-71 330l-166 -330h237zM268 905h95l64 -128h-76z" />
    <glyph glyph-name="Aacute" unicode="&#xc1;" horiz-adv-x="640" 
d="M602 0h-103l-38 180h-296l-90 -180h-99l358 723h104zM443 265l-71 330l-166 -330h237zM350 777l62 128h95l-81 -128h-76z" />
    <glyph glyph-name="Acircumflex" unicode="&#xc2;" horiz-adv-x="640" 
d="M602 0h-103l-38 180h-296l-90 -180h-99l358 723h104zM443 265l-71 330l-166 -330h237zM448 777l-41 85l-66 -85h-82l103 138h86h19l63 -138h-82z" />
    <glyph glyph-name="Atilde" unicode="&#xc3;" horiz-adv-x="640" 
d="M602 0h-103l-38 180h-296l-90 -180h-99l358 723h104zM443 265l-71 330l-166 -330h237zM342 920q20 0 36.5 -7t35.5 -19q32 -21 55 -21q35 0 38 44h65q-1 -57 -31.5 -87.5t-73.5 -30.5q-22 0 -39 7t-40 20q-15 9 -25.5 14t-20.5 5q-33 0 -37 -46h-65q1 57 30.5 89t71.5 32
z" />
    <glyph glyph-name="Adieresis" unicode="&#xc4;" horiz-adv-x="640" 
d="M602 0h-103l-38 180h-296l-90 -180h-99l358 723h104zM443 265l-71 330l-166 -330h237zM244 838q0 30 23 52t53 22q24 0 40.5 -17.5t16.5 -42.5q0 -28 -23 -50t-52 -22q-25 0 -41.5 17t-16.5 41zM431 838q0 30 23 52t53 22q25 0 41.5 -17.5t16.5 -42.5q0 -14 -6.5 -27
t-17 -23t-24 -16t-28.5 -6q-25 0 -41.5 17t-16.5 41z" />
    <glyph glyph-name="Aring" unicode="&#xc5;" horiz-adv-x="640" 
d="M602 0h-103l-38 180h-296l-90 -180h-99l358 723h104zM443 265l-71 330l-166 -330h237zM293 872q0 27 11 51t30 42t43 28.5t49 10.5q22 0 41 -8.5t32.5 -22.5t21 -33.5t7.5 -40.5q0 -26 -11.5 -49.5t-30 -41.5t-43 -28.5t-50.5 -10.5q-43 0 -71.5 29t-28.5 74zM467 894
q0 21 -13.5 35.5t-35.5 14.5q-26 0 -45 -19t-19 -45q0 -22 13 -36t35 -14q27 0 46 18.5t19 45.5z" />
    <glyph glyph-name="AE" unicode="&#xc6;" horiz-adv-x="914" 
d="M559 629l-31 -220h313l-13 -91l-313 1l-32 -226h348l-15 -93h-346h-94l28 195h-220l-101 -195h-107l380 722h101h21h94h347l-15 -94zM465 629h-56l-181 -350h188z" />
    <glyph glyph-name="Ccedilla" unicode="&#xc7;" horiz-adv-x="738" 
d="M604 229l93 -39q-41 -89 -124 -144q-84 -56 -192 -57l-21 -22h36q29 0 44.5 -18.5t15.5 -44.5q0 -34 -22.5 -58t-56.5 -24h-101l7 50h84q13 0 21.5 7.5t8.5 18.5q0 21 -23 21h-84l6 48l24 26q-56 8 -104 34t-83.5 68t-56 100.5t-20.5 132.5q-1 83 26 157.5t76.5 130.5
t119 88.5t151.5 31.5q59 0 109.5 -16t90.5 -44t67 -65t38 -79l-90 -41q-24 75 -82 112.5t-131 37.5q-58 1 -108.5 -23t-87 -67t-56.5 -100t-19 -122q0 -57 16 -102t45 -76.5t70 -48.5t92 -17q72 0 129.5 37.5t91.5 106.5z" />
    <glyph glyph-name="Egrave" unicode="&#xc8;" horiz-adv-x="584" 
d="M237 630l-31 -222h309l-14 -88h-308l-32 -226l343 -1l-14 -93h-440l102 723h440l-13 -94zM252 905h95l64 -128h-76z" />
    <glyph glyph-name="Eacute" unicode="&#xc9;" horiz-adv-x="584" 
d="M237 630l-31 -222h309l-14 -88h-308l-32 -226l343 -1l-14 -93h-440l102 723h440l-13 -94zM335 777l62 128h95l-81 -128h-76z" />
    <glyph glyph-name="Ecircumflex" unicode="&#xca;" horiz-adv-x="584" 
d="M237 630l-31 -222h309l-14 -88h-308l-32 -226l343 -1l-14 -93h-440l102 723h440l-13 -94zM433 777l-41 85l-66 -85h-82l103 138h86h19l63 -138h-82z" />
    <glyph glyph-name="Edieresis" unicode="&#xcb;" horiz-adv-x="584" 
d="M237 630l-31 -222h309l-14 -88h-308l-32 -226l343 -1l-14 -93h-440l102 723h440l-13 -94zM229 838q0 30 23 52t53 22q24 0 40.5 -17.5t16.5 -42.5q0 -28 -23 -50t-52 -22q-25 0 -41.5 17t-16.5 41zM416 838q0 30 23 52t53 22q25 0 41.5 -17.5t16.5 -42.5q0 -14 -6.5 -27
t-17 -23t-24 -16t-28.5 -6q-25 0 -41.5 17t-16.5 41z" />
    <glyph glyph-name="Igrave" unicode="&#xcc;" horiz-adv-x="258" 
d="M50 0l102 723h98l-101 -723h-99zM81 905h95l64 -128h-76z" />
    <glyph glyph-name="Iacute" unicode="&#xcd;" horiz-adv-x="258" 
d="M50 0l102 723h98l-101 -723h-99zM164 777l62 128h95l-81 -128h-76z" />
    <glyph glyph-name="Icircumflex" unicode="&#xce;" horiz-adv-x="258" 
d="M50 0l102 723h98l-101 -723h-99zM262 777l-41 85l-66 -85h-82l103 138h86h19l63 -138h-82z" />
    <glyph glyph-name="Idieresis" unicode="&#xcf;" horiz-adv-x="258" 
d="M50 0l102 723h98l-101 -723h-99zM58 838q0 30 23 52t53 22q24 0 40.5 -17.5t16.5 -42.5q0 -28 -23 -50t-52 -22q-25 0 -41.5 17t-16.5 41zM245 838q0 30 23 52t53 22q25 0 41.5 -17.5t16.5 -42.5q0 -14 -6.5 -27t-17 -23t-24 -16t-28.5 -6q-25 0 -41.5 17t-16.5 41z" />
    <glyph glyph-name="Eth" unicode="&#xd0;" horiz-adv-x="719" 
d="M695 398q2 -85 -29 -158.5t-85.5 -127t-128 -84t-157.5 -28.5h-191h-62l45 320h-75l11 84h76l45 319h99h130q72 0 131 -23t101.5 -65t66 -102t23.5 -135zM590 399q0 53 -15.5 96t-45 73t-71.5 46.5t-95 16.5h-133l-32 -227h95l-11 -84h-96l-32 -228h119q70 0 128 23
t100 64t65.5 97t23.5 123z" />
    <glyph glyph-name="Ntilde" unicode="&#xd1;" horiz-adv-x="730" 
d="M152 723h98l291 -560l79 560h97l-101 -723h-98l-291 560l-78 -560h-99zM391 920q20 0 36.5 -7t35.5 -19q32 -21 55 -21q35 0 38 44h65q-1 -57 -31.5 -87.5t-73.5 -30.5q-22 0 -39 7t-40 20q-15 9 -25.5 14t-20.5 5q-33 0 -37 -46h-65q1 57 30.5 89t71.5 32z" />
    <glyph glyph-name="Ograve" unicode="&#xd2;" horiz-adv-x="771" 
d="M432 736q71 0 129.5 -24t100 -67.5t64.5 -104t23 -134.5q1 -90 -29 -167t-82 -133t-120.5 -87.5t-145.5 -29.5q-71 0 -129.5 24t-100 67.5t-64.5 104.5t-23 134q-1 90 29 167t82 133t121 87t145 30zM374 86q55 -1 104.5 23t87 67t59 102t20.5 126q0 53 -15.5 96.5
t-43.5 74.5t-67.5 48t-88.5 17q-55 1 -104.5 -23t-87 -67t-59 -101.5t-20.5 -125.5q0 -53 15.5 -96.5t43.5 -75t67.5 -48.5t88.5 -17zM333 905h95l64 -128h-76z" />
    <glyph glyph-name="Oacute" unicode="&#xd3;" horiz-adv-x="771" 
d="M432 736q71 0 129.5 -24t100 -67.5t64.5 -104t23 -134.5q1 -90 -29 -167t-82 -133t-120.5 -87.5t-145.5 -29.5q-71 0 -129.5 24t-100 67.5t-64.5 104.5t-23 134q-1 90 29 167t82 133t121 87t145 30zM374 86q55 -1 104.5 23t87 67t59 102t20.5 126q0 53 -15.5 96.5
t-43.5 74.5t-67.5 48t-88.5 17q-55 1 -104.5 -23t-87 -67t-59 -101.5t-20.5 -125.5q0 -53 15.5 -96.5t43.5 -75t67.5 -48.5t88.5 -17zM415 777l62 128h95l-81 -128h-76z" />
    <glyph glyph-name="Ocircumflex" unicode="&#xd4;" horiz-adv-x="771" 
d="M432 736q71 0 129.5 -24t100 -67.5t64.5 -104t23 -134.5q1 -90 -29 -167t-82 -133t-120.5 -87.5t-145.5 -29.5q-71 0 -129.5 24t-100 67.5t-64.5 104.5t-23 134q-1 90 29 167t82 133t121 87t145 30zM374 86q55 -1 104.5 23t87 67t59 102t20.5 126q0 53 -15.5 96.5
t-43.5 74.5t-67.5 48t-88.5 17q-55 1 -104.5 -23t-87 -67t-59 -101.5t-20.5 -125.5q0 -53 15.5 -96.5t43.5 -75t67.5 -48.5t88.5 -17zM513 777l-41 85l-66 -85h-82l103 138h86h19l63 -138h-82z" />
    <glyph glyph-name="Otilde" unicode="&#xd5;" horiz-adv-x="771" 
d="M432 736q71 0 129.5 -24t100 -67.5t64.5 -104t23 -134.5q1 -90 -29 -167t-82 -133t-120.5 -87.5t-145.5 -29.5q-71 0 -129.5 24t-100 67.5t-64.5 104.5t-23 134q-1 90 29 167t82 133t121 87t145 30zM374 86q55 -1 104.5 23t87 67t59 102t20.5 126q0 53 -15.5 96.5
t-43.5 74.5t-67.5 48t-88.5 17q-55 1 -104.5 -23t-87 -67t-59 -101.5t-20.5 -125.5q0 -53 15.5 -96.5t43.5 -75t67.5 -48.5t88.5 -17zM407 920q20 0 36.5 -7t35.5 -19q32 -21 55 -21q35 0 38 44h65q-1 -57 -31.5 -87.5t-73.5 -30.5q-22 0 -39 7t-40 20q-15 9 -25.5 14
t-20.5 5q-33 0 -37 -46h-65q1 57 30.5 89t71.5 32z" />
    <glyph glyph-name="Odieresis" unicode="&#xd6;" horiz-adv-x="771" 
d="M432 736q71 0 129.5 -24t100 -67.5t64.5 -104t23 -134.5q1 -90 -29 -167t-82 -133t-120.5 -87.5t-145.5 -29.5q-71 0 -129.5 24t-100 67.5t-64.5 104.5t-23 134q-1 90 29 167t82 133t121 87t145 30zM374 86q55 -1 104.5 23t87 67t59 102t20.5 126q0 53 -15.5 96.5
t-43.5 74.5t-67.5 48t-88.5 17q-55 1 -104.5 -23t-87 -67t-59 -101.5t-20.5 -125.5q0 -53 15.5 -96.5t43.5 -75t67.5 -48.5t88.5 -17zM309 838q0 30 23 52t53 22q24 0 40.5 -17.5t16.5 -42.5q0 -28 -23 -50t-52 -22q-25 0 -41.5 17t-16.5 41zM496 838q0 30 23 52t53 22
q25 0 41.5 -17.5t16.5 -42.5q0 -14 -6.5 -27t-17 -23t-24 -16t-28.5 -6q-25 0 -41.5 17t-16.5 41z" />
    <glyph glyph-name="multiply" unicode="&#xd7;" horiz-adv-x="567" 
d="M351 314l131 -153l-71 -62l-131 152l-172 -154l-54 62l173 155l-131 153l71 62l130 -152l173 154l53 -62z" />
    <glyph glyph-name="Oslash" unicode="&#xd8;" horiz-adv-x="775" 
d="M739 407q1 -90 -29 -167t-82 -133.5t-120.5 -87.5t-145.5 -30q-77 0 -141 29l-18 -28h-95l44 71q-52 45 -80 111.5t-28 147.5q-1 90 29 166.5t82 133t121 88t145 29.5q77 0 137 -27l15 24h95l-41 -66q54 -43 83 -110t29 -151zM504 625q-37 15 -85 15q-55 1 -104.5 -23
t-86.5 -67t-58.5 -101t-20.5 -126q0 -54 15 -97.5t44 -74.5zM634 404q0 54 -16 99t-46 77l-297 -476q42 -17 89 -17q55 -1 104.5 23t86.5 67t58.5 101.5t20.5 125.5z" />
    <glyph glyph-name="Ugrave" unicode="&#xd9;" horiz-adv-x="707" 
d="M144 723h99l-63 -449q-3 -21 -3 -39q0 -81 48 -117q49 -35 114 -35q81 0 137 46.5t69 146.5l63 447h99l-67 -473q-18 -130 -100 -196t-201 -66q-52 0 -99.5 14t-83.5 43.5t-57.5 74.5t-21.5 106q0 14 1 27.5t3 26.5zM306 905h95l64 -128h-76z" />
    <glyph glyph-name="Uacute" unicode="&#xda;" horiz-adv-x="707" 
d="M144 723h99l-63 -449q-3 -21 -3 -39q0 -81 48 -117q49 -35 114 -35q81 0 137 46.5t69 146.5l63 447h99l-67 -473q-18 -130 -100 -196t-201 -66q-52 0 -99.5 14t-83.5 43.5t-57.5 74.5t-21.5 106q0 14 1 27.5t3 26.5zM389 777l62 128h95l-81 -128h-76z" />
    <glyph glyph-name="Ucircumflex" unicode="&#xdb;" horiz-adv-x="707" 
d="M144 723h99l-63 -449q-3 -21 -3 -39q0 -81 48 -117q49 -35 114 -35q81 0 137 46.5t69 146.5l63 447h99l-67 -473q-18 -130 -100 -196t-201 -66q-52 0 -99.5 14t-83.5 43.5t-57.5 74.5t-21.5 106q0 14 1 27.5t3 26.5zM487 777l-41 85l-66 -85h-82l103 138h86h19l63 -138
h-82z" />
    <glyph glyph-name="Udieresis" unicode="&#xdc;" horiz-adv-x="707" 
d="M144 723h99l-63 -449q-3 -21 -3 -39q0 -81 48 -117q49 -35 114 -35q81 0 137 46.5t69 146.5l63 447h99l-67 -473q-18 -130 -100 -196t-201 -66q-52 0 -99.5 14t-83.5 43.5t-57.5 74.5t-21.5 106q0 14 1 27.5t3 26.5zM283 838q0 30 23 52t53 22q24 0 40.5 -17.5
t16.5 -42.5q0 -28 -23 -50t-52 -22q-25 0 -41.5 17t-16.5 41zM470 838q0 30 23 52t53 22q25 0 41.5 -17.5t16.5 -42.5q0 -14 -6.5 -27t-17 -23t-24 -16t-28.5 -6q-25 0 -41.5 17t-16.5 41z" />
    <glyph glyph-name="Yacute" unicode="&#xdd;" horiz-adv-x="604" 
d="M189 723l134 -332l236 332h107l-303 -427l-41 -296h-100l42 296l-187 427h112zM337 777l62 128h95l-81 -128h-76z" />
    <glyph glyph-name="Thorn" unicode="&#xde;" horiz-adv-x="585" 
d="M152 723h94l-22 -147l145 -1q51 0 89 -15.5t64 -41.5t39 -61t13 -73q0 -45 -17 -87.5t-49 -75.5t-78.5 -53t-105.5 -20h-159l-21 -148h-94zM321 239q35 0 62.5 12t47 32t30 45.5t10.5 51.5q0 45 -29.5 75t-84.5 30h-145l-35 -246h144z" />
    <glyph glyph-name="germandbls" unicode="&#xdf;" horiz-adv-x="569" 
d="M538 244q0 -54 -20 -99t-56 -77.5t-86.5 -50t-112.5 -17.5q-35 0 -77 11l13 90q33 -15 74 -15q38 0 69.5 11t54.5 31t35.5 48.5t12.5 64.5q0 66 -40.5 98t-106.5 30v2l11 77q29 0 52.5 9t40.5 24.5t26.5 36t9.5 43.5q0 42 -27.5 65.5t-73.5 23.5q-51 0 -84 -29t-42 -92
l-75 -529h-94l73 521q14 103 72.5 159t152.5 56q41 0 75 -11t59 -32t38.5 -51.5t13.5 -69.5q0 -51 -21.5 -90t-58.5 -66q45 -25 68.5 -68.5t23.5 -103.5z" />
    <glyph glyph-name="agrave" unicode="&#xe0;" horiz-adv-x="598" 
d="M583 489l-69 -489h-87l7 79q-26 -42 -74 -66.5t-102 -24.5q-98 0 -154 63q-56 64 -56 166q-1 60 18.5 113t53.5 91.5t80 60.5t100 21q61 0 109 -26.5t70 -74.5l16 87h88zM449 265q0 67 -37.5 109t-100.5 42q-36 0 -66.5 -15t-53 -41t-35 -61t-12.5 -75q0 -75 37.5 -113.5
t98.5 -38.5q36 0 67 15.5t53.5 42t35.5 61.5t13 74zM216 675h95l64 -128h-76z" />
    <glyph glyph-name="aacute" unicode="&#xe1;" horiz-adv-x="598" 
d="M583 489l-69 -489h-87l7 79q-26 -42 -74 -66.5t-102 -24.5q-98 0 -154 63q-56 64 -56 166q-1 60 18.5 113t53.5 91.5t80 60.5t100 21q61 0 109 -26.5t70 -74.5l16 87h88zM449 265q0 67 -37.5 109t-100.5 42q-36 0 -66.5 -15t-53 -41t-35 -61t-12.5 -75q0 -75 37.5 -113.5
t98.5 -38.5q36 0 67 15.5t53.5 42t35.5 61.5t13 74zM299 547l62 128h95l-81 -128h-76z" />
    <glyph glyph-name="acircumflex" unicode="&#xe2;" horiz-adv-x="598" 
d="M583 489l-69 -489h-87l7 79q-26 -42 -74 -66.5t-102 -24.5q-98 0 -154 63q-56 64 -56 166q-1 60 18.5 113t53.5 91.5t80 60.5t100 21q61 0 109 -26.5t70 -74.5l16 87h88zM449 265q0 67 -37.5 109t-100.5 42q-36 0 -66.5 -15t-53 -41t-35 -61t-12.5 -75q0 -75 37.5 -113.5
t98.5 -38.5q36 0 67 15.5t53.5 42t35.5 61.5t13 74zM397 547l-41 85l-66 -85h-82l103 138h86h19l63 -138h-82z" />
    <glyph glyph-name="atilde" unicode="&#xe3;" horiz-adv-x="598" 
d="M583 489l-69 -489h-87l7 79q-26 -42 -74 -66.5t-102 -24.5q-98 0 -154 63q-56 64 -56 166q-1 60 18.5 113t53.5 91.5t80 60.5t100 21q61 0 109 -26.5t70 -74.5l16 87h88zM449 265q0 67 -37.5 109t-100.5 42q-36 0 -66.5 -15t-53 -41t-35 -61t-12.5 -75q0 -75 37.5 -113.5
t98.5 -38.5q36 0 67 15.5t53.5 42t35.5 61.5t13 74zM290 690q20 0 36.5 -7t35.5 -19q32 -21 55 -21q35 0 38 44h65q-1 -57 -31.5 -87.5t-73.5 -30.5q-22 0 -39 7t-40 20q-15 9 -25.5 14t-20.5 5q-33 0 -37 -46h-65q1 57 30.5 89t71.5 32z" />
    <glyph glyph-name="adieresis" unicode="&#xe4;" horiz-adv-x="598" 
d="M583 489l-69 -489h-87l7 79q-26 -42 -74 -66.5t-102 -24.5q-98 0 -154 63q-56 64 -56 166q-1 60 18.5 113t53.5 91.5t80 60.5t100 21q61 0 109 -26.5t70 -74.5l16 87h88zM449 265q0 67 -37.5 109t-100.5 42q-36 0 -66.5 -15t-53 -41t-35 -61t-12.5 -75q0 -75 37.5 -113.5
t98.5 -38.5q36 0 67 15.5t53.5 42t35.5 61.5t13 74zM193 608q0 30 23 52t53 22q24 0 40.5 -17.5t16.5 -42.5q0 -28 -23 -50t-52 -22q-25 0 -41.5 17t-16.5 41zM380 608q0 30 23 52t53 22q25 0 41.5 -17.5t16.5 -42.5q0 -14 -6.5 -27t-17 -23t-24 -16t-28.5 -6
q-25 0 -41.5 17t-16.5 41z" />
    <glyph glyph-name="aring" unicode="&#xe5;" horiz-adv-x="598" 
d="M583 489l-69 -489h-87l7 79q-26 -42 -74 -66.5t-102 -24.5q-98 0 -154 63q-56 64 -56 166q-1 60 18.5 113t53.5 91.5t80 60.5t100 21q61 0 109 -26.5t70 -74.5l16 87h88zM449 265q0 67 -37.5 109t-100.5 42q-36 0 -66.5 -15t-53 -41t-35 -61t-12.5 -75q0 -75 37.5 -113.5
t98.5 -38.5q36 0 67 15.5t53.5 42t35.5 61.5t13 74zM242 642q0 27 11 51t30 42t43 28.5t49 10.5q22 0 41 -8.5t32.5 -22.5t21 -33.5t7.5 -40.5q0 -26 -11.5 -49.5t-30 -41.5t-43 -28.5t-50.5 -10.5q-43 0 -71.5 29t-28.5 74zM416 664q0 21 -13.5 35.5t-35.5 14.5
q-26 0 -45 -19t-19 -45q0 -22 13 -36t35 -14q27 0 46 18.5t19 45.5z" />
    <glyph glyph-name="ae" unicode="&#xe6;" horiz-adv-x="871" 
d="M847 297q0 -20 -3 -41q-1 -10 -3 -23.5t-3 -22.5h-386q-3 -67 33.5 -103.5t97.5 -36.5q48 0 88.5 22.5t66.5 61.5l68 -37q-39 -64 -99.5 -96.5t-132.5 -32.5q-66 0 -113.5 28t-67.5 77q-27 -51 -77.5 -78t-114.5 -27q-37 0 -69.5 9t-55.5 27t-36.5 45t-13.5 63
q0 33 12 60.5t33.5 48t51.5 31.5t66 11h139q22 0 32.5 11.5t10.5 39.5q0 45 -29.5 67t-72.5 22q-48 0 -82.5 -20.5t-59.5 -60.5l-65 42q35 60 88.5 89.5t119.5 29.5q63 0 107.5 -26t61.5 -71q32 43 84.5 70t113.5 27q48 0 87 -14.5t66 -41.5t42 -65t15 -85zM754 301
q0 57 -34.5 90t-91.5 33q-61 0 -105.5 -38.5t-61.5 -105.5h292q1 5 1 21zM365 213h-160q-43 0 -66 -21.5t-23 -56.5q0 -36 26.5 -54t69.5 -18q66 0 102.5 35.5t47.5 95.5z" />
    <glyph glyph-name="ccedilla" unicode="&#xe7;" horiz-adv-x="553" 
d="M431 164l78 -36q-28 -63 -86 -101t-133 -39l-21 -22h36q29 0 44.5 -18.5t15.5 -44.5q0 -34 -22.5 -58t-56.5 -24h-101l7 50h84q13 0 21.5 7.5t8.5 18.5q0 21 -23 21h-84l6 48l24 27q-84 15 -132 76.5t-48 155.5q0 58 20 109t55 88.5t83 59t105 21.5q85 0 142.5 -40
t78.5 -109l-84 -32q-15 48 -50.5 72t-83.5 24q-38 0 -69.5 -15t-54 -41t-35 -61t-12.5 -74q0 -72 39.5 -113t102.5 -41q49 0 86.5 24.5t58.5 66.5z" />
    <glyph glyph-name="egrave" unicode="&#xe8;" horiz-adv-x="556" 
d="M314 503q99 0 158 -58q60 -58 60 -158q0 -21 -3 -44l-6 -38l-385 1q-4 -66 31.5 -101t95.5 -35q51 0 91 23.5t58 62.5l83 -35q-35 -64 -95.5 -98.5t-135.5 -34.5q-49 0 -89.5 15t-69.5 43.5t-44.5 69.5t-15.5 92v14t1 11q5 57 25.5 106.5t55 86t81.5 57t104 20.5z
M437 274q1 5 1 24q0 58 -34.5 91.5t-91.5 33.5q-63 0 -108 -40t-58 -110zM204 675h95l64 -128h-76z" />
    <glyph glyph-name="eacute" unicode="&#xe9;" horiz-adv-x="556" 
d="M314 503q99 0 158 -58q60 -58 60 -158q0 -21 -3 -44l-6 -38l-385 1q-4 -66 31.5 -101t95.5 -35q51 0 91 23.5t58 62.5l83 -35q-35 -64 -95.5 -98.5t-135.5 -34.5q-49 0 -89.5 15t-69.5 43.5t-44.5 69.5t-15.5 92v14t1 11q5 57 25.5 106.5t55 86t81.5 57t104 20.5z
M437 274q1 5 1 24q0 58 -34.5 91.5t-91.5 33.5q-63 0 -108 -40t-58 -110zM287 547l62 128h95l-81 -128h-76z" />
    <glyph glyph-name="ecircumflex" unicode="&#xea;" horiz-adv-x="556" 
d="M314 503q99 0 158 -58q60 -58 60 -158q0 -21 -3 -44l-6 -38l-385 1q-4 -66 31.5 -101t95.5 -35q51 0 91 23.5t58 62.5l83 -35q-35 -64 -95.5 -98.5t-135.5 -34.5q-49 0 -89.5 15t-69.5 43.5t-44.5 69.5t-15.5 92v14t1 11q5 57 25.5 106.5t55 86t81.5 57t104 20.5z
M437 274q1 5 1 24q0 58 -34.5 91.5t-91.5 33.5q-63 0 -108 -40t-58 -110zM385 547l-41 85l-66 -85h-82l103 138h86h19l63 -138h-82z" />
    <glyph glyph-name="edieresis" unicode="&#xeb;" horiz-adv-x="556" 
d="M314 503q99 0 158 -58q60 -58 60 -158q0 -21 -3 -44l-6 -38l-385 1q-4 -66 31.5 -101t95.5 -35q51 0 91 23.5t58 62.5l83 -35q-35 -64 -95.5 -98.5t-135.5 -34.5q-49 0 -89.5 15t-69.5 43.5t-44.5 69.5t-15.5 92v14t1 11q5 57 25.5 106.5t55 86t81.5 57t104 20.5z
M437 274q1 5 1 24q0 58 -34.5 91.5t-91.5 33.5q-63 0 -108 -40t-58 -110zM234 597q0 30 23 52t53 22q24 0 40.5 -17.5t16.5 -42.5q0 -28 -23 -50t-52 -22q-25 0 -41.5 17t-16.5 41zM421 597q0 30 23 52t53 22q25 0 41.5 -17.5t16.5 -42.5q0 -14 -6.5 -27t-17 -23t-24 -16
t-28.5 -6q-25 0 -41.5 17t-16.5 41z" />
    <glyph glyph-name="igrave" unicode="&#xec;" horiz-adv-x="210" 
d="M194 489l-68 -489h-95l69 489h94zM28 675h95l64 -128h-76z" />
    <glyph glyph-name="iacute" unicode="&#xed;" horiz-adv-x="210" 
d="M194 489l-68 -489h-95l69 489h94zM111 547l62 128h95l-81 -128h-76z" />
    <glyph glyph-name="icircumflex" unicode="&#xee;" horiz-adv-x="210" 
d="M194 489l-68 -489h-95l69 489h94zM208 547l-41 85l-66 -85h-82l103 138h86h19l63 -138h-82z" />
    <glyph glyph-name="idieresis" unicode="&#xef;" horiz-adv-x="210" 
d="M194 489l-68 -489h-95l69 489h94zM4 608q0 30 23 52t53 22q24 0 40.5 -17.5t16.5 -42.5q0 -28 -23 -50t-52 -22q-25 0 -41.5 17t-16.5 41zM191 608q0 30 23 52t53 22q25 0 41.5 -17.5t16.5 -42.5q0 -14 -6.5 -27t-17 -23t-24 -16t-28.5 -6q-25 0 -41.5 17t-16.5 41z" />
    <glyph glyph-name="eth" unicode="&#xf0;" horiz-adv-x="650" 
d="M608 331q0 -80 -22.5 -143.5t-63 -108t-96 -68t-121.5 -23.5q-58 0 -105.5 18.5t-80.5 51.5t-51 78t-18 98q-1 61 22.5 114.5t64.5 92.5t94.5 61.5t111.5 21.5q45 0 85.5 -14t67.5 -41q-25 83 -86 146l-78 -62l-39 55l68 55q-18 16 -38 30t-43 25l56 66q62 -32 99 -65
l73 57l41 -54l-65 -51q60 -64 91 -155q33 -91 33 -185zM504 279q0 34 -11 62.5t-32 49.5t-50.5 32.5t-65.5 11.5q-43 0 -79.5 -16t-63.5 -43.5t-42 -63.5t-15 -75q0 -34 11.5 -63.5t32.5 -51t50.5 -33.5t65.5 -12q44 0 80.5 17t63 45t41 64.5t14.5 75.5z" />
    <glyph glyph-name="ntilde" unicode="&#xf1;" horiz-adv-x="577" 
d="M535 321q0 -21 -3 -45l-39 -276h-94l38 270q1 6 1.5 14t0.5 19q0 60 -30.5 87t-81.5 27q-61 0 -102 -40t-51 -110l-37 -266h-94l68 488h89l-5 -64q22 35 64 56.5t94 21.5q35 0 67.5 -10.5t58 -33t41 -57t15.5 -81.5zM285 690q20 0 36.5 -7t35.5 -19q32 -21 55 -21
q35 0 38 44h65q-1 -57 -31.5 -87.5t-73.5 -30.5q-22 0 -39 7t-40 20q-15 9 -25.5 14t-20.5 5q-33 0 -37 -46h-65q1 57 30.5 89t71.5 32z" />
    <glyph glyph-name="ograve" unicode="&#xf2;" horiz-adv-x="580" 
d="M319 502q51 0 93.5 -17t73.5 -47.5t48.5 -73.5t17.5 -95q1 -55 -19.5 -106.5t-57 -90.5t-86 -62t-107.5 -22q-52 0 -95 17t-74 48t-48 74t-17 95q-1 56 19.5 107t57.5 90t87 61.5t107 21.5zM283 73q37 0 69 15t55 42t36.5 63t13.5 78q0 67 -37.5 106.5t-100.5 40.5
q-39 0 -71 -16t-55 -43t-36 -63t-13 -76q0 -67 38 -107t101 -40zM215 675h95l64 -128h-76z" />
    <glyph glyph-name="oacute" unicode="&#xf3;" horiz-adv-x="580" 
d="M319 502q51 0 93.5 -17t73.5 -47.5t48.5 -73.5t17.5 -95q1 -55 -19.5 -106.5t-57 -90.5t-86 -62t-107.5 -22q-52 0 -95 17t-74 48t-48 74t-17 95q-1 56 19.5 107t57.5 90t87 61.5t107 21.5zM283 73q37 0 69 15t55 42t36.5 63t13.5 78q0 67 -37.5 106.5t-100.5 40.5
q-39 0 -71 -16t-55 -43t-36 -63t-13 -76q0 -67 38 -107t101 -40zM298 547l62 128h95l-81 -128h-76z" />
    <glyph glyph-name="ocircumflex" unicode="&#xf4;" horiz-adv-x="580" 
d="M319 502q51 0 93.5 -17t73.5 -47.5t48.5 -73.5t17.5 -95q1 -55 -19.5 -106.5t-57 -90.5t-86 -62t-107.5 -22q-52 0 -95 17t-74 48t-48 74t-17 95q-1 56 19.5 107t57.5 90t87 61.5t107 21.5zM283 73q37 0 69 15t55 42t36.5 63t13.5 78q0 67 -37.5 106.5t-100.5 40.5
q-39 0 -71 -16t-55 -43t-36 -63t-13 -76q0 -67 38 -107t101 -40zM396 547l-41 85l-66 -85h-82l103 138h86h19l63 -138h-82z" />
    <glyph glyph-name="otilde" unicode="&#xf5;" horiz-adv-x="580" 
d="M319 502q51 0 93.5 -17t73.5 -47.5t48.5 -73.5t17.5 -95q1 -55 -19.5 -106.5t-57 -90.5t-86 -62t-107.5 -22q-52 0 -95 17t-74 48t-48 74t-17 95q-1 56 19.5 107t57.5 90t87 61.5t107 21.5zM283 73q37 0 69 15t55 42t36.5 63t13.5 78q0 67 -37.5 106.5t-100.5 40.5
q-39 0 -71 -16t-55 -43t-36 -63t-13 -76q0 -67 38 -107t101 -40zM275 690q20 0 36.5 -7t35.5 -19q32 -21 55 -21q35 0 38 44h65q-1 -57 -31.5 -87.5t-73.5 -30.5q-22 0 -39 7t-40 20q-15 9 -25.5 14t-20.5 5q-33 0 -37 -46h-65q1 57 30.5 89t71.5 32z" />
    <glyph glyph-name="odieresis" unicode="&#xf6;" horiz-adv-x="580" 
d="M319 502q51 0 93.5 -17t73.5 -47.5t48.5 -73.5t17.5 -95q1 -55 -19.5 -106.5t-57 -90.5t-86 -62t-107.5 -22q-52 0 -95 17t-74 48t-48 74t-17 95q-1 56 19.5 107t57.5 90t87 61.5t107 21.5zM283 73q37 0 69 15t55 42t36.5 63t13.5 78q0 67 -37.5 106.5t-100.5 40.5
q-39 0 -71 -16t-55 -43t-36 -63t-13 -76q0 -67 38 -107t101 -40zM192 608q0 30 23 52t53 22q24 0 40.5 -17.5t16.5 -42.5q0 -28 -23 -50t-52 -22q-25 0 -41.5 17t-16.5 41zM379 608q0 30 23 52t53 22q25 0 41.5 -17.5t16.5 -42.5q0 -14 -6.5 -27t-17 -23t-24 -16t-28.5 -6
q-25 0 -41.5 17t-16.5 41z" />
    <glyph glyph-name="divide" unicode="&#xf7;" horiz-adv-x="526" 
d="M230 488q0 30 24 52t55 22q24 0 40.5 -17.5t16.5 -41.5q0 -30 -23.5 -52t-53.5 -22q-25 0 -42 17.5t-17 41.5zM469 347l-11 -78h-383l11 78h383zM177 106q0 30 23.5 52t54.5 22q24 0 41 -17.5t17 -42.5q0 -15 -6.5 -28t-17.5 -23t-24.5 -16t-28.5 -6q-25 0 -42 17t-17 42
z" />
    <glyph glyph-name="oslash" unicode="&#xf8;" horiz-adv-x="580" 
d="M489 436q30 -31 46.5 -74t16.5 -94q1 -55 -19.5 -106.5t-57 -90.5t-86 -61.5t-107.5 -21.5q-64 0 -113 25l-48 -63h-86l78 103q-31 31 -48 74t-17 94q-1 56 19.5 107t57.5 90t87 62t107 22q63 0 117 -27l42 56h83zM381 404q-27 13 -62 14q-39 0 -71 -16t-55 -43
t-36 -63.5t-13 -77.5q0 -53 26 -91zM223 84q28 -11 60 -11q37 0 69 15t55 41t36.5 61.5t13.5 77.5q0 56 -25 93z" />
    <glyph glyph-name="ugrave" unicode="&#xf9;" horiz-adv-x="571" 
d="M555 489l-68 -489h-87l3 61q-26 -34 -69 -53.5t-94 -19.5q-72 0 -123 39q-50 41 -50 128q0 7 1 18.5t3 28.5l41 287h95l-39 -281q-3 -18 -3 -33q0 -56 31 -79.5t74 -23.5q57 0 100 37.5t52 104.5l39 275h94zM214 675h95l64 -128h-76z" />
    <glyph glyph-name="uacute" unicode="&#xfa;" horiz-adv-x="571" 
d="M555 489l-68 -489h-87l3 61q-26 -34 -69 -53.5t-94 -19.5q-72 0 -123 39q-50 41 -50 128q0 7 1 18.5t3 28.5l41 287h95l-39 -281q-3 -18 -3 -33q0 -56 31 -79.5t74 -23.5q57 0 100 37.5t52 104.5l39 275h94zM297 547l62 128h95l-81 -128h-76z" />
    <glyph glyph-name="ucircumflex" unicode="&#xfb;" horiz-adv-x="571" 
d="M555 489l-68 -489h-87l3 61q-26 -34 -69 -53.5t-94 -19.5q-72 0 -123 39q-50 41 -50 128q0 7 1 18.5t3 28.5l41 287h95l-39 -281q-3 -18 -3 -33q0 -56 31 -79.5t74 -23.5q57 0 100 37.5t52 104.5l39 275h94zM395 547l-41 85l-66 -85h-82l103 138h86h19l63 -138h-82z" />
    <glyph glyph-name="udieresis" unicode="&#xfc;" horiz-adv-x="571" 
d="M555 489l-68 -489h-87l3 61q-26 -34 -69 -53.5t-94 -19.5q-72 0 -123 39q-50 41 -50 128q0 7 1 18.5t3 28.5l41 287h95l-39 -281q-3 -18 -3 -33q0 -56 31 -79.5t74 -23.5q57 0 100 37.5t52 104.5l39 275h94zM191 608q0 30 23 52t53 22q24 0 40.5 -17.5t16.5 -42.5
q0 -28 -23 -50t-52 -22q-25 0 -41.5 17t-16.5 41zM378 608q0 30 23 52t53 22q25 0 41.5 -17.5t16.5 -42.5q0 -14 -6.5 -27t-17 -23t-24 -16t-28.5 -6q-25 0 -41.5 17t-16.5 41z" />
    <glyph glyph-name="yacute" unicode="&#xfd;" horiz-adv-x="540" 
d="M569 489l-319 -609q-30 -58 -73 -84.5t-92 -26.5q-53 0 -99 28l35 82q29 -20 62 -20q25 0 47.5 13.5t36.5 40.5l31 60l-140 516h99l100 -401l205 401h107zM279 547l62 128h95l-81 -128h-76z" />
    <glyph glyph-name="thorn" unicode="&#xfe;" horiz-adv-x="606" 
d="M579 277q0 -64 -20 -117t-55.5 -91t-83 -59.5t-102.5 -21.5q-60 0 -105.5 24t-65.5 67l-42 -298h-94l136 942h94l-46 -299q29 38 75.5 58.5t98.5 20.5q48 0 86.5 -15.5t66 -45t42.5 -71t15 -94.5zM352 418q-36 0 -66.5 -13.5t-53.5 -37.5t-37.5 -57t-18.5 -72
q-1 -4 -1 -9.5v-12.5q0 -66 35.5 -104.5t96.5 -38.5q38 0 70.5 15t56 42t37 63.5t13.5 79.5q0 66 -34.5 105t-97.5 40z" />
    <glyph glyph-name="ydieresis" unicode="&#xff;" horiz-adv-x="540" 
d="M569 489l-319 -609q-30 -58 -73 -84.5t-92 -26.5q-53 0 -99 28l35 82q29 -20 62 -20q25 0 47.5 13.5t36.5 40.5l31 60l-140 516h99l100 -401l205 401h107zM173 608q0 30 23 52t53 22q24 0 40.5 -17.5t16.5 -42.5q0 -28 -23 -50t-52 -22q-25 0 -41.5 17t-16.5 41zM360 608
q0 30 23 52t53 22q25 0 41.5 -17.5t16.5 -42.5q0 -14 -6.5 -27t-17 -23t-24 -16t-28.5 -6q-25 0 -41.5 17t-16.5 41z" />
    <glyph glyph-name="Amacron" unicode="&#x100;" horiz-adv-x="640" 
d="M602 0h-103l-38 180h-296l-90 -180h-99l358 723h104zM443 265l-71 330l-166 -330h237zM550 854l-9 -67h-289l9 67h289z" />
    <glyph glyph-name="amacron" unicode="&#x101;" horiz-adv-x="598" 
d="M583 489l-69 -489h-87l7 79q-26 -42 -74 -66.5t-102 -24.5q-98 0 -154 63q-56 64 -56 166q-1 60 18.5 113t53.5 91.5t80 60.5t100 21q61 0 109 -26.5t70 -74.5l16 87h88zM449 265q0 67 -37.5 109t-100.5 42q-36 0 -66.5 -15t-53 -41t-35 -61t-12.5 -75q0 -75 37.5 -113.5
t98.5 -38.5q36 0 67 15.5t53.5 42t35.5 61.5t13 74zM498 624l-9 -67h-289l9 67h289z" />
    <glyph glyph-name="Abreve" unicode="&#x102;" horiz-adv-x="640" 
d="M602 0h-103l-38 180h-296l-90 -180h-99l358 723h104zM443 265l-71 330l-166 -330h237zM395 777q-29 0 -53 9.5t-41.5 26t-27.5 38.5t-10 48q0 14 1 18h78q-4 -30 14 -47t50 -17q31 0 53.5 17t27.5 47h77q-4 -29 -19.5 -54.5t-38.5 -44.5t-51.5 -30t-59.5 -11z" />
    <glyph glyph-name="abreve" unicode="&#x103;" horiz-adv-x="598" 
d="M583 489l-69 -489h-87l7 79q-26 -42 -74 -66.5t-102 -24.5q-98 0 -154 63q-56 64 -56 166q-1 60 18.5 113t53.5 91.5t80 60.5t100 21q61 0 109 -26.5t70 -74.5l16 87h88zM449 265q0 67 -37.5 109t-100.5 42q-36 0 -66.5 -15t-53 -41t-35 -61t-12.5 -75q0 -75 37.5 -113.5
t98.5 -38.5q36 0 67 15.5t53.5 42t35.5 61.5t13 74zM344 547q-29 0 -53 9.5t-41.5 26t-27.5 38.5t-10 48q0 14 1 18h78q-4 -30 14 -47t50 -17q31 0 53.5 17t27.5 47h77q-4 -29 -19.5 -54.5t-38.5 -44.5t-51.5 -30t-59.5 -11z" />
    <glyph glyph-name="Aogonek" unicode="&#x104;" horiz-adv-x="640" 
d="M602 0h-103l-38 180h-296l-90 -180h-99l358 723h104zM443 265l-71 330l-166 -330h237zM607 0q-35 -14 -53 -34t-18 -38q0 -13 8.5 -21t23.5 -8q13 0 22 4l-9 -69q-22 -7 -45 -7q-36 0 -55.5 20t-19.5 49q0 31 21.5 60t63.5 44h61z" />
    <glyph glyph-name="aogonek" unicode="&#x105;" horiz-adv-x="598" 
d="M583 489l-69 -489h-87l7 79q-26 -42 -74 -66.5t-102 -24.5q-98 0 -154 63q-56 64 -56 166q-1 60 18.5 113t53.5 91.5t80 60.5t100 21q61 0 109 -26.5t70 -74.5l16 87h88zM449 265q0 67 -37.5 109t-100.5 42q-36 0 -66.5 -15t-53 -41t-35 -61t-12.5 -75q0 -75 37.5 -113.5
t98.5 -38.5q36 0 67 15.5t53.5 42t35.5 61.5t13 74zM514 0q-35 -14 -53 -34t-18 -38q0 -13 8.5 -21t23.5 -8q13 0 22 4l-9 -69q-22 -7 -45 -7q-36 0 -55.5 20t-19.5 49q0 31 21.5 60t63.5 44h61z" />
    <glyph glyph-name="Cacute" unicode="&#x106;" horiz-adv-x="738" 
d="M644 491q-24 75 -82 112.5t-131 37.5q-58 1 -108.5 -23t-87 -67t-56.5 -100t-19 -122q0 -57 16 -102t45 -76.5t70 -48.5t92 -17q72 0 129.5 37.5t91.5 106.5l93 -39q-41 -90 -126 -145q-86 -56 -194 -56q-66 0 -124.5 22t-102 64.5t-69 106t-25.5 146.5q-1 83 26 157.5
t76.5 130.5t119 88.5t151.5 31.5q59 0 109.5 -16t90.5 -44t67 -65t38 -79zM403 777l62 128h95l-81 -128h-76z" />
    <glyph glyph-name="cacute" unicode="&#x107;" horiz-adv-x="553" 
d="M312 503q85 0 142.5 -40t78.5 -109l-84 -32q-15 48 -50.5 72t-83.5 24q-38 0 -69.5 -15t-54 -41t-35 -61t-12.5 -74q0 -72 39.5 -113t102.5 -41q49 0 86.5 24.5t58.5 66.5l78 -36q-28 -64 -88.5 -102t-136.5 -38q-52 0 -95.5 16.5t-74.5 47.5t-48 75t-17 98q0 58 20 109
t55 88.5t83 59t105 21.5zM280 547l62 128h95l-81 -128h-76z" />
    <glyph glyph-name="Ccircumflex" unicode="&#x108;" horiz-adv-x="738" 
d="M644 491q-24 75 -82 112.5t-131 37.5q-58 1 -108.5 -23t-87 -67t-56.5 -100t-19 -122q0 -57 16 -102t45 -76.5t70 -48.5t92 -17q72 0 129.5 37.5t91.5 106.5l93 -39q-41 -90 -126 -145q-86 -56 -194 -56q-66 0 -124.5 22t-102 64.5t-69 106t-25.5 146.5q-1 83 26 157.5
t76.5 130.5t119 88.5t151.5 31.5q59 0 109.5 -16t90.5 -44t67 -65t38 -79zM501 777l-41 85l-66 -85h-82l103 138h86h19l63 -138h-82z" />
    <glyph glyph-name="ccircumflex" unicode="&#x109;" horiz-adv-x="553" 
d="M312 503q85 0 142.5 -40t78.5 -109l-84 -32q-15 48 -50.5 72t-83.5 24q-38 0 -69.5 -15t-54 -41t-35 -61t-12.5 -74q0 -72 39.5 -113t102.5 -41q49 0 86.5 24.5t58.5 66.5l78 -36q-28 -64 -88.5 -102t-136.5 -38q-52 0 -95.5 16.5t-74.5 47.5t-48 75t-17 98q0 58 20 109
t55 88.5t83 59t105 21.5zM378 547l-41 85l-66 -85h-82l103 138h86h19l63 -138h-82z" />
    <glyph glyph-name="Cdotaccent" unicode="&#x10a;" horiz-adv-x="738" 
d="M644 491q-24 75 -82 112.5t-131 37.5q-58 1 -108.5 -23t-87 -67t-56.5 -100t-19 -122q0 -57 16 -102t45 -76.5t70 -48.5t92 -17q72 0 129.5 37.5t91.5 106.5l93 -39q-41 -90 -126 -145q-86 -56 -194 -56q-66 0 -124.5 22t-102 64.5t-69 106t-25.5 146.5q-1 83 26 157.5
t76.5 130.5t119 88.5t151.5 31.5q59 0 109.5 -16t90.5 -44t67 -65t38 -79zM391 838q0 30 23 52t52 22q24 0 40.5 -17.5t16.5 -41.5q0 -29 -23 -51t-52 -22q-24 0 -40.5 17t-16.5 41z" />
    <glyph glyph-name="cdotaccent" unicode="&#x10b;" horiz-adv-x="553" 
d="M312 503q85 0 142.5 -40t78.5 -109l-84 -32q-15 48 -50.5 72t-83.5 24q-38 0 -69.5 -15t-54 -41t-35 -61t-12.5 -74q0 -72 39.5 -113t102.5 -41q49 0 86.5 24.5t58.5 66.5l78 -36q-28 -64 -88.5 -102t-136.5 -38q-52 0 -95.5 16.5t-74.5 47.5t-48 75t-17 98q0 58 20 109
t55 88.5t83 59t105 21.5zM267 608q0 30 23 52t52 22q24 0 40.5 -17.5t16.5 -41.5q0 -29 -23 -51t-52 -22q-24 0 -40.5 17t-16.5 41z" />
    <glyph glyph-name="Ccaron" unicode="&#x10c;" horiz-adv-x="738" 
d="M644 491q-24 75 -82 112.5t-131 37.5q-58 1 -108.5 -23t-87 -67t-56.5 -100t-19 -122q0 -57 16 -102t45 -76.5t70 -48.5t92 -17q72 0 129.5 37.5t91.5 106.5l93 -39q-41 -90 -126 -145q-86 -56 -194 -56q-66 0 -124.5 22t-102 64.5t-69 106t-25.5 146.5q-1 83 26 157.5
t76.5 130.5t119 88.5t151.5 31.5q59 0 109.5 -16t90.5 -44t67 -65t38 -79zM603 915l-103 -138h-86h-19l-63 138h82l41 -85l67 85h81z" />
    <glyph glyph-name="ccaron" unicode="&#x10d;" horiz-adv-x="553" 
d="M312 503q85 0 142.5 -40t78.5 -109l-84 -32q-15 48 -50.5 72t-83.5 24q-38 0 -69.5 -15t-54 -41t-35 -61t-12.5 -74q0 -72 39.5 -113t102.5 -41q49 0 86.5 24.5t58.5 66.5l78 -36q-28 -64 -88.5 -102t-136.5 -38q-52 0 -95.5 16.5t-74.5 47.5t-48 75t-17 98q0 58 20 109
t55 88.5t83 59t105 21.5zM479 685l-103 -138h-86h-19l-63 138h82l41 -85l67 85h81z" />
    <glyph glyph-name="Dcaron" unicode="&#x10e;" horiz-adv-x="727" 
d="M703 398q2 -85 -29 -158.5t-86 -127t-128.5 -84t-157.5 -28.5h-191h-61l102 723h99h129q72 0 131 -23t102 -65.5t66.5 -102.5t23.5 -134zM597 399q0 53 -15.5 96t-45 73t-71 46.5t-94.5 16.5h-133l-77 -539h120q69 0 127 23t100 64t65.5 97t23.5 123zM549 914l-103 -138
h-86h-19l-63 138h82l41 -85l67 85h81z" />
    <glyph glyph-name="dcaron" unicode="&#x10f;" horiz-adv-x="720" 
d="M525 736h94l-104 -736h-87l8 79q-24 -42 -70 -66.5t-104 -24.5q-45 0 -84 15.5t-68 45t-45.5 72.5t-16.5 97q0 61 19.5 113t54 90.5t83 60t105.5 21.5q55 0 100.5 -23.5t68.5 -68.5zM761 730l-41 -289h-78l41 289h78zM310 418q-36 0 -66 -15.5t-52.5 -42t-35 -61.5
t-12.5 -73q0 -33 10 -61.5t28.5 -48.5t44.5 -31.5t57 -11.5q36 0 67 15.5t53.5 42t35 62t12.5 76.5q0 69 -39.5 109t-102.5 40z" />
    <glyph glyph-name="Dcroat" unicode="&#x110;" horiz-adv-x="719" 
d="M695 398q2 -85 -29 -158.5t-85.5 -127t-128 -84t-157.5 -28.5h-191h-62l45 320h-75l11 84h76l45 319h99h130q72 0 131 -23t101.5 -65t66 -102t23.5 -135zM590 399q0 53 -15.5 96t-45 73t-71.5 46.5t-95 16.5h-133l-32 -227h95l-11 -84h-96l-32 -228h119q70 0 128 23
t100 64t65.5 97t23.5 123z" />
    <glyph glyph-name="dcroat" unicode="&#x111;" horiz-adv-x="599" 
d="M639 566h-44l-80 -566h-87l8 79q-24 -42 -70 -66.5t-104 -24.5q-45 0 -84 15.5t-68 45t-45.5 72.5t-16.5 97q0 61 19.5 113t54 90.5t83 60t105.5 21.5q55 0 100.5 -23.5t68.5 -68.5l22 155h-198l10 80h199l13 90h94l-13 -90h43zM310 418q-36 0 -66 -15.5t-52.5 -42
t-35 -61.5t-12.5 -73q0 -33 10 -61.5t28.5 -48.5t44.5 -31.5t57 -11.5q36 0 67 15.5t53.5 42t35 62t12.5 76.5q0 69 -39.5 109t-102.5 40z" />
    <glyph glyph-name="Emacron" unicode="&#x112;" horiz-adv-x="584" 
d="M237 630l-31 -222h309l-14 -88h-308l-32 -226l343 -1l-14 -93h-440l102 723h440l-13 -94zM535 854l-9 -67h-289l9 67h289z" />
    <glyph glyph-name="emacron" unicode="&#x113;" horiz-adv-x="556" 
d="M314 503q99 0 158 -58q60 -58 60 -158q0 -21 -3 -44l-6 -38l-385 1q-4 -66 31.5 -101t95.5 -35q51 0 91 23.5t58 62.5l83 -35q-35 -64 -95.5 -98.5t-135.5 -34.5q-49 0 -89.5 15t-69.5 43.5t-44.5 69.5t-15.5 92v14t1 11q5 57 25.5 106.5t55 86t81.5 57t104 20.5z
M437 274q1 5 1 24q0 58 -34.5 91.5t-91.5 33.5q-63 0 -108 -40t-58 -110zM487 624l-9 -67h-289l9 67h289z" />
    <glyph glyph-name="Ebreve" unicode="&#x114;" horiz-adv-x="584" 
d="M237 630l-31 -222h309l-14 -88h-308l-32 -226l343 -1l-14 -93h-440l102 723h440l-13 -94zM327 920q-1 -3 -1 -11q0 -26 18 -41t47 -15q32 0 54.5 18t27.5 49h77q-4 -30 -19.5 -56t-38.5 -45.5t-52 -30.5t-60 -11q-58 0 -95 34t-37 88q0 4 0.5 9t1.5 12h77z" />
    <glyph glyph-name="ebreve" unicode="&#x115;" horiz-adv-x="556" 
d="M314 503q99 0 158 -58q60 -58 60 -158q0 -21 -3 -44l-6 -38l-385 1q-4 -66 31.5 -101t95.5 -35q51 0 91 23.5t58 62.5l83 -35q-35 -64 -95.5 -98.5t-135.5 -34.5q-49 0 -89.5 15t-69.5 43.5t-44.5 69.5t-15.5 92v14t1 11q5 57 25.5 106.5t55 86t81.5 57t104 20.5z
M437 274q1 5 1 24q0 58 -34.5 91.5t-91.5 33.5q-63 0 -108 -40t-58 -110zM279 690q-1 -3 -1 -11q0 -26 18 -41t47 -15q32 0 54.5 18t27.5 49h77q-4 -30 -19.5 -56t-38.5 -45.5t-52 -30.5t-60 -11q-58 0 -95 34t-37 88q0 4 0.5 9t1.5 12h77z" />
    <glyph glyph-name="Edotaccent" unicode="&#x116;" horiz-adv-x="584" 
d="M237 630l-31 -222h309l-14 -88h-308l-32 -226l343 -1l-14 -93h-440l102 723h440l-13 -94zM323 838q0 30 23 52t52 22q24 0 40.5 -17.5t16.5 -41.5q0 -29 -23 -51t-52 -22q-24 0 -40.5 17t-16.5 41z" />
    <glyph glyph-name="edotaccent" unicode="&#x117;" horiz-adv-x="556" 
d="M314 503q99 0 158 -58q60 -58 60 -158q0 -21 -3 -44l-6 -38l-385 1q-4 -66 31.5 -101t95.5 -35q51 0 91 23.5t58 62.5l83 -35q-35 -64 -95.5 -98.5t-135.5 -34.5q-49 0 -89.5 15t-69.5 43.5t-44.5 69.5t-15.5 92v14t1 11q5 57 25.5 106.5t55 86t81.5 57t104 20.5z
M437 274q1 5 1 24q0 58 -34.5 91.5t-91.5 33.5q-63 0 -108 -40t-58 -110zM275 608q0 30 23 52t52 22q24 0 40.5 -17.5t16.5 -41.5q0 -29 -23 -51t-52 -22q-24 0 -40.5 17t-16.5 41z" />
    <glyph glyph-name="Eogonek" unicode="&#x118;" horiz-adv-x="584" 
d="M237 630l-31 -222h309l-14 -88h-308l-32 -226l343 -1l-14 -93h-440l102 723h440l-13 -94zM490 0q-35 -14 -53 -34t-18 -38q0 -13 8.5 -21t23.5 -8q13 0 22 4l-9 -69q-22 -7 -45 -7q-36 0 -55.5 20t-19.5 49q0 31 21.5 60t63.5 44h61z" />
    <glyph glyph-name="eogonek" unicode="&#x119;" horiz-adv-x="556" 
d="M532 287q0 -21 -3 -44l-6 -38l-385 1q-4 -66 31.5 -101t95.5 -35q51 0 91 23.5t58 62.5l83 -35q-32 -60 -85.5 -93.5t-119.5 -38.5q-28 -14 -42.5 -32t-14.5 -34q0 -13 8.5 -21t23.5 -8q13 0 22 4l-9 -69q-21 -7 -44 -7q-36 0 -56 20t-20 49q0 28 19 55t53 44
q-85 9 -135 65.5t-50 152.5v14t1 11q5 57 25.5 106.5t55 86t81.5 57t104 20.5q99 0 158 -58q60 -58 60 -158zM438 298q0 58 -34.5 91.5t-91.5 33.5q-63 0 -108 -40t-58 -110l291 1q1 5 1 24z" />
    <glyph glyph-name="Ecaron" unicode="&#x11a;" horiz-adv-x="584" 
d="M237 630l-31 -222h309l-14 -88h-308l-32 -226l343 -1l-14 -93h-440l102 723h440l-13 -94zM535 915l-103 -138h-86h-19l-63 138h82l41 -85l67 85h81z" />
    <glyph glyph-name="ecaron" unicode="&#x11b;" horiz-adv-x="556" 
d="M314 503q99 0 158 -58q60 -58 60 -158q0 -21 -3 -44l-6 -38l-385 1q-4 -66 31.5 -101t95.5 -35q51 0 91 23.5t58 62.5l83 -35q-35 -64 -95.5 -98.5t-135.5 -34.5q-49 0 -89.5 15t-69.5 43.5t-44.5 69.5t-15.5 92v14t1 11q5 57 25.5 106.5t55 86t81.5 57t104 20.5z
M437 274q1 5 1 24q0 58 -34.5 91.5t-91.5 33.5q-63 0 -108 -40t-58 -110zM486 685l-103 -138h-86h-19l-63 138h82l41 -85l67 85h81z" />
    <glyph glyph-name="Gcircumflex" unicode="&#x11c;" horiz-adv-x="765" 
d="M398 404h334l-57 -405h-87l8 84q-40 -46 -100.5 -70.5t-124.5 -24.5q-70 0 -128.5 23.5t-99.5 66.5t-64 104t-23 137q-1 87 26.5 163.5t77.5 133t119.5 89t151.5 31.5q59 0 109.5 -14.5t90 -41t67.5 -62.5t41 -78l-90 -35q-21 66 -79.5 102t-136.5 36q-64 1 -115.5 -24
t-87.5 -69t-55 -102t-19 -123q0 -59 18 -104.5t48.5 -76.5t70.5 -47t84 -16q78 0 151 44q72 44 93 153l6 39h-241zM509 777l-41 85l-66 -85h-82l103 138h86h19l63 -138h-82z" />
    <glyph glyph-name="gcircumflex" unicode="&#x11d;" horiz-adv-x="556" 
d="M274 561h-82l103 128h86h19l63 -128h-81l-42 79zM556 540q13 0 17 -1l-10 -80q-3 1 -16 1q-43 0 -72 -27q34 -44 34 -105q0 -46 -17 -84t-48 -66t-74 -43.5t-94 -15.5q-45 0 -87 14q-28 -2 -44 -11.5t-16 -26.5q0 -13 11.5 -23t37.5 -10h147q81 0 127.5 -36.5
t46.5 -100.5q0 -84 -72 -121q-71 -37 -190 -37q-112 0 -172.5 30.5t-60.5 91.5q0 39 19.5 67t54.5 45q-34 22 -34 67q0 32 21 60t66 39q-54 48 -54 123q0 46 18 84.5t49.5 66.5t75 44t94.5 16q68 0 115 -29q19 32 52 50t75 18zM417 321q0 48 -30 76t-81 29q-59 0 -99 -37
q-39 -36 -39 -91q0 -48 31 -76t82 -28q60 0 98 36t38 91zM155 -18h-9q-28 -12 -41.5 -31t-13.5 -41q0 -38 38 -50.5t107 -12.5q37 0 68 3.5t53.5 12t35 23.5t12.5 38q0 29 -22.5 43.5t-60.5 14.5h-167z" />
    <glyph glyph-name="Gbreve" unicode="&#x11e;" horiz-adv-x="765" 
d="M398 404h334l-57 -405h-87l8 84q-40 -46 -100.5 -70.5t-124.5 -24.5q-70 0 -128.5 23.5t-99.5 66.5t-64 104t-23 137q-1 87 26.5 163.5t77.5 133t119.5 89t151.5 31.5q59 0 109.5 -14.5t90 -41t67.5 -62.5t41 -78l-90 -35q-21 66 -79.5 102t-136.5 36q-64 1 -115.5 -24
t-87.5 -69t-55 -102t-19 -123q0 -59 18 -104.5t48.5 -76.5t70.5 -47t84 -16q78 0 151 44q72 44 93 153l6 39h-241zM403 920q-1 -3 -1 -11q0 -26 18 -41t47 -15q32 0 54.5 18t27.5 49h77q-4 -30 -19.5 -56t-38.5 -45.5t-52 -30.5t-60 -11q-58 0 -95 34t-37 88q0 4 0.5 9
t1.5 12h77z" />
    <glyph glyph-name="gbreve" unicode="&#x11f;" horiz-adv-x="556" 
d="M556 540q13 0 17 -1l-10 -80q-3 1 -16 1q-43 0 -72 -27q34 -44 34 -105q0 -46 -17 -84t-48 -66t-74 -43.5t-94 -15.5q-45 0 -87 14q-28 -2 -44 -11.5t-16 -26.5q0 -13 11.5 -23t37.5 -10h147q81 0 127.5 -36.5t46.5 -100.5q0 -84 -72 -121q-71 -37 -190 -37
q-112 0 -172.5 30.5t-60.5 91.5q0 39 19.5 67t54.5 45q-34 22 -34 67q0 32 21 60t66 39q-54 48 -54 123q0 46 18 84.5t49.5 66.5t75 44t94.5 16q68 0 115 -29q19 32 52 50t75 18zM417 321q0 48 -30 76t-81 29q-59 0 -99 -37q-39 -36 -39 -91q0 -48 31 -76t82 -28q60 0 98 36
t38 91zM155 -18h-9q-28 -12 -41.5 -31t-13.5 -41q0 -38 38 -50.5t107 -12.5q37 0 68 3.5t53.5 12t35 23.5t12.5 38q0 29 -22.5 43.5t-60.5 14.5h-167zM274 690q-1 -3 -1 -11q0 -26 18 -41t47 -15q32 0 54.5 18t27.5 49h77q-4 -30 -19.5 -56t-38.5 -45.5t-52 -30.5t-60 -11
q-58 0 -95 34t-37 88q0 4 0.5 9t1.5 12h77z" />
    <glyph glyph-name="Gdotaccent" unicode="&#x120;" horiz-adv-x="765" 
d="M398 404h334l-57 -405h-87l8 84q-40 -46 -100.5 -70.5t-124.5 -24.5q-70 0 -128.5 23.5t-99.5 66.5t-64 104t-23 137q-1 87 26.5 163.5t77.5 133t119.5 89t151.5 31.5q59 0 109.5 -14.5t90 -41t67.5 -62.5t41 -78l-90 -35q-21 66 -79.5 102t-136.5 36q-64 1 -115.5 -24
t-87.5 -69t-55 -102t-19 -123q0 -59 18 -104.5t48.5 -76.5t70.5 -47t84 -16q78 0 151 44q72 44 93 153l6 39h-241zM398 838q0 30 23 52t52 22q24 0 40.5 -17.5t16.5 -41.5q0 -29 -23 -51t-52 -22q-24 0 -40.5 17t-16.5 41z" />
    <glyph glyph-name="gdotaccent" unicode="&#x121;" horiz-adv-x="556" 
d="M556 540q13 0 17 -1l-10 -80q-3 1 -16 1q-43 0 -72 -27q34 -44 34 -105q0 -46 -17 -84t-48 -66t-74 -43.5t-94 -15.5q-45 0 -87 14q-28 -2 -44 -11.5t-16 -26.5q0 -13 11.5 -23t37.5 -10h147q81 0 127.5 -36.5t46.5 -100.5q0 -84 -72 -121q-71 -37 -190 -37
q-112 0 -172.5 30.5t-60.5 91.5q0 39 19.5 67t54.5 45q-34 22 -34 67q0 32 21 60t66 39q-54 48 -54 123q0 46 18 84.5t49.5 66.5t75 44t94.5 16q68 0 115 -29q19 32 52 50t75 18zM417 321q0 48 -30 76t-81 29q-59 0 -99 -37q-39 -36 -39 -91q0 -48 31 -76t82 -28q60 0 98 36
t38 91zM155 -18h-9q-28 -12 -41.5 -31t-13.5 -41q0 -38 38 -50.5t107 -12.5q37 0 68 3.5t53.5 12t35 23.5t12.5 38q0 29 -22.5 43.5t-60.5 14.5h-167zM270 608q0 30 23 52t52 22q24 0 40.5 -17.5t16.5 -41.5q0 -29 -23 -51t-52 -22q-24 0 -40.5 17t-16.5 41z" />
    <glyph glyph-name="Gcommaaccent" unicode="&#x122;" horiz-adv-x="765" 
d="M398 404h334l-57 -405h-87l8 84q-40 -46 -100.5 -70.5t-124.5 -24.5q-70 0 -128.5 23.5t-99.5 66.5t-64 104t-23 137q-1 87 26.5 163.5t77.5 133t119.5 89t151.5 31.5q59 0 109.5 -14.5t90 -41t67.5 -62.5t41 -78l-90 -35q-21 66 -79.5 102t-136.5 36q-64 1 -115.5 -24
t-87.5 -69t-55 -102t-19 -123q0 -59 18 -104.5t48.5 -76.5t70.5 -47t84 -16q78 0 151 44q72 44 93 153l6 39h-241zM403 -107q-4 -43 -33 -70t-65 -27l4 27q17 1 29.5 11.5t14.5 26.5q-6 -2 -13 -2q-19 0 -31.5 11.5t-12.5 33.5t14.5 37t38.5 15q23 0 39 -16t15 -47z" />
    <glyph glyph-name="gcommaaccent" unicode="&#x123;" horiz-adv-x="556" 
d="M556 540q13 0 17 -1l-10 -80q-3 1 -16 1q-43 0 -72 -27q34 -44 34 -105q0 -46 -17 -84t-48 -66t-74 -43.5t-94 -15.5q-45 0 -87 14q-28 -2 -44 -11.5t-16 -26.5q0 -13 11.5 -23t37.5 -10h147q81 0 127.5 -36.5t46.5 -100.5q0 -84 -72 -121q-71 -37 -190 -37
q-112 0 -172.5 30.5t-60.5 91.5q0 39 19.5 67t54.5 45q-34 22 -34 67q0 32 21 60t66 39q-54 48 -54 123q0 46 18 84.5t49.5 66.5t75 44t94.5 16q68 0 115 -29q19 32 52 50t75 18zM417 321q0 48 -30 76t-81 29q-59 0 -99 -37q-39 -36 -39 -91q0 -48 31 -76t82 -28q60 0 98 36
t38 91zM155 -18h-9q-28 -12 -41.5 -31t-13.5 -41q0 -38 38 -50.5t107 -12.5q37 0 68 3.5t53.5 12t35 23.5t12.5 38q0 29 -22.5 43.5t-60.5 14.5h-167zM282 547l62 128h95l-81 -128h-76z" />
    <glyph glyph-name="Hbar" unicode="&#x126;" horiz-adv-x="718" 
d="M756 519h-83l-73 -519h-99l45 322l-352 1l-45 -323h-99l73 519h-80l11 86h81l17 118h98l-16 -118h352l16 118h99l-16 -118h81zM574 519h-352l-16 -109l353 -1z" />
    <glyph glyph-name="hbar" unicode="&#x127;" horiz-adv-x="598" 
d="M534 319q0 -8 -1 -20t-3 -29l-38 -270h-94l38 267q3 20 3 35q0 62 -32.5 88.5t-79.5 26.5q-27 0 -53 -10t-46.5 -29.5t-35 -48t-19.5 -64.5l-37 -264h-94l81 571h-50l11 76h50l12 88h95l-13 -88h160l-11 -76h-160l-20 -139q25 32 67 51t91 19q33 0 65 -10t57.5 -32
t41 -57t15.5 -85z" />
    <glyph glyph-name="Itilde" unicode="&#x128;" horiz-adv-x="258" 
d="M50 0l102 723h98l-101 -723h-99zM155 920q20 0 36.5 -7t35.5 -19q32 -21 55 -21q35 0 38 44h65q-1 -57 -31.5 -87.5t-73.5 -30.5q-22 0 -39 7t-40 20q-15 9 -25.5 14t-20.5 5q-33 0 -37 -46h-65q1 57 30.5 89t71.5 32z" />
    <glyph glyph-name="itilde" unicode="&#x129;" horiz-adv-x="210" 
d="M194 489l-68 -489h-95l69 489h94zM102 690q20 0 36.5 -7t35.5 -19q32 -21 55 -21q35 0 38 44h65q-1 -57 -31.5 -87.5t-73.5 -30.5q-22 0 -39 7t-40 20q-15 9 -25.5 14t-20.5 5q-33 0 -37 -46h-65q1 57 30.5 89t71.5 32z" />
    <glyph glyph-name="Imacron" unicode="&#x12a;" horiz-adv-x="258" 
d="M50 0l102 723h98l-101 -723h-99zM363 854l-9 -67h-289l9 67h289z" />
    <glyph glyph-name="imacron" unicode="&#x12b;" horiz-adv-x="210" 
d="M194 489l-68 -489h-95l69 489h94zM310 624l-9 -67h-289l9 67h289z" />
    <glyph glyph-name="Iogonek" unicode="&#x12e;" horiz-adv-x="258" 
d="M50 0l102 723h98l-101 -723h-99zM149 0q-35 -14 -53 -34t-18 -38q0 -13 8.5 -21t23.5 -8q13 0 22 4l-9 -69q-22 -7 -45 -7q-36 0 -55.5 20t-19.5 49q0 31 21.5 60t63.5 44h61z" />
    <glyph glyph-name="iogonek" unicode="&#x12f;" horiz-adv-x="210" 
d="M194 489l-68 -489h-95l69 489h94zM126 0q-35 -14 -53 -34t-18 -38q0 -13 8.5 -21t23.5 -8q13 0 22 4l-9 -69q-22 -7 -45 -7q-36 0 -55.5 20t-19.5 49q0 31 21.5 60t63.5 44h61zM98 608q0 30 23 52t52 22q24 0 40.5 -17.5t16.5 -41.5q0 -29 -23 -51t-52 -22
q-24 0 -40.5 17t-16.5 41z" />
    <glyph glyph-name="Idotaccent" unicode="&#x130;" horiz-adv-x="258" 
d="M50 0l102 723h98l-101 -723h-99zM152 838q0 30 23 52t52 22q24 0 40.5 -17.5t16.5 -41.5q0 -29 -23 -51t-52 -22q-24 0 -40.5 17t-16.5 41z" />
    <glyph glyph-name="dotlessi" unicode="&#x131;" horiz-adv-x="210" 
d="M194 489l-68 -489h-95l69 489h94z" />
    <glyph glyph-name="Jcircumflex" unicode="&#x134;" horiz-adv-x="518" 
d="M518 723l-65 -458l-10 -71q-12 -90 -74 -149q-61 -58 -158 -58q-93 0 -146.5 49t-53.5 130q0 17 3 35l3 24h95l-3 -24q-1 -9 -1.5 -15t-0.5 -9q0 -54 33 -77q35 -21 71 -21q44 0 84 28q41 29 51 98l9 60l64 458h99zM529 778l-41 85l-66 -85h-82l103 138h86h19l63 -138
h-82z" />
    <glyph glyph-name="jcircumflex" unicode="&#x135;" horiz-adv-x="249" 
d="M-83 -129q33 -14 54 -14q31 0 51 20.5t25 60.5l78 550h96l-79 -565q-11 -79 -55.5 -116.5t-105.5 -37.5q-45 0 -93 20zM234 547l-41 85l-66 -85h-82l103 138h86h19l63 -138h-82z" />
    <glyph glyph-name="Kcommaaccent" unicode="&#x136;" horiz-adv-x="635" 
d="M148 723h100l-57 -394l378 394h129l-320 -339l211 -384h-121l-160 309l-139 -144l-23 -165h-99zM352 -94q-4 -43 -33 -70t-65 -27l4 27q17 1 29.5 11.5t14.5 26.5q-6 -2 -13 -2q-19 0 -31.5 11.5t-12.5 33.5t14.5 37t38.5 15q23 0 39 -16t15 -47z" />
    <glyph glyph-name="kcommaaccent" unicode="&#x137;" horiz-adv-x="513" 
d="M43 0l103 736h94l-66 -473l248 226h118l-238 -218l163 -271h-112l-122 207l-74 -68l-20 -139h-94zM281 -94q-4 -43 -33 -70t-65 -27l4 27q17 1 29.5 11.5t14.5 26.5q-6 -2 -13 -2q-19 0 -31.5 11.5t-12.5 33.5t14.5 37t38.5 15q23 0 39 -16t15 -47z" />
    <glyph glyph-name="Lacute" unicode="&#x139;" horiz-adv-x="499" 
d="M457 89l-13 -89h-378h-16l102 723h99l-89 -634h295zM163 768l62 128h95l-81 -128h-76z" />
    <glyph glyph-name="lacute" unicode="&#x13a;" horiz-adv-x="221" 
d="M146 736h94l-103 -736h-94zM153 775l62 128h95l-81 -128h-76z" />
    <glyph glyph-name="Lcommaaccent" unicode="&#x13b;" horiz-adv-x="499" 
d="M457 89l-13 -89h-378h-16l102 723h99l-89 -634h295zM304 -94q-4 -43 -33 -70t-65 -27l4 27q17 1 29.5 11.5t14.5 26.5q-6 -2 -13 -2q-19 0 -31.5 11.5t-12.5 33.5t14.5 37t38.5 15q23 0 39 -16t15 -47z" />
    <glyph glyph-name="lcommaaccent" unicode="&#x13c;" horiz-adv-x="221" 
d="M146 736h94l-103 -736h-94zM136 -100q-4 -43 -33 -70t-65 -27l4 27q17 1 29.5 11.5t14.5 26.5q-6 -2 -13 -2q-19 0 -31.5 11.5t-12.5 33.5t14.5 37t38.5 15q23 0 39 -16t15 -47z" />
    <glyph glyph-name="Lcaron" unicode="&#x13d;" horiz-adv-x="499" 
d="M457 89l-13 -89h-378h-16l102 723h99l-89 -634h295zM463 670q-4 -43 -33 -70t-65 -27l4 27q17 1 29.5 11.5t14.5 26.5q-6 -2 -13 -2q-19 0 -31.5 11.5t-12.5 33.5t14.5 37t38.5 15q23 0 39 -16t15 -47z" />
    <glyph glyph-name="lcaron" unicode="&#x13e;" horiz-adv-x="221" 
d="M146 736h94l-103 -736h-94z" />
    <glyph glyph-name="Ldot" unicode="&#x13f;" horiz-adv-x="499" 
d="M457 89l-13 -89h-378h-16l102 723h99l-89 -634h295zM286 367q0 34 24.5 57.5t57.5 23.5q29 0 47.5 -19.5t18.5 -47.5q0 -33 -24.5 -56t-57.5 -23q-29 0 -47.5 18.5t-18.5 46.5z" />
    <glyph glyph-name="ldot" unicode="&#x140;" horiz-adv-x="407" 
d="M146 736h94l-103 -736h-94zM232 365q0 34 25.5 58.5t59.5 24.5q30 0 49 -20t19 -49q0 -34 -25.5 -58t-59.5 -24q-29 0 -48.5 19t-19.5 49z" />
    <glyph glyph-name="Lslash" unicode="&#x141;" horiz-adv-x="499" 
d="M457 89l-13 -89h-378h-16l47 332l-68 -33l11 85l69 33l43 306h99l-36 -255l145 69l-11 -85l-146 -69l-41 -294h295z" />
    <glyph glyph-name="lslash" unicode="&#x142;" horiz-adv-x="251" 
d="M243 736l-104 -736h-94l103 736h95z" />
    <glyph glyph-name="Nacute" unicode="&#x143;" horiz-adv-x="730" 
d="M152 723h98l291 -560l79 560h97l-101 -723h-98l-291 560l-78 -560h-99zM400 777l62 128h95l-81 -128h-76z" />
    <glyph glyph-name="nacute" unicode="&#x144;" horiz-adv-x="577" 
d="M535 321q0 -21 -3 -45l-39 -276h-94l38 270q1 6 1.5 14t0.5 19q0 60 -30.5 87t-81.5 27q-61 0 -102 -40t-51 -110l-37 -266h-94l68 488h89l-5 -64q22 35 64 56.5t94 21.5q35 0 67.5 -10.5t58 -33t41 -57t15.5 -81.5zM293 547l62 128h95l-81 -128h-76z" />
    <glyph glyph-name="Ncommaaccent" unicode="&#x145;" horiz-adv-x="730" 
d="M152 723h98l291 -560l79 560h97l-101 -723h-98l-291 560l-78 -560h-99zM386 -94q-4 -43 -33 -70t-65 -27l4 27q17 1 29.5 11.5t14.5 26.5q-6 -2 -13 -2q-19 0 -31.5 11.5t-12.5 33.5t14.5 37t38.5 15q23 0 39 -16t15 -47z" />
    <glyph glyph-name="ncommaaccent" unicode="&#x146;" horiz-adv-x="577" 
d="M535 321q0 -21 -3 -45l-39 -276h-94l38 270q1 6 1.5 14t0.5 19q0 60 -30.5 87t-81.5 27q-61 0 -102 -40t-51 -110l-37 -266h-94l68 488h89l-5 -64q22 35 64 56.5t94 21.5q35 0 67.5 -10.5t58 -33t41 -57t15.5 -81.5zM305 -94q-4 -43 -33 -70t-65 -27l4 27q17 1 29.5 11.5
t14.5 26.5q-6 -2 -13 -2q-19 0 -31.5 11.5t-12.5 33.5t14.5 37t38.5 15q23 0 39 -16t15 -47z" />
    <glyph glyph-name="Ncaron" unicode="&#x147;" horiz-adv-x="730" 
d="M152 723h98l291 -560l79 560h97l-101 -723h-98l-291 560l-78 -560h-99zM599 915l-103 -138h-86h-19l-63 138h82l41 -85l67 85h81z" />
    <glyph glyph-name="ncaron" unicode="&#x148;" horiz-adv-x="577" 
d="M535 321q0 -21 -3 -45l-39 -276h-94l38 270q1 6 1.5 14t0.5 19q0 60 -30.5 87t-81.5 27q-61 0 -102 -40t-51 -110l-37 -266h-94l68 488h89l-5 -64q22 35 64 56.5t94 21.5q35 0 67.5 -10.5t58 -33t41 -57t15.5 -81.5zM493 685l-103 -138h-86h-19l-63 138h82l41 -85l67 85
h81z" />
    <glyph glyph-name="Eng" unicode="&#x14a;" horiz-adv-x="726" 
d="M709 723l-102 -723l-8 -61q-5 -35 -19 -60t-35 -41.5t-47 -24.5t-54 -8t-55 8l11 80q23 -6 35 -6q29 0 51 16t27 51l6 46h-8l-286 559l-79 -559h-96l102 723h96l286 -559l78 559h97z" />
    <glyph glyph-name="eng" unicode="&#x14b;" horiz-adv-x="577" 
d="M520 328q0 -30 -4 -51l-39 -277l-6 -41q-9 -67 -50.5 -100.5t-95.5 -33.5q-23 0 -49 8l12 77q12 -4 30 -4q54 0 61 58l5 36l39 278q1 6 1.5 14t0.5 19q0 59 -30.5 82.5t-74.5 23.5q-58 0 -101.5 -38t-53.5 -110l-38 -268h-92l68 488h86l-4 -60q26 34 70.5 54t95.5 20
q68 0 118 -41q51 -40 51 -134z" />
    <glyph glyph-name="Omacron" unicode="&#x14c;" horiz-adv-x="771" 
d="M432 736q71 0 129.5 -24t100 -67.5t64.5 -104t23 -134.5q1 -90 -29 -167t-82 -133t-120.5 -87.5t-145.5 -29.5q-71 0 -129.5 24t-100 67.5t-64.5 104.5t-23 134q-1 90 29 167t82 133t121 87t145 30zM374 86q55 -1 104.5 23t87 67t59 102t20.5 126q0 53 -15.5 96.5
t-43.5 74.5t-67.5 48t-88.5 17q-55 1 -104.5 -23t-87 -67t-59 -101.5t-20.5 -125.5q0 -53 15.5 -96.5t43.5 -75t67.5 -48.5t88.5 -17zM615 854l-9 -67h-289l9 67h289z" />
    <glyph glyph-name="omacron" unicode="&#x14d;" horiz-adv-x="580" 
d="M319 502q51 0 93.5 -17t73.5 -47.5t48.5 -73.5t17.5 -95q1 -55 -19.5 -106.5t-57 -90.5t-86 -62t-107.5 -22q-52 0 -95 17t-74 48t-48 74t-17 95q-1 56 19.5 107t57.5 90t87 61.5t107 21.5zM283 73q37 0 69 15t55 42t36.5 63t13.5 78q0 67 -37.5 106.5t-100.5 40.5
q-39 0 -71 -16t-55 -43t-36 -63t-13 -76q0 -67 38 -107t101 -40zM497 624l-9 -67h-289l9 67h289z" />
    <glyph glyph-name="Ohungarumlaut" unicode="&#x150;" horiz-adv-x="771" 
d="M432 736q71 0 129.5 -24t100 -67.5t64.5 -104t23 -134.5q1 -90 -29 -167t-82 -133t-120.5 -87.5t-145.5 -29.5q-71 0 -129.5 24t-100 67.5t-64.5 104.5t-23 134q-1 90 29 167t82 133t121 87t145 30zM374 86q55 -1 104.5 23t87 67t59 102t20.5 126q0 53 -15.5 96.5
t-43.5 74.5t-67.5 48t-88.5 17q-55 1 -104.5 -23t-87 -67t-59 -101.5t-20.5 -125.5q0 -53 15.5 -96.5t43.5 -75t67.5 -48.5t88.5 -17zM344 783l56 128h95l-75 -128h-76zM473 783l72 128h96l-92 -128h-76z" />
    <glyph glyph-name="ohungarumlaut" unicode="&#x151;" horiz-adv-x="580" 
d="M319 502q51 0 93.5 -17t73.5 -47.5t48.5 -73.5t17.5 -95q1 -55 -19.5 -106.5t-57 -90.5t-86 -62t-107.5 -22q-52 0 -95 17t-74 48t-48 74t-17 95q-1 56 19.5 107t57.5 90t87 61.5t107 21.5zM283 73q37 0 69 15t55 42t36.5 63t13.5 78q0 67 -37.5 106.5t-100.5 40.5
q-39 0 -71 -16t-55 -43t-36 -63t-13 -76q0 -67 38 -107t101 -40zM228 553l56 128h95l-75 -128h-76zM357 553l72 128h96l-92 -128h-76z" />
    <glyph glyph-name="OE" unicode="&#x152;" horiz-adv-x="1179" 
d="M819 626l-33 -228h314l-12 -81h-312q-1 -7 -2 -12t-2 -7l-30 -215h347l-13 -83h-346h-83l13 95q-54 -54 -123.5 -82.5t-150.5 -28.5q-66 0 -122 24.5t-96.5 68t-63.5 102t-23 127.5q-2 86 29 163t85.5 134.5t127.5 90.5t154 31q81 0 146.5 -34t107.5 -97l16 116h83
l347 -1l-13 -83h-345zM694 397q0 54 -15.5 98t-44.5 75.5t-70.5 49t-92.5 17.5q-62 1 -117 -24t-95.5 -68.5t-64 -103t-22.5 -127.5q0 -53 16 -97.5t45 -76.5t70 -50t90 -18q63 -1 118.5 23.5t96 68.5t64 104t22.5 129z" />
    <glyph glyph-name="oe" unicode="&#x153;" horiz-adv-x="957" 
d="M932 292q0 -23 -3 -47l-6 -42h-380q-1 -66 34.5 -99.5t93.5 -33.5q49 0 88 22.5t66 61.5l67 -37q-38 -61 -95.5 -95t-132.5 -34q-67 0 -116.5 30t-68.5 81q-35 -54 -90 -82.5t-122 -28.5q-49 0 -89.5 15.5t-69.5 44.5t-45.5 70t-16.5 91q-1 60 20 114t58.5 94t88.5 63
t110 22q69 0 119.5 -29t71.5 -80q34 52 88 81t120 29q97 0 153.5 -56t56.5 -155zM839 298q0 58 -33 92t-88 34q-63 0 -108 -41.5t-58 -108.5h286q1 5 1 24zM456 271q0 66 -35 106.5t-98 40.5q-38 0 -71 -15.5t-57 -42.5t-38 -64t-14 -79q0 -67 35 -105.5t98 -38.5
q38 0 71 15.5t57 42t38 62.5t14 78z" />
    <glyph glyph-name="Racute" unicode="&#x154;" horiz-adv-x="655" 
d="M649 524q0 -85 -45.5 -144t-123.5 -81l97 -299h-110l-88 287h-190l-40 -287h-99l102 723h98h187q48 0 87 -13.5t67 -39t43 -62.5t15 -84zM238 634l-37 -259h177q81 0 123.5 40.5t42.5 106.5q0 112 -127 112h-179zM306 777l62 128h95l-81 -128h-76z" />
    <glyph glyph-name="racute" unicode="&#x155;" horiz-adv-x="364" 
d="M331 496q31 0 55 -7l-12 -87q-22 5 -46 5q-63 0 -104.5 -40t-50.5 -106l-36 -261h-94l68 489h88l-4 -61q19 34 55 51t81 17zM118 551l62 128h95l-81 -128h-76z" />
    <glyph glyph-name="Rcommaaccent" unicode="&#x156;" horiz-adv-x="655" 
d="M649 524q0 -85 -45.5 -144t-123.5 -81l97 -299h-110l-88 287h-190l-40 -287h-99l102 723h98h187q48 0 87 -13.5t67 -39t43 -62.5t15 -84zM238 634l-37 -259h177q81 0 123.5 40.5t42.5 106.5q0 112 -127 112h-179zM352 -94q-4 -43 -33 -70t-65 -27l4 27q17 1 29.5 11.5
t14.5 26.5q-6 -2 -13 -2q-19 0 -31.5 11.5t-12.5 33.5t14.5 37t38.5 15q23 0 39 -16t15 -47z" />
    <glyph glyph-name="rcommaaccent" unicode="&#x157;" horiz-adv-x="364" 
d="M331 496q31 0 55 -7l-12 -87q-22 5 -46 5q-63 0 -104.5 -40t-50.5 -106l-36 -261h-94l68 489h88l-4 -61q19 34 55 51t81 17zM137 -94q-4 -43 -33 -70t-65 -27l4 27q17 1 29.5 11.5t14.5 26.5q-6 -2 -13 -2q-19 0 -31.5 11.5t-12.5 33.5t14.5 37t38.5 15q23 0 39 -16
t15 -47z" />
    <glyph glyph-name="Rcaron" unicode="&#x158;" horiz-adv-x="655" 
d="M649 524q0 -85 -45.5 -144t-123.5 -81l97 -299h-110l-88 287h-190l-40 -287h-99l102 723h98h187q48 0 87 -13.5t67 -39t43 -62.5t15 -84zM238 634l-37 -259h177q81 0 123.5 40.5t42.5 106.5q0 112 -127 112h-179zM506 915l-103 -138h-86h-19l-63 138h82l41 -85l67 85h81z
" />
    <glyph glyph-name="rcaron" unicode="&#x159;" horiz-adv-x="364" 
d="M331 496q31 0 55 -7l-12 -87q-22 5 -46 5q-63 0 -104.5 -40t-50.5 -106l-36 -261h-94l68 489h88l-4 -61q19 34 55 51t81 17zM318 689l-103 -138h-86h-19l-63 138h82l41 -85l67 85h81z" />
    <glyph glyph-name="Sacute" unicode="&#x15a;" horiz-adv-x="581" 
d="M347 736q52 0 93.5 -13t70.5 -36.5t45.5 -55t17.5 -69.5l-96 -25q-3 52 -40.5 80.5t-100.5 28.5q-69 0 -110.5 -34.5t-41.5 -88.5q0 -40 23 -62.5t68 -36.5l98 -29q166 -49 166 -192q0 -47 -19.5 -86.5t-55 -68t-85.5 -44.5t-112 -16q-106 0 -170 46.5t-71 133.5l97 24
q1 -52 39 -82.5t111 -30.5q75 0 121 32t46 86q0 77 -99 107l-101 31q-78 24 -116.5 70.5t-38.5 109.5q0 48 19 88.5t53.5 70t82.5 46t106 16.5zM322 777l62 128h95l-81 -128h-76z" />
    <glyph glyph-name="sacute" unicode="&#x15b;" horiz-adv-x="452" 
d="M209 66q42 0 71.5 17t33.5 53q5 47 -56 63l-67 21q-115 36 -115 125q0 32 13 60.5t37.5 50t59 34.5t77.5 13q73 0 119.5 -33.5t49.5 -90.5l-87 -19q0 30 -23.5 47t-59.5 17q-42 0 -68.5 -21.5t-26.5 -53.5q0 -40 60 -58l68 -20q113 -36 113 -125q0 -75 -54 -116.5
t-145 -41.5q-81 0 -128.5 35.5t-49.5 95.5l87 15q-1 -32 23.5 -50t67.5 -18zM237 564l62 128h95l-81 -128h-76z" />
    <glyph glyph-name="Scircumflex" unicode="&#x15c;" horiz-adv-x="581" 
d="M347 736q52 0 93.5 -13t70.5 -36.5t45.5 -55t17.5 -69.5l-96 -25q-3 52 -40.5 80.5t-100.5 28.5q-69 0 -110.5 -34.5t-41.5 -88.5q0 -40 23 -62.5t68 -36.5l98 -29q166 -49 166 -192q0 -47 -19.5 -86.5t-55 -68t-85.5 -44.5t-112 -16q-106 0 -170 46.5t-71 133.5l97 24
q1 -52 39 -82.5t111 -30.5q75 0 121 32t46 86q0 77 -99 107l-101 31q-78 24 -116.5 70.5t-38.5 109.5q0 48 19 88.5t53.5 70t82.5 46t106 16.5zM420 777l-41 85l-66 -85h-82l103 138h86h19l63 -138h-82z" />
    <glyph glyph-name="scircumflex" unicode="&#x15d;" horiz-adv-x="452" 
d="M209 66q42 0 71.5 17t33.5 53q5 47 -56 63l-67 21q-115 36 -115 125q0 32 13 60.5t37.5 50t59 34.5t77.5 13q73 0 119.5 -33.5t49.5 -90.5l-87 -19q0 30 -23.5 47t-59.5 17q-42 0 -68.5 -21.5t-26.5 -53.5q0 -40 60 -58l68 -20q113 -36 113 -125q0 -75 -54 -116.5
t-145 -41.5q-81 0 -128.5 35.5t-49.5 95.5l87 15q-1 -32 23.5 -50t67.5 -18zM335 564l-41 85l-66 -85h-82l103 138h86h19l63 -138h-82z" />
    <glyph glyph-name="Scedilla" unicode="&#x15e;" horiz-adv-x="581" 
d="M540 203q0 -45 -17.5 -83t-50 -66.5t-78.5 -45.5t-103 -20l-24 -21h36q29 0 44.5 -18.5t15.5 -44.5q0 -35 -22.5 -59t-56.5 -24h-101l7 51h84q12 0 21 7.5t9 18.5q0 21 -24 21h-84l7 48l24 23q-88 8 -140.5 54t-59.5 124l97 24q1 -52 39 -82.5t111 -30.5q75 0 121 32
t46 86q0 77 -99 107l-101 31q-78 24 -116.5 70.5t-38.5 109.5q0 48 19 88.5t53.5 70t82.5 46t106 16.5q52 0 93.5 -13t70.5 -36.5t45.5 -55t17.5 -69.5l-96 -25q-3 52 -40.5 80.5t-100.5 28.5q-69 0 -110.5 -34.5t-41.5 -88.5q0 -40 23 -62.5t68 -36.5l98 -29
q166 -49 166 -192z" />
    <glyph glyph-name="scedilla" unicode="&#x15f;" horiz-adv-x="452" 
d="M408 146q0 -70 -49 -112t-133 -46l-27 -24h36q29 0 44.5 -18.5t15.5 -44.5q0 -35 -22.5 -59t-56.5 -24h-101l7 51h84q12 0 21 7.5t9 18.5q0 21 -24 21h-84l7 48l28 27q-61 10 -95.5 43.5t-36.5 84.5l87 15q-1 -32 23.5 -50t67.5 -18q42 0 71.5 17t33.5 53q5 47 -56 63
l-67 21q-115 36 -115 125q0 32 13 60.5t37.5 50t59 34.5t77.5 13q73 0 119.5 -33.5t49.5 -90.5l-87 -19q0 30 -23.5 47t-59.5 17q-42 0 -68.5 -21.5t-26.5 -53.5q0 -40 60 -58l68 -20q113 -36 113 -125z" />
    <glyph glyph-name="Scaron" unicode="&#x160;" horiz-adv-x="581" 
d="M347 736q52 0 93.5 -13t70.5 -36.5t45.5 -55t17.5 -69.5l-96 -25q-3 52 -40.5 80.5t-100.5 28.5q-69 0 -110.5 -34.5t-41.5 -88.5q0 -40 23 -62.5t68 -36.5l98 -29q166 -49 166 -192q0 -47 -19.5 -86.5t-55 -68t-85.5 -44.5t-112 -16q-106 0 -170 46.5t-71 133.5l97 24
q1 -52 39 -82.5t111 -30.5q75 0 121 32t46 86q0 77 -99 107l-101 31q-78 24 -116.5 70.5t-38.5 109.5q0 48 19 88.5t53.5 70t82.5 46t106 16.5zM521 915l-103 -138h-86h-19l-63 138h82l41 -85l67 85h81z" />
    <glyph glyph-name="scaron" unicode="&#x161;" horiz-adv-x="452" 
d="M209 66q42 0 71.5 17t33.5 53q5 47 -56 63l-67 21q-115 36 -115 125q0 32 13 60.5t37.5 50t59 34.5t77.5 13q73 0 119.5 -33.5t49.5 -90.5l-87 -19q0 30 -23.5 47t-59.5 17q-42 0 -68.5 -21.5t-26.5 -53.5q0 -40 60 -58l68 -20q113 -36 113 -125q0 -75 -54 -116.5
t-145 -41.5q-81 0 -128.5 35.5t-49.5 95.5l87 15q-1 -32 23.5 -50t67.5 -18zM436 702l-103 -138h-86h-19l-63 138h82l41 -85l67 85h81z" />
    <glyph glyph-name="uni0162" unicode="&#x162;" horiz-adv-x="550" 
d="M595 630h-213l-88 -630h-99l88 630h-214l13 93h526zM168 -125h84q12 0 21 7.5t9 18.5q0 21 -24 21h-84l7 48l58 55h39l-4 -29l-29 -26h36q29 0 44.5 -18.5t15.5 -44.5q0 -35 -22.5 -59t-56.5 -24h-101z" />
    <glyph glyph-name="uni0163" unicode="&#x163;" horiz-adv-x="337" 
d="M339 407h-95l-57 -407h-94l57 407h-95l11 82h96l21 153h94l-22 -153h96zM64 -123h84q12 0 21 7.5t9 18.5q0 21 -24 21h-84l7 48l58 55h39l-4 -29l-29 -26h36q29 0 44.5 -18.5t15.5 -44.5q0 -35 -22.5 -59t-56.5 -24h-101z" />
    <glyph glyph-name="Tcaron" unicode="&#x164;" horiz-adv-x="550" 
d="M595 630h-213l-88 -630h-99l88 630h-214l13 93h526zM508 915l-103 -138h-86h-19l-63 138h82l41 -85l67 85h81z" />
    <glyph glyph-name="tcaron" unicode="&#x165;" horiz-adv-x="359" 
d="M399 694q0 -2 -0.5 -5.5t-1.5 -8.5l-36 -146h-48l4 146q1 22 15.5 34.5t32.5 12.5q14 0 24 -8.5t10 -24.5zM256 489h95l-11 -82h-96l-57 -407h-94l58 407h-96l11 82h96l22 153h93z" />
    <glyph glyph-name="Tbar" unicode="&#x166;" horiz-adv-x="550" 
d="M382 630l-28 -196h147l-12 -86h-147l-48 -348h-99l49 348h-149l12 86h149l27 196h-214l13 93h526l-13 -93h-213z" />
    <glyph glyph-name="tbar" unicode="&#x167;" horiz-adv-x="340" 
d="M244 407l-14 -95h99l-11 -82h-99l-32 -230h-94l32 230h-92l11 82h93l13 95h-95l11 82h96l21 153h94l-22 -153h96l-12 -82h-95z" />
    <glyph glyph-name="Utilde" unicode="&#x168;" horiz-adv-x="707" 
d="M144 723h99l-63 -449q-3 -21 -3 -39q0 -81 48 -117q49 -35 114 -35q81 0 137 46.5t69 146.5l63 447h99l-67 -473q-18 -130 -100 -196t-201 -66q-52 0 -99.5 14t-83.5 43.5t-57.5 74.5t-21.5 106q0 14 1 27.5t3 26.5zM380 920q20 0 36.5 -7t35.5 -19q32 -21 55 -21
q35 0 38 44h65q-1 -57 -31.5 -87.5t-73.5 -30.5q-22 0 -39 7t-40 20q-15 9 -25.5 14t-20.5 5q-33 0 -37 -46h-65q1 57 30.5 89t71.5 32z" />
    <glyph glyph-name="utilde" unicode="&#x169;" horiz-adv-x="571" 
d="M555 489l-68 -489h-87l3 61q-26 -34 -69 -53.5t-94 -19.5q-72 0 -123 39q-50 41 -50 128q0 7 1 18.5t3 28.5l41 287h95l-39 -281q-3 -18 -3 -33q0 -56 31 -79.5t74 -23.5q57 0 100 37.5t52 104.5l39 275h94zM288 690q20 0 36.5 -7t35.5 -19q32 -21 55 -21q35 0 38 44h65
q-1 -57 -31.5 -87.5t-73.5 -30.5q-22 0 -39 7t-40 20q-15 9 -25.5 14t-20.5 5q-33 0 -37 -46h-65q1 57 30.5 89t71.5 32z" />
    <glyph glyph-name="Umacron" unicode="&#x16a;" horiz-adv-x="707" 
d="M144 723h99l-63 -449q-3 -21 -3 -39q0 -81 48 -117q49 -35 114 -35q81 0 137 46.5t69 146.5l63 447h99l-67 -473q-18 -130 -100 -196t-201 -66q-52 0 -99.5 14t-83.5 43.5t-57.5 74.5t-21.5 106q0 14 1 27.5t3 26.5zM588 854l-9 -67h-289l9 67h289z" />
    <glyph glyph-name="umacron" unicode="&#x16b;" horiz-adv-x="571" 
d="M555 489l-68 -489h-87l3 61q-26 -34 -69 -53.5t-94 -19.5q-72 0 -123 39q-50 41 -50 128q0 7 1 18.5t3 28.5l41 287h95l-39 -281q-3 -18 -3 -33q0 -56 31 -79.5t74 -23.5q57 0 100 37.5t52 104.5l39 275h94zM497 624l-9 -67h-289l9 67h289z" />
    <glyph glyph-name="Uring" unicode="&#x16e;" horiz-adv-x="707" 
d="M144 723h99l-63 -449q-3 -21 -3 -39q0 -81 48 -117q49 -35 114 -35q81 0 137 46.5t69 146.5l63 447h99l-67 -473q-18 -130 -100 -196t-201 -66q-52 0 -99.5 14t-83.5 43.5t-57.5 74.5t-21.5 106q0 14 1 27.5t3 26.5zM332 872q0 27 11 51t30 42t43 28.5t49 10.5
q22 0 41 -8.5t32.5 -22.5t21 -33.5t7.5 -40.5q0 -26 -11.5 -49.5t-30 -41.5t-43 -28.5t-50.5 -10.5q-45 0 -72.5 29t-27.5 74zM506 894q0 21 -14 35.5t-35 14.5q-26 0 -45.5 -19t-19.5 -45q0 -22 13.5 -36t35.5 -14q27 0 46 18.5t19 45.5z" />
    <glyph glyph-name="uring" unicode="&#x16f;" horiz-adv-x="571" 
d="M555 489l-68 -489h-87l3 61q-26 -34 -69 -53.5t-94 -19.5q-72 0 -123 39q-50 41 -50 128q0 7 1 18.5t3 28.5l41 287h95l-39 -281q-3 -18 -3 -33q0 -56 31 -79.5t74 -23.5q57 0 100 37.5t52 104.5l39 275h94zM240 642q0 27 11 51t30 42t43 28.5t49 10.5q22 0 41 -8.5
t32.5 -22.5t21 -33.5t7.5 -40.5q0 -26 -11.5 -49.5t-30 -41.5t-43 -28.5t-50.5 -10.5q-45 0 -72.5 29t-27.5 74zM414 664q0 21 -14 35.5t-35 14.5q-26 0 -45.5 -19t-19.5 -45q0 -22 13.5 -36t35.5 -14q27 0 46 18.5t19 45.5z" />
    <glyph glyph-name="Uhungarumlaut" unicode="&#x170;" horiz-adv-x="707" 
d="M144 723h99l-63 -449q-3 -21 -3 -39q0 -81 48 -117q49 -35 114 -35q81 0 137 46.5t69 146.5l63 447h99l-67 -473q-18 -130 -100 -196t-201 -66q-52 0 -99.5 14t-83.5 43.5t-57.5 74.5t-21.5 106q0 14 1 27.5t3 26.5zM324 777l56 128h95l-75 -128h-76zM453 777l72 128h96
l-92 -128h-76z" />
    <glyph glyph-name="uhungarumlaut" unicode="&#x171;" horiz-adv-x="571" 
d="M555 489l-68 -489h-87l3 61q-26 -34 -69 -53.5t-94 -19.5q-72 0 -123 39q-50 41 -50 128q0 7 1 18.5t3 28.5l41 287h95l-39 -281q-3 -18 -3 -33q0 -56 31 -79.5t74 -23.5q57 0 100 37.5t52 104.5l39 275h94zM232 547l56 128h95l-75 -128h-76zM361 547l72 128h96l-92 -128
h-76z" />
    <glyph glyph-name="Uogonek" unicode="&#x172;" horiz-adv-x="707" 
d="M707 723l-67 -473q-18 -130 -100 -196t-201 -66h-6q-28 -14 -42 -31.5t-14 -33.5q0 -13 9 -21t24 -8q12 0 21 4l-9 -69q-21 -7 -44 -7q-36 0 -55.5 20t-19.5 49q0 30 20.5 58.5t57.5 43.5q-45 8 -82.5 26t-64.5 47t-42 69t-15 91q0 14 1 27.5t3 26.5l63 443h99l-63 -449
q-3 -21 -3 -39q0 -81 48 -117q49 -35 114 -35q81 0 137 46.5t69 146.5l63 447h99z" />
    <glyph glyph-name="uogonek" unicode="&#x173;" horiz-adv-x="571" 
d="M424 -72q0 -13 8.5 -21t23.5 -8q13 0 22 4l-9 -69q-22 -7 -45 -7q-36 0 -55.5 20t-19.5 49q0 31 21.5 60t63.5 44h-34l3 61q-26 -34 -69 -53.5t-94 -19.5q-72 0 -123 39q-50 41 -50 128q0 7 1 18.5t3 28.5l41 287h95l-39 -281q-3 -18 -3 -33q0 -56 31 -79.5t74 -23.5
q57 0 100 37.5t52 104.5l39 275h94l-68 -489h8q-35 -14 -53 -34t-18 -38z" />
    <glyph glyph-name="Wcircumflex" unicode="&#x174;" horiz-adv-x="1002" 
d="M1056 723l-319 -723h-95l-97 552l-254 -552h-96l-114 723h106l81 -555l247 555h108l90 -558l239 558h104zM630 777l-41 85l-66 -85h-82l103 138h86h19l63 -138h-82z" />
    <glyph glyph-name="wcircumflex" unicode="&#x175;" horiz-adv-x="777" 
d="M805 489l-237 -489h-89l-67 349l-166 -349h-93l-95 489h98l60 -352l163 352h98l61 -354l163 354h104zM495 546l-41 85l-66 -85h-82l103 138h86h19l63 -138h-82z" />
    <glyph glyph-name="Ycircumflex" unicode="&#x176;" horiz-adv-x="604" 
d="M189 723l134 -332l236 332h107l-303 -427l-41 -296h-100l42 296l-187 427h112zM435 777l-41 85l-66 -85h-82l103 138h86h19l63 -138h-82z" />
    <glyph glyph-name="ycircumflex" unicode="&#x177;" horiz-adv-x="540" 
d="M569 489l-319 -609q-30 -58 -73 -84.5t-92 -26.5q-53 0 -99 28l35 82q29 -20 62 -20q25 0 47.5 13.5t36.5 40.5l31 60l-140 516h99l100 -401l205 401h107zM377 547l-41 85l-66 -85h-82l103 138h86h19l63 -138h-82z" />
    <glyph glyph-name="Ydieresis" unicode="&#x178;" horiz-adv-x="604" 
d="M189 723l134 -332l236 332h107l-303 -427l-41 -296h-100l42 296l-187 427h112zM230 838q0 30 23 52t53 22q24 0 40.5 -17.5t16.5 -42.5q0 -28 -23 -50t-52 -22q-25 0 -41.5 17t-16.5 41zM417 838q0 30 23 52t53 22q25 0 41.5 -17.5t16.5 -42.5q0 -14 -6.5 -27t-17 -23
t-24 -16t-28.5 -6q-25 0 -41.5 17t-16.5 41z" />
    <glyph glyph-name="Zacute" unicode="&#x179;" horiz-adv-x="560" 
d="M20 94l445 534h-368l13 95h484l-13 -94l-445 -535h365l-13 -94h-479zM315 777l62 128h95l-81 -128h-76z" />
    <glyph glyph-name="zacute" unicode="&#x17a;" horiz-adv-x="467" 
d="M31 86l306 319h-262l12 84h381l-12 -86l-309 -319h264l-11 -84h-381zM241 547l62 128h95l-81 -128h-76z" />
    <glyph glyph-name="Zdotaccent" unicode="&#x17b;" horiz-adv-x="560" 
d="M20 94l445 534h-368l13 95h484l-13 -94l-445 -535h365l-13 -94h-479zM303 838q0 30 23 52t52 22q24 0 40.5 -17.5t16.5 -41.5q0 -29 -23 -51t-52 -22q-24 0 -40.5 17t-16.5 41z" />
    <glyph glyph-name="zdotaccent" unicode="&#x17c;" horiz-adv-x="467" 
d="M31 86l306 319h-262l12 84h381l-12 -86l-309 -319h264l-11 -84h-381zM229 608q0 30 23 52t52 22q24 0 40.5 -17.5t16.5 -41.5q0 -29 -23 -51t-52 -22q-24 0 -40.5 17t-16.5 41z" />
    <glyph glyph-name="Zcaron" unicode="&#x17d;" horiz-adv-x="560" 
d="M20 94l445 534h-368l13 95h484l-13 -94l-445 -535h365l-13 -94h-479zM515 915l-103 -138h-86h-19l-63 138h82l41 -85l67 85h81z" />
    <glyph glyph-name="zcaron" unicode="&#x17e;" horiz-adv-x="467" 
d="M31 86l306 319h-262l12 84h381l-12 -86l-309 -319h264l-11 -84h-381zM441 685l-103 -138h-86h-19l-63 138h82l41 -85l67 85h81z" />
    <glyph glyph-name="florin" unicode="&#x192;" horiz-adv-x="543" 
d="M407 595l-30 -107h139l-11 -80h-151l-16 -59h-1l-109 -385q-17 -58 -52 -87t-83 -29h-92l11 88h64q50 0 63 52l104 361l16 59h-122l10 80h135l34 120q16 58 51 89.5t104 31.5h83l-12 -88h-74q-26 0 -40.5 -11.5t-20.5 -34.5z" />
    <glyph glyph-name="Aringacute" unicode="&#x1fa;" horiz-adv-x="640" 
d="M467 921h-76l62 129h95zM602 0h-103l-38 180h-296l-90 -180h-99l346 698q-28 28 -28 73q0 27 11 51t30 42t43 28.5t49 10.5q22 0 41 -8.5t32.5 -22.5t21 -33.5t7.5 -40.5q0 -38 -23 -70.5t-58 -47.5zM355 779q0 -22 13 -36t35 -14q27 0 46 18.5t19 45.5q0 21 -13.5 35
t-35.5 14q-26 0 -45 -18.5t-19 -44.5zM443 265l-71 330l-166 -330h237z" />
    <glyph glyph-name="aringacute" unicode="&#x1fb;" horiz-adv-x="598" 
d="M389 697h-75l61 120h92zM583 489l-69 -489h-87l7 79q-26 -42 -74 -66.5t-102 -24.5q-98 0 -154 63q-56 64 -56 166t49 175q49 74 131 100q-14 26 -14 55q0 27 11 51t30 42t43 28.5t49 10.5q22 0 41 -8.5t32.5 -22.5t21 -33.5t7.5 -40.5q0 -27 -12.5 -52t-33.5 -43
q50 -25 76 -77l16 87h88zM274 555q0 -22 13.5 -36t35.5 -14q27 0 46 18.5t19 45.5q0 21 -14 35t-35 14q-26 0 -45.5 -18.5t-19.5 -44.5zM449 265q0 67 -37.5 109t-100.5 42q-36 0 -66.5 -15t-53 -41t-35 -61t-12.5 -75q0 -75 37.5 -113.5t98.5 -38.5q36 0 67 15.5t53.5 42
t35.5 61.5t13 74z" />
    <glyph glyph-name="AEacute" unicode="&#x1fc;" horiz-adv-x="914" 
d="M559 629l-31 -220h313l-13 -91l-313 1l-32 -226h348l-15 -93h-346h-94l28 195h-220l-101 -195h-107l380 722h101h21h94h347l-15 -94zM465 629h-56l-181 -350h188zM583 777l62 128h95l-81 -128h-76z" />
    <glyph glyph-name="aeacute" unicode="&#x1fd;" horiz-adv-x="871" 
d="M847 297q0 -20 -3 -41q-1 -10 -3 -23.5t-3 -22.5h-386q-3 -67 33.5 -103.5t97.5 -36.5q48 0 88.5 22.5t66.5 61.5l68 -37q-39 -64 -99.5 -96.5t-132.5 -32.5q-66 0 -113.5 28t-67.5 77q-27 -51 -77.5 -78t-114.5 -27q-37 0 -69.5 9t-55.5 27t-36.5 45t-13.5 63
q0 33 12 60.5t33.5 48t51.5 31.5t66 11h139q22 0 32.5 11.5t10.5 39.5q0 45 -29.5 67t-72.5 22q-48 0 -82.5 -20.5t-59.5 -60.5l-65 42q35 60 88.5 89.5t119.5 29.5q63 0 107.5 -26t61.5 -71q32 43 84.5 70t113.5 27q48 0 87 -14.5t66 -41.5t42 -65t15 -85zM754 301
q0 57 -34.5 90t-91.5 33q-61 0 -105.5 -38.5t-61.5 -105.5h292q1 5 1 21zM365 213h-160q-43 0 -66 -21.5t-23 -56.5q0 -36 26.5 -54t69.5 -18q66 0 102.5 35.5t47.5 95.5zM428 547l62 128h95l-81 -128h-76z" />
    <glyph glyph-name="Oslashacute" unicode="&#x1fe;" horiz-adv-x="775" 
d="M739 407q1 -90 -29 -167t-82 -133.5t-120.5 -87.5t-145.5 -30q-77 0 -141 29l-18 -28h-95l44 71q-52 45 -80 111.5t-28 147.5q-1 90 29 166.5t82 133t121 88t145 29.5q77 0 137 -27l15 24h95l-41 -66q54 -43 83 -110t29 -151zM504 625q-37 15 -85 15q-55 1 -104.5 -23
t-86.5 -67t-58.5 -101t-20.5 -126q0 -54 15 -97.5t44 -74.5zM634 404q0 54 -16 99t-46 77l-297 -476q42 -17 89 -17q55 -1 104.5 23t86.5 67t58.5 101.5t20.5 125.5zM342 770l62 128h95l-81 -128h-76z" />
    <glyph glyph-name="oslashacute" unicode="&#x1ff;" horiz-adv-x="580" 
d="M489 436q30 -31 46.5 -74t16.5 -94q1 -55 -19.5 -106.5t-57 -90.5t-86 -61.5t-107.5 -21.5q-64 0 -113 25l-48 -63h-86l78 103q-31 31 -48 74t-17 94q-1 56 19.5 107t57.5 90t87 62t107 22q63 0 117 -27l42 56h83zM381 404q-27 13 -62 14q-39 0 -71 -16t-55 -43
t-36 -63.5t-13 -77.5q0 -53 26 -91zM223 84q28 -11 60 -11q37 0 69 15t55 41t36.5 61.5t13.5 77.5q0 56 -25 93zM298 547l62 128h95l-81 -128h-76z" />
    <glyph glyph-name="Scommaaccent" unicode="&#x218;" horiz-adv-x="581" 
d="M347 736q52 0 93.5 -13t70.5 -36.5t45.5 -55t17.5 -69.5l-96 -25q-3 52 -40.5 80.5t-100.5 28.5q-69 0 -110.5 -34.5t-41.5 -88.5q0 -40 23 -62.5t68 -36.5l98 -29q166 -49 166 -192q0 -47 -19.5 -86.5t-55 -68t-85.5 -44.5t-112 -16q-106 0 -170 46.5t-71 133.5l97 24
q1 -52 39 -82.5t111 -30.5q75 0 121 32t46 86q0 77 -99 107l-101 31q-78 24 -116.5 70.5t-38.5 109.5q0 48 19 88.5t53.5 70t82.5 46t106 16.5zM313 -97q-4 -43 -33 -70t-65 -27l4 27q17 1 29.5 11.5t14.5 26.5q-6 -2 -13 -2q-19 0 -31.5 11.5t-12.5 33.5t14.5 37t38.5 15
q23 0 39 -16t15 -47z" />
    <glyph glyph-name="scommaaccent" unicode="&#x219;" horiz-adv-x="452" 
d="M209 66q42 0 71.5 17t33.5 53q5 47 -56 63l-67 21q-115 36 -115 125q0 32 13 60.5t37.5 50t59 34.5t77.5 13q73 0 119.5 -33.5t49.5 -90.5l-87 -19q0 30 -23.5 47t-59.5 17q-42 0 -68.5 -21.5t-26.5 -53.5q0 -40 60 -58l68 -20q113 -36 113 -125q0 -75 -54 -116.5
t-145 -41.5q-81 0 -128.5 35.5t-49.5 95.5l87 15q-1 -32 23.5 -50t67.5 -18zM245 -99q-4 -43 -33 -70t-65 -27l4 27q17 1 29.5 11.5t14.5 26.5q-6 -2 -13 -2q-19 0 -31.5 11.5t-12.5 33.5t14.5 37t38.5 15q23 0 39 -16t15 -47z" />
    <glyph glyph-name="uni021A" unicode="&#x21a;" horiz-adv-x="550" 
d="M595 630h-213l-88 -630h-99l88 630h-214l13 93h526zM291 -94q-4 -43 -33 -70t-65 -27l4 27q17 1 29.5 11.5t14.5 26.5q-6 -2 -13 -2q-19 0 -31.5 11.5t-12.5 33.5t14.5 37t38.5 15q23 0 39 -16t15 -47z" />
    <glyph glyph-name="uni021B" unicode="&#x21b;" horiz-adv-x="337" 
d="M339 407h-95l-57 -407h-94l57 407h-95l11 82h96l21 153h94l-22 -153h96zM186 -92q-4 -43 -33 -70t-65 -27l4 27q17 1 29.5 11.5t14.5 26.5q-6 -2 -13 -2q-19 0 -31.5 11.5t-12.5 33.5t14.5 37t38.5 15q23 0 39 -16t15 -47z" />
    <glyph glyph-name="uni0237" unicode="&#x237;" horiz-adv-x="249" 
d="M-83 -129q33 -14 54 -14q31 0 51 20.5t25 60.5l78 550h96l-79 -565q-11 -79 -55.5 -116.5t-105.5 -37.5q-45 0 -93 20z" />
    <glyph glyph-name="circumflex" unicode="&#x2c6;" horiz-adv-x="340" 
d="M337 768l-41 85l-66 -85h-82l103 138h86h19l63 -138h-82z" />
    <glyph glyph-name="caron" unicode="&#x2c7;" horiz-adv-x="338" 
d="M422 906l-103 -138h-86h-19l-63 138h82l41 -85l67 85h81z" />
    <glyph glyph-name="breve" unicode="&#x2d8;" horiz-adv-x="353" 
d="M285 768q-29 0 -53 9.5t-41.5 26t-27.5 38.5t-10 48q0 14 1 18h78q-4 -30 14 -47t50 -17q31 0 53.5 17t27.5 47h77q-4 -29 -19.5 -54.5t-38.5 -44.5t-51.5 -30t-59.5 -11z" />
    <glyph glyph-name="dotaccent" unicode="&#x2d9;" horiz-adv-x="172" 
d="M137 829q0 30 23 52t53 22q24 0 40.5 -17.5t16.5 -42.5q0 -28 -23 -50t-52 -22q-25 0 -41.5 17t-16.5 41z" />
    <glyph glyph-name="ring" unicode="&#x2da;" horiz-adv-x="268" 
d="M138 863q0 27 11 51t30 42t43 28.5t49 10.5q22 0 41 -8.5t32.5 -22.5t21 -33.5t7.5 -40.5q0 -26 -11.5 -49.5t-30 -41.5t-43 -28.5t-50.5 -10.5q-43 0 -71.5 29t-28.5 74zM312 885q0 21 -13.5 35.5t-35.5 14.5q-26 0 -45 -19t-19 -45q0 -22 13 -36t35 -14q27 0 46 18.5
t19 45.5z" />
    <glyph glyph-name="ogonek" unicode="&#x2db;" horiz-adv-x="363" 
d="M240 0q-35 -14 -53 -34t-18 -38q0 -13 8.5 -21t23.5 -8q13 0 22 4l-9 -69q-22 -7 -45 -7q-36 0 -55.5 20t-19.5 49q0 31 21.5 60t63.5 44h61z" />
    <glyph glyph-name="tilde" unicode="&#x2dc;" horiz-adv-x="365" 
d="M236 911q20 0 36.5 -7t35.5 -19q32 -21 55 -21q35 0 38 44h65q-1 -57 -31.5 -87.5t-73.5 -30.5q-22 0 -39 7t-40 20q-15 9 -25.5 14t-20.5 5q-33 0 -37 -46h-65q1 57 30.5 89t71.5 32z" />
    <glyph glyph-name="hungarumlaut" unicode="&#x2dd;" horiz-adv-x="378" 
d="M29 768l56 128h95l-75 -128h-76zM158 768l72 128h96l-92 -128h-76z" />
    <glyph glyph-name="gravecomb" unicode="&#x300;" 
d="M-222 910h95l71 -142h-76z" />
    <glyph glyph-name="acutecomb" unicode="&#x301;" 
d="M-189 768l62 128h95l-81 -128h-76z" />
    <glyph glyph-name="uni0302" unicode="&#x302;" 
d="M-14 768l-41 85l-66 -85h-82l103 138h86h19l63 -138h-82z" />
    <glyph glyph-name="tildecomb" unicode="&#x303;" 
d="M-126 911q20 0 36.5 -7t35.5 -19q32 -21 55 -21q35 0 38 44h65q-1 -57 -31.5 -87.5t-73.5 -30.5q-22 0 -39 7t-40 20q-15 9 -25.5 14t-20.5 5q-33 0 -37 -46h-65q1 57 30.5 89t71.5 32z" />
    <glyph glyph-name="uni0304" unicode="&#x304;" 
d="M100 890l-10 -67h-289l10 67h289z" />
    <glyph glyph-name="uni0306" unicode="&#x306;" 
d="M-120 911q-1 -3 -1 -11q0 -26 18 -41t47 -15q32 0 54.5 18t27.5 49h77q-4 -30 -19.5 -56t-38.5 -45.5t-52 -30.5t-60 -11q-58 0 -95 34t-37 88q0 4 0.5 9t1.5 12h77z" />
    <glyph glyph-name="uni0307" unicode="&#x307;" 
d="M-123 829q0 30 23 52t52 22q24 0 40.5 -17.5t16.5 -41.5q0 -29 -23 -51t-52 -22q-24 0 -40.5 17t-16.5 41z" />
    <glyph glyph-name="uni0308" unicode="&#x308;" 
d="M-263 833q0 29 21 49.5t50 20.5q25 0 43 -18.5t18 -44.5q0 -28 -21 -48.5t-48 -20.5t-45 18t-18 44zM-81 833q0 28 21 49t49 21q25 0 43 -18.5t18 -44.5q0 -28 -21 -48.5t-48 -20.5q-26 0 -44 18t-18 44z" />
    <glyph glyph-name="uni030A" unicode="&#x30a;" 
d="M-125 863q0 27 11 51t30 42t42.5 28.5t49.5 10.5q22 0 41 -8.5t32.5 -22.5t21 -33.5t7.5 -40.5q0 -26 -11.5 -49.5t-30 -41.5t-43 -28.5t-50.5 -10.5q-45 0 -72.5 29t-27.5 74zM49 885q0 21 -14 35.5t-35 14.5q-26 0 -45.5 -19t-19.5 -45q0 -22 13.5 -36t35.5 -14
q27 0 46 18.5t19 45.5z" />
    <glyph glyph-name="uni030B" unicode="&#x30b;" 
d="M-330 768l71 141h95l-90 -141h-76zM-217 768l92 141h95l-111 -141h-76z" />
    <glyph glyph-name="uni030C" unicode="&#x30c;" 
d="M33 910l-92 -142h-86h-19l-74 142h81l49 -88l59 88h82z" />
    <glyph glyph-name="uni0312" unicode="&#x312;" 
d="M65 821q0 -23 -14.5 -37.5t-38.5 -14.5q-23 0 -39 15.5t-15 46.5q4 43 33 70t65 27l-4 -27q-17 -1 -29.5 -11.5t-14.5 -26.5q6 3 13 3q19 0 31.5 -11.5t12.5 -33.5z" />
    <glyph glyph-name="uni0326" unicode="&#x326;" 
d="M-51 -88q-4 -43 -33 -70t-65 -27l4 27q17 1 29.5 11.5t14.5 26.5q-6 -2 -13 -2q-19 0 -31.5 11.5t-12.5 33.5t14.5 37t38.5 15q23 0 39 -16t15 -47z" />
    <glyph glyph-name="uni0327" unicode="&#x327;" 
d="M-321 -121h84q12 0 21 7.5t9 18.5q0 21 -24 21h-84l7 48l58 55h39l-4 -29l-29 -26h36q29 0 44.5 -18.5t15.5 -44.5q0 -35 -22.5 -59t-56.5 -24h-101z" />
    <glyph glyph-name="uni0338" unicode="&#x338;" 
d="M-538 -42l443 581h83l-440 -581h-86z" />
    <glyph glyph-name="uni03A9" unicode="&#x3a9;" horiz-adv-x="649" 
d="M585 76v-76h-216v76q63 25 95.5 75t32.5 110q0 36 -13 65.5t-35.5 50.5t-53 32.5t-65.5 11.5t-65.5 -11.5t-53 -33t-35.5 -51t-13 -65.5q0 -61 34 -111t94 -73v-76h-217v76h94q-43 37 -66 86t-23 106q0 50 19 92.5t52.5 74.5t79.5 50t100 18q55 0 101 -18t79 -49.5
t51.5 -74.5t18.5 -92q0 -57 -23.5 -106t-66.5 -87h95z" />
    <glyph glyph-name="pi" unicode="&#x3c0;" horiz-adv-x="627" 
d="M483 408v-271q0 -30 11 -40t34 -10l57 -1v-86h-95q-101 0 -101 123v285h-185v-408h-93v408h-94v80h187h279h102v-80h-102z" />
    <glyph glyph-name="Wgrave" unicode="&#x1e80;" horiz-adv-x="1002" 
d="M1056 723l-319 -723h-95l-97 552l-254 -552h-96l-114 723h106l81 -555l247 555h108l90 -558l239 558h104zM450 905h95l64 -128h-76z" />
    <glyph glyph-name="wgrave" unicode="&#x1e81;" horiz-adv-x="777" 
d="M805 489l-237 -489h-89l-67 349l-166 -349h-93l-95 489h98l60 -352l163 352h98l61 -354l163 354h104zM314 674h95l64 -128h-76z" />
    <glyph glyph-name="Wacute" unicode="&#x1e82;" horiz-adv-x="1002" 
d="M1056 723l-319 -723h-95l-97 552l-254 -552h-96l-114 723h106l81 -555l247 555h108l90 -558l239 558h104zM532 777l62 128h95l-81 -128h-76z" />
    <glyph glyph-name="wacute" unicode="&#x1e83;" horiz-adv-x="777" 
d="M805 489l-237 -489h-89l-67 349l-166 -349h-93l-95 489h98l60 -352l163 352h98l61 -354l163 354h104zM397 546l62 128h95l-81 -128h-76z" />
    <glyph glyph-name="Wdieresis" unicode="&#x1e84;" horiz-adv-x="1002" 
d="M1056 723l-319 -723h-95l-97 552l-254 -552h-96l-114 723h106l81 -555l247 555h108l90 -558l239 558h104zM426 838q0 30 23 52t53 22q24 0 40.5 -17.5t16.5 -42.5q0 -28 -23 -50t-52 -22q-25 0 -41.5 17t-16.5 41zM613 838q0 30 23 52t53 22q25 0 41.5 -17.5t16.5 -42.5
q0 -14 -6.5 -27t-17 -23t-24 -16t-28.5 -6q-25 0 -41.5 17t-16.5 41z" />
    <glyph glyph-name="wdieresis" unicode="&#x1e85;" horiz-adv-x="777" 
d="M805 489l-237 -489h-89l-67 349l-166 -349h-93l-95 489h98l60 -352l163 352h98l61 -354l163 354h104zM290 607q0 30 23 52t53 22q24 0 40.5 -17.5t16.5 -42.5q0 -28 -23 -50t-52 -22q-25 0 -41.5 17t-16.5 41zM477 607q0 30 23 52t53 22q25 0 41.5 -17.5t16.5 -42.5
q0 -14 -6.5 -27t-17 -23t-24 -16t-28.5 -6q-25 0 -41.5 17t-16.5 41z" />
    <glyph glyph-name="Ygrave" unicode="&#x1ef2;" horiz-adv-x="604" 
d="M189 723l134 -332l236 332h107l-303 -427l-41 -296h-100l42 296l-187 427h112zM254 905h95l64 -128h-76z" />
    <glyph glyph-name="ygrave" unicode="&#x1ef3;" horiz-adv-x="540" 
d="M569 489l-319 -609q-30 -58 -73 -84.5t-92 -26.5q-53 0 -99 28l35 82q29 -20 62 -20q25 0 47.5 13.5t36.5 40.5l31 60l-140 516h99l100 -401l205 401h107zM197 675h95l64 -128h-76z" />
    <glyph glyph-name="endash" unicode="&#x2013;" horiz-adv-x="891" 
d="M856 318l-12 -86h-790l11 86h791z" />
    <glyph glyph-name="emdash" unicode="&#x2014;" horiz-adv-x="1100" 
d="M1060 318l-13 -86h-994l12 86h995z" />
    <glyph glyph-name="quoteleft" unicode="&#x2018;" horiz-adv-x="263" 
d="M238 551q0 -29 -21 -49.5t-52 -20.5q-28 0 -46 18.5t-18 55.5q0 29 10.5 53.5t28.5 42t41 27t47 9.5l-5 -35q-22 -1 -38 -14.5t-20 -33.5q10 2 16 2q26 0 41.5 -14t15.5 -41z" />
    <glyph glyph-name="quoteright" unicode="&#x2019;" horiz-adv-x="263" 
d="M263 611q0 -30 -10.5 -54.5t-28.5 -42t-40.5 -27t-46.5 -8.5l5 35q22 0 38 13.5t19 34.5q-7 -3 -16 -3q-26 0 -41 14t-15 42q0 29 20.5 49t52.5 20q27 0 45 -18t18 -55z" />
    <glyph glyph-name="quotesinglbase" unicode="&#x201a;" horiz-adv-x="233" 
d="M180 30q0 -55 -31 -87.5t-76 -31.5v35q23 0 37 14t13 36q-10 -5 -22 -5q-24 0 -40.5 16t-16.5 44q0 29 18.5 47t46.5 18q31 0 51 -21.5t20 -64.5z" />
    <glyph glyph-name="quotedblleft" unicode="&#x201c;" horiz-adv-x="424" 
d="M238 551q0 -29 -21 -49.5t-52 -20.5q-28 0 -46 18.5t-18 55.5q0 29 10.5 53.5t28.5 42t41 27t47 9.5l-5 -35q-22 -1 -38 -14.5t-20 -33.5q8 2 17 2q25 0 40.5 -14t15.5 -41zM399 551q0 -29 -21 -49.5t-52 -20.5q-28 0 -45.5 18t-17.5 56q0 29 10.5 53.5t28.5 42t40.5 27
t46.5 8.5l-5 -35q-22 0 -38 -13t-20 -34q5 1 9 1.5t7 0.5q26 0 41.5 -14t15.5 -41z" />
    <glyph glyph-name="quotedblright" unicode="&#x201d;" horiz-adv-x="424" 
d="M242 611q0 -30 -10.5 -54.5t-28.5 -42t-40.5 -27t-46.5 -8.5l5 35q22 0 38 13.5t19 34.5q-6 -3 -16 -3q-26 0 -41 14t-15 42q0 29 20.5 49t51.5 20q28 0 46 -18t18 -55zM403 611q0 -30 -10.5 -54.5t-28.5 -42t-40.5 -27t-46.5 -8.5l5 35q22 0 38 13.5t19 34.5
q-7 -3 -16 -3q-26 0 -41 14t-15 42q0 29 20.5 49t52.5 20q27 0 45 -18t18 -55z" />
    <glyph glyph-name="quotedblbase" unicode="&#x201e;" horiz-adv-x="424" 
d="M206 42q0 -30 -10.5 -54.5t-28.5 -42t-41 -27t-47 -8.5l5 35q22 1 38 14.5t20 33.5q-9 -3 -18 -3q-24 0 -39.5 14.5t-15.5 41.5q0 29 21 49t52 20q28 0 46 -18t18 -55zM367 42q0 -30 -10.5 -54.5t-28.5 -42t-41 -27t-47 -8.5l5 35q22 1 38.5 14.5t19.5 33.5q-7 -3 -18 -3
q-25 0 -39.5 14.5t-14.5 41.5q0 29 20.5 49t51.5 20q28 0 46 -18t18 -55z" />
    <glyph glyph-name="dagger" unicode="&#x2020;" horiz-adv-x="348" 
d="M357 544h-103v-280h-66v280h-103v66h103v100h66v-100h103v-66z" />
    <glyph glyph-name="daggerdbl" unicode="&#x2021;" horiz-adv-x="371" 
d="M357 381h-103v-117h-65v117h-104v65h104v82h-106v65h106v117h65v-117h101v-65h-101v-82h103v-65z" />
    <glyph glyph-name="bullet" unicode="&#x2022;" horiz-adv-x="429" 
d="M69 255q0 34 12.5 63t34.5 50t51.5 33t63.5 12q60 0 97 -39q38 -40 38 -96q0 -33 -12.5 -62t-34.5 -50t-51.5 -33t-62.5 -12q-58 0 -98 38q-38 38 -38 96z" />
    <glyph glyph-name="ellipsis" unicode="&#x2026;" horiz-adv-x="750" 
d="M75 48q0 15 7 29.5t18 25.5t26 17.5t31 6.5q26 0 44.5 -18.5t18.5 -44.5q0 -31 -26 -55q-26 -23 -57 -23q-27 0 -44.5 18t-17.5 44zM311 48q0 15 7 29.5t18 25.5t26 17.5t31 6.5q26 0 44.5 -18.5t18.5 -44.5q0 -15 -7 -29.5t-19 -25t-27 -17t-30 -6.5q-27 0 -44.5 18
t-17.5 44zM547 48q0 15 7 29.5t18 25.5t26 17.5t31 6.5q26 0 44 -18.5t18 -44.5q0 -31 -26 -55q-26 -23 -57 -23q-26 0 -43.5 18t-17.5 44z" />
    <glyph glyph-name="perthousand" unicode="&#x2030;" horiz-adv-x="1320" 
d="M275 736q66 0 107 -45t41 -120q0 -47 -14 -87.5t-38.5 -70t-58 -46t-72.5 -16.5q-66 0 -108 45t-42 120q0 47 13.5 87.5t38 70t58.5 46t75 16.5zM165 0l551 722h98l-551 -722h-98zM243 423q47 0 77 41t30 100q0 46 -21.5 72t-57.5 26q-24 0 -44 -10.5t-34 -29.5t-22 -44
t-8 -55q0 -48 22 -74t58 -26zM753 370q66 0 107 -45t41 -121q0 -47 -14 -87t-38.5 -69.5t-58 -46t-72.5 -16.5q-66 0 -108 44.5t-42 119.5q0 48 13.5 88.5t37.5 70t58 46t76 16.5zM1120 370q66 0 107.5 -45t41.5 -121q0 -47 -14 -87t-38.5 -69.5t-58 -46t-72.5 -16.5
q-33 0 -60.5 11.5t-48 33t-31.5 52t-11 67.5q0 48 13.5 88.5t38.5 70t59 46t74 16.5zM721 57q48 0 77 41q30 41 30 100q0 46 -21.5 72t-56.5 26q-24 0 -44.5 -10.5t-34.5 -29.5t-22 -44.5t-8 -55.5q0 -46 22 -72.5t58 -26.5zM1089 57q24 0 43.5 11t33.5 30t21.5 44.5
t7.5 55.5q0 46 -21 72t-57 26q-24 0 -44 -10.5t-34 -29.5t-22 -44.5t-8 -55.5q0 -46 22 -72.5t58 -26.5z" />
    <glyph glyph-name="minute" unicode="&#x2032;" horiz-adv-x="167" 
d="M169 497h-52l-20 183q-2 27 12 41t34 13q19 0 32.5 -14t10.5 -40z" />
    <glyph glyph-name="guilsinglleft" unicode="&#x2039;" horiz-adv-x="366" 
d="M152 244l180 -244h-117l-179 244l247 245h117z" />
    <glyph glyph-name="guilsinglright" unicode="&#x203a;" horiz-adv-x="367" 
d="M331 244l-248 -244h-117l249 244l-181 245h117z" />
    <glyph glyph-name="uni2042" unicode="&#x2042;" horiz-adv-x="893" 
d="M525 406l-38 54q-15 19 -24 36t-18 39q-10 -34 -39 -75l-40 -54l-43 29l38 56q27 36 57 65q-49 6 -84 19l-63 23l19 49l61 -21q44 -17 78 -38q-9 45 -9 86v67h52v-67q0 -50 -9 -86q33 22 78 38l62 21l19 -49l-65 -23q-33 -13 -83 -19q21 -20 57 -65l36 -56zM315 192
q-16 -5 -36.5 -10t-46.5 -10q11 -11 25 -26.5t31 -37.5l37 -56l-43 -30l-38 55q-11 15 -21 33.5t-20 41.5q-10 -34 -39 -75l-40 -55l-43 30l38 56q26 36 57 64q-26 5 -47 10t-37 10l-64 23l19 49l62 -22q20 -7 39.5 -16.5t38.5 -20.5q-9 45 -9 85v68h52v-68q0 -49 -9 -85
q17 11 36.5 20t40.5 17l63 22l19 -49zM809 52l-42 -30l-38 55q-25 32 -42 75q-10 -34 -39 -75l-40 -55l-43 30l39 56q14 20 28 35.5t28 28.5q-18 3 -39.5 7.5t-43.5 12.5l-64 23l19 49l61 -22q42 -14 78 -37q-9 45 -9 85v68h52v-68q0 -45 -8 -85q17 11 36.5 20t40.5 17
l62 22l19 -49l-64 -23q-21 -8 -43 -12.5t-40 -7.5q13 -13 27 -28.5t29 -35.5z" />
    <glyph glyph-name="fraction" unicode="&#x2044;" horiz-adv-x="139" 
d="M-246 0l541 710h89l-541 -710h-89z" />
    <glyph glyph-name="uni2070" unicode="&#x2070;" horiz-adv-x="502" 
d="M251 292h-1q-50 0 -89 18.5t-66 51.5t-41 78.5t-14 98.5q0 54 14.5 99t41.5 78t66 51.5t88 18.5h1h1q50 0 89 -18.5t66 -51.5t41 -78.5t14 -98.5q0 -110 -56 -178q-55 -67 -154 -69h-1zM381 539q0 76 -33.5 122.5t-96.5 47.5q-63 -1 -97 -48t-34 -122t34 -122.5t97 -48.5
q63 1 96.5 48.5t33.5 122.5z" />
    <glyph glyph-name="uni2074" unicode="&#x2074;" horiz-adv-x="448" 
d="M408 391h-60v-91h-73v91h-235v74l235 311h73v-311h60v-74zM275 465v194l-145 -194h145z" />
    <glyph glyph-name="uni2075" unicode="&#x2075;" horiz-adv-x="420" 
d="M380 457q0 -34 -14 -64t-37.5 -52.5t-54.5 -36t-66 -13.5t-65.5 13t-53.5 35.5t-36 53t-13 64.5h74q0 -38 27 -64.5t67 -26.5t68.5 26.5t28.5 64.5q1 48 -26 76t-75 28q-26 0 -49 -12t-31 -29l-68 17l59 239h248v-74h-190l-26 -94q33 18 68 18q37 0 67.5 -13t52 -35.5
t33.5 -53.5t12 -67z" />
    <glyph glyph-name="uni2076" unicode="&#x2076;" horiz-adv-x="450" 
d="M410 466q0 -38 -13.5 -70t-38 -55.5t-58 -36.5t-72.5 -13q-95 0 -142 68q-46 68 -46 173q0 52 12 98.5t37 81.5t62.5 55.5t88.5 20.5t92 -20.5t67 -60.5l-63 -38q-35 44 -96 44q-57 0 -89.5 -38.5t-35.5 -101.5q19 31 51.5 47t70.5 16q33 0 64 -11.5t55 -33.5t39 -53.5
t15 -71.5zM336 465q0 46 -30 73.5t-75 27.5t-73.5 -28t-28.5 -73q0 -46 30 -74t73 -28t73.5 28t30.5 74z" />
    <glyph glyph-name="uni2077" unicode="&#x2077;" horiz-adv-x="407" 
d="M367 776v-76q-117 -91 -147 -204q-30 -111 -30 -196h-76q0 80 27 189q27 110 132 211h-233v76h327z" />
    <glyph glyph-name="uni2078" unicode="&#x2078;" horiz-adv-x="421" 
d="M381 427q0 -62 -49 -99t-121 -37t-122 38q-47 39 -49 99q0 43 23.5 77.5t65.5 48.5q-32 13 -50.5 42t-18.5 65q0 28 11.5 51t31.5 39.5t47.5 25.5t60.5 9t60.5 -9t47.5 -25.5t31 -40t11 -51.5q0 -36 -19 -64t-51 -42q42 -13 66 -48.5t24 -78.5zM211 584q36 0 60 19t24 48
q0 32 -24.5 49.5t-60.5 17.5q-37 0 -61 -18t-24 -49q0 -29 25 -48t61 -19zM210 516q-42 0 -69.5 -21t-27.5 -55q0 -35 27.5 -57.5t69.5 -22.5t69.5 24t27.5 58t-28.5 54t-68.5 20z" />
    <glyph glyph-name="uni2079" unicode="&#x2079;" horiz-adv-x="450" 
d="M210 291q-51 0 -92 20.5t-67 60.5l62 37q20 -23 42.5 -33.5t54.5 -10.5q58 0 89 36t36 105q-19 -31 -51 -47t-69 -16q-33 0 -64 11t-56 33t-40 53.5t-15 71.5q0 38 13.5 70.5t37.5 56t57.5 36.5t73.5 13q95 0 141 -69q45 -67 47 -175q0 -112 -51 -183q-49 -70 -149 -70z
M321 614q0 46 -30 74t-73 28q-45 0 -74.5 -28t-29.5 -74t29.5 -73.5t74.5 -27.5q43 0 73 28t30 73z" />
    <glyph glyph-name="uni2080" unicode="&#x2080;" horiz-adv-x="502" 
d="M251 -108h-1q-50 0 -89 18.5t-66 51.5t-41 78.5t-14 98.5q0 54 14.5 99t41.5 78t66 51.5t88 18.5h1h1q50 0 89 -18.5t66 -51.5t41 -78.5t14 -98.5q0 -110 -56 -178q-55 -67 -154 -69h-1zM381 139q0 76 -33.5 122.5t-96.5 47.5q-63 -1 -97 -48t-34 -122t34 -122.5
t97 -48.5q63 1 96.5 48.5t33.5 122.5z" />
    <glyph glyph-name="uni2081" unicode="&#x2081;" horiz-adv-x="296" 
d="M210 376v-476h-74v401l-96 -40v74l96 41h74z" />
    <glyph glyph-name="uni2082" unicode="&#x2082;" horiz-adv-x="411" 
d="M47 -22l207 171q23 20 32.5 38t9.5 38q0 39 -24.5 63.5t-66.5 24.5q-39 0 -64 -22t-27 -64h-74q3 75 48 116.5t117 41.5q38 0 68.5 -12t52 -33.5t33.5 -50.5t12 -63q0 -76 -72 -135l-145 -117l205 1v-74l-312 -1v78z" />
    <glyph glyph-name="uni2083" unicode="&#x2083;" horiz-adv-x="411" 
d="M371 54q0 -35 -13 -64.5t-35.5 -51.5t-52.5 -34t-64 -12q-36 0 -66 12.5t-52.5 34t-35 50.5t-12.5 62h74q1 -36 25.5 -61t66.5 -25q38 0 64.5 24.5t26.5 64.5q0 42 -26 67t-68 25q-23 0 -40 -7l-26 59l111 104h-188v74h302v-67l-109 -102q54 -15 86 -55.5t32 -97.5z" />
    <glyph glyph-name="uni2084" unicode="&#x2084;" horiz-adv-x="448" 
d="M408 -9h-60v-91h-73v91h-235v74l235 311h73v-311h60v-74zM275 65v194l-145 -194h145z" />
    <glyph glyph-name="uni2085" unicode="&#x2085;" horiz-adv-x="420" 
d="M380 57q0 -34 -14 -64t-37.5 -52.5t-54.5 -36t-66 -13.5t-65.5 13t-53.5 35.5t-36 53t-13 64.5h74q0 -38 27 -64.5t67 -26.5t68.5 26.5t28.5 64.5q1 48 -26 76t-75 28q-26 0 -49 -12t-31 -29l-68 17l59 239h248v-74h-190l-26 -94q33 18 68 18q37 0 67.5 -13t52 -35.5
t33.5 -53.5t12 -67z" />
    <glyph glyph-name="uni2086" unicode="&#x2086;" horiz-adv-x="450" 
d="M410 66q0 -38 -13.5 -70t-38 -55.5t-58 -36.5t-72.5 -13q-95 0 -142 69q-46 67 -46 172q0 52 12 98.5t37 81.5t62.5 55.5t88.5 20.5t92 -20.5t67 -60.5l-63 -38q-35 44 -96 44q-57 0 -89.5 -38.5t-35.5 -101.5q19 31 51.5 47t70.5 16q33 0 64 -11.5t55 -33.5t39 -53.5
t15 -71.5zM336 65q0 46 -30 73.5t-75 27.5t-73.5 -28t-28.5 -73q0 -46 30 -74t73 -28t73.5 28t30.5 74z" />
    <glyph glyph-name="uni2087" unicode="&#x2087;" horiz-adv-x="407" 
d="M367 376v-76q-117 -91 -147 -204q-30 -111 -30 -196h-76q0 79 27 189t132 211h-233v76h327z" />
    <glyph glyph-name="uni2088" unicode="&#x2088;" horiz-adv-x="421" 
d="M381 29q0 -31 -12.5 -56.5t-35.5 -43.5t-54.5 -28t-69.5 -10q-37 0 -68 10t-53.5 28.5t-35 44t-12.5 56.5q0 42 23.5 75.5t65.5 48.5q-32 13 -50.5 42t-18.5 65q0 29 11.5 52t31.5 39t47.5 25t60.5 9q66 0 108 -34.5t42 -91.5q0 -36 -19 -64t-51 -42q42 -13 66 -48
t24 -77zM125 253q0 -30 24.5 -49.5t61.5 -19.5q36 0 60 19t24 49q0 31 -24 48.5t-61 17.5t-61 -17.5t-24 -47.5zM211 116q-42 0 -70 -21t-28 -55q0 -36 28 -58t70 -22q43 0 69.5 22.5t26.5 58.5q0 35 -27 55t-69 20z" />
    <glyph glyph-name="uni2089" unicode="&#x2089;" horiz-adv-x="450" 
d="M210 -109q-51 0 -92 20.5t-67 60.5l62 37q20 -23 42.5 -33.5t54.5 -10.5q58 0 89 36t36 105q-19 -31 -51 -47t-69 -16q-33 0 -64 11t-56 33t-40 53.5t-15 71.5q0 38 13.5 70.5t37.5 56t57.5 36.5t73.5 13q95 0 141 -69q45 -67 47 -175q0 -112 -51 -183q-49 -70 -149 -70z
M321 214q0 46 -30 74t-73 28q-45 0 -74.5 -28t-29.5 -74t29.5 -73.5t74.5 -27.5q43 0 73 28t30 73z" />
    <glyph glyph-name="Euro" unicode="&#x20ac;" horiz-adv-x="756" 
d="M262 500h301l-35 -90h-306q-12 -48 -12 -87q0 -7 1 -9h280l-34 -91h-229q27 -69 86.5 -107.5t140.5 -38.5q40 0 85.5 14.5t78.5 37.5l47 -70q-51 -36 -107.5 -53.5t-113.5 -17.5q-119 0 -205 63q-85 65 -110 172h-90l12 91h67q0 44 11 96h-64l12 90h82q49 105 146 170
q98 65 214 65q117 0 202 -52l-54 -79q-71 41 -145 41q-79 0 -147.5 -39t-113.5 -106z" />
    <glyph glyph-name="uni2116" unicode="&#x2116;" horiz-adv-x="1229" 
d="M1203 510q1 -54 -20 -102t-57.5 -83.5t-84.5 -56t-101 -19.5q-47 0 -87.5 15.5t-70.5 44t-47 67.5t-17 85q0 54 21 101t57.5 82t84.5 55.5t102 20.5q45 0 85 -15t70 -42t47.5 -66t17.5 -87zM585 710h83l-99 -710h-83l-290 563l-79 -563h-83l99 710h83l290 -563zM978 640
q-36 0 -68 -13t-56 -36.5t-38 -56t-14 -70.5q0 -60 38 -98t104 -38q37 0 69 13.5t56 37t37.5 55t13.5 68.5q0 32 -11 57.5t-30 43.5t-45 27.5t-56 9.5zM747 200h348l-11 -71h-347z" />
    <glyph glyph-name="uni2117" unicode="&#x2117;" horiz-adv-x="522" 
d="M522 498q0 -47 -17.5 -88t-48 -72t-71.5 -48.5t-87 -17.5q-47 0 -88.5 17.5t-72 48.5t-48.5 72t-18 88q0 46 18 87t48.5 71.5t72 48t88.5 17.5q46 0 87 -18t71.5 -48.5t48 -71t17.5 -86.5zM482 497q0 39 -14.5 72.5t-39.5 58.5t-58.5 39.5t-72.5 14.5t-73 -14.5
t-58.5 -39.5t-39 -58.5t-14.5 -72.5t14 -73t39 -58.5t59 -38.5t73 -14t72.5 14t58.5 38.5t39.5 58.5t14.5 73zM380 536v-3q-1 -30 -21 -45.5t-54 -14.5h-27v-77h-41v200h41h27q35 1 54.5 -13.5t20.5 -43.5v-3zM335 533q3 23 -29 23h-28v-47h35q22 1 23 24h-1z" />
    <glyph glyph-name="trademark" unicode="&#x2122;" horiz-adv-x="614" 
d="M101 723h218l-6 -46h-89l-33 -234h-46l33 234h-84zM354 723h45l64 -227l128 227h44l-40 -280h-43l24 172l-98 -172h-46l-49 170l-24 -170h-44z" />
    <glyph glyph-name="estimated" unicode="&#x212e;" horiz-adv-x="746" 
d="M390 710q73 0 133 -22.5t103.5 -65.5t67.5 -103.5t24 -137.5q1 -5 1 -27v-15.5t-1 -10.5h-558v-180q39 -57 101 -87t141 -30q78 0 142 36.5t96 96.5l38 -14q-37 -75 -110.5 -117t-167.5 -42q-75 0 -137.5 26t-107.5 73t-70 112t-25 144q0 80 24.5 147t68 115t104.5 75
t133 27zM160 364h459v200q-37 51 -96 78.5t-129 27.5q-75 0 -135 -33t-99 -91v-182z" />
    <glyph glyph-name="oneeighth" unicode="&#x215b;" horiz-adv-x="799" 
d="M43 678l69 32v-70l-69 -27v65zM179 710v-368h-67v368h67zM53 0l541 710h89l-541 -710h-89zM487 99q0 28 13.5 52.5t36.5 38.5q-20 14 -29.5 33t-9.5 40q0 20 9 39t25 34t38.5 24t49.5 9t49 -8.5t37.5 -23t24 -33t8.5 -39.5q0 -46 -38 -75q22 -15 36 -39t14 -51
q0 -22 -9 -42t-25.5 -35.5t-41 -25t-56.5 -9.5q-31 0 -56 9t-41.5 24.5t-25.5 35.5t-9 42zM675 263q1 17 -14 29.5t-42 12.5q-28 0 -43 -12.5t-13 -30.5q0 -17 15 -29.5t41 -12.5q27 1 42 13.5t14 29.5zM686 104q0 20 -17.5 35t-49.5 15q-33 0 -50.5 -15.5t-16.5 -36.5
q0 -21 17.5 -36t49.5 -15q31 0 49 15.5t18 37.5z" />
    <glyph glyph-name="threeeighths" unicode="&#x215c;" horiz-adv-x="866" 
d="M311 461q0 -51 -38 -89q-37 -36 -90 -36q-28 0 -52.5 11t-42 29.5t-26.5 43.5t-7 53h67q-1 -5 -1.5 -8.5t-0.5 -5.5q0 -24 18.5 -40.5t44.5 -16.5t44 17t18 42q0 31 -23 49q-13 13 -39 13q-15 0 -29 -6l-30 51l74 75h-128v67h230v-59l-72 -72q32 -12 52 -35
q31 -34 31 -83zM120 0l541 710h89l-541 -710h-89zM553 99q0 28 13.5 52.5t36.5 38.5q-20 14 -29.5 33t-9.5 40q0 20 9 39t25 34t38.5 24t49.5 9t49 -8.5t37.5 -23t24 -33t8.5 -39.5q0 -46 -38 -75q22 -15 36 -39t14 -51q0 -22 -9 -42t-25.5 -35.5t-41 -25t-56.5 -9.5
q-31 0 -56 9t-41.5 24.5t-25.5 35.5t-9 42zM741 263q1 17 -14 29.5t-42 12.5q-28 0 -43 -12.5t-13 -30.5q0 -17 15 -29.5t41 -12.5q27 1 42 13.5t14 29.5zM752 104q0 20 -17.5 35t-49.5 15q-33 0 -50.5 -15.5t-16.5 -36.5q0 -21 17.5 -36t49.5 -15q31 0 49 15.5t18 37.5z
" />
    <glyph glyph-name="fiveeighths" unicode="&#x215d;" horiz-adv-x="871" 
d="M120 475q-2 -29 16 -49.5t48 -20.5q28 0 47.5 19t19.5 45q0 29 -19.5 48.5t-48.5 19.5q-19 0 -34.5 -8.5t-22.5 -21.5l-62 16l47 187h193v-66h-141l-14 -51q18 6 39 6q54 0 92 -38q37 -37 37 -94q0 -26 -10.5 -49.5t-29 -41t-42.5 -27.5t-51 -10q-29 0 -53 10.5t-41.5 29
t-27 43.5t-8.5 53h66zM125 0l541 710h89l-541 -710h-89zM559 99q0 28 13.5 52.5t36.5 38.5q-20 14 -29.5 33t-9.5 40q0 20 9 39t25 34t38.5 24t49.5 9t49 -8.5t37.5 -23t24 -33t8.5 -39.5q0 -46 -38 -75q22 -15 36 -39t14 -51q0 -22 -9 -42t-25.5 -35.5t-41 -25t-56.5 -9.5
q-31 0 -56 9t-41.5 24.5t-25.5 35.5t-9 42zM747 263q1 17 -14 29.5t-42 12.5q-28 0 -43 -12.5t-13 -30.5q0 -17 15 -29.5t41 -12.5q27 1 42 13.5t14 29.5zM758 104q0 20 -17.5 35t-49.5 15q-33 0 -50.5 -15.5t-16.5 -36.5q0 -21 17.5 -36t49.5 -15q31 0 49 15.5t18 37.5z
" />
    <glyph glyph-name="seveneighths" unicode="&#x215e;" horiz-adv-x="817" 
d="M318 710v-70q-67 -49 -99 -114q-31 -63 -36 -104q-2 -20 -3 -39.5t-1 -38.5h-70q0 59 19 136q20 80 100 160h-174v70h264zM71 0l541 710h89l-541 -710h-89zM504 99q0 28 13.5 52.5t36.5 38.5q-20 14 -29.5 33t-9.5 40q0 20 9 39t25 34t38.5 24t49.5 9t49 -8.5t37.5 -23
t24 -33t8.5 -39.5q0 -46 -38 -75q22 -15 36 -39t14 -51q0 -22 -9 -42t-25.5 -35.5t-41 -25t-56.5 -9.5q-31 0 -56 9t-41.5 24.5t-25.5 35.5t-9 42zM692 263q1 17 -14 29.5t-42 12.5q-28 0 -43 -12.5t-13 -30.5q0 -17 15 -29.5t41 -12.5q27 1 42 13.5t14 29.5zM703 104
q0 20 -17.5 35t-49.5 15q-33 0 -50.5 -15.5t-16.5 -36.5q0 -21 17.5 -36t49.5 -15q31 0 49 15.5t18 37.5z" />
    <glyph glyph-name="arrowleft" unicode="&#x2190;" horiz-adv-x="947" 
d="M63 268l331 330l53 -52l-238 -240h676v-75h-676l238 -238l-53 -54z" />
    <glyph glyph-name="arrowup" unicode="&#x2191;" horiz-adv-x="785" 
d="M422 781l332 -328l-53 -54l-241 237v-636h-76v636l-241 -237l-53 54z" />
    <glyph glyph-name="arrowright" unicode="&#x2192;" horiz-adv-x="947" 
d="M894 299l-330 -329l-53 53l238 239h-676v75h676l-238 239l53 53z" />
    <glyph glyph-name="arrowdown" unicode="&#x2193;" horiz-adv-x="779" 
d="M386 -110l-329 330l53 54l239 -239v700h75v-700l239 239l52 -54z" />
    <glyph glyph-name="arrowboth" unicode="&#x2194;" horiz-adv-x="1090" 
d="M788 128l99 98h-448h-232l101 -100v-109l-245 248l244 245v-110l-99 -98l229 1v1l130 -1l94 1v-1h227l-100 98v109l244 -245l-244 -247v110z" />
    <glyph glyph-name="arrowupdn" unicode="&#x2195;" horiz-adv-x="679" 
d="M485 73h110l-247 -245l-245 245h109l98 -100v230h-1l1 112l-1 111h1v226l-98 -99h-109l245 244l247 -244h-110l-99 100v-450v-230z" />
    <glyph glyph-name="uni2196" unicode="&#x2196;" horiz-adv-x="926" 
d="M365 672h78l231 -266l-222 -37l120 -110l-17 -168l-403 352v51h213v178z" />
    <glyph glyph-name="uni2197" unicode="&#x2197;" horiz-adv-x="815" 
d="M757 723v-466h-76v337l-595 -594l-53 53l595 595h-338v75h467z" />
    <glyph glyph-name="uni2198" unicode="&#x2198;" horiz-adv-x="936" 
d="M842 1l-466 1v75l337 1l-593 593l53 52l593 -593l1 338h75v-467z" />
    <glyph glyph-name="uni2199" unicode="&#x2199;" horiz-adv-x="815" 
d="M91 -1v467h76v-338l596 596l52 -53l-595 -596h338l-1 -76h-466z" />
    <glyph glyph-name="partialdiff" unicode="&#x2202;" horiz-adv-x="628" 
d="M592 341q1 -88 -25 -154t-68.5 -110.5t-97.5 -66.5t-112 -21q-48 0 -92.5 15.5t-78 45.5t-53.5 74t-20 100q-1 61 22 113.5t62.5 91.5t92 61t110.5 21q45 0 87.5 -14.5t67.5 -42.5q-16 72 -62 141.5t-118 127.5h123q77 -71 119 -175q43 -102 43 -207zM495 275
q0 70 -46 115q-45 45 -115 45q-42 0 -79 -16.5t-64.5 -44t-43.5 -64t-16 -75.5q0 -36 11.5 -65.5t32.5 -51.5t51 -34t67 -12q41 0 77.5 16.5t64.5 44.5t44 65t16 77z" />
    <glyph glyph-name="emptyset" unicode="&#x2205;" horiz-adv-x="827" 
d="M743 564q39 -75 39 -169q2 -87 -29 -163t-85 -131.5t-125 -87t-151 -29.5q-72 0 -133 28t-104 79l-90 -72l-41 52l94 75q-40 74 -40 169q-1 86 30 161t84.5 131t125.5 88t151 30q72 0 133.5 -27t103.5 -78l86 68l39 -53zM635 563q-30 36 -74.5 55t-98.5 19
q-62 2 -116 -23.5t-93.5 -69t-62 -102t-21.5 -124.5q0 -62 22 -113zM226 148q30 -36 74 -56t98 -20q63 -1 117 24t93.5 68.5t61.5 102.5t21 126q0 60 -21 112z" />
    <glyph glyph-name="uni2206" unicode="&#x2206;" horiz-adv-x="694" 
d="M619 80v-80h-567v80l239 630h89zM139 80h394l-197 518z" />
    <glyph glyph-name="product" unicode="&#x220f;" horiz-adv-x="632" 
d="M478 174q-1 -8 -1.5 -13.5t-0.5 -7.5q0 -33 17 -48.5t48 -15.5q8 0 14.5 0.5t11.5 1.5l-12 -89q-15 -2 -25.5 -3t-17.5 -1q-60 0 -96.5 31.5t-36.5 95.5q0 16 3 34l46 330h-166l-69 -489h-95l69 489h-90l13 94h185h260h102l-13 -94h-102z" />
    <glyph glyph-name="summation" unicode="&#x2211;" horiz-adv-x="534" 
d="M35 101l283 265l-210 260l14 97h425l-14 -95h-306l209 -263l-281 -267h304l-14 -98h-424z" />
    <glyph glyph-name="minus" unicode="&#x2212;" horiz-adv-x="499" 
d="M442 366l-11 -83h-361l12 83h360z" />
    <glyph glyph-name="radical" unicode="&#x221a;" horiz-adv-x="709" 
d="M729 718v-89h-155l-250 -629h-91l-185 488h90l141 -370l239 600h211z" />
    <glyph glyph-name="infinity" unicode="&#x221e;" horiz-adv-x="899" 
d="M258 474q57 0 108 -31.5t90 -91.5q38 60 88.5 91.5t107.5 31.5q41 0 75.5 -14.5t60.5 -40t40.5 -60.5t14.5 -75t-14.5 -74.5t-40.5 -60t-60.5 -40t-75.5 -14.5q-57 0 -107.5 31.5t-88.5 91.5q-39 -60 -90 -91.5t-108 -31.5q-40 0 -74.5 14.5t-60.5 40t-41 60t-15 74.5
t15 75t41 60.5t60.5 40t74.5 14.5zM261 184q36 0 73 24t63 76q-26 54 -63 77.5t-73 23.5q-48 0 -76.5 -28t-28.5 -73t29.5 -72.5t75.5 -27.5zM650 184q46 0 75 27.5t29 72.5t-29 73t-75 28q-37 0 -73.5 -23.5t-62.5 -77.5q26 -52 63 -76t73 -24z" />
    <glyph glyph-name="integral" unicode="&#x222b;" horiz-adv-x="373" 
d="M16 75h48q24 0 40 14.5t20 42.5l64 459q9 66 47.5 106t98.5 40h68l-12 -88h-48q-24 0 -39.5 -14.5t-19.5 -43.5l-64 -459q-10 -66 -49 -105.5t-99 -39.5h-67z" />
    <glyph glyph-name="approxequal" unicode="&#x2248;" horiz-adv-x="453" 
d="M433 385q-5 -49 -33 -79t-73 -30q-27 0 -48 9.5t-53 29.5q-24 16 -39 23.5t-32 7.5q-21 0 -35.5 -12t-16.5 -34h-55q5 48 33 77.5t71 29.5q26 0 47.5 -9.5t52.5 -29.5q24 -16 40 -24t33 -8q20 0 34.5 12.5t18.5 36.5h55zM410 231q-4 -51 -33 -80t-74 -29
q-28 0 -49.5 10.5t-49.5 29.5q-22 16 -38 23.5t-33 7.5q-21 0 -34 -12.5t-17 -33.5h-55q3 48 33 77t75 29q27 0 49 -10t50 -29q22 -16 37.5 -23.5t32.5 -7.5q20 0 34.5 12t17.5 36h54z" />
    <glyph glyph-name="notequal" unicode="&#x2260;" horiz-adv-x="566" 
d="M370 407l-77 -140h220l-12 -83h-253l-67 -123h-90l68 123h-111l11 83h145l76 140h-201l11 83h235l72 131h89l-71 -131h129l-11 -83h-163z" />
    <glyph glyph-name="lessequal" unicode="&#x2264;" horiz-adv-x="564" 
d="M64 420l485 159l-14 -103l-330 -106l300 -108l-15 -100l-440 159zM19 101h463l-15 -101h-463z" />
    <glyph glyph-name="greaterequal" unicode="&#x2265;" horiz-adv-x="550" 
d="M55 247l339 111l-308 111l13 88l433 -157l-13 -87l-476 -157zM33 90h455l-12 -90h-455z" />
    <glyph glyph-name="filledbox" unicode="&#x25a0;" horiz-adv-x="912" 
d="M827 710v-710h-710v710h710z" />
    <glyph glyph-name="uni25A1" unicode="&#x25a1;" horiz-adv-x="912" 
d="M827 710v-710h-710v710h710zM192 75h559v560h-559v-560z" />
    <glyph glyph-name="triagup" unicode="&#x25b2;" horiz-adv-x="930" 
d="M854 0h-846l423 710z" />
    <glyph glyph-name="uni25B3" unicode="&#x25b3;" horiz-adv-x="967" 
d="M41 2l424 711l423 -711h-847zM465 570l-297 -499h594z" />
    <glyph glyph-name="lozenge" unicode="&#x25ca;" horiz-adv-x="622" 
d="M571 355l-205 -355h-93l-204 355l204 355h93zM473 355l-153 272l-154 -272l154 -272z" />
    <glyph glyph-name="circle" unicode="&#x25cb;" horiz-adv-x="903" 
d="M69 333q-2 79 29.5 150t85.5 124.5t125.5 85t149.5 29.5q78 2 149 -29.5t125 -85.5t85.5 -125t29.5 -149q2 -79 -29.5 -150t-85.5 -124.5t-125 -85t-149 -29.5q-79 -2 -150 29.5t-125 85t-85 124.5t-30 150zM773 333q1 63 -24 121t-68.5 101.5t-101 69t-120.5 23.5
q-64 1 -121.5 -24t-101 -68.5t-68.5 -101t-24 -121.5q-1 -64 24 -121.5t68.5 -101t101 -68.5t121.5 -24q63 -1 120.5 24t101 68.5t68.5 101t24 121.5z" />
    <glyph glyph-name="uni25CF" unicode="&#x25cf;" horiz-adv-x="903" 
d="M69 333q-2 79 29.5 150t85.5 124.5t125.5 85t149.5 29.5q78 2 149 -29.5t125 -85.5t85.5 -125t29.5 -149q2 -79 -29.5 -150t-85.5 -124.5t-125 -85t-149 -29.5q-79 -2 -150 29.5t-125 85t-85 124.5t-30 150z" />
    <glyph glyph-name="uni262E" unicode="&#x262e;" horiz-adv-x="890" 
d="M848 333q2 -79 -29.5 -150t-85.5 -124.5t-125 -85t-149 -29.5q-79 -2 -150 29.5t-125 85t-85 124.5t-30 150q-2 79 29.5 150t85.5 124.5t125.5 85t149.5 29.5q78 2 149 -29.5t125 -85.5t85.5 -125t29.5 -149zM144 333q0 -66 27 -128l254 170v271q-58 -5 -109.5 -32.5
t-90 -70t-60.5 -97t-21 -113.5zM493 375l254 -169q26 61 26 127q1 59 -20.5 113t-60 96.5t-90 70t-109.5 33.5v-271zM425 292l-220 -145q39 -54 96 -87t124 -40v272zM493 292v-272q67 7 124 40t96 87z" />
    <glyph glyph-name="smileface" unicode="&#x263a;" horiz-adv-x="888" 
d="M68 335q-1 77 30 147.5t84.5 123.5t125.5 84t151 29q78 2 148.5 -29t124 -84t84.5 -123.5t29 -147.5q2 -80 -29 -151.5t-84.5 -125t-124 -84.5t-148.5 -29q-79 -2 -151 29t-125.5 84.5t-84.5 125t-30 151.5zM776 332q1 66 -24 124.5t-69 102t-102 68.5t-123 24
q-66 1 -124.5 -24t-102 -68.5t-68.5 -102t-24 -124.5q-1 -67 23.5 -125.5t67.5 -101.5t101.5 -67t126.5 -23q65 -1 123 23.5t102 67.5t69 101.5t24 124.5zM273 421q0 24 17.5 41.5t41.5 17.5t41 -17.5t17 -41.5t-17 -42.5t-41 -18.5t-41.5 18.5t-17.5 42.5zM526 417
q0 24 17 41t42 17q24 0 41 -17.5t17 -40.5q0 -24 -17 -42t-41 -18q-25 0 -42 18t-17 42zM350 295q-4 -47 28 -82q31 -34 81 -34q24 0 44.5 9t35 24.5t22.5 37t7 45.5h63q2 -37 -11.5 -69.5t-37 -57t-55.5 -38.5t-68 -14q-37 0 -69.5 14t-55.5 38.5t-35.5 57t-11.5 69.5h63z
" />
    <glyph glyph-name="uni2713" unicode="&#x2713;" horiz-adv-x="654" 
d="M100 300l155 -167l323 389l64 -53l-384 -462l-216 233z" />
    <glyph glyph-name="uni2776" unicode="&#x2776;" horiz-adv-x="799" 
d="M50 348q-1 71 26.5 135t76 112.5t112.5 76.5t135 26q70 2 134 -26t112 -76.5t76.5 -112.5t26.5 -135q2 -71 -26 -135.5t-76.5 -113t-112 -76.5t-134.5 -26q-71 -2 -135 26.5t-112.5 77t-76 113t-26.5 134.5zM441 547h-64l-72 -37v-63l71 34v-319h65v385z" />
    <glyph glyph-name="uni2777" unicode="&#x2777;" horiz-adv-x="799" 
d="M50 348q-1 71 26.5 135t76 112.5t112.5 76.5t134 26q71 2 135 -26.5t112.5 -77t76.5 -112.5t26 -135q2 -71 -26 -135t-76.5 -112.5t-112 -76.5t-134.5 -26q-71 -2 -135 26.5t-112.5 77t-76 113t-26.5 134.5zM329 430q8 27 27.5 42.5t46.5 15.5q30 0 50 -16.5t20 -48.5
q0 -19 -8 -35t-30 -32q-10 -8 -32 -22t-57 -34q-37 -22 -55.5 -48t-19.5 -60l-1 -30h262v64h-178q3 8 9 13.5t18 12.5l22 13q60 35 76 48q29 22 43.5 48.5t14.5 62.5q0 30 -10.5 54t-29 40.5t-43 25.5t-51.5 9q-51 0 -88 -29t-49 -78z" />
    <glyph glyph-name="uni2778" unicode="&#x2778;" horiz-adv-x="799" 
d="M50 348q-1 71 26.5 135t76 112.5t112.5 76.5t135 26q70 2 134 -26t112 -76.5t76.5 -112.5t26.5 -135q2 -71 -26 -135.5t-76.5 -113t-112 -76.5t-134.5 -26q-71 -2 -135 26.5t-112.5 77t-76 113t-26.5 134.5zM527 441q0 51 -34 81t-91 30q-52 0 -87 -29t-44 -78l61 -17
q3 26 22 42.5t48 16.5q25 0 40.5 -12.5t16.5 -33.5q2 -22 -12.5 -36.5t-40.5 -16.5q-1 -1 -23 -1v-60q3 1 9.5 0.5t10.5 -0.5q30 -2 49 -16t19 -39t-18.5 -40.5t-47.5 -15.5t-51 16.5t-29 46.5l-60 -16q6 -51 44.5 -81.5t96.5 -30.5q29 0 54 8.5t43 23.5t28.5 36t10.5 46
q0 29 -16 55.5t-41 38.5q20 12 31 34t11 48z" />
    <glyph glyph-name="uni2779" unicode="&#x2779;" horiz-adv-x="799" 
d="M50 348q-1 71 26.5 135t76 112.5t112.5 76.5t135 26q70 2 134 -26t112 -76.5t76.5 -112.5t26.5 -135q2 -71 -26 -135.5t-76.5 -113t-112 -76.5t-134.5 -26q-71 -2 -135 26.5t-112.5 77t-76 113t-26.5 134.5zM472 162v71h60v64h-60v250h-65l-177 -246v-68h176v-71h66z
M406 440v-143h-108z" />
    <glyph glyph-name="uni277A" unicode="&#x277a;" horiz-adv-x="799" 
d="M50 348q-1 71 26.5 135t76 112.5t112.5 76.5t135 26q70 2 134 -26t112 -76.5t76.5 -112.5t26.5 -135q2 -71 -26 -135.5t-76.5 -113t-112 -76.5t-134.5 -26q-71 -2 -135 26.5t-112.5 77t-76 113t-26.5 134.5zM354 476h153v66h-206l-36 -212l57 -10q11 18 30 28t40 10
q32 0 52.5 -20.5t20.5 -52.5t-20 -52.5t-51 -20.5q-62 0 -73 62l-64 -17q8 -51 44.5 -81t90.5 -30q61 0 101 39q40 40 40 100q0 59 -37 99t-93 40q-39 0 -62 -17z" />
    <glyph glyph-name="uni277B" unicode="&#x277b;" horiz-adv-x="799" 
d="M50 348q-1 71 26.5 135t76 112.5t112.5 76.5t134 26q71 2 135 -26.5t112.5 -77t76.5 -112.5t26 -135q2 -71 -26 -135t-76.5 -112.5t-112 -76.5t-134.5 -26q-71 -2 -135 26.5t-112.5 77t-76 113t-26.5 134.5zM396 487q53 0 78 -40l62 21q-18 39 -53 61.5t-83 22.5
q-75 0 -117 -52.5t-42 -146.5q0 -97 38.5 -150.5t107.5 -53.5q30 0 56.5 11t46 30t31 45.5t11.5 57.5q0 57 -39 96t-97 39q-24 0 -48 -8t-41 -28q2 42 26 68.5t63 26.5zM315 288q0 32 21.5 53t53.5 21t52.5 -20.5t20.5 -53.5t-20.5 -53.5t-52.5 -20.5q-33 0 -54 21t-21 53z
" />
    <glyph glyph-name="uni277C" unicode="&#x277c;" horiz-adv-x="799" 
d="M50 348q-1 71 26.5 135t76 112.5t112.5 76.5t135 26q70 2 134 -26t112 -76.5t76.5 -112.5t26.5 -135q2 -71 -26 -135.5t-76.5 -113t-112 -76.5t-134.5 -26q-71 -2 -135 26.5t-112.5 77t-76 113t-26.5 134.5zM395 162q18 183 135 308v56h-243v-60h165
q-55 -72 -85.5 -145.5t-39.5 -158.5h68z" />
    <glyph glyph-name="uni277D" unicode="&#x277d;" horiz-adv-x="799" 
d="M50 348q-1 71 26.5 135t76 112.5t112.5 76.5t135 26q70 2 134 -26t112 -76.5t76.5 -112.5t26.5 -135q2 -71 -26 -135.5t-76.5 -113t-112 -76.5t-134.5 -26q-71 -2 -135 26.5t-112.5 77t-76 113t-26.5 134.5zM540 277q0 32 -14 59t-38 38q14 10 23 30t9 42q0 48 -33.5 77
t-88.5 29q-57 0 -91 -29.5t-34 -77.5q0 -17 9 -38t22 -34q-22 -10 -36.5 -38t-14.5 -60q0 -57 39 -90.5t106 -33.5q66 0 104 34t38 92zM341 442q0 20 16 32.5t41 12.5q24 0 39.5 -12.5t15.5 -32.5t-15 -32t-40 -12t-41 12.5t-16 31.5zM321 279q0 29 21.5 46.5t55.5 17.5
q33 0 54.5 -18t21.5 -46t-21.5 -45.5t-54.5 -17.5q-34 0 -55.5 17.5t-21.5 45.5z" />
    <glyph glyph-name="uni277E" unicode="&#x277e;" horiz-adv-x="799" 
d="M50 348q-1 71 26.5 135t76 112.5t112.5 76.5t135 26q70 2 134 -26t112 -76.5t76.5 -112.5t26.5 -135q2 -71 -26 -135.5t-76.5 -113t-112 -76.5t-134.5 -26q-71 -2 -135 26.5t-112.5 77t-76 113t-26.5 134.5zM396 214q-61 2 -80 46l-63 -22q18 -40 55.5 -63.5t86.5 -23.5
q72 0 111 49t39 143q0 99 -39 154t-111 55q-58 0 -99 -41q-40 -40 -40 -101q0 -58 38 -96q40 -38 96 -38q26 0 50.5 9t41.5 30q-1 -45 -22.5 -72.5t-63.5 -28.5zM469 413q0 -32 -21 -52.5t-54 -20.5q-31 0 -51.5 21t-20.5 53t21 52.5t55 20.5q31 0 51 -20.5t20 -53.5z" />
    <glyph glyph-name="uni2780" unicode="&#x2780;" horiz-adv-x="878" 
d="M828 333q2 -79 -29.5 -150t-85.5 -124.5t-125 -85t-149 -29.5q-79 -2 -150 29.5t-124.5 85t-84.5 124.5t-30 150q-2 79 29.5 150t85.5 124.5t125 85t149 29.5q78 2 149 -29.5t125 -85.5t85.5 -125t29.5 -149zM754 333q2 63 -23.5 121t-69 101.5t-101.5 69t-121 23.5
q-63 1 -121 -24t-101.5 -68.5t-68.5 -101t-24 -121.5q-1 -64 24 -121.5t68.5 -101t101.5 -68.5t121 -24q64 -1 121.5 24t101 68.5t68.5 101t24 121.5zM488 510l1 -368h-67v260q-3 -1 -12 -1h-54v67h41q21 0 25 19v23h66z" />
    <glyph glyph-name="uni2781" unicode="&#x2781;" horiz-adv-x="878" 
d="M828 333q2 -79 -29.5 -150t-85.5 -124.5t-125 -85t-149 -29.5q-79 -2 -150 29.5t-124.5 85t-84.5 124.5t-30 150q-2 79 29.5 150t85.5 124.5t125 85t149 29.5q78 2 149 -29.5t125 -85.5t85.5 -125t29.5 -149zM754 333q2 63 -23.5 121t-69 101.5t-101.5 69t-121 23.5
q-63 1 -121 -24t-101.5 -68.5t-68.5 -101t-24 -121.5q-1 -64 24 -121.5t68.5 -101t101.5 -68.5t121 -24q64 -1 121.5 24t101 68.5t68.5 101t24 121.5zM574 396q0 -10 -1 -13v-1q-5 -38 -29 -64q-23 -25 -81 -70l-40 -31h141v-65l-249 -1q-1 34 8 56t33 40l69 55l55 44
q25 22 28 44q2 30 -15 48.5t-46 18.5q-28 0 -44 -15.5t-16 -43.5l1 -12h-66q-4 57 27 94t85 42q3 1 12 1q12 0 15 -1q46 -4 76.5 -34.5t35.5 -76.5q1 -3 1 -15z" />
    <glyph glyph-name="uni2782" unicode="&#x2782;" horiz-adv-x="878" 
d="M828 333q2 -79 -29.5 -150t-85.5 -124.5t-125 -85t-149 -29.5q-79 -2 -150 29.5t-124.5 85t-84.5 124.5t-30 150q-2 79 29.5 150t85.5 124.5t125 85t149 29.5q78 2 149 -29.5t125 -85.5t85.5 -125t29.5 -149zM754 333q2 63 -23.5 121t-69 101.5t-101.5 69t-121 23.5
q-63 1 -121 -24t-101.5 -68.5t-68.5 -101t-24 -121.5q-1 -64 24 -121.5t68.5 -101t101.5 -68.5t121 -24q64 -1 121.5 24t101 68.5t68.5 101t24 121.5zM535 342q32 -35 32 -83q0 -51 -38 -89q-37 -36 -91 -36q-53 0 -91 36q-37 36 -37 87l1 14h66q-1 -3 -1 -13q0 -25 18 -42
t44 -17t44 17.5t18 42.5q0 33 -22 49q-16 13 -40 13q-14 0 -28 -6l-31 51l74 75h-127v67h229v-60l-72 -71q32 -11 52 -35z" />
    <glyph glyph-name="uni2783" unicode="&#x2783;" horiz-adv-x="878" 
d="M828 333q2 -79 -29.5 -150t-85.5 -124.5t-125 -85t-149 -29.5q-79 -2 -150 29.5t-124.5 85t-84.5 124.5t-30 150q-2 79 29.5 150t85.5 124.5t125 85t149 29.5q78 2 149 -29.5t125 -85.5t85.5 -125t29.5 -149zM754 333q2 63 -23.5 121t-69 101.5t-101.5 69t-121 23.5
q-63 1 -121 -24t-101.5 -68.5t-68.5 -101t-24 -121.5q-1 -64 24 -121.5t68.5 -101t101.5 -68.5t121 -24q64 -1 121.5 24t101 68.5t68.5 101t24 121.5zM521 283h47v-66h-47v-69h-67v70h-172v65l172 233h67v-233zM454 283v123l-90 -123h90z" />
    <glyph glyph-name="uni2784" unicode="&#x2784;" horiz-adv-x="878" 
d="M50 333q-2 79 29.5 150t85.5 124.5t125 85t149 29.5q78 2 149 -29.5t125 -85.5t85.5 -125t29.5 -149q2 -79 -29.5 -150t-85.5 -124.5t-125 -85t-149 -29.5q-79 -2 -150 29.5t-124.5 85t-84.5 124.5t-30 150zM754 333q2 63 -23.5 121t-69 101.5t-101.5 69t-121 23.5
q-63 1 -121 -24t-101.5 -68.5t-68.5 -101t-24 -121.5q-1 -64 24 -121.5t68.5 -101t101.5 -68.5t121 -24q64 -1 121.5 24t101 68.5t68.5 101t24 121.5zM373 275q-3 -29 15 -49.5t49 -20.5q28 0 47.5 19t19.5 45q0 29 -20 48.5t-49 19.5q-19 0 -34.5 -8.5t-22.5 -21.5l-62 16
l47 187h193v-66h-141l-13 -51q17 6 38 6q54 0 92 -38q37 -37 37 -94q0 -26 -10.5 -49t-28.5 -40.5t-42 -28t-51 -10.5q-29 0 -53.5 10.5t-42 29t-27 43.5t-8.5 53h67z" />
    <glyph glyph-name="uni2785" unicode="&#x2785;" horiz-adv-x="878" 
d="M50 333q-2 79 29.5 150t85.5 124.5t125 85t149 29.5q78 2 149 -29.5t125 -85.5t85.5 -125t29.5 -149q2 -79 -29.5 -150t-85.5 -124.5t-125 -85t-149 -29.5q-79 -2 -150 29.5t-124.5 85t-84.5 124.5t-30 150zM754 333q2 63 -23.5 121t-69 101.5t-101.5 69t-121 23.5
q-63 1 -121 -24t-101.5 -68.5t-68.5 -101t-24 -121.5q-1 -64 24 -121.5t68.5 -101t101.5 -68.5t121 -24q64 -1 121.5 24t101 68.5t68.5 101t24 121.5zM441 515q86 0 126 -72l-50 -34q-27 43 -75 43q-29 -1 -53 -22.5t-30 -58.5q15 20 39 30t49 8q58 -1 91 -45
q33 -41 28 -100q-6 -57 -43 -90.5t-94 -33.5q-34 0 -59.5 13.5t-43 37.5t-26 56.5t-8.5 69.5q0 63 22 114q17 37 51 60.5t76 23.5zM430 205q30 0 51 20.5t19 54.5q-1 30 -20.5 48t-46.5 18t-48 -19.5t-21 -52.5q0 -32 19 -50.5t47 -18.5z" />
    <glyph glyph-name="uni2786" unicode="&#x2786;" horiz-adv-x="878" 
d="M828 333q2 -79 -29.5 -150t-85.5 -124.5t-125 -85t-149 -29.5q-79 -2 -150 29.5t-124.5 85t-84.5 124.5t-30 150q-2 79 29.5 150t85.5 124.5t125 85t149 29.5q78 2 149 -29.5t125 -85.5t85.5 -125t29.5 -149zM754 333q2 63 -23.5 121t-69 101.5t-101.5 69t-121 23.5
q-63 1 -121 -24t-101.5 -68.5t-68.5 -101t-24 -121.5q-1 -64 24 -121.5t68.5 -101t101.5 -68.5t121 -24q64 -1 121.5 24t101 68.5t68.5 101t24 121.5zM314 510h264v-70q-67 -49 -99 -114q-31 -63 -36 -104q-2 -20 -3.5 -39.5t-1.5 -38.5h-70q0 53 20 135q19 80 100 161h-174
v70z" />
    <glyph glyph-name="uni2787" unicode="&#x2787;" horiz-adv-x="878" 
d="M50 333q-2 79 29.5 150t85.5 124.5t125 85t149 29.5q78 2 149 -29.5t125 -85.5t85.5 -125t29.5 -149q2 -79 -29.5 -150t-85.5 -124.5t-125 -85t-149 -29.5q-79 -2 -150 29.5t-124.5 85t-84.5 124.5t-30 150zM754 333q2 63 -23.5 121t-69 101.5t-101.5 69t-121 23.5
q-63 1 -121 -24t-101.5 -68.5t-68.5 -101t-24 -121.5q-1 -64 24 -121.5t68.5 -101t101.5 -68.5t121 -24q64 -1 121.5 24t101 68.5t68.5 101t24 121.5zM303 255q0 27 14 51t36 39q-19 14 -28.5 33.5t-9.5 40.5q0 42 33.5 73t87.5 32q54 -1 86 -31t33 -72q0 -47 -39 -76
q23 -14 36.5 -38t13.5 -51q0 -45 -34 -78t-97 -34q-63 0 -97 33t-35 78zM491 418q0 17 -15 30t-41 13q-27 -1 -42 -13.5t-15 -29.5q1 -17 15.5 -29.5t41.5 -12.5q26 0 41 13t15 29zM501 259q0 20 -17 35t-49 15t-49 -15t-17 -36t17.5 -36t48.5 -15t48.5 15t17.5 37z" />
    <glyph glyph-name="uni2788" unicode="&#x2788;" horiz-adv-x="878" 
d="M50 333q-2 79 29.5 150t85.5 124.5t125 85t149 29.5q78 2 149 -29.5t125 -85.5t85.5 -125t29.5 -149q2 -79 -29.5 -150t-85.5 -124.5t-125 -85t-149 -29.5q-79 -2 -150 29.5t-124.5 85t-84.5 124.5t-30 150zM754 333q2 63 -23.5 121t-69 101.5t-101.5 69t-121 23.5
q-63 1 -121 -24t-101.5 -68.5t-68.5 -101t-24 -121.5q-1 -64 24 -121.5t68.5 -101t101.5 -68.5t121 -24q64 -1 121.5 24t101 68.5t68.5 101t24 121.5zM431 246q-25 0 -48 9t-40 25.5t-27 40t-10 51.5q0 29 10.5 55t29 45.5t43 30.5t52.5 11q45 0 78.5 -25.5t44.5 -68.5
q15 -48 15 -97q0 -79 -39 -132t-112 -53q-80 0 -121 71l54 32q11 -19 29.5 -29t37.5 -10q32 0 56.5 22.5t28.5 62.5q-11 -19 -34 -30t-48 -11zM441 451q-29 0 -50.5 -21t-20.5 -52q-1 -32 18.5 -51.5t48.5 -19.5t49.5 21t21.5 55q-2 29 -20 48.5t-47 19.5z" />
    <glyph glyph-name="DegarismLogo" horiz-adv-x="1528" 
d="M731 275h229v-267h-82l-10 80h-9q0 -3 -7 -18t-23.5 -30.5t-44.5 -28t-71 -11.5q-95 0 -155 64q-60 65 -60 189q0 65 19.5 113.5t52 80.5t75 48t88.5 16q37 0 73.5 -10.5t67 -32.5t52.5 -55t29 -78h-113q-10 36 -37.5 57.5t-69.5 21.5q-63 0 -94.5 -44.5t-31.5 -112.5
q0 -34 7.5 -63.5t23 -51t39 -33.5t54.5 -12q43 0 73 23t38 60h-113v95zM997 457q0 22 16 38t39 16t38.5 -15.5t15.5 -38.5t-16 -39t-38 -16t-38.5 16.5t-16.5 38.5zM1135 457q0 22 16 38t39 16t38.5 -15.5t15.5 -38.5t-16 -39t-38 -16t-38.5 16.5t-16.5 38.5zM1276 511h84
v-21h-30v-85h-25v85h-29v21zM1488 511v-106h-25v91l-15 -91h-35l-14 91v-91h-25v106h44l12 -88l14 88h44zM464 257q0 -124 -61 -186.5t-169 -62.5h-194v498h194q108 0 169 -62.5t61 -186.5zM354 257q0 96 -42 127q-40 31 -78 31h-66q-25 2 -42.5 12t-19.5 12l-8 -8
q3 -3 11.5 -11t18.5 -19q15 -13 18.5 -29t3.5 -27v-177q0 -25 -10 -39.5t-12 -16.5l-30 -30l8 -7q3 3 22.5 13.5t47.5 10.5h58q39 0 79 30q41 32 41 128zM1210 345q18 0 34 -3v-89q-4 1 -18 1q-49 0 -76.5 -25.5t-27.5 -80.5v-140h-108v257q0 49 -7 77h109q2 -10 2.5 -20
t1.5 -20q22 43 90 43z" />
    <glyph glyph-name="G.ss01" horiz-adv-x="760" 
d="M394 386h347l-10 -73q-10 -74 -40 -134t-77 -102t-109 -65t-136 -23q-68 0 -125.5 21t-99.5 61.5t-66 101.5t-24 140q-1 89 29 166.5t83 134.5t126.5 89.5t159.5 31.5q112 0 189 -52.5t103 -143.5l-96 -34q-20 67 -72 102t-127 35q-64 0 -118.5 -24t-94 -66.5t-61.5 -102
t-22 -130.5q0 -115 57 -176.5t160 -61.5q97 0 165.5 55.5t88.5 161.5h-243z" />
    <glyph glyph-name="ampersand.ss02" horiz-adv-x="692" 
d="M658 0q-68 0 -98 13q-31 14 -54 48l-1 1q-89 -74 -218 -74q-54 0 -99 14t-76.5 39.5t-49 61.5t-17.5 81q0 56 26 100q27 44 71 78t114 76l-1 1q-25 38 -38 69.5t-13 64.5q0 34 13 64t36 52t54.5 34.5t69.5 12.5q66 0 103.5 -35.5t37.5 -93.5q0 -51 -33.5 -93.5
t-108.5 -91.5l140 -212q29 63 35 127h85q-12 -120 -68 -205q16 -23 30 -34q7 -4 12.5 -6.5t13 -3.5t18 -1.5t28.5 -0.5zM293 580q0 -20 9 -41t32 -55q54 32 78 58t24 56q0 27 -18 43.5t-46 16.5q-33 0 -56 -22t-23 -56zM298 374q-43 -27 -73 -48t-49 -41t-28 -41.5
t-11 -50.5q0 -30 12 -52.5t32.5 -37.5t49 -22.5t61.5 -7.5q99 0 166 61z" />
    <glyph glyph-name="bracketleftsuperior" horiz-adv-x="198" 
d="M193 -119h-147v647h147v-58h-88v-531h88v-58z" />
    <glyph glyph-name="bracketrightsuperior" horiz-adv-x="193" 
d="M88 -61v531h-88v58h147v-647h-147v58h88z" />
    <glyph glyph-name="eight.dnom" horiz-adv-x="361" 
d="M49 99q0 28 13.5 52.5t36.5 38.5q-20 14 -29.5 33t-9.5 40q0 20 9 39t25 34t38.5 24t49.5 9t49 -8.5t37.5 -23t24 -33t8.5 -39.5q0 -46 -38 -75q22 -15 36 -39t14 -51q0 -22 -9 -42t-25.5 -35.5t-41 -25t-56.5 -9.5q-31 0 -56 9t-41.5 24.5t-25.5 35.5t-9 42zM237 263
q1 17 -14 29.5t-42 12.5q-28 0 -43 -12.5t-13 -30.5q0 -17 15 -29.5t41 -12.5q27 1 42 13.5t14 29.5zM248 104q0 20 -17.5 35t-49.5 15q-33 0 -50.5 -15.5t-16.5 -36.5q0 -21 17.5 -36t49.5 -15q31 0 49 15.5t18 37.5z" />
    <glyph glyph-name="eight.numr" horiz-adv-x="371" 
d="M54 447q0 27 14 51t36 39q-19 14 -28.5 33.5t-9.5 40.5q0 20 8.5 38.5t24.5 33.5t38.5 24t49.5 9q54 -1 86 -31.5t33 -72.5q0 -21 -9.5 -41t-29.5 -34q23 -14 36.5 -38t13.5 -51q0 -22 -9 -42.5t-26 -36t-41.5 -24.5t-56.5 -9q-63 0 -96 33t-34 78zM242 612
q-1 16 -15.5 28t-40.5 12q-27 0 -41.5 -12.5t-15.5 -29.5q1 -17 16 -29.5t41 -12.5q27 0 42.5 13.5t13.5 30.5zM252 450q0 21 -17 36t-49 15q-31 0 -48.5 -15t-17.5 -36t17.5 -36.5t48.5 -15.5t48.5 15.5t17.5 36.5z" />
    <glyph glyph-name="eight.tf" horiz-adv-x="629" 
d="M457 379q52 -20 80.5 -63.5t28.5 -100.5q0 -51 -21.5 -93t-59.5 -72t-88.5 -46t-109.5 -16q-52 0 -95.5 14t-75 39t-49.5 60t-18 77q0 36 12 69t34.5 60.5t53.5 48t69 32.5q-42 19 -66.5 57t-24.5 86q0 47 19.5 85t52.5 64.5t78 40.5t96 14q45 0 83 -12.5t66.5 -36
t44.5 -55.5t16 -71q0 -66 -33 -112t-93 -69zM365 650q-67 0 -110 -31.5t-43 -91.5q0 -42 34.5 -72.5t97.5 -30.5q72 0 112.5 33.5t40.5 87.5q0 49 -36 77t-96 28zM323 335q-38 0 -70.5 -9.5t-56 -27.5t-37 -44t-13.5 -59q0 -55 41 -87t107 -32q75 0 126 39q52 40 52 107
q0 54 -41.5 83.5t-107.5 29.5z" />
    <glyph glyph-name="five.dnom" horiz-adv-x="378" 
d="M121 126q-2 -30 16.5 -51t49.5 -21q29 0 49 19.5t20 47.5q0 30 -20 50t-51 20q-19 0 -35 -9t-23 -22l-63 16l47 192h199v-68h-145l-14 -52q20 6 39 6q58 0 95 -39q38 -38 38 -96q0 -27 -10.5 -51t-29 -42t-43.5 -28.5t-53 -10.5q-29 0 -54 11t-43 29.5t-27.5 44
t-8.5 54.5h67z" />
    <glyph glyph-name="five.numr" horiz-adv-x="371" 
d="M120 475q-2 -29 16 -49.5t48 -20.5q28 0 47.5 19t19.5 45q0 29 -19.5 48.5t-48.5 19.5q-19 0 -34.5 -8.5t-22.5 -21.5l-62 16l47 187h193v-66h-141l-14 -51q18 6 39 6q54 0 92 -38q37 -37 37 -94q0 -26 -10.5 -49.5t-29 -41t-42.5 -27.5t-51 -10q-29 0 -53 10.5t-41.5 29
t-27 43.5t-8.5 53h66z" />
    <glyph glyph-name="five.tf" horiz-adv-x="619" 
d="M289 628l-69 -170q53 31 124 31q51 0 90.5 -17t67.5 -47t42.5 -70.5t14.5 -88.5q1 -57 -20 -108t-58.5 -89.5t-89 -60t-112.5 -20.5q-52 0 -95 16t-74.5 44.5t-49 68t-17.5 86.5q0 5 0.5 13.5t1.5 19.5h95q-1 -7 -1.5 -12.5t-0.5 -9.5q0 -28 10.5 -52t29 -41.5t45 -27.5
t57.5 -10q39 0 72 14.5t58 39t39 58t14 71.5q0 61 -37 100t-106 39q-45 0 -82.5 -17.5t-65.5 -48.5l-85 23l142 361h354l-14 -95h-280z" />
    <glyph glyph-name="four.dnom" horiz-adv-x="399" 
d="M344 66h-47v-70h-68v70h-175v67l175 235h68v-236h47v-66zM229 132v125l-91 -125h91z" />
    <glyph glyph-name="four.numr" horiz-adv-x="395" 
d="M341 412h-47v-70h-67v70h-173v65l173 233h67v-233h47v-65zM227 477v123l-91 -123h91z" />
    <glyph glyph-name="four.ss03" horiz-adv-x="651" 
d="M631 143h-90l-20 -143h-93l20 143l-394 1l13 94h394l55 390l-336 -390h-113l419 485h113h24l-69 -485l90 -1z" />
    <glyph glyph-name="four.tf" horiz-adv-x="627" 
d="M578 143h-90l-20 -143h-93l20 143l-354 1l13 94l380 485h112l-379 -485h241l31 218h93l-31 -218l90 -1z" />
    <glyph glyph-name="g.ss02" horiz-adv-x="590" 
d="M583 488l-67 -473q-17 -118 -85 -182.5t-180 -64.5q-94 0 -156 43.5t-78 116.5l90 33q7 -51 46 -79.5t100 -28.5q70 0 115 40.5t55 116.5l11 74q-31 -33 -77 -52t-94 -19q-50 0 -89.5 16t-67.5 44.5t-42.5 68t-14.5 85.5q-1 56 19 106.5t55.5 88.5t84.5 60t107 21
q60 0 104.5 -22.5t63.5 -67.5l15 75h85zM455 282q0 60 -36.5 99t-99.5 39q-39 0 -70.5 -14.5t-54.5 -39.5t-35.5 -59t-12.5 -72q0 -61 35 -100t98 -39q38 0 70 15t55.5 40.5t37 59t13.5 71.5z" />
    <glyph glyph-name="i.loclTRK" horiz-adv-x="210" 
d="M194 489l-68 -489h-95l69 489h94zM98 608q0 30 23 52t52 22q24 0 40.5 -17.5t16.5 -41.5q0 -29 -23 -51t-52 -22q-24 0 -40.5 17t-16.5 41z" />
    <glyph glyph-name="i.ss04" horiz-adv-x="261" 
d="M265 657l-83 -72l-61 72l82 72zM216 489l-69 -489h-95l69 489h95z" />
    <glyph glyph-name="nine.dnom" horiz-adv-x="388" 
d="M184 97q-27 0 -51 10t-42 28t-28 44t-9 58q2 58 40 95q39 39 95 39q45 0 79.5 -25.5t47.5 -70.5q17 -56 17 -105q0 -78 -39 -131q-37 -51 -110 -53q-80 0 -126 73l55 33q11 -21 30.5 -31.5t40.5 -10.5q31 0 55.5 23t26.5 65q-10 -19 -33.5 -30t-48.5 -11zM195 307
q-31 2 -54 -19t-22 -55q0 -33 20.5 -53.5t49.5 -20.5q30 0 50.5 21.5t19.5 56.5q-2 28 -19 47t-45 23z" />
    <glyph glyph-name="nine.numr" horiz-adv-x="383" 
d="M182 446q-52 0 -90 35q-38 36 -38 95q0 29 10.5 54.5t28.5 44t42.5 29t51.5 10.5q45 0 78.5 -25.5t46.5 -68.5q16 -48 16 -102q0 -39 -9.5 -72t-28.5 -57t-46 -37.5t-63 -13.5q-81 0 -122 71l54 32q11 -19 29.5 -29t37.5 -10q32 0 56 21.5t27 63.5q-10 -19 -33 -30
t-48 -11zM188 651q-28 0 -49 -20t-21 -51q0 -33 20 -53t49 -20t49.5 21t19.5 55q-2 29 -20 48.5t-48 19.5z" />
    <glyph glyph-name="nine.tf" horiz-adv-x="673" 
d="M631 429q0 -106 -22.5 -188t-66 -138.5t-106.5 -86t-143 -29.5q-79 0 -142.5 31t-93.5 88l83 48q22 -33 61.5 -52.5t94.5 -19.5q97 0 156 62.5t72 177.5q-15 -24 -37.5 -43t-48.5 -32t-55 -20t-58 -7q-47 0 -90.5 16.5t-76.5 47.5t-53 76.5t-20 102.5q-1 55 20.5 105
t59 87.5t88 59.5t107.5 21q132 0 201 -84q70 -83 70 -223zM366 645q-41 0 -74.5 -15t-57.5 -39.5t-37 -57.5t-13 -69q0 -31 11 -59t30.5 -49.5t47.5 -34t62 -12.5q39 0 73.5 15t59.5 40t39.5 58.5t14.5 70.5q0 32 -11 59.5t-31.5 48t-49 32.5t-64.5 12z" />
    <glyph glyph-name="one.dnom" horiz-adv-x="257" 
d="M41 336l70 32v-70l-70 -28v66zM177 368v-368h-66v368h66z" />
    <glyph glyph-name="one.numr" horiz-adv-x="259" 
d="M43 678l69 32v-70l-69 -27v65zM179 710v-368h-67v368h67z" />
    <glyph glyph-name="one.tf" horiz-adv-x="555" 
d="M475 85l-12 -85h-241h-150l13 85h149l90 638h96l-90 -638h145zM186 651l138 72l-14 -99l-138 -68z" />
    <glyph glyph-name="registered.ss01" horiz-adv-x="561" 
d="M342 734q48 0 88 -16.5t69 -45.5t45.5 -68.5t16.5 -85.5q1 -53 -20 -102t-58.5 -86.5t-87 -59t-105.5 -20.5q-48 0 -88.5 16.5t-70 45.5t-46 68.5t-16.5 85.5q-1 53 21 102t60.5 86.5t88 59.5t103.5 20zM291 299q44 0 84 17t70.5 46.5t48.5 68.5t18 84q0 37 -12.5 68.5
t-35.5 55t-55 36.5t-70 13q-44 0 -83.5 -17.5t-69.5 -47t-48 -69t-18 -84.5q0 -76 45 -123.5t126 -47.5zM260 600h76q71 0 71 -60q0 -24 -13.5 -41t-35.5 -24l27 -90h-49l-24 83h-28l-12 -83h-43zM325 506q15 0 24 8t9 20q0 23 -27 23h-34l-8 -51h36z" />
    <glyph glyph-name="seven.dnom" horiz-adv-x="373" 
d="M319 368v-70q-140 -105 -140 -298h-70q0 60 19 137q19 80 100 161h-174v70h265z" />
    <glyph glyph-name="seven.numr" horiz-adv-x="372" 
d="M318 710v-70q-67 -49 -99 -114q-31 -63 -36 -104q-2 -20 -3 -39.5t-1 -38.5h-70q0 59 19 136q20 80 100 160h-174v70h264z" />
    <glyph glyph-name="seven.tf" horiz-adv-x="526" 
d="M573 722l-14 -97q-143 -105 -225 -239q-40 -67 -66 -121.5t-38 -99.5q-22 -87 -36 -165h-97q3 26 10.5 62.5t20.5 84.5t38 105t62 124q75 136 208 249h-362l14 97h485z" />
    <glyph glyph-name="six.dnom" horiz-adv-x="392" 
d="M335 128q0 -30 -10 -55t-28.5 -44t-44 -29.5t-56.5 -10.5q-35 0 -61.5 13.5t-44.5 38.5t-27 59t-9 74q0 85 40 140q41 56 117 56q42 0 75 -17t52 -47l-53 -36q-26 35 -73 35q-35 0 -58 -21.5t-30 -56.5q29 35 84 35q58 0 92 -40q35 -40 35 -94zM265 123q0 33 -19.5 52.5
t-49.5 19.5t-49 -19.5t-19 -52.5q0 -34 19 -52.5t48 -18.5t49.5 19t20.5 52z" />
    <glyph glyph-name="six.numr" horiz-adv-x="392" 
d="M336 474q0 -57 -39 -98q-39 -39 -101 -39q-35 0 -61.5 14t-44 38.5t-26.5 59t-9 74.5q0 81 41 137q40 55 115 55q42 0 74.5 -16.5t52.5 -46.5l-52 -36q-25 34 -73 34q-36 0 -58.5 -21t-29.5 -56q13 17 35.5 26t47.5 9q58 0 92 -40q36 -39 36 -94zM266 470q0 32 -20 52
t-50 20t-49 -20t-19 -53t19.5 -51t48.5 -18t49.5 18.5t20.5 51.5z" />
    <glyph glyph-name="six.tf" horiz-adv-x="667" 
d="M619 270q1 -59 -20.5 -111t-60 -90.5t-91.5 -60.5t-115 -21q-63 0 -111 23t-80.5 64t-49.5 98t-17 126q0 17 0.5 30t1.5 21q6 79 32 149.5t70.5 123.5t107 84t140.5 30q75 0 137 -29t95 -87l-85 -49q-25 37 -65.5 53.5t-88.5 16.5q-49 0 -90 -19.5t-71.5 -52.5t-50 -78
t-27.5 -96q30 52 84.5 79t114.5 27q46 0 89 -15.5t76.5 -45t54 -72.5t20.5 -98zM369 413q-39 0 -72.5 -14.5t-58 -39t-38.5 -57.5t-14 -69q0 -31 10.5 -59t30 -49t47 -33t61.5 -12q39 0 73.5 14.5t60 39.5t40 57.5t14.5 69.5q0 30 -10.5 57.5t-30.5 48.5t-48.5 33.5
t-64.5 12.5z" />
    <glyph glyph-name="t.ss03" horiz-adv-x="338" 
d="M188 147q-1 -4 -1 -18q0 -55 55 -55q25 0 53 9l-13 -83q-37 -9 -71 -9q-57 0 -88.5 29t-31.5 87q0 17 3 35l37 265h-76l11 82h76l22 153h94l-22 -153h115l-11 -82h-115z" />
    <glyph glyph-name="three.dnom" horiz-adv-x="360" 
d="M311 119q0 -27 -10 -50t-27.5 -39.5t-41.5 -26t-53 -9.5q-28 0 -52.5 9.5t-41.5 26t-27 39t-10 48.5q0 11 1 14h68q-1 -5 -1.5 -8.5t-0.5 -5.5q0 -24 18 -41t46 -17t46.5 17t18.5 44t-19 44t-45 17q-15 0 -30 -6l-31 51l76 76h-131v66h234v-59l-73 -71q38 -13 62 -44.5
t24 -74.5z" />
    <glyph glyph-name="three.numr" horiz-adv-x="366" 
d="M311 461q0 -51 -38 -89q-37 -36 -90 -36q-28 0 -52.5 11t-42 29.5t-26.5 43.5t-7 53h67q-1 -5 -1.5 -8.5t-0.5 -5.5q0 -24 18.5 -40.5t44.5 -16.5t44 17t18 42q0 31 -23 49q-13 13 -39 13q-15 0 -29 -6l-30 51l74 75h-128v67h230v-59l-72 -72q32 -12 52 -35
q31 -34 31 -83z" />
    <glyph glyph-name="three.tf" horiz-adv-x="578" 
d="M569 632l-207 -179q78 -15 123.5 -69t45.5 -141q0 -59 -21.5 -106.5t-58 -80.5t-85 -50.5t-102.5 -17.5q-52 0 -95.5 16t-74.5 43.5t-48 66t-17 83.5q0 4 0.5 11t1.5 17h96q-1 -5 -1 -20q0 -55 39 -89.5t103 -34.5q36 0 66.5 11.5t53 32t35 50t12.5 65.5q0 55 -32 88.5
t-92 41.5q-8 1 -23 1.5t-37 0.5h-45l7 67l216 189h-309l14 94h448z" />
    <glyph glyph-name="two.dnom" horiz-adv-x="375" 
d="M67 66l139 119q24 21 32.5 34t8.5 31q0 27 -16.5 42t-44.5 15q-28 -1 -44 -16.5t-16 -41.5q0 -10 1 -13h-66q-2 29 6.5 53.5t26 43t43 29t55.5 10.5q54 -1 88 -34.5t35 -87.5q0 -33 -17 -60.5t-48 -53.5l-84 -71l142 1v-66h-241v66z" />
    <glyph glyph-name="two.numr" horiz-adv-x="363" 
d="M61 407l140 119q23 20 31.5 33t8.5 31q0 27 -15.5 42t-42.5 15q-29 0 -46 -15t-17 -43q0 -10 1 -13h-66q-4 58 33 97q38 39 98 39q55 -1 89 -34.5t34 -87.5q0 -61 -64 -113l-85 -71h142v-66h-241v67z" />
    <glyph glyph-name="two.tf" horiz-adv-x="574" 
d="M38 104l354 264q91 69 91 150q0 57 -36 91t-99 34q-64 0 -110.5 -38t-58.5 -107h-95q8 56 32 100.5t59.5 75t81 46.5t96.5 16t93 -15.5t71 -43t45 -66t16 -84.5q0 -72 -37 -128.5t-103 -104.5l-268 -199l332 1l-13 -94l-466 -2z" />
    <glyph glyph-name="zero.dnom" horiz-adv-x="428" 
d="M218 -13q-37 -2 -67.5 11t-52 38t-33 60.5t-11.5 79.5q0 87 43.5 138.5t118.5 51.5q70 0 114 -53q43 -52 43 -137t-41.5 -136.5t-113.5 -52.5zM306 176q0 55 -25 88t-67 33t-67.5 -33t-25.5 -88t25.5 -88.5t67.5 -33.5q42 1 67 34t25 88z" />
    <glyph glyph-name="zero.numr" horiz-adv-x="432" 
d="M215 339q-36 0 -65.5 14t-50 39t-32 60.5t-11.5 78.5q0 87 43.5 138.5t118.5 51.5q36 0 65 -14t50 -39t32 -60t11 -77q0 -88 -43 -140t-118 -52zM308 531q0 55 -25 88t-67 33t-67 -33t-25 -88q0 -57 25 -90t68 -34q42 1 66.5 34t24.5 90z" />
    <glyph glyph-name="zero.tf" horiz-adv-x="766" 
d="M437 736q63 -1 116 -24t90.5 -66t58.5 -105t21 -140q2 -85 -25 -161t-75 -132.5t-114 -89t-142 -30.5q-64 0 -118 23t-92.5 65.5t-60 103t-21.5 136.5q-1 86 27 163t77 134.5t115.5 91t142.5 31.5zM368 84q57 -1 104 25.5t80 71.5t51 102.5t17 118.5q0 109 -50.5 172
t-141.5 63q-56 2 -103 -25t-80 -72t-51.5 -103t-17.5 -120q0 -108 50.5 -170.5t141.5 -62.5z" />
    </font>
</defs>
</svg>
