<svg width="24" height="24" viewBox="0 0 24 24" fill="none" xmlns="http://www.w3.org/2000/svg">
<path d="M19.0512 23.6666H16.7635C16.3821 23.6666 16.0165 23.5155 15.7479 23.2468C15.4792 22.9781 15.3296 22.6141 15.3324 22.2355V18.6681C15.3324 18.2308 15.1574 17.8114 14.8459 17.5022C14.5344 17.193 14.112 17.0193 13.6715 17.0193H10.3183C9.40095 17.0193 8.65733 17.7575 8.65733 18.6681L19.0512 23.6666ZM19.0512 23.6666C20.1197 23.6693 21.1453 23.2499 21.9018 22.5009C22.6583 21.7518 23.0834 20.7347 23.0834 19.674V9.51125C23.0834 8.65445 22.7008 7.84173 22.0388 7.29203L19.0512 23.6666ZM8.15733 18.6681V21.8743L8.12862 21.8838L8.126 22.2422C8.12229 22.7504 7.70521 23.1666 7.18442 23.1666H4.94895C2.99473 23.1666 1.41675 21.5948 1.41675 19.6637V9.51741C1.43529 8.80076 1.77712 8.129 2.34985 7.68829L2.3499 7.68837L2.35739 7.68238L9.96216 1.59507L9.96908 1.58954L9.9758 1.58376C11.1068 0.610756 12.7783 0.580563 13.9443 1.51236L13.9458 1.51356L21.7235 7.68015C22.2692 8.13529 22.5834 8.8057 22.5834 9.51125V19.674C22.5834 20.6007 22.212 21.49 21.55 22.1456C20.8878 22.8012 19.9893 23.169 19.0525 23.1666H19.0512H16.7635C16.5142 23.1666 16.2759 23.0678 16.1014 22.8932C15.927 22.7188 15.8306 22.4833 15.8324 22.2392V22.2355V18.6681C15.8324 18.097 15.6038 17.5501 15.1982 17.1474C14.7927 16.7448 14.2434 16.5193 13.6715 16.5193H10.3183C9.12825 16.5193 8.15733 17.4779 8.15733 18.6681Z" stroke="black"/>
</svg>
