<svg width="15" height="16" viewBox="0 0 15 16" fill="none" xmlns="http://www.w3.org/2000/svg">
<path d="M14.7185 14.4139L11.9664 11.6617C12.949 10.4863 13.5415 8.97429 13.5415 7.3264C13.5415 3.59317 10.5044 0.556152 6.77122 0.556152C3.03799 0.556152 0.000976562 3.59317 0.000976562 7.3264C0.000976562 11.0596 3.03799 14.0966 6.77122 14.0966C8.41942 14.0966 9.93146 13.5039 11.1065 12.5216L13.8588 15.2739C13.9775 15.3926 14.1333 15.4519 14.2888 15.4519C14.4444 15.4519 14.6001 15.3924 14.7186 15.2739C14.9563 15.0364 14.9563 14.6515 14.7186 14.4139L14.7185 14.4139ZM1.21652 7.3264C1.21652 4.2636 3.70826 1.77188 6.77103 1.77188C9.83383 1.77188 12.3255 4.26362 12.3255 7.3264C12.3255 10.3892 9.8338 12.8809 6.77103 12.8809C3.70823 12.8809 1.21652 10.3892 1.21652 7.3264Z" fill="black"/>
</svg>
