<svg width="86" height="76" viewBox="0 0 86 76" fill="none" xmlns="http://www.w3.org/2000/svg">
<path d="M63.7583 0.318848C69.3944 0.318848 74.8161 2.54638 78.8047 6.54334C82.7974 10.5319 85.0292 15.9116 85.0292 21.5435V54.7464C85.0292 66.4725 75.4886 75.971 63.7583 75.971H22.2379C10.5076 75.971 0.971191 66.4725 0.971191 54.7464V21.5435C0.971191 9.8174 10.4655 0.318848 22.2379 0.318848H63.7583ZM68.5118 22.1739C67.6292 22.1277 66.7886 22.4261 66.154 23.0145L47.2031 38.1449C44.7654 40.1665 41.2728 40.1665 38.7973 38.1449L19.8842 23.0145C18.5771 22.0478 16.7699 22.1739 15.6813 23.3087C14.5466 24.4435 14.4205 26.2507 15.3829 27.5116L15.9335 28.058L35.0567 42.9783C37.4103 44.8275 40.2641 45.8362 43.2524 45.8362C46.2322 45.8362 49.1364 44.8275 51.4858 42.9783L70.4451 27.8058L70.7813 27.4696C71.7858 26.2507 71.7858 24.4855 70.7351 23.2667C70.1509 22.6404 69.3482 22.258 68.5118 22.1739Z" fill="#467CA7"/>
</svg>
