<svg width="20" height="20" viewBox="0 0 20 20" fill="none" xmlns="http://www.w3.org/2000/svg">
<path d="M17.5 9.16532C17.5 8.7233 17.3244 8.29937 17.0118 7.98681C16.6993 7.67425 16.2754 7.49866 15.8333 7.49866H14.1667V5.83199C14.1669 4.91453 13.8644 4.02263 13.306 3.29469C12.7476 2.56674 11.9645 2.04345 11.0783 1.80601C10.1921 1.56858 9.25232 1.63028 8.40477 1.98153C7.55721 2.33278 6.84929 2.95396 6.39083 3.74866C6.28816 3.93945 6.26383 4.16272 6.323 4.37115C6.38217 4.57957 6.52019 4.75676 6.7078 4.86514C6.89541 4.97352 7.11785 5.00457 7.32796 4.95171C7.53808 4.89886 7.71934 4.76624 7.83333 4.58199C8.10814 4.10459 8.53294 3.73131 9.04171 3.52017C9.55048 3.30902 10.1147 3.27181 10.6468 3.41434C11.1789 3.55686 11.6491 3.87113 11.9842 4.30832C12.3193 4.74551 12.5006 5.28114 12.5 5.83199V7.49866H4.16667C3.72464 7.49866 3.30072 7.67425 2.98816 7.98681C2.67559 8.29937 2.5 8.7233 2.5 9.16532V16.6653C2.5 17.1074 2.67559 17.5313 2.98816 17.8438C3.30072 18.1564 3.72464 18.332 4.16667 18.332H15.8333C16.2754 18.332 16.6993 18.1564 17.0118 17.8438C17.3244 17.5313 17.5 17.1074 17.5 16.6653V9.16532ZM10 14.582C9.67036 14.582 9.34813 14.4842 9.07405 14.3011C8.79997 14.118 8.58635 13.8577 8.4602 13.5531C8.33405 13.2486 8.30105 12.9135 8.36536 12.5902C8.42967 12.2669 8.5884 11.9699 8.82149 11.7368C9.05458 11.5037 9.35155 11.345 9.67485 11.2807C9.99815 11.2164 10.3333 11.2494 10.6378 11.3755C10.9423 11.5017 11.2026 11.7153 11.3858 11.9894C11.5689 12.2635 11.6667 12.5857 11.6667 12.9153C11.6667 13.3574 11.4911 13.7813 11.1785 14.0938C10.866 14.4064 10.442 14.582 10 14.582Z" fill="black"/>
</svg>
