<svg width="37" height="42" viewBox="0 0 37 42" fill="none" xmlns="http://www.w3.org/2000/svg">
<g clip-path="url(#clip0_1864_6444)">
<path d="M0.826874 36.4598V10.4253L7.2719 14.7387V40.7732L0.826874 36.4598Z" fill="#FF8F03"/>
<path d="M0.826874 5.34147V0.257812L7.2719 4.57122V9.50083L0.826874 5.34147Z" fill="#FF8F03"/>
<path d="M23.5381 4.57031H10.4946V9.96207C13.1033 9.91071 19.0572 9.83883 22.0035 9.96207C25.9933 9.96207 30.29 13.0431 29.0624 18.4348C28.0803 22.7483 24.2542 23.7239 22.4639 23.6726H17.7069V14.7376H10.4946V41.2343H17.7069V29.2184C18.4741 29.2184 21.1442 29.4648 25.6864 29.2184C35.0471 27.986 36.4281 21.3618 36.4281 17.2024C36.0598 7.21998 27.6813 4.62167 23.5381 4.57031Z" fill="#1776BA"/>
</g>
<defs>
<clipPath id="clip0_1864_6444">
<rect width="35.908" height="40.9774" fill="white" transform="translate(0.673538 0.257812)"/>
</clipPath>
</defs>
</svg>
