<?xml version="1.0" standalone="no"?>
<!DOCTYPE svg PUBLIC "-//W3C//DTD SVG 1.1//EN" "http://www.w3.org/Graphics/SVG/1.1/DTD/svg11.dtd" >
<svg xmlns="http://www.w3.org/2000/svg" xmlns:xlink="http://www.w3.org/1999/xlink" version="1.1">
<metadata>
Created by FontForge 20170731 at Sun Apr 23 04:35:12 2017
 By Aleksey,,,
Copyright (c) 2016 by Deni Anggara. All rights reserved.
</metadata>
<defs>
<font id="Biotif-BoldItalic" horiz-adv-x="0" >
  <font-face 
    font-family="Biotif Bold Italic"
    font-weight="700"
    font-style="italic"
    font-stretch="normal"
    units-per-em="1000"
    panose-1="0 0 8 0 0 0 0 0 0 0"
    ascent="752"
    descent="-248"
    x-height="496"
    cap-height="733"
    bbox="-546 -269 1488 1088"
    underline-thickness="80"
    underline-position="-275"
    slope="-8"
    unicode-range="U+0020-FB02"
  />
<missing-glyph horiz-adv-x="569" 
d="M466 -269h-360v1137h360v-1137zM191 792v-38h74v-42h-75v-37h189v37h-75v42h75v38h-188zM190 645v-118h189v39h-75v79h-114zM265 566h-38v40h38v-40zM190 496v-37h75v-42h-75v-38h114v80h75v37h-189zM341 428v-75h-151v-39h189v114h-38zM265 289v-63h39v26h37v-54h-114
v91h-37v-128h189v128h-114zM190 93v-129h189v129h-189zM341 2h-114v53h114v-53zM190 -62v-38h79l-79 -53v-38h189v38h-116l79 53h37v38h-189z" />
    <glyph glyph-name="fi" unicode="fi" horiz-adv-x="645" 
d="M620 495l-69 -495h-132l54 383h-224l-54 -383h-130l53 384h-70l16 112l70 -1l11 81q26 171 192 171q23 0 41 -2t37 -6l-18 -114q-14 2 -25 3.5t-20 1.5q-34 0 -53.5 -17.5t-25.5 -60.5l-8 -57h355zM659 674q0 -18 -7.5 -34t-19.5 -28t-28.5 -19t-34.5 -7q-30 0 -49.5 20
t-19.5 50q0 36 27 61.5t64 25.5q30 0 49 -19.5t19 -49.5z" />
    <glyph glyph-name="fl" unicode="fl" horiz-adv-x="624" 
d="M650 746l-105 -746h-130l54 384h-220l-54 -384h-130l53 384h-70l16 112h70l11 80q26 171 192 171q23 0 41 -2t37 -6l-18 -114q-14 2 -25 3.5t-20 1.5q-34 0 -53.5 -17.5t-25.5 -60.5l-8 -56h219l36 250h130z" />
    <glyph glyph-name="f_f" unicode="ff" horiz-adv-x="732" 
d="M716 630q-33 0 -52.5 -17.5t-25.5 -60.5l-8 -56h98l-15 -112h-99l-54 -384h-131l54 384h-71h-163l-54 -384h-130l53 384h-70l16 112h70l11 80q26 171 192 171q23 0 41 -2t37 -6l-18 -114q-14 2 -25 3.5t-20 1.5q-34 0 -53.5 -17.5t-25.5 -60.5l-8 -56h189h44l11 80
q26 171 192 171q24 0 42 -2t37 -6l-19 -114q-14 2 -25 3.5t-20 1.5z" />
    <glyph glyph-name="f_f_i" unicode="ffi" horiz-adv-x="1008" 
d="M628 495h356l-15 -112h-1l-53 -383h-132l54 383h-225l-54 -383h-131l54 384h-232l-54 -384h-130l53 384h-70l16 112h70l11 80q26 171 192 171q23 0 41 -2t37 -6l-18 -114q-14 2 -25 3.5t-20 1.5q-34 0 -53.5 -17.5t-25.5 -60.5l-8 -56h162l69 -1l11 81q26 171 192 171
q24 0 42 -2t37 -6l-19 -114q-14 2 -25 3.5t-20 1.5q-33 0 -52.5 -17.5t-25.5 -60.5zM1022 674q0 -18 -7.5 -34t-19.5 -28t-28.5 -19t-34.5 -7q-30 0 -49 20t-19 50q0 36 27 61.5t64 25.5q30 0 48.5 -19.5t18.5 -49.5z" />
    <glyph glyph-name="f_f_l" unicode="ffl" horiz-adv-x="988" 
d="M1013 746l-105 -746h-130l54 384h-220l-54 -384h-131l54 384h-232l-54 -384h-130l53 384h-70l16 112h70l11 80q26 171 192 171q23 0 41 -2t37 -6l-18 -114q-14 2 -25 3.5t-20 1.5q-34 0 -53.5 -17.5t-25.5 -60.5l-8 -56h231l11 80q26 171 192 171q24 0 42 -2t37 -6
l-19 -114q-14 2 -25 3.5t-20 1.5q-33 0 -52.5 -17.5t-25.5 -60.5l-8 -56h220l35 250h130z" />
    <glyph glyph-name="f_t" unicode="ft" horiz-adv-x="729" 
d="M735 384h-114l-54 -384h-129l54 384h-243l-54 -384h-130l53 384h-70l16 112h70l11 80q26 171 192 171q23 0 41 -2t37 -6l-18 -114q-14 2 -25 3.5t-20 1.5q-34 0 -53.5 -17.5t-25.5 -60.5l-8 -56h242l22 154h129l-21 -154h113z" />
    <glyph glyph-name="f_y" unicode="fy" horiz-adv-x="849" 
d="M884 496l-322 -613q-35 -67 -84.5 -95.5t-104.5 -28.5q-63 0 -116 28l50 110q38 -20 71 -20q47 0 71 47l18 36l-111 424h-107l-54 -384h-130l53 384h-70l16 112h70l11 80q26 171 192 171q23 0 41 -2t37 -6l-18 -114q-14 2 -25 3.5t-20 1.5q-34 0 -53.5 -17.5t-25.5 -60.5
l-8 -56h199h1v-2l86 -366l185 368h148z" />
    <glyph glyph-name="t_i" unicode="ti" horiz-adv-x="614" 
d="M631 674q0 -18 -7.5 -34t-19.5 -28t-28.5 -19t-34.5 -7q-30 0 -49 20t-19 50q0 36 27 61.5t64 25.5q30 0 48.5 -19.5t18.5 -49.5zM524 0h-132l54 384h-173l-54 -384h-130l54 384h-95l16 112h95l21 154h130l-21 -154h304z" />
    <glyph glyph-name="t_t" unicode="tt" horiz-adv-x="709" 
d="M712 384h-95l-54 -384h-130l54 384h-94h-120l-54 -384h-130l54 384h-95l16 112h95l21 154h130l-21 -154h163h51l22 154h130l-22 -154h94z" />
    <glyph glyph-name="t_y" unicode="ty" horiz-adv-x="858" 
d="M893 496l-322 -611q-36 -67 -86 -97t-105 -30q-31 0 -60.5 8t-52.5 21l49 110q35 -19 70 -19q48 0 72 46l18 37l-111 423h-92l-54 -384h-130l54 384h-95l16 112h95l21 154h130l-21 -154h184l87 -368l185 368h148z" />
    <glyph glyph-name=".notdef" horiz-adv-x="569" 
d="M466 -269h-360v1137h360v-1137zM191 792v-38h74v-42h-75v-37h189v37h-75v42h75v38h-188zM190 645v-118h189v39h-75v79h-114zM265 566h-38v40h38v-40zM190 496v-37h75v-42h-75v-38h114v80h75v37h-189zM341 428v-75h-151v-39h189v114h-38zM265 289v-63h39v26h37v-54h-114
v91h-37v-128h189v128h-114zM190 93v-129h189v129h-189zM341 2h-114v53h114v-53zM190 -62v-38h79l-79 -53v-38h189v38h-116l79 53h37v38h-189z" />
    <glyph glyph-name=".null" 
 />
    <glyph glyph-name="nonmarkingreturn" horiz-adv-x="333" 
 />
    <glyph glyph-name="space" unicode=" " horiz-adv-x="262" 
 />
    <glyph glyph-name="exclam" unicode="!" horiz-adv-x="276" 
d="M80 177q-1 9 -1 22.5v30.5q0 89 18 222l40 280h156l-40 -280q-6 -42 -12 -78t-13 -67t-15.5 -63.5t-19.5 -66.5h-113zM41 50q0 38 27 62t64 24q29 0 48.5 -18t19.5 -48q0 -37 -26.5 -61t-62.5 -24q-31 0 -50.5 18t-19.5 47z" />
    <glyph glyph-name="quotedbl" unicode="&#x22;" horiz-adv-x="353" 
d="M189 426h-72l4 195q1 36 21.5 54.5t48.5 18.5q20 0 35 -12.5t15 -37.5q0 -9 -3 -23zM357 426h-72l4 195q1 36 21.5 54.5t48.5 18.5q21 0 36 -12.5t15 -37.5q0 -9 -3 -23z" />
    <glyph glyph-name="numbersign" unicode="#" horiz-adv-x="680" 
d="M558 417l-20 -101h113l-24 -130h-114l-36 -186h-131l37 186h-119l-37 -186h-129l36 186h-94l25 130h95l19 101h-106l25 130h107l36 185h130l-37 -185h120l37 185h129l-36 -185h102l-25 -130h-103zM428 417h-119l-20 -101h120z" />
    <glyph glyph-name="dollar" unicode="$" horiz-adv-x="674" 
d="M596 225q0 -99 -66 -161q-67 -63 -176 -73l-12 -82h-97l12 83q-93 12 -144 64t-50 134l135 19q-2 -76 77 -92l28 199l-22 7q-152 42 -152 182q0 47 17.5 88t48.5 72.5t74 52.5t94 27l10 71h97l-10 -73q78 -13 125 -61t55 -117l-135 -34q-6 64 -63 85l-27 -192l20 -6
q75 -20 118 -67.5t43 -125.5zM345 615q-35 -12 -55.5 -38t-20.5 -57q0 -49 53 -70zM462 215q0 31 -17 48t-49 27l-24 -173q46 10 68 37.5t22 60.5z" />
    <glyph glyph-name="percent" unicode="%" horiz-adv-x="940" 
d="M271 747q67 0 110 -44.5t43 -126.5q0 -48 -13.5 -88.5t-38 -70t-58.5 -46t-74 -16.5q-69 0 -111.5 45.5t-42.5 126.5q0 48 13.5 88.5t37.5 70t58 45.5t76 16zM141 0l557 732h130l-558 -732h-129zM244 443q42 0 66 35t24 90q0 45 -19 67t-49 22q-42 0 -66.5 -34t-24.5 -89
q0 -46 19 -68.5t50 -22.5zM736 379q69 0 111.5 -45t42.5 -127q0 -48 -13.5 -88.5t-37.5 -69.5t-57.5 -45.5t-74.5 -16.5q-69 0 -112.5 45.5t-43.5 126.5q0 48 13.5 88.5t38.5 69.5t59 45.5t74 16.5zM711 75q40 0 64.5 35.5t24.5 89.5q0 45 -19 67t-49 22q-42 0 -66 -34
t-24 -89q0 -45 19 -68t50 -23z" />
    <glyph glyph-name="ampersand" unicode="&#x26;" horiz-adv-x="747" 
d="M244 427q-29 43 -42 77.5t-13 68.5q0 80 53 127q55 47 137 47q39 0 72.5 -11t58 -31.5t38 -50t13.5 -65.5q0 -119 -150 -190l109 -156q23 51 27 115l135 1q-15 -134 -85 -226l94 -133h-153l-34 49q-89 -62 -212 -62q-115 0 -179 52t-64 146q0 77 48 133t147 109zM354 481
q79 45 79 97q0 25 -15 40.5t-42 15.5q-31 0 -46.5 -19.5t-15.5 -44.5q0 -18 9 -38t31 -51zM319 102q71 0 122 39l-140 203q-54 -33 -83.5 -67t-29.5 -76q0 -43 34 -71t97 -28z" />
    <glyph glyph-name="quotesingle" unicode="'" horiz-adv-x="256" 
d="M230 429h-84l4 205q1 42 24.5 62.5t55.5 20.5q23 0 40 -14.5t17 -43.5q0 -11 -3 -25z" />
    <glyph glyph-name="parenleft" unicode="(" horiz-adv-x="304" 
d="M159 -100q-52 69 -81.5 170t-29.5 213q0 158 63 306q65 150 182 261h102q-100 -112 -158 -262q-59 -153 -59 -321q0 -103 21 -201q23 -99 63 -166h-103z" />
    <glyph glyph-name="parenright" unicode=")" horiz-adv-x="316" 
d="M168 483q0 109 -22 205t-61 162h102q28 -35 48.5 -78.5t34.5 -94.5q29 -104 29 -211q0 -167 -67 -313q-33 -73 -77 -136t-101 -117h-103q52 60 92 127t68 144q57 153 57 312z" />
    <glyph glyph-name="asterisk" unicode="*" horiz-adv-x="421" 
d="M304 497l40 -60l-55 -38l-41 57q-22 29 -39 72q-9 -31 -37 -72l-43 -57l-55 38l41 60q14 19 28 34t28 26q-26 4 -46 8t-34 9l-68 25l25 62l65 -21q20 -8 38 -17.5t35 -20.5q-9 45 -9 82v71h67v-71q0 -41 -9 -82q30 22 73 38l66 21l24 -62l-69 -25q-14 -5 -34 -9t-46 -8
q15 -12 28 -26.5t27 -33.5z" />
    <glyph glyph-name="plus" unicode="+" horiz-adv-x="626" 
d="M568 282h-195l-27 -196h-110l27 196h-196l15 110h196l28 195h110l-27 -195h194z" />
    <glyph glyph-name="comma" unicode="," horiz-adv-x="285" 
d="M223 37q0 -63 -36 -102.5t-91 -39.5v41q29 0 45.5 17t15.5 41q-12 -5 -27 -5q-29 0 -48 19t-19 52q0 34 21.5 55.5t55.5 21.5q35 0 59 -24.5t24 -75.5z" />
    <glyph glyph-name="hyphen" unicode="-" horiz-adv-x="518" 
d="M488 336l-17 -116h-423l17 116h423z" />
    <glyph glyph-name="period" unicode="." horiz-adv-x="295" 
d="M72 56q0 36 29 65q29 28 68 28q31 0 51.5 -21.5t20.5 -52.5q0 -35 -30 -64q-28 -27 -66 -27q-31 0 -52 21t-21 51z" />
    <glyph glyph-name="slash" unicode="/" horiz-adv-x="450" 
d="M366 747h130l-367 -747h-129z" />
    <glyph glyph-name="zero" unicode="0" horiz-adv-x="768" 
d="M434 746q66 0 121 -24t94.5 -68.5t61.5 -108.5t22 -145q2 -85 -25 -161t-75 -132.5t-114.5 -89t-143.5 -30.5q-66 0 -122.5 23.5t-97.5 67.5t-64 107t-23 141q-1 87 27 164t77.5 134.5t116.5 90.5t145 31zM376 122q51 -1 91 22.5t67 62.5t40.5 89.5t13.5 103.5
q0 99 -44 153.5t-123 54.5q-49 1 -88.5 -23t-66.5 -63.5t-41 -90t-14 -103.5q0 -97 43 -151t122 -55z" />
    <glyph glyph-name="one" unicode="1" horiz-adv-x="412" 
d="M105 651l152 82h131l-103 -733h-131l83 596l-151 -76z" />
    <glyph glyph-name="two" unicode="2" horiz-adv-x="591" 
d="M40 134l348 254q40 30 59 60t19 65q0 48 -31 76.5t-83 28.5q-51 0 -90.5 -29.5t-51.5 -89.5h-131q8 59 33.5 105t62.5 78t84 48.5t99 16.5q54 0 98 -16t75.5 -45t49 -69.5t17.5 -88.5q0 -141 -145 -241l-221 -157l295 1l-18 -129l-488 -2z" />
    <glyph glyph-name="three" unicode="3" horiz-adv-x="585" 
d="M576 618l-177 -156q66 -21 104.5 -75t38.5 -136q0 -62 -22 -111t-59.5 -83t-88 -52t-106.5 -18q-55 0 -100 16.5t-77 46t-50 68.5t-18 84q0 11 0.5 19.5t1.5 13.5h130q-1 -3 -1 -16q0 -46 33 -74.5t88 -28.5q63 0 100 35.5t37 95.5q0 51 -31 79t-88 31q-6 1 -18.5 1
h-32.5h-50l8 89l174 154l-268 1l19 130h469z" />
    <glyph glyph-name="four" unicode="4" horiz-adv-x="649" 
d="M606 135h-93l-19 -135h-129l19 136h-345l19 130l357 467h154l-359 -468h193l24 174h128l-24 -174h94z" />
    <glyph glyph-name="five" unicode="5" horiz-adv-x="612" 
d="M578 272q1 -60 -22.5 -112.5t-63.5 -91t-93 -60t-112 -20.5q-51 0 -96.5 16.5t-79.5 46.5t-53.5 71.5t-19.5 91.5q0 5 0.5 13t1.5 19h130q-1 -7 -1.5 -12t-0.5 -8q0 -48 32 -77.5t86 -29.5q33 0 61 12t49 33t33 49t12 60q0 55 -33.5 89t-90.5 34q-38 0 -71 -16.5
t-53 -45.5l-114 30l144 369h371l-19 -131h-269l-48 -114q42 19 97 19q51 0 92 -17.5t70.5 -49t45 -74.5t15.5 -94z" />
    <glyph glyph-name="six" unicode="6" horiz-adv-x="674" 
d="M638 276q0 -59 -21 -112t-59.5 -92.5t-92.5 -62.5t-121 -23q-133 0 -205 87t-72 234v20t1 15q5 86 31 159.5t72 128.5t111.5 86t148.5 31q85 0 148.5 -32.5t95.5 -90.5l-116 -64q-45 57 -136 57q-81 0 -135 -47t-72 -126q29 36 77 53.5t100 17.5q47 0 91.5 -16t79 -46.5
t55 -75t19.5 -101.5zM376 397q-35 0 -64.5 -12.5t-50.5 -34t-33 -49.5t-12 -59q0 -52 35 -92q35 -38 96 -38q35 0 64 13t50 34.5t33 49.5t12 59q0 25 -9 48.5t-25.5 41.5t-41 28.5t-54.5 10.5z" />
    <glyph glyph-name="seven" unicode="7" horiz-adv-x="546" 
d="M597 732l-19 -133q-135 -95 -211 -218q-75 -124 -100 -215q-26 -90 -36 -166h-133q14 116 76 282q65 169 237 317h-344l19 133h511z" />
    <glyph glyph-name="eight" unicode="8" horiz-adv-x="634" 
d="M473 384q51 -22 77.5 -65t26.5 -100q0 -52 -22 -94.5t-60 -73t-90.5 -47t-112.5 -16.5q-54 0 -99.5 14t-79 40t-52 62t-18.5 79q0 74 46 130q46 58 120 79q-37 19 -60.5 55.5t-23.5 87.5q0 47 20 85.5t54 66.5t79.5 43.5t96.5 15.5q47 0 86.5 -13.5t69 -37.5t46 -58
t16.5 -75q0 -6 -1 -15.5t-3 -22.5q-16 -102 -116 -140zM363 630q-55 0 -91.5 -28t-36.5 -74q0 -36 29 -62t84 -26q60 0 94 28.5t34 71.5q0 39 -31 64.5t-82 25.5zM321 326q-63 0 -104 -31.5t-41 -85.5q0 -46 34.5 -73.5t92.5 -27.5q31 0 58 8.5t46.5 24t30.5 38t11 49.5
q0 46 -35 72t-93 26z" />
    <glyph glyph-name="nine" unicode="9" horiz-adv-x="686" 
d="M651 432q0 -109 -24.5 -192.5t-70.5 -139.5t-111.5 -85t-147.5 -29q-81 0 -151 32q-69 33 -99 93l118 65q44 -59 135 -59q78 0 130.5 43t69.5 124q-29 -34 -77 -51.5t-96 -17.5q-50 0 -95 16.5t-79 48.5t-54 79t-20 108q-1 56 21 107.5t62 90t94 61t117 21.5
q68 0 120 -24t87 -66t53 -99.5t18 -125.5zM506 493q0 27 -9 50.5t-26 41t-41 27.5t-54 10q-36 0 -65.5 -12.5t-50.5 -34t-32.5 -49.5t-11.5 -58q0 -27 9 -51t25.5 -41.5t40.5 -28t54 -10.5q35 0 64.5 12.5t51 34t33.5 50t12 59.5z" />
    <glyph glyph-name="colon" unicode=":" horiz-adv-x="289" 
d="M85 421q0 18 8 35t21 29.5t31 20t37 7.5q30 0 51.5 -21t21.5 -52q0 -36 -30 -65q-30 -27 -67 -27q-31 0 -52 21.5t-21 51.5zM34 56q0 36 29 65q28 28 67 28q31 0 52 -21.5t21 -52.5q0 -35 -30 -64q-30 -27 -67 -27q-31 0 -51.5 21t-20.5 51z" />
    <glyph glyph-name="semicolon" unicode=";" horiz-adv-x="292" 
d="M292 440q0 -36 -30 -65q-28 -27 -66 -27q-32 0 -52.5 21t-20.5 52q0 37 29 64q28 28 67 28q31 0 52 -21t21 -52zM230 56q0 -34 -12 -63.5t-32 -51t-47.5 -34t-57.5 -12.5l6 41q28 0 47.5 17t21.5 40q-8 -4 -24 -4q-28 0 -45 16t-17 44q0 38 25.5 63t63.5 25
q31 0 51 -19.5t20 -61.5z" />
    <glyph glyph-name="less" unicode="&#x3c;" horiz-adv-x="433" 
d="M46 319l379 180l-20 -143l-228 -106l199 -107l-20 -142l-330 180z" />
    <glyph glyph-name="equal" unicode="=" horiz-adv-x="505" 
d="M479 473l-16 -110h-389l16 110h389zM56 235h389l-15 -110h-389z" />
    <glyph glyph-name="greater" unicode="&#x3e;" horiz-adv-x="446" 
d="M35 144l229 106l-199 106l20 143l330 -180l-20 -138l-380 -180z" />
    <glyph glyph-name="question" unicode="?" horiz-adv-x="611" 
d="M577 535q0 -54 -22 -94q-21 -40 -51 -66.5t-78 -60.5q-50 -35 -74 -58.5t-29 -54.5l-3 -24h-131l3 24q6 44 27 77t48 56.5t69 51.5q54 37 80 65.5t26 69.5q0 42 -26.5 68.5t-78.5 26.5q-57 0 -90 -33t-39 -84h-132q8 53 29.5 98.5t56 78.5t82 52t106.5 19q50 0 91.5 -15
t71.5 -43t47 -67t17 -87zM326 71q0 -34 -26.5 -59t-65.5 -25q-33 0 -53 19t-20 48q0 35 27 60.5t66 25.5q32 0 52 -20t20 -49z" />
    <glyph glyph-name="at" unicode="@" horiz-adv-x="961" 
d="M924 367q1 -63 -16.5 -119.5t-47 -98.5t-69 -66t-83.5 -23q-45 0 -74.5 23.5t-30.5 69.5q-24 -40 -67.5 -62.5t-100.5 -22.5q-45 0 -82 15t-64 42.5t-41.5 67t-14.5 87.5q0 13 0.5 22.5t1.5 16.5q6 58 29 106t57.5 82.5t78.5 54t92 19.5q54 -1 96 -26.5t63 -68.5l14 79
h72l-62 -360q-3 -27 -3 -31q0 -45 39 -45q26 0 50 19t42.5 52t29.5 77.5t11 95.5q1 69 -23.5 125.5t-67 97t-101 62.5t-124.5 21q-80 2 -151.5 -29.5t-125 -85.5t-84 -125.5t-29.5 -151.5q-1 -67 21 -129t64 -108.5t101.5 -73.5t134.5 -26q67 0 136 21.5t127 59.5l33 -65
q-31 -19 -66.5 -34.5t-77.5 -26.5q-82 -24 -156 -24q-79 -1 -151 27.5t-126.5 81t-86.5 126.5t-31 165q-2 101 36.5 187t104 149t151.5 98t179 33q83 1 155.5 -27t125.5 -79t83 -121.5t29 -153.5zM615 327q3 23 3 42q0 72 -35.5 108t-90.5 36q-34 0 -65 -15t-55 -42t-40 -64
t-21 -81q-1 -4 -1 -10.5v-14.5q0 -70 36 -110t93 -40q66 0 115 50.5t61 140.5z" />
    <glyph glyph-name="A" unicode="A" horiz-adv-x="665" 
d="M622 0h-143l-34 166h-251l-81 -166h-138l357 733h129zM423 284l-51 249l-122 -249h173z" />
    <glyph glyph-name="B" unicode="B" horiz-adv-x="659" 
d="M614 216q0 -50 -20 -90t-55 -68t-84 -43t-108 -15h-209h-93l103 732h135h167q96 0 149.5 -48t53.5 -127q0 -70 -36 -119.5t-91 -72.5q39 -20 63.5 -57.5t24.5 -91.5zM514 527q0 38 -23.5 63.5t-69.5 25.5h-154l-28 -200h153q57 0 89.5 33t32.5 78zM481 226q0 40 -26 64
t-69 24h-162l-27 -198h158q57 0 91.5 30.5t34.5 79.5z" />
    <glyph glyph-name="C" unicode="C" horiz-adv-x="755" 
d="M627 477q-20 69 -72.5 103.5t-118.5 34.5q-51 1 -95 -20.5t-76 -60t-50 -89.5t-17 -108q0 -100 53 -157.5t141 -57.5q64 0 116 32.5t85 99.5l127 -54q-17 -44 -49.5 -82.5t-76.5 -67.5t-97 -45.5t-112 -16.5q-63 0 -123.5 20.5t-107.5 63t-75 108.5t-27 156
q-1 83 26.5 158.5t78.5 132t122 89.5t156 31q61 0 114 -16.5t94 -45.5t69 -68t39 -83z" />
    <glyph glyph-name="D" unicode="D" horiz-adv-x="750" 
d="M729 401q2 -85 -27.5 -159t-82 -128t-124 -85t-153.5 -29h-206h-91l103 733h137h117q71 1 131.5 -23t104 -68t68 -105.5t23.5 -135.5zM583 401q0 47 -13.5 84.5t-39 64.5t-61.5 41.5t-81 14.5h-121l-67 -480h115q60 0 109 20.5t84.5 57.5t55 87t19.5 110z" />
    <glyph glyph-name="E" unicode="E" horiz-adv-x="595" 
d="M267 604l-24 -173h287l-19 -122l-286 1l-25 -181l321 -1l-18 -128h-458l103 733h458l-19 -129h-320z" />
    <glyph glyph-name="F" unicode="F" horiz-adv-x="570" 
d="M266 605l-26 -185l270 -1l-18 -124l-269 1l-41 -296h-137l103 733h136h322l-20 -129z" />
    <glyph glyph-name="G" unicode="G" horiz-adv-x="784" 
d="M410 424h342l-60 -424h-118l3 64q-38 -38 -92.5 -56.5t-111.5 -18.5q-70 0 -128.5 23t-101.5 66.5t-67 105.5t-24 139q-1 89 27.5 167t80 135.5t122 90t154.5 31.5q124 0 208 -57q84 -55 115 -148l-124 -47q-21 58 -73.5 90.5t-121.5 32.5q-57 0 -103 -21.5t-78.5 -59.5
t-50 -90t-17.5 -114q0 -55 17 -95.5t45.5 -67.5t64.5 -40.5t73 -13.5q73 0 134 39q62 41 80 134l3 15h-215z" />
    <glyph glyph-name="H" unicode="H" horiz-adv-x="740" 
d="M148 733h137l-42 -301l306 -1l42 302h138l-103 -733h-138l44 309l-306 2l-44 -311h-137z" />
    <glyph glyph-name="I" unicode="I" horiz-adv-x="280" 
d="M45 0l103 733h137l-103 -733h-137z" />
    <glyph glyph-name="J" unicode="J" horiz-adv-x="541" 
d="M552 733l-65 -463l-10 -68q-13 -95 -79 -156q-64 -60 -168 -60q-103 0 -160 50.5t-57 135.5q0 11 0.5 20t1.5 15l3 25h131l-3 -25q-1 -4 -1 -16q0 -37 24.5 -57.5t61.5 -20.5q42 0 72.5 25t37.5 74l9 58l65 463h137z" />
    <glyph glyph-name="K" unicode="K" horiz-adv-x="668" 
d="M143 733h137l-51 -354l332 354h180l-335 -362l223 -371h-172l-150 264l-110 -116l-20 -148h-137z" />
    <glyph glyph-name="L" unicode="L" horiz-adv-x="534" 
d="M492 123l-17 -123h-408h-22l103 733h138l-85 -610h291z" />
    <glyph glyph-name="M" unicode="M" horiz-adv-x="881" 
d="M879 733l-103 -733h-134l57 404l-226 -404h-129l-111 403l-57 -403h-131l103 733h131l151 -574l315 574h134z" />
    <glyph glyph-name="N" unicode="N" horiz-adv-x="758" 
d="M148 733h136l262 -513l73 513h135l-103 -733h-135l-263 513l-72 -513h-136z" />
    <glyph glyph-name="O" unicode="O" horiz-adv-x="785" 
d="M442 747q73 0 133 -24t103 -68t66.5 -105t23.5 -136q2 -95 -30.5 -174t-87 -135.5t-126 -87.5t-148.5 -30q-73 0 -133 24t-103 68t-66.5 105t-23.5 136q-1 95 30.5 174t86 135.5t126 87.5t149.5 30zM382 121q47 0 90.5 21t76.5 59t53 91t20 118q0 46 -13 83.5t-37 64.5
t-58.5 41.5t-78.5 14.5q-46 1 -89.5 -19.5t-77 -59t-53.5 -91.5t-19 -117q0 -46 13 -84t37 -65t58.5 -42t77.5 -15z" />
    <glyph glyph-name="P" unicode="P" horiz-adv-x="648" 
d="M654 509q0 -54 -18.5 -101t-54 -82t-86 -55.5t-113.5 -20.5h-165l-35 -250h-137l103 733h275q53 0 95.5 -15t72.5 -44t46.5 -70.5t16.5 -94.5zM268 612l-34 -243h130q71 0 108 42q37 43 37 101q0 43 -27 71.5t-84 28.5h-130z" />
    <glyph glyph-name="Q" unicode="Q" horiz-adv-x="786" 
d="M719 0h-142l-23 29q-84 -42 -175 -42q-73 0 -133 24t-103 68t-66.5 105t-23.5 136q-1 95 31 174t86.5 135.5t126 87.5t148.5 30q73 0 133 -24t103 -68t66.5 -105t23.5 -136q0 -100 -33.5 -181.5t-93.5 -138.5zM375 253h143l38 -48q33 38 51 90t18 115q0 46 -13 83.5
t-37 64.5t-58.5 41.5t-78.5 14.5q-46 1 -89.5 -19.5t-77 -59t-53.5 -91.5t-19 -117q0 -46 13 -84t37 -65t58.5 -42t77.5 -15q40 0 82 17z" />
    <glyph glyph-name="R" unicode="R" horiz-adv-x="675" 
d="M670 519q0 -81 -42.5 -140.5t-117.5 -87.5l91 -291h-152l-78 271h-151l-38 -271h-137l103 733h137h159q101 0 163 -56q63 -55 63 -158zM268 612l-31 -221h144q72 0 107.5 35.5t35.5 87.5q0 98 -110 98h-146z" />
    <glyph glyph-name="S" unicode="S" horiz-adv-x="599" 
d="M358 747q108 0 170.5 -50.5t67.5 -132.5l-134 -34q-3 45 -34.5 68t-83.5 23q-58 0 -90.5 -27t-32.5 -69q0 -58 73 -79l106 -31q84 -24 125 -75t41 -124q0 -49 -20.5 -91t-58 -73t-90.5 -48t-118 -17q-112 0 -180 50.5t-76 141.5l133 33q1 -48 36.5 -73t98.5 -25t100 25.5
t37 67.5q0 58 -76 81l-107 33q-81 24 -122 73.5t-41 116.5q0 51 20 94.5t56.5 75t87.5 49t112 17.5z" />
    <glyph glyph-name="T" unicode="T" horiz-adv-x="582" 
d="M617 604h-206l-85 -604h-136l84 604h-207l19 129h549z" />
    <glyph glyph-name="U" unicode="U" horiz-adv-x="729" 
d="M143 733h137l-62 -439q-3 -19 -3 -37q0 -72 40.5 -105.5t103.5 -33.5q75 0 122.5 43t59.5 130l62 442h137l-66 -470q-20 -135 -105 -205t-213 -70q-59 0 -110 16.5t-88.5 49t-59 80t-21.5 110.5q0 16 1 30.5t3 28.5z" />
    <glyph glyph-name="V" unicode="V" horiz-adv-x="722" 
d="M788 733l-384 -733h-144l-182 733h156l125 -538l276 538h153z" />
    <glyph glyph-name="W" unicode="W" horiz-adv-x="1037" 
d="M1094 733l-326 -733h-133l-82 489l-222 -489h-134l-117 733h150l69 -495l214 495h151l72 -497l212 497h146z" />
    <glyph glyph-name="X" unicode="X" horiz-adv-x="692" 
d="M258 733l118 -248l194 248h158l-286 -365l199 -368h-164l-127 256l-208 -256h-159l301 373l-189 360h163z" />
    <glyph glyph-name="Y" unicode="Y" horiz-adv-x="654" 
d="M232 733l117 -309l217 309h149l-311 -442l-41 -291h-137l40 291l-188 442h154z" />
    <glyph glyph-name="Z" unicode="Z" horiz-adv-x="562" 
d="M22 131l403 471l-336 -1l18 132h495l-18 -130l-404 -472h333l-18 -131h-491z" />
    <glyph glyph-name="bracketleft" unicode="[" horiz-adv-x="330" 
d="M287 -99h-231l132 943h232l-14 -101h-122l-103 -740h121z" />
    <glyph glyph-name="backslash" unicode="\" horiz-adv-x="577" 
d="M379 0l-287 732h130l286 -732h-129z" />
    <glyph glyph-name="bracketright" unicode="]" horiz-adv-x="289" 
d="M127 3l104 740h-121l13 101h232l-133 -943h-231l15 102h121z" />
    <glyph glyph-name="asciicircum" unicode="^" horiz-adv-x="428" 
d="M310 480l-63 122l-63 -122h-112l119 230h111l119 -230h-111z" />
    <glyph glyph-name="underscore" unicode="_" horiz-adv-x="549" 
d="M487 -17l-14 -95h-429l14 95h429z" />
    <glyph glyph-name="grave" unicode="`" horiz-adv-x="244" 
d="M19 915h121l73 -145h-97z" />
    <glyph glyph-name="a" unicode="a" horiz-adv-x="618" 
d="M608 496l-69 -496h-122l4 59q-25 -34 -69 -52t-92 -18q-51 0 -91.5 17t-69 48t-44 73.5t-15.5 93.5q0 65 20 118.5t55.5 91.5t83 59t102.5 21q57 0 102.5 -21.5t69.5 -58.5l15 65h120zM439 262q0 60 -35.5 94.5t-87.5 34.5q-29 0 -55 -12.5t-45.5 -33.5t-31 -50
t-11.5 -62q0 -61 33.5 -95.5t85.5 -34.5q31 0 57.5 12.5t46.5 34.5t31.5 50.5t11.5 61.5z" />
    <glyph glyph-name="b" unicode="b" horiz-adv-x="634" 
d="M611 275q1 -60 -19 -112.5t-56 -92t-84.5 -62t-104.5 -21.5q-64 0 -108 22.5t-62 57.5l-17 -67h-121l105 747h131l-43 -300q21 30 61 47t91 17q48 0 89 -16t72 -46.5t48.5 -74t17.5 -99.5zM479 262q0 63 -35 97.5t-89 34.5q-32 0 -59 -13t-46.5 -35t-30.5 -51t-11 -62
q0 -61 36 -94.5t90 -33.5q32 0 58.5 12t45.5 33t30 50t11 62z" />
    <glyph glyph-name="c" unicode="c" horiz-adv-x="562" 
d="M310 511q94 0 154 -43.5t80 -112.5l-117 -44q-11 39 -41 60.5t-72 21.5q-64 0 -103 -47q-38 -47 -38 -114q0 -60 31.5 -93.5t85.5 -33.5q43 0 74 21.5t48 57.5l111 -48q-28 -69 -90.5 -109t-143.5 -40q-57 0 -103 17.5t-78.5 49.5t-49.5 77t-17 100q0 60 20 111t56 88.5
t85.5 59t107.5 21.5z" />
    <glyph glyph-name="d" unicode="d" horiz-adv-x="621" 
d="M646 747l-105 -747h-121l4 60q-23 -35 -65.5 -54t-94.5 -19q-45 0 -85.5 15.5t-71 45.5t-48.5 74t-18 102q0 61 20 113.5t56 91t86 60.5t111 22q51 0 92.5 -18t65.5 -51l43 305h131zM318 394q-31 0 -57.5 -12.5t-46 -34.5t-30.5 -50.5t-11 -61.5q0 -60 35.5 -95t89.5 -35
q31 0 57.5 12t46 33.5t30.5 50.5t11 63q0 61 -35.5 95.5t-89.5 34.5z" />
    <glyph glyph-name="e" unicode="e" horiz-adv-x="563" 
d="M311 511q50 0 92.5 -15.5t73.5 -44.5t48.5 -70.5t17.5 -92.5q0 -20 -3 -41l-7 -46l-369 1q-1 -49 29 -76t79 -27q43 0 76 19.5t49 51.5l113 -47q-35 -66 -97 -101t-141 -35q-103 0 -168 60q-64 61 -64 172q0 60 18.5 113t54 93t85.5 63t113 23zM413 291q5 51 -24.5 81.5
t-81.5 30.5q-51 0 -86.5 -29.5t-46.5 -83.5z" />
    <glyph glyph-name="f" unicode="f" horiz-adv-x="371" 
d="M352 630q-34 0 -53.5 -17.5t-25.5 -60.5l-8 -56h117l-14 -106h-118l-55 -390h-130l54 390h-69l14 106h70l11 80q26 171 192 171q23 0 41 -2t37 -6l-18 -114q-14 2 -25 3.5t-20 1.5z" />
    <glyph glyph-name="g" unicode="g" horiz-adv-x="571" 
d="M579 561q15 0 20 -1l-14 -105q-4 1 -17 1q-42 0 -69 -24q30 -43 30 -99q0 -49 -18 -89.5t-50.5 -69t-78 -44t-101.5 -15.5q-50 0 -94 16q-20 -3 -29 -12.5t-9 -21.5t12 -20t37 -8h137q87 0 135.5 -40t48.5 -106q0 -170 -274 -170q-121 0 -185 32.5t-64 92.5q0 74 70 110
q-32 26 -32 70q0 32 19.5 64.5t68.5 47.5q-50 48 -50 121q0 49 18.5 89t52 69t80 45t101.5 16q68 0 115 -26q22 35 58.5 56t81.5 21zM400 322q0 37 -24.5 61t-66.5 24q-48 0 -79 -29t-31 -75q0 -38 24.5 -61.5t66.5 -23.5q48 0 79 29.5t31 74.5zM159 -40h-11
q-32 -20 -32 -49q0 -30 32.5 -40t101.5 -10q62 0 101 11.5t39 46.5q0 41 -67 41h-164z" />
    <glyph glyph-name="h" unicode="h" horiz-adv-x="596" 
d="M558 322q0 -14 -1 -27t-3 -26l-37 -269h-130l37 265q1 5 1.5 13t0.5 19q0 27 -7.5 45t-20.5 29.5t-29.5 16t-34.5 4.5q-42 0 -80 -29q-37 -28 -48 -99l-37 -264h-130l105 747h131l-41 -289q25 25 62.5 39t80.5 14q39 0 72.5 -11.5t57.5 -35t37.5 -59t13.5 -83.5z" />
    <glyph glyph-name="i" unicode="i" horiz-adv-x="264" 
d="M120 656q0 36 26.5 61.5t63.5 25.5q29 0 48.5 -19.5t19.5 -49.5q0 -36 -26.5 -62t-62.5 -26q-30 0 -49.5 20t-19.5 50zM240 496l-69 -496h-131l69 496h131z" />
    <glyph glyph-name="j" unicode="j" horiz-adv-x="294" 
d="M150 656q0 36 26.5 61.5t63.5 25.5q29 0 48.5 -19.5t19.5 -49.5q0 -36 -26.5 -62t-62.5 -26q-30 0 -49.5 20t-19.5 50zM-60 -118q28 -11 50 -11q63 0 74 80l76 545h131l-82 -576q-11 -85 -63 -126t-125 -41q-51 0 -100 18z" />
    <glyph glyph-name="k" unicode="k" horiz-adv-x="551" 
d="M39 0l105 747h131l-63 -444l211 193h163l-247 -227l164 -269h-158l-105 179l-51 -48l-19 -131h-131z" />
    <glyph glyph-name="l" unicode="l" horiz-adv-x="250" 
d="M144 747h131l-105 -747h-131z" />
    <glyph glyph-name="m" unicode="m" horiz-adv-x="890" 
d="M855 346q0 -21 -3 -44l-42 -302h-127l40 283q1 10 1.5 17t0.5 11q0 45 -22 65.5t-61 20.5q-42 0 -72.5 -26.5t-38.5 -83.5l-40 -287h-129l40 280q1 5 1.5 12.5t0.5 17.5q0 43 -21.5 65t-60.5 22q-45 0 -74.5 -27t-36.5 -78l-41 -292h-131l70 496h121l-2 -49q45 64 140 64
q121 0 152 -97q21 45 64.5 71t103.5 26q78 0 122.5 -42t44.5 -123z" />
    <glyph glyph-name="n" unicode="n" horiz-adv-x="597" 
d="M560 326q0 -21 -3 -45l-40 -281h-130l38 269q1 10 1.5 17t0.5 11q0 51 -26.5 73t-68.5 22q-51 0 -83 -30t-41 -94l-39 -268h-130l70 496h122l-2 -51q20 29 57.5 47.5t85.5 18.5q85 0 136.5 -48.5t51.5 -136.5z" />
    <glyph glyph-name="o" unicode="o" horiz-adv-x="589" 
d="M320 510q52 0 96.5 -17t77.5 -48.5t52 -77t19 -101.5q1 -55 -20 -106t-58 -89.5t-88 -61t-111 -21.5q-52 0 -97.5 17t-78.5 48.5t-52 76.5t-19 102q-1 56 20.5 106.5t59 89t88.5 61t111 21.5zM292 105q30 0 56 12.5t44.5 34t29.5 51.5t11 64q0 60 -32 93t-86 33
q-31 0 -56.5 -12.5t-44.5 -34.5t-29.5 -51.5t-10.5 -63.5q0 -58 31.5 -92t86.5 -34z" />
    <glyph glyph-name="p" unicode="p" horiz-adv-x="635" 
d="M610 270q0 -64 -21 -116.5t-56.5 -89.5t-83.5 -57t-102 -20q-58 0 -102.5 22t-65.5 56l-42 -297h-131l103 728h121l-2 -55q22 33 62.5 51.5t91.5 18.5q47 0 88 -15.5t72.5 -46.5t49.5 -75.5t18 -103.5zM353 393q-32 0 -58.5 -12.5t-46 -34.5t-30 -51t-10.5 -62
q0 -60 35 -94t89 -34q30 0 57 12t46.5 33t31 49.5t11.5 62.5q0 60 -35 95.5t-90 35.5z" />
    <glyph glyph-name="q" unicode="q" horiz-adv-x="622" 
d="M612 496l-103 -728h-130l39 275q-24 -27 -63 -41.5t-87 -14.5q-46 0 -87.5 16.5t-72.5 48t-49 76t-18 101.5q-1 57 18.5 108.5t54.5 90.5t83.5 61.5t106.5 21.5q66 0 110.5 -23t60.5 -56l16 64h121zM444 264q0 60 -35.5 94.5t-90.5 34.5q-32 0 -58.5 -12.5t-46 -34.5
t-30 -50.5t-10.5 -61.5q0 -60 35.5 -94.5t87.5 -34.5q31 0 58 12t47 33.5t31.5 50.5t11.5 63z" />
    <glyph glyph-name="r" unicode="r" horiz-adv-x="392" 
d="M357 504q29 0 61 -8l-16 -120q-22 5 -45 5q-63 0 -104.5 -40t-50.5 -106l-33 -235h-130l70 496h121l-1 -59q17 35 51.5 51t76.5 16z" />
    <glyph glyph-name="s" unicode="s" horiz-adv-x="468" 
d="M220 92q33 0 54.5 13t23.5 38q1 34 -45 46l-61 21q-63 21 -93.5 53t-30.5 81q0 34 13 64t38.5 53t62.5 36.5t85 13.5q78 0 127.5 -35t56.5 -96l-121 -27q1 25 -18 38.5t-48 13.5q-30 0 -49 -14t-20 -36q-1 -18 11.5 -29.5t39.5 -20.5l62 -20q61 -20 91 -52t30 -83
q0 -78 -56.5 -120.5t-152.5 -42.5q-90 0 -141 38.5t-55 102.5l122 20q-2 -26 18 -41t56 -15z" />
    <glyph glyph-name="t" unicode="t" horiz-adv-x="365" 
d="M367 384h-95l-54 -384h-129l54 384h-95l16 112h94l22 154h129l-21 -154h94z" />
    <glyph glyph-name="u" unicode="u" horiz-adv-x="597" 
d="M586 496l-69 -496h-121l1 47q-26 -29 -66.5 -44.5t-85.5 -15.5q-75 0 -128 39q-52 39 -52 132q0 13 1 25.5t3 24.5l41 288h131l-38 -276q-1 -10 -1.5 -16.5t-0.5 -10.5q0 -26 7.5 -43t20.5 -27.5t29 -15t34 -4.5q21 0 41.5 6.5t37.5 21t29.5 37t16.5 53.5l39 275h130z
" />
    <glyph glyph-name="v" unicode="v" horiz-adv-x="565" 
d="M601 496l-284 -496h-129l-135 496h142l76 -341l180 341h150z" />
    <glyph glyph-name="w" unicode="w" horiz-adv-x="811" 
d="M845 496l-243 -496h-122l-57 302l-145 -302h-127l-97 496h136l47 -307l140 307h134l50 -311l138 311h146z" />
    <glyph glyph-name="x" unicode="x" horiz-adv-x="540" 
d="M-10 0l213 242l-150 254h150q29 -46 87 -156l127 156h158l-220 -252l147 -244h-150q-17 27 -32.5 55.5t-31.5 59.5l-19 35l-123 -150h-156z" />
    <glyph glyph-name="y" unicode="y" horiz-adv-x="580" 
d="M616 496l-328 -617q-34 -66 -82.5 -95t-103.5 -29q-61 0 -114 29l49 113q31 -19 61 -19q24 0 44 12.5t33 36.5l24 48l-146 521h138l90 -361l186 361h149z" />
    <glyph glyph-name="z" unicode="z" horiz-adv-x="487" 
d="M33 117l271 263h-234l16 116h404l-17 -117l-276 -263h239l-16 -116h-403z" />
    <glyph glyph-name="braceleft" unicode="{" horiz-adv-x="324" 
d="M360 844h54l-13 -94q-32 0 -49 -10.5t-21 -40.5l-27 -190q-10 -87 -74 -139q39 -39 39 -102q0 -16 -3 -34l-24 -167q-1 -8 -1.5 -13.5t-0.5 -8.5q0 -30 14 -40t41 -10l-13 -93h-62q-46 0 -70.5 28t-24.5 76q0 4 0.5 10.5t1.5 15.5l26 178q3 20 3 34q0 29 -8 45
t-18.5 23.5t-21 9t-15.5 0.5v1l13 94q76 0 93 116l25 182q9 60 42.5 95t93.5 34z" />
    <glyph glyph-name="bar" unicode="|" horiz-adv-x="252" 
d="M258 788l-124 -878h-112l124 878h112z" />
    <glyph glyph-name="braceright" unicode="}" horiz-adv-x="293" 
d="M250 496q0 -79 62 -79l-13 -95q-6 1 -19.5 -1.5t-27.5 -13.5t-27 -34t-18 -63l-25 -180q-8 -58 -42.5 -93t-85.5 -35h-63l13 93q32 0 49.5 13.5t23.5 55.5l23 170q12 87 74 137q-38 41 -38 104q0 16 3 34l27 189q1 3 1 12q0 24 -14.5 32t-42.5 8l13 94h56q49 0 75 -27
t26 -75q0 -4 -0.5 -11t-1.5 -17l-25 -181q-3 -21 -3 -37z" />
    <glyph glyph-name="asciitilde" unicode="~" horiz-adv-x="470" 
d="M438 309q-4 -54 -31 -87.5t-78 -33.5q-31 0 -56 11.5t-56 32.5q-24 15 -39 22.5t-30 7.5q-18 0 -31.5 -11.5t-14.5 -30.5h-65q4 54 31.5 85.5t73.5 31.5q28 0 52 -10.5t56 -30.5q24 -16 41.5 -24t34.5 -8q18 0 31 11t16 34h65z" />
    <glyph glyph-name="exclamdown" unicode="&#xa1;" horiz-adv-x="272" 
d="M282 682q0 -38 -26.5 -62t-63.5 -24q-31 0 -50 18t-19 48q0 37 26.5 61t63.5 24q30 0 49.5 -18t19.5 -47zM243 498q0 -87 -18 -218l-40 -280h-155l39 280q6 40 12 75t13 68t15.5 65.5t18.5 66.5h114q1 -10 1 -24v-33z" />
    <glyph glyph-name="cent" unicode="&#xa2;" horiz-adv-x="617" 
d="M309 625l16 107h110l-14 -105q63 -10 105.5 -51t54.5 -102l-114 -40q-8 34 -35 58t-75 24q-35 0 -62.5 -14.5t-46.5 -39.5t-29 -56.5t-10 -66.5q0 -54 29 -89t83 -35q42 0 72 20.5t48 51.5l108 -46q-27 -54 -81.5 -90.5t-120.5 -44.5l-15 -107h-111l16 114
q-75 20 -115.5 80t-40.5 141q0 52 15.5 100t45 87t72 66.5t95.5 37.5z" />
    <glyph glyph-name="sterling" unicode="&#xa3;" horiz-adv-x="731" 
d="M533 231h126q-10 -105 -74 -168t-174 -63h-374l15 111l3 18q24 2 47.5 15t41.5 34t29.5 49t11.5 59q0 17 -3 35h-97l15 109h58q-2 14 -3 25t-1 19q0 57 21 107t58.5 87t89 58t111.5 21q94 0 156 -46t77 -122l-129 -40q-10 40 -39.5 62t-74.5 22q-63 0 -102.5 -39.5
t-39.5 -102.5q0 -16 6 -51h253l-14 -109h-219q1 -3 1 -13t-1 -13q-2 -51 -19.5 -96.5t-56.5 -69.5l189 -1q105 0 112 103z" />
    <glyph glyph-name="currency" unicode="&#xa4;" horiz-adv-x="742" 
d="M142 228q-11 21 -17 49.5t-6 57.5q0 87 62 170l-68 78l96 86l68 -78q71 41 149 41q76 0 135 -41l90 78l72 -86l-90 -77q11 -23 17.5 -52.5t6.5 -57.5q0 -86 -62 -169l68 -77l-98 -86l-68 78q-70 -42 -146 -42q-77 0 -137 42l-90 -78l-72 86zM367 220q33 0 63.5 13
t54 35.5t37.5 51.5t14 62q0 56 -37 93q-36 38 -90 38q-33 0 -64 -13.5t-54 -36t-37 -52t-14 -62.5q0 -54 36 -92q36 -37 91 -37z" />
    <glyph glyph-name="yen" unicode="&#xa5;" horiz-adv-x="777" 
d="M291 732l118 -308l210 308h158l-254 -347h97l-15 -104h-149l-6 -49h149l-15 -104h-149l-18 -128h-129l18 128h-149l14 104h150l6 49h-149l14 104h99l-155 347h155z" />
    <glyph glyph-name="brokenbar" unicode="&#xa6;" horiz-adv-x="261" 
d="M263 791l-48 -335h-111l48 335h111zM190 275l-49 -345h-111l48 345h112z" />
    <glyph glyph-name="section" unicode="&#xa7;" horiz-adv-x="502" 
d="M389 263q59 -38 59 -108q0 -33 -13.5 -62t-37.5 -50t-56.5 -33t-70.5 -12q-68 0 -120 34q-51 34 -65 94l103 23q14 -55 84 -55q33 0 52 15t19 39q0 35 -46 47l-62 15q-57 12 -102 48q-44 36 -44 108q0 75 60 115q-59 38 -59 108q0 33 13.5 62t37.5 50t56.5 33t70.5 12
q67 0 120 -35q52 -34 65 -92l-102 -24q-7 27 -29.5 41.5t-56.5 14.5q-33 0 -51.5 -15t-18.5 -40q0 -34 46 -46l62 -16q58 -12 101 -48q45 -36 45 -108q0 -74 -60 -115zM357 373q0 27 -22.5 42.5t-65.5 15.5q-45 0 -67 -16.5t-22 -42.5q0 -28 22.5 -43.5t67.5 -15.5t66 16.5
t21 43.5z" />
    <glyph glyph-name="dieresis" unicode="&#xa8;" horiz-adv-x="403" 
d="M139 842q0 34 26 59t61 25q28 0 47 -19.5t19 -47.5q0 -16 -7.5 -31.5t-19.5 -27t-27.5 -18.5t-32.5 -7q-29 0 -47.5 19.5t-18.5 47.5zM350 842q0 17 7.5 32t19.5 26.5t27.5 18.5t32.5 7q28 0 47.5 -19.5t19.5 -47.5q0 -33 -27 -59q-26 -25 -61 -25q-28 0 -47 19.5
t-19 47.5z" />
    <glyph glyph-name="copyright" unicode="&#xa9;" horiz-adv-x="828" 
d="M59 358q-1 75 28.5 143t80.5 119t119 80.5t143 27.5q75 2 143 -27.5t119 -80.5t80.5 -119t27.5 -143q2 -75 -27.5 -143t-80.5 -119t-119 -81t-143 -28q-75 -2 -143 28t-119 81t-80.5 119t-28.5 143zM707 358q1 57 -21 107.5t-60 88.5t-88.5 60t-107.5 21q-56 1 -107 -21
t-89 -60t-60 -88.5t-21 -107.5q-1 -56 21 -107t60 -89.5t88.5 -60.5t107.5 -21q57 -1 107.5 21t88.5 60.5t60 89.5t21 107zM517 406q-9 27 -31 44t-56 17q-45 0 -71.5 -32t-26.5 -80t26 -78.5t71 -30.5q63 0 85 55l73 -28q-17 -45 -60 -71.5t-98 -26.5q-36 0 -68 14
t-56.5 38t-38.5 57t-14 71t14 71.5t38.5 58.5t57 39.5t68.5 14.5q57 0 100 -29.5t59 -78.5z" />
    <glyph glyph-name="guillemotleft" unicode="&#xab;" horiz-adv-x="692" 
d="M242 248l182 -248h-167l-183 248l252 248h167zM433 248l182 -248h-167l-182 248l251 248h167z" />
    <glyph glyph-name="logicalnot" unicode="&#xac;" horiz-adv-x="610" 
d="M428 81v166h-385v139h524v-305h-139z" />
    <glyph glyph-name="registered" unicode="&#xae;" horiz-adv-x="453" 
d="M290 745q39 0 72 -13.5t57 -37t37.5 -56t13.5 -70.5q0 -45 -16.5 -85t-46 -70t-70 -47.5t-88.5 -17.5q-40 0 -73.5 13.5t-57.5 37.5t-37.5 56.5t-13.5 71.5q-1 43 17 83t49 70t71.5 48t85.5 17zM250 392q36 0 68 14t56 37.5t38 55t14 67.5q0 30 -10.5 55.5t-29 43.5
t-44 28.5t-55.5 10.5q-35 0 -66.5 -14t-55.5 -37.5t-38.5 -55t-14.5 -67.5q0 -63 36 -100.5t102 -37.5zM222 636h67q58 0 58 -48q0 -20 -11.5 -34.5t-29.5 -21.5l22 -74h-43l-21 68h-19l-10 -68h-38zM277 561q25 0 25 22q0 17 -20 17h-27l-6 -39h28z" />
    <glyph glyph-name="macron" unicode="&#xaf;" horiz-adv-x="358" 
d="M458 869l-12 -83h-313l11 83h314z" />
    <glyph glyph-name="degree" unicode="&#xb0;" horiz-adv-x="293" 
d="M78 596q0 27 10.5 50t28 40.5t41 27.5t49.5 10q45 0 77 -30.5t32 -78.5q0 -52 -38 -90q-37 -36 -91 -36q-48 0 -78.5 29.5t-30.5 77.5zM245 611q0 20 -12 32t-31 12q-21 0 -37.5 -16t-16.5 -37q0 -19 13 -31.5t32 -12.5q21 0 36.5 15t15.5 38z" />
    <glyph glyph-name="plusminus" unicode="&#xb1;" horiz-adv-x="545" 
d="M502 382l-14 -104h-158l-15 -99h-104l15 99h-159l14 104h159l14 98h104l-14 -98h158zM42 104h421l-15 -104h-421z" />
    <glyph glyph-name="uni00B2" unicode="&#xb2;" horiz-adv-x="422" 
d="M48 390l208 169q21 18 29 33.5t8 33.5q0 37 -22 58t-60 21q-35 0 -58 -19t-25 -57h-88q4 76 50.5 119.5t119.5 43.5q39 0 70.5 -13t54 -35t35 -52t12.5 -65q0 -79 -73 -137l-130 -102l191 1v-88l-322 -1v90z" />
    <glyph glyph-name="uni00B3" unicode="&#xb3;" horiz-adv-x="421" 
d="M381 456q0 -36 -13.5 -66.5t-36.5 -53t-54.5 -35t-66.5 -12.5q-36 0 -67.5 13t-54 35.5t-35.5 52t-13 63.5h88q1 -33 22.5 -55t59.5 -22q35 0 58.5 22.5t23.5 57.5q0 37 -22.5 60.5t-59.5 25.5q-20 0 -43 -9l-32 69l1 1l94 88h-171v88h311v-76l-99 -93q51 -17 80.5 -58
t29.5 -96z" />
    <glyph glyph-name="acute" unicode="&#xb4;" horiz-adv-x="280" 
d="M40 770l69 145h121l-93 -145h-97z" />
    <glyph glyph-name="uni00B5" unicode="&#xb5;" horiz-adv-x="714" 
d="M663 117v-117l-117 1q-70 0 -95 58q-43 -67 -134 -72h-5h-6q-79 5 -120 53v-289h-129v742h129v-225q0 -86 36.5 -126t88.5 -40t88.5 40t36.5 126h1v227h130l1 -338q0 -25 11.5 -32t35.5 -7z" />
    <glyph glyph-name="paragraph" unicode="&#xb6;" horiz-adv-x="634" 
d="M431 712v-801h-112v396h-49q-42 0 -76 14.5t-57.5 41.5t-36.5 64.5t-13 82.5q0 90 49 145q50 57 134 57h161zM539 710v-801h-46v801h46z" />
    <glyph glyph-name="periodcentered" unicode="&#xb7;" horiz-adv-x="347" 
d="M67 271q0 52 36 86q37 35 86 35q46 0 73.5 -29t27.5 -74q0 -50 -37 -84q-36 -33 -86 -33q-43 0 -71.5 27t-28.5 72z" />
    <glyph glyph-name="cedilla" unicode="&#xb8;" horiz-adv-x="600" 
d="M220 -137h90q13 0 21.5 7t8.5 19q0 20 -23 20h-90l8 59l56 63h55l-4 -32l-31 -32h34q31 0 48.5 -19.5t17.5 -49.5q0 -42 -24.5 -67.5t-63.5 -25.5h-111z" />
    <glyph glyph-name="uni00B9" unicode="&#xb9;" horiz-adv-x="309" 
d="M227 783v-483h-89v393l-98 -41v88l98 43h89z" />
    <glyph glyph-name="guillemotright" unicode="&#xbb;" horiz-adv-x="692" 
d="M450 248l-252 -248h-167l252 248l-183 248h168zM641 248l-252 -248h-167l252 248l-183 248h168z" />
    <glyph glyph-name="onequarter" unicode="&#xbc;" horiz-adv-x="809" 
d="M36 677l77 33v-81l-77 -29v77zM191 710v-367h-78v367h78zM61 0l541 710h113l-541 -710h-113zM759 59h-47v-67h-78v68h-173v78l173 230h78v-230l47 -1v-78zM634 138v104l-77 -104h77z" />
    <glyph glyph-name="onehalf" unicode="&#xbd;" horiz-adv-x="853" 
d="M36 677l77 33v-81l-77 -29v77zM191 710v-367h-78v367h78zM61 0l541 710h113l-541 -710h-113zM541 76l130 110q25 22 33.5 33t8.5 28q0 22 -14 35.5t-38 13.5t-38 -13.5t-14 -37.5l1 -10h-77q-2 29 7 54t26.5 43t43.5 28.5t57 10.5q57 0 91 -34t35 -88q0 -36 -17.5 -62.5
t-48.5 -52.5l-72 -59l133 1v-76l-247 -1v77z" />
    <glyph glyph-name="threequarters" unicode="&#xbe;" horiz-adv-x="864" 
d="M309 465q0 -53 -38 -91q-37 -37 -92 -37q-28 0 -52.5 10.5t-42 29t-26.5 43.5t-7 54h76q-1 -3 -1 -11q0 -22 15 -36t38 -14t38 15t15 37q0 28 -18 44q-14 11 -35 11q-17 0 -33 -8l-29 60l2 2l57 59h-111v77h230v-66l-61 -61q31 -15 48 -38q27 -34 27 -80zM117 0l541 710
h113l-541 -710h-113zM815 59h-47v-67h-78v68h-173v78l173 230h78v-230l47 -1v-78zM690 138v104l-77 -104h77z" />
    <glyph glyph-name="questiondown" unicode="&#xbf;" horiz-adv-x="560" 
d="M334 663q0 34 27 59t65 25q33 0 52.5 -19.5t19.5 -48.5q0 -34 -27 -59.5t-65 -25.5q-32 0 -52 20t-20 49zM584 235q-7 -53 -29 -98.5t-56.5 -78.5t-82 -52t-106.5 -19q-49 0 -91 15t-72 43t-47 67t-17 87q0 54 21 94q22 40 52 66.5t78 60.5q49 34 73.5 58t29.5 55l3 23
h131l-3 -23q-6 -43 -27 -78q-10 -16 -21.5 -29.5t-25.5 -25.5t-31 -25t-39 -28q-54 -37 -80 -65t-26 -69q0 -42 26.5 -68.5t77.5 -26.5q57 0 90.5 33t39.5 84h132z" />
    <glyph glyph-name="Agrave" unicode="&#xc0;" horiz-adv-x="665" 
d="M622 0h-143l-34 166h-251l-81 -166h-138l357 733h129zM423 284l-51 249l-122 -249h173zM254 931h121l73 -145h-97z" />
    <glyph glyph-name="Aacute" unicode="&#xc1;" horiz-adv-x="665" 
d="M622 0h-143l-34 166h-251l-81 -166h-138l357 733h129zM423 284l-51 249l-122 -249h173zM351 786l69 145h121l-93 -145h-97z" />
    <glyph glyph-name="Acircumflex" unicode="&#xc2;" horiz-adv-x="665" 
d="M622 0h-143l-34 166h-251l-81 -166h-138l357 733h129zM423 284l-51 249l-122 -249h173zM464 786l-45 96l-73 -96h-99l116 161h105h26l69 -161h-99z" />
    <glyph glyph-name="Atilde" unicode="&#xc3;" horiz-adv-x="665" 
d="M622 0h-143l-34 166h-251l-81 -166h-138l357 733h129zM423 284l-51 249l-122 -249h173zM349 952q22 0 39.5 -7t40.5 -21q17 -11 30 -16.5t26 -5.5q19 0 28.5 12t9.5 33h82q2 -67 -35 -104q-34 -36 -84 -36q-24 0 -42.5 7.5t-43.5 21.5q-16 10 -27.5 15t-22.5 5
q-34 0 -37 -49h-82q-1 35 9 61.5t26.5 45.5t38.5 28.5t44 9.5z" />
    <glyph glyph-name="Adieresis" unicode="&#xc4;" horiz-adv-x="665" 
d="M622 0h-143l-34 166h-251l-81 -166h-138l357 733h129zM423 284l-51 249l-122 -249h173zM235 858q0 34 26 59t61 25q28 0 47 -19.5t19 -47.5q0 -16 -7.5 -31.5t-19.5 -27t-27.5 -18.5t-32.5 -7q-29 0 -47.5 19.5t-18.5 47.5zM446 858q0 17 7.5 32t19.5 26.5t27.5 18.5
t32.5 7q28 0 47.5 -19.5t19.5 -47.5q0 -33 -27 -59q-26 -25 -61 -25q-28 0 -47 19.5t-19 47.5z" />
    <glyph glyph-name="Aring" unicode="&#xc5;" horiz-adv-x="665" 
d="M622 0h-143l-34 166h-251l-81 -166h-138l357 733h129zM423 284l-51 249l-122 -249h173zM292 886q0 30 12.5 56.5t33 46.5t47.5 32t55 12q24 0 45 -9t36 -25t23.5 -37t8.5 -45q0 -29 -12.5 -55t-33 -46t-47.5 -32t-56 -12q-49 0 -80.5 32.5t-31.5 81.5zM479 910
q0 21 -13.5 35t-35.5 14q-27 0 -45.5 -18t-18.5 -45q0 -22 13 -36t35 -14q27 0 46 18.5t19 45.5z" />
    <glyph glyph-name="AE" unicode="&#xc6;" horiz-adv-x="957" 
d="M612 603l-24 -170l296 -1l-18 -125l-296 1l-25 -178l332 -1l-21 -129l-329 1v-1h-129l25 176h-202l-92 -176h-154l394 732h141h120h331l-20 -130zM483 603h-40l-161 -310h157z" />
    <glyph glyph-name="Ccedilla" unicode="&#xc7;" horiz-adv-x="755" 
d="M593 254l127 -54q-17 -43 -49.5 -81.5t-75.5 -67t-95.5 -45.5t-110.5 -18l-24 -25h34q31 0 48.5 -19.5t17.5 -49.5q0 -42 -24.5 -67.5t-63.5 -25.5h-111l8 58h90q13 0 21.5 7t8.5 19q0 20 -23 20h-90l8 59l27 30q-54 10 -102 35.5t-84 68t-57 102t-21 136.5
q-1 83 26.5 158.5t78.5 132t122 89.5t156 31q61 0 114 -16.5t94 -45.5t69 -68t39 -83l-124 -57q-20 69 -72.5 103.5t-118.5 34.5q-51 1 -95 -20.5t-76 -60t-50 -89.5t-17 -108q0 -100 53 -157.5t141 -57.5q64 0 116 32.5t85 99.5z" />
    <glyph glyph-name="Egrave" unicode="&#xc8;" horiz-adv-x="595" 
d="M267 604l-24 -173h287l-19 -122l-286 1l-25 -181l321 -1l-18 -128h-458l103 733h458l-19 -129h-320zM234 931h121l73 -145h-97z" />
    <glyph glyph-name="Eacute" unicode="&#xc9;" horiz-adv-x="595" 
d="M267 604l-24 -173h287l-19 -122l-286 1l-25 -181l321 -1l-18 -128h-458l103 733h458l-19 -129h-320zM331 786l69 145h121l-93 -145h-97z" />
    <glyph glyph-name="Ecircumflex" unicode="&#xca;" horiz-adv-x="595" 
d="M267 604l-24 -173h287l-19 -122l-286 1l-25 -181l321 -1l-18 -128h-458l103 733h458l-19 -129h-320zM444 786l-45 96l-73 -96h-99l116 161h105h26l69 -161h-99z" />
    <glyph glyph-name="Edieresis" unicode="&#xcb;" horiz-adv-x="595" 
d="M267 604l-24 -173h287l-19 -122l-286 1l-25 -181l321 -1l-18 -128h-458l103 733h458l-19 -129h-320zM214 858q0 34 26 59t61 25q28 0 47 -19.5t19 -47.5q0 -16 -7.5 -31.5t-19.5 -27t-27.5 -18.5t-32.5 -7q-29 0 -47.5 19.5t-18.5 47.5zM425 858q0 17 7.5 32t19.5 26.5
t27.5 18.5t32.5 7q28 0 47.5 -19.5t19.5 -47.5q0 -33 -27 -59q-26 -25 -61 -25q-28 0 -47 19.5t-19 47.5z" />
    <glyph glyph-name="Igrave" unicode="&#xcc;" horiz-adv-x="280" 
d="M45 0l103 733h137l-103 -733h-137zM73 931h121l73 -145h-97z" />
    <glyph glyph-name="Iacute" unicode="&#xcd;" horiz-adv-x="280" 
d="M45 0l103 733h137l-103 -733h-137zM170 786l69 145h121l-93 -145h-97z" />
    <glyph glyph-name="Icircumflex" unicode="&#xce;" horiz-adv-x="280" 
d="M45 0l103 733h137l-103 -733h-137zM283 786l-45 96l-73 -96h-99l116 161h105h26l69 -161h-99z" />
    <glyph glyph-name="Idieresis" unicode="&#xcf;" horiz-adv-x="280" 
d="M45 0l103 733h137l-103 -733h-137zM53 858q0 34 26 59t61 25q28 0 47 -19.5t19 -47.5q0 -16 -7.5 -31.5t-19.5 -27t-27.5 -18.5t-32.5 -7q-29 0 -47.5 19.5t-18.5 47.5zM264 858q0 17 7.5 32t19.5 26.5t27.5 18.5t32.5 7q28 0 47.5 -19.5t19.5 -47.5q0 -33 -27 -59
q-26 -25 -61 -25q-28 0 -47 19.5t-19 47.5z" />
    <glyph glyph-name="Eth" unicode="&#xd0;" horiz-adv-x="747" 
d="M726 401q2 -85 -27.5 -159t-82 -128t-124 -85t-153.5 -29h-206h-91l44 311h-75l16 112h74l44 310h137h117q71 1 131.5 -23t104 -68t68 -105.5t23.5 -135.5zM580 401q0 47 -13.5 84.5t-39 64.5t-61.5 41.5t-81 14.5h-121l-26 -183h85l-15 -112h-85l-26 -185h114
q60 0 109.5 20.5t85 57.5t55 87t19.5 110z" />
    <glyph glyph-name="Ntilde" unicode="&#xd1;" horiz-adv-x="758" 
d="M148 733h136l262 -513l73 513h135l-103 -733h-135l-263 513l-72 -513h-136zM406 952q22 0 39.5 -7t40.5 -21q17 -11 30 -16.5t26 -5.5q19 0 28.5 12t9.5 33h82q2 -67 -35 -104q-34 -36 -84 -36q-24 0 -42.5 7.5t-43.5 21.5q-16 10 -27.5 15t-22.5 5q-34 0 -37 -49h-82
q-1 35 9 61.5t26.5 45.5t38.5 28.5t44 9.5z" />
    <glyph glyph-name="Ograve" unicode="&#xd2;" horiz-adv-x="785" 
d="M442 747q73 0 133 -24t103 -68t66.5 -105t23.5 -136q2 -95 -30.5 -174t-87 -135.5t-126 -87.5t-148.5 -30q-73 0 -133 24t-103 68t-66.5 105t-23.5 136q-1 95 30.5 174t86 135.5t126 87.5t149.5 30zM382 121q47 0 90.5 21t76.5 59t53 91t20 118q0 46 -13 83.5t-37 64.5
t-58.5 41.5t-78.5 14.5q-46 1 -89.5 -19.5t-77 -59t-53.5 -91.5t-19 -117q0 -46 13 -84t37 -65t58.5 -42t77.5 -15zM316 931h121l73 -145h-97z" />
    <glyph glyph-name="Oacute" unicode="&#xd3;" horiz-adv-x="785" 
d="M442 747q73 0 133 -24t103 -68t66.5 -105t23.5 -136q2 -95 -30.5 -174t-87 -135.5t-126 -87.5t-148.5 -30q-73 0 -133 24t-103 68t-66.5 105t-23.5 136q-1 95 30.5 174t86 135.5t126 87.5t149.5 30zM382 121q47 0 90.5 21t76.5 59t53 91t20 118q0 46 -13 83.5t-37 64.5
t-58.5 41.5t-78.5 14.5q-46 1 -89.5 -19.5t-77 -59t-53.5 -91.5t-19 -117q0 -46 13 -84t37 -65t58.5 -42t77.5 -15zM413 786l69 145h121l-93 -145h-97z" />
    <glyph glyph-name="Ocircumflex" unicode="&#xd4;" horiz-adv-x="785" 
d="M442 747q73 0 133 -24t103 -68t66.5 -105t23.5 -136q2 -95 -30.5 -174t-87 -135.5t-126 -87.5t-148.5 -30q-73 0 -133 24t-103 68t-66.5 105t-23.5 136q-1 95 30.5 174t86 135.5t126 87.5t149.5 30zM382 121q47 0 90.5 21t76.5 59t53 91t20 118q0 46 -13 83.5t-37 64.5
t-58.5 41.5t-78.5 14.5q-46 1 -89.5 -19.5t-77 -59t-53.5 -91.5t-19 -117q0 -46 13 -84t37 -65t58.5 -42t77.5 -15zM526 786l-45 96l-73 -96h-99l116 161h105h26l69 -161h-99z" />
    <glyph glyph-name="Otilde" unicode="&#xd5;" horiz-adv-x="785" 
d="M442 747q73 0 133 -24t103 -68t66.5 -105t23.5 -136q2 -95 -30.5 -174t-87 -135.5t-126 -87.5t-148.5 -30q-73 0 -133 24t-103 68t-66.5 105t-23.5 136q-1 95 30.5 174t86 135.5t126 87.5t149.5 30zM382 121q47 0 90.5 21t76.5 59t53 91t20 118q0 46 -13 83.5t-37 64.5
t-58.5 41.5t-78.5 14.5q-46 1 -89.5 -19.5t-77 -59t-53.5 -91.5t-19 -117q0 -46 13 -84t37 -65t58.5 -42t77.5 -15zM411 952q22 0 39.5 -7t40.5 -21q17 -11 30 -16.5t26 -5.5q19 0 28.5 12t9.5 33h82q2 -67 -35 -104q-34 -36 -84 -36q-24 0 -42.5 7.5t-43.5 21.5
q-16 10 -27.5 15t-22.5 5q-34 0 -37 -49h-82q-1 35 9 61.5t26.5 45.5t38.5 28.5t44 9.5z" />
    <glyph glyph-name="Odieresis" unicode="&#xd6;" horiz-adv-x="785" 
d="M442 747q73 0 133 -24t103 -68t66.5 -105t23.5 -136q2 -95 -30.5 -174t-87 -135.5t-126 -87.5t-148.5 -30q-73 0 -133 24t-103 68t-66.5 105t-23.5 136q-1 95 30.5 174t86 135.5t126 87.5t149.5 30zM382 121q47 0 90.5 21t76.5 59t53 91t20 118q0 46 -13 83.5t-37 64.5
t-58.5 41.5t-78.5 14.5q-46 1 -89.5 -19.5t-77 -59t-53.5 -91.5t-19 -117q0 -46 13 -84t37 -65t58.5 -42t77.5 -15zM297 858q0 34 26 59t61 25q28 0 47 -19.5t19 -47.5q0 -16 -7.5 -31.5t-19.5 -27t-27.5 -18.5t-32.5 -7q-29 0 -47.5 19.5t-18.5 47.5zM508 858q0 17 7.5 32
t19.5 26.5t27.5 18.5t32.5 7q28 0 47.5 -19.5t19.5 -47.5q0 -33 -27 -59q-26 -25 -61 -25q-28 0 -47 19.5t-19 47.5z" />
    <glyph glyph-name="multiply" unicode="&#xd7;" horiz-adv-x="615" 
d="M393 320l128 -148l-96 -83l-126 146l-168 -149l-72 83l167 149l-128 148l96 83l127 -146l167 149l72 -84z" />
    <glyph glyph-name="Oslash" unicode="&#xd8;" horiz-adv-x="793" 
d="M760 415q2 -95 -30 -174.5t-86.5 -136.5t-126 -88t-148.5 -29q-70 0 -131 23l-17 -28h-129l53 85q-49 45 -76 110t-27 144q-1 95 31 174t86.5 135.5t126 87.5t148.5 30q65 0 123 -20l16 25h129l-50 -79q52 -45 80 -111t28 -148zM482 607q-22 7 -55 7q-47 0 -90 -20.5
t-76 -58t-53 -90.5t-20 -118q0 -79 37 -132zM614 411q0 83 -41 136l-259 -416q27 -9 60 -9q47 0 90.5 21t76.5 59t53 91t20 118z" />
    <glyph glyph-name="Ugrave" unicode="&#xd9;" horiz-adv-x="729" 
d="M143 733h137l-62 -439q-3 -19 -3 -37q0 -72 40.5 -105.5t103.5 -33.5q75 0 122.5 43t59.5 130l62 442h137l-66 -470q-20 -135 -105 -205t-213 -70q-59 0 -110 16.5t-88.5 49t-59 80t-21.5 110.5q0 16 1 30.5t3 28.5zM298 931h121l73 -145h-97z" />
    <glyph glyph-name="Uacute" unicode="&#xda;" horiz-adv-x="729" 
d="M143 733h137l-62 -439q-3 -19 -3 -37q0 -72 40.5 -105.5t103.5 -33.5q75 0 122.5 43t59.5 130l62 442h137l-66 -470q-20 -135 -105 -205t-213 -70q-59 0 -110 16.5t-88.5 49t-59 80t-21.5 110.5q0 16 1 30.5t3 28.5zM395 786l69 145h121l-93 -145h-97z" />
    <glyph glyph-name="Ucircumflex" unicode="&#xdb;" horiz-adv-x="729" 
d="M143 733h137l-62 -439q-3 -19 -3 -37q0 -72 40.5 -105.5t103.5 -33.5q75 0 122.5 43t59.5 130l62 442h137l-66 -470q-20 -135 -105 -205t-213 -70q-59 0 -110 16.5t-88.5 49t-59 80t-21.5 110.5q0 16 1 30.5t3 28.5zM508 786l-45 96l-73 -96h-99l116 161h105h26l69 -161
h-99z" />
    <glyph glyph-name="Udieresis" unicode="&#xdc;" horiz-adv-x="729" 
d="M143 733h137l-62 -439q-3 -19 -3 -37q0 -72 40.5 -105.5t103.5 -33.5q75 0 122.5 43t59.5 130l62 442h137l-66 -470q-20 -135 -105 -205t-213 -70q-59 0 -110 16.5t-88.5 49t-59 80t-21.5 110.5q0 16 1 30.5t3 28.5zM278 858q0 34 26 59t61 25q28 0 47 -19.5t19 -47.5
q0 -16 -7.5 -31.5t-19.5 -27t-27.5 -18.5t-32.5 -7q-29 0 -47.5 19.5t-18.5 47.5zM489 858q0 17 7.5 32t19.5 26.5t27.5 18.5t32.5 7q28 0 47.5 -19.5t19.5 -47.5q0 -33 -27 -59q-26 -25 -61 -25q-28 0 -47 19.5t-19 47.5z" />
    <glyph glyph-name="Yacute" unicode="&#xdd;" horiz-adv-x="654" 
d="M232 733l117 -309l217 309h149l-311 -442l-41 -291h-137l40 291l-188 442h154zM353 786l69 145h121l-93 -145h-97z" />
    <glyph glyph-name="Thorn" unicode="&#xde;" horiz-adv-x="618" 
d="M148 733h130l-20 -143l137 -1q53 0 93 -16.5t67 -44t40.5 -64t13.5 -76.5q0 -46 -17.5 -90t-51 -78.5t-81.5 -55.5t-109 -21h-154l-21 -143h-130zM349 268q27 0 48.5 10t36.5 26t23 36.5t8 41.5q0 36 -22.5 60t-65.5 24h-136l-29 -198h137z" />
    <glyph glyph-name="germandbls" unicode="&#xdf;" horiz-adv-x="595" 
d="M569 250q0 -57 -20.5 -103.5t-57 -79t-88.5 -50t-115 -17.5q-40 0 -70 9l18 124q29 -15 66 -15q63 0 102 34t39 94q0 55 -34.5 83.5t-95.5 25.5l15 104q28 0 48.5 8t34 21.5t20 30.5t6.5 35q0 36 -24.5 56.5t-62.5 20.5q-40 0 -68.5 -25t-36.5 -76l-75 -530h-131l72 517
q16 109 78.5 169.5t164.5 60.5q44 0 80.5 -11.5t63.5 -33.5t42 -55t15 -77q0 -93 -66 -152q80 -54 80 -168z" />
    <glyph glyph-name="agrave" unicode="&#xe0;" horiz-adv-x="618" 
d="M608 496l-69 -496h-122l4 59q-25 -34 -69 -52t-92 -18q-51 0 -91.5 17t-69 48t-44 73.5t-15.5 93.5q0 65 20 118.5t55.5 91.5t83 59t102.5 21q57 0 102.5 -21.5t69.5 -58.5l15 65h120zM439 262q0 60 -35.5 94.5t-87.5 34.5q-29 0 -55 -12.5t-45.5 -33.5t-31 -50
t-11.5 -62q0 -61 33.5 -95.5t85.5 -34.5q31 0 57.5 12.5t46.5 34.5t31.5 50.5t11.5 61.5zM202 701h121l73 -145h-97z" />
    <glyph glyph-name="aacute" unicode="&#xe1;" horiz-adv-x="618" 
d="M608 496l-69 -496h-122l4 59q-25 -34 -69 -52t-92 -18q-51 0 -91.5 17t-69 48t-44 73.5t-15.5 93.5q0 65 20 118.5t55.5 91.5t83 59t102.5 21q57 0 102.5 -21.5t69.5 -58.5l15 65h120zM439 262q0 60 -35.5 94.5t-87.5 34.5q-29 0 -55 -12.5t-45.5 -33.5t-31 -50
t-11.5 -62q0 -61 33.5 -95.5t85.5 -34.5q31 0 57.5 12.5t46.5 34.5t31.5 50.5t11.5 61.5zM299 556l69 145h121l-93 -145h-97z" />
    <glyph glyph-name="acircumflex" unicode="&#xe2;" horiz-adv-x="618" 
d="M608 496l-69 -496h-122l4 59q-25 -34 -69 -52t-92 -18q-51 0 -91.5 17t-69 48t-44 73.5t-15.5 93.5q0 65 20 118.5t55.5 91.5t83 59t102.5 21q57 0 102.5 -21.5t69.5 -58.5l15 65h120zM439 262q0 60 -35.5 94.5t-87.5 34.5q-29 0 -55 -12.5t-45.5 -33.5t-31 -50
t-11.5 -62q0 -61 33.5 -95.5t85.5 -34.5q31 0 57.5 12.5t46.5 34.5t31.5 50.5t11.5 61.5zM412 556l-45 96l-73 -96h-99l116 161h105h26l69 -161h-99z" />
    <glyph glyph-name="atilde" unicode="&#xe3;" horiz-adv-x="618" 
d="M608 496l-69 -496h-122l4 59q-25 -34 -69 -52t-92 -18q-51 0 -91.5 17t-69 48t-44 73.5t-15.5 93.5q0 65 20 118.5t55.5 91.5t83 59t102.5 21q57 0 102.5 -21.5t69.5 -58.5l15 65h120zM439 262q0 60 -35.5 94.5t-87.5 34.5q-29 0 -55 -12.5t-45.5 -33.5t-31 -50
t-11.5 -62q0 -61 33.5 -95.5t85.5 -34.5q31 0 57.5 12.5t46.5 34.5t31.5 50.5t11.5 61.5zM296 722q22 0 39.5 -7t40.5 -21q17 -11 30 -16.5t26 -5.5q19 0 28.5 12t9.5 33h82q2 -67 -35 -104q-34 -36 -84 -36q-24 0 -42.5 7.5t-43.5 21.5q-16 10 -27.5 15t-22.5 5
q-34 0 -37 -49h-82q-1 35 9 61.5t26.5 45.5t38.5 28.5t44 9.5z" />
    <glyph glyph-name="adieresis" unicode="&#xe4;" horiz-adv-x="618" 
d="M608 496l-69 -496h-122l4 59q-25 -34 -69 -52t-92 -18q-51 0 -91.5 17t-69 48t-44 73.5t-15.5 93.5q0 65 20 118.5t55.5 91.5t83 59t102.5 21q57 0 102.5 -21.5t69.5 -58.5l15 65h120zM439 262q0 60 -35.5 94.5t-87.5 34.5q-29 0 -55 -12.5t-45.5 -33.5t-31 -50
t-11.5 -62q0 -61 33.5 -95.5t85.5 -34.5q31 0 57.5 12.5t46.5 34.5t31.5 50.5t11.5 61.5zM182 628q0 34 26 59t61 25q28 0 47 -19.5t19 -47.5q0 -16 -7.5 -31.5t-19.5 -27t-27.5 -18.5t-32.5 -7q-29 0 -47.5 19.5t-18.5 47.5zM393 628q0 17 7.5 32t19.5 26.5t27.5 18.5
t32.5 7q28 0 47.5 -19.5t19.5 -47.5q0 -33 -27 -59q-26 -25 -61 -25q-28 0 -47 19.5t-19 47.5z" />
    <glyph glyph-name="aring" unicode="&#xe5;" horiz-adv-x="618" 
d="M608 496l-69 -496h-122l4 59q-25 -34 -69 -52t-92 -18q-51 0 -91.5 17t-69 48t-44 73.5t-15.5 93.5q0 65 20 118.5t55.5 91.5t83 59t102.5 21q57 0 102.5 -21.5t69.5 -58.5l15 65h120zM439 262q0 60 -35.5 94.5t-87.5 34.5q-29 0 -55 -12.5t-45.5 -33.5t-31 -50
t-11.5 -62q0 -61 33.5 -95.5t85.5 -34.5q31 0 57.5 12.5t46.5 34.5t31.5 50.5t11.5 61.5zM239 656q0 30 12.5 56.5t33 46.5t47.5 32t55 12q24 0 45 -9t36 -25t23.5 -37t8.5 -45q0 -29 -12.5 -55t-33 -46t-47.5 -32t-56 -12q-49 0 -80.5 32.5t-31.5 81.5zM426 680
q0 21 -13.5 35t-35.5 14q-27 0 -45.5 -18t-18.5 -45q0 -22 13 -36t35 -14q27 0 46 18.5t19 45.5z" />
    <glyph glyph-name="ae" unicode="&#xe6;" horiz-adv-x="863" 
d="M844 300q0 -13 -0.5 -23t-1.5 -17l-9 -60h-365q1 -48 31.5 -74.5t79.5 -26.5q42 0 76 18.5t58 49.5l90 -52q-37 -63 -101 -95t-139 -32q-63 0 -107.5 23.5t-65.5 63.5q-27 -40 -75.5 -63.5t-108.5 -23.5q-76 0 -129 39q-52 39 -52 112q0 35 13 64t36 51t55 34t71 12h109
q22 0 33.5 9t11.5 30q0 33 -26 48.5t-60 15.5q-79 0 -126 -72l-88 54q38 63 94 94.5t125 31.5q60 0 104.5 -23t65.5 -59q34 38 84.5 60t107.5 22q100 0 154.5 -57t54.5 -154zM615 404q-48 0 -84.5 -29.5t-50.5 -80.5h235q4 48 -24 79t-76 31zM224 209q-39 0 -58.5 -18
t-19.5 -46q0 -27 20.5 -43t59.5 -16q51 0 82 26.5t41 77.5q2 15 3 19h-128z" />
    <glyph glyph-name="ccedilla" unicode="&#xe7;" horiz-adv-x="562" 
d="M412 184l111 -48q-28 -67 -89.5 -107t-139.5 -42l-22 -22h34q31 0 48.5 -19.5t17.5 -49.5q0 -42 -24.5 -67.5t-63.5 -25.5h-111l8 58h90q13 0 21.5 7t8.5 19q0 20 -23 20h-90l8 59l25 28q-85 19 -132.5 81t-47.5 156q0 60 20 111t56 88.5t85.5 59t107.5 21.5
q94 0 154 -43.5t80 -112.5l-117 -44q-11 39 -41 60.5t-72 21.5q-64 0 -103 -47q-38 -47 -38 -114q0 -60 31.5 -93.5t85.5 -33.5q43 0 74 21.5t48 57.5z" />
    <glyph glyph-name="egrave" unicode="&#xe8;" horiz-adv-x="563" 
d="M311 511q50 0 92.5 -15.5t73.5 -44.5t48.5 -70.5t17.5 -92.5q0 -20 -3 -41l-7 -46l-369 1q-1 -49 29 -76t79 -27q43 0 76 19.5t49 51.5l113 -47q-35 -66 -97 -101t-141 -35q-103 0 -168 60q-64 61 -64 172q0 60 18.5 113t54 93t85.5 63t113 23zM413 291q5 51 -24.5 81.5
t-81.5 30.5q-51 0 -86.5 -29.5t-46.5 -83.5zM183 701h121l73 -145h-97z" />
    <glyph glyph-name="eacute" unicode="&#xe9;" horiz-adv-x="563" 
d="M311 511q50 0 92.5 -15.5t73.5 -44.5t48.5 -70.5t17.5 -92.5q0 -20 -3 -41l-7 -46l-369 1q-1 -49 29 -76t79 -27q43 0 76 19.5t49 51.5l113 -47q-35 -66 -97 -101t-141 -35q-103 0 -168 60q-64 61 -64 172q0 60 18.5 113t54 93t85.5 63t113 23zM413 291q5 51 -24.5 81.5
t-81.5 30.5q-51 0 -86.5 -29.5t-46.5 -83.5zM280 556l69 145h121l-93 -145h-97z" />
    <glyph glyph-name="ecircumflex" unicode="&#xea;" horiz-adv-x="563" 
d="M311 511q50 0 92.5 -15.5t73.5 -44.5t48.5 -70.5t17.5 -92.5q0 -20 -3 -41l-7 -46l-369 1q-1 -49 29 -76t79 -27q43 0 76 19.5t49 51.5l113 -47q-35 -66 -97 -101t-141 -35q-103 0 -168 60q-64 61 -64 172q0 60 18.5 113t54 93t85.5 63t113 23zM413 291q5 51 -24.5 81.5
t-81.5 30.5q-51 0 -86.5 -29.5t-46.5 -83.5zM393 556l-45 96l-73 -96h-99l116 161h105h26l69 -161h-99z" />
    <glyph glyph-name="edieresis" unicode="&#xeb;" horiz-adv-x="563" 
d="M311 511q50 0 92.5 -15.5t73.5 -44.5t48.5 -70.5t17.5 -92.5q0 -20 -3 -41l-7 -46l-369 1q-1 -49 29 -76t79 -27q43 0 76 19.5t49 51.5l113 -47q-35 -66 -97 -101t-141 -35q-103 0 -168 60q-64 61 -64 172q0 60 18.5 113t54 93t85.5 63t113 23zM413 291q5 51 -24.5 81.5
t-81.5 30.5q-51 0 -86.5 -29.5t-46.5 -83.5zM214 611q0 34 26 59t61 25q28 0 47 -19.5t19 -47.5q0 -16 -7.5 -31.5t-19.5 -27t-27.5 -18.5t-32.5 -7q-29 0 -47.5 19.5t-18.5 47.5zM425 611q0 17 7.5 32t19.5 26.5t27.5 18.5t32.5 7q28 0 47.5 -19.5t19.5 -47.5
q0 -33 -27 -59q-26 -25 -61 -25q-28 0 -47 19.5t-19 47.5z" />
    <glyph glyph-name="igrave" unicode="&#xec;" horiz-adv-x="238" 
d="M228 496l-70 -496h-131l69 496h132zM19 701h121l73 -145h-97z" />
    <glyph glyph-name="iacute" unicode="&#xed;" horiz-adv-x="238" 
d="M228 496l-70 -496h-131l69 496h132zM116 556l69 145h121l-93 -145h-97z" />
    <glyph glyph-name="icircumflex" unicode="&#xee;" horiz-adv-x="238" 
d="M228 496l-70 -496h-131l69 496h132zM229 556l-45 96l-73 -96h-99l116 161h105h26l69 -161h-99z" />
    <glyph glyph-name="idieresis" unicode="&#xef;" horiz-adv-x="238" 
d="M228 496l-70 -496h-131l69 496h132zM-1 628q0 34 26 59t61 25q28 0 47 -19.5t19 -47.5q0 -16 -7.5 -31.5t-19.5 -27t-27.5 -18.5t-32.5 -7q-29 0 -47.5 19.5t-18.5 47.5zM210 628q0 17 7.5 32t19.5 26.5t27.5 18.5t32.5 7q28 0 47.5 -19.5t19.5 -47.5q0 -33 -27 -59
q-26 -25 -61 -25q-28 0 -47 19.5t-19 47.5z" />
    <glyph glyph-name="eth" unicode="&#xf0;" horiz-adv-x="675" 
d="M640 354q0 -88 -24 -156.5t-67 -115t-101 -70.5t-127 -24q-61 0 -112 19t-88 53t-57 82.5t-20 106.5q-1 64 23.5 119.5t66.5 96t97.5 63.5t116.5 22q42 0 79.5 -11.5t63.5 -34.5q-22 73 -68 122l-77 -56l-48 73l63 46q-34 31 -70 52l78 86q56 -30 94 -64l74 54l50 -70
l-64 -47q57 -64 87 -155.5t30 -190.5zM496 284q0 63 -39 103.5t-108 40.5q-40 0 -72 -14.5t-54.5 -38.5t-34.5 -55.5t-12 -65.5q0 -63 39.5 -104t108.5 -41q40 0 71.5 14.5t54 39t34.5 56t12 65.5z" />
    <glyph glyph-name="ntilde" unicode="&#xf1;" horiz-adv-x="597" 
d="M560 326q0 -21 -3 -45l-40 -281h-130l38 269q1 10 1.5 17t0.5 11q0 51 -26.5 73t-68.5 22q-51 0 -83 -30t-41 -94l-39 -268h-130l70 496h122l-2 -51q20 29 57.5 47.5t85.5 18.5q85 0 136.5 -48.5t51.5 -136.5zM303 722q22 0 39.5 -7t40.5 -21q17 -11 30 -16.5t26 -5.5
q19 0 28.5 12t9.5 33h82q2 -67 -35 -104q-34 -36 -84 -36q-24 0 -42.5 7.5t-43.5 21.5q-16 10 -27.5 15t-22.5 5q-34 0 -37 -49h-82q-1 35 9 61.5t26.5 45.5t38.5 28.5t44 9.5z" />
    <glyph glyph-name="ograve" unicode="&#xf2;" horiz-adv-x="589" 
d="M320 510q52 0 96.5 -17t77.5 -48.5t52 -77t19 -101.5q1 -55 -20 -106t-58 -89.5t-88 -61t-111 -21.5q-52 0 -97.5 17t-78.5 48.5t-52 76.5t-19 102q-1 56 20.5 106.5t59 89t88.5 61t111 21.5zM292 105q30 0 56 12.5t44.5 34t29.5 51.5t11 64q0 60 -32 93t-86 33
q-31 0 -56.5 -12.5t-44.5 -34.5t-29.5 -51.5t-10.5 -63.5q0 -58 31.5 -92t86.5 -34zM195 701h121l73 -145h-97z" />
    <glyph glyph-name="oacute" unicode="&#xf3;" horiz-adv-x="589" 
d="M320 510q52 0 96.5 -17t77.5 -48.5t52 -77t19 -101.5q1 -55 -20 -106t-58 -89.5t-88 -61t-111 -21.5q-52 0 -97.5 17t-78.5 48.5t-52 76.5t-19 102q-1 56 20.5 106.5t59 89t88.5 61t111 21.5zM292 105q30 0 56 12.5t44.5 34t29.5 51.5t11 64q0 60 -32 93t-86 33
q-31 0 -56.5 -12.5t-44.5 -34.5t-29.5 -51.5t-10.5 -63.5q0 -58 31.5 -92t86.5 -34zM292 556l69 145h121l-93 -145h-97z" />
    <glyph glyph-name="ocircumflex" unicode="&#xf4;" horiz-adv-x="589" 
d="M320 510q52 0 96.5 -17t77.5 -48.5t52 -77t19 -101.5q1 -55 -20 -106t-58 -89.5t-88 -61t-111 -21.5q-52 0 -97.5 17t-78.5 48.5t-52 76.5t-19 102q-1 56 20.5 106.5t59 89t88.5 61t111 21.5zM292 105q30 0 56 12.5t44.5 34t29.5 51.5t11 64q0 60 -32 93t-86 33
q-31 0 -56.5 -12.5t-44.5 -34.5t-29.5 -51.5t-10.5 -63.5q0 -58 31.5 -92t86.5 -34zM405 556l-45 96l-73 -96h-99l116 161h105h26l69 -161h-99z" />
    <glyph glyph-name="otilde" unicode="&#xf5;" horiz-adv-x="589" 
d="M320 510q52 0 96.5 -17t77.5 -48.5t52 -77t19 -101.5q1 -55 -20 -106t-58 -89.5t-88 -61t-111 -21.5q-52 0 -97.5 17t-78.5 48.5t-52 76.5t-19 102q-1 56 20.5 106.5t59 89t88.5 61t111 21.5zM292 105q30 0 56 12.5t44.5 34t29.5 51.5t11 64q0 60 -32 93t-86 33
q-31 0 -56.5 -12.5t-44.5 -34.5t-29.5 -51.5t-10.5 -63.5q0 -58 31.5 -92t86.5 -34zM280 722q22 0 39.5 -7t40.5 -21q17 -11 30 -16.5t26 -5.5q19 0 28.5 12t9.5 33h82q2 -67 -35 -104q-34 -36 -84 -36q-24 0 -42.5 7.5t-43.5 21.5q-16 10 -27.5 15t-22.5 5q-34 0 -37 -49
h-82q-1 35 9 61.5t26.5 45.5t38.5 28.5t44 9.5z" />
    <glyph glyph-name="odieresis" unicode="&#xf6;" horiz-adv-x="589" 
d="M320 510q52 0 96.5 -17t77.5 -48.5t52 -77t19 -101.5q1 -55 -20 -106t-58 -89.5t-88 -61t-111 -21.5q-52 0 -97.5 17t-78.5 48.5t-52 76.5t-19 102q-1 56 20.5 106.5t59 89t88.5 61t111 21.5zM292 105q30 0 56 12.5t44.5 34t29.5 51.5t11 64q0 60 -32 93t-86 33
q-31 0 -56.5 -12.5t-44.5 -34.5t-29.5 -51.5t-10.5 -63.5q0 -58 31.5 -92t86.5 -34zM175 628q0 34 26 59t61 25q28 0 47 -19.5t19 -47.5q0 -16 -7.5 -31.5t-19.5 -27t-27.5 -18.5t-32.5 -7q-29 0 -47.5 19.5t-18.5 47.5zM386 628q0 17 7.5 32t19.5 26.5t27.5 18.5t32.5 7
q28 0 47.5 -19.5t19.5 -47.5q0 -33 -27 -59q-26 -25 -61 -25q-28 0 -47 19.5t-19 47.5z" />
    <glyph glyph-name="divide" unicode="&#xf7;" horiz-adv-x="518" 
d="M216 486q0 33 27 58q28 26 62 26q28 0 47 -20t19 -48q0 -16 -7.5 -31.5t-19.5 -26.5t-27.5 -18t-32.5 -7q-29 0 -48.5 19.5t-19.5 47.5zM469 363l-14 -102h-388l14 102h388zM164 114q0 33 27 58q28 26 62 26q27 0 46.5 -20t19.5 -48q0 -34 -28 -59q-26 -25 -60 -25
q-29 0 -48 20t-19 48z" />
    <glyph glyph-name="oslash" unicode="&#xf8;" horiz-adv-x="589" 
d="M504 435q61 -67 61 -168q1 -56 -20 -107t-58 -89.5t-88 -61t-111 -21.5q-59 0 -107 20l-43 -57h-118l84 109q-63 66 -63 173q-1 55 20.5 105.5t59 89t88.5 61t111 21.5q59 0 111 -23l41 54h112zM355 388q-22 5 -40 5q-31 0 -56.5 -12.5t-44.5 -34.5t-29.5 -51.5
t-10.5 -63.5q0 -37 12 -63zM257 109q13 -4 34 -4q30 0 56 12.5t45 34.5t30 52t11 64q0 31 -11 59z" />
    <glyph glyph-name="ugrave" unicode="&#xf9;" horiz-adv-x="597" 
d="M586 496l-69 -496h-121l1 47q-26 -29 -66.5 -44.5t-85.5 -15.5q-75 0 -128 39q-52 39 -52 132q0 13 1 25.5t3 24.5l41 288h131l-38 -276q-1 -10 -1.5 -16.5t-0.5 -10.5q0 -26 7.5 -43t20.5 -27.5t29 -15t34 -4.5q21 0 41.5 6.5t37.5 21t29.5 37t16.5 53.5l39 275h130z
M205 701h121l73 -145h-97z" />
    <glyph glyph-name="uacute" unicode="&#xfa;" horiz-adv-x="597" 
d="M586 496l-69 -496h-121l1 47q-26 -29 -66.5 -44.5t-85.5 -15.5q-75 0 -128 39q-52 39 -52 132q0 13 1 25.5t3 24.5l41 288h131l-38 -276q-1 -10 -1.5 -16.5t-0.5 -10.5q0 -26 7.5 -43t20.5 -27.5t29 -15t34 -4.5q21 0 41.5 6.5t37.5 21t29.5 37t16.5 53.5l39 275h130z
M302 556l69 145h121l-93 -145h-97z" />
    <glyph glyph-name="ucircumflex" unicode="&#xfb;" horiz-adv-x="597" 
d="M586 496l-69 -496h-121l1 47q-26 -29 -66.5 -44.5t-85.5 -15.5q-75 0 -128 39q-52 39 -52 132q0 13 1 25.5t3 24.5l41 288h131l-38 -276q-1 -10 -1.5 -16.5t-0.5 -10.5q0 -26 7.5 -43t20.5 -27.5t29 -15t34 -4.5q21 0 41.5 6.5t37.5 21t29.5 37t16.5 53.5l39 275h130z
M415 556l-45 96l-73 -96h-99l116 161h105h26l69 -161h-99z" />
    <glyph glyph-name="udieresis" unicode="&#xfc;" horiz-adv-x="597" 
d="M586 496l-69 -496h-121l1 47q-26 -29 -66.5 -44.5t-85.5 -15.5q-75 0 -128 39q-52 39 -52 132q0 13 1 25.5t3 24.5l41 288h131l-38 -276q-1 -10 -1.5 -16.5t-0.5 -10.5q0 -26 7.5 -43t20.5 -27.5t29 -15t34 -4.5q21 0 41.5 6.5t37.5 21t29.5 37t16.5 53.5l39 275h130z
M186 628q0 34 26 59t61 25q28 0 47 -19.5t19 -47.5q0 -16 -7.5 -31.5t-19.5 -27t-27.5 -18.5t-32.5 -7q-29 0 -47.5 19.5t-18.5 47.5zM397 628q0 17 7.5 32t19.5 26.5t27.5 18.5t32.5 7q28 0 47.5 -19.5t19.5 -47.5q0 -33 -27 -59q-26 -25 -61 -25q-28 0 -47 19.5t-19 47.5z
" />
    <glyph glyph-name="yacute" unicode="&#xfd;" horiz-adv-x="580" 
d="M616 496l-328 -617q-34 -66 -82.5 -95t-103.5 -29q-61 0 -114 29l49 113q31 -19 61 -19q24 0 44 12.5t33 36.5l24 48l-146 521h138l90 -361l186 361h149zM292 556l69 145h121l-93 -145h-97z" />
    <glyph glyph-name="thorn" unicode="&#xfe;" horiz-adv-x="634" 
d="M610 273q0 -65 -21 -118t-57 -90.5t-84.5 -57.5t-103.5 -20t-99.5 20t-65.5 55l-42 -294h-131l137 965h132l-42 -279q28 28 67.5 42.5t84.5 14.5q47 0 88 -15.5t71.5 -46t48 -75t17.5 -101.5zM356 393q-32 0 -59 -12.5t-47 -34t-31 -51t-11 -63.5q0 -60 33.5 -93.5
t87.5 -33.5q31 0 58 12t47.5 33.5t32 51t11.5 65.5q0 58 -33.5 92t-88.5 34z" />
    <glyph glyph-name="ydieresis" unicode="&#xff;" horiz-adv-x="580" 
d="M616 496l-328 -617q-34 -66 -82.5 -95t-103.5 -29q-61 0 -114 29l49 113q31 -19 61 -19q24 0 44 12.5t33 36.5l24 48l-146 521h138l90 -361l186 361h149zM176 628q0 34 26 59t61 25q28 0 47 -19.5t19 -47.5q0 -16 -7.5 -31.5t-19.5 -27t-27.5 -18.5t-32.5 -7
q-29 0 -47.5 19.5t-18.5 47.5zM387 628q0 17 7.5 32t19.5 26.5t27.5 18.5t32.5 7q28 0 47.5 -19.5t19.5 -47.5q0 -33 -27 -59q-26 -25 -61 -25q-28 0 -47 19.5t-19 47.5z" />
    <glyph glyph-name="Amacron" unicode="&#x100;" horiz-adv-x="665" 
d="M622 0h-143l-34 166h-251l-81 -166h-138l357 733h129zM423 284l-51 249l-122 -249h173zM576 885l-12 -83h-313l11 83h314z" />
    <glyph glyph-name="amacron" unicode="&#x101;" horiz-adv-x="618" 
d="M608 496l-69 -496h-122l4 59q-25 -34 -69 -52t-92 -18q-51 0 -91.5 17t-69 48t-44 73.5t-15.5 93.5q0 65 20 118.5t55.5 91.5t83 59t102.5 21q57 0 102.5 -21.5t69.5 -58.5l15 65h120zM439 262q0 60 -35.5 94.5t-87.5 34.5q-29 0 -55 -12.5t-45.5 -33.5t-31 -50
t-11.5 -62q0 -61 33.5 -95.5t85.5 -34.5q31 0 57.5 12.5t46.5 34.5t31.5 50.5t11.5 61.5zM524 655l-12 -83h-313l11 83h314z" />
    <glyph glyph-name="Abreve" unicode="&#x102;" horiz-adv-x="665" 
d="M622 0h-143l-34 166h-251l-81 -166h-138l357 733h129zM423 284l-51 249l-122 -249h173zM406 786q-34 0 -63 11t-49 30t-31.5 46t-11.5 58q0 16 1 21h98q-4 -34 16 -52.5t54 -18.5q33 0 57.5 19t30.5 52h97q-5 -34 -23.5 -64.5t-45.5 -53t-60.5 -35.5t-69.5 -13z" />
    <glyph glyph-name="abreve" unicode="&#x103;" horiz-adv-x="618" 
d="M608 496l-69 -496h-122l4 59q-25 -34 -69 -52t-92 -18q-51 0 -91.5 17t-69 48t-44 73.5t-15.5 93.5q0 65 20 118.5t55.5 91.5t83 59t102.5 21q57 0 102.5 -21.5t69.5 -58.5l15 65h120zM439 262q0 60 -35.5 94.5t-87.5 34.5q-29 0 -55 -12.5t-45.5 -33.5t-31 -50
t-11.5 -62q0 -61 33.5 -95.5t85.5 -34.5q31 0 57.5 12.5t46.5 34.5t31.5 50.5t11.5 61.5zM354 556q-34 0 -63 11t-49 30t-31.5 46t-11.5 58q0 16 1 21h98q-4 -34 16 -52.5t54 -18.5q33 0 57.5 19t30.5 52h97q-5 -34 -23.5 -64.5t-45.5 -53t-60.5 -35.5t-69.5 -13z" />
    <glyph glyph-name="Aogonek" unicode="&#x104;" horiz-adv-x="665" 
d="M622 0h-143l-34 166h-251l-81 -166h-138l357 733h129zM423 284l-51 249l-122 -249h173zM631 0q-40 -14 -61.5 -37t-21.5 -44q0 -14 9.5 -23t25.5 -9q13 0 28 6l-12 -87q-29 -10 -56 -10q-42 0 -65.5 23.5t-23.5 59.5t25 70t73 51h79z" />
    <glyph glyph-name="aogonek" unicode="&#x105;" horiz-adv-x="618" 
d="M608 496l-69 -496h-122l4 59q-25 -34 -69 -52t-92 -18q-51 0 -91.5 17t-69 48t-44 73.5t-15.5 93.5q0 65 20 118.5t55.5 91.5t83 59t102.5 21q57 0 102.5 -21.5t69.5 -58.5l15 65h120zM439 262q0 60 -35.5 94.5t-87.5 34.5q-29 0 -55 -12.5t-45.5 -33.5t-31 -50
t-11.5 -62q0 -61 33.5 -95.5t85.5 -34.5q31 0 57.5 12.5t46.5 34.5t31.5 50.5t11.5 61.5zM538 0q-40 -14 -61.5 -37t-21.5 -44q0 -14 9.5 -23t25.5 -9q13 0 28 6l-12 -87q-29 -10 -56 -10q-42 0 -65.5 23.5t-23.5 59.5t25 70t73 51h79z" />
    <glyph glyph-name="Cacute" unicode="&#x106;" horiz-adv-x="755" 
d="M627 477q-20 69 -72.5 103.5t-118.5 34.5q-51 1 -95 -20.5t-76 -60t-50 -89.5t-17 -108q0 -100 53 -157.5t141 -57.5q64 0 116 32.5t85 99.5l127 -54q-17 -44 -49.5 -82.5t-76.5 -67.5t-97 -45.5t-112 -16.5q-63 0 -123.5 20.5t-107.5 63t-75 108.5t-27 156
q-1 83 26.5 158.5t78.5 132t122 89.5t156 31q61 0 114 -16.5t94 -45.5t69 -68t39 -83zM399 786l69 145h121l-93 -145h-97z" />
    <glyph glyph-name="cacute" unicode="&#x107;" horiz-adv-x="562" 
d="M310 511q94 0 154 -43.5t80 -112.5l-117 -44q-11 39 -41 60.5t-72 21.5q-64 0 -103 -47q-38 -47 -38 -114q0 -60 31.5 -93.5t85.5 -33.5q43 0 74 21.5t48 57.5l111 -48q-28 -69 -90.5 -109t-143.5 -40q-57 0 -103 17.5t-78.5 49.5t-49.5 77t-17 100q0 60 20 111t56 88.5
t85.5 59t107.5 21.5zM275 556l69 145h121l-93 -145h-97z" />
    <glyph glyph-name="Ccircumflex" unicode="&#x108;" horiz-adv-x="755" 
d="M627 477q-20 69 -72.5 103.5t-118.5 34.5q-51 1 -95 -20.5t-76 -60t-50 -89.5t-17 -108q0 -100 53 -157.5t141 -57.5q64 0 116 32.5t85 99.5l127 -54q-17 -44 -49.5 -82.5t-76.5 -67.5t-97 -45.5t-112 -16.5q-63 0 -123.5 20.5t-107.5 63t-75 108.5t-27 156
q-1 83 26.5 158.5t78.5 132t122 89.5t156 31q61 0 114 -16.5t94 -45.5t69 -68t39 -83zM512 786l-45 96l-73 -96h-99l116 161h105h26l69 -161h-99z" />
    <glyph glyph-name="ccircumflex" unicode="&#x109;" horiz-adv-x="562" 
d="M310 511q94 0 154 -43.5t80 -112.5l-117 -44q-11 39 -41 60.5t-72 21.5q-64 0 -103 -47q-38 -47 -38 -114q0 -60 31.5 -93.5t85.5 -33.5q43 0 74 21.5t48 57.5l111 -48q-28 -69 -90.5 -109t-143.5 -40q-57 0 -103 17.5t-78.5 49.5t-49.5 77t-17 100q0 60 20 111t56 88.5
t85.5 59t107.5 21.5zM387 556l-45 96l-73 -96h-99l116 161h105h26l69 -161h-99z" />
    <glyph glyph-name="Cdotaccent" unicode="&#x10a;" horiz-adv-x="755" 
d="M627 477q-20 69 -72.5 103.5t-118.5 34.5q-51 1 -95 -20.5t-76 -60t-50 -89.5t-17 -108q0 -100 53 -157.5t141 -57.5q64 0 116 32.5t85 99.5l127 -54q-17 -44 -49.5 -82.5t-76.5 -67.5t-97 -45.5t-112 -16.5q-63 0 -123.5 20.5t-107.5 63t-75 108.5t-27 156
q-1 83 26.5 158.5t78.5 132t122 89.5t156 31q61 0 114 -16.5t94 -45.5t69 -68t39 -83zM388 858q0 17 7 32t19 26.5t27.5 18.5t32.5 7q28 0 47 -19.5t19 -47.5q0 -16 -7.5 -31.5t-19.5 -27t-27.5 -18.5t-32.5 -7q-28 0 -46.5 19t-18.5 48z" />
    <glyph glyph-name="cdotaccent" unicode="&#x10b;" horiz-adv-x="562" 
d="M310 511q94 0 154 -43.5t80 -112.5l-117 -44q-11 39 -41 60.5t-72 21.5q-64 0 -103 -47q-38 -47 -38 -114q0 -60 31.5 -93.5t85.5 -33.5q43 0 74 21.5t48 57.5l111 -48q-28 -69 -90.5 -109t-143.5 -40q-57 0 -103 17.5t-78.5 49.5t-49.5 77t-17 100q0 60 20 111t56 88.5
t85.5 59t107.5 21.5zM264 628q0 17 7 32t19 26.5t27.5 18.5t32.5 7q28 0 47 -19.5t19 -47.5q0 -16 -7.5 -31.5t-19.5 -27t-27.5 -18.5t-32.5 -7q-28 0 -46.5 19t-18.5 48z" />
    <glyph glyph-name="Ccaron" unicode="&#x10c;" horiz-adv-x="755" 
d="M627 477q-20 69 -72.5 103.5t-118.5 34.5q-51 1 -95 -20.5t-76 -60t-50 -89.5t-17 -108q0 -100 53 -157.5t141 -57.5q64 0 116 32.5t85 99.5l127 -54q-17 -44 -49.5 -82.5t-76.5 -67.5t-97 -45.5t-112 -16.5q-63 0 -123.5 20.5t-107.5 63t-75 108.5t-27 156
q-1 83 26.5 158.5t78.5 132t122 89.5t156 31q61 0 114 -16.5t94 -45.5t69 -68t39 -83zM634 947l-116 -161h-106h-25l-69 161h99l45 -96l73 96h99z" />
    <glyph glyph-name="ccaron" unicode="&#x10d;" horiz-adv-x="562" 
d="M310 511q94 0 154 -43.5t80 -112.5l-117 -44q-11 39 -41 60.5t-72 21.5q-64 0 -103 -47q-38 -47 -38 -114q0 -60 31.5 -93.5t85.5 -33.5q43 0 74 21.5t48 57.5l111 -48q-28 -69 -90.5 -109t-143.5 -40q-57 0 -103 17.5t-78.5 49.5t-49.5 77t-17 100q0 60 20 111t56 88.5
t85.5 59t107.5 21.5zM510 717l-116 -161h-106h-25l-69 161h99l45 -96l73 96h99z" />
    <glyph glyph-name="Dcaron" unicode="&#x10e;" horiz-adv-x="750" 
d="M729 401q2 -85 -27.5 -159t-82 -128t-124 -85t-153.5 -29h-206h-91l103 733h137h117q71 1 131.5 -23t104 -68t68 -105.5t23.5 -135.5zM583 401q0 47 -13.5 84.5t-39 64.5t-61.5 41.5t-81 14.5h-121l-67 -480h115q60 0 109 20.5t84.5 57.5t55 87t19.5 110zM561 946
l-116 -161h-106h-25l-69 161h99l45 -96l73 96h99z" />
    <glyph glyph-name="dcaron" unicode="&#x10f;" horiz-adv-x="754" 
d="M515 747h131l-105 -747h-121l4 60q-23 -35 -65.5 -54t-94.5 -19q-45 0 -85.5 15.5t-71 45.5t-48.5 74t-18 102q0 61 20 113.5t56 91t86 60.5t111 22q51 0 92.5 -18t65.5 -51zM811 744l-44 -313h-100l44 313h100zM318 394q-31 0 -57.5 -12.5t-46 -34.5t-30.5 -50.5
t-11 -61.5q0 -60 35.5 -95t89.5 -35q31 0 57.5 12t46 33.5t30.5 50.5t11 63q0 61 -35.5 95.5t-89.5 34.5z" />
    <glyph glyph-name="Dcroat" unicode="&#x110;" horiz-adv-x="747" 
d="M726 401q2 -85 -27.5 -159t-82 -128t-124 -85t-153.5 -29h-206h-91l44 311h-75l16 112h74l44 310h137h117q71 1 131.5 -23t104 -68t68 -105.5t23.5 -135.5zM580 401q0 47 -13.5 84.5t-39 64.5t-61.5 41.5t-81 14.5h-121l-26 -183h85l-15 -112h-85l-26 -185h114
q60 0 109.5 20.5t85 57.5t55 87t19.5 110z" />
    <glyph glyph-name="dcroat" unicode="&#x111;" horiz-adv-x="621" 
d="M656 562h-36l-79 -562h-121l4 60q-23 -35 -65.5 -54t-94.5 -19q-45 0 -85.5 15.5t-71 45.5t-48.5 74t-18 102q0 61 20 113.5t56 91t86 60.5t111 22q51 0 92.5 -18t65.5 -51l17 120h-199l15 102h199l11 83h131l-12 -83h37zM318 394q-31 0 -57.5 -12.5t-46 -34.5
t-30.5 -50.5t-11 -61.5q0 -60 35.5 -95t89.5 -35q31 0 57.5 12t46 33.5t30.5 50.5t11 63q0 61 -35.5 95.5t-89.5 34.5z" />
    <glyph glyph-name="Emacron" unicode="&#x112;" horiz-adv-x="595" 
d="M267 604l-24 -173h287l-19 -122l-286 1l-25 -181l321 -1l-18 -128h-458l103 733h458l-19 -129h-320zM556 885l-12 -83h-313l11 83h314z" />
    <glyph glyph-name="emacron" unicode="&#x113;" horiz-adv-x="563" 
d="M311 511q50 0 92.5 -15.5t73.5 -44.5t48.5 -70.5t17.5 -92.5q0 -20 -3 -41l-7 -46l-369 1q-1 -49 29 -76t79 -27q43 0 76 19.5t49 51.5l113 -47q-35 -66 -97 -101t-141 -35q-103 0 -168 60q-64 61 -64 172q0 60 18.5 113t54 93t85.5 63t113 23zM413 291q5 51 -24.5 81.5
t-81.5 30.5q-51 0 -86.5 -29.5t-46.5 -83.5zM505 655l-12 -83h-313l11 83h314z" />
    <glyph glyph-name="Ebreve" unicode="&#x114;" horiz-adv-x="595" 
d="M267 604l-24 -173h287l-19 -122l-286 1l-25 -181l321 -1l-18 -128h-458l103 733h458l-19 -129h-320zM330 956q-1 -3 -1 -13q0 -30 19.5 -46t51.5 -16q34 0 58.5 19.5t30.5 55.5h97q-5 -35 -23 -66t-45 -54t-61 -36.5t-71 -13.5q-34 0 -63 11t-49 30t-31.5 46t-11.5 58
q0 4 0.5 10t1.5 15h97z" />
    <glyph glyph-name="ebreve" unicode="&#x115;" horiz-adv-x="563" 
d="M311 511q50 0 92.5 -15.5t73.5 -44.5t48.5 -70.5t17.5 -92.5q0 -20 -3 -41l-7 -46l-369 1q-1 -49 29 -76t79 -27q43 0 76 19.5t49 51.5l113 -47q-35 -66 -97 -101t-141 -35q-103 0 -168 60q-64 61 -64 172q0 60 18.5 113t54 93t85.5 63t113 23zM413 291q5 51 -24.5 81.5
t-81.5 30.5q-51 0 -86.5 -29.5t-46.5 -83.5zM279 726q-1 -3 -1 -13q0 -30 19.5 -46t51.5 -16q34 0 58.5 19.5t30.5 55.5h97q-5 -35 -23 -66t-45 -54t-61 -36.5t-71 -13.5q-34 0 -63 11t-49 30t-31.5 46t-11.5 58q0 4 0.5 10t1.5 15h97z" />
    <glyph glyph-name="Edotaccent" unicode="&#x116;" horiz-adv-x="595" 
d="M267 604l-24 -173h287l-19 -122l-286 1l-25 -181l321 -1l-18 -128h-458l103 733h458l-19 -129h-320zM320 858q0 17 7 32t19 26.5t27.5 18.5t32.5 7q28 0 47 -19.5t19 -47.5q0 -16 -7.5 -31.5t-19.5 -27t-27.5 -18.5t-32.5 -7q-28 0 -46.5 19t-18.5 48z" />
    <glyph glyph-name="edotaccent" unicode="&#x117;" horiz-adv-x="563" 
d="M311 511q50 0 92.5 -15.5t73.5 -44.5t48.5 -70.5t17.5 -92.5q0 -20 -3 -41l-7 -46l-369 1q-1 -49 29 -76t79 -27q43 0 76 19.5t49 51.5l113 -47q-35 -66 -97 -101t-141 -35q-103 0 -168 60q-64 61 -64 172q0 60 18.5 113t54 93t85.5 63t113 23zM413 291q5 51 -24.5 81.5
t-81.5 30.5q-51 0 -86.5 -29.5t-46.5 -83.5zM270 628q0 17 7 32t19 26.5t27.5 18.5t32.5 7q28 0 47 -19.5t19 -47.5q0 -16 -7.5 -31.5t-19.5 -27t-27.5 -18.5t-32.5 -7q-28 0 -46.5 19t-18.5 48z" />
    <glyph glyph-name="Eogonek" unicode="&#x118;" horiz-adv-x="595" 
d="M267 604l-24 -173h287l-19 -122l-286 1l-25 -181l321 -1l-18 -128h-458l103 733h458l-19 -129h-320zM502 0q-40 -14 -61.5 -37t-21.5 -44q0 -14 9.5 -23t25.5 -9q13 0 28 6l-12 -87q-29 -10 -56 -10q-42 0 -65.5 23.5t-23.5 59.5t25 70t73 51h79z" />
    <glyph glyph-name="eogonek" unicode="&#x119;" horiz-adv-x="563" 
d="M543 288q0 -20 -3 -41l-7 -46l-369 1q-1 -49 29 -76t79 -27q43 0 76 19.5t49 51.5l113 -47q-32 -60 -85 -94t-122 -40q-32 -15 -48 -35t-16 -39q0 -14 9 -23t25 -9q13 0 28 6l-12 -87q-29 -10 -55 -10q-42 0 -66 24t-24 59q0 33 22 65t62 50q-87 13 -137.5 71t-50.5 157
q0 60 18.5 113.5t53.5 93.5t85 63t114 23q50 0 92.5 -15.5t73.5 -44.5t48.5 -70.5t17.5 -92.5zM307 403q-51 0 -86.5 -29.5t-46.5 -83.5l239 1q5 51 -24.5 81.5t-81.5 30.5z" />
    <glyph glyph-name="Ecaron" unicode="&#x11a;" horiz-adv-x="595" 
d="M267 604l-24 -173h287l-19 -122l-286 1l-25 -181l321 -1l-18 -128h-458l103 733h458l-19 -129h-320zM566 947l-116 -161h-106h-25l-69 161h99l45 -96l73 96h99z" />
    <glyph glyph-name="ecaron" unicode="&#x11b;" horiz-adv-x="563" 
d="M311 511q50 0 92.5 -15.5t73.5 -44.5t48.5 -70.5t17.5 -92.5q0 -20 -3 -41l-7 -46l-369 1q-1 -49 29 -76t79 -27q43 0 76 19.5t49 51.5l113 -47q-35 -66 -97 -101t-141 -35q-103 0 -168 60q-64 61 -64 172q0 60 18.5 113t54 93t85.5 63t113 23zM413 291q5 51 -24.5 81.5
t-81.5 30.5q-51 0 -86.5 -29.5t-46.5 -83.5zM516 717l-116 -161h-106h-25l-69 161h99l45 -96l73 96h99z" />
    <glyph glyph-name="Gcircumflex" unicode="&#x11c;" horiz-adv-x="784" 
d="M410 424h342l-60 -424h-118l3 64q-38 -38 -92.5 -56.5t-111.5 -18.5q-70 0 -128.5 23t-101.5 66.5t-67 105.5t-24 139q-1 89 27.5 167t80 135.5t122 90t154.5 31.5q124 0 208 -57q84 -55 115 -148l-124 -47q-21 58 -73.5 90.5t-121.5 32.5q-57 0 -103 -21.5t-78.5 -59.5
t-50 -90t-17.5 -114q0 -55 17 -95.5t45.5 -67.5t64.5 -40.5t73 -13.5q73 0 134 39q62 41 80 134l3 15h-215zM527 786l-45 96l-73 -96h-99l116 161h105h26l69 -161h-99z" />
    <glyph glyph-name="gcircumflex" unicode="&#x11d;" horiz-adv-x="571" 
d="M285 580h-100l117 140h105h25l69 -140h-99l-45 83zM579 561q15 0 20 -1l-14 -105q-4 1 -17 1q-42 0 -69 -24q30 -43 30 -99q0 -49 -18 -89.5t-50.5 -69t-78 -44t-101.5 -15.5q-50 0 -94 16q-20 -3 -29 -12.5t-9 -21.5t12 -20t37 -8h137q87 0 135.5 -40t48.5 -106
q0 -170 -274 -170q-121 0 -185 32.5t-64 92.5q0 74 70 110q-32 26 -32 70q0 32 19.5 64.5t68.5 47.5q-50 48 -50 121q0 49 18.5 89t52 69t80 45t101.5 16q68 0 115 -26q22 35 58.5 56t81.5 21zM400 322q0 37 -24.5 61t-66.5 24q-48 0 -79 -29t-31 -75q0 -38 24.5 -61.5
t66.5 -23.5q48 0 79 29.5t31 74.5zM159 -40h-11q-32 -20 -32 -49q0 -30 32.5 -40t101.5 -10q62 0 101 11.5t39 46.5q0 41 -67 41h-164z" />
    <glyph glyph-name="Gbreve" unicode="&#x11e;" horiz-adv-x="784" 
d="M410 424h342l-60 -424h-118l3 64q-38 -38 -92.5 -56.5t-111.5 -18.5q-70 0 -128.5 23t-101.5 66.5t-67 105.5t-24 139q-1 89 27.5 167t80 135.5t122 90t154.5 31.5q124 0 208 -57q84 -55 115 -148l-124 -47q-21 58 -73.5 90.5t-121.5 32.5q-57 0 -103 -21.5t-78.5 -59.5
t-50 -90t-17.5 -114q0 -55 17 -95.5t45.5 -67.5t64.5 -40.5t73 -13.5q73 0 134 39q62 41 80 134l3 15h-215zM414 956q-1 -3 -1 -13q0 -30 19.5 -46t51.5 -16q34 0 58.5 19.5t30.5 55.5h97q-5 -35 -23 -66t-45 -54t-61 -36.5t-71 -13.5q-34 0 -63 11t-49 30t-31.5 46
t-11.5 58q0 4 0.5 10t1.5 15h97z" />
    <glyph glyph-name="gbreve" unicode="&#x11f;" horiz-adv-x="571" 
d="M579 561q15 0 20 -1l-14 -105q-4 1 -17 1q-42 0 -69 -24q30 -43 30 -99q0 -49 -18 -89.5t-50.5 -69t-78 -44t-101.5 -15.5q-50 0 -94 16q-20 -3 -29 -12.5t-9 -21.5t12 -20t37 -8h137q87 0 135.5 -40t48.5 -106q0 -170 -274 -170q-121 0 -185 32.5t-64 92.5q0 74 70 110
q-32 26 -32 70q0 32 19.5 64.5t68.5 47.5q-50 48 -50 121q0 49 18.5 89t52 69t80 45t101.5 16q68 0 115 -26q22 35 58.5 56t81.5 21zM400 322q0 37 -24.5 61t-66.5 24q-48 0 -79 -29t-31 -75q0 -38 24.5 -61.5t66.5 -23.5q48 0 79 29.5t31 74.5zM159 -40h-11
q-32 -20 -32 -49q0 -30 32.5 -40t101.5 -10q62 0 101 11.5t39 46.5q0 41 -67 41h-164zM279 726q-1 -3 -1 -13q0 -30 19.5 -46t51.5 -16q34 0 58.5 19.5t30.5 55.5h97q-5 -35 -23 -66t-45 -54t-61 -36.5t-71 -13.5q-34 0 -63 11t-49 30t-31.5 46t-11.5 58q0 4 0.5 10t1.5 15
h97z" />
    <glyph glyph-name="Gdotaccent" unicode="&#x120;" horiz-adv-x="784" 
d="M410 424h342l-60 -424h-118l3 64q-38 -38 -92.5 -56.5t-111.5 -18.5q-70 0 -128.5 23t-101.5 66.5t-67 105.5t-24 139q-1 89 27.5 167t80 135.5t122 90t154.5 31.5q124 0 208 -57q84 -55 115 -148l-124 -47q-21 58 -73.5 90.5t-121.5 32.5q-57 0 -103 -21.5t-78.5 -59.5
t-50 -90t-17.5 -114q0 -55 17 -95.5t45.5 -67.5t64.5 -40.5t73 -13.5q73 0 134 39q62 41 80 134l3 15h-215zM404 858q0 17 7 32t19 26.5t27.5 18.5t32.5 7q28 0 47 -19.5t19 -47.5q0 -16 -7.5 -31.5t-19.5 -27t-27.5 -18.5t-32.5 -7q-28 0 -46.5 19t-18.5 48z" />
    <glyph glyph-name="gdotaccent" unicode="&#x121;" horiz-adv-x="571" 
d="M579 561q15 0 20 -1l-14 -105q-4 1 -17 1q-42 0 -69 -24q30 -43 30 -99q0 -49 -18 -89.5t-50.5 -69t-78 -44t-101.5 -15.5q-50 0 -94 16q-20 -3 -29 -12.5t-9 -21.5t12 -20t37 -8h137q87 0 135.5 -40t48.5 -106q0 -170 -274 -170q-121 0 -185 32.5t-64 92.5q0 74 70 110
q-32 26 -32 70q0 32 19.5 64.5t68.5 47.5q-50 48 -50 121q0 49 18.5 89t52 69t80 45t101.5 16q68 0 115 -26q22 35 58.5 56t81.5 21zM400 322q0 37 -24.5 61t-66.5 24q-48 0 -79 -29t-31 -75q0 -38 24.5 -61.5t66.5 -23.5q48 0 79 29.5t31 74.5zM159 -40h-11
q-32 -20 -32 -49q0 -30 32.5 -40t101.5 -10q62 0 101 11.5t39 46.5q0 41 -67 41h-164zM270 628q0 17 7 32t19 26.5t27.5 18.5t32.5 7q28 0 47 -19.5t19 -47.5q0 -16 -7.5 -31.5t-19.5 -27t-27.5 -18.5t-32.5 -7q-28 0 -46.5 19t-18.5 48z" />
    <glyph glyph-name="Gcommaaccent" unicode="&#x122;" horiz-adv-x="784" 
d="M410 424h342l-60 -424h-118l3 64q-38 -38 -92.5 -56.5t-111.5 -18.5q-70 0 -128.5 23t-101.5 66.5t-67 105.5t-24 139q-1 89 27.5 167t80 135.5t122 90t154.5 31.5q124 0 208 -57q84 -55 115 -148l-124 -47q-21 58 -73.5 90.5t-121.5 32.5q-57 0 -103 -21.5t-78.5 -59.5
t-50 -90t-17.5 -114q0 -55 17 -95.5t45.5 -67.5t64.5 -40.5t73 -13.5q73 0 134 39q62 41 80 134l3 15h-215zM427 -113q0 -48 -33 -82t-79 -34l5 30q21 1 35 13.5t16 29.5q-7 -3 -16 -3q-22 0 -36 13t-14 38q0 26 16.5 43.5t44.5 17.5q26 0 43.5 -16t17.5 -50z" />
    <glyph glyph-name="gcommaaccent" unicode="&#x123;" horiz-adv-x="571" 
d="M579 561q15 0 20 -1l-14 -105q-4 1 -17 1q-42 0 -69 -24q30 -43 30 -99q0 -49 -18 -89.5t-50.5 -69t-78 -44t-101.5 -15.5q-50 0 -94 16q-20 -3 -29 -12.5t-9 -21.5t12 -20t37 -8h137q87 0 135.5 -40t48.5 -106q0 -170 -274 -170q-121 0 -185 32.5t-64 92.5q0 74 70 110
q-32 26 -32 70q0 32 19.5 64.5t68.5 47.5q-50 48 -50 121q0 49 18.5 89t52 69t80 45t101.5 16q68 0 115 -26q22 35 58.5 56t81.5 21zM400 322q0 37 -24.5 61t-66.5 24q-48 0 -79 -29t-31 -75q0 -38 24.5 -61.5t66.5 -23.5q48 0 79 29.5t31 74.5zM159 -40h-11
q-32 -20 -32 -49q0 -30 32.5 -40t101.5 -10q62 0 101 11.5t39 46.5q0 41 -67 41h-164zM280 556l69 145h121l-93 -145h-97z" />
    <glyph glyph-name="Hbar" unicode="&#x126;" horiz-adv-x="740" 
d="M774 510h-77l-71 -510h-138l44 309l-306 2l-44 -311h-137l72 510h-75l15 116h76l15 107h137l-15 -107h306l15 107h138l-15 -107h75zM560 510h-306l-11 -78l306 -1z" />
    <glyph glyph-name="hbar" unicode="&#x127;" horiz-adv-x="623" 
d="M558 322q0 -14 -1 -27t-3 -26l-37 -269h-130l37 265q1 5 1.5 13t0.5 19q0 27 -7.5 45t-20.5 29.5t-29.5 16t-34.5 4.5q-42 0 -80 -29q-37 -28 -48 -99l-37 -264h-130l80 565h-50l15 102h49l11 80h131l-11 -80h152l-16 -102h-151l-15 -107q25 25 62.5 39t80.5 14
q39 0 72.5 -11.5t57.5 -35t37.5 -59t13.5 -83.5z" />
    <glyph glyph-name="Itilde" unicode="&#x128;" horiz-adv-x="280" 
d="M45 0l103 733h137l-103 -733h-137zM167 952q22 0 39.5 -7t40.5 -21q17 -11 30 -16.5t26 -5.5q19 0 28.5 12t9.5 33h82q2 -67 -35 -104q-34 -36 -84 -36q-24 0 -42.5 7.5t-43.5 21.5q-16 10 -27.5 15t-22.5 5q-34 0 -37 -49h-82q-1 35 9 61.5t26.5 45.5t38.5 28.5t44 9.5z
" />
    <glyph glyph-name="itilde" unicode="&#x129;" horiz-adv-x="238" 
d="M228 496l-70 -496h-131l69 496h132zM114 722q22 0 39.5 -7t40.5 -21q17 -11 30 -16.5t26 -5.5q19 0 28.5 12t9.5 33h82q2 -67 -35 -104q-34 -36 -84 -36q-24 0 -42.5 7.5t-43.5 21.5q-16 10 -27.5 15t-22.5 5q-34 0 -37 -49h-82q-1 35 9 61.5t26.5 45.5t38.5 28.5t44 9.5
z" />
    <glyph glyph-name="Imacron" unicode="&#x12a;" horiz-adv-x="280" 
d="M45 0l103 733h137l-103 -733h-137zM395 885l-12 -83h-313l11 83h314z" />
    <glyph glyph-name="imacron" unicode="&#x12b;" horiz-adv-x="238" 
d="M228 496l-70 -496h-131l69 496h132zM341 655l-12 -83h-313l11 83h314z" />
    <glyph glyph-name="Iogonek" unicode="&#x12e;" horiz-adv-x="280" 
d="M45 0l103 733h137l-103 -733h-137zM182 0q-40 -14 -61.5 -37t-21.5 -44q0 -14 9.5 -23t25.5 -9q13 0 28 6l-12 -87q-29 -10 -56 -10q-42 0 -65.5 23.5t-23.5 59.5t25 70t73 51h79z" />
    <glyph glyph-name="iogonek" unicode="&#x12f;" horiz-adv-x="238" 
d="M228 496l-70 -496h-131l69 496h132zM158 0q-40 -14 -61.5 -37t-21.5 -44q0 -14 9.5 -23t25.5 -9q13 0 28 6l-12 -87q-29 -10 -56 -10q-42 0 -65.5 23.5t-23.5 59.5t25 70t73 51h79zM105 628q0 17 7 32t19 26.5t27.5 18.5t32.5 7q28 0 47 -19.5t19 -47.5q0 -16 -7.5 -31.5
t-19.5 -27t-27.5 -18.5t-32.5 -7q-28 0 -46.5 19t-18.5 48z" />
    <glyph glyph-name="Idotaccent" unicode="&#x130;" horiz-adv-x="280" 
d="M45 0l103 733h137l-103 -733h-137zM159 858q0 17 7 32t19 26.5t27.5 18.5t32.5 7q28 0 47 -19.5t19 -47.5q0 -16 -7.5 -31.5t-19.5 -27t-27.5 -18.5t-32.5 -7q-28 0 -46.5 19t-18.5 48z" />
    <glyph glyph-name="dotlessi" unicode="&#x131;" horiz-adv-x="238" 
d="M228 496l-70 -496h-131l69 496h132z" />
    <glyph glyph-name="Jcircumflex" unicode="&#x134;" horiz-adv-x="541" 
d="M552 733l-65 -463l-10 -68q-13 -95 -79 -156q-64 -60 -168 -60q-103 0 -160 50.5t-57 135.5q0 11 0.5 20t1.5 15l3 25h131l-3 -25q-1 -4 -1 -16q0 -37 24.5 -57.5t61.5 -20.5q42 0 72.5 25t37.5 74l9 58l65 463h137zM549 786l-45 96l-73 -96h-99l116 161h105h26l69 -161
h-99z" />
    <glyph glyph-name="jcircumflex" unicode="&#x135;" horiz-adv-x="275" 
d="M-82 -109q25 -13 48 -13q28 0 47 17.5t23 51.5l78 548h134l-80 -568q-12 -88 -61 -130t-121 -42q-52 0 -109 23zM248 556l-45 96l-73 -96h-99l116 161h105h26l69 -161h-99z" />
    <glyph glyph-name="Kcommaaccent" unicode="&#x136;" horiz-adv-x="668" 
d="M143 733h137l-51 -354l332 354h180l-335 -362l223 -371h-172l-150 264l-110 -116l-20 -148h-137zM367 -100q0 -48 -33 -82t-79 -34l5 30q21 1 35 13.5t16 29.5q-7 -3 -16 -3q-22 0 -36 13t-14 38q0 26 16.5 43.5t44.5 17.5q26 0 43.5 -16t17.5 -50z" />
    <glyph glyph-name="kcommaaccent" unicode="&#x137;" horiz-adv-x="551" 
d="M39 0l105 747h131l-63 -444l211 193h163l-247 -227l164 -269h-158l-105 179l-51 -48l-19 -131h-131zM306 -100q0 -48 -33 -82t-79 -34l5 30q21 1 35 13.5t16 29.5q-7 -3 -16 -3q-22 0 -36 13t-14 38q0 26 16.5 43.5t44.5 17.5q26 0 43.5 -16t17.5 -50z" />
    <glyph glyph-name="Lacute" unicode="&#x139;" horiz-adv-x="534" 
d="M492 123l-17 -123h-408h-22l103 733h138l-85 -610h291zM169 770l69 145h121l-93 -145h-97z" />
    <glyph glyph-name="lacute" unicode="&#x13a;" horiz-adv-x="250" 
d="M144 747h131l-105 -747h-131zM160 782l69 145h121l-93 -145h-97z" />
    <glyph glyph-name="Lcommaaccent" unicode="&#x13b;" horiz-adv-x="534" 
d="M492 123l-17 -123h-408h-22l103 733h138l-85 -610h291zM326 -100q0 -48 -33 -82t-79 -34l5 30q21 1 35 13.5t16 29.5q-7 -3 -16 -3q-22 0 -36 13t-14 38q0 26 16.5 43.5t44.5 17.5q26 0 43.5 -16t17.5 -50z" />
    <glyph glyph-name="lcommaaccent" unicode="&#x13c;" horiz-adv-x="250" 
d="M144 747h131l-105 -747h-131zM155 -112q0 -48 -33 -82t-79 -34l5 30q21 1 35 13.5t16 29.5q-7 -3 -16 -3q-22 0 -36 13t-14 38q0 26 16.5 43.5t44.5 17.5q26 0 43.5 -16t17.5 -50z" />
    <glyph glyph-name="Lcaron" unicode="&#x13d;" horiz-adv-x="534" 
d="M492 123l-17 -123h-408h-22l103 733h138l-85 -610h291zM506 680q0 -47 -33 -82q-33 -34 -79 -34l5 30q21 1 35 13.5t16 29.5q-7 -3 -16 -3q-22 0 -36 13t-14 38q0 26 16.5 43.5t44.5 17.5q26 0 43.5 -16t17.5 -50z" />
    <glyph glyph-name="lcaron" unicode="&#x13e;" horiz-adv-x="250" 
d="M144 747h131l-105 -747h-131z" />
    <glyph glyph-name="Ldot" unicode="&#x13f;" horiz-adv-x="534" 
d="M492 123l-17 -123h-408h-22l103 733h138l-85 -610h291zM303 380q0 43 28.5 71t70.5 28q37 0 60 -24t23 -60q0 -42 -29.5 -68.5t-71.5 -26.5q-35 0 -58 22t-23 58z" />
    <glyph glyph-name="ldot" unicode="&#x140;" horiz-adv-x="469" 
d="M144 747h131l-105 -747h-131zM263 374q0 45 30 73.5t73 28.5q38 0 62 -24.5t24 -61.5q0 -21 -8.5 -39.5t-23 -32t-33.5 -21t-40 -7.5q-36 0 -60 23.5t-24 60.5z" />
    <glyph glyph-name="Lslash" unicode="&#x141;" horiz-adv-x="534" 
d="M492 123l-17 -123h-408h-22l45 316l-59 -28l14 106l60 28l43 311h138l-33 -240l132 63l-14 -106l-133 -64l-37 -263h291z" />
    <glyph glyph-name="lslash" unicode="&#x142;" horiz-adv-x="283" 
d="M235 439l19 7l-10 -73l-20 -7l-51 -366h-130l44 313l-22 -8l10 73l22 8l50 361h131z" />
    <glyph glyph-name="Nacute" unicode="&#x143;" horiz-adv-x="758" 
d="M148 733h136l262 -513l73 513h135l-103 -733h-135l-263 513l-72 -513h-136zM409 786l69 145h121l-93 -145h-97z" />
    <glyph glyph-name="nacute" unicode="&#x144;" horiz-adv-x="597" 
d="M560 326q0 -21 -3 -45l-40 -281h-130l38 269q1 10 1.5 17t0.5 11q0 51 -26.5 73t-68.5 22q-51 0 -83 -30t-41 -94l-39 -268h-130l70 496h122l-2 -51q20 29 57.5 47.5t85.5 18.5q85 0 136.5 -48.5t51.5 -136.5zM305 556l69 145h121l-93 -145h-97z" />
    <glyph glyph-name="Ncommaaccent" unicode="&#x145;" horiz-adv-x="758" 
d="M148 733h136l262 -513l73 513h135l-103 -733h-135l-263 513l-72 -513h-136zM406 -100q0 -48 -33 -82t-79 -34l5 30q21 1 35 13.5t16 29.5q-7 -3 -16 -3q-22 0 -36 13t-14 38q0 26 16.5 43.5t44.5 17.5q26 0 43.5 -16t17.5 -50z" />
    <glyph glyph-name="ncommaaccent" unicode="&#x146;" horiz-adv-x="597" 
d="M560 326q0 -21 -3 -45l-40 -281h-130l38 269q1 10 1.5 17t0.5 11q0 51 -26.5 73t-68.5 22q-51 0 -83 -30t-41 -94l-39 -268h-130l70 496h122l-2 -51q20 29 57.5 47.5t85.5 18.5q85 0 136.5 -48.5t51.5 -136.5zM327 -100q0 -48 -33 -82t-79 -34l5 30q21 1 35 13.5t16 29.5
q-7 -3 -16 -3q-22 0 -36 13t-14 38q0 26 16.5 43.5t44.5 17.5q26 0 43.5 -16t17.5 -50z" />
    <glyph glyph-name="Ncaron" unicode="&#x147;" horiz-adv-x="758" 
d="M148 733h136l262 -513l73 513h135l-103 -733h-135l-263 513l-72 -513h-136zM644 947l-116 -161h-106h-25l-69 161h99l45 -96l73 96h99z" />
    <glyph glyph-name="ncaron" unicode="&#x148;" horiz-adv-x="597" 
d="M560 326q0 -21 -3 -45l-40 -281h-130l38 269q1 10 1.5 17t0.5 11q0 51 -26.5 73t-68.5 22q-51 0 -83 -30t-41 -94l-39 -268h-130l70 496h122l-2 -51q20 29 57.5 47.5t85.5 18.5q85 0 136.5 -48.5t51.5 -136.5zM541 717l-116 -161h-106h-25l-69 161h99l45 -96l73 96h99z
" />
    <glyph glyph-name="Eng" unicode="&#x14a;" horiz-adv-x="762" 
d="M750 733l-103 -733l-10 -72q-12 -86 -64 -120q-51 -36 -117 -36q-38 0 -71 11l14 112q18 -7 42 -7q30 0 52 14.5t27 46.5l7 51h-14l-261 512l-72 -512h-135l103 733h135l261 -513l72 513h134z" />
    <glyph glyph-name="eng" unicode="&#x14b;" horiz-adv-x="604" 
d="M549 328q0 -14 -1 -26.5t-3 -25.5l-39 -276l-5 -37q-12 -82 -61 -119t-108 -37q-31 0 -55 10l15 106q18 -5 30 -5q20 0 34.5 11.5t18.5 36.5l4 34l38 267q1 5 1.5 13t0.5 18q0 94 -89 94q-22 0 -44 -7t-40 -22t-31 -39.5t-18 -59.5l-37 -264h-127l69 496h121l-3 -48
q25 31 65.5 47t88.5 16q69 0 121 -42q54 -42 54 -141z" />
    <glyph glyph-name="Omacron" unicode="&#x14c;" horiz-adv-x="785" 
d="M442 747q73 0 133 -24t103 -68t66.5 -105t23.5 -136q2 -95 -30.5 -174t-87 -135.5t-126 -87.5t-148.5 -30q-73 0 -133 24t-103 68t-66.5 105t-23.5 136q-1 95 30.5 174t86 135.5t126 87.5t149.5 30zM382 121q47 0 90.5 21t76.5 59t53 91t20 118q0 46 -13 83.5t-37 64.5
t-58.5 41.5t-78.5 14.5q-46 1 -89.5 -19.5t-77 -59t-53.5 -91.5t-19 -117q0 -46 13 -84t37 -65t58.5 -42t77.5 -15zM638 885l-12 -83h-313l11 83h314z" />
    <glyph glyph-name="omacron" unicode="&#x14d;" horiz-adv-x="589" 
d="M320 510q52 0 96.5 -17t77.5 -48.5t52 -77t19 -101.5q1 -55 -20 -106t-58 -89.5t-88 -61t-111 -21.5q-52 0 -97.5 17t-78.5 48.5t-52 76.5t-19 102q-1 56 20.5 106.5t59 89t88.5 61t111 21.5zM292 105q30 0 56 12.5t44.5 34t29.5 51.5t11 64q0 60 -32 93t-86 33
q-31 0 -56.5 -12.5t-44.5 -34.5t-29.5 -51.5t-10.5 -63.5q0 -58 31.5 -92t86.5 -34zM517 655l-12 -83h-313l11 83h314z" />
    <glyph glyph-name="Ohungarumlaut" unicode="&#x150;" horiz-adv-x="785" 
d="M442 747q73 0 133 -24t103 -68t66.5 -105t23.5 -136q2 -95 -30.5 -174t-87 -135.5t-126 -87.5t-148.5 -30q-73 0 -133 24t-103 68t-66.5 105t-23.5 136q-1 95 30.5 174t86 135.5t126 87.5t149.5 30zM382 121q47 0 90.5 21t76.5 59t53 91t20 118q0 46 -13 83.5t-37 64.5
t-58.5 41.5t-78.5 14.5q-46 1 -89.5 -19.5t-77 -59t-53.5 -91.5t-19 -117q0 -46 13 -84t37 -65t58.5 -42t77.5 -15zM331 784l59 145h120l-82 -145h-97zM478 784l84 145h121l-108 -145h-97z" />
    <glyph glyph-name="ohungarumlaut" unicode="&#x151;" horiz-adv-x="589" 
d="M320 510q52 0 96.5 -17t77.5 -48.5t52 -77t19 -101.5q1 -55 -20 -106t-58 -89.5t-88 -61t-111 -21.5q-52 0 -97.5 17t-78.5 48.5t-52 76.5t-19 102q-1 56 20.5 106.5t59 89t88.5 61t111 21.5zM292 105q30 0 56 12.5t44.5 34t29.5 51.5t11 64q0 60 -32 93t-86 33
q-31 0 -56.5 -12.5t-44.5 -34.5t-29.5 -51.5t-10.5 -63.5q0 -58 31.5 -92t86.5 -34zM211 555l59 145h120l-82 -145h-97zM358 555l84 145h121l-108 -145h-97z" />
    <glyph glyph-name="OE" unicode="&#x152;" horiz-adv-x="1134" 
d="M803 598l-26 -185l296 -1l-16 -108l-295 1l-1 -5l-26 -188l329 -1l-17 -111l-328 1v-1h-112l10 70q-52 -43 -116 -65.5t-134 -22.5q-65 -1 -121 24t-97 69t-63.5 103.5t-21.5 127.5q-2 86 30 162.5t87.5 134t129.5 90.5t155 31q70 0 128.5 -26t100.5 -74l12 86h112
l329 -1l-17 -111h-328zM648 393q0 48 -13.5 87.5t-39 67.5t-62 43t-81.5 15q-55 1 -103.5 -21t-84.5 -61.5t-56.5 -93t-19.5 -114.5q0 -47 14 -86.5t39.5 -68t61 -44.5t79.5 -16q58 0 107 22t84 61t55 92.5t20 116.5z" />
    <glyph glyph-name="oe" unicode="&#x153;" horiz-adv-x="942" 
d="M922 296q0 -23 -3 -47l-7 -51h-361q2 -51 33 -75t76 -24q42 0 75.5 18t57.5 50l89 -52q-36 -60 -96 -93.5t-138 -33.5q-63 0 -112 26t-70 69q-34 -45 -86 -70t-115 -25q-49 0 -91 16t-72 45.5t-47 70.5t-17 91q-1 63 20.5 118.5t60 96t91 63t112.5 21.5q66 0 113.5 -24.5
t72.5 -66.5q34 45 84.5 68.5t113.5 23.5q99 0 157 -58q59 -57 59 -157zM696 404q-48 0 -84 -31t-49 -82h231q4 51 -23 82t-75 31zM430 272q0 54 -29 87.5t-80 33.5q-32 0 -59 -12.5t-47 -35t-31.5 -53.5t-11.5 -67q0 -55 29 -87.5t80 -32.5q32 0 59 12.5t47 35t31.5 53
t11.5 66.5z" />
    <glyph glyph-name="Racute" unicode="&#x154;" horiz-adv-x="675" 
d="M670 519q0 -81 -42.5 -140.5t-117.5 -87.5l91 -291h-152l-78 271h-151l-38 -271h-137l103 733h137h159q101 0 163 -56q63 -55 63 -158zM268 612l-31 -221h144q72 0 107.5 35.5t35.5 87.5q0 98 -110 98h-146zM307 786l69 145h121l-93 -145h-97z" />
    <glyph glyph-name="racute" unicode="&#x155;" horiz-adv-x="392" 
d="M357 504q29 0 61 -8l-16 -120q-22 5 -45 5q-63 0 -104.5 -40t-50.5 -106l-33 -235h-130l70 496h121l-1 -59q17 35 51.5 51t76.5 16zM122 557l69 145h121l-93 -145h-97z" />
    <glyph glyph-name="Rcommaaccent" unicode="&#x156;" horiz-adv-x="675" 
d="M670 519q0 -81 -42.5 -140.5t-117.5 -87.5l91 -291h-152l-78 271h-151l-38 -271h-137l103 733h137h159q101 0 163 -56q63 -55 63 -158zM268 612l-31 -221h144q72 0 107.5 35.5t35.5 87.5q0 98 -110 98h-146zM362 -100q0 -48 -33 -82t-79 -34l5 30q21 1 35 13.5t16 29.5
q-7 -3 -16 -3q-22 0 -36 13t-14 38q0 26 16.5 43.5t44.5 17.5q26 0 43.5 -16t17.5 -50z" />
    <glyph glyph-name="rcommaaccent" unicode="&#x157;" horiz-adv-x="392" 
d="M357 504q29 0 61 -8l-16 -120q-22 5 -45 5q-63 0 -104.5 -40t-50.5 -106l-33 -235h-130l70 496h121l-1 -59q17 35 51.5 51t76.5 16zM157 -100q0 -48 -33 -82t-79 -34l5 30q21 1 35 13.5t16 29.5q-7 -3 -16 -3q-22 0 -36 13t-14 38q0 26 16.5 43.5t44.5 17.5
q26 0 43.5 -16t17.5 -50z" />
    <glyph glyph-name="Rcaron" unicode="&#x158;" horiz-adv-x="675" 
d="M670 519q0 -81 -42.5 -140.5t-117.5 -87.5l91 -291h-152l-78 271h-151l-38 -271h-137l103 733h137h159q101 0 163 -56q63 -55 63 -158zM268 612l-31 -221h144q72 0 107.5 35.5t35.5 87.5q0 98 -110 98h-146zM543 947l-116 -161h-106h-25l-69 161h99l45 -96l73 96h99z" />
    <glyph glyph-name="rcaron" unicode="&#x159;" horiz-adv-x="392" 
d="M357 504q29 0 61 -8l-16 -120q-22 5 -45 5q-63 0 -104.5 -40t-50.5 -106l-33 -235h-130l70 496h121l-1 -59q17 35 51.5 51t76.5 16zM358 718l-116 -161h-106h-25l-69 161h99l45 -96l73 96h99z" />
    <glyph glyph-name="Sacute" unicode="&#x15a;" horiz-adv-x="599" 
d="M358 747q108 0 170.5 -50.5t67.5 -132.5l-134 -34q-3 45 -34.5 68t-83.5 23q-58 0 -90.5 -27t-32.5 -69q0 -58 73 -79l106 -31q84 -24 125 -75t41 -124q0 -49 -20.5 -91t-58 -73t-90.5 -48t-118 -17q-112 0 -180 50.5t-76 141.5l133 33q1 -48 36.5 -73t98.5 -25t100 25.5
t37 67.5q0 58 -76 81l-107 33q-81 24 -122 73.5t-41 116.5q0 51 20 94.5t56.5 75t87.5 49t112 17.5zM322 786l69 145h121l-93 -145h-97z" />
    <glyph glyph-name="sacute" unicode="&#x15b;" horiz-adv-x="468" 
d="M220 92q33 0 54.5 13t23.5 38q1 34 -45 46l-61 21q-63 21 -93.5 53t-30.5 81q0 34 13 64t38.5 53t62.5 36.5t85 13.5q78 0 127.5 -35t56.5 -96l-121 -27q1 25 -18 38.5t-48 13.5q-30 0 -49 -14t-20 -36q-1 -18 11.5 -29.5t39.5 -20.5l62 -20q61 -20 91 -52t30 -83
q0 -78 -56.5 -120.5t-152.5 -42.5q-90 0 -141 38.5t-55 102.5l122 20q-2 -26 18 -41t56 -15zM234 562l69 145h121l-93 -145h-97z" />
    <glyph glyph-name="Scircumflex" unicode="&#x15c;" horiz-adv-x="599" 
d="M358 747q108 0 170.5 -50.5t67.5 -132.5l-134 -34q-3 45 -34.5 68t-83.5 23q-58 0 -90.5 -27t-32.5 -69q0 -58 73 -79l106 -31q84 -24 125 -75t41 -124q0 -49 -20.5 -91t-58 -73t-90.5 -48t-118 -17q-112 0 -180 50.5t-76 141.5l133 33q1 -48 36.5 -73t98.5 -25t100 25.5
t37 67.5q0 58 -76 81l-107 33q-81 24 -122 73.5t-41 116.5q0 51 20 94.5t56.5 75t87.5 49t112 17.5zM435 786l-45 96l-73 -96h-99l116 161h105h26l69 -161h-99z" />
    <glyph glyph-name="scircumflex" unicode="&#x15d;" horiz-adv-x="468" 
d="M220 92q33 0 54.5 13t23.5 38q1 34 -45 46l-61 21q-63 21 -93.5 53t-30.5 81q0 34 13 64t38.5 53t62.5 36.5t85 13.5q78 0 127.5 -35t56.5 -96l-121 -27q1 25 -18 38.5t-48 13.5q-30 0 -49 -14t-20 -36q-1 -18 11.5 -29.5t39.5 -20.5l62 -20q61 -20 91 -52t30 -83
q0 -78 -56.5 -120.5t-152.5 -42.5q-90 0 -141 38.5t-55 102.5l122 20q-2 -26 18 -41t56 -15zM347 562l-45 96l-73 -96h-99l116 161h105h26l69 -161h-99z" />
    <glyph glyph-name="Scedilla" unicode="&#x15e;" horiz-adv-x="599" 
d="M566 216q0 -46 -18 -86t-51 -70t-80 -49t-105 -23l-28 -23h34q31 0 48.5 -19.5t17.5 -49.5q0 -42 -24.5 -67.5t-63.5 -25.5h-111l8 58h90q12 0 21 7t9 19q0 20 -24 20h-90l9 59l26 24q-94 10 -149 59t-62 130l133 33q1 -48 36.5 -73t98.5 -25t100 25.5t37 67.5
q0 58 -76 81l-107 33q-81 24 -122 73.5t-41 116.5q0 51 20 94.5t56.5 75t87.5 49t112 17.5q108 0 170.5 -50.5t67.5 -132.5l-134 -34q-3 45 -34.5 68t-83.5 23q-58 0 -90.5 -27t-32.5 -69q0 -58 73 -79l106 -31q84 -24 125 -75t41 -124z" />
    <glyph glyph-name="scedilla" unicode="&#x15f;" horiz-adv-x="468" 
d="M429 150q0 -72 -50 -114.5t-137 -47.5l-32 -27h34q31 0 48.5 -19.5t17.5 -49.5q0 -42 -24.5 -67.5t-63.5 -25.5h-111l8 58h90q12 0 21 7t9 19q0 20 -24 20h-90l9 59l32 29q-66 11 -102.5 47t-39.5 90l122 20q-2 -26 18 -41t56 -15q33 0 54.5 13t23.5 38q1 34 -45 46
l-61 21q-63 21 -93.5 53t-30.5 81q0 34 13 64t38.5 53t62.5 36.5t85 13.5q78 0 127.5 -35t56.5 -96l-121 -27q1 25 -18 38.5t-48 13.5q-30 0 -49 -14t-20 -36q-1 -18 11.5 -29.5t39.5 -20.5l62 -20q61 -20 91 -52t30 -83z" />
    <glyph glyph-name="Scaron" unicode="&#x160;" horiz-adv-x="599" 
d="M358 747q108 0 170.5 -50.5t67.5 -132.5l-134 -34q-3 45 -34.5 68t-83.5 23q-58 0 -90.5 -27t-32.5 -69q0 -58 73 -79l106 -31q84 -24 125 -75t41 -124q0 -49 -20.5 -91t-58 -73t-90.5 -48t-118 -17q-112 0 -180 50.5t-76 141.5l133 33q1 -48 36.5 -73t98.5 -25t100 25.5
t37 67.5q0 58 -76 81l-107 33q-81 24 -122 73.5t-41 116.5q0 51 20 94.5t56.5 75t87.5 49t112 17.5zM557 947l-116 -161h-106h-25l-69 161h99l45 -96l73 96h99z" />
    <glyph glyph-name="scaron" unicode="&#x161;" horiz-adv-x="468" 
d="M220 92q33 0 54.5 13t23.5 38q1 34 -45 46l-61 21q-63 21 -93.5 53t-30.5 81q0 34 13 64t38.5 53t62.5 36.5t85 13.5q78 0 127.5 -35t56.5 -96l-121 -27q1 25 -18 38.5t-48 13.5q-30 0 -49 -14t-20 -36q-1 -18 11.5 -29.5t39.5 -20.5l62 -20q61 -20 91 -52t30 -83
q0 -78 -56.5 -120.5t-152.5 -42.5q-90 0 -141 38.5t-55 102.5l122 20q-2 -26 18 -41t56 -15zM469 723l-116 -161h-106h-25l-69 161h99l45 -96l73 96h99z" />
    <glyph glyph-name="uni0162" unicode="&#x162;" horiz-adv-x="582" 
d="M617 604h-206l-85 -604h-136l84 604h-207l19 129h549zM166 -141h90q12 0 21 7t9 19q0 20 -24 20h-90l9 59l66 60h49l-4 -32l-35 -29h34q31 0 48.5 -19.5t17.5 -49.5q0 -42 -24.5 -67.5t-63.5 -25.5h-111z" />
    <glyph glyph-name="uni0163" unicode="&#x163;" horiz-adv-x="365" 
d="M367 384h-95l-54 -384h-129l54 384h-95l16 112h94l22 154h129l-21 -154h94zM62 -134h90q12 0 21 7t9 19q0 20 -24 20h-90l9 59l66 60h49l-4 -32l-35 -29h34q31 0 48.5 -19.5t17.5 -49.5q0 -42 -24.5 -67.5t-63.5 -25.5h-111z" />
    <glyph glyph-name="Tcaron" unicode="&#x164;" horiz-adv-x="582" 
d="M617 604h-206l-85 -604h-136l84 604h-207l19 129h549zM550 947l-116 -161h-106h-25l-69 161h99l45 -96l73 96h99z" />
    <glyph glyph-name="tcaron" unicode="&#x165;" horiz-adv-x="402" 
d="M455 714q0 -7 -3 -18l-41 -155h-63l3 155q0 27 18.5 43.5t41.5 16.5q18 0 31 -11t13 -31zM288 496h94l-15 -112h-95l-54 -384h-129l54 384h-95l16 112h95l21 154h129z" />
    <glyph glyph-name="Tbar" unicode="&#x166;" horiz-adv-x="582" 
d="M411 604l-24 -172h143l-17 -116h-142l-45 -316h-136l44 316h-144l17 116h143l24 172h-207l19 129h549l-18 -129h-206z" />
    <glyph glyph-name="tbar" unicode="&#x167;" horiz-adv-x="366" 
d="M272 384l-12 -83h97l-16 -112h-96l-27 -189h-129l26 189h-92l15 112h93l12 83h-95l16 112h94l22 154h129l-21 -154h94l-15 -112h-95z" />
    <glyph glyph-name="Utilde" unicode="&#x168;" horiz-adv-x="729" 
d="M143 733h137l-62 -439q-3 -19 -3 -37q0 -72 40.5 -105.5t103.5 -33.5q75 0 122.5 43t59.5 130l62 442h137l-66 -470q-20 -135 -105 -205t-213 -70q-59 0 -110 16.5t-88.5 49t-59 80t-21.5 110.5q0 16 1 30.5t3 28.5zM392 952q22 0 39.5 -7t40.5 -21q17 -11 30 -16.5
t26 -5.5q19 0 28.5 12t9.5 33h82q2 -67 -35 -104q-34 -36 -84 -36q-24 0 -42.5 7.5t-43.5 21.5q-16 10 -27.5 15t-22.5 5q-34 0 -37 -49h-82q-1 35 9 61.5t26.5 45.5t38.5 28.5t44 9.5z" />
    <glyph glyph-name="utilde" unicode="&#x169;" horiz-adv-x="597" 
d="M586 496l-69 -496h-121l1 47q-26 -29 -66.5 -44.5t-85.5 -15.5q-75 0 -128 39q-52 39 -52 132q0 13 1 25.5t3 24.5l41 288h131l-38 -276q-1 -10 -1.5 -16.5t-0.5 -10.5q0 -26 7.5 -43t20.5 -27.5t29 -15t34 -4.5q21 0 41.5 6.5t37.5 21t29.5 37t16.5 53.5l39 275h130z
M300 722q22 0 39.5 -7t40.5 -21q17 -11 30 -16.5t26 -5.5q19 0 28.5 12t9.5 33h82q2 -67 -35 -104q-34 -36 -84 -36q-24 0 -42.5 7.5t-43.5 21.5q-16 10 -27.5 15t-22.5 5q-34 0 -37 -49h-82q-1 35 9 61.5t26.5 45.5t38.5 28.5t44 9.5z" />
    <glyph glyph-name="Umacron" unicode="&#x16a;" horiz-adv-x="729" 
d="M143 733h137l-62 -439q-3 -19 -3 -37q0 -72 40.5 -105.5t103.5 -33.5q75 0 122.5 43t59.5 130l62 442h137l-66 -470q-20 -135 -105 -205t-213 -70q-59 0 -110 16.5t-88.5 49t-59 80t-21.5 110.5q0 16 1 30.5t3 28.5zM620 885l-12 -83h-313l11 83h314z" />
    <glyph glyph-name="umacron" unicode="&#x16b;" horiz-adv-x="597" 
d="M586 496l-69 -496h-121l1 47q-26 -29 -66.5 -44.5t-85.5 -15.5q-75 0 -128 39q-52 39 -52 132q0 13 1 25.5t3 24.5l41 288h131l-38 -276q-1 -10 -1.5 -16.5t-0.5 -10.5q0 -26 7.5 -43t20.5 -27.5t29 -15t34 -4.5q21 0 41.5 6.5t37.5 21t29.5 37t16.5 53.5l39 275h130z
M527 655l-12 -83h-313l11 83h314z" />
    <glyph glyph-name="Uring" unicode="&#x16e;" horiz-adv-x="729" 
d="M143 733h137l-62 -439q-3 -19 -3 -37q0 -72 40.5 -105.5t103.5 -33.5q75 0 122.5 43t59.5 130l62 442h137l-66 -470q-20 -135 -105 -205t-213 -70q-59 0 -110 16.5t-88.5 49t-59 80t-21.5 110.5q0 16 1 30.5t3 28.5zM335 886q0 30 12.5 56.5t33 46.5t47.5 32t56 12
q24 0 45 -9t36 -25t23.5 -37t8.5 -45q0 -29 -12.5 -55t-33.5 -46t-48 -32t-56 -12q-49 0 -80.5 32.5t-31.5 81.5zM523 910q0 21 -14 35t-35 14q-27 0 -46 -18t-19 -45q0 -22 13.5 -36t35.5 -14q27 0 46 18.5t19 45.5z" />
    <glyph glyph-name="uring" unicode="&#x16f;" horiz-adv-x="597" 
d="M586 496l-69 -496h-121l1 47q-26 -29 -66.5 -44.5t-85.5 -15.5q-75 0 -128 39q-52 39 -52 132q0 13 1 25.5t3 24.5l41 288h131l-38 -276q-1 -10 -1.5 -16.5t-0.5 -10.5q0 -26 7.5 -43t20.5 -27.5t29 -15t34 -4.5q21 0 41.5 6.5t37.5 21t29.5 37t16.5 53.5l39 275h130z
M242 656q0 30 12.5 56.5t33 46.5t47.5 32t56 12q24 0 45 -9t36 -25t23.5 -37t8.5 -45q0 -29 -12.5 -55t-33.5 -46t-48 -32t-56 -12q-49 0 -80.5 32.5t-31.5 81.5zM430 680q0 21 -14 35t-35 14q-27 0 -46 -18t-19 -45q0 -22 13.5 -36t35.5 -14q27 0 46 18.5t19 45.5z" />
    <glyph glyph-name="Uhungarumlaut" unicode="&#x170;" horiz-adv-x="729" 
d="M143 733h137l-62 -439q-3 -19 -3 -37q0 -72 40.5 -105.5t103.5 -33.5q75 0 122.5 43t59.5 130l62 442h137l-66 -470q-20 -135 -105 -205t-213 -70q-59 0 -110 16.5t-88.5 49t-59 80t-21.5 110.5q0 16 1 30.5t3 28.5zM321 786l59 145h120l-82 -145h-97zM468 786l84 145
h121l-108 -145h-97z" />
    <glyph glyph-name="uhungarumlaut" unicode="&#x171;" horiz-adv-x="597" 
d="M586 496l-69 -496h-121l1 47q-26 -29 -66.5 -44.5t-85.5 -15.5q-75 0 -128 39q-52 39 -52 132q0 13 1 25.5t3 24.5l41 288h131l-38 -276q-1 -10 -1.5 -16.5t-0.5 -10.5q0 -26 7.5 -43t20.5 -27.5t29 -15t34 -4.5q21 0 41.5 6.5t37.5 21t29.5 37t16.5 53.5l39 275h130z
M229 556l59 145h120l-82 -145h-97zM376 556l84 145h121l-108 -145h-97z" />
    <glyph glyph-name="Uogonek" unicode="&#x172;" horiz-adv-x="729" 
d="M740 733l-66 -470q-18 -130 -98 -200t-203 -75q-33 -15 -49.5 -35t-16.5 -39q0 -14 9.5 -23t25.5 -9q13 0 28 6l-12 -87q-29 -10 -56 -10q-42 0 -65.5 23.5t-23.5 59.5q0 35 23 67.5t66 50.5q-102 14 -163.5 78.5t-61.5 174.5q0 16 1 30t3 28l62 430h137l-62 -439
q-3 -19 -3 -37q0 -72 40.5 -105.5t103.5 -33.5q75 0 122.5 43t59.5 130l62 442h137z" />
    <glyph glyph-name="uogonek" unicode="&#x173;" horiz-adv-x="597" 
d="M442 -81q0 -14 9.5 -23t25.5 -9q13 0 28 6l-12 -87q-29 -10 -56 -10q-42 0 -65.5 23.5t-23.5 59.5t25 70t73 51h-50l1 47q-26 -29 -66.5 -44.5t-85.5 -15.5q-75 0 -128 39q-52 39 -52 132q0 13 1 25.5t3 24.5l41 288h131l-38 -276q-1 -10 -1.5 -16.5t-0.5 -10.5
q0 -26 7.5 -43t20.5 -27.5t29 -15t34 -4.5q21 0 41.5 6.5t37.5 21t29.5 37t16.5 53.5l39 275h130l-69 -496h8q-40 -14 -61.5 -37t-21.5 -44z" />
    <glyph glyph-name="Wcircumflex" unicode="&#x174;" horiz-adv-x="1037" 
d="M1094 733l-326 -733h-133l-82 489l-222 -489h-134l-117 733h150l69 -495l214 495h151l72 -497l212 497h146zM654 786l-45 96l-73 -96h-99l116 161h105h26l69 -161h-99z" />
    <glyph glyph-name="wcircumflex" unicode="&#x175;" horiz-adv-x="811" 
d="M845 496l-243 -496h-122l-57 302l-145 -302h-127l-97 496h136l47 -307l140 307h134l50 -311l138 311h146zM519 555l-45 96l-73 -96h-99l116 161h105h26l69 -161h-99z" />
    <glyph glyph-name="Ycircumflex" unicode="&#x176;" horiz-adv-x="654" 
d="M232 733l117 -309l217 309h149l-311 -442l-41 -291h-137l40 291l-188 442h154zM465 786l-45 96l-73 -96h-99l116 161h105h26l69 -161h-99z" />
    <glyph glyph-name="ycircumflex" unicode="&#x177;" horiz-adv-x="580" 
d="M616 496l-328 -617q-34 -66 -82.5 -95t-103.5 -29q-61 0 -114 29l49 113q31 -19 61 -19q24 0 44 12.5t33 36.5l24 48l-146 521h138l90 -361l186 361h149zM405 556l-45 96l-73 -96h-99l116 161h105h26l69 -161h-99z" />
    <glyph glyph-name="Ydieresis" unicode="&#x178;" horiz-adv-x="654" 
d="M232 733l117 -309l217 309h149l-311 -442l-41 -291h-137l40 291l-188 442h154zM236 858q0 34 26 59t61 25q28 0 47 -19.5t19 -47.5q0 -16 -7.5 -31.5t-19.5 -27t-27.5 -18.5t-32.5 -7q-29 0 -47.5 19.5t-18.5 47.5zM447 858q0 17 7.5 32t19.5 26.5t27.5 18.5t32.5 7
q28 0 47.5 -19.5t19.5 -47.5q0 -33 -27 -59q-26 -25 -61 -25q-28 0 -47 19.5t-19 47.5z" />
    <glyph glyph-name="Zacute" unicode="&#x179;" horiz-adv-x="562" 
d="M22 131l403 471l-336 -1l18 132h495l-18 -130l-404 -472h333l-18 -131h-491zM309 786l69 145h121l-93 -145h-97z" />
    <glyph glyph-name="zacute" unicode="&#x17a;" horiz-adv-x="487" 
d="M33 117l271 263h-234l16 116h404l-17 -117l-276 -263h239l-16 -116h-403zM242 556l69 145h121l-93 -145h-97z" />
    <glyph glyph-name="Zdotaccent" unicode="&#x17b;" horiz-adv-x="562" 
d="M22 131l403 471l-336 -1l18 132h495l-18 -130l-404 -472h333l-18 -131h-491zM298 858q0 17 7 32t19 26.5t27.5 18.5t32.5 7q28 0 47 -19.5t19 -47.5q0 -16 -7.5 -31.5t-19.5 -27t-27.5 -18.5t-32.5 -7q-28 0 -46.5 19t-18.5 48z" />
    <glyph glyph-name="zdotaccent" unicode="&#x17c;" horiz-adv-x="487" 
d="M33 117l271 263h-234l16 116h404l-17 -117l-276 -263h239l-16 -116h-403zM232 628q0 17 7 32t19 26.5t27.5 18.5t32.5 7q28 0 47 -19.5t19 -47.5q0 -16 -7.5 -31.5t-19.5 -27t-27.5 -18.5t-32.5 -7q-28 0 -46.5 19t-18.5 48z" />
    <glyph glyph-name="Zcaron" unicode="&#x17d;" horiz-adv-x="562" 
d="M22 131l403 471l-336 -1l18 132h495l-18 -130l-404 -472h333l-18 -131h-491zM544 947l-116 -161h-106h-25l-69 161h99l45 -96l73 96h99z" />
    <glyph glyph-name="zcaron" unicode="&#x17e;" horiz-adv-x="487" 
d="M33 117l271 263h-234l16 116h404l-17 -117l-276 -263h239l-16 -116h-403zM478 717l-116 -161h-106h-25l-69 161h99l45 -96l73 96h99z" />
    <glyph glyph-name="florin" unicode="&#x192;" horiz-adv-x="629" 
d="M465 572l-21 -77h147l-15 -107h-162l-8 -29h-1l-115 -412q-21 -72 -64.5 -104.5t-100.5 -32.5h-121l15 119h76q28 0 47.5 14.5t27.5 43.5l105 372l8 29h-138l15 107h153l28 99q20 74 63 111.5t128 37.5h102l-16 -119h-82q-30 0 -46.5 -12t-24.5 -40z" />
    <glyph glyph-name="Aringacute" unicode="&#x1fa;" horiz-adv-x="665" 
d="M498 943h-97l69 145h121zM622 0h-143l-34 166h-251l-81 -166h-138l344 706q-22 29 -22 70q0 30 12.5 56.5t33 46.5t47.5 32t56 12q24 0 44.5 -9t35.5 -25t23.5 -37t8.5 -45q0 -40 -23.5 -75.5t-61.5 -54.5zM371 786q0 -22 13 -36t35 -14q27 0 46 18.5t19 45.5
q0 21 -13.5 35t-35.5 14q-27 0 -45.5 -18t-18.5 -45zM423 284l-51 249l-122 -249h173z" />
    <glyph glyph-name="aringacute" unicode="&#x1fb;" horiz-adv-x="618" 
d="M398 718h-92l66 129h115zM608 496l-69 -496h-122l4 59q-25 -34 -69 -52t-92 -18q-51 0 -91.5 17t-69 48t-44 73.5t-15.5 93.5q0 103 48 176t129 100q-13 25 -13 55t12.5 56.5t33 46.5t47.5 32t56 12q24 0 45 -9t36 -25t23.5 -37t8.5 -45q0 -29 -12.5 -55.5t-34.5 -46.5
q35 -20 54 -50l15 65h120zM278 562q0 -22 13.5 -36t35.5 -14q27 0 46 18.5t19 45.5q0 21 -14 35t-35 14q-27 0 -46 -18t-19 -45zM439 262q0 60 -35.5 94.5t-87.5 34.5q-29 0 -55 -12.5t-45.5 -33.5t-31 -50t-11.5 -62q0 -61 33.5 -95.5t85.5 -34.5q31 0 57.5 12.5t46.5 34.5
t31.5 50.5t11.5 61.5z" />
    <glyph glyph-name="AEacute" unicode="&#x1fc;" horiz-adv-x="957" 
d="M612 603l-24 -170l296 -1l-18 -125l-296 1l-25 -178l332 -1l-21 -129l-329 1v-1h-129l25 176h-202l-92 -176h-154l394 732h141h120h331l-20 -130zM483 603h-40l-161 -310h157zM589 786l69 145h121l-93 -145h-97z" />
    <glyph glyph-name="aeacute" unicode="&#x1fd;" horiz-adv-x="863" 
d="M844 300q0 -13 -0.5 -23t-1.5 -17l-9 -60h-365q1 -48 31.5 -74.5t79.5 -26.5q42 0 76 18.5t58 49.5l90 -52q-37 -63 -101 -95t-139 -32q-63 0 -107.5 23.5t-65.5 63.5q-27 -40 -75.5 -63.5t-108.5 -23.5q-76 0 -129 39q-52 39 -52 112q0 35 13 64t36 51t55 34t71 12h109
q22 0 33.5 9t11.5 30q0 33 -26 48.5t-60 15.5q-79 0 -126 -72l-88 54q38 63 94 94.5t125 31.5q60 0 104.5 -23t65.5 -59q34 38 84.5 60t107.5 22q100 0 154.5 -57t54.5 -154zM615 404q-48 0 -84.5 -29.5t-50.5 -80.5h235q4 48 -24 79t-76 31zM224 209q-39 0 -58.5 -18
t-19.5 -46q0 -27 20.5 -43t59.5 -16q51 0 82 26.5t41 77.5q2 15 3 19h-128zM422 556l69 145h121l-93 -145h-97z" />
    <glyph glyph-name="Oslashacute" unicode="&#x1fe;" horiz-adv-x="793" 
d="M760 415q2 -95 -30 -174.5t-86.5 -136.5t-126 -88t-148.5 -29q-70 0 -131 23l-17 -28h-129l53 85q-49 45 -76 110t-27 144q-1 95 31 174t86.5 135.5t126 87.5t148.5 30q65 0 123 -20l16 25h129l-50 -79q52 -45 80 -111t28 -148zM482 607q-22 7 -55 7q-47 0 -90 -20.5
t-76 -58t-53 -90.5t-20 -118q0 -79 37 -132zM614 411q0 83 -41 136l-259 -416q27 -9 60 -9q47 0 90.5 21t76.5 59t53 91t20 118zM336 774l69 145h121l-93 -145h-97z" />
    <glyph glyph-name="oslashacute" unicode="&#x1ff;" horiz-adv-x="589" 
d="M504 435q61 -67 61 -168q1 -56 -20 -107t-58 -89.5t-88 -61t-111 -21.5q-59 0 -107 20l-43 -57h-118l84 109q-63 66 -63 173q-1 55 20.5 105.5t59 89t88.5 61t111 21.5q59 0 111 -23l41 54h112zM355 388q-22 5 -40 5q-31 0 -56.5 -12.5t-44.5 -34.5t-29.5 -51.5
t-10.5 -63.5q0 -37 12 -63zM257 109q13 -4 34 -4q30 0 56 12.5t45 34.5t30 52t11 64q0 31 -11 59zM292 556l69 145h121l-93 -145h-97z" />
    <glyph glyph-name="Scommaaccent" unicode="&#x218;" horiz-adv-x="599" 
d="M358 747q108 0 170.5 -50.5t67.5 -132.5l-134 -34q-3 45 -34.5 68t-83.5 23q-58 0 -90.5 -27t-32.5 -69q0 -58 73 -79l106 -31q84 -24 125 -75t41 -124q0 -49 -20.5 -91t-58 -73t-90.5 -48t-118 -17q-112 0 -180 50.5t-76 141.5l133 33q1 -48 36.5 -73t98.5 -25t100 25.5
t37 67.5q0 58 -76 81l-107 33q-81 24 -122 73.5t-41 116.5q0 51 20 94.5t56.5 75t87.5 49t112 17.5zM338 -98q0 -48 -33 -82t-79 -34l5 30q21 1 35 13.5t16 29.5q-7 -3 -16 -3q-22 0 -36 13t-14 38q0 26 16.5 43.5t44.5 17.5q26 0 43.5 -16t17.5 -50z" />
    <glyph glyph-name="scommaaccent" unicode="&#x219;" horiz-adv-x="468" 
d="M220 92q33 0 54.5 13t23.5 38q1 34 -45 46l-61 21q-63 21 -93.5 53t-30.5 81q0 34 13 64t38.5 53t62.5 36.5t85 13.5q78 0 127.5 -35t56.5 -96l-121 -27q1 25 -18 38.5t-48 13.5q-30 0 -49 -14t-20 -36q-1 -18 11.5 -29.5t39.5 -20.5l62 -20q61 -20 91 -52t30 -83
q0 -78 -56.5 -120.5t-152.5 -42.5q-90 0 -141 38.5t-55 102.5l122 20q-2 -26 18 -41t56 -15zM263 -102q0 -48 -33 -82t-79 -34l5 30q21 1 35 13.5t16 29.5q-7 -3 -16 -3q-22 0 -36 13t-14 38q0 26 16.5 43.5t44.5 17.5q26 0 43.5 -16t17.5 -50z" />
    <glyph glyph-name="uni021A" unicode="&#x21a;" horiz-adv-x="582" 
d="M617 604h-206l-85 -604h-136l84 604h-207l19 129h549zM310 -100q0 -48 -33 -82t-79 -34l5 30q21 1 35 13.5t16 29.5q-7 -3 -16 -3q-22 0 -36 13t-14 38q0 26 16.5 43.5t44.5 17.5q26 0 43.5 -16t17.5 -50z" />
    <glyph glyph-name="uni021B" unicode="&#x21b;" horiz-adv-x="365" 
d="M367 384h-95l-54 -384h-129l54 384h-95l16 112h94l22 154h129l-21 -154h94zM207 -94q0 -48 -33 -82t-79 -34l5 30q21 1 35 13.5t16 29.5q-7 -3 -16 -3q-22 0 -36 13t-14 38q0 26 16.5 43.5t44.5 17.5q26 0 43.5 -16t17.5 -50z" />
    <glyph glyph-name="uni0237" unicode="&#x237;" horiz-adv-x="275" 
d="M-82 -109q25 -13 48 -13q28 0 47 17.5t23 51.5l78 548h134l-80 -568q-12 -88 -61 -130t-121 -42q-52 0 -109 23z" />
    <glyph glyph-name="circumflex" unicode="&#x2c6;" horiz-adv-x="392" 
d="M365 770l-45 96l-73 -96h-99l116 161h105h26l69 -161h-99z" />
    <glyph glyph-name="caron" unicode="&#x2c7;" horiz-adv-x="388" 
d="M478 931l-116 -161h-106h-25l-69 161h99l45 -96l73 96h99z" />
    <glyph glyph-name="breve" unicode="&#x2d8;" horiz-adv-x="398" 
d="M307 770q-34 0 -63 11t-49 30t-31.5 46t-11.5 58q0 16 1 21h98q-4 -34 16 -52.5t54 -18.5q33 0 57.5 19t30.5 52h97q-5 -34 -23.5 -64.5t-45.5 -53t-60.5 -35.5t-69.5 -13z" />
    <glyph glyph-name="dotaccent" unicode="&#x2d9;" horiz-adv-x="192" 
d="M139 842q0 34 26 59t61 25q28 0 47 -19.5t19 -47.5q0 -16 -7.5 -31.5t-19.5 -27t-27.5 -18.5t-32.5 -7q-29 0 -47.5 19.5t-18.5 47.5z" />
    <glyph glyph-name="ring" unicode="&#x2da;" horiz-adv-x="291" 
d="M136 870q0 30 12.5 56.5t33 46.5t47.5 32t55 12q24 0 45 -9t36 -25t23.5 -37t8.5 -45q0 -29 -12.5 -55t-33 -46t-47.5 -32t-56 -12q-49 0 -80.5 32.5t-31.5 81.5zM323 894q0 21 -13.5 35t-35.5 14q-27 0 -45.5 -18t-18.5 -45q0 -22 13 -36t35 -14q27 0 46 18.5t19 45.5z
" />
    <glyph glyph-name="ogonek" unicode="&#x2db;" horiz-adv-x="505" 
d="M320 0q-40 -14 -61.5 -37t-21.5 -44q0 -14 9.5 -23t25.5 -9q13 0 28 6l-12 -87q-29 -10 -56 -10q-42 0 -65.5 23.5t-23.5 59.5t25 70t73 51h79z" />
    <glyph glyph-name="tilde" unicode="&#x2dc;" horiz-adv-x="416" 
d="M256 936q22 0 39.5 -7t40.5 -21q17 -11 30 -16.5t26 -5.5q19 0 28.5 12t9.5 33h82q2 -67 -35 -104q-34 -36 -84 -36q-24 0 -42.5 7.5t-43.5 21.5q-16 10 -27.5 15t-22.5 5q-34 0 -37 -49h-82q-1 35 9 61.5t26.5 45.5t38.5 28.5t44 9.5z" />
    <glyph glyph-name="hungarumlaut" unicode="&#x2dd;" horiz-adv-x="440" 
d="M36 770l59 145h120l-82 -145h-97zM183 770l84 145h121l-108 -145h-97z" />
    <glyph glyph-name="gravecomb" unicode="&#x300;" 
d="M-246 938h121l85 -168h-97z" />
    <glyph glyph-name="acutecomb" unicode="&#x301;" 
d="M-215 770l69 145h121l-93 -145h-97z" />
    <glyph glyph-name="uni0302" unicode="&#x302;" 
d="M-31 770l-45 96l-73 -96h-99l116 161h105h26l69 -161h-99z" />
    <glyph glyph-name="tildecomb" unicode="&#x303;" 
d="M-155 936q22 0 39.5 -7t40.5 -21q17 -11 30 -16.5t26 -5.5q19 0 28.5 12t9.5 33h82q2 -67 -35 -104q-34 -36 -84 -36q-24 0 -42.5 7.5t-43.5 21.5q-16 10 -27.5 15t-22.5 5q-34 0 -37 -49h-82q-1 35 9 61.5t26.5 45.5t38 28.5t44.5 9.5z" />
    <glyph glyph-name="uni0304" unicode="&#x304;" 
d="M105 903l-12 -84h-314l12 84h314z" />
    <glyph glyph-name="uni0306" unicode="&#x306;" 
d="M-145 940q-1 -3 -1 -13q0 -30 19.5 -46t51.5 -16q34 0 58.5 19.5t30.5 55.5h97q-5 -35 -23 -66t-45 -54t-61 -36.5t-71 -13.5q-35 0 -63.5 11t-48.5 30t-31.5 46t-11.5 58q0 4 0.5 10t1.5 15h97z" />
    <glyph glyph-name="uni0307" unicode="&#x307;" 
d="M-206 842q0 17 7 32t19 26.5t27.5 18.5t32.5 7q28 0 47 -19.5t19 -47.5q0 -16 -7.5 -31.5t-19.5 -27t-28 -18.5t-32 -7q-28 0 -46.5 19t-18.5 48z" />
    <glyph glyph-name="uni0308" unicode="&#x308;" 
d="M-334 849q0 32 23 54.5t55 22.5q30 0 52 -21.5t22 -52.5t-23 -54t-54 -23t-53 22t-22 52zM-134 849q0 31 23 54t54 23t52.5 -22t21.5 -52q0 -31 -23 -54t-54 -23t-52.5 21.5t-21.5 52.5z" />
    <glyph glyph-name="uni030A" unicode="&#x30a;" 
d="M-148 870q0 30 12.5 56.5t33 46.5t47.5 32t56 12q24 0 45 -9t36 -25t23.5 -37t8.5 -45q0 -29 -12.5 -55t-33.5 -46t-48.5 -32t-55.5 -12q-49 0 -80.5 32.5t-31.5 81.5zM40 894q0 21 -14 35t-35 14q-27 0 -46 -18t-19 -45q0 -22 13.5 -36t35.5 -14q27 0 46 18.5t19 45.5z
" />
    <glyph glyph-name="uni030B" unicode="&#x30b;" 
d="M-409 770l85 168h121l-109 -168h-97zM-268 770l111 168h121l-135 -168h-97z" />
    <glyph glyph-name="uni030C" unicode="&#x30c;" 
d="M-8 938l-96 -168h-106h-25l-89 168h99l57 -100l60 100h100z" />
    <glyph glyph-name="uni0312" unicode="&#x312;" 
d="M69 841q-1 -25 -17.5 -42t-44.5 -17q-25 0 -43 16t-18 50q0 48 34 82q33 35 79 35l-5 -31q-22 0 -36 -13t-16 -30q9 3 17 3q22 0 36 -14t14 -39z" />
    <glyph glyph-name="uni0326" unicode="&#x326;" 
d="M-57 -98q0 -48 -33 -82t-79 -34l5 30q21 1 35 13.5t16 29.5q-8 -3 -16 -3q-22 0 -36 13t-14 38q0 26 16.5 43.5t44.5 17.5q26 0 43.5 -16t17.5 -50z" />
    <glyph glyph-name="uni0327" unicode="&#x327;" 
d="M-284 -134h90q12 0 21 7t9 19q0 20 -24 20h-90l9 59l66 60h49l-4 -32l-35 -29h34q31 0 48.5 -19.5t17.5 -49.5q0 -42 -24.5 -67.5t-63.5 -25.5h-111z" />
    <glyph glyph-name="uni0338" unicode="&#x338;" 
d="M-546 -43l452 590h112l-446 -590h-118z" />
    <glyph glyph-name="uni03A9" unicode="&#x3a9;" horiz-adv-x="660" 
d="M605 98v-98h-234v98q54 22 82 66t28 98q0 31 -11 56.5t-30 44t-45.5 28.5t-58.5 10q-63 0 -104 -38.5t-41 -101.5q0 -57 29.5 -100.5t80.5 -62.5v-98h-235v98h88q-76 73 -76 176q0 48 19 91.5t53 75.5t82 51t105 19q58 0 105.5 -18.5t81 -51t51.5 -75.5t18 -91
q0 -104 -76 -177h88z" />
    <glyph glyph-name="pi" unicode="&#x3c0;" horiz-adv-x="659" 
d="M619 388h-97q1 -40 1 -97.5v-133.5q0 -25 11.5 -32t35.5 -7l49 -1v-117l-118 1q-55 0 -82 36.5t-27 99.5v251h-159v-388h-129v388h-89v107h218h289h97v-107z" />
    <glyph glyph-name="Wgrave" unicode="&#x1e80;" horiz-adv-x="1037" 
d="M1094 733l-326 -733h-133l-82 489l-222 -489h-134l-117 733h150l69 -495l214 495h151l72 -497l212 497h146zM445 931h121l73 -145h-97z" />
    <glyph glyph-name="wgrave" unicode="&#x1e81;" horiz-adv-x="811" 
d="M845 496l-243 -496h-122l-57 302l-145 -302h-127l-97 496h136l47 -307l140 307h134l50 -311l138 311h146zM309 700h121l73 -145h-97z" />
    <glyph glyph-name="Wacute" unicode="&#x1e82;" horiz-adv-x="1037" 
d="M1094 733l-326 -733h-133l-82 489l-222 -489h-134l-117 733h150l69 -495l214 495h151l72 -497l212 497h146zM542 786l69 145h121l-93 -145h-97z" />
    <glyph glyph-name="wacute" unicode="&#x1e83;" horiz-adv-x="811" 
d="M845 496l-243 -496h-122l-57 302l-145 -302h-127l-97 496h136l47 -307l140 307h134l50 -311l138 311h146zM407 555l69 145h121l-93 -145h-97z" />
    <glyph glyph-name="Wdieresis" unicode="&#x1e84;" horiz-adv-x="1037" 
d="M1094 733l-326 -733h-133l-82 489l-222 -489h-134l-117 733h150l69 -495l214 495h151l72 -497l212 497h146zM425 858q0 34 26 59t61 25q28 0 47 -19.5t19 -47.5q0 -16 -7.5 -31.5t-19.5 -27t-27.5 -18.5t-32.5 -7q-29 0 -47.5 19.5t-18.5 47.5zM636 858q0 17 7.5 32
t19.5 26.5t27.5 18.5t32.5 7q28 0 47.5 -19.5t19.5 -47.5q0 -33 -27 -59q-26 -25 -61 -25q-28 0 -47 19.5t-19 47.5z" />
    <glyph glyph-name="wdieresis" unicode="&#x1e85;" horiz-adv-x="811" 
d="M845 496l-243 -496h-122l-57 302l-145 -302h-127l-97 496h136l47 -307l140 307h134l50 -311l138 311h146zM290 627q0 34 26 59t61 25q28 0 47 -19.5t19 -47.5q0 -16 -7.5 -31.5t-19.5 -27t-27.5 -18.5t-32.5 -7q-29 0 -47.5 19.5t-18.5 47.5zM501 627q0 17 7.5 32
t19.5 26.5t27.5 18.5t32.5 7q28 0 47.5 -19.5t19.5 -47.5q0 -33 -27 -59q-26 -25 -61 -25q-28 0 -47 19.5t-19 47.5z" />
    <glyph glyph-name="Ygrave" unicode="&#x1ef2;" horiz-adv-x="654" 
d="M232 733l117 -309l217 309h149l-311 -442l-41 -291h-137l40 291l-188 442h154zM255 931h121l73 -145h-97z" />
    <glyph glyph-name="ygrave" unicode="&#x1ef3;" horiz-adv-x="580" 
d="M616 496l-328 -617q-34 -66 -82.5 -95t-103.5 -29q-61 0 -114 29l49 113q31 -19 61 -19q24 0 44 12.5t33 36.5l24 48l-146 521h138l90 -361l186 361h149zM195 701h121l73 -145h-97z" />
    <glyph glyph-name="endash" unicode="&#x2013;" horiz-adv-x="895" 
d="M864 329l-16 -116h-801l16 116h801z" />
    <glyph glyph-name="emdash" unicode="&#x2014;" horiz-adv-x="1104" 
d="M1071 329l-17 -116h-1007l16 116h1008z" />
    <glyph glyph-name="quoteleft" unicode="&#x2018;" horiz-adv-x="291" 
d="M288 564q0 -37 -24.5 -62t-62.5 -25q-31 0 -51.5 20.5t-20.5 62.5q0 33 12 62t32 50.5t47.5 34t57.5 12.5l-6 -41q-28 0 -47 -16.5t-22 -39.5q9 4 21 4q29 0 46.5 -16.5t17.5 -45.5z" />
    <glyph glyph-name="quoteright" unicode="&#x2019;" horiz-adv-x="291" 
d="M304 633q0 -34 -11.5 -63t-32 -50.5t-47.5 -33.5t-57 -12l5 41q29 0 48 16.5t22 39.5q-8 -4 -23 -4q-29 0 -46 16.5t-17 45.5q0 37 25 61.5t62 24.5q31 0 51.5 -20t20.5 -62z" />
    <glyph glyph-name="quotesinglbase" unicode="&#x201a;" horiz-adv-x="265" 
d="M218 37q0 -63 -36 -102.5t-91 -39.5v41q29 0 45.5 17t15.5 41q-12 -5 -27 -5q-29 0 -48 19t-19 52q0 34 21.5 55.5t55.5 21.5q35 0 59 -24.5t24 -75.5z" />
    <glyph glyph-name="quotedblleft" unicode="&#x201c;" horiz-adv-x="475" 
d="M288 564q0 -37 -24.5 -62t-62.5 -25q-31 0 -51.5 20.5t-20.5 62.5q0 33 12 62t32 50.5t47.5 34t57.5 12.5l-6 -41q-28 0 -47.5 -16.5t-21.5 -39.5q8 4 22 4q29 0 46 -16.5t17 -45.5zM473 564q0 -37 -25 -62t-63 -25q-31 0 -51.5 20.5t-20.5 62.5q0 34 12 63t32 50
t47.5 33t57.5 12l-5 -41q-29 0 -48 -16t-22 -39q9 4 22 4q29 0 46.5 -16.5t17.5 -45.5z" />
    <glyph glyph-name="quotedblright" unicode="&#x201d;" horiz-adv-x="475" 
d="M296 633q0 -34 -11.5 -63t-32 -50.5t-47.5 -33.5t-58 -12l6 41q28 0 47 16.5t22 38.5q-15 -3 -22 -3q-29 0 -46 16.5t-17 45.5q0 37 25 61.5t62 24.5q31 0 51.5 -20t20.5 -62zM480 633q0 -34 -11.5 -63t-32 -50.5t-47.5 -33.5t-57 -12l5 41q29 0 48 16.5t22 39.5
q-8 -4 -23 -4q-29 0 -46 16.5t-17 45.5q0 37 25 61.5t62 24.5q31 0 51.5 -20t20.5 -62z" />
    <glyph glyph-name="quotedblbase" unicode="&#x201e;" horiz-adv-x="475" 
d="M232 54q0 -33 -12 -62t-32 -50.5t-47.5 -34t-57.5 -12.5l6 41q29 0 48 17t22 40q-13 -5 -25 -5q-27 0 -44 17t-17 46q0 37 25 61.5t62 24.5q31 0 51.5 -20.5t20.5 -62.5zM417 54q0 -33 -12 -62t-32 -50.5t-47.5 -34t-57.5 -12.5l5 41q29 0 48 17t22 40q-12 -5 -26 -5
q-27 0 -43.5 17t-16.5 46q0 37 25 61.5t62 24.5q32 0 52.5 -20.5t20.5 -62.5z" />
    <glyph glyph-name="dagger" unicode="&#x2020;" horiz-adv-x="361" 
d="M375 530h-109v-266h-80v266h-109v80h109v100h80v-100h109v-80z" />
    <glyph glyph-name="daggerdbl" unicode="&#x2021;" horiz-adv-x="385" 
d="M377 371h-107v-107h-80v107h-112v80h112v72h-114v80h114v107h80v-107h104v-80h-104v-72h107v-80z" />
    <glyph glyph-name="bullet" unicode="&#x2022;" horiz-adv-x="449" 
d="M65 255q0 39 14.5 72t39 56t57.5 36t69 13q31 0 58 -11.5t46.5 -31t30.5 -46.5t11 -57q0 -39 -14.5 -71.5t-38.5 -55.5t-56.5 -35.5t-68.5 -12.5q-31 0 -58 11t-47 30.5t-31.5 46t-11.5 56.5z" />
    <glyph glyph-name="ellipsis" unicode="&#x2026;" horiz-adv-x="818" 
d="M71 56q0 36 29 65q28 28 67 28q31 0 52 -21.5t21 -52.5q0 -35 -30 -64q-28 -27 -66 -27q-31 0 -52 21t-21 51zM334 56q0 36 29 65q28 28 67 28q31 0 52 -21.5t21 -52.5q0 -35 -30 -64q-30 -27 -66 -27q-31 0 -52 21t-21 51zM596 56q0 36 29 65q29 28 68 28
q31 0 51.5 -21.5t20.5 -52.5q0 -35 -30 -64q-28 -27 -66 -27q-31 0 -52 21t-21 51z" />
    <glyph glyph-name="perthousand" unicode="&#x2030;" horiz-adv-x="1363" 
d="M271 747q67 0 110 -44.5t43 -126.5q0 -48 -13.5 -88.5t-38 -70t-58.5 -46t-74 -16.5q-69 0 -111.5 45.5t-42.5 126.5q0 48 13.5 88.5t37.5 70t58 45.5t76 16zM166 0l558 732h130l-558 -732h-130zM244 443q42 0 66 35t24 90q0 45 -19 67t-49 22q-42 0 -66.5 -34t-24.5 -89
q0 -46 19 -68.5t50 -22.5zM790 377q67 0 110 -45t43 -127q0 -48 -13.5 -88.5t-38 -70t-58.5 -46t-74 -16.5q-69 0 -111.5 45.5t-42.5 126.5q0 48 13.5 88.5t37.5 70t58 46t76 16.5zM1160 377q67 0 110 -45t43 -127q0 -48 -13.5 -88.5t-38 -70t-58.5 -46t-74 -16.5
q-69 0 -111.5 45.5t-42.5 126.5q0 48 13.5 88.5t37.5 70t58 46t76 16.5zM764 73q40 0 64.5 35t24.5 90q0 45 -18.5 66.5t-49.5 21.5q-42 0 -66.5 -34t-24.5 -89q0 -45 19.5 -67.5t50.5 -22.5zM1133 73q40 0 65 35t25 90q0 45 -18.5 66.5t-49.5 21.5q-42 0 -66.5 -34
t-24.5 -89q0 -45 19.5 -67.5t49.5 -22.5z" />
    <glyph glyph-name="minute" unicode="&#x2032;" horiz-adv-x="166" 
d="M174 487h-64l-22 187q-3 32 14 49.5t41 15.5q20 0 36 -14t16 -40q0 -8 -1 -11z" />
    <glyph glyph-name="guilsinglleft" unicode="&#x2039;" horiz-adv-x="416" 
d="M199 248l183 -248h-168l-182 248l252 248h167z" />
    <glyph glyph-name="guilsinglright" unicode="&#x203a;" horiz-adv-x="417" 
d="M384 248l-251 -248h-168l252 248l-182 248h167z" />
    <glyph glyph-name="uni2042" unicode="&#x2042;" horiz-adv-x="939" 
d="M548 399l-41 57q-22 29 -39 72q-5 -17 -14.5 -35t-22.5 -37l-43 -57l-55 38l41 60q14 19 28 34t28 26q-26 4 -46 8t-34 9l-68 25l25 62l64 -21q20 -8 38.5 -17.5t35.5 -20.5q-9 45 -9 82v71h67v-71q0 -41 -9 -82q30 22 73 38l66 21l24 -62l-69 -25q-14 -5 -34 -9t-46 -8
q24 -20 55 -60l39 -60zM329 181q-19 -7 -38.5 -11t-41.5 -6q14 -11 27.5 -26.5t27.5 -33.5l40 -60l-55 -38l-41 57q-24 32 -39 72q-9 -31 -37 -72l-43 -57l-55 38l41 60q31 39 56 60q-22 2 -41.5 6t-38.5 11l-68 24l25 63l65 -22q22 -8 40 -17.5t33 -19.5q-9 45 -9 82v71h67
v-71q0 -41 -9 -82q17 11 35 20.5t38 16.5l66 22l24 -63zM861 44l-54 -38l-41 57q-24 32 -39 72q-5 -17 -14.5 -35t-22.5 -37l-43 -57l-55 38l41 60q31 39 56 60q-22 2 -41.5 6t-38.5 11l-68 24l25 63l64 -22q17 -6 35.5 -15t37.5 -22l-5 30t-4 52v71h67v-71q0 -23 -2 -43
t-6 -39q17 11 35 20.5t38 16.5l66 22l24 -63l-69 -24q-19 -7 -38.5 -11t-41.5 -6q19 -17 55 -60z" />
    <glyph glyph-name="fraction" unicode="&#x2044;" horiz-adv-x="170" 
d="M-242 0l541 710h113l-541 -710h-113z" />
    <glyph glyph-name="uni2070" unicode="&#x2070;" horiz-adv-x="510" 
d="M255 292h-1q-51 0 -90.5 19t-67 52t-42 79t-14.5 100q0 55 14.5 101t42.5 79t67.5 51.5t89.5 18.5h1h1q50 0 90 -19t67.5 -52t42 -79t14.5 -100q0 -111 -57 -180q-55 -68 -157 -70h-1zM373 542q0 72 -30.5 114.5t-87.5 42.5q-58 0 -88.5 -44t-30.5 -113q0 -70 30.5 -114
t88.5 -44t88 43t30 115z" />
    <glyph glyph-name="uni2074" unicode="&#x2074;" horiz-adv-x="461" 
d="M421 389h-61v-89h-87v89h-233v87l233 306h87v-306h61v-87zM273 476v168l-126 -168h126z" />
    <glyph glyph-name="uni2075" unicode="&#x2075;" horiz-adv-x="429" 
d="M389 462q0 -35 -14 -66t-38.5 -54t-56.5 -36.5t-68 -13.5t-67 13t-54.5 36t-37 54t-13.5 67h88q0 -35 24 -58.5t60 -23.5q37 0 62.5 24t25.5 58q2 45 -22.5 71t-69.5 26q-25 0 -46.5 -12t-26.5 -28l-80 20l61 243h257v-88h-189l-21 -74q29 15 59 15q76 0 121 -49
q46 -49 46 -124z" />
    <glyph glyph-name="uni2076" unicode="&#x2076;" horiz-adv-x="461" 
d="M421 470q0 -39 -14 -72t-39 -57t-59.5 -37.5t-75.5 -13.5q-100 0 -146 70q-47 71 -47 176q0 53 13 100t38.5 82t64.5 55.5t91 20.5t95.5 -20.5t69.5 -62.5l-75 -45q-34 39 -90 39q-51 0 -81.5 -30.5t-35.5 -82.5q42 51 114 51q33 0 65 -11.5t57 -33.5t40 -54.5t15 -73.5z
M334 469q0 43 -28.5 67.5t-67.5 24.5q-42 0 -69 -25t-27 -67q0 -43 28 -68t68 -25t68 25t28 68z" />
    <glyph glyph-name="uni2077" unicode="&#x2077;" horiz-adv-x="418" 
d="M378 782v-90q-172 -130 -172 -392h-90q0 85 25 189q26 107 126 203h-227v90h338z" />
    <glyph glyph-name="uni2078" unicode="&#x2078;" horiz-adv-x="429" 
d="M389 429q0 -62 -49 -99q-49 -38 -122 -38q-39 0 -71.5 10t-56.5 28.5t-37 44.5t-13 57q0 42 23.5 76.5t65.5 48.5q-32 14 -50 42.5t-18 64.5q0 29 11.5 52.5t32.5 40.5t49 26t61 9t61 -9.5t48.5 -26t32 -40t11.5 -52.5q0 -37 -18.5 -65.5t-50.5 -41.5q42 -13 66 -49
t24 -79zM215 591q33 0 54.5 17.5t21.5 43.5q0 28 -22.5 44.5t-54.5 16.5t-54.5 -16.5t-22.5 -44.5q0 -25 23 -43t55 -18zM214 514q-37 0 -62.5 -19.5t-24.5 -50.5q0 -31 25.5 -51t61.5 -20q38 0 63 21.5t25 52.5t-26 49t-62 18z" />
    <glyph glyph-name="uni2079" unicode="&#x2079;" horiz-adv-x="461" 
d="M215 290q-52 0 -95.5 21t-69.5 63l74 43q17 -19 38.5 -28.5t52.5 -9.5q51 0 81.5 29.5t35.5 83.5q-43 -51 -115 -51q-34 0 -65.5 11.5t-56.5 33.5t-40 54.5t-15 73.5q0 39 14 72t38.5 57t59 37.5t76.5 13.5q99 0 146 -71t47 -177q0 -111 -53 -184q-52 -72 -153 -72z
M319 616q0 43 -28 68t-68 25t-67.5 -25t-27.5 -68t28.5 -67.5t67.5 -24.5q40 0 67.5 24.5t27.5 67.5z" />
    <glyph glyph-name="uni2080" unicode="&#x2080;" horiz-adv-x="510" 
d="M255 -108h-1q-51 0 -90.5 19t-67 52t-42 79t-14.5 100q0 55 14.5 101t42.5 79t67.5 51.5t89.5 18.5h1h1q50 0 90 -19t67.5 -52t42 -79t14.5 -100q0 -111 -57 -180q-55 -68 -157 -70h-1zM373 142q0 72 -30.5 114.5t-87.5 42.5q-58 0 -88.5 -44t-30.5 -113q0 -70 30.5 -114
t88.5 -44t88 43t30 115z" />
    <glyph glyph-name="uni2081" unicode="&#x2081;" horiz-adv-x="309" 
d="M227 383v-483h-89v393l-98 -41v88l98 43h89z" />
    <glyph glyph-name="uni2082" unicode="&#x2082;" horiz-adv-x="422" 
d="M48 -10l208 169q21 18 29 33.5t8 33.5q0 37 -22 58t-60 21q-35 0 -58 -19t-25 -57h-88q4 76 50.5 119.5t119.5 43.5q39 0 70.5 -13t54 -35t35 -52t12.5 -65q0 -79 -73 -137l-130 -102l191 1v-88l-322 -1v90z" />
    <glyph glyph-name="uni2083" unicode="&#x2083;" horiz-adv-x="421" 
d="M381 59q0 -36 -13.5 -66.5t-36.5 -53t-54.5 -35t-66.5 -12.5q-36 0 -67.5 13t-54 35.5t-35.5 52t-13 63.5h88q1 -33 22.5 -55t59.5 -22q35 0 58.5 22.5t23.5 57.5q0 37 -22.5 60.5t-59.5 25.5q-23 0 -43 -9l-32 69l1 1l94 88h-171v88h311v-76l-99 -93q51 -17 80.5 -58
t29.5 -96z" />
    <glyph glyph-name="uni2084" unicode="&#x2084;" horiz-adv-x="461" 
d="M421 -11h-61v-89h-87v89h-233v87l233 306h87v-306h61v-87zM273 76v168l-126 -168h126z" />
    <glyph glyph-name="uni2085" unicode="&#x2085;" horiz-adv-x="429" 
d="M389 62q0 -35 -14 -66t-38.5 -54t-56.5 -36.5t-68 -13.5t-67 13t-54.5 36t-37 54t-13.5 67h88q0 -35 24 -58.5t60 -23.5q37 0 62.5 24t25.5 58q2 45 -22.5 71t-69.5 26q-25 0 -46.5 -12t-26.5 -28l-80 20l61 243h257v-88h-189l-21 -74q29 15 59 15q76 0 121 -49
q46 -49 46 -124z" />
    <glyph glyph-name="uni2086" unicode="&#x2086;" horiz-adv-x="461" 
d="M421 70q0 -39 -14 -72t-39 -57t-59.5 -37.5t-75.5 -13.5q-100 0 -146 70q-47 71 -47 176q0 53 13 100t38.5 82t64.5 55.5t91 20.5t95.5 -20.5t69.5 -62.5l-75 -45q-34 39 -90 39q-51 0 -81.5 -30.5t-35.5 -82.5q42 51 114 51q33 0 65 -11.5t57 -33.5t40 -54.5t15 -73.5z
M334 69q0 43 -28.5 67.5t-67.5 24.5q-42 0 -69 -25t-27 -67q0 -43 28 -68t68 -25t68 25t28 68z" />
    <glyph glyph-name="uni2087" unicode="&#x2087;" horiz-adv-x="418" 
d="M378 382v-90q-172 -130 -172 -392h-90q0 85 25 189q26 107 126 203h-227v90h338z" />
    <glyph glyph-name="uni2088" unicode="&#x2088;" horiz-adv-x="429" 
d="M389 30q0 -63 -48 -100.5t-127 -37.5q-39 0 -71 10t-55 28t-35.5 43.5t-12.5 57.5q0 43 23.5 77.5t65.5 48.5q-32 14 -50 42.5t-18 64.5q0 29 11.5 52.5t32 40.5t49 26t61.5 9t61 -9t48.5 -25.5t32 -39.5t11.5 -52q0 -38 -18 -67t-51 -42q42 -13 66 -49t24 -78zM137 254
q0 -28 22 -45.5t56 -17.5q33 0 54.5 17t21.5 44q0 28 -21.5 44.5t-55.5 16.5t-55.5 -16t-21.5 -43zM216 114q-39 0 -64.5 -19t-24.5 -52q0 -32 25 -51t64 -19q38 0 62 19t24 52t-24 51.5t-62 18.5z" />
    <glyph glyph-name="uni2089" unicode="&#x2089;" horiz-adv-x="461" 
d="M215 -110q-52 0 -95.5 21t-69.5 63l74 43q17 -19 38.5 -28.5t52.5 -9.5q51 0 81.5 29.5t35.5 83.5q-43 -51 -115 -51q-34 0 -65.5 11.5t-56.5 33.5t-40 54.5t-15 73.5q0 39 14 72t38.5 57t59 37.5t76.5 13.5q99 0 146 -71t47 -177q0 -111 -53 -184q-52 -72 -153 -72z
M319 216q0 43 -28 68t-68 25t-67.5 -25t-27.5 -68t28.5 -67.5t67.5 -24.5q40 0 67.5 24.5t27.5 67.5z" />
    <glyph glyph-name="Euro" unicode="&#x20ac;" horiz-adv-x="778" 
d="M621 157l64 -94q-106 -75 -231 -75q-116 0 -198 58q-84 59 -112 163h-90l17 122h59q0 25 6 68h-56l17 121h79q51 102 145 163q95 62 212 62q57 0 112 -13.5t97 -38.5l-74 -106q-64 37 -134 37q-66 0 -121.5 -27.5t-94.5 -76.5h267l-50 -121h-275q-7 -29 -7 -68h255
l-47 -122h-179q27 -48 75 -74.5t111 -26.5q40 0 81 13t72 36z" />
    <glyph glyph-name="uni2116" unicode="&#x2116;" horiz-adv-x="1263" 
d="M1236 511q1 -54 -20.5 -101.5t-59 -83t-86 -55t-101.5 -18.5q-47 0 -88 15.5t-71 43.5t-47 67t-17 85q-1 53 20.5 100.5t58 83t86 56t103.5 19.5q46 0 86.5 -15t70.5 -42.5t47.5 -67t17.5 -87.5zM590 710h112l-100 -710h-111l-268 519l-73 -519h-111l99 710h112l268 -519
zM1004 617q-32 0 -58.5 -12t-46 -31.5t-30.5 -45.5t-11 -55q0 -49 31.5 -82.5t88.5 -33.5q33 0 60 12t46.5 32.5t30 47t10.5 54.5q0 51 -33.5 82.5t-87.5 31.5zM766 210h373l-12 -89h-373z" />
    <glyph glyph-name="uni2117" unicode="&#x2117;" horiz-adv-x="512" 
d="M517 499q1 -46 -17 -88t-48.5 -73t-72 -49t-86.5 -17q-47 0 -88.5 18t-72 48.5t-48.5 72t-18 88.5q0 46 18 87t48.5 71.5t72 48t88.5 17.5q46 0 87 -18t71.5 -48.5t48 -71t17.5 -86.5zM471 498q0 38 -14 70.5t-38 56.5t-56.5 37.5t-69.5 13.5q-38 0 -70.5 -13.5
t-56.5 -37.5t-38 -56.5t-14 -70.5t13.5 -70.5t37.5 -56t56.5 -37t71.5 -13.5q37 0 69.5 13.5t56.5 37.5t38 56.5t14 69.5zM376 539v-7q-2 -31 -23 -46.5t-56 -13.5h-22v-77h-45v203h45h22q74 5 79 -55v-4zM327 535v2q-1 18 -29 18h-23v-42h35q16 1 17 19v3z" />
    <glyph glyph-name="trademark" unicode="&#x2122;" horiz-adv-x="616" 
d="M100 733h221l-7 -54h-86l-32 -229h-52l32 229h-84zM355 733h52l63 -221l127 221h51l-40 -283h-51l23 160l-92 -160h-54l-45 157l-22 -157h-52z" />
    <glyph glyph-name="estimated" unicode="&#x212e;" horiz-adv-x="746" 
d="M389 710q73 0 133 -22.5t103.5 -65.5t67.5 -103.5t24 -137.5q1 -5 1 -27v-15.5t-1 -10.5h-558v-180q39 -57 101 -87t141 -30q78 0 142 36.5t96 96.5l38 -14q-37 -75 -110.5 -117t-167.5 -42q-75 0 -137.5 26t-107.5 73t-70 112t-25 144q0 80 24.5 147t68 115t104.5 75
t133 27zM159 364h459v200q-37 51 -96 78.5t-129 27.5q-75 0 -135 -33t-99 -91v-182z" />
    <glyph glyph-name="oneeighth" unicode="&#x215b;" horiz-adv-x="833" 
d="M36 677l77 33v-81l-77 -29v77zM191 710v-367h-78v367h78zM61 0l541 710h113l-541 -710h-113zM521 101q0 27 13.5 51.5t35.5 38.5q-39 27 -39 74q0 20 9 39t25 33.5t38.5 23.5t49.5 9t49 -8.5t38 -23.5t24.5 -34t8.5 -40q0 -44 -38 -73q22 -15 36 -39t14 -50
q0 -21 -9 -41.5t-26.5 -36t-42 -25.5t-54.5 -10t-54.5 9.5t-42 25t-26.5 35.5t-9 42zM702 261q1 15 -12 26t-37 11q-25 0 -37.5 -10.5t-12.5 -25.5q0 -16 13 -27t37 -11q23 0 36.5 11t12.5 26zM711 108q0 17 -15.5 31t-42.5 14q-28 0 -43.5 -14t-14.5 -33q0 -19 15 -32
t43 -13q27 0 42.5 14t15.5 33z" />
    <glyph glyph-name="threeeighths" unicode="&#x215c;" horiz-adv-x="888" 
d="M309 465q0 -53 -38 -91q-37 -37 -92 -37q-28 0 -52.5 10.5t-42 29t-26.5 43.5t-7 54h76q-1 -3 -1 -11q0 -22 15 -36t38 -14t38 15t15 37q0 28 -18 44q-14 11 -35 11q-17 0 -33 -8l-29 60l2 2l57 59h-111v77h230v-66l-61 -61q31 -15 48 -38q27 -34 27 -80zM117 0l541 710
h113l-541 -710h-113zM577 101q0 27 13.5 51.5t35.5 38.5q-39 27 -39 74q0 20 9 39t25 33.5t38.5 23.5t49.5 9t49 -8.5t38 -23.5t24.5 -34t8.5 -40q0 -44 -38 -73q22 -15 36 -39t14 -50q0 -21 -9 -41.5t-26.5 -36t-42 -25.5t-54.5 -10t-54.5 9.5t-42 25t-26.5 35.5t-9 42z
M758 261q1 15 -12 26t-37 11q-25 0 -37.5 -10.5t-12.5 -25.5q0 -16 13 -27t37 -11q23 0 36.5 11t12.5 26zM767 108q0 17 -15.5 31t-42.5 14q-28 0 -43.5 -14t-14.5 -33q0 -19 15 -32t43 -13q27 0 42.5 14t15.5 33z" />
    <glyph glyph-name="fiveeighths" unicode="&#x215d;" horiz-adv-x="895" 
d="M127 479l-1 -9q0 -23 15.5 -38.5t40.5 -15.5q24 0 41 16t17 39q0 28 -17 45t-44 17q-15 0 -29 -7.5t-19 -17.5l-71 19l46 183h197v-77h-137l-10 -35q18 5 31 5q28 0 51.5 -10t41 -28t27 -42.5t9.5 -53.5q0 -26 -10.5 -49.5t-29 -41t-43 -28t-51.5 -10.5q-29 0 -53.5 11
t-42.5 29.5t-27.5 44t-8.5 54.5h77zM124 0l541 710h113l-541 -710h-113zM584 101q0 27 13.5 51.5t35.5 38.5q-39 27 -39 74q0 20 9 39t25 33.5t38.5 23.5t49.5 9t49 -8.5t38 -23.5t24.5 -34t8.5 -40q0 -44 -38 -73q22 -15 36 -39t14 -50q0 -21 -9 -41.5t-26.5 -36t-42 -25.5
t-54.5 -10t-54.5 9.5t-42 25t-26.5 35.5t-9 42zM765 261q1 15 -12 26t-37 11q-25 0 -37.5 -10.5t-12.5 -25.5q0 -16 13 -27t37 -11q23 0 36.5 11t12.5 26zM774 108q0 17 -15.5 31t-42.5 14q-28 0 -43.5 -14t-14.5 -33q0 -19 15 -32t43 -13q27 0 42.5 14t15.5 33z" />
    <glyph glyph-name="seveneighths" unicode="&#x215e;" horiz-adv-x="845" 
d="M318 710v-81q-64 -46 -94 -106q-14 -30 -23 -55t-11 -45t-3 -40t-1 -40h-81q0 177 109 286h-164v81h268zM74 0l541 710h113l-541 -710h-113zM534 101q0 27 13.5 51.5t35.5 38.5q-39 27 -39 74q0 20 9 39t25 33.5t38.5 23.5t49.5 9t49 -8.5t38 -23.5t24.5 -34t8.5 -40
q0 -44 -38 -73q22 -15 36 -39t14 -50q0 -21 -9 -41.5t-26.5 -36t-42 -25.5t-54.5 -10t-54.5 9.5t-42 25t-26.5 35.5t-9 42zM715 261q1 15 -12 26t-37 11q-25 0 -37.5 -10.5t-12.5 -25.5q0 -16 13 -27t37 -11q23 0 36.5 11t12.5 26zM724 108q0 17 -15.5 31t-42.5 14
q-28 0 -43.5 -14t-14.5 -33q0 -19 15 -32t43 -13q27 0 42.5 14t15.5 33z" />
    <glyph glyph-name="arrowleft" unicode="&#x2190;" horiz-adv-x="991" 
d="M65 288l360 359l70 -69l-239 -240h673v-99h-673l239 -238l-70 -71z" />
    <glyph glyph-name="arrowup" unicode="&#x2191;" horiz-adv-x="840" 
d="M452 834l360 -358l-70 -70l-241 239v-645h-98v645l-241 -239l-70 70z" />
    <glyph glyph-name="arrowright" unicode="&#x2192;" horiz-adv-x="990" 
d="M938 305l-359 -358l-70 70l239 240h-673v97l673 1l-239 240l70 69z" />
    <glyph glyph-name="arrowdown" unicode="&#x2193;" horiz-adv-x="837" 
d="M417 -118l-358 358l71 71l239 -239v682h98v-683l240 240l69 -71z" />
    <glyph glyph-name="arrowboth" unicode="&#x2194;" horiz-adv-x="1140" 
d="M801 132l98 94h-416h-234l99 -95v-140l-284 285l284 283v-142l-98 -93l233 1v1h191v-1h224l-97 93v141l283 -283l-283 -284v140z" />
    <glyph glyph-name="arrowupdn" unicode="&#x2195;" horiz-adv-x="750" 
d="M529 99h140l-284 -284l-283 284h141l93 -98v233h-1v191h1v224l-93 -98h-141l283 284l284 -284h-140l-94 99v-416v-234z" />
    <glyph glyph-name="uni2196" unicode="&#x2196;" horiz-adv-x="927" 
d="M544 641h-171l-1 2h172v-2zM776 210l-137 -62l-264 282l-7 -271l-230 141v342l235 -1z" />
    <glyph glyph-name="uni2197" unicode="&#x2197;" horiz-adv-x="832" 
d="M769 733v-507h-99v339l-565 -565l-70 69l565 566h-339v98h508z" />
    <glyph glyph-name="uni2198" unicode="&#x2198;" horiz-adv-x="946" 
d="M851 0l-507 1v99l338 1l-563 563l69 69l564 -563l1 339l98 -1v-508z" />
    <glyph glyph-name="uni2199" unicode="&#x2199;" horiz-adv-x="832" 
d="M96 0v507h100v-339l566 567l69 -69l-566 -568h339l-1 -98h-507z" />
    <glyph glyph-name="partialdiff" unicode="&#x2202;" horiz-adv-x="660" 
d="M623 361q1 -94 -25 -164t-70.5 -117t-101.5 -70t-117 -22q-51 0 -97.5 16t-82.5 47.5t-57.5 78t-21.5 107.5q0 62 22 114.5t61 91t92 60.5t114 22q39 0 79 -10t63 -31q-17 63 -57.5 127.5t-103.5 121.5h167q66 -71 101 -173q35 -100 35 -199zM493 279q0 64 -42 104
q-43 41 -106 41q-37 0 -69.5 -15t-56 -39.5t-37 -56t-13.5 -65.5q0 -64 40.5 -105t106.5 -41q37 0 69.5 14.5t56.5 39.5t37.5 57t13.5 66z" />
    <glyph glyph-name="emptyset" unicode="&#x2205;" horiz-adv-x="864" 
d="M764 557q37 -71 37 -167q2 -87 -29.5 -162.5t-85.5 -130.5t-125 -86t-148 -29q-72 0 -132 26.5t-105 75.5l-94 -76l-51 65l98 79q-37 73 -37 167q-1 84 30.5 158.5t85.5 130t125 87t149 29.5q72 0 131.5 -25.5t104.5 -73.5l94 76l50 -65zM621 547q-56 59 -149 59
q-54 1 -101.5 -21t-82 -61t-54 -91t-18.5 -110q0 -46 14 -90zM272 161q57 -60 149 -60q57 0 104 22t81 60.5t52.5 90.5t18.5 112q0 46 -14 90z" />
    <glyph glyph-name="uni2206" unicode="&#x2206;" horiz-adv-x="722" 
d="M635 110v-110h-588v110l233 600h121zM166 110h349l-174 444z" />
    <glyph glyph-name="product" unicode="&#x220f;" horiz-adv-x="681" 
d="M533 199q-1 -4 -1 -18q0 -30 15.5 -44t43.5 -14q13 0 28 3l-17 -123q-15 -2 -28.5 -3.5t-25.5 -1.5q-67 0 -109.5 33.5t-42.5 105.5q0 17 3 36l45 323h-144l-70 -496h-131l70 496h-90l18 130h221h275h97l-19 -130h-97z" />
    <glyph glyph-name="summation" unicode="&#x2211;" horiz-adv-x="584" 
d="M43 138l257 233l-193 227l19 135h468l-19 -136h-299l185 -226l-250 -234h300l-20 -137h-468z" />
    <glyph glyph-name="minus" unicode="&#x2212;" horiz-adv-x="530" 
d="M465 376l-15 -110h-379l15 110h379z" />
    <glyph glyph-name="radical" unicode="&#x221a;" horiz-adv-x="740" 
d="M766 732v-120h-164l-244 -612h-120l-186 495h120l127 -339l227 576h240z" />
    <glyph glyph-name="infinity" unicode="&#x221e;" horiz-adv-x="940" 
d="M275 496q128 0 201 -118q73 118 201 118q43 0 81 -16t66 -44t44 -66t16 -82q0 -43 -16 -80.5t-44 -65.5t-66 -44t-81 -16q-127 0 -201 117q-73 -117 -201 -117q-43 0 -81 16t-66 44t-44 65.5t-16 80.5q0 44 16 82t44 66t66 44t81 16zM275 201q35 0 68 19.5t53 67.5
q-20 48 -53 68t-68 20q-37 0 -62.5 -25t-25.5 -63t25.5 -62.5t62.5 -24.5zM676 201q38 0 63 24.5t25 62.5q0 39 -25 63.5t-63 24.5q-35 0 -68 -20t-53 -68q20 -46 53.5 -66.5t67.5 -20.5z" />
    <glyph glyph-name="integral" unicode="&#x222b;" horiz-adv-x="442" 
d="M20 107h59q56 0 67 68l53 384q12 88 57.5 138t121.5 50h94l-17 -120h-58q-29 0 -45.5 -16t-20.5 -52l-54 -384q-12 -88 -57.5 -137.5t-123.5 -49.5h-93z" />
    <glyph glyph-name="approxequal" unicode="&#x2248;" horiz-adv-x="470" 
d="M450 392q-4 -54 -31 -87t-78 -33q-30 0 -54.5 11t-57.5 32q-24 15 -39 22.5t-30 7.5q-18 0 -31.5 -11t-14.5 -31h-65q3 54 31 86t74 32q28 0 52.5 -11t55.5 -31q26 -16 42.5 -24t33.5 -8q18 0 31 11t16 34h65zM426 223q-4 -57 -34 -89t-79 -32q-31 0 -54 11t-54 32
q-24 17 -37.5 24t-30.5 7q-20 0 -31.5 -11.5t-15.5 -30.5h-65q1 52 33 84.5t81 32.5q30 0 53 -11t53 -31q22 -16 37.5 -23.5t31.5 -7.5q18 0 31.5 11t15.5 34h65z" />
    <glyph glyph-name="notequal" unicode="&#x2260;" horiz-adv-x="594" 
d="M400 403l-69 -128h214l-16 -110h-259l-56 -103h-122l56 103h-107l16 110h151l70 128h-204l15 110h249l63 116h122l-63 -116h118l-16 -110h-162z" />
    <glyph glyph-name="lessequal" unicode="&#x2264;" horiz-adv-x="582" 
d="M75 475l491 158l-20 -144l-270 -84l246 -85l-19 -142l-447 159zM29 142h469l-21 -142h-469z" />
    <glyph glyph-name="greaterequal" unicode="&#x2265;" horiz-adv-x="557" 
d="M64 290l287 92l-261 91l17 122l433 -155l-17 -118l-476 -155zM40 122h455l-17 -122h-455z" />
    <glyph glyph-name="filledbox" unicode="&#x25a0;" horiz-adv-x="899" 
d="M820 710v-710h-710v710h710z" />
    <glyph glyph-name="uni25A1" unicode="&#x25a1;" horiz-adv-x="899" 
d="M820 710v-710h-710v710h710zM207 97h515v516h-515v-516z" />
    <glyph glyph-name="triagup" unicode="&#x25b2;" horiz-adv-x="904" 
d="M840 0h-846l423 710z" />
    <glyph glyph-name="uni25B3" unicode="&#x25b3;" horiz-adv-x="966" 
d="M52 3l424 711l423 -711h-847zM476 539l-270 -451h539z" />
    <glyph glyph-name="lozenge" unicode="&#x25ca;" horiz-adv-x="647" 
d="M591 355l-202 -355h-124l-201 355l201 355h124zM459 355l-132 241l-132 -241l132 -241z" />
    <glyph glyph-name="circle" unicode="&#x25cb;" horiz-adv-x="898" 
d="M64 333q-1 78 30 149t84.5 124.5t124.5 85t149 29.5q78 2 149 -29.5t124.5 -85t85 -124.5t29.5 -149q2 -78 -29.5 -149t-85 -124.5t-124.5 -85t-149 -29.5q-79 -2 -150 29t-124.5 84.5t-84 125t-29.5 149.5zM750 333q1 60 -23 114.5t-65 95.5t-95.5 65t-114.5 23
q-60 1 -114.5 -22.5t-96 -65t-65 -96t-22.5 -114.5q-1 -60 22.5 -114.5t65 -96t96 -65t114.5 -22.5q60 -1 114.5 22.5t96 65t65 96t22.5 114.5z" />
    <glyph glyph-name="uni25CF" unicode="&#x25cf;" horiz-adv-x="898" 
d="M64 333q-1 78 30 149t84.5 124.5t124.5 85t149 29.5q78 2 149 -29.5t124.5 -85t85 -124.5t29.5 -149q2 -78 -29.5 -149t-85 -124.5t-124.5 -85t-149 -29.5q-79 -2 -150 29t-124.5 84.5t-84 125t-29.5 149.5z" />
    <glyph glyph-name="uni262E" unicode="&#x262e;" horiz-adv-x="876" 
d="M840 333q2 -78 -29.5 -149t-85 -124.5t-124.5 -85t-149 -29.5q-79 -2 -150 29t-124.5 84.5t-84 125t-29.5 149.5q-1 78 30 149t84.5 124.5t124.5 85t149 29.5q78 2 149 -29.5t124.5 -85t85 -124.5t29.5 -149zM154 333q0 -60 23 -117l234 162v250q-54 -7 -101 -33
t-81.5 -65.5t-54.5 -90t-20 -106.5zM492 378l234 -161q24 56 24 116q0 55 -20 105t-54.5 90t-82 66.5t-101.5 33.5v-250zM411 279l-192 -132q36 -45 85.5 -73.5t106.5 -35.5v241zM492 279v-241q58 7 107.5 35.5t84.5 73.5z" />
    <glyph glyph-name="smileface" unicode="&#x263a;" horiz-adv-x="872" 
d="M61 334q-2 77 29 147.5t85 124t125.5 84.5t151.5 29q78 2 148 -29t123.5 -84.5t84 -124t28.5 -147.5q2 -79 -29 -150.5t-83.5 -125t-123 -84.5t-148.5 -29q-80 -2 -151.5 28.5t-125.5 84t-85 125t-29 151.5zM756 333q1 63 -23 119.5t-66 98t-97.5 65.5t-118.5 23
q-64 1 -120.5 -23t-98.5 -65.5t-65.5 -98t-22.5 -119.5q-1 -64 22.5 -120t65 -97t98 -64.5t121.5 -22.5q63 -1 118.5 22.5t97.5 65t66 97.5t23 119zM269 422q0 24 18 42.5t43 18.5q24 0 41.5 -18.5t17.5 -42.5t-17.5 -42.5t-41.5 -18.5q-25 0 -43 18.5t-18 42.5zM515 419
q0 24 17.5 42t43.5 18q24 0 41.5 -18t17.5 -42t-17.5 -42.5t-41.5 -18.5q-26 0 -43.5 18t-17.5 43zM355 299q-4 -43 24 -75q28 -31 73 -31t73 30.5t25 75.5h73q2 -36 -11 -68.5t-36.5 -57t-55.5 -39t-68 -14.5q-37 0 -69 14.5t-55 39t-35.5 57t-10.5 68.5h73z" />
    <glyph glyph-name="uni2713" unicode="&#x2713;" horiz-adv-x="653" 
d="M115 319l138 -148l307 370l83 -70l-386 -464l-217 234z" />
    <glyph glyph-name="uni2776" unicode="&#x2776;" horiz-adv-x="809" 
d="M50 348q-1 72 27 136.5t77 113.5t113.5 77.5t136.5 26.5q71 2 136 -26.5t114 -77.5t78 -113.5t27 -136.5q2 -71 -27 -136t-78 -114t-114 -78t-136 -27q-72 -2 -136.5 27t-113.5 78t-77 114t-27 136zM451 551h-70l-76 -39v-72l71 34v-316h75v393z" />
    <glyph glyph-name="uni2777" unicode="&#x2777;" horiz-adv-x="809" 
d="M50 348q-1 72 27 136.5t77 113.5t113.5 77.5t136.5 26.5q71 2 136 -26.5t114 -77.5t78 -113.5t27 -136.5q2 -71 -27 -136t-78 -114t-114 -78t-136 -27q-72 -2 -136.5 27t-113.5 78t-77 114t-27 136zM337 425q7 27 26 43t44 16q26 0 44.5 -14.5t20.5 -40.5
q1 -21 -7.5 -37.5t-28.5 -32.5q-10 -8 -22 -16t-28 -17l-38 -22q-36 -20 -56 -48.5t-21 -63.5l-1 -34h272v72h-175q4 10 21 19l36 21q25 14 41 24.5t24 16.5q30 23 44 50t14 63q0 58 -40 95q-41 38 -99 38q-54 0 -93 -30.5t-50 -84.5z" />
    <glyph glyph-name="uni2778" unicode="&#x2778;" horiz-adv-x="809" 
d="M50 348q-1 72 27 136.5t77 113.5t113.5 77.5t136.5 26.5q71 2 136 -26.5t114 -77.5t78 -113.5t27 -136.5q2 -71 -27 -136t-78 -114t-114 -78t-136 -27q-72 -2 -136.5 27t-113.5 78t-77 114t-27 136zM537 440q0 52 -36 84t-94 32q-57 0 -93 -30.5t-44 -84.5l70 -18
q2 26 19.5 43t47.5 17q23 0 37.5 -12.5t14.5 -33.5q0 -18 -13.5 -30.5t-36.5 -14.5l-11 -1l-15 1v-69q5 1 13 0.5t12 -0.5q28 -2 45.5 -15t17.5 -35q0 -24 -17.5 -38.5t-45.5 -14.5t-48 17t-27 47l-69 -17q5 -52 44 -86t102 -34q59 0 99 33q41 33 41 85q0 30 -13.5 56
t-37.5 39q19 12 28.5 33.5t9.5 46.5z" />
    <glyph glyph-name="uni2779" unicode="&#x2779;" horiz-adv-x="809" 
d="M50 348q-1 72 27 136.5t77 113.5t113.5 77.5t136.5 26.5q71 2 136 -26.5t114 -77.5t78 -113.5t27 -136.5q2 -71 -27 -136t-78 -114t-114 -78t-136 -27q-72 -2 -136.5 27t-113.5 78t-77 114t-27 136zM482 158v71h60v72h-60v250h-73l-179 -248v-74h176v-71h76zM406 426
v-125h-94z" />
    <glyph glyph-name="uni277A" unicode="&#x277a;" horiz-adv-x="809" 
d="M50 348q-1 72 27 136.5t77 113.5t113.5 77.5t136.5 26.5q71 2 136 -26.5t114 -77.5t78 -113.5t27 -136.5q2 -71 -27 -136t-78 -114t-114 -78t-136 -27q-72 -2 -136.5 27t-113.5 78t-77 114t-27 136zM362 472h155v74h-215l-38 -220l65 -11q10 18 28 28.5t39 10.5
q31 0 50 -19t19 -50t-18.5 -50t-48.5 -19q-60 0 -69 63l-73 -18q7 -54 45 -86.5t95 -32.5q65 0 105 40q42 41 42 103t-39 102q-38 41 -97 41q-31 0 -56 -14z" />
    <glyph glyph-name="uni277B" unicode="&#x277b;" horiz-adv-x="809" 
d="M50 348q-1 72 27 136.5t77 113.5t113.5 77.5t136.5 26.5q71 2 136 -26.5t114 -77.5t78 -113.5t27 -136.5q2 -71 -27 -136t-78 -114t-114 -78t-136 -27q-72 -2 -136.5 27t-113.5 78t-77 114t-27 136zM401 483q52 0 75 -41l70 24q-18 42 -55 66t-86 24q-78 0 -121 -53
t-43 -152q0 -96 40.5 -151t109.5 -55q64 0 107 42t43 108q0 29 -11 54t-30 43.5t-44.5 29t-55.5 10.5q-54 0 -83 -32q2 39 25.5 61t58.5 22zM325 289q0 30 19.5 49.5t50.5 19.5q29 0 48.5 -19.5t19.5 -49.5q0 -32 -19 -51.5t-50 -19.5t-50 19.5t-19 51.5z" />
    <glyph glyph-name="uni277C" unicode="&#x277c;" horiz-adv-x="809" 
d="M50 348q-1 72 27 136.5t77 113.5t113.5 77.5t136.5 26.5q71 2 136 -26.5t114 -77.5t78 -113.5t27 -136.5q2 -71 -27 -136t-78 -114t-114 -78t-136 -27q-72 -2 -136.5 27t-113.5 78t-77 114t-27 136zM403 158q18 186 137 310v62h-253v-68h161q-54 -72 -83.5 -145.5
t-38.5 -158.5h77z" />
    <glyph glyph-name="uni277D" unicode="&#x277d;" horiz-adv-x="809" 
d="M50 348q-1 72 27 136.5t77 113.5t113.5 77.5t136.5 26.5q71 2 136 -26.5t114 -77.5t78 -113.5t27 -136.5q2 -71 -27 -136t-78 -114t-114 -78t-136 -27q-72 -2 -136.5 27t-113.5 78t-77 114t-27 136zM550 277q0 31 -13.5 57.5t-36.5 40.5q14 12 22 31.5t8 39.5
q0 51 -35 80.5t-93 29.5t-93.5 -30t-35.5 -81q0 -18 8 -37.5t21 -33.5q-22 -13 -35.5 -40t-13.5 -59q0 -60 40 -94t109 -34q67 0 107.5 35t40.5 95zM351 442q0 18 14.5 29.5t36.5 11.5t36.5 -11.5t14.5 -29.5t-14 -29t-37 -11t-37 11t-14 29zM331 279q0 27 19.5 43.5
t51.5 16.5t52 -16.5t20 -43.5q0 -26 -20 -42.5t-52 -16.5t-51.5 16.5t-19.5 42.5z" />
    <glyph glyph-name="uni277E" unicode="&#x277e;" horiz-adv-x="809" 
d="M50 348q-1 72 27 136.5t77 113.5t113.5 77.5t136.5 26.5q71 2 136 -26.5t114 -77.5t78 -113.5t27 -136.5q2 -71 -27 -136t-78 -114t-114 -78t-136 -27q-72 -2 -136.5 27t-113.5 78t-77 114t-27 136zM401 219q-27 0 -47 10.5t-30 31.5l-72 -25q18 -42 57.5 -65.5
t88.5 -23.5q75 0 116 49.5t41 146.5v15.5t-1 11.5q-4 87 -43 136.5t-111 49.5q-62 0 -103 -42q-41 -41 -41 -104q0 -58 39 -99q41 -39 99 -39q54 0 87 33q-2 -38 -22.5 -61.5t-57.5 -24.5zM469 413q0 -31 -20 -50t-51 -19q-28 0 -47 20t-19 50q0 31 19.5 50t50.5 19
q29 0 48 -19.5t19 -50.5z" />
    <glyph glyph-name="uni2780" unicode="&#x2780;" horiz-adv-x="876" 
d="M826 333q2 -78 -29.5 -149t-85 -124.5t-124.5 -85t-149 -29.5q-79 -2 -150 29t-124.5 84.5t-84 125t-29.5 149.5q-1 78 30 149t84.5 124.5t124.5 85t149 29.5q78 2 149 -29.5t124.5 -85t85 -124.5t29.5 -149zM736 333q1 60 -23 114.5t-65 95.5t-95.5 65t-114.5 23
q-60 1 -114.5 -22.5t-96 -65t-65 -96t-22.5 -114.5q-1 -60 22.5 -114.5t65 -96t96 -65t114.5 -22.5q60 -1 114.5 22.5t96 65t65 96t22.5 114.5zM493 510v-367h-78v252h-7h-62v77h46q8 0 15 4.5t8 14.5v19h78z" />
    <glyph glyph-name="uni2781" unicode="&#x2781;" horiz-adv-x="876" 
d="M826 333q2 -78 -29.5 -149t-85 -124.5t-124.5 -85t-149 -29.5q-79 -2 -150 29t-124.5 84.5t-84 125t-29.5 149.5q-1 78 30 149t84.5 124.5t124.5 85t149 29.5q78 2 149 -29.5t124.5 -85t85 -124.5t29.5 -149zM736 333q1 60 -23 114.5t-65 95.5t-95.5 65t-114.5 23
q-60 1 -114.5 -22.5t-96 -65t-65 -96t-22.5 -114.5q-1 -60 22.5 -114.5t65 -96t96 -65t114.5 -22.5q60 -1 114.5 22.5t96 65t65 96t22.5 114.5zM436 229l132 1v-76l-257 -1q-2 42 9.5 68t43.5 48l112 82q19 16 23 35q1 3 1 11q0 23 -14.5 36.5t-38.5 13.5q-23 0 -36.5 -12.5
t-13.5 -34.5q0 -10 1 -13h-77q-4 57 28.5 94t86.5 42q3 1 11 1q10 0 13 -1q52 -4 84.5 -39.5t32.5 -89.5q-1 -24 -7 -41t-17.5 -31.5t-30.5 -28.5t-46 -34z" />
    <glyph glyph-name="uni2782" unicode="&#x2782;" horiz-adv-x="876" 
d="M826 333q2 -78 -29.5 -149t-85 -124.5t-124.5 -85t-149 -29.5q-79 -2 -150 29t-124.5 84.5t-84 125t-29.5 149.5q-1 78 30 149t84.5 124.5t124.5 85t149 29.5q78 2 149 -29.5t124.5 -85t85 -124.5t29.5 -149zM736 333q1 60 -23 114.5t-65 95.5t-95.5 65t-114.5 23
q-60 1 -114.5 -22.5t-96 -65t-65 -96t-22.5 -114.5q-1 -60 22.5 -114.5t65 -96t96 -65t114.5 -22.5q60 -1 114.5 22.5t96 65t65 96t22.5 114.5zM542 341q26 -35 26 -80q0 -53 -38 -91q-37 -37 -91 -37q-28 0 -53 10.5t-42.5 29t-26.5 43.5t-7 54h76q-1 -3 -1 -11
q0 -22 15.5 -36t38.5 -14q22 0 37.5 15t15.5 37q0 28 -19 44q-14 11 -34 11q-17 0 -33 -8l-29 60l1 2l57 59h-111v77h230v-66l-61 -61q30 -13 49 -38z" />
    <glyph glyph-name="uni2783" unicode="&#x2783;" horiz-adv-x="876" 
d="M826 333q2 -78 -29.5 -149t-85 -124.5t-124.5 -85t-149 -29.5q-79 -2 -150 29t-124.5 84.5t-84 125t-29.5 149.5q-1 78 30 149t84.5 124.5t124.5 85t149 29.5q78 2 149 -29.5t124.5 -85t85 -124.5t29.5 -149zM736 333q1 60 -23 114.5t-65 95.5t-95.5 65t-114.5 23
q-60 1 -114.5 -22.5t-96 -65t-65 -96t-22.5 -114.5q-1 -60 22.5 -114.5t65 -96t96 -65t114.5 -22.5q60 -1 114.5 22.5t96 65t65 96t22.5 114.5zM522 294h45v-76h-45v-66h-78v67h-169v76l169 225h78v-226zM444 295v101l-75 -101h75z" />
    <glyph glyph-name="uni2784" unicode="&#x2784;" horiz-adv-x="876" 
d="M50 333q-1 78 30 149t84.5 124.5t124.5 85t149 29.5q78 2 149 -29.5t124.5 -85t85 -124.5t29.5 -149q2 -78 -29.5 -149t-85 -124.5t-124.5 -85t-149 -29.5q-79 -2 -150 29t-124.5 84.5t-84 125t-29.5 149.5zM736 333q1 60 -23 114.5t-65 95.5t-95.5 65t-114.5 23
q-60 1 -114.5 -22.5t-96 -65t-65 -96t-22.5 -114.5q-1 -60 22.5 -114.5t65 -96t96 -65t114.5 -22.5q60 -1 114.5 22.5t96 65t65 96t22.5 114.5zM378 279l-1 -9q0 -23 15.5 -38.5t40.5 -15.5q24 0 41 16t17 39q0 28 -17 45t-44 17q-16 0 -29.5 -7.5t-18.5 -17.5l-71 19
l46 183h197v-77h-137l-10 -35q18 5 31 5q28 0 51.5 -10t41 -28t27 -42.5t9.5 -53.5q0 -26 -10.5 -49.5t-29 -41t-43 -28t-51.5 -10.5q-29 0 -54 11t-43 29.5t-27 44t-8 54.5h77z" />
    <glyph glyph-name="uni2785" unicode="&#x2785;" horiz-adv-x="876" 
d="M50 333q-1 78 30 149t84.5 124.5t124.5 85t149 29.5q78 2 149 -29.5t124.5 -85t85 -124.5t29.5 -149q2 -78 -29.5 -149t-85 -124.5t-124.5 -85t-149 -29.5q-79 -2 -150 29t-124.5 84.5t-84 125t-29.5 149.5zM736 333q1 60 -23 114.5t-65 95.5t-95.5 65t-114.5 23
q-60 1 -114.5 -22.5t-96 -65t-65 -96t-22.5 -114.5q-1 -60 22.5 -114.5t65 -96t96 -65t114.5 -22.5q60 -1 114.5 22.5t96 65t65 96t22.5 114.5zM435 516q86 -2 128 -69l-56 -37q-22 34 -66 34q-26 0 -49 -18t-29 -50q29 35 77 35q28 0 50.5 -10t38.5 -28t24.5 -41.5
t8.5 -50.5q0 -59 -37 -99q-36 -40 -98 -40q-67 0 -105 51q-36 53 -36 127q0 54 20 106q17 39 51.5 64t77.5 26zM425 213q26 0 43.5 17.5t17.5 46.5q0 26 -17 43.5t-41 18.5q-24 0 -41.5 -18.5t-17.5 -46.5t15.5 -44.5t40.5 -16.5z" />
    <glyph glyph-name="uni2786" unicode="&#x2786;" horiz-adv-x="876" 
d="M826 333q2 -78 -29.5 -149t-85 -124.5t-124.5 -85t-149 -29.5q-79 -2 -150 29t-124.5 84.5t-84 125t-29.5 149.5q-1 78 30 149t84.5 124.5t124.5 85t149 29.5q78 2 149 -29.5t124.5 -85t85 -124.5t29.5 -149zM736 333q1 60 -23 114.5t-65 95.5t-95.5 65t-114.5 23
q-60 1 -114.5 -22.5t-96 -65t-65 -96t-22.5 -114.5q-1 -60 22.5 -114.5t65 -96t96 -65t114.5 -22.5q60 -1 114.5 22.5t96 65t65 96t22.5 114.5zM306 510h268v-81q-64 -46 -94 -106q-14 -30 -23 -55t-11 -45t-3 -40t-1 -40h-81q0 177 108 286h-163v81z" />
    <glyph glyph-name="uni2787" unicode="&#x2787;" horiz-adv-x="876" 
d="M50 333q-1 78 30 149t84.5 124.5t124.5 85t149 29.5q78 2 149 -29.5t124.5 -85t85 -124.5t29.5 -149q2 -78 -29.5 -149t-85 -124.5t-124.5 -85t-149 -29.5q-79 -2 -150 29t-124.5 84.5t-84 125t-29.5 149.5zM736 333q1 60 -23 114.5t-65 95.5t-95.5 65t-114.5 23
q-60 1 -114.5 -22.5t-96 -65t-65 -96t-22.5 -114.5q-1 -60 22.5 -114.5t65 -96t96 -65t114.5 -22.5q60 -1 114.5 22.5t96 65t65 96t22.5 114.5zM302 255q0 26 14 49.5t36 38.5q-39 31 -39 73q0 20 8.5 39t24.5 34t38.5 24t49.5 9t49 -9t38 -23t24.5 -32.5t8.5 -38.5
q0 -47 -39 -76q22 -14 35.5 -37.5t13.5 -48.5q0 -22 -9 -42.5t-26 -36.5t-41 -25.5t-54 -9.5t-54 9t-41 24.5t-27 36t-10 42.5zM483 414q0 15 -13 26t-36 11t-36 -11t-14 -26q0 -15 13.5 -26t36.5 -11t36 11t13 26zM491 261q-1 18 -16 31t-41 13q-28 0 -42.5 -13t-14.5 -32
q0 -18 15 -31.5t42 -13.5t42 13.5t15 32.5z" />
    <glyph glyph-name="uni2788" unicode="&#x2788;" horiz-adv-x="876" 
d="M50 333q-1 78 30 149t84.5 124.5t124.5 85t149 29.5q78 2 149 -29.5t124.5 -85t85 -124.5t29.5 -149q2 -78 -29.5 -149t-85 -124.5t-124.5 -85t-149 -29.5q-79 -2 -150 29t-124.5 84.5t-84 125t-29.5 149.5zM736 333q1 60 -23 114.5t-65 95.5t-95.5 65t-114.5 23
q-60 1 -114.5 -22.5t-96 -65t-65 -96t-22.5 -114.5q-1 -60 22.5 -114.5t65 -96t96 -65t114.5 -22.5q60 -1 114.5 22.5t96 65t65 96t22.5 114.5zM428 247q-23 0 -45.5 8.5t-40 24.5t-28 39.5t-10.5 54.5q0 29 10.5 54.5t28.5 44t42 29.5t51 11q51 0 86.5 -29.5t45.5 -80.5
q9 -40 9 -79q0 -40 -9.5 -74.5t-28.5 -59t-46.5 -38.5t-63.5 -14q-37 0 -69.5 18t-53.5 52l60 36q10 -16 26.5 -24t34.5 -8q27 0 49 18t29 53q-11 -17 -33 -26.5t-44 -9.5zM441 443q-26 1 -45 -17.5t-19 -48.5t17.5 -46.5t41.5 -16.5q26 0 43.5 18t17.5 47q-1 26 -16 44
t-40 20z" />
    <glyph glyph-name="DegarismLogo" horiz-adv-x="1528" 
d="M731 275h229v-267h-82l-10 80h-9q0 -3 -7 -18t-23.5 -30.5t-44.5 -28t-71 -11.5q-95 0 -155 64q-60 65 -60 189q0 65 19.5 113.5t52 80.5t75 48t88.5 16q37 0 73.5 -10.5t67 -32.5t52.5 -55t29 -78h-113q-10 36 -37.5 57.5t-69.5 21.5q-63 0 -94.5 -44.5t-31.5 -112.5
q0 -34 7.5 -63.5t23 -51t39 -33.5t54.5 -12q43 0 73 23t38 60h-113v95zM997 457q0 22 16 38t39 16t38.5 -15.5t15.5 -38.5t-16 -39t-38 -16t-38.5 16.5t-16.5 38.5zM1135 457q0 22 16 38t39 16t38.5 -15.5t15.5 -38.5t-16 -39t-38 -16t-38.5 16.5t-16.5 38.5zM1276 511h84
v-21h-30v-85h-25v85h-29v21zM1488 511v-106h-25v91l-15 -91h-35l-14 91v-91h-25v106h44l12 -88l14 88h44zM464 257q0 -124 -61 -186.5t-169 -62.5h-194v498h194q108 0 169 -62.5t61 -186.5zM354 257q0 96 -42 127q-40 31 -78 31h-66q-25 2 -42.5 12t-19.5 12l-8 -8
q3 -3 11.5 -11t18.5 -19q15 -13 18.5 -29t3.5 -27v-177q0 -25 -10 -39.5t-12 -16.5l-30 -30l8 -7q3 3 22.5 13.5t47.5 10.5h58q39 0 79 30q41 32 41 128zM1210 345q18 0 34 -3v-89q-4 1 -18 1q-49 0 -76.5 -25.5t-27.5 -80.5v-140h-108v257q0 49 -7 77h109q2 -10 2.5 -20
t1.5 -20q22 43 90 43z" />
    <glyph glyph-name="G.ss01" horiz-adv-x="770" 
d="M756 400l-13 -95q-10 -69 -39 -127t-75.5 -100t-110 -66t-141.5 -24q-68 0 -127.5 21t-104 62.5t-70 104t-25.5 145.5q-1 91 28.5 169t83.5 135t128.5 89t162.5 31q117 0 196 -54t106 -148l-131 -48q-18 60 -64 91t-112 31q-57 0 -104.5 -20.5t-82.5 -58.5t-54.5 -90.5
t-19.5 -117.5q0 -106 50 -160t143 -54q38 0 72.5 10.5t62.5 31t48.5 51t29.5 70.5h-205l17 121h351z" />
    <glyph glyph-name="ampersand.ss02" horiz-adv-x="708" 
d="M674 0q-34 0 -59.5 2t-45 8t-33.5 16.5t-26 26.5q-86 -64 -214 -64q-57 0 -103.5 14.5t-79 40.5t-50 63t-17.5 82q0 42 13.5 77.5t38.5 65.5t61.5 57t82.5 53q-23 35 -34.5 65.5t-11.5 63.5q0 38 14.5 70t40.5 55.5t61 37t75 13.5q72 0 112.5 -38t40.5 -101
q0 -48 -30 -92t-105 -95l118 -173q10 23 15.5 48.5t7.5 53.5h115q-12 -123 -66 -207q8 -10 15.5 -15.5t18 -8t25.5 -3t36 -0.5zM317 583q0 -15 7.5 -33.5t26.5 -48.5q43 26 60.5 47.5t17.5 44.5t-14.5 35.5t-35.5 12.5q-26 0 -44 -16.5t-18 -41.5zM305 102q79 0 140 45
l-144 209q-68 -41 -99 -73.5t-31 -77.5q0 -51 38.5 -77t95.5 -26z" />
    <glyph glyph-name="bracketleftsuperior" horiz-adv-x="198" 
d="M193 -152h-151v663h151v-67h-79v-528h79v-68z" />
    <glyph glyph-name="bracketrightsuperior" horiz-adv-x="193" 
d="M79 -84v528h-79v67h151v-663h-151v68h79z" />
    <glyph glyph-name="eight.dnom" horiz-adv-x="359" 
d="M48 101q0 27 13.5 51.5t35.5 38.5q-39 27 -39 74q0 20 9 39t25 33.5t38.5 23.5t49.5 9t49 -8.5t38 -23.5t24.5 -34t8.5 -40q0 -44 -38 -73q22 -15 36 -39t14 -50q0 -21 -9 -41.5t-26.5 -36t-42 -25.5t-54.5 -10t-54.5 9.5t-42 25t-26.5 35.5t-9 42zM229 261q1 15 -12 26
t-37 11q-25 0 -37.5 -10.5t-12.5 -25.5q0 -16 13 -27t37 -11q23 0 36.5 11t12.5 26zM238 108q0 17 -15.5 31t-42.5 14q-28 0 -43.5 -14t-14.5 -33q0 -19 15 -32t43 -13q27 0 42.5 14t15.5 33z" />
    <glyph glyph-name="eight.numr" horiz-adv-x="361" 
d="M50 448q0 26 13.5 50t35.5 38q-19 14 -28.5 34t-9.5 41q0 20 8.5 38.5t24.5 33t38.5 23.5t49.5 9t49.5 -9t38 -23.5t24 -33.5t8.5 -39q-2 -46 -39 -74q22 -14 35.5 -37.5t13.5 -48.5q0 -22 -9 -42t-26.5 -36t-42 -25.5t-55.5 -9.5q-29 0 -52.5 9t-40.5 24t-26.5 35.5
t-9.5 42.5zM230 609q0 14 -13.5 24.5t-35.5 10.5q-23 0 -36 -10.5t-14 -25.5q1 -16 14 -27t36 -11t36.5 12t12.5 27zM238 454q0 19 -15 32t-42 13t-42 -13.5t-15 -32.5q0 -18 15 -31.5t42 -13.5t42 13.5t15 32.5z" />
    <glyph glyph-name="eight.tf" horiz-adv-x="634" 
d="M473 384q51 -22 77.5 -65t26.5 -100q0 -52 -22 -94.5t-60 -73t-90.5 -47t-112.5 -16.5q-54 0 -99.5 14t-79 40t-52 62t-18.5 79q0 74 46 130q46 58 120 79q-37 19 -60.5 55.5t-23.5 87.5q0 47 20 85.5t54 66.5t79.5 43.5t96.5 15.5q47 0 86.5 -13.5t69 -37.5t46 -58
t16.5 -75q0 -6 -1 -15.5t-3 -22.5q-16 -102 -116 -140zM363 630q-55 0 -91.5 -28t-36.5 -74q0 -36 29 -62t84 -26q60 0 94 28.5t34 71.5q0 39 -31 64.5t-82 25.5zM321 326q-63 0 -104 -31.5t-41 -85.5q0 -46 34.5 -73.5t92.5 -27.5q31 0 58 8.5t46.5 24t30.5 38t11 49.5
q0 46 -35 72t-93 26z" />
    <glyph glyph-name="five.dnom" horiz-adv-x="371" 
d="M128 131l-1 -9q0 -24 16 -39.5t41 -15.5t42 16t17 39q1 29 -16 47t-46 18q-15 0 -29.5 -7.5t-19.5 -17.5l-72 18l46 188h203v-79h-141l-10 -35q13 4 31 4q58 0 95 -38t37 -98q0 -27 -10.5 -51t-29 -42.5t-43.5 -29t-54 -10.5q-30 0 -55 11t-43 30.5t-27.5 45t-8.5 55.5
h78z" />
    <glyph glyph-name="five.numr" horiz-adv-x="366" 
d="M127 479l-1 -9q0 -23 15.5 -38.5t40.5 -15.5q24 0 41 16t17 39q0 28 -17 45t-44 17q-15 0 -29 -7.5t-19 -17.5l-71 19l46 183h197v-77h-137l-10 -35q18 5 31 5q28 0 51.5 -10t41 -28t27 -42.5t9.5 -53.5q0 -26 -10.5 -49.5t-29 -41t-43 -28t-51.5 -10.5q-29 0 -53.5 11
t-42.5 29.5t-27.5 44t-8.5 54.5h77z" />
    <glyph glyph-name="five.tf" horiz-adv-x="635" 
d="M306 602l-48 -114q42 19 97 19q51 0 91 -17.5t68 -48.5t43 -73t15 -92q0 -60 -20.5 -112.5t-58 -91.5t-91 -61.5t-118.5 -22.5q-54 0 -99.5 16.5t-78 45.5t-50.5 70.5t-18 90.5q0 11 0.5 20t1.5 15h130q-1 -4 -1 -18q0 -48 32.5 -78.5t86.5 -30.5q33 0 61 12.5t48.5 34.5
t32 50.5t11.5 59.5q0 54 -32.5 87t-89.5 33q-40 0 -72.5 -16.5t-53.5 -45.5l-114 30l144 369h371l-19 -131h-269z" />
    <glyph glyph-name="four.dnom" horiz-adv-x="398" 
d="M348 59h-47v-67h-78v68h-173v78l173 230h78v-230l47 -1v-78zM223 138v104l-77 -104h77z" />
    <glyph glyph-name="four.numr" horiz-adv-x="391" 
d="M342 408h-46v-66h-77v67h-169v76l169 225h77v-226h46v-76zM219 484v102l-75 -101z" />
    <glyph glyph-name="four.ss03" horiz-adv-x="685" 
d="M651 135h-93l-19 -135h-128l19 136h-386l19 130l385 -1l46 327l-279 -326h-152l397 467h155h27l-66 -468h94z" />
    <glyph glyph-name="four.tf" horiz-adv-x="656" 
d="M606 135h-93l-19 -135h-129l19 136h-345l19 130l357 467h154l-359 -468h193l24 174h128l-24 -174h94z" />
    <glyph glyph-name="g.ss02" horiz-adv-x="604" 
d="M608 495l-67 -476q-18 -128 -90 -196.5t-190 -68.5q-100 0 -167.5 46.5t-84.5 125.5l122 43q6 -46 41.5 -71.5t90.5 -25.5q66 0 103 36t46 102l8 52q-29 -26 -70 -39.5t-79 -13.5q-53 0 -95.5 16t-72.5 45.5t-46 70t-16 88.5q0 60 20 112t56 89.5t86.5 59t110.5 21.5
q57 0 100.5 -18t63.5 -52l13 54h117zM445 280q0 52 -33.5 85t-87.5 33q-66 0 -108 -45q-41 -44 -41 -111q0 -54 32 -87t86 -33q33 0 60.5 12.5t48 33.5t32 50t11.5 62z" />
    <glyph glyph-name="i.loclTRK" horiz-adv-x="238" 
d="M228 496l-70 -496h-131l69 496h132zM105 628q0 17 7 32t19 26.5t27.5 18.5t32.5 7q28 0 47 -19.5t19 -47.5q0 -16 -7.5 -31.5t-19.5 -27t-27.5 -18.5t-32.5 -7q-28 0 -46.5 19t-18.5 48z" />
    <glyph glyph-name="i.ss04" horiz-adv-x="291" 
d="M294 655l-103 -90l-76 90l102 89zM247 496l-69 -496h-131l69 496h131z" />
    <glyph glyph-name="nine.dnom" horiz-adv-x="380" 
d="M177 99q-24 0 -47 8.5t-40.5 25t-28.5 41t-11 55.5q0 60 38 101q39 41 98 41q51 0 87 -30.5t46 -81.5q5 -20 7.5 -41.5t2.5 -43.5q0 -40 -9.5 -74.5t-28 -59t-46 -39t-63.5 -14.5q-40 0 -73 18t-56 54l61 37q11 -17 28 -26t35 -9q28 0 51 19t27 56q-11 -18 -33.5 -27.5
t-44.5 -9.5zM188 300q-26 1 -45 -17t-19 -49t18 -49t43 -18t43 18t18 48q0 27 -15.5 46t-42.5 21z" />
    <glyph glyph-name="nine.numr" horiz-adv-x="374" 
d="M175 447q-24 0 -46.5 8.5t-40 25t-28 40.5t-10.5 54q0 29 10.5 54.5t28.5 44t42 29t51 10.5q51 0 86.5 -29.5t45.5 -80.5q9 -42 9 -82q0 -80 -37 -131.5t-109 -51.5q-37 0 -69.5 18t-53.5 52l60 36q10 -16 26.5 -24t33.5 -8q28 0 50 18t28 53q-11 -18 -33 -27t-44 -9z
M186 643q-25 1 -44 -17t-19 -47q0 -30 18 -47.5t42 -17.5q25 0 42.5 17.5t17.5 45.5q0 27 -15.5 45.5t-41.5 20.5z" />
    <glyph glyph-name="nine.tf" horiz-adv-x="686" 
d="M651 432q0 -109 -24.5 -192.5t-70.5 -139.5t-111.5 -85t-147.5 -29q-81 0 -151 32q-69 33 -99 93l118 65q44 -59 135 -59q78 0 130.5 43t69.5 124q-29 -34 -77 -51.5t-96 -17.5q-50 0 -95 16.5t-79 48.5t-54 79t-20 108q-1 56 21 107.5t62 90t94 61t117 21.5
q68 0 120 -24t87 -66t53 -99.5t18 -125.5zM506 493q0 27 -9 50.5t-26 41t-41 27.5t-54 10q-36 0 -65.5 -12.5t-50.5 -34t-32.5 -49.5t-11.5 -58q0 -27 9 -51t25.5 -41.5t40.5 -28t54 -10.5q35 0 64.5 12.5t51 34t33.5 50t12 59.5z" />
    <glyph glyph-name="one.dnom" horiz-adv-x="262" 
d="M36 334l77 33v-80l-77 -30v77zM190 367v-367h-77v367h77z" />
    <glyph glyph-name="one.numr" horiz-adv-x="263" 
d="M36 677l77 33v-81l-77 -29v77zM191 710v-367h-78v367h78z" />
    <glyph glyph-name="one.tf" horiz-adv-x="584" 
d="M510 114l-16 -114h-280h-156l17 114h155l87 619h132l-87 -619h148zM168 653l149 80l-19 -137l-149 -74z" />
    <glyph glyph-name="registered.ss01" horiz-adv-x="569" 
d="M346 745q50 0 91.5 -17t71.5 -46.5t46.5 -70.5t16.5 -89q1 -54 -20 -104.5t-59 -89t-89 -61t-110 -21.5q-50 0 -92 17t-72 47t-47 71t-17 89q-1 54 21.5 104.5t61 89t90 61t107.5 20.5zM296 301q44 0 84 17.5t70.5 47.5t48.5 69.5t18 84.5q0 38 -13 69.5t-36 54.5t-55 36
t-70 13q-44 0 -84 -17.5t-70.5 -47t-48.5 -69t-18 -84.5q0 -78 45 -126t129 -48zM261 608h83q74 0 74 -60q-1 -49 -52 -71l28 -93h-55l-25 86h-25l-12 -86h-48zM330 514q14 0 23 7.5t9 19.5q0 21 -26 21h-33l-8 -48h35z" />
    <glyph glyph-name="seven.dnom" horiz-adv-x="368" 
d="M318 368v-81q-64 -46 -94 -106q-14 -30 -23 -55t-11 -45t-3 -40.5t-1 -40.5h-81q0 18 1 36.5t3 37.5q5 41 28 99q24 61 77 114h-164v81h268z" />
    <glyph glyph-name="seven.numr" horiz-adv-x="368" 
d="M318 710v-81q-64 -46 -94 -106q-14 -30 -23 -55t-11 -45t-3 -40t-1 -40h-81q0 177 109 286h-164v81h268z" />
    <glyph glyph-name="seven.tf" horiz-adv-x="546" 
d="M597 732l-19 -133q-135 -95 -211 -218t-100 -214q-24 -88 -36 -167h-133q14 116 76 282q65 169 237 317h-344l19 133h511z" />
    <glyph glyph-name="six.dnom" horiz-adv-x="387" 
d="M333 130q0 -28 -9.5 -53t-27.5 -44.5t-44 -31t-58 -11.5q-36 0 -63 14t-45 39t-27 59.5t-9 75.5q0 82 41 138q42 55 119 55q45 0 76.5 -16.5t50.5 -44.5l-59 -41q-23 29 -67 29q-32 0 -52.5 -18t-28.5 -45q28 28 77 28q57 0 91 -40q35 -40 35 -93zM251 122q0 29 -17 47
t-43 18t-42 -17.5t-16 -47.5q0 -29 16 -45.5t42 -16.5q25 0 42.5 16.5t17.5 45.5z" />
    <glyph glyph-name="six.numr" horiz-adv-x="387" 
d="M334 475q0 -28 -10 -53t-28 -44.5t-44 -31t-58 -11.5q-36 0 -62.5 14t-44.5 39t-27 59.5t-9 74.5q0 81 41 137q42 55 117 55q45 0 77 -16t51 -44l-58 -41q-24 29 -67 29q-32 0 -53 -18t-28 -45q28 28 77 28q29 0 52 -10.5t39.5 -28.5t25.5 -42t9 -51zM252 467
q0 29 -17 46.5t-43 17.5t-42.5 -17.5t-16.5 -46.5t16.5 -45.5t42.5 -16.5q25 0 42.5 16.5t17.5 45.5z" />
    <glyph glyph-name="six.tf" horiz-adv-x="681" 
d="M638 276q0 -59 -21 -112t-59.5 -92.5t-93 -62.5t-122.5 -23q-132 0 -204 87q-71 88 -71 234v20t1 15q5 86 31 159.5t72 128.5t111.5 86t148.5 31q85 0 148.5 -32.5t95.5 -90.5l-116 -64q-45 57 -136 57q-81 0 -135 -47t-72 -126q29 36 77 53.5t100 17.5q47 0 91.5 -16
t79 -46.5t55 -75t19.5 -101.5zM376 397q-35 0 -64.5 -12.5t-50.5 -34t-33 -49.5t-12 -59q0 -52 35 -92q35 -38 94 -38q35 0 64.5 13t51 34.5t33.5 49.5t12 59q0 25 -9 48.5t-25.5 41.5t-41 28.5t-54.5 10.5z" />
    <glyph glyph-name="t.ss03" horiz-adv-x="373" 
d="M225 183q-1 -8 -1.5 -13.5t-0.5 -8.5q0 -56 55 -56q27 0 58 9l-17 -114q-49 -11 -87 -11q-66 0 -104 32t-38 101q0 19 3 40l31 222h-76l16 112h76l22 154h130l-22 -154h112l-15 -112h-113z" />
    <glyph glyph-name="three.dnom" horiz-adv-x="360" 
d="M312 123q0 -55 -39 -93q-37 -37 -95 -37q-30 0 -54.5 11t-42 29.5t-26.5 44t-7 54.5h77q-1 -3 -1 -11q0 -22 14.5 -36.5t38.5 -14.5q25 0 41 15t16 39t-16.5 39t-39.5 15q-17 0 -33 -8l-29 59v1l60 61h-114v77h233v-66l-62 -62q35 -14 57 -44.5t22 -72.5z" />
    <glyph glyph-name="three.numr" horiz-adv-x="359" 
d="M309 465q0 -53 -38 -91q-37 -37 -92 -37q-28 0 -52.5 10.5t-42 29t-26.5 43.5t-7 54h76q-1 -3 -1 -11q0 -22 15 -36t38 -14t38 15t15 37q0 28 -18 44q-14 11 -35 11q-17 0 -33 -8l-29 60l2 2l57 59h-111v77h230v-66l-61 -61q31 -15 48 -38q27 -34 27 -80z" />
    <glyph glyph-name="three.tf" horiz-adv-x="585" 
d="M576 618l-177 -156q66 -21 104.5 -75t38.5 -136q0 -62 -22 -111t-59.5 -83t-88 -52t-106.5 -18q-55 0 -100 16.5t-77 46t-50 68.5t-18 84q0 11 0.5 19.5t1.5 13.5h130q-1 -3 -1 -16q0 -46 33 -74.5t88 -28.5q63 0 100 35.5t37 95.5q0 51 -31 79t-88 31q-6 1 -18.5 1
h-32.5h-50l8 89l174 154l-268 1l19 130h469z" />
    <glyph glyph-name="two.dnom" horiz-adv-x="380" 
d="M68 76l130 110q25 22 33.5 33t8.5 28q0 22 -14 35.5t-38 13.5t-38 -13.5t-14 -37.5l1 -10h-77q-2 29 7 54t26.5 43t43.5 28.5t57 10.5q57 0 91 -34t35 -88q0 -36 -17.5 -62.5t-48.5 -52.5l-72 -59l133 1v-76l-247 -1v77z" />
    <glyph glyph-name="two.numr" horiz-adv-x="359" 
d="M58 418l130 110q24 20 32.5 31.5t9.5 27.5q0 23 -13.5 37t-38.5 14q-24 0 -38 -13.5t-14 -37.5l1 -10h-77q-2 29 7 54t26.5 43t43.5 28.5t57 10.5q58 0 92 -34t34 -88q0 -37 -18 -63.5t-48 -51.5l-72 -59l133 1v-76l-247 -1v77z" />
    <glyph glyph-name="two.tf" horiz-adv-x="591" 
d="M40 134l348 254q40 30 59 60t19 65q0 48 -31 76.5t-83 28.5q-51 0 -90.5 -29.5t-51.5 -89.5h-131q8 59 33.5 105t62.5 78t84 48.5t99 16.5q54 0 98 -16t75.5 -45t49 -69.5t17.5 -88.5q0 -141 -145 -241l-221 -157l295 1l-18 -129l-488 -2z" />
    <glyph glyph-name="zero.dnom" horiz-adv-x="418" 
d="M206 -12q-72 0 -114 51t-42 138q0 85 43 137q44 53 115 52q73 1 116.5 -50.5t43.5 -138.5t-43.5 -138t-118.5 -51zM289 177q0 46 -18 74.5t-50 33.5l-12 1l-11 -1q-32 -5 -50.5 -33.5t-18.5 -74.5q0 -51 21.5 -80t58.5 -30q38 1 59 30t21 80z" />
    <glyph glyph-name="zero.numr" horiz-adv-x="427" 
d="M212 342q-73 0 -116 51.5t-43 139.5q0 43 11.5 78.5t32.5 60.5t50.5 38.5t65.5 13.5t66 -13.5t51 -38.5t32.5 -60t11.5 -79q0 -86 -45 -139q-43 -52 -117 -52zM294 533q0 48 -18.5 76.5t-50.5 32.5q-3 1 -11 1q-9 0 -12 -1q-32 -5 -50.5 -33t-18.5 -76q0 -51 21.5 -80.5
t59.5 -30.5q37 1 58.5 30.5t21.5 80.5z" />
    <glyph glyph-name="zero.tf" horiz-adv-x="768" 
d="M434 746q66 0 121 -24t94.5 -68.5t61.5 -108.5t22 -145q2 -85 -25 -161t-75 -132.5t-114.5 -89t-143.5 -30.5q-66 0 -122.5 23.5t-97.5 67.5t-64 107t-23 141q-1 87 27 164t77.5 134.5t116.5 90.5t145 31zM376 122q51 -1 91 22.5t67 62.5t40.5 89.5t13.5 103.5
q0 99 -44 153.5t-123 54.5q-49 1 -88.5 -23t-66.5 -63.5t-41 -90t-14 -103.5q0 -97 43 -151t122 -55z" />
    </font>
</defs>
</svg>
