<svg width="28" height="28" viewBox="0 0 28 28" fill="none" xmlns="http://www.w3.org/2000/svg">
<path d="M18.0247 4.41039C17.978 4.70206 17.9547 4.99372 17.9547 5.28539C17.9547 7.91039 20.078 10.0326 22.6913 10.0326C22.983 10.0326 23.263 9.99872 23.5547 9.95206V19.3659C23.5547 23.3221 21.2213 25.6671 17.2547 25.6671H8.63415C4.66632 25.6671 2.33298 23.3221 2.33298 19.3659V10.7337C2.33298 6.76706 4.66632 4.41039 8.63415 4.41039H18.0247ZM18.2592 11.5037C17.943 11.4687 17.6292 11.6087 17.4413 11.8654L14.6192 15.5171L11.3863 12.9737C11.188 12.8221 10.9547 12.7626 10.7213 12.7871C10.4892 12.8221 10.2792 12.9492 10.138 13.1359L6.68582 17.6287L6.61465 17.7337C6.41632 18.1059 6.50965 18.5842 6.85965 18.8421C7.02299 18.9471 7.19799 19.0171 7.39632 19.0171C7.66582 19.0287 7.92132 18.8876 8.08465 18.6671L11.013 14.8976L14.338 17.3954L14.443 17.4642C14.8163 17.6626 15.283 17.5704 15.5513 17.2192L18.923 12.8687L18.8763 12.8921C19.063 12.6354 19.098 12.3087 18.9697 12.0171C18.8425 11.7254 18.5613 11.5271 18.2592 11.5037ZM22.8548 2.33337C24.4064 2.33337 25.6664 3.59337 25.6664 5.14504C25.6664 6.69671 24.4064 7.95671 22.8548 7.95671C21.3031 7.95671 20.0431 6.69671 20.0431 5.14504C20.0431 3.59337 21.3031 2.33337 22.8548 2.33337Z" fill="#1776BA"/>
</svg>
