<svg width="24" height="24" viewBox="0 0 24 24" fill="none" xmlns="http://www.w3.org/2000/svg">
<path d="M8.65733 22.2355V18.6681C8.65733 17.7575 9.40095 17.0193 10.3183 17.0193H13.6715C14.112 17.0193 14.5344 17.193 14.8459 17.5022C15.1574 17.8114 15.3324 18.2308 15.3324 18.6681V22.2355C15.3296 22.6141 15.4792 22.9781 15.7479 23.2468C16.0165 23.5155 16.3821 23.6666 16.7635 23.6666H19.0512C20.1197 23.6693 21.1453 23.2499 21.9018 22.5009C22.6583 21.7518 23.0834 20.7347 23.0834 19.674V9.51125C23.0834 8.65445 22.7008 7.84173 22.0388 7.29203L14.2564 1.12177C12.9027 0.0399073 10.963 0.0748378 9.64971 1.20473L2.04493 7.29203C1.35161 7.82553 0.937226 8.64066 0.916748 9.51125V19.6637C0.916748 21.8744 2.72203 23.6666 4.94895 23.6666H7.18442C7.97651 23.6666 8.62025 23.0322 8.62599 22.2459L8.65733 22.2355Z" fill="#2E3234"/>
</svg>
