<svg width="23" height="22" viewBox="0 0 23 22" fill="none" xmlns="http://www.w3.org/2000/svg">
<path d="M10.5059 20.1657L14.5596 16.1486C15.7152 14.993 16.3572 13.4522 16.3572 11.8014C16.3572 10.1505 15.7152 8.60973 14.5596 7.43579C13.9543 6.84882 12.8904 6.83047 12.2851 7.43579C12.1343 7.58429 12.0145 7.76131 11.9327 7.95656C11.8509 8.1518 11.8088 8.36137 11.8088 8.57304C11.8088 8.78472 11.8509 8.99428 11.9327 9.18953C12.0145 9.38478 12.1343 9.5618 12.2851 9.7103C12.8354 10.2789 13.1656 10.9943 13.1656 11.8014C13.1656 12.5901 12.8354 13.3422 12.2851 13.9108L8.24969 17.9279C7.13078 19.0651 5.18644 19.0651 4.06752 17.9279C3.78955 17.6552 3.56874 17.3298 3.418 16.9708C3.26727 16.6117 3.18963 16.2262 3.18963 15.8368C3.18963 15.4474 3.26727 15.0619 3.418 14.7029C3.56874 14.3438 3.78955 14.0184 4.06752 13.7457L4.80124 12.9937L4.70952 12.7185C4.41604 11.9114 4.26929 10.9943 4.28764 10.0772L4.30598 8.97658L1.8297 11.4712C-0.609899 13.8925 -0.609899 17.7995 1.8297 20.1657C3.00364 21.3947 4.58112 22 6.15861 22C7.73609 22 9.31357 21.3947 10.5059 20.1657Z" fill="#1776BA"/>
<path d="M17.7146 13.012L20.1725 10.5174C21.3648 9.34344 22.0068 7.80264 22.0068 6.15179C22.0068 4.50093 21.3648 2.96014 20.1725 1.82288C19.6071 1.24574 18.9321 0.787244 18.1872 0.474235C17.4423 0.161226 16.6424 0 15.8345 0C15.0265 0 14.2266 0.161226 13.4817 0.474235C12.7368 0.787244 12.0618 1.24574 11.4964 1.82288L7.44261 5.83996C6.28867 6.99613 5.64057 8.56289 5.64057 10.1964C5.64057 11.8299 6.28867 13.3966 7.44261 14.5528C7.75444 14.8646 8.17632 15.0114 8.57986 15.0114C8.79044 15.0147 8.99955 14.9759 9.19487 14.8971C9.39019 14.8184 9.56776 14.7013 9.71712 14.5528C10.0289 14.2593 10.194 13.8558 10.194 13.4156C10.194 12.9753 10.0289 12.5718 9.71712 12.2783C9.16683 11.7097 8.83666 10.9943 8.83666 10.1872C8.83666 9.39847 9.16683 8.64641 9.71712 8.09613L13.7525 4.0607C14.8531 2.94179 16.8158 2.92345 17.9347 4.0607C18.2127 4.33341 18.4335 4.6588 18.5842 5.01784C18.735 5.37689 18.8126 5.76238 18.8126 6.15179C18.8126 6.54119 18.735 6.92669 18.5842 7.28573C18.4335 7.64478 18.2127 7.97017 17.9347 8.24287L17.201 9.01327L17.2927 9.27007C17.5862 10.0772 17.7329 10.9943 17.7146 11.9114V13.012Z" fill="#1776BA"/>
</svg>
