<svg width="28" height="28" viewBox="0 0 28 28" fill="none" xmlns="http://www.w3.org/2000/svg">
<path d="M13.4082 2.33331C16.3045 2.33331 18.6667 4.65498 18.6667 7.51331V13.1016H11.5446C11.0342 13.1016 10.6306 13.4983 10.6306 14C10.6306 14.49 11.0342 14.8983 11.5446 14.8983H18.6667V20.475C18.6667 23.3333 16.3045 25.6666 13.3844 25.6666H7.60368C4.6955 25.6666 2.33334 23.345 2.33334 20.4866V7.52498C2.33334 4.65498 4.70737 2.33331 7.61555 2.33331H13.4082ZM21.6302 9.97521C21.9802 9.61355 22.5519 9.61355 22.9019 9.96355L26.3086 13.3585C26.4836 13.5335 26.5769 13.7552 26.5769 14.0002C26.5769 14.2335 26.4836 14.4669 26.3086 14.6302L22.9019 18.0252C22.7269 18.2002 22.4936 18.2935 22.2719 18.2935C22.0386 18.2935 21.8052 18.2002 21.6302 18.0252C21.2802 17.6752 21.2802 17.1035 21.6302 16.7535L23.4969 14.8985H18.6669V13.1019H23.4969L21.6302 11.2469C21.2802 10.8969 21.2802 10.3252 21.6302 9.97521Z" fill="#1776BA"/>
</svg>
