<svg width="22" height="18" viewBox="0 0 22 18" fill="none" xmlns="http://www.w3.org/2000/svg">
<path d="M10.8946 0.875C13.5184 0.875 15.3504 2.68312 15.3504 5.27432V12.7257C15.3504 15.3169 13.5184 17.125 10.8946 17.125H4.61986C1.996 17.125 0.164062 15.3169 0.164062 12.7257V5.27432C0.164062 2.68312 1.996 0.875 4.61986 0.875H10.8946ZM19.6185 3.45223C20.0941 3.21027 20.6521 3.23557 21.106 3.52152C21.5599 3.80638 21.8307 4.3013 21.8307 4.84242V13.1582C21.8307 13.7005 21.5599 14.1943 21.106 14.4791C20.8579 14.6342 20.5805 14.7134 20.301 14.7134C20.0681 14.7134 19.8352 14.6584 19.6175 14.5473L18.013 13.7379C17.4194 13.4365 17.051 12.8316 17.051 12.1596V5.83997C17.051 5.16687 17.4194 4.56196 18.013 4.26281L19.6185 3.45223Z" fill="#1776BA"/>
</svg>
