<svg width="22" height="16" viewBox="0 0 22 16" fill="none" xmlns="http://www.w3.org/2000/svg">
<path d="M0.767334 7.99998C0.767334 7.8945 0.800692 7.79174 0.862612 7.70638C2.15166 5.97309 3.70902 4.21892 5.44354 2.90195C7.1806 1.58305 9.05859 0.72998 10.9999 0.72998C12.9413 0.72998 14.8193 1.58305 16.5563 2.90195C18.2908 4.21892 19.8482 5.97308 21.1372 7.70636C21.1992 7.79172 21.2325 7.89449 21.2325 7.99998C21.2325 8.10547 21.1992 8.20824 21.1372 8.2936C19.8482 10.0269 18.2908 11.781 16.5563 13.098C14.8193 14.4169 12.9413 15.27 10.9999 15.27C9.05859 15.27 7.1806 14.4169 5.44354 13.098C3.70902 11.781 2.15166 10.0269 0.862612 8.29358C0.800692 8.20822 0.767334 8.10546 0.767334 7.99998ZM8.98681 11.957C9.823 12.3821 10.7724 12.5315 11.6987 12.3837C12.6229 12.2363 13.4769 11.8005 14.1387 11.1387C14.8005 10.477 15.2362 9.62298 15.3837 8.69876C15.5315 7.77241 15.3821 6.82305 14.9569 5.98686C14.5318 5.15067 13.8527 4.47062 13.0171 4.04427C12.1815 3.61792 11.2324 3.46718 10.3058 3.61366C9.37926 3.76014 8.5229 4.19632 7.85959 4.85964C7.19627 5.52295 6.76009 6.37931 6.61361 7.30587C6.46713 8.23243 6.61787 9.18158 7.04422 10.0172C7.47057 10.8527 8.15062 11.5318 8.98681 11.957ZM10.1666 6.75278C10.4132 6.58795 10.7033 6.49998 10.9999 6.49998C11.3978 6.49998 11.7793 6.65802 12.0606 6.93932C12.3419 7.22063 12.4999 7.60216 12.4999 7.99998C12.4999 8.29665 12.412 8.58666 12.2471 8.83333C12.0823 9.08001 11.848 9.27227 11.574 9.3858C11.2999 9.49933 10.9983 9.52904 10.7073 9.47116C10.4163 9.41328 10.149 9.27042 9.93927 9.06064C9.72949 8.85086 9.58663 8.58359 9.52875 8.29262C9.47087 8.00165 9.50058 7.70005 9.61411 7.42596C9.72764 7.15187 9.9199 6.9176 10.1666 6.75278Z" fill="black" stroke="black"/>
</svg>
