<svg width="24" height="24" viewBox="0 0 24 24" fill="none" xmlns="http://www.w3.org/2000/svg">
<path d="M8.82671 16.4614L14.4904 16.4787C14.8435 16.48 15.1294 16.7757 15.1294 17.1383V20.3245C15.1294 20.6883 14.9228 21.0174 14.6009 21.1696L9.45974 23.5837C9.33962 23.6394 9.21229 23.6666 9.08496 23.6666C8.9156 23.6666 8.74623 23.6171 8.59848 23.5193C8.34022 23.3486 8.18406 23.0541 8.18406 22.7386V17.1209C8.18406 16.7559 8.47235 16.4602 8.82671 16.4614ZM21.1837 0.333252C22.5555 0.333252 23.6666 1.47781 23.6666 2.89088V4.67764C23.6666 5.36313 23.3987 6.02141 22.923 6.50151L15.3339 14.1781C15.2029 14.3117 15.0251 14.386 14.8414 14.3848L8.48701 14.365C8.29361 14.365 8.10983 14.2821 7.9777 14.1373L1.00352 6.46686C0.572291 5.99295 0.333252 5.36685 0.333252 4.71723V2.89212C0.333252 1.47905 1.44436 0.333252 2.81613 0.333252H21.1837Z" fill=""/>
</svg>
