<svg width="21" height="23" viewBox="0 0 21 23" fill="none" xmlns="http://www.w3.org/2000/svg">
<path d="M5.21094 0.895411V1.97156V0.895411ZM5.21094 0.895411C5.2098 0.389662 5.55455 0.0114995 6.05414 0.0114995L5.21094 0.895411ZM14.9991 15.8278V15.8279H15.0104C15.8205 15.8279 16.4695 16.4884 16.4695 17.2966M14.9991 15.8278L15.9767 17.2966M14.9991 15.8278L14.9872 15.828C14.1931 15.8473 13.5618 16.5094 13.5763 17.3059M14.9991 15.8278V16.3208C14.4768 16.3334 14.0578 16.7713 14.0692 17.3001M16.4695 17.2966H15.9767M16.4695 17.2966C16.4695 17.2963 16.4695 17.2959 16.4695 17.2956L15.9767 17.2966M16.4695 17.2966C16.4707 18.103 15.8248 18.767 15.0149 18.7688L15.003 18.7688L15.003 18.7687C14.2089 18.7512 13.5805 18.0941 13.5763 17.3059M15.9767 17.2966C15.9778 17.8369 15.5464 18.2748 15.0138 18.2759C14.4915 18.2644 14.0703 17.8288 14.0692 17.3001M13.5763 17.3059C13.5763 17.3075 13.5764 17.3091 13.5764 17.3107L14.0692 17.3001M13.5763 17.3059C13.5763 17.3043 13.5763 17.3027 13.5763 17.3011L14.0692 17.3001M14.5483 0.492861L14.5483 0.492861C14.7614 0.49236 14.9289 0.648415 14.9297 0.884367V1.97156V2.4273L14.9327 2.42754L14.9331 2.95767L14.9343 4.38968C14.9343 4.38977 14.9343 4.38987 14.9343 4.38996C14.9341 4.61927 14.7626 4.78303 14.554 4.78303L14.5529 4.78303C14.3356 4.78353 14.1714 4.62336 14.1714 4.39198V4.39159L14.1703 2.95689L14.1699 2.46442H14.1735L14.1714 1.9695L14.1669 0.885109C14.1669 0.88495 14.1669 0.884791 14.1669 0.884632C14.1666 0.646907 14.3255 0.493375 14.5483 0.492861ZM20.1639 6.81432C19.8543 4.49418 17.9614 2.85117 15.8394 2.51197C17.1224 2.68928 18.1581 3.17583 18.8917 3.91607C19.5881 4.61871 20.0451 5.58264 20.1639 6.81432ZM19.7144 8.3837H20.1959L20.2072 17.1536C20.2094 18.8531 19.6789 20.1743 18.7699 21.0712C17.8599 21.9691 16.5185 22.493 14.8019 22.4957L5.92406 22.5073C4.22307 22.5094 2.88024 21.9771 1.9634 21.0654C1.04677 20.1539 0.507502 18.815 0.505364 17.111L0.505364 17.1109L0.493974 8.3837H0.985719H19.7144ZM6.40731 2.96891L6.44122 4.40486C6.43898 4.63664 6.27576 4.79337 6.06095 4.79337L6.05982 4.79338C5.86261 4.79383 5.7038 4.65351 5.7038 4.40002V2.93754V2.42125V2.39283V1.97156L5.7038 0.895411L5.7038 0.894305C5.70321 0.633702 5.85388 0.504359 6.05414 0.50436L6.05528 0.504358C6.27384 0.503855 6.43342 0.653404 6.43665 0.890377L6.40736 1.95804L6.39347 2.46442H6.3954L6.40731 2.96891ZM1.7701 3.95573C2.3847 3.32024 3.21752 2.86619 4.24026 2.62516C2.29223 3.18632 0.652644 4.86685 0.50385 7.12167C0.579271 5.76256 1.03918 4.71149 1.7701 3.95573ZM5.65336 15.8291L5.64307 15.8291L5.70216 18.23L5.72426 18.7223C5.72448 18.7223 5.72469 18.7223 5.72491 18.7223C6.50721 18.6868 7.12353 18.0213 7.09062 17.2238C7.07031 16.437 6.42686 15.8273 5.65336 15.8291ZM10.3313 15.8233L10.3205 15.8233L10.3097 15.8238C9.51614 15.8605 8.90967 16.522 8.90967 17.3058V17.3169L8.91017 17.328C8.94559 18.1135 9.59301 18.7522 10.4018 18.7166L10.4034 18.7165C11.1829 18.6797 11.8015 18.0168 11.7686 17.2169C11.7483 16.4309 11.1045 15.8216 10.3313 15.8233ZM5.64769 11.6911L5.6374 11.6911L5.69762 14.092L5.71977 14.5844C5.71997 14.5844 5.72017 14.5844 5.72037 14.5844C6.50189 14.5489 7.11784 13.883 7.08494 13.0858C7.06465 12.2994 6.4227 11.6894 5.64769 11.6911ZM10.3268 11.6509L10.3165 11.6509L10.3062 11.6513C9.51181 11.6863 8.90345 12.3498 8.90513 13.1344L8.90515 13.1445L8.90558 13.1545C8.9394 13.9418 9.58939 14.5797 10.3973 14.5442L10.3989 14.5441C11.1793 14.5072 11.7959 13.8434 11.764 13.0456C11.7426 12.2601 11.1016 11.6491 10.3268 11.6509ZM15.0048 11.6566V11.6565L14.076 13.115H13.5831V13.1156C13.5831 13.1157 13.5831 13.1159 13.5831 13.1161L13.5831 13.1276H13.583L13.5832 13.1382C13.6006 13.9457 14.264 14.5561 15.053 14.5388L15.0544 14.5387C15.8501 14.5191 16.4591 13.843 16.4422 13.0561L16.4423 13.0561L16.4417 13.0435C16.4062 12.289 15.7925 11.6548 15.0048 11.6566Z" stroke="black" stroke-width="0.985719"/>
</svg>
