<svg width="24" height="24" viewBox="0 0 24 24" fill="none" xmlns="http://www.w3.org/2000/svg">
<path d="M1.68886 21.6153L1.68884 21.6153L1.68155 21.6176C1.54388 21.6608 1.45028 21.6214 1.40352 21.5782C1.36261 21.5405 1.3171 21.4636 1.35549 21.3208L2.13218 18.7202C2.29636 18.2464 2.27654 17.7109 2.00839 17.2652C1.04233 15.484 0.499756 13.5479 0.499756 11.6839C0.499756 5.79675 5.20471 0.499756 11.6898 0.499756C18.0286 0.499756 22.8331 5.69718 22.8331 11.6489C22.8331 18.5439 17.2165 22.8331 11.6664 22.8331C9.834 22.8331 7.80146 22.3389 6.18339 21.3852C5.60293 21.0319 4.91691 20.6318 4.0393 20.9161L1.68886 21.6153ZM11.636 13.6912L11.636 13.6912H11.6431C12.7508 13.6912 13.6364 12.7864 13.6364 11.6956C13.6364 10.5918 12.7502 9.70196 11.6466 9.70006C10.5478 9.68635 9.64976 10.5933 9.64976 11.6839C9.64976 12.7903 10.5377 13.6757 11.636 13.6912ZM6.26476 13.6912V13.6913L6.27181 13.6912C7.36759 13.6757 8.25809 12.7928 8.25809 11.6956C8.25809 10.5906 7.36994 9.70006 6.26476 9.70006C5.15957 9.70006 4.27142 10.5906 4.27142 11.6956C4.27142 12.789 5.17124 13.6912 6.26476 13.6912ZM17.0214 9.70006C15.9162 9.70006 15.0281 10.5906 15.0281 11.6956C15.0281 12.7864 15.9137 13.6912 17.0214 13.6912C18.1291 13.6912 19.0148 12.7864 19.0148 11.6956C19.0148 10.5906 18.1266 9.70006 17.0214 9.70006Z" stroke="black"/>
</svg>
