<svg width="22" height="22" viewBox="0 0 22 22" fill="none" xmlns="http://www.w3.org/2000/svg">
<path d="M15.9894 0.816717H16.005L16.0206 0.815743C17.4161 0.728521 18.793 1.21015 19.8341 2.15563C20.7792 3.19629 21.2622 4.57417 21.1844 5.98342L21.1837 5.99718V6.01096V15.9893V16.0048L21.1846 16.0202C21.2718 17.4245 20.7811 18.8024 19.8438 19.8454C18.8033 20.7898 17.4166 21.2717 16.0206 21.1845L16.005 21.1835H15.9894H6.01101H5.99551L5.98004 21.1845C4.57318 21.2718 3.19637 20.7897 2.15565 19.8446C1.21049 18.8039 0.728435 17.4271 0.815757 16.0202L0.816717 16.0048V15.9893V6.01096V5.99546L0.815757 5.97999C0.728435 4.57315 1.21049 3.19635 2.15565 2.15564C3.19637 1.21049 4.57318 0.728436 5.98004 0.815757L5.99551 0.816717H6.01101H15.9894ZM12.965 4.84547L12.9623 4.8481L12.2492 5.57194C12.2486 5.57248 12.2481 5.57302 12.2475 5.57357C11.9471 5.87582 11.9476 6.37278 12.2492 6.67434L12.2503 6.67545L12.2503 6.67547L12.2503 6.67551L12.2505 6.67569L12.2512 6.67641L12.2541 6.67927L12.2654 6.69048L12.3084 6.73325L12.3085 6.73332L12.5711 6.99453C12.5712 6.99455 12.5712 6.99457 12.5712 6.9946C12.7231 7.14568 12.9125 7.33429 13.1028 7.52394C13.1029 7.52403 13.103 7.52413 13.1031 7.52422L13.7477 8.16859C13.7479 8.16875 13.748 8.1689 13.7482 8.16905C13.8152 8.23634 13.8702 8.29181 13.909 8.33135C13.9287 8.35132 13.9432 8.36622 13.9527 8.37615L13.9537 8.37714L13.9649 8.38936C14.0039 8.43194 14.0257 8.48439 14.0257 8.54293C14.0257 8.65633 13.9349 8.74803 13.8206 8.74803C13.7731 8.74803 13.7289 8.727 13.7041 8.70217L13.703 8.70112L11.92 6.92873C11.9198 6.92856 11.9196 6.92839 11.9195 6.92822C11.6387 6.64801 11.1729 6.64818 10.8924 6.92873L11.2459 7.28229L10.8924 6.92873L5.79634 12.0247C5.35365 12.4674 5.09751 13.0596 5.08381 13.6914C5.0838 13.6917 5.08379 13.692 5.08378 13.6924L5.01973 16.2223L5.01957 16.2223V16.235C5.01957 16.4772 5.09616 16.743 5.3049 16.9518L5.65846 16.5982L5.30491 16.9518C5.49533 17.1422 5.75092 17.2478 6.02169 17.2478H8.53231C9.1787 17.2478 9.79416 16.9916 10.2589 16.5402L10.2589 16.5402L10.2646 16.5346L17.4545 9.3233L17.4569 9.32093C18.2984 8.46558 18.3025 7.08283 17.454 6.23431L16.0652 4.84547C15.2075 3.98784 13.8226 3.98784 12.965 4.84547Z" stroke="black"/>
</svg>
