<svg width="24" height="24" viewBox="0 0 24 24" fill="none" xmlns="http://www.w3.org/2000/svg">
<path d="M17.0572 0.83252C18.9121 0.83252 20.4289 1.48073 21.4829 2.58158C22.5387 3.68431 23.1663 5.27952 23.1663 7.23569V16.7639C23.1663 18.72 22.5387 20.3149 21.4828 21.4173C20.4287 22.5179 18.9117 23.1659 17.056 23.1659H6.94334C5.08769 23.1659 3.57068 22.5179 2.51658 21.4173C1.46068 20.3149 0.833008 18.72 0.833008 16.7639V7.23569C0.833008 5.27952 1.46069 3.68433 2.51662 2.5816C3.57074 1.48076 5.08775 0.83252 6.94334 0.83252H17.0572ZM8.31418 8.46469C6.36503 8.46469 4.77967 10.05 4.77967 11.9992C4.77967 13.9494 6.36491 15.5349 8.31418 15.5349C9.7786 15.5349 11.0199 14.6372 11.555 13.3742H13.1692V14.1599C13.1692 14.919 13.785 15.5349 14.5442 15.5349C15.3033 15.5349 15.9192 14.919 15.9192 14.1599V13.3742H16.4708V14.1599C16.4708 14.919 17.0867 15.5349 17.8458 15.5349C18.605 15.5349 19.2208 14.919 19.2208 14.1599V11.9992C19.2208 11.24 18.605 10.6242 17.8458 10.6242H11.5549C11.0197 9.36216 9.77846 8.46469 8.31418 8.46469ZM8.31429 11.2146C8.74661 11.2146 9.09996 11.5673 9.09996 12.0002C9.09996 12.4317 8.74691 12.7847 8.31429 12.7847C7.88168 12.7847 7.52863 12.4317 7.52863 12.0002C7.52863 11.5673 7.88197 11.2146 8.31429 11.2146Z" stroke="black"/>
</svg>
