<svg width="24" height="24" viewBox="0 0 24 24" fill="none" xmlns="http://www.w3.org/2000/svg">
<path d="M10.864 14.0711L10.864 14.0711L10.8677 14.0733L15.5717 16.8813L15.5717 16.8813L15.5761 16.8839C15.7862 17.0065 16.0282 17.084 16.296 17.084C16.7655 17.084 17.2327 16.8408 17.4943 16.3947C17.8867 15.7376 17.6762 14.8828 17.0127 14.4774L17.0127 14.4773L17.0078 14.4744L12.98 12.0758V6.816C12.98 6.03152 12.3438 5.416 11.58 5.416C10.8162 5.416 10.18 6.03152 10.18 6.816V12.876C10.18 13.3725 10.4477 13.8177 10.864 14.0711ZM12 0.5C18.3595 0.5 23.5 5.65182 23.5 12C23.5 18.3599 18.3599 23.5 12 23.5C5.65182 23.5 0.5 18.3595 0.5 12C0.5 5.65214 5.65214 0.5 12 0.5Z" stroke="black"/>
</svg>
