<svg width="24" height="24" viewBox="0 0 24 24" fill="none" xmlns="http://www.w3.org/2000/svg">
<path d="M16.8798 14.3847L16.8798 14.3846L16.8757 14.3822L12.9666 12.0543V6.94733C12.9666 6.19881 12.3625 5.57233 11.5916 5.57233C10.8367 5.57233 10.2166 6.19445 10.2166 6.94733V12.8402C10.2166 13.3156 10.4695 13.7747 10.8965 14.0189L15.4561 16.7406C15.6945 16.8956 15.9562 16.9452 16.1766 16.9452C16.6363 16.9452 17.0937 16.7078 17.3511 16.2723C17.7588 15.6137 17.5214 14.775 16.8798 14.3847ZM17.0633 0.833496C18.9193 0.833496 20.4344 1.48195 21.4866 2.58294C22.5407 3.68595 23.1666 5.28178 23.1666 7.239V16.7707C23.1666 18.7223 22.5409 20.3158 21.4867 21.418C20.4345 22.5181 18.9193 23.1668 17.0633 23.1668H6.94825C5.09212 23.1668 3.57378 22.518 2.51852 21.4175C1.46152 20.3152 0.833252 18.7217 0.833252 16.7707V7.239C0.833252 5.28239 1.46172 3.68662 2.51867 2.5834C3.57384 1.48204 5.09208 0.833496 6.94825 0.833496H17.0633Z" stroke="black"/>
</svg>
